<svg width="2338" height="1169" xmlns="http://www.w3.org/2000/svg" xmlns:xlink="http://www.w3.org/1999/xlink" xml:space="preserve" overflow="hidden"><defs><clipPath id="clip0"><rect x="1031" y="653" width="2338" height="1169"/></clipPath></defs><g clip-path="url(#clip0)" transform="translate(-1031 -653)"><rect x="1810" y="653" width="1559" height="1169" fill="#00008B"/><path d="M2182 1237.5C2182 1011.89 2364.67 829 2590 829 2815.33 829 2998 1011.89 2998 1237.5 2998 1463.11 2815.33 1646 2590 1646 2364.67 1646 2182 1463.11 2182 1237.5Z" fill="#FFFFFF" fill-rule="evenodd"/><path d="M2321.31 1109.89C2387.56 1131.07 2443.08 1147.56 2475.65 1215.73 2406.88 1204.2 2363.38 1173.32 2321.31 1109.89Z" stroke="#6D7231" stroke-width="7.5625" stroke-miterlimit="8" fill="#869364" fill-rule="evenodd"/><path d="M2307.49 1214.81C2376.73 1208.31 2434.28 1201.71 2490.97 1251.63 2423.18 1268 2371.06 1256.65 2307.49 1214.81Z" stroke="#6D7231" stroke-width="7.5625" stroke-miterlimit="8" fill="#869364" fill-rule="evenodd"/><path d="M21.6711 0.0289933C41.6682 66.6439 59.4668 121.761 21.6711 187.168-7.71786 123.934-6.8485 70.5915 21.6711 0.0289933Z" stroke="#6D7231" stroke-width="7.5625" stroke-miterlimit="8" fill="#869364" fill-rule="evenodd" transform="matrix(-0.947468 -0.319849 -0.319849 0.947468 2649.59 1164.63)"/><path d="M2793.46 1328.74C2738.82 1371.78 2694.07 1408.55 2619.36 1397.37 2667.41 1346.84 2717.35 1328.09 2793.46 1328.74Z" stroke="#6D7231" stroke-width="7.5625" stroke-miterlimit="8" fill="#869364" fill-rule="evenodd"/><path d="M21.6781 0.022925C41.6752 66.6379 59.4737 121.755 21.6781 187.162-7.71089 123.928-6.84176 70.5855 21.6781 0.022925Z" stroke="#6D7231" stroke-width="7.5625" stroke-miterlimit="8" fill="#869364" fill-rule="evenodd" transform="matrix(-0.989678 -0.14331 -0.14331 0.989678 2698.95 1097.96)"/><path d="M2453.56 1028.6C2488.18 1088.92 2518.06 1138.54 2496.13 1210.83 2453.13 1155.94 2441.84 1103.8 2453.56 1028.6Z" stroke="#6D7231" stroke-width="7.5625" stroke-miterlimit="8" fill="#869364" fill-rule="evenodd"/><path d="M2471.66 1104.99C2467.95 1119.1 2488.87 1189.35 2492.62 1225.12 2454.51 1194.45 2399.42 1155.97 2386.57 1154.1 2393.54 1167.43 2480.5 1219.31 2511.32 1252.72 2466.7 1239.68 2398.3 1225.87 2384.97 1230.01 2397.14 1237.78 2509.5 1253.42 2542.65 1273.49 2544.96 1293.91 2548.85 1314.97 2553.26 1335.33 2556.85 1351.87 2560.54 1368.35 2564.42 1383.16 2549.64 1367.25 2536.73 1354.19 2519.14 1342.56L2513.26 1351.47C2541.48 1370.13 2561.22 1393.59 2573.97 1423.56 2586.72 1453.52 2586.75 1500.68 2585.59 1552.99 2592.05 1549.66 2600.88 1545.79 2603.75 1536.18 2604.71 1493.28 2601.24 1463.17 2592.73 1436.36 2596.64 1425.39 2600.34 1414.94 2603.95 1404.93 2627.37 1398.8 2707.83 1371.04 2719.82 1357.84 2705.78 1356.26 2642.98 1385.37 2607.56 1395.22 2617.3 1368.83 2626.81 1345.65 2639.01 1325.21 2657.88 1293.62 2683 1267.83 2725.97 1244.08L2720.83 1234.7C2693.13 1250.01 2672.24 1266.47 2655.65 1284.74 2658.17 1246.94 2670.29 1185.3 2665.8 1172.66 2655.91 1187.16 2647.52 1269.45 2646.7 1295.26 2640.49 1303.07 2634.94 1311.22 2629.87 1319.72 2612.67 1348.52 2600.78 1381.69 2586.99 1420.55 2586.57 1419.52 2586.16 1418.48 2585.72 1417.46 2585.26 1416.39 2584.73 1415.37 2584.25 1414.31 2583.8 1412.69 2583.45 1411.26 2582.98 1409.56 2578.73 1394.02 2575.19 1376.47 2570.47 1357.02 2571.7 1330.22 2600.77 1269.29 2603.55 1232.22 2592.58 1243.31 2572.82 1311.78 2565.09 1339.35 2564.05 1337.25 2564.14 1335.16 2563.68 1333.05 2551.51 1276.87 2544.85 1215.38 2561.41 1182.11L2551.86 1177.35C2540.65 1199.88 2538.82 1230.4 2541.64 1263.17 2538.2 1261.63 2533.68 1259.93 2528.69 1258.21 2521.89 1248.02 2503.8 1234.01 2501.71 1231.55 2501.22 1216.68 2483.83 1119.92 2471.66 1104.99Z" stroke="#6D7231" stroke-width="7.5625" stroke-miterlimit="8" fill="#869364" fill-rule="evenodd"/><path d="M2746.98 1130.01C2746.98 1144.82 2734.79 1157.01 2719.98 1157.01 2705.17 1157.01 2692.98 1144.82 2692.98 1130.01 2692.98 1115.2 2705.17 1103.01 2719.98 1103.01 2734.79 1103.01 2746.98 1115.2 2746.98 1130.01Z" stroke="#E2A100" stroke-width="7.55131" stroke-miterlimit="8" fill="#FFC222" fill-rule="evenodd"/><path d="M2788.99 1097.01C2788.99 1111.82 2776.8 1124.01 2761.99 1124.01 2747.17 1124.01 2734.99 1111.82 2734.99 1097.01 2734.99 1082.2 2747.17 1070.01 2761.99 1070.01 2776.8 1070.01 2788.99 1082.2 2788.99 1097.01Z" stroke="#E2A100" stroke-width="7.55131" stroke-miterlimit="8" fill="#FFC222" fill-rule="evenodd"/><path d="M2831.99 1125.01C2831.99 1139.82 2819.8 1152.01 2804.99 1152.01 2790.18 1152.01 2777.99 1139.82 2777.99 1125.01 2777.99 1110.2 2790.18 1098.01 2804.99 1098.01 2819.8 1098.01 2831.99 1110.2 2831.99 1125.01Z" stroke="#E2A100" stroke-width="7.55131" stroke-miterlimit="8" fill="#FFC222" fill-rule="evenodd"/><path d="M2841.99 1185.02C2841.99 1199.83 2829.8 1212.02 2814.99 1212.02 2800.18 1212.02 2787.99 1199.83 2787.99 1185.02 2787.99 1170.21 2800.18 1158.02 2814.99 1158.02 2829.8 1158.02 2841.99 1170.21 2841.99 1185.02Z" stroke="#E2A100" stroke-width="7.55131" stroke-miterlimit="8" fill="#FFC222" fill-rule="evenodd"/><path d="M2699.98 1047.01C2699.98 1061.82 2687.79 1074.01 2672.98 1074.01 2658.17 1074.01 2645.98 1061.82 2645.98 1047.01 2645.98 1032.19 2658.17 1020.01 2672.98 1020.01 2687.79 1020.01 2699.98 1032.19 2699.98 1047.01Z" stroke="#E2A100" stroke-width="7.55131" stroke-miterlimit="8" fill="#FFC222" fill-rule="evenodd"/><path d="M2649.97 1053.01C2649.97 1067.82 2637.78 1080.01 2622.97 1080.01 2608.16 1080.01 2595.97 1067.82 2595.97 1053.01 2595.97 1038.19 2608.16 1026.01 2622.97 1026.01 2637.78 1026.01 2649.97 1038.19 2649.97 1053.01Z" stroke="#E2A100" stroke-width="7.55131" stroke-miterlimit="8" fill="#FFC222" fill-rule="evenodd"/><path d="M2610.97 1084.01C2610.97 1098.82 2598.78 1111.01 2583.97 1111.01 2569.16 1111.01 2556.97 1098.82 2556.97 1084.01 2556.97 1069.2 2569.16 1057.01 2583.97 1057.01 2598.78 1057.01 2610.97 1069.2 2610.97 1084.01Z" stroke="#E2A100" stroke-width="7.55131" stroke-miterlimit="8" fill="#FFC222" fill-rule="evenodd"/><path d="M2617.97 948.995C2617.97 963.806 2605.78 975.995 2590.97 975.995 2576.16 975.995 2563.97 963.806 2563.97 948.995 2563.97 934.182 2576.16 921.995 2590.97 921.995 2605.78 921.995 2617.97 934.182 2617.97 948.995Z" stroke="#E2A100" stroke-width="7.55131" stroke-miterlimit="8" fill="#FFC222" fill-rule="evenodd"/><path d="M2567.96 986.999C2567.96 1001.81 2555.77 1014 2540.96 1014 2526.15 1014 2513.96 1001.81 2513.96 986.999 2513.96 972.186 2526.15 959.999 2540.96 959.999 2555.77 959.999 2567.96 972.186 2567.96 986.999Z" stroke="#E2A100" stroke-width="7.55131" stroke-miterlimit="8" fill="#FFC222" fill-rule="evenodd"/><path d="M2635.97 1001C2635.97 1015.81 2623.78 1028 2608.97 1028 2594.16 1028 2581.97 1015.81 2581.97 1001 2581.97 986.188 2594.16 974 2608.97 974 2623.78 974 2635.97 986.188 2635.97 1001Z" stroke="#E2A100" stroke-width="7.55131" stroke-miterlimit="8" fill="#FFC222" fill-rule="evenodd"/><path d="M2591.97 1035C2591.97 1049.81 2579.78 1062 2564.97 1062 2550.15 1062 2537.97 1049.81 2537.97 1035 2537.97 1020.19 2550.15 1008 2564.97 1008 2579.78 1008 2591.97 1020.19 2591.97 1035Z" stroke="#E2A100" stroke-width="7.55131" stroke-miterlimit="8" fill="#FFC222" fill-rule="evenodd"/><path d="M2685.98 980.998C2685.98 995.809 2673.79 1008 2658.98 1008 2644.16 1008 2631.98 995.809 2631.98 980.998 2631.98 966.186 2644.16 953.998 2658.98 953.998 2673.79 953.998 2685.98 966.186 2685.98 980.998Z" stroke="#E2A100" stroke-width="7.55131" stroke-miterlimit="8" fill="#FFC222" fill-rule="evenodd"/><path d="M2529.96 1032C2529.96 1046.81 2517.77 1059 2502.96 1059 2488.15 1059 2475.96 1046.81 2475.96 1032 2475.96 1017.19 2488.15 1005 2502.96 1005 2517.77 1005 2529.96 1017.19 2529.96 1032Z" stroke="#E2A100" stroke-width="7.55131" stroke-miterlimit="8" fill="#FFC222" fill-rule="evenodd"/><path d="M2557.96 1078.01C2557.96 1092.82 2545.77 1105.01 2530.96 1105.01 2516.15 1105.01 2503.96 1092.82 2503.96 1078.01 2503.96 1063.2 2516.15 1051.01 2530.96 1051.01 2545.77 1051.01 2557.96 1063.2 2557.96 1078.01Z" stroke="#E2A100" stroke-width="7.55131" stroke-miterlimit="8" fill="#FFC222" fill-rule="evenodd"/><path d="M2565.96 1130.01C2565.96 1144.82 2553.77 1157.01 2538.96 1157.01 2524.15 1157.01 2511.96 1144.82 2511.96 1130.01 2511.96 1115.2 2524.15 1103.01 2538.96 1103.01 2553.77 1103.01 2565.96 1115.2 2565.96 1130.01Z" stroke="#E2A100" stroke-width="7.55131" stroke-miterlimit="8" fill="#FFC222" fill-rule="evenodd"/><path d="M2584.96 1179.52C2584.96 1194.6 2572.78 1207.02 2557.97 1207.02 2543.15 1207.02 2530.96 1194.6 2530.96 1179.52 2530.96 1164.43 2543.15 1152.02 2557.97 1152.02 2572.78 1152.02 2584.96 1164.43 2584.96 1179.52Z" stroke="#E2A100" stroke-width="7.55131" stroke-miterlimit="8" fill="#FFC222" fill-rule="evenodd"/><path d="M2619.97 1138.01C2619.97 1152.83 2607.78 1165.01 2592.97 1165.01 2578.16 1165.01 2565.97 1152.83 2565.97 1138.01 2565.97 1123.2 2578.16 1111.01 2592.97 1111.01 2607.78 1111.01 2619.97 1123.2 2619.97 1138.01Z" stroke="#E2A100" stroke-width="7.55131" stroke-miterlimit="8" fill="#FFC222" fill-rule="evenodd"/><path d="M2662.97 1106.01C2662.97 1120.82 2650.78 1133.01 2635.97 1133.01 2621.16 1133.01 2608.97 1120.82 2608.97 1106.01 2608.97 1091.2 2621.16 1079.01 2635.97 1079.01 2650.78 1079.01 2662.97 1091.2 2662.97 1106.01Z" stroke="#E2A100" stroke-width="7.55131" stroke-miterlimit="8" fill="#FFC222" fill-rule="evenodd"/><path d="M2530.96 1296.03C2530.96 1310.84 2518.77 1323.03 2503.96 1323.03 2489.15 1323.03 2476.96 1310.84 2476.96 1296.03 2476.96 1281.22 2489.15 1269.03 2503.96 1269.03 2518.77 1269.03 2530.96 1281.22 2530.96 1296.03Z" stroke="#E2A100" stroke-width="7.55131" stroke-miterlimit="8" fill="#FFC222" fill-rule="evenodd"/><path d="M2470.95 1294.03C2470.95 1308.84 2458.76 1321.03 2443.95 1321.03 2429.14 1321.03 2416.95 1308.84 2416.95 1294.03 2416.95 1279.22 2429.14 1267.03 2443.95 1267.03 2458.76 1267.03 2470.95 1279.22 2470.95 1294.03Z" stroke="#E2A100" stroke-width="7.55131" stroke-miterlimit="8" fill="#FFC222" fill-rule="evenodd"/><path d="M2487.95 1344.04C2487.95 1358.85 2475.77 1371.04 2460.96 1371.04 2446.14 1371.04 2433.95 1358.85 2433.95 1344.04 2433.95 1329.22 2446.14 1317.04 2460.96 1317.04 2475.77 1317.04 2487.95 1329.22 2487.95 1344.04Z" stroke="#E2A100" stroke-width="7.55131" stroke-miterlimit="8" fill="#FFC222" fill-rule="evenodd"/><path d="M2538.96 1351.04C2538.96 1365.85 2526.77 1378.04 2511.96 1378.04 2497.15 1378.04 2484.96 1365.85 2484.96 1351.04 2484.96 1336.22 2497.15 1324.04 2511.96 1324.04 2526.77 1324.04 2538.96 1336.22 2538.96 1351.04Z" stroke="#E2A100" stroke-width="7.55131" stroke-miterlimit="8" fill="#FFC222" fill-rule="evenodd"/><path d="M2750.98 1300.03C2750.98 1314.84 2738.79 1327.03 2723.98 1327.03 2709.17 1327.03 2696.98 1314.84 2696.98 1300.03 2696.98 1285.22 2709.17 1273.03 2723.98 1273.03 2738.79 1273.03 2750.98 1285.22 2750.98 1300.03Z" stroke="#E2A100" stroke-width="7.55131" stroke-miterlimit="8" fill="#FFC222" fill-rule="evenodd"/><path d="M2760.98 1247.03C2760.98 1261.84 2748.79 1274.03 2733.98 1274.03 2719.17 1274.03 2706.98 1261.84 2706.98 1247.03 2706.98 1232.21 2719.17 1220.03 2733.98 1220.03 2748.79 1220.03 2760.98 1232.21 2760.98 1247.03Z" stroke="#E2A100" stroke-width="7.55131" stroke-miterlimit="8" fill="#FFC222" fill-rule="evenodd"/><path d="M2801.99 1212.02C2801.99 1226.83 2789.8 1239.02 2774.99 1239.02 2760.18 1239.02 2747.99 1226.83 2747.99 1212.02 2747.99 1197.21 2760.18 1185.02 2774.99 1185.02 2789.8 1185.02 2801.99 1197.21 2801.99 1212.02Z" stroke="#E2A100" stroke-width="7.55131" stroke-miterlimit="8" fill="#FFC222" fill-rule="evenodd"/><path d="M2809.99 1271.03C2809.99 1285.84 2797.8 1298.03 2782.99 1298.03 2768.18 1298.03 2755.99 1285.84 2755.99 1271.03 2755.99 1256.22 2768.18 1244.03 2782.99 1244.03 2797.8 1244.03 2809.99 1256.22 2809.99 1271.03Z" stroke="#E2A100" stroke-width="7.55131" stroke-miterlimit="8" fill="#FFC222" fill-rule="evenodd"/><path d="M2790.99 1157.02C2790.99 1171.83 2778.8 1184.02 2763.99 1184.02 2749.18 1184.02 2736.99 1171.83 2736.99 1157.02 2736.99 1142.2 2749.18 1130.02 2763.99 1130.02 2778.8 1130.02 2790.99 1142.2 2790.99 1157.02Z" stroke="#E2A100" stroke-width="7.55131" stroke-miterlimit="8" fill="#FFC222" fill-rule="evenodd"/><path d="M2749.98 1194.02C2749.98 1208.83 2737.79 1221.02 2722.98 1221.02 2708.17 1221.02 2695.98 1208.83 2695.98 1194.02 2695.98 1179.21 2708.17 1167.02 2722.98 1167.02 2737.79 1167.02 2749.98 1179.21 2749.98 1194.02Z" stroke="#E2A100" stroke-width="7.55131" stroke-miterlimit="8" fill="#FFC222" fill-rule="evenodd"/><rect x="0" y="0" width="779" height="1169" fill="#FFD526" transform="matrix(-1 1.22465e-16 1.22465e-16 1 1810 653)"/><path d="M1252.5 1275.44 1346.98 1220.18 1285.87 1129.46 1388.06 1168.75 1421 1064.5 1453.94 1168.75 1556.13 1129.46 1495.02 1220.18 1589.5 1275.44 1480.36 1284.3 1495.99 1392.5 1421 1312.84 1346.01 1392.5 1361.64 1284.3Z" stroke="#000000" stroke-width="1.14583" stroke-miterlimit="8" stroke-dasharray="4.58333 3.4375" fill="#00008B" fill-rule="evenodd"/></g></svg>