<svg width="2338" height="1559" xmlns="http://www.w3.org/2000/svg" xmlns:xlink="http://www.w3.org/1999/xlink" xml:space="preserve" overflow="hidden"><defs><clipPath id="clip0"><rect x="1031" y="458" width="2338" height="1559"/></clipPath></defs><g clip-path="url(#clip0)" transform="translate(-1031 -458)"><path d="M1031 458 3369 458 3369 2017 1031 2017Z" fill="#002664" fill-rule="evenodd"/><path d="M1031 458 3369 458 3369 1238 1031 1238Z" fill="#BB133E" fill-rule="evenodd"/><path d="M3369 640.812 3369 965.812 2200 1238ZM2764.2 458 3101.1 458 2200 1238ZM2309.59 458 2504.43 458 2200 1238Z" fill="#FED700" fill-rule="evenodd"/><path d="M1168.9 182.812 1168.9 507.812-0.103911 780ZM564.101 0 901 0-0.103911 780ZM109.49 0 304.323 0-0.103911 780Z" fill="#FED700" fill-rule="evenodd" transform="matrix(-1 1.22465e-16 1.22465e-16 1 2200 458)"/><path d="M1791 1145.55 2104.22 1146.61 2200 848 2295.78 1146.61 2609 1145.55 2354.98 1329.04 2452.78 1627 2200 1441.79 1947.22 1627 2045.02 1329.04Z" fill="#CE5C17" fill-rule="evenodd"/></g></svg>
