<svg width="2339" height="1560" xmlns="http://www.w3.org/2000/svg" xmlns:xlink="http://www.w3.org/1999/xlink" xml:space="preserve" overflow="hidden"><defs><clipPath id="clip0"><rect x="1031" y="458" width="2339" height="1560"/></clipPath></defs><g clip-path="url(#clip0)" transform="translate(-1031 -458)"><path d="M1031.5 458.5 3369.5 458.5 3369.5 2017.5 1031.5 2017.5 1031.5 458.5Z" stroke="#000000" stroke-width="1.29849" stroke-miterlimit="8" fill="#F2F2F2" fill-rule="evenodd"/><path d="M1812 458 3369 458 3369 2017 1812 2017" fill="#3D0A88" fill-rule="evenodd"/><path d="M1298 759.963 1386.42 751.94 1421 666 1455.58 751.94 1544 759.963 1476.95 821.101 1497.02 911.999 1421 863.845 1344.98 911.999 1365.05 821.101Z" fill="#3D0A88" fill-rule="evenodd"/><path d="M1298 1208.35 1386.42 1200.29 1421 1114 1455.58 1200.29 1544 1208.35 1476.95 1269.73 1497.02 1361 1421 1312.65 1344.98 1361 1365.05 1269.73Z" fill="#3D0A88" fill-rule="evenodd"/><path d="M1298 1656.96 1386.42 1648.94 1421 1563 1455.58 1648.94 1544 1656.96 1476.95 1718.1 1497.02 1809 1421 1760.84 1344.98 1809 1365.05 1718.1Z" fill="#3D0A88" fill-rule="evenodd"/><path d="M2591 1050.67 2576.39 1064.54C2571.79 1069.28 2567.53 1074.09 2563.69 1078.94 2532.95 1117.73 2515.44 1155.61 2513.52 1216.68 2513.29 1280.69 2567.08 1334.41 2579.96 1347.64 2584.79 1352.61 2587.32 1338.09 2588.66 1321.19L2589.54 1306.29 2582.41 1305.62C2579.76 1305.13 2577.19 1304.41 2574.8 1303.45 2565.26 1299.64 2560.44 1292.83 2562.57 1286.17L2582.53 1287.34 2587.65 1287.54 2588 1286.69 2578.6 1286.57 2563.81 1285.64C2563.82 1285.51 2563.83 1285.39 2563.83 1285.26L2563.14 1285.22 2563.59 1278.43C2565.69 1261.57 2572.58 1247.9 2581.55 1242.17L2587.86 1240.25 2590.9 1239.26 2591 1239.29 2591.1 1239.26 2594.14 1240.25 2600.45 1242.17C2609.42 1247.9 2616.31 1261.57 2618.41 1278.43L2618.86 1285.22 2618.17 1285.26C2618.17 1285.39 2618.18 1285.51 2618.19 1285.64L2603.4 1286.57 2594 1286.69 2594.35 1287.54 2599.47 1287.34 2619.43 1286.17C2621.56 1292.83 2616.74 1299.64 2607.2 1303.45 2604.81 1304.41 2602.24 1305.13 2599.59 1305.62L2592.46 1306.29 2593.34 1321.19C2594.68 1338.09 2597.21 1352.61 2602.04 1347.64 2614.92 1334.41 2668.71 1280.69 2668.48 1216.68 2666.56 1155.61 2649.05 1117.73 2618.31 1078.94 2614.47 1074.09 2610.21 1069.28 2605.61 1064.54L2591 1050.67ZM2838.11 959.655 2818.97 960.884C2771.42 963.917 2738.26 966.527 2697.92 983.943 2674.87 993.895 2649 1007.95 2625.04 1024.36L2607.38 1037.99 2615.95 1046.3C2629.57 1060.15 2645.15 1077.13 2664.41 1098.62 2666.45 1089.23 2669.5 1081.88 2672.89 1075.55L2678.01 1067.28C2678 1067.28 2678 1067.28 2677.99 1067.28 2672.79 1065.51 2667.89 1062.86 2663.97 1059.55 2660.06 1056.24 2657.5 1052.6 2656.44 1049.07 2655.38 1045.55 2655.82 1042.15 2657.9 1039.33L2682.58 1049.01C2682.56 1048.95 2682.53 1048.89 2682.51 1048.84L2682.8 1048.12 2672.37 1044.35 2658.71 1038.6 2661.2 1032.38C2668.43 1017.01 2679.23 1006.16 2689.53 1003.49 2692.96 1002.61 2696.34 1002.63 2699.51 1003.7 2712.2 1007.98 2717.38 1027.59 2712.64 1049.74L2710.84 1056.3 2688.3 1049.9 2687.92 1050.82 2711.07 1057.39C2710.89 1064.38 2704.1 1069.22 2693.84 1069.69 2691.27 1069.81 2688.61 1069.65 2685.94 1069.24L2680.05 1067.79 2679.56 1069.14C2665.24 1121.68 2719.62 1172.64 2669.84 1304.22 2686.64 1287.2 2698.89 1217.43 2734.33 1157.77L2746.02 1140.43 2745.48 1139.95 2746.26 1138.22C2751.16 1127.47 2761.29 1105.39 2766.04 1087.58 2771.46 1067.23 2771.03 1048.39 2768.92 1025.24L2767.87 1025.3C2769.08 1050.45 2770.55 1063.84 2764.54 1086.99 2760.02 1104.34 2750.65 1126.81 2745.85 1136.45L2744.64 1132.47C2744.33 1129.58 2741.35 1126.84 2741.11 1123.82 2740.86 1120.8 2742.17 1115.61 2743.18 1114.33 2744.19 1113.04 2746.32 1116.3 2747.17 1116.11 2748.02 1115.93 2749.22 1116.33 2748.3 1113.2 2747.37 1110.06 2739.38 1102.66 2741.62 1097.31 2743.85 1091.97 2748.45 1096.76 2749.93 1095.83 2751.42 1094.89 2752.11 1094.57 2750.53 1091.69 2748.96 1088.8 2743.45 1083.84 2740.47 1078.52 2737.5 1073.2 2731.65 1063.3 2732.69 1059.74 2733.73 1056.19 2745 1059.98 2746.69 1057.18 2748.38 1054.38 2743.78 1048.05 2742.82 1042.93 2741.86 1037.81 2739.1 1028.63 2740.93 1026.46 2742.75 1024.28 2750.78 1032.01 2753.75 1029.88 2756.73 1027.76 2756.93 1016.24 2758.76 1013.7 2760.59 1011.16 2762.69 1015.44 2764.73 1014.66 2766.76 1013.87 2769.28 1008.96 2770.96 1009 2772.64 1009.03 2772.56 1013.52 2774.8 1014.87 2777.03 1016.23 2782.58 1013.12 2784.36 1017.1 2786.15 1021.09 2782.51 1034.28 2785.5 1038.8 2788.48 1043.31 2799.8 1041.61 2802.28 1044.18 2804.76 1046.75 2802.99 1049.14 2800.38 1054.22 2797.78 1059.3 2786.89 1069.15 2786.64 1074.66 2786.4 1080.18 2799.65 1082.8 2798.93 1087.3 2798.22 1091.8 2784.66 1097.18 2782.34 1101.65 2780.02 1106.12 2787.65 1109.55 2785.01 1114.13 2782.37 1118.71 2770.95 1116.56 2767.95 1118.26 2764.95 1119.97 2767.88 1121.97 2767 1124.34 2766.13 1126.71 2765.53 1130.54 2762.72 1132.46 2759.91 1134.39 2753.14 1134.01 2750.15 1135.87L2748.63 1137.77 2743.61 1147.74C2726.22 1185.34 2708.94 1242.69 2706.68 1262.81 2718.95 1255.68 2769.48 1193.23 2782.58 1161.19 2795.68 1129.15 2841.17 1050.35 2841.36 983.942 2841.37 980.051 2841.08 976.065 2840.52 971.997L2838.11 959.655ZM2343.89 959.655 2341.48 971.997C2340.92 976.065 2340.63 980.051 2340.64 983.942 2340.83 1050.35 2386.32 1129.15 2399.42 1161.19 2412.52 1193.23 2463.05 1255.68 2475.32 1262.81 2473.06 1242.69 2455.78 1185.34 2438.39 1147.74L2433.37 1137.77 2431.85 1135.87C2428.86 1134.01 2422.09 1134.39 2419.28 1132.46 2416.47 1130.54 2415.87 1126.71 2415 1124.34 2414.12 1121.97 2417.05 1119.97 2414.05 1118.26 2411.05 1116.56 2399.63 1118.71 2396.99 1114.13 2394.35 1109.55 2401.98 1106.12 2399.66 1101.65 2397.34 1097.18 2383.79 1091.8 2383.07 1087.3 2382.35 1082.8 2395.6 1080.18 2395.36 1074.66 2395.12 1069.15 2384.22 1059.3 2381.62 1054.22 2379.01 1049.14 2377.24 1046.75 2379.72 1044.18 2382.2 1041.61 2393.52 1043.31 2396.5 1038.8 2399.49 1034.28 2395.85 1021.09 2397.64 1017.1 2399.42 1013.12 2404.97 1016.23 2407.2 1014.87 2409.44 1013.52 2409.36 1009.03 2411.04 1009 2412.72 1008.96 2415.24 1013.87 2417.27 1014.66 2419.31 1015.44 2421.41 1011.16 2423.24 1013.7 2425.07 1016.24 2425.27 1027.76 2428.25 1029.88 2431.22 1032.01 2439.25 1024.28 2441.07 1026.46 2442.9 1028.63 2440.14 1037.81 2439.18 1042.93 2438.22 1048.05 2433.62 1054.38 2435.31 1057.18 2437 1059.98 2448.27 1056.19 2449.31 1059.74 2450.35 1063.3 2444.5 1073.2 2441.53 1078.52 2438.55 1083.84 2433.04 1088.8 2431.47 1091.69 2429.89 1094.57 2430.58 1094.89 2432.07 1095.83 2433.55 1096.76 2438.15 1091.97 2440.38 1097.31 2442.62 1102.66 2434.63 1110.06 2433.7 1113.2 2432.78 1116.33 2433.98 1115.93 2434.83 1116.11 2435.68 1116.3 2437.81 1113.04 2438.82 1114.33 2439.84 1115.61 2441.14 1120.8 2440.89 1123.82 2440.65 1126.84 2437.67 1129.58 2437.36 1132.47L2436.15 1136.45C2431.35 1126.81 2421.98 1104.34 2417.46 1086.99 2411.45 1063.84 2412.92 1050.45 2414.13 1025.3L2413.08 1025.24C2410.97 1048.39 2410.54 1067.23 2415.96 1087.58 2420.71 1105.39 2430.84 1127.47 2435.74 1138.22L2436.52 1139.95 2435.98 1140.43 2447.67 1157.77C2483.11 1217.43 2495.36 1287.2 2512.16 1304.22 2462.38 1172.64 2516.77 1121.68 2502.44 1069.14L2501.95 1067.79 2496.06 1069.24C2493.39 1069.65 2490.73 1069.81 2488.16 1069.69 2477.9 1069.22 2471.11 1064.38 2470.93 1057.39L2494.08 1050.82 2493.7 1049.9 2471.16 1056.3 2469.36 1049.74C2464.62 1027.59 2469.8 1007.98 2482.49 1003.7 2485.66 1002.63 2489.04 1002.61 2492.47 1003.49 2502.77 1006.16 2513.57 1017.01 2520.8 1032.38L2523.29 1038.6 2509.63 1044.35 2499.2 1048.12 2499.49 1048.84C2499.47 1048.89 2499.44 1048.95 2499.42 1049.01L2524.1 1039.33C2526.18 1042.15 2526.62 1045.55 2525.56 1049.07 2524.5 1052.6 2521.94 1056.24 2518.03 1059.55 2514.11 1062.86 2509.21 1065.51 2504.01 1067.28 2504 1067.28 2504 1067.28 2503.99 1067.28L2509.11 1075.55C2512.5 1081.88 2515.55 1089.23 2517.59 1098.62 2536.85 1077.13 2552.43 1060.15 2566.05 1046.3L2574.62 1037.99 2556.96 1024.36C2533 1007.95 2507.13 993.895 2484.08 983.943 2443.74 966.527 2410.58 963.917 2363.03 960.884L2343.89 959.655ZM2296.57 957.279 2302.48 973.049C2307.97 984.343 2316.34 995.841 2329.34 1007.69 2326.72 992.339 2326.14 978.072 2327.11 964.724L2327.9 958.767 2305.71 957.565 2296.57 957.279ZM2885.43 957.279 2876.29 957.565 2854.1 958.767 2854.89 964.724C2855.86 978.072 2855.28 992.339 2852.66 1007.69 2865.66 995.841 2874.03 984.343 2879.52 973.049L2885.43 957.279ZM2890.39 926.547 2869.49 935.297C2864.52 937.247 2859.59 939.05 2854.63 940.625L2851.38 941.483 2852.18 944.737 2888.02 945.168 2889.12 939.64 2890.39 926.547ZM2291.61 926.547 2292.88 939.64 2293.98 945.168 2329.82 944.737 2330.62 941.483 2327.37 940.625C2322.41 939.05 2317.48 937.247 2312.51 935.297L2291.61 926.547ZM2452.79 627.042C2454.39 626.532 2455.77 630.806 2458.32 631.36 2460.87 631.913 2465.12 627.17 2468.1 630.363 2471.07 633.556 2471.9 647.218 2476.19 650.519 2480.48 653.821 2490.63 648.544 2493.81 650.17 2496.99 651.797 2496.09 654.626 2495.27 660.277 2494.45 665.929 2487.33 678.783 2488.89 684.078 2490.45 689.374 2503.83 687.561 2504.61 692.049 2505.39 696.537 2494.3 706.023 2493.56 711.006 2492.81 715.989 2501.14 716.755 2500.13 721.947 2499.11 727.139 2487.61 728.808 2485.32 731.391 2483.03 733.974 2486.46 734.924 2486.4 737.445 2486.34 739.966 2487.01 743.79 2484.97 746.519 2482.94 749.248 2476.42 751.091 2474.19 753.82L2472.73 757.843 2473.64 765.584C2474.62 802.442 2455.29 850.014 2451.54 881.482 2457.64 862.652 2472.89 851.074 2491.58 833.581L2498.27 826.776 2492.8 822.386C2490.86 820.517 2489.12 818.504 2487.66 816.396 2484.73 812.181 2483.21 807.995 2483.1 804.319 2483 800.643 2484.31 797.476 2487.04 795.295 2491.21 798.704 2495.23 801.826 2499.16 804.726L2509.02 811.62 2509.41 810.685 2499.71 803.903 2488.01 794.801 2492.04 789.445C2503.01 776.482 2516.26 768.811 2526.9 768.923 2530.44 768.96 2533.7 769.862 2536.48 771.722 2547.62 779.159 2547.53 799.445 2537.2 819.599L2533.75 825.462 2514.34 813.829 2514.18 814.228 2513.53 814.495 2533.69 826.575C2531.7 833.274 2523.89 836.183 2513.85 833.964 2511.34 833.409 2508.82 832.561 2506.35 831.468L2499.81 827.855 2491.5 838.236C2473.57 862.392 2461.32 885.065 2457.98 905.146L2457.19 913.61 2458.99 912.16C2460.85 909.165 2460.47 902.393 2462.39 899.581 2464.31 896.77 2468.14 896.163 2470.51 895.291 2472.87 894.419 2474.88 897.352 2476.58 894.349 2478.28 891.345 2476.13 879.915 2480.71 877.27 2485.29 874.625 2488.71 882.268 2493.18 879.945 2497.65 877.623 2503.02 864.053 2507.51 863.335 2512.01 862.616 2514.63 875.877 2520.14 875.635 2525.65 875.393 2535.5 864.491 2540.57 861.883 2543.11 860.579 2544.97 859.483 2546.53 859.024 2548.08 858.565 2549.31 858.743 2550.6 859.984 2553.16 862.468 2551.47 873.795 2555.98 876.783 2560.49 879.772 2573.67 876.131 2577.65 877.916 2581.64 879.701 2578.53 885.256 2579.88 887.492 2581.23 889.728 2585.72 889.651 2585.75 891.331 2585.79 893.011 2580.88 895.536 2580.1 897.571 2579.31 899.606 2583.59 901.712 2581.05 903.542 2578.51 905.372 2567.01 905.578 2564.88 908.553 2562.76 911.528 2570.48 919.567 2568.31 921.391 2566.13 923.216 2556.96 920.461 2551.84 919.5 2546.73 918.538 2540.41 913.933 2537.61 915.622 2534.81 917.311 2538.6 928.598 2535.05 929.636 2531.5 930.673 2521.61 924.823 2516.29 921.846 2510.97 918.87 2506.02 913.355 2503.14 911.777 2500.25 910.199 2499.93 910.89 2499 912.377 2498.06 913.865 2502.86 918.468 2497.52 920.702 2492.17 922.936 2484.77 914.943 2481.64 914.016 2478.51 913.09 2478.92 914.29 2478.73 915.144 2478.54 915.998 2481.8 918.13 2480.52 919.141 2479.23 920.152 2474.05 921.455 2471.03 921.211 2468.01 920.968 2465.27 917.981 2462.39 917.678L2458.41 916.465C2468.04 911.661 2490.49 902.279 2507.83 897.761 2530.95 891.738 2544.34 893.21 2569.46 894.43 2569.48 894.078 2569.5 893.727 2569.52 893.375 2546.4 891.261 2527.57 890.833 2507.23 896.259 2493.89 899.82 2478.15 906.418 2466.58 911.563L2457.12 915.838 2457.72 924.322C2460.66 942.551 2473.57 957.818 2499.67 969.014 2534.47 983.942 2556.39 994.856 2579.25 1012.78L2591 1022.79 2602.75 1012.78C2625.61 994.856 2647.53 983.942 2682.33 969.014 2708.43 957.818 2721.34 942.551 2724.29 924.322L2724.88 915.838 2715.42 911.563C2703.85 906.418 2688.11 899.82 2674.77 896.259 2654.43 890.833 2635.6 891.261 2612.48 893.375 2612.5 893.727 2612.52 894.078 2612.54 894.43 2637.66 893.21 2651.05 891.738 2674.17 897.761 2691.51 902.279 2713.96 911.661 2723.59 916.465L2719.61 917.678C2716.73 917.981 2713.99 920.968 2710.97 921.211 2707.95 921.455 2702.77 920.152 2701.48 919.141 2700.2 918.13 2703.46 915.998 2703.27 915.144 2703.08 914.29 2703.49 913.09 2700.36 914.016 2697.23 914.943 2689.83 922.936 2684.48 920.702 2679.14 918.468 2683.94 913.865 2683 912.377 2682.07 910.89 2681.75 910.199 2678.86 911.777 2675.98 913.355 2671.03 918.87 2665.71 921.846 2660.39 924.823 2650.5 930.673 2646.95 929.636 2643.4 928.598 2647.19 917.311 2644.39 915.622 2641.59 913.933 2635.27 918.538 2630.16 919.5 2625.04 920.461 2615.87 923.216 2613.69 921.391 2611.52 919.567 2619.24 911.528 2617.12 908.553 2614.99 905.578 2603.49 905.372 2600.95 903.542 2598.41 901.712 2602.69 899.606 2601.9 897.571 2601.12 895.536 2596.21 893.011 2596.25 891.331 2596.28 889.651 2600.77 889.728 2602.12 887.492 2603.47 885.256 2600.36 879.701 2604.35 877.916 2608.33 876.131 2621.51 879.772 2626.02 876.783 2630.53 873.795 2628.84 862.468 2631.4 859.984 2632.69 858.743 2633.92 858.565 2635.47 859.024 2637.03 859.483 2638.89 860.579 2641.43 861.883 2646.5 864.491 2656.35 875.393 2661.86 875.635 2667.37 875.877 2669.99 862.616 2674.49 863.335 2678.98 864.053 2684.35 877.623 2688.82 879.945 2693.29 882.268 2696.71 874.625 2701.29 877.27 2705.87 879.915 2703.72 891.345 2705.42 894.349 2707.12 897.352 2709.13 894.419 2711.49 895.291 2713.86 896.163 2717.69 896.77 2719.61 899.581 2721.53 902.393 2721.15 909.165 2723.01 912.16L2724.81 913.61 2724.02 905.146C2720.68 885.065 2708.43 862.392 2690.5 838.236L2682.19 827.855 2675.65 831.468C2673.18 832.561 2670.66 833.409 2668.15 833.964 2658.11 836.183 2650.3 833.274 2648.31 826.575L2668.47 814.495 2667.82 814.228 2667.66 813.829 2648.25 825.462 2644.8 819.599C2634.47 799.445 2634.38 779.159 2645.52 771.722 2648.3 769.862 2651.56 768.96 2655.1 768.923 2665.74 768.811 2678.99 776.482 2689.96 789.445L2693.99 794.801 2682.29 803.903 2672.59 810.685 2672.98 811.62 2682.84 804.726C2686.77 801.826 2690.79 798.704 2694.96 795.295 2697.69 797.476 2699 800.643 2698.9 804.319 2698.79 807.995 2697.27 812.181 2694.34 816.396 2692.88 818.504 2691.14 820.517 2689.2 822.386L2683.73 826.776 2690.42 833.581C2709.11 851.074 2724.36 862.652 2730.46 881.482 2726.71 850.014 2707.38 802.442 2708.36 765.584L2709.27 757.843 2707.81 753.82C2705.58 751.091 2699.06 749.248 2697.03 746.519 2694.99 743.79 2695.66 739.966 2695.6 737.445 2695.54 734.924 2698.97 733.974 2696.68 731.391 2694.39 728.808 2682.89 727.139 2681.87 721.947 2680.86 716.755 2689.19 715.989 2688.44 711.006 2687.7 706.023 2676.61 696.537 2677.39 692.049 2678.17 687.561 2691.55 689.374 2693.11 684.078 2694.67 678.783 2687.55 665.929 2686.73 660.277 2685.91 654.626 2685.01 651.797 2688.19 650.17 2691.37 648.544 2701.52 653.821 2705.81 650.519 2710.1 647.218 2710.93 633.556 2713.9 630.363 2716.88 627.17 2721.13 631.913 2723.68 631.36 2726.23 630.806 2727.61 626.532 2729.21 627.042 2730.81 627.552 2731.6 633.018 2733.27 634.42 2734.94 635.821 2738.32 632.458 2739.23 635.452 2740.14 638.446 2736.6 649.411 2738.72 652.386 2740.85 655.361 2750.95 650.656 2751.97 653.305 2752.99 655.953 2747.41 663.745 2744.84 668.278 2742.28 672.81 2735.88 677.3 2736.57 680.498 2737.26 683.695 2749.15 683.764 2748.98 687.464 2748.81 691.165 2740.08 698.632 2735.54 702.703 2731 706.776 2724.18 709.679 2721.76 711.896 2719.33 714.113 2719.88 714.638 2720.98 716.007 2722.09 717.376 2727.99 714.328 2728.37 720.109 2728.75 725.891 2718.8 730.307 2716.91 732.972 2715.02 735.636 2716.28 735.641 2717.03 736.095 2717.78 736.55 2720.85 734.157 2721.39 735.7 2721.93 737.243 2721.48 742.571 2720.27 745.352 2719.06 748.134 2715.35 749.755 2714.13 752.388L2711.7 755.759C2710.28 745.086 2708.68 720.79 2710.03 702.906 2711.83 679.062 2717.56 666.863 2726.86 643.472L2725.88 643.071C2716.39 664.285 2709.88 681.972 2708.42 702.985 2707.46 716.774 2708.59 733.818 2709.71 746.442L2710.11 750.676 2710.12 750.522C2715.77 809.556 2736.34 852.304 2749.45 903.195 2753.74 937.123 2729.45 947.64 2735.89 954.086 2753.85 949.789 2755.1 953.634 2788.09 941.872L2819.14 931.763 2827.54 928.956 2817.64 906.324C2796.21 860.457 2769.43 812.454 2779.28 774.518L2780.53 771.199 2780.11 766.801C2778.62 763.605 2772.76 760.202 2771.46 757.054 2770.17 753.905 2771.76 750.366 2772.33 747.909 2772.9 745.452 2776.45 745.381 2774.87 742.311 2773.29 739.241 2762.57 734.773 2762.87 729.491 2763.17 724.209 2771.43 725.533 2771.94 720.52 2772.45 715.507 2764.06 703.568 2765.92 699.413 2767.78 695.258 2780.3 700.332 2783.12 695.588 2785.94 690.844 2782.23 676.626 2782.83 670.947 2783.44 665.269 2783.26 662.304 2786.74 661.516 2790.23 660.729 2798.76 668.359 2803.73 666.223 2808.7 664.087 2812.89 651.057 2816.56 648.702 2817.48 648.113 2818.35 648.024 2819.19 648.224 2821.69 648.823 2823.83 652.018 2825.78 652.09 2828.39 652.186 2830.79 648.388 2832.21 649.279 2833.64 650.169 2833.05 655.662 2834.32 657.434 2835.6 659.206 2839.7 656.784 2839.84 659.91 2839.98 663.036 2833.84 672.782 2835.16 676.191 2836.48 679.6 2847.43 677.545 2847.76 680.364 2848.1 683.183 2840.76 689.351 2837.16 693.105 2833.55 696.86 2826.23 699.623 2826.11 702.892 2825.99 706.161 2837.5 709.177 2836.42 712.72 2835.33 716.263 2825.02 721.331 2819.62 724.151 2814.22 726.971 2806.89 728.094 2803.99 729.641 2801.1 731.188 2801.5 731.833 2802.23 733.432 2802.96 735.032 2809.43 733.543 2808.37 739.238 2807.31 744.934 2796.57 746.745 2794.08 748.858 2791.59 750.971 2792.81 751.289 2793.43 751.914 2794.04 752.54 2797.6 750.982 2797.74 752.611 2797.89 754.24 2796.13 759.291 2794.27 761.686 2792.41 764.081 2788.42 764.732 2786.58 766.98L2783.39 769.643C2784.66 758.95 2789.13 735.016 2794.86 718.025 2802.5 695.37 2811.07 684.972 2825.87 664.613L2825.02 663.983C2810.57 682.182 2799.89 697.705 2793.28 717.701 2788.94 730.822 2785.82 747.616 2783.77 760.123L2783.09 764.431 2783.73 762.736C2770.88 805.711 2809.23 842.677 2834.66 894.344L2846.06 922.769 2852.61 920.578C2864.09 916.62 2875.86 912.408 2887.78 907.867L2892.03 906.139 2894.15 889.917C2895.18 884.326 2896.59 878.696 2898.59 873.007L2900.01 869.712 2899.94 869.64C2898.93 868.368 2897.72 866.803 2896.11 866.109 2892.87 864.72 2886.23 866.103 2883.17 864.625 2880.1 863.146 2878.93 859.446 2877.71 857.237 2876.5 855.028 2879.09 852.603 2875.87 851.371 2872.65 850.139 2861.68 853.98 2858.38 849.847 2855.08 845.713 2862.12 841.178 2859.16 837.104 2856.19 833.032 2841.98 829.748 2840.6 825.409 2839.22 821.07 2851.92 816.484 2850.86 811.068 2849.79 805.653 2837.55 797.545 2834.21 792.913 2830.87 788.282 2828.76 786.192 2830.83 783.278 2832.9 780.365 2844.34 780.345 2846.62 775.434 2848.89 770.524 2843.32 758.025 2844.49 753.816 2845.65 749.606 2851.61 751.849 2853.61 750.178 2855.62 748.507 2854.87 744.077 2856.53 743.789 2858.18 743.502 2861.41 747.98 2863.54 748.451 2865.66 748.921 2867.1 744.377 2869.29 746.612 2871.48 748.847 2873.41 760.205 2876.67 761.861 2879.92 763.517 2886.71 754.671 2888.84 756.548 2890.96 758.424 2889.62 767.914 2889.43 773.121 2889.25 778.327 2885.65 785.27 2887.74 787.787 2889.83 790.303 2900.41 784.859 2901.97 788.22 2903.52 791.581 2899.23 802.243 2897.08 807.953 2894.94 813.663 2890.24 819.392 2889.11 822.48 2887.98 825.569 2888.71 825.78 2890.32 826.484 2891.93 827.188 2895.76 821.753 2898.77 826.703 2901.77 831.653 2894.99 840.175 2894.54 843.413 2894.1 846.65 2895.22 846.069 2896.09 846.126 2896.96 846.184 2898.58 842.641 2899.77 843.76 2900.97 844.878 2903.03 849.81 2903.24 852.836 2903.45 855.862 2900.91 859.016 2901.05 861.915L2900.44 866.031C2894.26 857.224 2881.62 836.416 2874.56 819.934 2865.14 797.957 2864.59 784.489 2862.03 759.446L2860.98 759.543C2862.36 782.746 2864.76 801.441 2873.17 820.75 2880.52 837.645 2893.85 857.949 2900.31 867.851L2900.61 868.32 2903.99 860.495C2910.5 847.876 2920.6 834.915 2936.57 821.423L2950.77 810.635 2947.33 806.829C2945.7 804.676 2944.3 802.414 2943.19 800.102 2940.96 795.478 2940.12 791.105 2940.59 787.458 2941.07 783.811 2942.86 780.89 2945.9 779.168 2953.07 787.216 2959.82 794.036 2966.55 800.214L2967.22 800.782 2966.79 799.732 2966.98 799.261 2957.06 789.666 2946.94 778.834 2951.76 774.179C2961.42 765.876 2971.87 760.715 2980.92 759.408 2983.93 758.972 2986.79 758.964 2989.41 759.412 2992.91 760.008 2995.98 761.412 2998.44 763.687 3008.27 772.788 3004.98 792.806 2991.61 811.079L2987.28 816.325 2970.79 802.485 2969.91 802.851 2969.48 802.674 2987.04 817.414C2984.02 823.716 2975.85 825.357 2966.29 821.583 2963.9 820.639 2961.54 819.403 2959.27 817.934L2952.82 812.895 2951.68 811.641 2942.1 824.549C2920.88 854.523 2911.57 876.143 2907.22 893.649L2906 900.457 2923.88 893.182C2972.32 872.083 3021.3 844.517 3062.9 805.681L3062.94 805.636C3062.88 805.013 3062.81 804.39 3062.75 803.767 3061.62 791.998 3059.37 767.808 3054.58 750.011 3049.11 729.672 3039.33 713.568 3025.94 694.578L3025.05 695.159C3038.67 716.325 3046.64 727.193 3052.99 750.245 3057.75 767.535 3060.85 791.684 3061.51 802.431L3058.47 799.592C3056.77 797.243 3052.82 796.366 3051.1 793.869 3049.38 791.372 3047.91 786.23 3048.14 784.612 3048.38 782.994 3051.85 784.751 3052.5 784.161 3053.14 783.572 3054.38 783.323 3052.02 781.073 3049.65 778.822 3039.03 776.404 3038.29 770.657 3037.56 764.911 3043.94 766.765 3044.76 765.21 3045.57 763.654 3046.01 763.033 3043.21 761.324 3040.4 759.615 3033.15 758.078 3027.92 754.956 3022.68 751.833 3012.68 746.188 3011.8 742.589 3010.92 738.99 3022.58 736.633 3022.64 733.362 3022.7 730.092 3015.56 726.917 3012.17 722.964 3008.78 719.011 3001.81 712.437 3002.3 709.642 3002.79 706.846 3013.61 709.519 3015.12 706.191 3016.63 702.862 3011.06 692.783 3011.37 689.67 3011.69 686.557 3015.65 689.208 3017.02 687.511 3018.39 685.814 3018.12 680.297 3019.59 679.489 3021.06 678.68 3023.24 682.609 3025.85 682.661 3027.8 682.7 3030.12 679.632 3032.65 679.175 3033.5 679.023 3034.36 679.161 3035.25 679.802 3038.78 682.362 3042.22 695.608 3047.06 698.023 3051.9 700.437 3060.86 693.304 3064.29 694.288 3067.72 695.272 3067.38 698.222 3067.66 703.926 3067.94 709.63 3063.43 723.614 3065.98 728.511 3068.52 733.408 3081.31 729.052 3082.93 733.307 3084.56 737.561 3075.5 749.004 3075.73 754.038 3075.95 759.072 3084.28 758.219 3084.28 763.51 3084.28 768.8 3073.31 772.652 3071.56 775.627 3069.82 778.602 3073.36 778.875 3073.78 781.361 3074.21 783.846 3075.6 787.47 3074.13 790.54 3072.66 793.61 3066.61 796.674 3064.95 799.781L3064.26 804.213 3096.56 769.522 3095.77 770.813 3099.66 765.695C3107.25 755.554 3117.19 741.668 3123.64 729.445 3133.46 710.818 3137.25 692.354 3140.35 669.319L3139.31 669.143C3134.89 693.925 3133.34 707.315 3122.31 728.527 3114.04 744.436 3099.89 764.242 3093.06 772.563L3092.76 768.413C3093.11 765.532 3090.82 762.197 3091.25 759.195 3091.69 756.193 3094.12 751.429 3095.39 750.403 3096.66 749.377 3098.01 753.031 3098.88 753.038 3099.75 753.046 3100.83 753.709 3100.63 750.448 3100.43 747.186 3094.29 738.181 3097.66 733.469 3101.03 728.758 3104.44 734.463 3106.1 733.882 3107.76 733.3 3108.5 733.144 3107.61 729.979 3106.72 726.815 3102.45 720.751 3100.74 714.897 3099.03 709.043 3095.54 698.09 3097.34 694.855 3099.15 691.619 3109.29 697.839 3111.56 695.485 3113.83 693.132 3110.76 685.939 3110.96 680.733 3111.17 675.528 3110.54 665.964 3112.8 664.251 3115.06 662.539 3121.16 671.867 3124.54 670.458 3127.91 669.05 3130.68 657.868 3133.03 655.803 3135.38 653.738 3136.47 658.377 3138.63 658.066 3140.79 657.756 3144.34 653.531 3145.97 653.942 3147.6 654.352 3146.52 658.713 3148.4 660.53 3150.27 662.346 3156.38 660.554 3157.23 664.839 3158.07 669.124 3151.58 681.172 3153.49 686.238 3155.39 691.305 3166.8 692.18 3168.65 695.24 3170.49 698.299 3168.23 700.226 3164.56 704.595 3160.89 708.965 3148.07 716.135 3146.6 721.456 3145.14 726.778 3157.47 732.299 3155.76 736.523 3154.06 740.747 3139.65 742.96 3136.39 746.8 3133.13 750.64 3139.81 755.689 3136.21 759.564 3132.61 763.44 3121.96 758.791 3118.65 759.779 3115.35 760.766 3117.76 763.379 3116.38 765.491 3115 767.603 3113.56 771.205 3110.39 772.45 3107.22 773.696 3100.71 771.821 3097.38 772.964 3095.71 773.535 3094.39 775.005 3093.29 776.199L3092.93 776.539 3093.02 776.598 3092.66 776.924 3092.33 776.471 3085.46 787.779 3080.14 794.569 3083.09 793.918C3086.09 792.059 3088.76 785.826 3091.73 784.16 3094.69 782.494 3098.39 783.654 3100.9 783.923 3103.41 784.193 3103.9 787.712 3106.76 785.777 3109.61 783.841 3112.76 772.644 3118.03 772.309 3123.31 771.973 3122.99 780.344 3128.02 780.248 3133.05 780.153 3143.89 770.383 3148.23 771.736 3152.58 773.09 3149.05 786.138 3154.09 788.37 3159.14 790.602 3172.79 785.209 3178.5 785.127 3184.2 785.046 3187.12 784.515 3188.32 787.881 3189.52 791.248 3182.98 800.643 3185.69 805.325 3188.41 810.007 3201.83 812.603 3204.61 815.973 3207.39 819.343 3202.14 822.939 3202.36 825.542 3202.57 828.146 3206.63 830.071 3205.92 831.593 3205.2 833.114 3199.69 833.195 3198.08 834.67 3196.48 836.145 3199.37 839.931 3196.29 840.444 3193.2 840.957 3182.8 836.027 3179.57 837.748 3176.35 839.47 3179.7 850.104 3176.95 850.773 3174.19 851.442 3167.19 844.897 3163.04 841.762 3158.88 838.627 3155.26 831.692 3152 831.962 3148.75 832.232 3147.14 844.03 3143.49 843.38 3139.85 842.731 3133.58 833.094 3130.14 828.063 3126.69 823.032 3124.7 815.89 3122.82 813.195 3120.94 810.5 3120.35 810.977 3118.85 811.894 3117.35 812.81 3119.6 819.065 3113.82 818.694 3108.05 818.322 3104.96 807.87 3102.57 805.649 3100.17 803.428 3100.01 804.683 3099.46 805.364 3098.91 806.046 3100.88 809.404 3099.29 809.74 3097.69 810.076 3092.47 808.94 3089.87 807.379 3087.27 805.818 3086.14 801.927 3083.69 800.374L3080.67 797.52C3091.43 797.494 3115.7 799.065 3133.25 802.724 3156.63 807.602 3167.98 814.871 3189.94 827.129L3190.47 826.211C3170.68 814.039 3154 805.288 3133.38 801.113 3115.33 797.459 3091.07 796.748 3079.26 796.364L3078.75 796.346 3071.07 806.163C3039.27 842.805 2990.12 877.919 2937.92 897.767 2953.06 895.618 2964.81 896.014 2974.78 897.089L2985.52 898.555 2986.11 896.765 2989.97 889.539C2991.45 887.277 2993.1 885.188 2994.91 883.355 3000.31 877.857 3006.24 875.46 3011.11 876.518 3012.73 876.871 3014.23 877.608 3015.56 878.742L3004.91 900.522 3005.82 900.901 3016.22 879.64 3022.3 882.679C3041.93 893.953 3053.05 910.916 3047.75 923.224 3042.46 935.532 3022.51 939.107 3000.83 932.583L2994.54 930.285 2999.4 916.276 3003.49 906.175 3002.58 905.796 2998.5 915.884C2996.78 920.458 2995.1 925.268 2993.46 930.4 2989.98 930.063 2987.16 928.12 2985.25 924.978 2983.34 921.837 2982.34 917.498 2982.49 912.369 2982.57 909.805 2982.94 907.168 2983.55 904.54L2984.62 901.283 2974.26 901.792C2959.57 903.399 2946.34 906.358 2934.13 910.022L2903.37 921.284 2903.12 924.431C2902.86 929.066 2902.64 933.558 2902.2 938.065L2901 945.432 2944.8 946.634C2977.38 948.021 3007.23 950.527 3033.54 955.404L3043.21 957.541 3045.41 957.103C3048.44 955.307 3051.24 949.132 3054.25 947.529 3057.25 945.926 3060.92 947.163 3063.42 947.484 3065.92 947.807 3066.35 951.336 3069.24 949.46 3072.14 947.585 3075.52 936.457 3080.8 936.232 3086.08 936.007 3085.58 944.369 3090.62 944.38 3095.65 944.39 3106.69 934.849 3111 936.294 3115.32 937.738 3111.52 950.709 3116.51 953.047 3121.51 955.384 3135.27 950.279 3140.98 950.317 3146.69 950.355 3149.62 949.886 3150.74 953.277 3151.87 956.667 3145.13 965.923 3147.75 970.661 3150.36 975.399 3163.73 978.277 3166.44 981.704 3169.15 985.131 3163.82 988.616 3163.99 991.224 3164.15 993.831 3168.16 995.841 3167.42 997.348 3166.67 998.853 3161.16 998.818 3159.52 1000.26 3157.88 1001.7 3160.7 1005.55 3157.6 1005.99 3154.51 1006.44 3144.21 1001.3 3140.95 1002.95 3137.69 1004.6 3140.82 1015.3 3138.05 1015.92 3135.28 1016.53 3128.43 1009.84 3124.34 1006.61 3120.24 1003.39 3116.77 996.384 3113.51 996.585 3110.25 996.787 3108.39 1008.55 3104.76 1007.82 3101.13 1007.1 3095.07 997.33 3091.73 992.228 3088.39 987.126 3086.55 979.943 3084.72 977.209 3082.9 974.476 3082.3 974.94 3080.78 975.825 3079.26 976.71 3081.38 983.011 3075.62 982.519 3069.85 982.026 3066.98 971.512 3064.64 969.24 3062.29 966.969 3062.09 968.221 3061.53 968.891 3060.97 969.561 3062.87 972.96 3061.27 973.262 3059.66 973.564 3054.47 972.319 3051.9 970.703 3049.34 969.088 3048.29 965.174 3045.88 963.57L3042.91 960.653C3053.67 960.854 3077.91 962.933 3095.37 966.96 3118.65 972.328 3129.84 979.833 3151.54 992.549L3152.09 991.643C3132.56 979.058 3116.07 969.959 3095.53 965.351 3077.56 961.32 3053.32 960.1 3041.53 959.469L3039.64 959.361C3039.63 959.321 3039.62 959.28 3039.61 959.239L3000.73 956.859C2972.61 955.854 2943.66 955.776 2916.17 956.32L2898.23 956.88 2894.92 966.527C2875.03 1010.82 2854.8 1012.89 2835.26 1073.51 2850.28 1067.18 2881.4 1042.66 2914.53 1040.42L2923.18 1040.73 2926.51 1039.55C2929.25 1037.34 2931.13 1030.81 2933.87 1028.79 2936.61 1026.77 2940.43 1027.46 2942.95 1027.42 2945.48 1027.37 2946.41 1030.8 2949 1028.53 2951.6 1026.25 2953.33 1014.74 2958.53 1013.75 2963.73 1012.77 2964.45 1021.12 2969.44 1020.4 2974.43 1019.68 2983.98 1008.63 2988.46 1009.43 2992.95 1010.24 2991.07 1023.63 2996.36 1025.22 3001.65 1026.81 3014.54 1019.76 3020.2 1018.97 3025.86 1018.18 3028.69 1017.29 3030.3 1020.48 3031.92 1023.67 3026.59 1033.81 3029.87 1038.13 3033.15 1042.44 3046.81 1043.35 3049.99 1046.35 3053.17 1049.35 3048.4 1053.57 3048.94 1056.13 3049.49 1058.69 3053.75 1060.09 3053.24 1061.69 3052.72 1063.29 3047.25 1064.06 3045.83 1065.72 3044.42 1067.39 3047.77 1070.79 3044.77 1071.68 3041.77 1072.57 3030.82 1068.97 3027.83 1071.08 3024.85 1073.19 3029.5 1083.33 3026.85 1084.34 3024.19 1085.35 3016.42 1079.72 3011.9 1077.12 3007.38 1074.52 3002.92 1068.09 2999.72 1068.76 2996.52 1069.43 2996.39 1081.35 2992.69 1081.16 2988.98 1080.96 2981.56 1072.17 2977.51 1067.61 2973.46 1063.04 2970.59 1056.2 2968.38 1053.75 2966.18 1051.31 2965.65 1051.86 2964.27 1052.96 2962.9 1054.05 2965.92 1059.98 2960.13 1060.33 2954.34 1060.68 2949.98 1050.69 2947.32 1048.78 2944.66 1046.87 2944.65 1048.14 2944.19 1048.88 2943.74 1049.63 2946.11 1052.72 2944.57 1053.25 2943.02 1053.78 2937.69 1053.3 2934.92 1052.08 2932.14 1050.85 2930.54 1047.13 2927.91 1045.89 2925.94 1044.96 2924.98 1045.28 2922.39 1045.08L2921.39 1044.95 2921.18 1043.97 2924.55 1043.43C2935.23 1042.07 2959.55 1040.61 2977.43 1042.06 3001.28 1044 3013.46 1049.81 3036.81 1059.25L3037.22 1058.27C3016.04 1048.64 2998.38 1042.03 2977.36 1040.45 2958.98 1039.06 2934.78 1041.37 2923 1042.46L2922.89 1042.47 2921.12 1042.92C2921.12 1043.19 2921.13 1043.46 2921.13 1043.72L2920.96 1042.96 2909.42 1045.94C2866.51 1059.12 2839.62 1083.08 2820.34 1122.37 2798.31 1167.26 2784.64 1201.08 2743.73 1232.97 2774.69 1219.85 2824.04 1202.25 2859.66 1203.79 2892.6 1204.59 2895.11 1199.54 2921.72 1192.04L2928.2 1190.38C2928.19 1190.24 2928.18 1190.11 2928.16 1189.98L2929.91 1189.27C2940.85 1184.81 2963.37 1175.73 2979.03 1166.05 2996.94 1154.98 3009.56 1140.98 3023.9 1122.7L3023.09 1122.03C3006.73 1141.14 2998.61 1151.89 2978.35 1164.58 2963.17 1174.09 2940.94 1183.99 2930.83 1187.69L2932.68 1183.97C2934.44 1181.66 2934.15 1177.62 2936.05 1175.25 2937.95 1172.89 2942.45 1170.01 2944.07 1169.77 2945.68 1169.53 2945 1173.37 2945.74 1173.82 2946.49 1174.27 2947.09 1175.39 2948.56 1172.47 2950.04 1169.56 2949.32 1158.68 2954.61 1156.33 2959.9 1153.98 2959.95 1160.63 2961.67 1160.97 2963.4 1161.31 2964.12 1161.55 2964.95 1158.37 2965.78 1155.19 2965.18 1147.8 2966.67 1141.89 2968.16 1135.97 2970.7 1124.76 2973.89 1122.89 2977.09 1121.01 2982.68 1131.52 2985.83 1130.65 2988.98 1129.77 2989.97 1122.01 2992.79 1117.63 2995.6 1113.25 2999.9 1104.68 3002.72 1104.35 3005.53 1104.02 3006.07 1115.16 3009.69 1115.66 3013.31 1116.16 3021.36 1107.92 3024.43 1107.34 3027.5 1106.75 3026.1 1111.3 3028.12 1112.13 3030.13 1112.96 3035.34 1111.12 3036.53 1112.3 3037.73 1113.48 3034.59 1116.69 3035.29 1119.21 3035.98 1121.73 3042.15 1123.28 3040.71 1127.4 3039.27 1131.53 3027.58 1138.62 3026.65 1143.95 3025.73 1149.29 3035.12 1155.83 3035.16 1159.4 3035.2 1162.98 3032.28 1163.49 3026.9 1165.39 3021.52 1167.3 3006.84 1166.97 3002.88 1170.82 2998.92 1174.66 3006.75 1185.67 3003.14 1188.45 2999.53 1191.23 2985.99 1185.82 2981.23 1187.47 2976.48 1189.13 2979.68 1196.87 2974.61 1198.39 2969.55 1199.9 2962.72 1190.49 2959.37 1189.66 2956.02 1188.84 2956.78 1192.31 2954.52 1193.43 2952.26 1194.55 2949.19 1196.92 2945.83 1196.39 2942.47 1195.86 2937.81 1190.94 2934.36 1190.23L2929.79 1190.86 2924.62 1193.12C2904.66 1202.51 2908.34 1205.55 2888.11 1209.22 2899.87 1213.87 2916.16 1214.28 2933.07 1228.63L2936.1 1231.58 2937.04 1232.02C2940.55 1232.38 2946.47 1229.08 2949.83 1229.57 2953.2 1230.07 2955.42 1233.25 2957.24 1235 2959.06 1236.75 2957.3 1239.83 2960.74 1240.05 2964.19 1240.26 2973.51 1233.33 2977.89 1236.29 2982.27 1239.25 2976.91 1245.68 2980.95 1248.68 2984.99 1251.68 2999.53 1250.58 3002.15 1254.31 3004.76 1258.04 2994 1266.2 2996.63 1271.06 2999.26 1275.91 3013.36 1279.99 3017.92 1283.42 3022.49 1286.84 3025.12 1288.21 3024.02 1291.61 3022.91 1295.01 3011.99 1298.44 3011.28 1303.81 3010.57 1309.17 3019.62 1319.44 3019.76 1323.81 3019.9 1328.17 3013.55 1327.81 3012.13 1330 3010.71 1332.2 3012.75 1336.2 3011.25 1336.97 3009.76 1337.74 3005.34 1334.42 3003.17 1334.61 3001 1334.8 3000.98 1339.56 2998.23 1338.08 2995.47 1336.6 2990.25 1326.34 2986.64 1325.73 2983.04 1325.12 2979.2 1335.59 2976.61 1334.43 2974.02 1333.27 2972.48 1323.81 2971.1 1318.79 2969.73 1313.76 2971.1 1306.06 2968.36 1304.28 2965.61 1302.5 2957.13 1310.86 2954.65 1308.11 2952.16 1305.37 2953.08 1293.91 2953.43 1287.82 2953.77 1281.73 2956.56 1274.86 2956.71 1271.58 2956.87 1268.29 2956.11 1268.31 2954.36 1268.12 2952.62 1267.92 2950.58 1274.25 2946.24 1270.43 2941.89 1266.6 2945.83 1256.44 2945.29 1253.22 2944.75 1249.99 2943.85 1250.88 2943.01 1251.09 2942.16 1251.29 2941.67 1255.16 2940.2 1254.45 2938.73 1253.73 2935.29 1249.64 2934.18 1246.82 2933.08 1243.99 2934.57 1240.22 2933.58 1237.49L2932.92 1233.39C2941.45 1239.95 2959.71 1256.04 2971.36 1269.67 2986.89 1287.83 2991.43 1300.52 3001.34 1323.67L3002.31 1323.26C2994.08 1301.52 2986.23 1284.39 2972.45 1268.47 2963.41 1258.02 2950.59 1246.74 2940.9 1238.58L2934.95 1233.64 2919.42 1227.73C2898.54 1221.02 2877.8 1217.96 2857.65 1218.06L2838.41 1219.16 2840.88 1221.02C2844.24 1222.09 2850.71 1220.06 2853.9 1221.23 2857.1 1222.4 2858.63 1225.96 2860.05 1228.04 2861.48 1230.12 2859.14 1232.79 2862.46 1233.7 2865.79 1234.61 2876.33 1229.71 2880.02 1233.5 2883.71 1237.29 2877.15 1242.49 2880.5 1246.26 2883.85 1250.02 2898.31 1251.89 2900.11 1256.07 2901.91 1260.26 2889.72 1266.07 2891.31 1271.35 2892.9 1276.64 2905.88 1283.5 2909.66 1287.78 2913.43 1292.07 2915.74 1293.94 2913.96 1297.04 2912.19 1300.14 2900.8 1301.29 2899.02 1306.4 2897.24 1311.51 2904.01 1323.4 2903.26 1327.7 2902.51 1332.01 2896.37 1330.36 2894.54 1332.22 2892.7 1334.08 2893.88 1338.41 2892.26 1338.86 2890.65 1339.31 2886.99 1335.17 2884.83 1334.91 2882.67 1334.65 2881.68 1339.32 2879.28 1337.31 2876.89 1335.3 2873.85 1324.19 2870.45 1322.86 2867.04 1321.53 2861.16 1331 2858.86 1329.34 2856.56 1327.68 2856.97 1318.1 2856.64 1312.91 2856.31 1307.71 2859.21 1300.44 2856.89 1298.14 2854.56 1295.84 2844.57 1302.3 2842.69 1299.11 2840.81 1295.92 2844.04 1284.89 2845.61 1278.99 2847.18 1273.1 2851.3 1266.94 2852.12 1263.75 2852.94 1260.57 2852.19 1260.43 2850.52 1259.89 2848.85 1259.34 2845.58 1265.13 2842.1 1260.5 2838.62 1255.87 2844.54 1246.72 2844.66 1243.45 2844.79 1240.19 2843.73 1240.88 2842.85 1240.91 2841.98 1240.93 2840.72 1244.62 2839.42 1243.62 2838.13 1242.63 2835.59 1237.92 2835.08 1234.93 2834.57 1231.94 2836.79 1228.55 2836.38 1225.68 2836.44 1224.29 2836.51 1222.91 2836.57 1221.52 2843.59 1229.68 2858.21 1249.15 2866.85 1264.86 2878.38 1285.8 2880.25 1299.15 2885.25 1323.82L2886.29 1323.62C2882.64 1300.67 2878.42 1282.3 2868.16 1263.91 2859.18 1247.82 2843.93 1228.92 2836.53 1219.7L2836.31 1219.42 2818.25 1222.33C2754.32 1235.99 2700.12 1281.12 2671.87 1339.5 2701.93 1327.63 2710.7 1339.13 2752.24 1318.1L2760.61 1313.42 2758.61 1311.54C2756.83 1309.52 2755.25 1307.37 2753.96 1305.16 2751.39 1300.72 2750.21 1296.42 2750.4 1292.75 2750.59 1289.08 2752.15 1286.03 2755.05 1284.07 2758.93 1287.81 2762.69 1291.24 2766.37 1294.45L2776.52 1302.83 2776.46 1302.68 2776.82 1301.8 2766.99 1293.67 2756.06 1283.66 2760.5 1278.64C2772.47 1266.6 2786.3 1260.02 2796.89 1260.99 2800.42 1261.31 2803.59 1262.47 2806.22 1264.55 2816.73 1272.86 2815 1293.07 2803.09 1312.33L2799.18 1317.9 2781.27 1305.1 2780.19 1305.54 2799.03 1319C2796.51 1325.52 2788.49 1327.79 2778.67 1324.77 2776.21 1324.02 2773.76 1322.97 2771.39 1321.68L2764.56 1317.16 2763.47 1316.12 2763.13 1316.48C2718.73 1359.96 2689.05 1342.24 2667.12 1381.57 2643.74 1423.53 2617.86 1519.66 2631.87 1558.67 2645.88 1597.69 2685.32 1606.51 2751.19 1615.67 2817.07 1624.83 2914.58 1648.01 2929.49 1743.91 2895.14 1683.52 2868.25 1676.06 2827.12 1658.42 2839.78 1675.83 2863.28 1702.07 2818.31 1743.24 2859.66 1657.74 2785.54 1649.26 2725.43 1640.1 2665.32 1630.94 2652.66 1623.59 2624.41 1610.92 2633 1623.13 2640.68 1639.19 2686.11 1663.85 2731.53 1688.5 2754.13 1715.19 2799.33 1685.56 2764.3 1726.95 2741.25 1712.14 2729.5 1707.95 2717.75 1703.77 2684.64 1672.55 2659.67 1668.6 2749.16 1722.65 2655.71 1801.82 2649.5 1796.84 2735.37 1702.75 2634.81 1682.62 2610.18 1620.42 2584.42 1760.2 2631.29 1754.27 2632.72 1878 2625 1779.32 2598.6 1782.81 2593.23 1710.67 2592.38 1784.27 2563.16 1778.16 2555.47 1877.31 2557.58 1765.96 2603.77 1760.2 2571.82 1620.42 2547.19 1682.62 2446.63 1702.75 2532.5 1796.84 2526.29 1801.82 2432.84 1722.65 2522.33 1668.6 2497.36 1672.55 2464.25 1703.77 2452.5 1707.95 2440.75 1712.14 2417.7 1726.95 2382.67 1685.56 2427.87 1715.19 2450.47 1688.5 2495.89 1663.85 2541.32 1639.19 2549 1623.13 2557.59 1610.92 2529.34 1623.59 2516.68 1630.94 2456.57 1640.1 2396.46 1649.26 2322.34 1657.74 2363.69 1743.24 2318.72 1702.07 2342.22 1675.83 2354.88 1658.42 2313.75 1676.06 2286.86 1683.52 2252.51 1743.91 2267.42 1648.01 2364.93 1624.83 2430.81 1615.67 2496.68 1606.51 2536.12 1597.69 2550.13 1558.67 2564.14 1519.66 2538.26 1423.53 2514.88 1381.57 2492.95 1342.24 2463.27 1359.96 2418.87 1316.48L2418.53 1316.12 2417.44 1317.16 2410.61 1321.68C2408.24 1322.97 2405.79 1324.02 2403.33 1324.77 2393.51 1327.79 2385.49 1325.52 2382.97 1319L2401.81 1305.54 2400.73 1305.1 2382.82 1317.9 2378.91 1312.33C2367 1293.07 2365.27 1272.86 2375.78 1264.55 2378.41 1262.47 2381.58 1261.31 2385.11 1260.99 2395.7 1260.02 2409.53 1266.6 2421.5 1278.64L2425.94 1283.66 2415.01 1293.67 2405.18 1301.8 2405.54 1302.68 2405.48 1302.83 2415.63 1294.45C2419.31 1291.24 2423.07 1287.81 2426.95 1284.07 2429.85 1286.03 2431.41 1289.08 2431.6 1292.75 2431.79 1296.42 2430.61 1300.72 2428.04 1305.16 2426.75 1307.37 2425.17 1309.52 2423.39 1311.54L2421.39 1313.42 2429.76 1318.1C2471.3 1339.13 2480.07 1327.63 2510.13 1339.5 2481.88 1281.12 2427.68 1235.99 2363.75 1222.33L2345.69 1219.42 2345.47 1219.7C2338.07 1228.92 2322.82 1247.82 2313.84 1263.91 2303.58 1282.3 2299.36 1300.67 2295.71 1323.62L2296.75 1323.82C2301.75 1299.15 2303.62 1285.8 2315.15 1264.86 2323.79 1249.15 2338.41 1229.68 2345.43 1221.52 2345.49 1222.91 2345.56 1224.29 2345.62 1225.68 2345.21 1228.55 2347.43 1231.94 2346.92 1234.93 2346.41 1237.92 2343.87 1242.63 2342.58 1243.62 2341.28 1244.62 2340.02 1240.93 2339.15 1240.91 2338.27 1240.88 2337.21 1240.19 2337.34 1243.45 2337.46 1246.72 2343.38 1255.87 2339.9 1260.5 2336.42 1265.13 2333.15 1259.34 2331.48 1259.89 2329.81 1260.43 2329.06 1260.57 2329.88 1263.75 2330.7 1266.94 2334.82 1273.1 2336.39 1278.99 2337.96 1284.89 2341.19 1295.92 2339.31 1299.11 2337.43 1302.3 2327.44 1295.84 2325.11 1298.14 2322.79 1300.44 2325.69 1307.71 2325.36 1312.91 2325.03 1318.1 2325.44 1327.68 2323.14 1329.34 2320.84 1331 2314.96 1321.53 2311.55 1322.86 2308.15 1324.19 2305.11 1335.3 2302.72 1337.31 2300.32 1339.32 2299.33 1334.65 2297.17 1334.91 2295.01 1335.17 2291.35 1339.31 2289.74 1338.86 2288.12 1338.41 2289.3 1334.08 2287.46 1332.22 2285.63 1330.36 2279.49 1332.01 2278.74 1327.7 2277.99 1323.4 2284.76 1311.51 2282.98 1306.4 2281.2 1301.29 2269.81 1300.14 2268.04 1297.04 2266.26 1293.94 2268.57 1292.07 2272.34 1287.78 2276.12 1283.5 2289.1 1276.64 2290.69 1271.35 2292.28 1266.07 2280.09 1260.26 2281.89 1256.07 2283.69 1251.89 2298.15 1250.02 2301.5 1246.26 2304.85 1242.49 2298.29 1237.29 2301.98 1233.5 2305.67 1229.71 2316.21 1234.61 2319.54 1233.7 2322.86 1232.79 2320.52 1230.12 2321.95 1228.04 2323.37 1225.96 2324.9 1222.4 2328.1 1221.23 2331.29 1220.06 2337.76 1222.09 2341.12 1221.02L2343.59 1219.16 2324.35 1218.06C2304.2 1217.96 2283.46 1221.02 2262.58 1227.73L2247.05 1233.64 2241.1 1238.58C2231.41 1246.74 2218.59 1258.02 2209.55 1268.47 2195.77 1284.39 2187.92 1301.52 2179.69 1323.26L2180.66 1323.67C2190.57 1300.52 2195.11 1287.83 2210.64 1269.67 2222.29 1256.04 2240.55 1239.95 2249.08 1233.39L2248.43 1237.49C2247.43 1240.22 2248.92 1243.99 2247.82 1246.82 2246.71 1249.64 2243.27 1253.73 2241.8 1254.45 2240.33 1255.16 2239.84 1251.29 2238.99 1251.09 2238.15 1250.88 2237.25 1249.99 2236.71 1253.22 2236.17 1256.44 2240.11 1266.6 2235.76 1270.43 2231.42 1274.25 2229.38 1267.92 2227.64 1268.12 2225.89 1268.31 2225.13 1268.29 2225.29 1271.58 2225.44 1274.86 2228.23 1281.73 2228.57 1287.82 2228.92 1293.91 2229.84 1305.37 2227.35 1308.11 2224.87 1310.86 2216.39 1302.5 2213.64 1304.28 2210.9 1306.06 2212.27 1313.76 2210.9 1318.79 2209.52 1323.81 2207.98 1333.27 2205.39 1334.43 2202.8 1335.59 2198.96 1325.12 2195.36 1325.73 2191.75 1326.34 2186.53 1336.6 2183.77 1338.08 2181.02 1339.56 2181 1334.8 2178.83 1334.61 2176.66 1334.42 2172.24 1337.74 2170.75 1336.97 2169.25 1336.2 2171.29 1332.2 2169.87 1330 2168.45 1327.81 2162.1 1328.17 2162.24 1323.81 2162.38 1319.44 2171.43 1309.17 2170.72 1303.81 2170.01 1298.44 2159.09 1295.01 2157.98 1291.61 2156.88 1288.21 2159.51 1286.84 2164.08 1283.42 2168.64 1279.99 2182.74 1275.91 2185.37 1271.06 2188 1266.2 2177.24 1258.04 2179.85 1254.31 2182.47 1250.58 2197.01 1251.68 2201.05 1248.68 2205.09 1245.68 2199.73 1239.25 2204.11 1236.29 2208.49 1233.33 2217.81 1240.26 2221.26 1240.05 2224.7 1239.83 2222.94 1236.75 2224.76 1235 2226.58 1233.25 2228.8 1230.07 2232.17 1229.57 2235.53 1229.08 2241.45 1232.38 2244.96 1232.02L2245.9 1231.58 2248.93 1228.63C2265.84 1214.28 2282.13 1213.87 2293.89 1209.22 2273.66 1205.55 2277.34 1202.51 2257.38 1193.12L2252.21 1190.86 2247.64 1190.23C2244.19 1190.94 2239.53 1195.86 2236.17 1196.39 2232.81 1196.92 2229.74 1194.55 2227.48 1193.43 2225.22 1192.31 2225.98 1188.84 2222.63 1189.66 2219.28 1190.49 2212.45 1199.9 2207.39 1198.39 2202.32 1196.87 2205.52 1189.13 2200.77 1187.47 2196.01 1185.82 2182.47 1191.23 2178.86 1188.45 2175.25 1185.67 2183.08 1174.66 2179.12 1170.82 2175.16 1166.97 2160.48 1167.3 2155.1 1165.39 2149.72 1163.49 2146.8 1162.98 2146.84 1159.4 2146.88 1155.83 2156.27 1149.29 2155.35 1143.95 2154.42 1138.62 2142.73 1131.53 2141.29 1127.4 2139.85 1123.28 2146.02 1121.73 2146.71 1119.21 2147.41 1116.69 2144.27 1113.48 2145.47 1112.3 2146.66 1111.12 2151.87 1112.96 2153.88 1112.13 2155.9 1111.3 2154.5 1106.75 2157.57 1107.34 2160.64 1107.92 2168.69 1116.16 2172.31 1115.66 2175.93 1115.16 2176.47 1104.02 2179.28 1104.35 2182.1 1104.68 2186.4 1113.25 2189.21 1117.63 2192.03 1122.01 2193.02 1129.77 2196.17 1130.65 2199.32 1131.52 2204.91 1121.01 2208.11 1122.89 2211.3 1124.76 2213.84 1135.97 2215.33 1141.89 2216.82 1147.8 2216.22 1155.19 2217.05 1158.37 2217.88 1161.55 2218.6 1161.31 2220.33 1160.97 2222.05 1160.63 2222.1 1153.98 2227.39 1156.33 2232.68 1158.68 2231.96 1169.56 2233.44 1172.47 2234.91 1175.39 2235.51 1174.27 2236.26 1173.82 2237 1173.37 2236.32 1169.53 2237.93 1169.77 2239.55 1170.01 2244.05 1172.89 2245.95 1175.25 2247.85 1177.62 2247.56 1181.66 2249.32 1183.97L2251.17 1187.69C2241.06 1183.99 2218.83 1174.09 2203.65 1164.58 2183.39 1151.89 2175.27 1141.14 2158.91 1122.03L2158.1 1122.7C2172.44 1140.98 2185.06 1154.98 2202.97 1166.05 2218.63 1175.73 2241.15 1184.81 2252.09 1189.27L2253.84 1189.98C2253.82 1190.11 2253.81 1190.24 2253.8 1190.38L2260.28 1192.04C2286.89 1199.54 2289.4 1204.59 2322.34 1203.79 2357.96 1202.25 2407.31 1219.85 2438.27 1232.97 2397.36 1201.08 2383.69 1167.26 2361.66 1122.37 2342.38 1083.08 2315.49 1059.12 2272.58 1045.94L2261.04 1042.96 2260.87 1043.72C2260.88 1043.46 2260.88 1043.19 2260.88 1042.92L2259.11 1042.47 2259 1042.46C2247.22 1041.37 2223.02 1039.06 2204.64 1040.45 2183.62 1042.03 2165.96 1048.64 2144.78 1058.27L2145.19 1059.25C2168.54 1049.81 2180.72 1044 2204.57 1042.06 2222.45 1040.61 2246.77 1042.07 2257.45 1043.43L2260.82 1043.97 2260.61 1044.95 2259.61 1045.08C2257.02 1045.28 2256.06 1044.96 2254.09 1045.89 2251.46 1047.13 2249.86 1050.85 2247.08 1052.08 2244.31 1053.3 2238.98 1053.78 2237.43 1053.25 2235.89 1052.72 2238.26 1049.63 2237.81 1048.88 2237.35 1048.14 2237.34 1046.87 2234.68 1048.78 2232.02 1050.69 2227.66 1060.68 2221.87 1060.33 2216.08 1059.98 2219.1 1054.05 2217.73 1052.96 2216.35 1051.86 2215.83 1051.31 2213.62 1053.75 2211.41 1056.2 2208.54 1063.04 2204.49 1067.61 2200.44 1072.17 2193.02 1080.96 2189.31 1081.16 2185.61 1081.35 2185.48 1069.43 2182.28 1068.76 2179.08 1068.09 2174.62 1074.52 2170.1 1077.12 2165.58 1079.72 2157.81 1085.35 2155.15 1084.34 2152.5 1083.33 2157.15 1073.19 2154.17 1071.08 2151.18 1068.97 2140.23 1072.57 2137.23 1071.68 2134.23 1070.79 2137.58 1067.39 2136.17 1065.72 2134.75 1064.06 2129.28 1063.29 2128.76 1061.69 2128.25 1060.09 2132.51 1058.69 2133.06 1056.13 2133.6 1053.57 2128.83 1049.35 2132.01 1046.35 2135.19 1043.35 2148.85 1042.44 2152.13 1038.13 2155.41 1033.81 2150.08 1023.67 2151.7 1020.48 2153.31 1017.29 2156.14 1018.18 2161.8 1018.97 2167.46 1019.76 2180.35 1026.81 2185.64 1025.22 2190.93 1023.63 2189.05 1010.24 2193.54 1009.43 2198.02 1008.63 2207.57 1019.68 2212.56 1020.4 2217.55 1021.12 2218.27 1012.77 2223.47 1013.75 2228.67 1014.74 2230.4 1026.25 2233 1028.53 2235.59 1030.8 2236.52 1027.37 2239.05 1027.42 2241.57 1027.46 2245.39 1026.77 2248.13 1028.79 2250.87 1030.81 2252.75 1037.34 2255.49 1039.55L2258.82 1040.73 2267.47 1040.42C2300.6 1042.66 2331.72 1067.18 2346.74 1073.51 2327.2 1012.89 2306.97 1010.82 2287.08 966.527L2283.77 956.88 2265.83 956.32C2238.34 955.776 2209.39 955.854 2181.27 956.859L2142.39 959.239C2142.38 959.28 2142.37 959.321 2142.36 959.361L2140.47 959.469C2128.68 960.1 2104.44 961.32 2086.47 965.351 2065.93 969.959 2049.44 979.058 2029.91 991.643L2030.46 992.549C2052.16 979.833 2063.35 972.328 2086.63 966.96 2104.09 962.933 2128.33 960.854 2139.09 960.653L2136.12 963.57C2133.71 965.174 2132.66 969.088 2130.1 970.703 2127.53 972.319 2122.34 973.564 2120.73 973.262 2119.13 972.96 2121.03 969.561 2120.47 968.891 2119.91 968.221 2119.71 966.969 2117.36 969.24 2115.02 971.512 2112.15 982.026 2106.38 982.519 2100.62 983.011 2102.74 976.71 2101.22 975.825 2099.7 974.94 2099.1 974.476 2097.28 977.209 2095.45 979.943 2093.61 987.126 2090.27 992.228 2086.93 997.33 2080.87 1007.1 2077.24 1007.82 2073.61 1008.55 2071.75 996.787 2068.49 996.585 2065.23 996.384 2061.76 1003.39 2057.66 1006.61 2053.57 1009.84 2046.72 1016.53 2043.95 1015.92 2041.18 1015.3 2044.31 1004.6 2041.05 1002.95 2037.79 1001.3 2027.49 1006.44 2024.4 1005.99 2021.3 1005.55 2024.12 1001.7 2022.48 1000.26 2020.84 998.818 2015.33 998.853 2014.58 997.348 2013.84 995.841 2017.85 993.831 2018.01 991.224 2018.18 988.616 2012.85 985.131 2015.56 981.704 2018.27 978.277 2031.64 975.399 2034.25 970.661 2036.87 965.923 2030.13 956.667 2031.26 953.277 2032.38 949.886 2035.31 950.355 2041.02 950.317 2046.73 950.279 2060.49 955.384 2065.49 953.047 2070.49 950.709 2066.68 937.738 2071 936.294 2075.31 934.849 2086.35 944.39 2091.38 944.38 2096.42 944.369 2095.92 936.007 2101.2 936.232 2106.48 936.457 2109.86 947.585 2112.76 949.46 2115.65 951.336 2116.08 947.807 2118.58 947.484 2121.08 947.163 2124.75 945.926 2127.75 947.529 2130.76 949.132 2133.56 955.307 2136.59 957.103L2138.79 957.541 2148.46 955.404C2174.77 950.527 2204.62 948.021 2237.2 946.634L2281 945.432 2279.8 938.065C2279.36 933.558 2279.14 929.066 2278.88 924.431L2278.63 921.284 2247.87 910.022C2235.66 906.358 2222.43 903.399 2207.74 901.792L2197.38 901.283 2198.45 904.54C2199.06 907.168 2199.43 909.805 2199.51 912.369 2199.67 917.498 2198.66 921.837 2196.75 924.978 2194.84 928.12 2192.02 930.063 2188.54 930.4 2186.9 925.268 2185.22 920.458 2183.5 915.884L2179.42 905.796 2178.51 906.175 2182.6 916.276 2187.46 930.285 2181.17 932.583C2159.49 939.107 2139.54 935.532 2134.25 923.224 2128.95 910.916 2140.07 893.953 2159.7 882.679L2165.78 879.64 2176.18 900.901 2177.09 900.522 2166.44 878.742C2167.77 877.608 2169.27 876.871 2170.89 876.518 2175.76 875.46 2181.69 877.857 2187.09 883.355 2188.9 885.188 2190.55 887.277 2192.03 889.539L2195.89 896.765 2196.48 898.555 2207.22 897.089C2217.19 896.014 2228.94 895.618 2244.08 897.767 2191.88 877.919 2142.73 842.805 2110.93 806.163L2103.25 796.346 2102.74 796.364C2090.93 796.748 2066.67 797.459 2048.62 801.113 2028 805.288 2011.32 814.039 1991.53 826.211L1992.06 827.129C2014.02 814.871 2025.37 807.602 2048.75 802.724 2066.3 799.065 2090.57 797.494 2101.33 797.52L2098.31 800.374C2095.86 801.927 2094.73 805.818 2092.13 807.379 2089.53 808.94 2084.31 810.076 2082.72 809.74 2081.12 809.404 2083.09 806.046 2082.54 805.364 2081.99 804.683 2081.83 803.428 2079.43 805.649 2077.04 807.87 2073.95 818.322 2068.18 818.694 2062.4 819.065 2064.65 812.81 2063.15 811.894 2061.65 810.977 2061.06 810.5 2059.18 813.195 2057.3 815.89 2055.31 823.032 2051.86 828.063 2048.42 833.094 2042.15 842.731 2038.51 843.38 2034.86 844.03 2033.25 832.232 2030 831.962 2026.74 831.692 2023.12 838.627 2018.96 841.762 2014.81 844.897 2007.81 851.442 2005.05 850.773 2002.3 850.104 2005.65 839.47 2002.43 837.748 1999.2 836.027 1988.8 840.957 1985.71 840.444 1982.63 839.931 1985.52 836.145 1983.92 834.67 1982.31 833.195 1976.8 833.114 1976.08 831.593 1975.37 830.071 1979.43 828.146 1979.64 825.542 1979.86 822.939 1974.61 819.343 1977.39 815.973 1980.17 812.603 1993.59 810.007 1996.31 805.325 1999.02 800.643 1992.48 791.248 1993.68 787.881 1994.88 784.515 1997.8 785.046 2003.5 785.127 2009.21 785.209 2022.86 790.602 2027.91 788.37 2032.95 786.138 2029.42 773.09 2033.77 771.736 2038.11 770.383 2048.95 780.153 2053.98 780.248 2059.01 780.344 2058.69 771.973 2063.97 772.309 2069.24 772.644 2072.39 783.841 2075.24 785.777 2078.1 787.712 2078.59 784.193 2081.1 783.923 2083.61 783.654 2087.31 782.494 2090.27 784.16 2093.24 785.826 2095.91 792.059 2098.91 793.918L2101.86 794.569 2096.54 787.779 2089.67 776.471 2089.34 776.924 2088.98 776.598 2089.07 776.539 2088.71 776.199C2087.61 775.005 2086.29 773.535 2084.62 772.964 2081.29 771.821 2074.78 773.696 2071.61 772.45 2068.44 771.205 2067 767.603 2065.62 765.491 2064.24 763.379 2066.65 760.766 2063.35 759.779 2060.04 758.791 2049.39 763.44 2045.79 759.564 2042.19 755.689 2048.87 750.64 2045.61 746.8 2042.35 742.96 2027.94 740.747 2026.24 736.523 2024.53 732.299 2036.86 726.778 2035.4 721.456 2033.93 716.135 2021.11 708.965 2017.44 704.595 2013.77 700.226 2011.51 698.299 2013.35 695.24 2015.2 692.18 2026.61 691.305 2028.51 686.238 2030.42 681.172 2023.93 669.124 2024.77 664.839 2025.62 660.554 2031.73 662.346 2033.6 660.53 2035.48 658.713 2034.4 654.352 2036.03 653.942 2037.66 653.531 2041.21 657.756 2043.37 658.066 2045.53 658.377 2046.62 653.738 2048.97 655.803 2051.32 657.868 2054.09 669.05 2057.46 670.458 2060.84 671.867 2066.94 662.539 2069.2 664.251 2071.46 665.964 2070.83 675.528 2071.04 680.733 2071.24 685.939 2068.17 693.132 2070.44 695.485 2072.71 697.839 2082.85 691.619 2084.66 694.855 2086.46 698.09 2082.97 709.043 2081.26 714.897 2079.55 720.751 2075.28 726.815 2074.39 729.979 2073.5 733.144 2074.24 733.3 2075.9 733.882 2077.56 734.463 2080.97 728.758 2084.34 733.469 2087.71 738.181 2081.57 747.186 2081.37 750.448 2081.17 753.709 2082.25 753.046 2083.12 753.038 2083.99 753.031 2085.34 749.377 2086.61 750.403 2087.88 751.429 2090.31 756.193 2090.75 759.195 2091.18 762.197 2088.89 765.532 2089.24 768.413L2088.94 772.563C2082.11 764.242 2067.96 744.436 2059.69 728.527 2048.66 707.315 2047.11 693.925 2042.69 669.143L2041.65 669.319C2044.75 692.354 2048.54 710.818 2058.36 729.445 2064.81 741.668 2074.75 755.554 2082.34 765.695L2086.23 770.813 2085.44 769.522 2117.74 804.213 2117.05 799.781C2115.39 796.674 2109.34 793.61 2107.87 790.54 2106.4 787.47 2107.79 783.846 2108.22 781.361 2108.64 778.875 2112.18 778.602 2110.44 775.627 2108.69 772.652 2097.72 768.8 2097.72 763.51 2097.72 758.219 2106.05 759.072 2106.27 754.038 2106.5 749.004 2097.44 737.561 2099.07 733.307 2100.69 729.052 2113.48 733.408 2116.03 728.511 2118.57 723.614 2114.06 709.63 2114.34 703.926 2114.62 698.222 2114.28 695.272 2117.71 694.288 2121.14 693.304 2130.1 700.437 2134.94 698.023 2139.78 695.608 2143.22 682.362 2146.75 679.802 2147.64 679.161 2148.5 679.023 2149.35 679.175 2151.88 679.632 2154.2 682.7 2156.15 682.661 2158.76 682.609 2160.94 678.68 2162.41 679.489 2163.88 680.297 2163.61 685.814 2164.98 687.511 2166.35 689.208 2170.31 686.557 2170.63 689.67 2170.94 692.783 2165.37 702.862 2166.88 706.191 2168.39 709.519 2179.21 706.846 2179.7 709.642 2180.19 712.437 2173.22 719.011 2169.83 722.964 2166.44 726.917 2159.3 730.092 2159.36 733.362 2159.42 736.633 2171.08 738.99 2170.2 742.589 2169.32 746.188 2159.32 751.833 2154.08 754.956 2148.85 758.078 2141.6 759.615 2138.79 761.324 2135.99 763.033 2136.43 763.654 2137.24 765.21 2138.06 766.765 2144.44 764.911 2143.71 770.657 2142.97 776.404 2132.35 778.822 2129.98 781.073 2127.62 783.323 2128.86 783.572 2129.5 784.161 2130.15 784.751 2133.62 782.994 2133.86 784.612 2134.09 786.23 2132.63 791.372 2130.9 793.869 2129.18 796.366 2125.23 797.243 2123.53 799.592L2120.49 802.431C2121.15 791.684 2124.25 767.535 2129.01 750.245 2135.36 727.193 2143.33 716.325 2156.95 695.159L2156.06 694.578C2142.67 713.568 2132.89 729.672 2127.42 750.011 2122.63 767.808 2120.38 791.998 2119.25 803.767 2119.19 804.39 2119.12 805.013 2119.06 805.636L2119.1 805.681C2160.7 844.517 2209.68 872.083 2258.12 893.182L2276 900.457 2274.78 893.649C2270.43 876.143 2261.12 854.523 2239.9 824.549L2230.32 811.641 2229.18 812.895 2222.73 817.934C2220.46 819.403 2218.1 820.639 2215.71 821.583 2206.15 825.357 2197.98 823.716 2194.96 817.414L2212.52 802.674 2212.09 802.851 2211.21 802.485 2194.72 816.325 2190.39 811.079C2177.02 792.806 2173.73 772.788 2183.56 763.687 2186.02 761.412 2189.09 760.008 2192.59 759.412 2195.21 758.964 2198.07 758.972 2201.08 759.408 2210.13 760.715 2220.58 765.876 2230.24 774.179L2235.06 778.834 2224.94 789.666 2215.02 799.261 2215.21 799.732 2214.78 800.782 2215.45 800.214C2222.18 794.036 2228.93 787.216 2236.1 779.168 2239.14 780.89 2240.93 783.811 2241.41 787.458 2241.88 791.105 2241.04 795.478 2238.81 800.102 2237.7 802.414 2236.3 804.676 2234.67 806.829L2231.23 810.635 2245.43 821.423C2261.4 834.915 2271.5 847.876 2278.01 860.495L2281.39 868.32 2281.69 867.851C2288.15 857.949 2301.48 837.645 2308.83 820.75 2317.24 801.441 2319.64 782.746 2321.02 759.543L2319.97 759.446C2317.41 784.489 2316.86 797.957 2307.44 819.934 2300.38 836.416 2287.74 857.224 2281.56 866.031L2280.95 861.915C2281.09 859.016 2278.55 855.862 2278.76 852.836 2278.97 849.81 2281.03 844.878 2282.23 843.76 2283.42 842.641 2285.04 846.184 2285.91 846.126 2286.78 846.069 2287.9 846.65 2287.46 843.413 2287.01 840.175 2280.23 831.653 2283.23 826.703 2286.24 821.753 2290.07 827.188 2291.68 826.484 2293.29 825.78 2294.02 825.569 2292.89 822.48 2291.76 819.392 2287.06 813.663 2284.92 807.953 2282.77 802.243 2278.48 791.581 2280.03 788.22 2281.59 784.859 2292.17 790.303 2294.26 787.787 2296.35 785.27 2292.75 778.327 2292.57 773.121 2292.38 767.914 2291.04 758.424 2293.16 756.548 2295.29 754.671 2302.08 763.517 2305.33 761.861 2308.59 760.205 2310.52 748.847 2312.71 746.612 2314.9 744.377 2316.34 748.921 2318.46 748.451 2320.59 747.98 2323.82 743.502 2325.47 743.789 2327.13 744.077 2326.38 748.507 2328.39 750.178 2330.39 751.849 2336.35 749.606 2337.51 753.816 2338.68 758.025 2333.11 770.524 2335.38 775.434 2337.66 780.345 2349.1 780.365 2351.17 783.278 2353.24 786.192 2351.13 788.282 2347.79 792.913 2344.45 797.545 2332.21 805.653 2331.14 811.068 2330.08 816.484 2342.78 821.07 2341.4 825.409 2340.02 829.748 2325.81 833.032 2322.84 837.104 2319.88 841.178 2326.92 845.713 2323.62 849.847 2320.32 853.98 2309.35 850.139 2306.13 851.371 2302.91 852.603 2305.5 855.028 2304.29 857.237 2303.07 859.446 2301.9 863.146 2298.83 864.625 2295.77 866.103 2289.13 864.72 2285.89 866.109 2284.28 866.803 2283.07 868.368 2282.06 869.64L2281.99 869.712 2283.41 873.007C2285.41 878.696 2286.82 884.326 2287.85 889.917L2289.97 906.139 2294.22 907.867C2306.14 912.408 2317.91 916.62 2329.39 920.578L2335.94 922.769 2347.34 894.344C2372.77 842.677 2411.12 805.711 2398.27 762.736L2398.91 764.431 2398.23 760.123C2396.18 747.616 2393.06 730.822 2388.72 717.701 2382.11 697.705 2371.43 682.182 2356.98 663.983L2356.13 664.613C2370.93 684.972 2379.5 695.37 2387.14 718.025 2392.87 735.016 2397.34 758.95 2398.61 769.643L2395.42 766.98C2393.58 764.732 2389.59 764.081 2387.73 761.686 2385.87 759.291 2384.11 754.24 2384.26 752.611 2384.4 750.982 2387.96 752.54 2388.57 751.914 2389.19 751.289 2390.41 750.971 2387.92 748.858 2385.43 746.745 2374.69 744.934 2373.63 739.238 2372.57 733.543 2379.04 735.032 2379.77 733.432 2380.5 731.833 2380.9 731.188 2378.01 729.641 2375.11 728.094 2367.78 726.971 2362.38 724.151 2356.98 721.331 2346.67 716.263 2345.58 712.72 2344.5 709.177 2356.01 706.161 2355.89 702.892 2355.77 699.623 2348.45 696.86 2344.84 693.105 2341.24 689.351 2333.91 683.183 2334.24 680.364 2334.57 677.545 2345.52 679.6 2346.84 676.191 2348.16 672.782 2342.02 663.036 2342.16 659.91 2342.3 656.784 2346.4 659.206 2347.68 657.434 2348.95 655.662 2348.36 650.169 2349.79 649.279 2351.21 648.388 2353.61 652.186 2356.22 652.09 2358.17 652.018 2360.31 648.823 2362.81 648.224 2363.65 648.024 2364.52 648.113 2365.44 648.702 2369.11 651.057 2373.3 664.087 2378.27 666.223 2383.24 668.359 2391.77 660.729 2395.26 661.516 2398.74 662.304 2398.56 665.269 2399.17 670.947 2399.77 676.626 2396.06 690.844 2398.88 695.588 2401.7 700.332 2414.22 695.258 2416.08 699.413 2417.94 703.568 2409.55 715.507 2410.06 720.52 2410.57 725.533 2418.83 724.209 2419.14 729.491 2419.43 734.773 2408.71 739.241 2407.13 742.311 2405.55 745.381 2409.1 745.452 2409.67 747.909 2410.24 750.366 2411.83 753.905 2410.54 757.054 2409.24 760.202 2403.38 763.605 2401.89 766.801L2401.47 771.199 2402.72 774.518C2412.57 812.454 2385.79 860.457 2364.36 906.324L2354.46 928.956 2362.86 931.763 2393.91 941.872C2426.9 953.634 2428.15 949.789 2446.11 954.086 2452.55 947.64 2428.26 937.123 2432.55 903.195 2445.66 852.304 2466.23 809.556 2471.88 750.522L2471.89 750.676 2472.29 746.442C2473.41 733.818 2474.54 716.774 2473.58 702.985 2472.12 681.972 2465.61 664.285 2456.12 643.071L2455.14 643.472C2464.44 666.863 2470.17 679.062 2471.97 702.906 2473.32 720.79 2471.72 745.086 2470.3 755.759L2467.87 752.388C2466.65 749.755 2462.94 748.134 2461.73 745.352 2460.52 742.571 2460.07 737.243 2460.61 735.7 2461.15 734.157 2464.22 736.55 2464.97 736.095 2465.72 735.641 2466.98 735.636 2465.09 732.972 2463.2 730.307 2453.25 725.891 2453.63 720.109 2454.01 714.328 2459.91 717.376 2461.02 716.007 2462.12 714.638 2462.67 714.113 2460.24 711.896 2457.82 709.679 2451 706.776 2446.46 702.703 2441.92 698.632 2433.19 691.165 2433.02 687.464 2432.85 683.764 2444.74 683.695 2445.43 680.498 2446.12 677.3 2439.72 672.81 2437.16 668.278 2434.59 663.745 2429.01 655.953 2430.03 653.305 2431.05 650.656 2441.15 655.361 2443.28 652.386 2445.4 649.411 2441.86 638.446 2442.77 635.452 2443.68 632.458 2447.06 635.821 2448.73 634.42 2450.4 633.018 2451.19 627.552 2452.79 627.042Z" fill="#FFFFFF" fill-rule="evenodd"/></g></svg>