<svg width="2339" height="1560" xmlns="http://www.w3.org/2000/svg" xmlns:xlink="http://www.w3.org/1999/xlink" xml:space="preserve" overflow="hidden"><defs><clipPath id="clip0"><rect x="1031" y="458" width="2339" height="1560"/></clipPath></defs><g clip-path="url(#clip0)" transform="translate(-1031 -458)"><rect x="1031.5" y="458.5" width="2338" height="1559" stroke="#000000" stroke-width="1.14583" stroke-miterlimit="8" fill="#F2F2F2"/><path d="M1646.22 974.552 1508.23 1013.95 1511.01 1131.01 1586.57 1181.4 1604.34 1265.17 1730.41 1349.23 1712.64 1265.46 1836.41 1347.99 1854.18 1431.77 1991.66 1523.44 1973.89 1439.67 2152.85 1559 2338 1559 2338 1435.84 2130.51 1297.48 2214.1 1284.42 2086.11 1198.44 2001.74 1211.62 1880.16 1130.55 1963.75 1117.49 1836.24 1031.62 1751.62 1044.83ZM691.776 974.552 586.378 1044.83 501.763 1031.62 374.246 1117.49 457.84 1130.55 336.259 1211.62 251.891 1198.44 123.901 1284.42 207.492 1297.48 0 1435.84 0 1559 185.149 1559 364.107 1439.67 346.338 1523.44 483.82 1431.77 501.587 1347.99 625.36 1265.46 607.594 1349.23 733.659 1265.17 751.428 1181.4 826.993 1131.01 829.774 1013.95ZM184.706 0 0 0 0 123.458 211.297 264.352 123.904 278.004 256.625 366.503 344.016 352.851 465.319 433.737 377.927 447.389 503.821 531.336 591.213 517.684 691.468 584.535 829.774 545.049 827 428.287 753.439 379.235 736.444 299.105 610.613 215.201 627.607 295.329 504.065 212.952 487.07 132.821 349.846 41.3193 366.84 121.449ZM2338 0 2153.29 0 1971.16 121.449 1988.15 41.3193 1850.93 132.821 1833.94 212.952 1710.39 295.329 1727.39 215.201 1601.56 299.105 1584.56 379.235 1511 428.287 1508.23 545.049 1646.53 584.535 1746.79 517.684 1834.18 531.336 1960.07 447.389 1872.68 433.737 1993.98 352.851 2081.38 366.503 2214.1 278.004 2126.7 264.352 2338 123.458Z" fill="#D9171A" fill-rule="evenodd" transform="matrix(-1 1.22465e-16 1.22465e-16 1 3369 458)"/><path d="M1698 1082.22 1894.38 1026.11 1889.74 830.967 2083.26 895.461 2200 735 2316.74 895.461 2510.26 830.967 2505.62 1026.11 2702 1082.22 2577.77 1237.5 2702 1392.78 2505.62 1448.89 2510.26 1644.03 2316.74 1579.54 2200 1740 2083.26 1579.54 1889.74 1644.03 1894.38 1448.89 1698 1392.78 1822.23 1237.5Z" fill="#FC8624" fill-rule="evenodd"/><path d="M2236.12 1187.85 2432.94 1045.07 2424.14 1033.31C2410.54 1018.45 2395.25 1004.74 2378.31 992.445 2361.36 980.153 2343.58 969.868 2325.22 961.542L2311.3 956.821ZM2200 1176.13 2275.33 944.626 2268.77 942.4C2230.38 933.5 2190.88 932.261 2152.54 938.324L2124.93 945.442ZM2258.45 1218.54 2501.37 1218.54 2499.62 1190.12C2493.55 1151.83 2480.16 1114.71 2459.82 1081L2455.67 1075.46ZM2163.88 1187.85 2088.58 956.474 2043.27 978.062C2026.4 988.216 2010.38 1000.11 1995.5 1013.69L1967.29 1045.24ZM2455.03 1399.08 2476.37 1362.54C2484.71 1344.21 2491.08 1325.33 2495.54 1306.17L2502.1 1256.46 2258.45 1256.46ZM1897.9 1218.54 2141.55 1218.54 1944.97 1075.92 1923.63 1112.46C1915.29 1130.79 1908.92 1149.67 1904.46 1168.83ZM2311.42 1518.53 2356.73 1496.94C2373.6 1486.78 2389.62 1474.89 2404.5 1461.31L2432.71 1429.76 2236.12 1287.15ZM1944.33 1399.54 2141.55 1256.46 1898.63 1256.46 1900.38 1284.89C1906.45 1323.17 1919.84 1360.29 1940.18 1394ZM2124.67 1530.37 2131.23 1532.6C2169.62 1541.5 2209.11 1542.74 2247.45 1536.68L2275.07 1529.56 2200 1298.87ZM2021.69 1482.56C2038.64 1494.85 2056.42 1505.13 2074.78 1513.46L2088.7 1518.18 2163.88 1287.15 1967.06 1429.93 1975.86 1441.69C1989.46 1456.55 2004.75 1470.26 2021.69 1482.56ZM2001.34 1510.52C1850.33 1400.97 1816.86 1189.92 1926.57 1039.14 2036.29 888.35 2247.65 854.923 2398.66 964.476 2549.67 1074.03 2583.14 1285.08 2473.43 1435.86 2363.71 1586.65 2152.35 1620.08 2001.34 1510.52Z" fill="#F2F2F2" fill-rule="evenodd"/></g></svg>
