<svg width="2729" height="1366" xmlns="http://www.w3.org/2000/svg" xmlns:xlink="http://www.w3.org/1999/xlink" xml:space="preserve" overflow="hidden"><g transform="translate(-836 -555)"><rect x="836.5" y="555.5" width="2728" height="1365" stroke="#000000" stroke-width="1.14583" stroke-miterlimit="8" fill="#F2F2F2"/><rect x="2031" y="726" width="1533" height="170" fill="#C8102E"/><rect x="2031" y="897" width="1533" height="170" fill="#012169"/><rect x="836" y="1406" width="2728" height="170" fill="#012169"/><rect x="836" y="1749" width="2728" height="171" fill="#C8102E"/><rect x="836" y="1238" width="2728" height="170" fill="#C8102E"/><rect x="836" y="555" width="1195" height="683" fill="#012169"/><path d="M836 555 971.484 555 1319.01 754.187 1319.01 555 1545.87 555 1545.87 757.46 1903.06 555 2031 555 2031 638.099 1776.81 782.179 2031 782.179 2031 1011.97 1768.77 1011.97 2031 1162.27 2031 1238 1890.88 1238 1545.87 1040.26 1545.87 1238 1319.01 1238 1319.01 1041.67 972.626 1238 836 1238 836 1159.83 1096.86 1011.97 836 1011.97 836 782.179 1095.6 782.179 836 633.386Z" fill="#F2F2F2" fill-rule="evenodd"/><path d="M1364.84 555 1501.04 555 1501.04 827.529 2031 827.529 2031 966.074 1501.04 966.074 1501.04 1238 1364.84 1238 1364.84 966.074 836 966.074 836 827.529 1364.84 827.529Z" fill="#C8102E" fill-rule="evenodd"/><path d="M1639.47 1013.12 1734.95 1013.12 2031 1181.82 2031 1236.22ZM1317.86 1013.12 1317.86 1017.34 930.633 1238 836 1238 836 1237.52 1229.8 1013.12ZM1935.97 555 2031 555 2031 555.257 1636.24 780.2 1545.87 780.2 1545.87 777.29ZM836.127 555 836.128 555 1231.33 780.2 1135.86 780.2 836 609.334 836 555.224Z" fill="#C8102E" fill-rule="evenodd"/></g></svg>
