<svg width="2338" height="1559" xmlns="http://www.w3.org/2000/svg" xmlns:xlink="http://www.w3.org/1999/xlink" xml:space="preserve" overflow="hidden"><defs><clipPath id="clip0"><rect x="1031" y="458" width="2338" height="1559"/></clipPath></defs><g clip-path="url(#clip0)" transform="translate(-1031 -458)"><path d="M1031 458 3369 458 3369 2017 1031 2017Z" fill="#000F5D" fill-rule="evenodd"/><path d="M2353.27 1803.26 2368.48 1852.04 2418.62 1852.04 2379.63 1883.59 2393.71 1929.77 2352.65 1902.04 2311.98 1930 2325.82 1883.2 2287.11 1851.89 2336.9 1851.89ZM2038.5 1803.26 2053.67 1852.04 2103.81 1852.04 2064.82 1883.59 2079.13 1929.73 2038.07 1902 1997.25 1929.96 2011.13 1883.16 1972.33 1851.89 2022.09 1851.89ZM2203.16 1687.09 2223.86 1701.63 2217.04 1836.84C2217.04 1836.84 2213.92 1869.94 2202.96 1880.08L2202.92 1880.01C2191.97 1869.75 2189 1836.76 2189 1836.76L2182.42 1701.63ZM2614.31 1653.9 2629.48 1702.65 2679.59 1702.65 2640.59 1734.23 2654.71 1780.41 2613.65 1752.64 2572.95 1780.6 2586.83 1733.81 2548.15 1702.49 2597.9 1702.49ZM1776.95 1653.9 1792.12 1702.65 1842.26 1702.65 1803.27 1734.23 1817.35 1780.41 1776.29 1752.64 1735.58 1780.6 1749.46 1733.81 1710.78 1702.49 1760.54 1702.49ZM2203.78 1571.11 2218.99 1619.86 2269.09 1619.86 2230.1 1651.44 2244.18 1697.62 2203.12 1669.65 2162.41 1697.73 2176.29 1650.94 2137.61 1619.74 2187.37 1619.74ZM2480.38 1467.42 2495.59 1516.2 2545.69 1516.2 2506.7 1547.75 2520.78 1593.92 2479.72 1566.2 2439.05 1594.16 2452.89 1547.36 2414.21 1516.04 2463.97 1516.04ZM1926.21 1467.42 1941.41 1516.2 1991.52 1516.2 1952.53 1547.75 1966.6 1593.92 1925.54 1566.2 1884.84 1594.16 1898.72 1547.36 1860.04 1516.04 1909.79 1516.04ZM2789.58 1413.29 2804.78 1462.07 2855.04 1462.07 2816.05 1493.62 2830.13 1539.83 2789.07 1512.07 2748.4 1540.03 2762.25 1493.23 2723.45 1461.92 2773.16 1461.92ZM1604.92 1413.29 1620.13 1462.07 1670.23 1462.07 1631.24 1493.62 1645.32 1539.83 1604.26 1512.07 1563.55 1540.03 1577.44 1493.23 1538.76 1461.92 1588.51 1461.92ZM2165.18 1377.64 2241.88 1377.64 2228.19 1608.78 2203.35 1530.79 2178.32 1608.86ZM2143.85 1344.42 2260.28 1344.42 2260.28 1370.62 2143.85 1370.62ZM2108.8 1198.72 2298.76 1198.72C2266.44 1232.07 2249.36 1256.36 2246.24 1336.11 2217.86 1336.01 2189.45 1336.02 2161.01 1336.15 2158.05 1256.4 2141.01 1232.11 2108.8 1198.72ZM2598.02 1196.54 2613.3 1245.36 2663.4 1245.36 2624.41 1276.95 2638.49 1323.13 2597.71 1295.24 2556.84 1323.36 2570.68 1276.56 2531.85 1245.13 2581.64 1245.13ZM1807.32 1196.54 1822.53 1245.29 1872.48 1245.29 1833.49 1276.87 1847.56 1323.05 1806.51 1295.28 1766.11 1323.36 1779.99 1276.56 1741.16 1245.13 1790.91 1245.13ZM2093.32 1163.2 2314.05 1163.43 2314.01 1184.41 2093.32 1184.18ZM2240.67 1156.18 2241.88 1156.18 2241.68 1156.45ZM2334.95 1103.42 2750.59 1153.25 2749.22 1164.37 2333.62 1114.57ZM2070.24 1103.42 2071.53 1114.57 1655.96 1164.37 1654.56 1153.25ZM2834.69 1102.13 2849.9 1150.87 2900 1150.87 2861.01 1182.46 2875.08 1228.64 2834.03 1200.87 2793.36 1228.87 2807.2 1182.07 2768.52 1150.76 2818.31 1150.76ZM1566.17 1102.13 1581.33 1150.87 1631.48 1150.87 1592.49 1182.46 1606.56 1228.64 1565.54 1200.87 1524.84 1228.87 1538.68 1182.07 1500 1150.76 1549.75 1150.76ZM2122.17 1025.46C2153.68 1083.96 2107.51 1102.13 2162.37 1156.37L2120.69 1156.33 2120.38 1155.94C2072.77 1093.04 2121.2 1070.15 2122.17 1025.46ZM2294.32 1016.06C2296.81 1037.2 2279.97 1037.2 2287.42 1063.09 2288.8 1072.66 2287.45 1082.42 2283.52 1091.25 2290.54 1082.67 2304.14 1066.48 2312.76 1060.05 2292.33 1090.86 2330.81 1117.84 2281.57 1156.18L2241.88 1156.18 2251.29 1143.44C2292.12 1080.33 2229.84 1046.22 2294.32 1016.06ZM2247.14 967.354C2203.31 1031.15 2292.25 1085.67 2227.64 1156.45L2173.25 1156.37C2156.49 1132.78 2144.71 1095.15 2149.86 1070.58 2155 1046.01 2171.89 1021.79 2169.35 1003.19 2178.24 1024.13 2189.24 1024.17 2186.63 1039.58 2199.96 999.839 2205.61 969.382 2247.14 967.354ZM2207.8 902.853 2207.8 947.621 2196.53 947.621 2196.53 902.892ZM2666.87 901.683 2670.81 912.134 2329.06 1043.59 2325.16 1033.14ZM1738.86 901.683 2080.57 1033.14 2076.67 1043.59 1734.92 912.134ZM1684.78 820.958 1699.98 869.705 1750.09 869.705 1711.1 901.293 1725.17 947.465 1684.11 919.699 1643.45 947.699 1657.29 900.903 1618.61 869.588 1668.36 869.588ZM2718.58 820.919 2733.78 869.666 2783.89 869.666 2744.9 901.254 2758.97 947.426 2717.91 919.66 2677.25 947.66 2691.09 900.864 2652.29 869.588 2702.2 869.588ZM2114.1 785.137 2114.22 785.198 2111.34 790.853 2111.22 791.009 2110.88 790.831 2113.68 785.651ZM2203.9 760.084 2222.61 820.295 2284.49 820.295 2236.49 859.293 2253.89 916.307 2203.2 882.106 2152.86 916.619 2169.98 858.747 2122.02 820.295 2183.55 820.295ZM2451.26 758.992 2460.34 765.387 2313.27 974.958 2304.14 968.485ZM1955.61 758.992 2102.76 968.485 2093.63 974.958 1946.56 765.387ZM2500.11 625.582 2515.32 674.368 2565.42 674.368 2526.43 705.917 2540.51 752.128 2499.45 724.323 2458.74 752.284 2472.62 705.488 2433.94 674.212 2483.7 674.212ZM1904.8 625.582 1919.97 674.368 1969.95 674.368 1930.96 705.917 1945.04 752.128 1903.98 724.362 1863.28 752.323 1877.16 705.527 1838.63 674.212 1888.39 674.212ZM2202.89 544 2218.09 592.747 2268.23 592.747 2229.24 624.334 2243.32 670.507 2202.3 642.741 2161.59 670.702 2175.44 623.905 2136.72 592.591 2186.51 592.591Z" fill="#D59F0F" fill-rule="evenodd"/></g></svg>
