<svg width="2338" height="1559" xmlns="http://www.w3.org/2000/svg" xmlns:xlink="http://www.w3.org/1999/xlink" xml:space="preserve" overflow="hidden"><defs><clipPath id="clip0"><rect x="1031" y="458" width="2338" height="1559"/></clipPath></defs><g clip-path="url(#clip0)" transform="translate(-1031 -458)"><path d="M1031 458 3369 458 3369 2017 1031 2017Z" fill="#3E69CA" fill-rule="evenodd"/><path d="M2199.88 591 2200 591.214 2200.12 591 2200.52 591.707 2200.52 592.13 2219.84 626.288C2260.26 700.751 2258.19 730.33 2224.75 930L2175.25 930C2141.81 730.33 2139.74 700.751 2180.16 626.288L2199.48 592.13 2199.48 591.707 2199.88 591Z" fill="#CD61C5" fill-rule="evenodd"/><path d="M49.8786 0 50 0.214515 50.121 0 50.5178 0.707039 50.5178 1.13017 69.8351 35.288C110.255 109.752 108.19 139.33 74.7457 339L25.2539 339C-8.1903 139.33-10.2556 109.752 30.1646 35.288L49.4819 1.13017 49.4819 0.707039 49.8786 0Z" fill="#CD61C5" fill-rule="evenodd" transform="matrix(1 0 0 -1 2150 1371)"/><path d="M2429.2 1296.23 2428.97 1296.12 2429 1296.37 2428.26 1296.03 2428.02 1295.69 2392.37 1279.39C2316.02 1242.88 2300.31 1217.76 2210 1036.72L2249.93 1007.71C2394.2 1149.54 2413.24 1172.25 2424.37 1256.14L2428.85 1295.08 2429.1 1295.42 2429.2 1296.23Z" fill="#CD61C5" fill-rule="evenodd"/><path d="M49.738 0 49.859 0.214379 49.9798 0 50.3754 0.70659 50.3754 1.12946 69.6382 35.2656C109.945 109.682 107.885 139.241 74.5351 338.785L25.1827 338.785C-8.16721 139.241-10.2267 109.682 30.0796 35.2656L49.3424 1.12946 49.3424 0.70659 49.738 0Z" fill="#CD61C5" fill-rule="evenodd" transform="matrix(-0.809017 0.587785 0.587785 0.809017 2011.24 636.341)"/><path d="M2570.72 1101.3 2570.48 1101.35 2570.65 1101.53 2569.86 1101.69 2569.45 1101.56 2531.04 1109.33C2447.81 1124.67 2420.33 1113.57 2240.86 1020.19L2256.11 973.257C2456.19 1003.2 2484.94 1010.38 2543.26 1071.71L2569.77 1100.58 2570.17 1100.71 2570.72 1101.3Z" fill="#CD61C5" fill-rule="evenodd"/><path d="M49.738 0 49.859 0.214379 49.9798 0 50.3754 0.70659 50.3754 1.12946 69.6382 35.2656C109.945 109.682 107.885 139.241 74.5351 338.785L25.1827 338.785C-8.16721 139.241-10.2267 109.682 30.0796 35.2656L49.3424 1.12946 49.3424 0.70659 49.738 0Z" fill="#CD61C5" fill-rule="evenodd" transform="matrix(-0.309017 0.951057 0.951057 0.309017 1844.72 813.11)"/><path d="M2570.65 860.414 2570.48 860.595 2570.72 860.643 2570.17 861.238 2569.77 861.369 2543.26 890.237C2484.94 951.567 2456.19 958.743 2256.11 988.687L2240.86 941.75C2420.33 848.37 2447.81 837.277 2531.04 852.615L2569.45 860.386 2569.86 860.256 2570.65 860.414Z" fill="#CD61C5" fill-rule="evenodd"/><path d="M49.738 0 49.859 0.214379 49.9798 0 50.3754 0.70659 50.3754 1.12946 69.6382 35.2656C109.945 109.682 107.885 139.241 74.5351 338.785L25.1827 338.785C-8.16721 139.241-10.2267 109.682 30.0796 35.2656L49.3424 1.12946 49.3424 0.70659 49.738 0Z" fill="#CD61C5" fill-rule="evenodd" transform="matrix(0.309017 0.951057 0.951057 -0.309017 1813.91 1054)"/><path d="M2429 665.576 2428.97 665.82 2429.2 665.718 2429.1 666.522 2428.85 666.864 2424.37 705.803C2413.24 789.699 2394.2 812.402 2249.93 954.234L2210 925.225C2300.31 744.189 2316.02 719.064 2392.37 682.551L2428.02 666.257 2428.26 665.915 2429 665.576Z" fill="#CD61C5" fill-rule="evenodd"/><path d="M49.738 0 49.859 0.214379 49.9798 0 50.3754 0.70659 50.3754 1.12946 69.6382 35.2656C109.945 109.682 107.885 139.241 74.5351 338.785L25.1827 338.785C-8.16721 139.241-10.2267 109.682 30.0796 35.2656L49.3424 1.12946 49.3424 0.70659 49.738 0Z" fill="#CD61C5" fill-rule="evenodd" transform="matrix(0.809017 0.587785 0.587785 -0.809017 1930.57 1266.99)"/><path d="M2315.29 625.772 2315.34 626.004 2315.51 625.844 2315.66 626.605 2315.54 626.99 2322.98 663.799C2337.68 743.543 2327.05 769.869 2237.58 941.825L2192.61 927.213C2221.3 735.509 2228.17 707.964 2286.93 652.087L2314.59 626.684 2314.72 626.299 2315.29 625.772Z" fill="#FFCCFF" fill-rule="evenodd"/><path d="M47.6552 0 47.7711 0.205402 47.8868 0 48.2658 0.677 48.2658 1.08216 66.722 33.7888C105.34 105.089 103.367 133.41 71.4138 324.597L24.1282 324.597C-7.8252 133.41-9.79847 105.089 28.8199 33.7888L47.2761 1.08216 47.2761 0.677 47.6552 0Z" fill="#FFCCFF" fill-rule="evenodd" transform="matrix(0.951057 0.309017 0.309017 -0.951057 2039.17 1321.37)"/><path d="M2315.51 1336.1 2315.34 1335.94 2315.29 1336.17 2314.72 1335.64 2314.59 1335.26 2286.93 1309.86C2228.17 1253.98 2221.3 1226.44 2192.61 1034.73L2237.58 1020.12C2327.05 1192.07 2337.68 1218.4 2322.98 1298.14L2315.54 1334.95 2315.66 1335.34 2315.51 1336.1Z" fill="#FFCCFF" fill-rule="evenodd"/><path d="M47.6552 0 47.7711 0.205401 47.8868 0 48.2658 0.676999 48.2658 1.08216 66.722 33.7887C105.34 105.089 103.367 133.41 71.4138 324.597L24.1282 324.597C-7.8252 133.41-9.79847 105.089 28.8199 33.7887L47.2761 1.08216 47.2761 0.676999 47.6552 0Z" fill="#FFCCFF" fill-rule="evenodd" transform="matrix(-0.951057 0.309017 0.309017 0.951057 2130.03 611.047)"/><path d="M2502.19 1200.38 2501.95 1200.35 2502.05 1200.57 2501.28 1200.48 2500.95 1200.24 2463.65 1195.95C2383.26 1185.28 2361.51 1167.04 2225.62 1028.81L2253.41 990.555C2426.87 1077.08 2450.94 1092.13 2485.92 1165.28L2501.54 1199.44 2501.86 1199.68 2502.19 1200.38Z" fill="#FFCCFF" fill-rule="evenodd"/><path d="M47.6552 0 47.7711 0.205401 47.8868 0 48.2658 0.676999 48.2658 1.08216 66.722 33.7887C105.34 105.089 103.367 133.41 71.4138 324.597L24.1282 324.597C-7.8252 133.41-9.79847 105.089 28.8199 33.7887L47.2761 1.08216 47.2761 0.676999 47.6552 0Z" fill="#FFCCFF" fill-rule="evenodd" transform="matrix(-0.587785 0.809017 0.809017 0.587785 1925.96 722.821)"/><path d="M2573 980.884 2572.79 981 2573 981.116 2572.32 981.497 2571.92 981.497 2539.27 1000.04C2468.1 1038.85 2439.84 1036.86 2249 1004.76L2249 957.244C2439.84 925.137 2468.1 923.155 2539.27 961.958L2571.92 980.503 2572.32 980.503 2573 980.884Z" fill="#FFCCFF" fill-rule="evenodd"/><path d="M47.8836 0 48.0001 0.205023 48.1163 0 48.4972 0.675754 48.4972 1.08017 67.0418 33.7266C105.845 104.895 103.863 133.165 71.7561 324L24.2438 324C-7.8627 133.165-9.84544 104.895 28.9581 33.7266L47.5027 1.08017 47.5027 0.675754 47.8836 0Z" fill="#FFCCFF" fill-rule="evenodd" transform="matrix(6.12323e-17 1 1 -6.12323e-17 1827 933)"/><path d="M2502.05 761.375 2501.95 761.59 2502.19 761.563 2501.86 762.267 2501.54 762.505 2485.92 796.661C2450.94 869.813 2426.87 884.864 2253.41 971.39L2225.62 933.135C2361.51 794.907 2383.26 776.664 2463.65 765.998L2500.95 761.705 2501.28 761.466 2502.05 761.375Z" fill="#FFCCFF" fill-rule="evenodd"/><path d="M47.6552 0 47.7711 0.205401 47.8868 0 48.2658 0.676999 48.2658 1.08216 66.722 33.7887C105.34 105.089 103.367 133.41 71.4138 324.597L24.1282 324.597C-7.8252 133.41-9.79847 105.089 28.8199 33.7887L47.2761 1.08216 47.2761 0.676999 47.6552 0Z" fill="#FFCCFF" fill-rule="evenodd" transform="matrix(0.587785 0.809017 0.809017 -0.587785 1869.8 1161.83)"/><path d="M2109 981C2109 930.742 2149.74 890 2200 890 2250.26 890 2291 930.742 2291 981 2291 1031.26 2250.26 1072 2200 1072 2149.74 1072 2109 1031.26 2109 981Z" fill="#E2A5F7" fill-rule="evenodd"/><path d="M2084 981C2084 916.935 2135.94 865 2200 865 2264.06 865 2316 916.935 2316 981 2316 1045.06 2264.06 1097 2200 1097 2135.94 1097 2084 1045.06 2084 981ZM2094.91 981C2094.91 1039.04 2141.96 1086.09 2200 1086.09 2258.04 1086.09 2305.09 1039.04 2305.09 981 2305.09 922.962 2258.04 875.913 2200 875.913 2141.96 875.913 2094.91 922.962 2094.91 981Z" fill="#FFC425" fill-rule="evenodd"/><path d="M2112.71 918.343 2183.24 958.372 2166.2 880.273 2199.83 953.159 2232.59 880.668 2216.48 958.569 2286.54 919.374 2226.84 972.536 2307.43 981.609 2226.94 989.726 2287.29 1043.6 2216.76 1003.57 2233.8 1081.67 2200.17 1008.79 2167.41 1081.28 2183.52 1003.37 2113.46 1042.57 2173.16 989.407 2092.57 980.335 2173.06 972.218Z" fill="#F2F2F2" fill-rule="evenodd"/><path d="M2180 981C2180 969.954 2188.95 961 2200 961 2211.05 961 2220 969.954 2220 981 2220 992.046 2211.05 1001 2200 1001 2188.95 1001 2180 992.046 2180 981Z" fill="#B271B0" fill-rule="evenodd"/><path d="M1265.23 1696 1498.92 1871.3 1732.62 1696 1966.31 1871.3 2200 1696 2433.69 1871.3 2667.38 1696 2901.08 1871.3 3134.77 1696 3368.46 1871.3 3369 1870.9 3369 2008.59 3368.46 2009 3134.77 1833.7 2901.08 2009 2667.38 1833.7 2433.69 2009 2200 1833.7 1966.31 2009 1732.62 1833.7 1498.92 2009 1265.23 1833.7 1031.54 2009 1031 2008.59 1031 1870.9 1031.54 1871.3Z" fill="#FFC000" fill-rule="evenodd"/><path d="M1265.23 1504 1498.92 1679.3 1732.62 1504 1966.31 1679.3 2200 1504 2433.69 1679.3 2667.38 1504 2901.08 1679.3 3134.77 1504 3368.46 1679.3 3369 1678.9 3369 1816.59 3368.46 1817 3134.77 1641.7 2901.08 1817 2667.38 1641.7 2433.69 1817 2200 1641.7 1966.31 1817 1732.62 1641.7 1498.92 1817 1265.23 1641.7 1031.54 1817 1031 1816.59 1031 1678.9 1031.54 1679.3Z" fill="#F2F2F2" fill-rule="evenodd"/></g></svg>
