<svg width="2340" height="1561" xmlns="http://www.w3.org/2000/svg" xmlns:xlink="http://www.w3.org/1999/xlink" xml:space="preserve" overflow="hidden"><g transform="translate(-1030 -457)"><path d="M1031 458 3369 458 3369 2017 1031 2017 1031 458Z" stroke="#000000" stroke-width="2.16427" stroke-miterlimit="8" fill="#0E388C" fill-rule="evenodd"/><path d="M1031 737 1615.78 1070.54 2200 737 2784.22 1070.54 3369 737 3369 1403.76 3367.87 1403.76 3369 1404.4 3369 1404.4 3369 1673 1031 1673 1031 1404.4 1031 1404.4 1032.13 1403.76 1031 1403.76Z" fill="#FFB81D" fill-rule="evenodd"/><path d="M2340.96 1003 2059.09 1003C2053.68 1003 2050.93 996.379 2054.83 992.636 2095.85 953.48 2145.54 928 2199.85 928 2254.16 928 2304.35 953.48 2345.15 992.636 2349.05 996.379 2346.38 1003 2340.89 1003Z" fill-rule="evenodd"/><path d="M2405.21 1104 1994.79 1104C1986.72 1104 1981.53 1095.44 1985.2 1088.31 1993.21 1072.91 2002.15 1058.01 2012.03 1043.9 2018.59 1034.54 2029.26 1029 2040.72 1029L2359.42 1029C2370.89 1029 2381.63 1034.61 2388.12 1043.97 2397.92 1058.08 2406.87 1072.91 2414.8 1088.31 2418.47 1095.44 2413.28 1104 2405.21 1104Z" fill-rule="evenodd"/><path d="M2442.15 1205 1957.79 1205C1950.72 1205 1945.61 1198.38 1947.34 1191.61 1951.45 1175.78 1955.62 1160.81 1960.02 1147.63 1963.48 1137.13 1973.35 1130 1984.52 1130L2415.48 1130C2426.58 1130 2436.45 1137.13 2439.98 1147.63 2444.38 1160.81 2448.63 1175.78 2452.67 1191.61 2454.39 1198.38 2449.21 1205 2442.22 1205Z" fill-rule="evenodd"/><path d="M2464.21 1306 1935.79 1306C1929.01 1306 1923.96 1299.8 1925.18 1293.09 1927.78 1279.31 1930.52 1265.01 1933.48 1250.71 1936 1238.68 1946.53 1230 1958.72 1230L2441.28 1230C2453.54 1230 2464.07 1238.68 2466.52 1250.71 2469.48 1265.01 2472.22 1279.23 2474.82 1293.09 2476.04 1299.8 2470.99 1306 2464.21 1306Z" fill-rule="evenodd"/><path d="M2250.21 1406C2244.23 1406 2239.4 1401.18 2239.4 1395.28L2239.4 1395.28C2239.4 1384.41 2235 1374.62 2227.86 1367.49 2220.73 1360.37 2210.85 1355.98 2199.96 1355.98 2178.19 1355.98 2160.53 1373.54 2160.53 1395.2L2160.53 1395.2C2160.53 1401.11 2155.7 1405.93 2149.71 1405.93L1918.8 1405.93C1912.17 1405.93 1907.12 1400.1 1908.13 1393.62 1909.57 1384.19 1911.81 1369.87 1914.69 1352.45 1916.78 1340.07 1927.52 1331 1940.14 1331L2459.86 1331C2472.48 1331 2483.22 1340.07 2485.31 1352.45 2488.19 1369.87 2490.43 1384.19 2491.87 1393.62 2492.88 1400.1 2487.83 1405.93 2481.2 1405.93L2250.29 1405.93Z" fill-rule="evenodd"/><rect x="1031" y="1532" width="2338" height="485"/></g></svg>
