<svg width="1269" height="1270" xmlns="http://www.w3.org/2000/svg" xmlns:xlink="http://www.w3.org/1999/xlink" xml:space="preserve" overflow="hidden"><defs><clipPath id="clip0"><rect x="756" y="299" width="1269" height="1270"/></clipPath></defs><g clip-path="url(#clip0)" transform="translate(-756 -299)"><path d="M1395.59 448.533 1286.81 740.976 991.05 643.952 1151.16 911.599 891.135 1083.05 1199.58 1124.36 1171.09 1435.19 1395.59 1219.05 1620.09 1435.19 1591.61 1124.36 1900.05 1083.05 1640.02 911.599 1800.13 643.952 1504.37 740.976ZM1390.5 299 1527.32 675.425 1899.33 550.539 1697.94 895.048 2025 1115.74 1637.05 1168.91 1672.88 1569 1390.5 1290.79 1108.12 1569 1143.95 1168.91 756 1115.74 1083.06 895.048 881.672 550.539 1253.68 675.425Z" fill="#E3B72F" fill-rule="evenodd"/></g></svg>