<svg width="2338" height="1169" xmlns="http://www.w3.org/2000/svg" xmlns:xlink="http://www.w3.org/1999/xlink" xml:space="preserve" overflow="hidden"><defs><clipPath id="clip0"><rect x="1031" y="653" width="2338" height="1169"/></clipPath></defs><g clip-path="url(#clip0)" transform="translate(-1031 -653)"><rect x="1810" y="653" width="1559" height="1169" fill="#FFCD00"/><rect x="0" y="0" width="779" height="1169" fill="#003087" transform="matrix(-1 1.22465e-16 1.22465e-16 1 1810 653)"/><path d="M2848.31 876 2868.69 997.845C2879.94 1065.14 2810.08 1105.01 2767.15 1140.06 2740.33 1161.97 2705.97 1197.26 2671.56 1211.79L2663.72 1214.06 2663.97 1214.8 2665.35 1214.23C2702.03 1202.89 2753.89 1211.13 2790.24 1212.57 2845.62 1214.77 2925.43 1204.61 2956.94 1265.13L3014 1374.72 2904.35 1431.74C2843.79 1463.24 2784.27 1409.15 2737.65 1379.18 2714.34 1364.2 2681.38 1347.28 2656.61 1326.66L2642.55 1313.1 2651.87 1331.39C2664.34 1361.1 2670.88 1397.54 2678.4 1424.2 2693.42 1477.53 2727.75 1550.25 2679.89 1598.9L2593.24 1687 2505.09 1600.4C2456.41 1552.57 2489.49 1479.27 2503.6 1425.7 2511.53 1395.56 2518.03 1353.07 2533.31 1321.57L2540.52 1308.96 2540.19 1308.72 2538.01 1312.06C2514.03 1340.7 2470.2 1363.2 2441.39 1382.43 2395.29 1413.19 2336.7 1468.29 2275.61 1437.83L2165 1382.69 2220.17 1272.15C2227.79 1256.88 2238.5 1245.99 2251.15 1238.18 2289.09 1214.74 2344.45 1219.1 2385.95 1216.74 2420.54 1214.78 2469.09 1206.41 2505.48 1214.86L2508.11 1215.81 2508.7 1213.45 2509.1 1212.59 2505.24 1211.55C2470.59 1197.6 2435.63 1162.9 2408.43 1141.46 2364.92 1107.14 2294.38 1068.48 2304.48 1001L2322.77 878.824 2445.01 897.105C2512.53 907.201 2528.87 985.932 2548.97 1037.56 2561.52 1069.83 2584.49 1113.39 2587.69 1150.6L2587.42 1158.98 2588.42 1159.03 2588.08 1152.26C2590.64 1115.01 2612.86 1071.06 2624.86 1038.58 2639.27 999.607 2651.3 945.427 2684.83 916.027 2696 906.227 2709.56 899.18 2726.39 896.368L2848.31 876Z" fill="#003087" fill-rule="evenodd"/><path d="M0 0 0.000360892 243.329" stroke="#FFFFFF" stroke-width="13.75" stroke-linecap="round" stroke-miterlimit="8" fill="none" fill-rule="evenodd" transform="matrix(0.803958 -0.594686 -0.594686 -0.803958 2526.67 1161.24)"/><path d="M0 0 0.000360892 243.329" stroke="#FFFFFF" stroke-width="13.75" stroke-linecap="round" stroke-miterlimit="8" fill="none" fill-rule="evenodd" transform="matrix(-0.317143 -0.948378 -0.948378 0.317143 2497.34 1275.97)"/><path d="M0 0 0.000360892 243.329" stroke="#FFFFFF" stroke-width="13.75" stroke-linecap="round" stroke-miterlimit="8" fill="none" fill-rule="evenodd" transform="matrix(-0.999963 0.00855579 0.00855579 0.999963 2590.45 1338.62)"/><path d="M0 0 0.000360892 243.329" stroke="#FFFFFF" stroke-width="13.75" stroke-linecap="round" stroke-miterlimit="8" fill="none" fill-rule="evenodd" transform="matrix(-0.300869 0.953666 0.953666 0.300869 2683.05 1270.13)"/><path d="M0 0 0.000360892 243.329" stroke="#FFFFFF" stroke-width="13.75" stroke-linecap="round" stroke-miterlimit="8" fill="none" fill-rule="evenodd" transform="matrix(0.814016 0.580842 0.580842 -0.814016 2651.74 1161.75)"/><path d="M2533 1242.5C2533 1210.74 2558.74 1185 2590.5 1185 2622.26 1185 2648 1210.74 2648 1242.5 2648 1274.26 2622.26 1300 2590.5 1300 2558.74 1300 2533 1274.26 2533 1242.5Z" fill="#FFCD00" fill-rule="evenodd"/><path d="M1506 1271.23 1539.6 1268.63 1552.5 1238 1565.4 1268.63 1599 1271.23 1573.37 1292.76 1581.24 1325 1552.5 1307.68 1523.76 1325 1531.63 1292.76Z" fill="#FFFFFF" fill-rule="evenodd"/><path d="M1359 1653.25 1404.7 1626.47 1375.14 1582.49 1424.57 1601.54 1440.5 1551 1456.43 1601.54 1505.86 1582.49 1476.3 1626.47 1522 1653.25 1469.21 1657.55 1476.77 1710 1440.5 1671.39 1404.23 1710 1411.79 1657.55Z" fill="#FFFFFF" fill-rule="evenodd"/><path d="M1064 1183.25 1109.7 1156.47 1080.14 1112.49 1129.57 1131.54 1145.5 1081 1161.43 1131.54 1210.86 1112.49 1181.3 1156.47 1227 1183.25 1174.21 1187.55 1181.77 1240 1145.5 1201.39 1109.23 1240 1116.79 1187.55Z" fill="#FFFFFF" fill-rule="evenodd"/><path d="M1614 1106.25 1659.7 1079.47 1630.14 1035.49 1679.57 1054.54 1695.5 1004 1711.43 1054.54 1760.86 1035.49 1731.3 1079.47 1777 1106.25 1724.21 1110.55 1731.77 1163 1695.5 1124.39 1659.23 1163 1666.79 1110.55Z" fill="#FFFFFF" fill-rule="evenodd"/><path d="M1359 867.254 1404.7 840.466 1375.14 796.492 1424.57 815.537 1440.5 765 1456.43 815.537 1505.86 796.492 1476.3 840.466 1522 867.254 1469.21 871.551 1476.77 924.001 1440.5 885.386 1404.23 924.001 1411.79 871.551Z" fill="#FFFFFF" fill-rule="evenodd"/></g></svg>