<svg width="2338" height="1169" xmlns="http://www.w3.org/2000/svg" xmlns:xlink="http://www.w3.org/1999/xlink" xml:space="preserve" overflow="hidden"><defs><clipPath id="clip0"><rect x="1031" y="653" width="2338" height="1169"/></clipPath></defs><g clip-path="url(#clip0)" transform="translate(-1031 -653)"><rect x="1031" y="653" width="2338" height="1169" fill="#6BA4B8"/><path d="M1031 653 2200 1237.5 1031 1822Z" fill="#FFFFFF" fill-rule="evenodd"/><path d="M1031 653 1810 1237.5 1031 1822Z" fill="#00205B" fill-rule="evenodd"/><path d="M1123 1273.94 1217.2 1218.68 1156.27 1127.96 1258.16 1167.25 1291 1063 1323.84 1167.25 1425.73 1127.96 1364.8 1218.68 1459 1273.94 1350.18 1282.8 1365.77 1391 1291 1311.34 1216.23 1391 1231.81 1282.8Z" fill="#FFFFFF" fill-rule="evenodd"/><path d="M2505.21 1633.17 2556.01 1618.26 2537.97 1568.49 2581.31 1598.9 2608.98 1553.77 2612.22 1606.61 2664.76 1600.1 2625.47 1635.57 2663.32 1672.59 2611.08 1663.99 2605.73 1716.65 2579.88 1670.45 2535.37 1699.11 2555.38 1650.1Z" fill="#FFFFFF" fill-rule="evenodd"/><path d="M2338.39 1098.23 2389.19 1083.31 2371.15 1033.55 2414.49 1063.96 2442.16 1018.83 2445.4 1071.66 2497.94 1065.16 2458.65 1100.63 2496.5 1137.65 2444.26 1129.04 2438.92 1181.71 2413.07 1135.51 2368.55 1164.16 2388.56 1115.16Z" fill="#FFFFFF" fill-rule="evenodd"/><path d="M2890.54 1156.14 2941.34 1141.23 2923.29 1091.46 2966.63 1121.87 2994.3 1076.75 2997.54 1129.58 3050.08 1123.07 3010.79 1158.55 3048.64 1195.56 2996.4 1186.96 2991.06 1239.62 2965.21 1193.43 2920.7 1222.08 2940.7 1173.07Z" fill="#FFFFFF" fill-rule="evenodd"/><path d="M2746.26 1290.23 2779.42 1295.79 2799.39 1268.89 2804.39 1302.02 2836.27 1312.67 2806.21 1327.59 2805.95 1361.08 2782.36 1337.17 2750.31 1347.2 2765.81 1317.51Z" fill="#FFFFFF" fill-rule="evenodd"/><path d="M2701.18 861.822 2751.98 846.91 2733.94 797.142 2777.28 827.553 2804.95 782.426 2808.19 835.26 2860.73 828.755 2821.44 864.227 2859.29 901.242 2807.05 892.641 2801.7 945.304 2775.85 899.106 2731.34 927.76 2751.35 878.753Z" fill="#FFFFFF" fill-rule="evenodd"/><path d="M3225 1543C3225 1650.7 3137.7 1738 3030 1738 2922.3 1738 2835 1650.7 2835 1543 2835 1435.3 2922.3 1348 3030 1348 3137.7 1348 3225 1435.3 3225 1543Z" fill="#00205B" fill-rule="evenodd"/><path d="M3161 1543.5C3161 1615.57 3102.57 1674 3030.5 1674 2958.43 1674 2900 1615.57 2900 1543.5 2900 1471.43 2958.43 1413 3030.5 1413 3102.57 1413 3161 1471.43 3161 1543.5Z" fill="#FFFFFF" fill-rule="evenodd"/><path d="M2975.43 1526.03C2975.43 1526.03 2976.76 1525.8 2977.87 1524.8 2978.7 1524.03 2979.52 1521.91 2979.52 1521.91 2979.52 1521.91 2984.63 1509.44 2992.94 1502.46 3006.11 1491.4 3015.27 1490.58 3015.27 1490.58 3015.27 1490.58 3027.83 1487.03 3037.61 1490.57 3051.3 1495.53 3058.47 1502.25 3058.47 1502.25 3058.47 1502.25 3066.2 1508.4 3066.92 1509.32 3067.61 1510.19 3077.18 1518.27 3077.18 1518.27L3081.49 1522.23C3081.49 1522.23 3108.13 1544.4 3121.07 1545.89 3144.05 1548.55 3145.7 1529.25 3145.7 1529.25 3145.7 1529.25 3146.1 1524.95 3147.91 1525.08 3150.24 1525.24 3153.8 1544.31 3138.29 1553.24 3125.95 1560.32 3104.17 1553.87 3104.17 1553.87 3104.17 1553.87 3092.14 1549.58 3085.42 1545.82 3078.61 1542.01 3070.26 1536.79 3070.26 1536.79 3070.26 1536.79 3070.14 1536.4 3067.03 1535.73 3064.81 1535.26 3062.35 1537.94 3062.35 1537.94 3062.35 1537.94 3052.55 1545.88 3048.02 1549.3 3042.92 1553.13 3028.36 1559.66 3028.36 1559.66 3028.36 1559.66 3023.84 1570.52 3022.98 1579.14 3021.61 1592.9 3022.77 1598.92 3022.77 1598.92 3022.77 1598.92 3023.27 1603.82 3021.92 1605.79 3020.3 1608.19 3015.58 1610.16 3015.58 1610.16 3015.58 1610.16 3007.65 1613.94 3000.09 1618.43 2991.92 1623.28 2982.46 1632.18 2982.46 1632.18 2982.46 1632.18 2980.3 1634.41 2978.83 1634.72 2977.36 1635.03 2977.56 1632.24 2977.56 1632.24 2977.56 1632.24 2974.37 1634.63 2972.8 1634.78 2971.23 1634.93 2971.4 1632.48 2971.4 1632.48 2971.4 1632.48 2970.13 1633.03 2968.91 1633.96 2968.11 1634.57 2965.97 1637 2965.97 1637 2965.97 1637 2964.89 1635.95 2966.62 1632.78 2967.23 1631.65 2969.67 1629.53 2969.67 1629.53 2969.67 1629.53 2970.47 1628.77 2970.77 1628.31 2971.2 1627.66 2971.35 1626.97 2971.35 1626.97 2971.35 1626.97 2972.39 1623.99 2975.88 1621.15 2977.39 1619.91 2981.44 1618.03 2981.44 1618.03 2981.44 1618.03 3005 1611.88 3010.01 1594.32 3013.19 1583.18 3013.48 1560.89 3013.48 1560.89 3013.48 1560.89 3013.41 1560.35 3012.9 1559.83 3012.41 1559.31 3012.11 1559.02 3012.11 1559.02L3008.32 1555.22C3008.32 1555.22 3007.87 1554.75 3007.04 1554.53 3006.29 1554.33 3005.4 1554.6 3005.4 1554.6 3005.4 1554.6 3003.24 1555.16 3001.81 1555.38 3000.22 1555.62 2998.28 1555.07 2998.28 1555.07 2998.28 1555.07 2996.6 1554.26 2995.45 1555.18 2994.59 1555.87 2995.12 1557.11 2995.12 1557.11 2995.12 1557.11 2997.64 1564.81 2997.84 1565.63 2998.18 1567.12 2999.44 1573.62 2999.44 1573.62L3001.91 1577.57C3001.91 1577.57 3002.76 1577.41 3002.97 1577.34 3003.17 1577.28 3004.15 1577.05 3004.15 1577.05 3004.15 1577.05 3004.29 1573.61 3005.62 1573.47 3007.66 1573.26 3007.27 1580.79 3007.27 1580.79 3007.27 1580.79 3007.2 1581.17 3006.89 1581.49 3006.52 1581.87 3006 1582.09 3006 1582.09 3006 1582.09 3004.22 1582.57 3003.31 1582.86 3001.68 1583.37 2999.85 1583.81 2997.79 1582.67 2996.81 1582.13 2995.67 1580.58 2995.67 1580.58 2995.67 1580.58 2990.75 1573.12 2990.48 1572.81 2990.23 1572.5 2984.75 1565.06 2981.72 1563.83 2979.73 1563 2976.66 1562.39 2976.66 1562.39 2976.66 1562.39 2973.49 1561.62 2972.32 1561.35 2968.86 1560.56 2965.72 1558.77 2965.72 1558.77 2965.72 1558.77 2957.85 1552.86 2955.46 1550.73 2954.09 1549.51 2946.17 1543.05 2945.69 1542.73 2945.13 1542.36 2944.16 1542.66 2944.16 1542.66 2944.16 1542.66 2941.19 1543.48 2938.18 1543.03 2936.39 1542.77 2933.92 1542.32 2931.95 1542.2 2931.21 1542.15 2928.77 1542.39 2928.06 1542.42 2926.22 1542.53 2921.38 1543.73 2918.96 1541.82 2917.14 1540.38 2915.86 1536.94 2916.01 1535.59 2916.24 1533.7 2917.4 1532.96 2917.4 1532.96 2917.4 1532.96 2919 1531.82 2921.36 1530.45 2924.55 1528.59 2926.42 1527.96 2926.42 1527.96 2926.42 1527.96 2928.41 1527.4 2929.52 1526.98 2930.62 1526.57 2932.12 1525.2 2932.12 1525.2 2932.12 1525.2 2935.6 1522.22 2937.38 1521.31 2938.69 1520.63 2941.72 1519.62 2941.72 1519.62 2941.72 1519.62 2944.24 1518.84 2944.46 1518.74 2946.06 1517.98 2947.28 1516.71 2947.28 1516.71 2947.28 1516.71 2952.02 1510.31 2958.11 1507.99 2958.75 1507.75 2960.46 1507.21 2962.12 1506.7 2964.1 1506.1 2966.03 1505.52 2966.03 1505.52 2966.03 1505.52 2967.31 1504.93 2967.92 1505.57 2968.51 1506.2 2967.45 1507.7 2967.45 1507.7 2967.45 1507.7 2964.11 1514.43 2959.74 1517.86 2958.22 1519.06 2954.32 1520.17 2954.32 1520.17 2954.32 1520.17 2952.69 1520.76 2952.69 1521.52 2952.71 1522.46 2953.84 1523.01 2953.84 1523.01L2960.39 1527.9C2960.39 1527.9 2961.41 1528.53 2961.87 1528.68 2962.83 1528.97 2963.83 1528.61 2963.83 1528.61 2963.83 1528.61 2968.57 1527.44 2968.98 1527.35 2969.4 1527.24 2975.43 1526.03 2975.43 1526.03" fill="#E4002B" fill-rule="evenodd"/></g></svg>