<svg width="2338" height="1169" xmlns="http://www.w3.org/2000/svg" xmlns:xlink="http://www.w3.org/1999/xlink" xml:space="preserve" overflow="hidden"><defs><clipPath id="clip0"><rect x="1031" y="653" width="2338" height="1169"/></clipPath></defs><g clip-path="url(#clip0)" transform="translate(-1031 -653)"><rect x="1031" y="653" width="2338" height="1169" fill="#E31937"/><path d="M1031 653 2200 1237.5 1031 1822Z" fill="#FFFFFF" fill-rule="evenodd"/><path d="M1031 653 1810 1237.5 1031 1822Z" fill="#00205B" fill-rule="evenodd"/><path d="M1123 1273.94 1217.2 1218.68 1156.27 1127.96 1258.16 1167.25 1291 1063 1323.84 1167.25 1425.73 1127.96 1364.8 1218.68 1459 1273.94 1350.18 1282.8 1365.77 1391 1291 1311.34 1216.23 1391 1231.81 1282.8Z" fill="#FFFFFF" fill-rule="evenodd"/><path d="M2703 866.254 2748.7 839.466 2719.14 795.492 2768.57 814.537 2784.5 764 2800.43 814.537 2849.86 795.492 2820.3 839.466 2866 866.254 2813.21 870.551 2820.77 923.001 2784.5 884.386 2748.23 923.001 2755.79 870.551Z" fill="#FFFFFF" fill-rule="evenodd"/><path d="M2411 1183.25 2456.7 1156.47 2427.14 1112.49 2476.57 1131.54 2492.5 1081 2508.43 1131.54 2557.86 1112.49 2528.3 1156.47 2574 1183.25 2521.21 1187.55 2528.77 1240 2492.5 1201.39 2456.23 1240 2463.79 1187.55Z" fill="#FFFFFF" fill-rule="evenodd"/><path d="M2703 1646.25 2748.7 1619.47 2719.14 1575.49 2768.57 1594.54 2784.5 1544 2800.43 1594.54 2849.86 1575.49 2820.3 1619.47 2866 1646.25 2813.21 1650.55 2820.77 1703 2784.5 1664.39 2748.23 1703 2755.79 1650.55Z" fill="#FFFFFF" fill-rule="evenodd"/><path d="M2963 1105.61 3008.7 1078.99 2979.14 1035.29 3028.57 1054.22 3044.5 1004 3060.43 1054.22 3109.86 1035.29 3080.3 1078.99 3126 1105.61 3073.21 1109.88 3080.77 1162 3044.5 1123.63 3008.23 1162 3015.79 1109.88Z" fill="#FFFFFF" fill-rule="evenodd"/><path d="M2855 1270.61 2888.6 1267.98 2901.5 1237 2914.4 1267.98 2948 1270.61 2922.37 1292.39 2930.24 1325 2901.5 1307.48 2872.76 1325 2880.63 1292.39Z" fill="#FFFFFF" fill-rule="evenodd"/></g></svg>