<svg width="2341" height="1184" xmlns="http://www.w3.org/2000/svg" xmlns:xlink="http://www.w3.org/1999/xlink" xml:space="preserve" overflow="hidden"><defs><clipPath id="clip0"><rect x="1031" y="653" width="2341" height="1184"/></clipPath></defs><g clip-path="url(#clip0)" transform="translate(-1031 -653)"><rect x="1031" y="653" width="2338" height="1169" fill="#6BA4B8"/><rect x="1033" y="1140" width="2339" height="195" fill="#FFFFFF"/><rect x="2232" y="653" width="195" height="1184" fill="#FFFFFF"/><rect x="1435" y="1175" width="1932" height="130" fill="#00205B"/><path d="M1031 653 2200 1237.5 1031 1822Z" fill="#FFFFFF" fill-rule="evenodd"/><path d="M1031 653 1810 1237.5 1031 1822Z" fill="#E31937" fill-rule="evenodd"/><path d="M1123 1273.94 1217.2 1218.68 1156.27 1127.96 1258.16 1167.25 1291 1063 1323.84 1167.25 1425.73 1127.96 1364.8 1218.68 1459 1273.94 1350.18 1282.8 1365.77 1391 1291 1311.34 1216.23 1391 1231.81 1282.8Z" fill="#FFFFFF" fill-rule="evenodd"/><path d="M2583 1075.64 2596.38 1024.41 2544.43 1014.24 2592.82 992.76 2568.39 945.802 2615.35 970.234 2636.83 921.846 2647 973.797 2698.22 960.416 2663.94 1000.77 2706.33 1032.47 2653.42 1030.83 2655.06 1083.75 2623.35 1041.36Z" fill="#FFFFFF" fill-rule="evenodd"/><path d="M2600.42 1506.74 2613.8 1455.51 2561.85 1445.35 2610.23 1423.86 2585.8 1376.9 2632.76 1401.33 2654.25 1352.95 2664.41 1404.9 2715.64 1391.52 2681.36 1431.87 2723.75 1463.57 2670.83 1461.93 2672.47 1514.85 2640.77 1472.46Z" fill="#FFFFFF" fill-rule="evenodd"/><path d="M3134.77 1627.4 3148.15 1576.18 3096.2 1566.01 3144.59 1544.53 3120.16 1497.57 3167.11 1522 3188.6 1473.61 3198.77 1525.56 3249.99 1512.18 3215.71 1552.53 3258.1 1584.24 3205.19 1582.6 3206.82 1635.51 3175.12 1593.12Z" fill="#FFFFFF" fill-rule="evenodd"/><path d="M2936.38 1061.34 2949.76 1010.12 2897.81 999.951 2946.2 978.466 2921.77 931.508 2968.72 955.94 2990.21 907.552 3000.38 959.503 3051.6 946.122 3017.32 986.472 3059.71 1018.17 3006.8 1016.54 3008.43 1069.45 2976.73 1027.06Z" fill="#FFFFFF" fill-rule="evenodd"/><path d="M2976.5 1254.78 2998.35 1229.22 2985.57 1198.25 3016.54 1211.03 3042.1 1189.18 3039.4 1222.64 3067.97 1240.11 3035.33 1248.01 3027.43 1280.65 3009.96 1252.08Z" fill="#FFFFFF" fill-rule="evenodd"/><rect x="2267" y="653" width="130" height="1169" fill="#00205B"/></g></svg>