<svg width="2338" height="1169" xmlns="http://www.w3.org/2000/svg" xmlns:xlink="http://www.w3.org/1999/xlink" xml:space="preserve" overflow="hidden"><defs><clipPath id="clip0"><rect x="1031" y="653" width="2338" height="1169"/></clipPath></defs><g clip-path="url(#clip0)" transform="translate(-1031 -653)"><rect x="1810" y="653" width="1559" height="1169" fill="#57ACF3"/><rect x="0" y="0" width="779" height="1169" fill="#FFFFFF" transform="matrix(-1 1.22465e-16 1.22465e-16 1 1810 653)"/><path d="M1506 1271.23 1539.6 1268.63 1552.5 1238 1565.4 1268.63 1599 1271.23 1573.37 1292.76 1581.24 1325 1552.5 1307.68 1523.76 1325 1531.63 1292.76Z" fill="#003087" fill-rule="evenodd"/><path d="M1441.25 1551 1453.49 1598.77 1493.77 1570.34 1473.82 1615.79 1522 1620.82 1479.09 1641.12 1512.97 1677.67 1466.1 1665.49 1468.92 1715 1441.06 1674.39 1413.4 1714.81 1416.22 1665.3 1369.92 1677.48 1403.8 1641.9 1359 1621.01 1407.94 1616.37 1388.55 1571.5 1427.7 1598.96 1441.25 1551Z" fill="#003087" fill-rule="evenodd"/><path d="M1062 1163.5 1111.47 1149.4 1086.46 1104.46 1131.4 1129.47 1145.5 1080 1159.6 1129.47 1204.54 1104.46 1179.53 1149.4 1229 1163.5 1179.53 1177.6 1204.54 1222.54 1159.6 1197.53 1145.5 1247 1131.4 1197.53 1086.46 1222.54 1111.47 1177.6Z" fill="#003087" fill-rule="evenodd"/><path d="M1625 1045.5 1676.87 1054.75 1695 1004 1713.13 1054.75 1765 1045.5 1731.27 1087 1765 1128.5 1713.13 1119.25 1695 1170 1676.87 1119.25 1625 1128.5 1658.73 1087Z" fill="#003087" fill-rule="evenodd"/><path d="M1359 867.254 1404.7 840.466 1375.14 796.492 1424.57 815.537 1440.5 765 1456.43 815.537 1505.86 796.492 1476.3 840.466 1522 867.254 1469.21 871.551 1476.77 924.001 1440.5 885.386 1404.23 924.001 1411.79 871.551Z" fill="#003087" fill-rule="evenodd"/><path d="M2182 1237.5C2182 1011.89 2364.67 829 2590 829 2815.33 829 2998 1011.89 2998 1237.5 2998 1463.11 2815.33 1646 2590 1646 2364.67 1646 2182 1463.11 2182 1237.5Z" fill="#FFFFFF" fill-rule="evenodd"/><path d="M15.2541 0C23.6788 0 30.5082 6.82954 30.5082 15.2542L30.3728 16.5982 30.1031 31.8403C28.6845 71.3396 53.9626 112.721 46.6105 112.721 39.2584 112.721 1.71212 71.3396 0.293477 31.8403L0 15.2542 3.21301e-05 15.2542C3.21301e-05 6.82954 6.82952 0 15.2541 0Z" stroke="#FFFFFF" stroke-width="6.875" stroke-miterlimit="8" fill="#DE0000" fill-rule="evenodd" transform="matrix(-0.34202 0.939693 0.939693 0.34202 2637.01 1025.43)"/><path d="M15.2543 0C23.6789 0 30.5085 6.82954 30.5085 15.2542L30.373 16.5982 30.1033 31.8403C28.6847 71.3396 53.963 112.721 46.6108 112.721 39.2587 112.721 1.71213 71.3396 0.293479 31.8403L0 15.2542 3.21304e-05 15.2542C3.21304e-05 6.82954 6.82957 0 15.2543 0Z" stroke="#FFFFFF" stroke-width="6.875" stroke-miterlimit="8" fill="#DE0000" fill-rule="evenodd" transform="matrix(-0.866025 0.5 0.5 0.866025 2623.28 1015.66)"/><path d="M15.2541 0C23.6788 0 30.5082 6.82954 30.5082 15.2542L30.3728 16.5982 30.1031 31.8403C28.6845 71.3396 53.9626 112.721 46.6105 112.721 39.2584 112.721 1.71212 71.3396 0.293477 31.8403L0 15.2542 3.21301e-05 15.2542C3.21301e-05 6.82954 6.82952 0 15.2541 0Z" stroke="#FFFFFF" stroke-width="6.875" stroke-miterlimit="8" fill="#DE0000" fill-rule="evenodd" transform="matrix(-0.707107 0.707107 0.707107 0.707107 2653.45 1043.21)"/><path d="M15.2543 0C23.6789 0 30.5085 6.82954 30.5085 15.2542L30.373 16.5982 30.1033 31.8403C28.6847 71.3396 53.963 112.721 46.6108 112.721 39.2587 112.721 1.71213 71.3396 0.293479 31.8403L0 15.2542 3.21304e-05 15.2542C3.21304e-05 6.82954 6.82957 0 15.2543 0Z" stroke="#FFFFFF" stroke-width="6.875" stroke-miterlimit="8" fill="#DE0000" fill-rule="evenodd" transform="matrix(-0.866025 0.5 0.5 0.866025 2638.82 1048.12)"/><path d="M2555.49 1039.76C2558.37 1047.68 2554.29 1056.43 2546.37 1059.31L2545.06 1059.65 2530.65 1064.6C2493.05 1076.78 2462.81 1114.69 2460.29 1107.78 2457.78 1100.87 2483.82 1051.44 2520.45 1036.59L2535.94 1030.64 2535.94 1030.64C2543.86 1027.76 2552.61 1031.84 2555.49 1039.76Z" stroke="#FFFFFF" stroke-width="6.875" stroke-miterlimit="8" fill="#DE0000" fill-rule="evenodd"/><path d="M2577.21 1023.29C2584.51 1027.5 2587.01 1036.83 2582.8 1044.12L2582.01 1045.22 2574.15 1058.28C2553.17 1091.78 2554.38 1140.26 2548.01 1136.58 2541.64 1132.91 2529.82 1078.3 2548.34 1043.38L2556.38 1028.87 2556.38 1028.87C2560.59 1021.57 2569.92 1019.07 2577.21 1023.29Z" stroke="#FFFFFF" stroke-width="6.875" stroke-miterlimit="8" fill="#DE0000" fill-rule="evenodd"/><path d="M2581.51 1057.27C2581.79 1038.1 2588 1021.5 2596.01 1021.5 2604.01 1021.5 2610.5 1037.52 2610.5 1057.27 2610.5 1077.03 2602.35 1136.5 2594.34 1136.5 2586.34 1136.5 2581.23 1076.44 2581.51 1057.27Z" stroke="#FFFFFF" stroke-width="6.875" stroke-miterlimit="8" fill="#DE0000" fill-rule="evenodd"/><path d="M2544.62 1053.99C2550.58 1059.95 2550.58 1069.61 2544.62 1075.56L2543.58 1076.42 2532.61 1087.01C2503.67 1113.93 2492.29 1161.07 2487.09 1155.87 2481.89 1150.67 2484.6 1094.86 2511.53 1065.93L2523.05 1053.99 2523.05 1053.99C2529.01 1048.03 2538.67 1048.03 2544.62 1053.99Z" stroke="#FFFFFF" stroke-width="6.875" stroke-miterlimit="8" fill="#DE0000" fill-rule="evenodd"/><path d="M2561.67 1055.75C2568.97 1059.96 2571.47 1069.29 2567.26 1076.59L2566.47 1077.69 2558.61 1090.75C2537.63 1124.25 2538.83 1172.73 2532.47 1169.05 2526.1 1165.37 2514.27 1110.76 2532.8 1075.85L2540.83 1061.33 2540.83 1061.33C2545.05 1054.04 2554.38 1051.54 2561.67 1055.75Z" stroke="#FFFFFF" stroke-width="6.875" stroke-miterlimit="8" fill="#DE0000" fill-rule="evenodd"/><path d="M2585.25 1055.2C2593.39 1057.38 2598.22 1065.74 2596.04 1073.88L2595.56 1075.14 2591.35 1089.79C2579.76 1127.58 2593.47 1174.09 2586.36 1172.19 2579.26 1170.29 2553.7 1120.6 2562.56 1082.08L2566.57 1065.98 2566.57 1065.98C2568.75 1057.84 2577.11 1053.01 2585.25 1055.2Z" stroke="#FFFFFF" stroke-width="6.875" stroke-miterlimit="8" fill="#DE0000" fill-rule="evenodd"/><path d="M15.2543 0C23.6789 0 30.5085 6.82954 30.5085 15.2542L30.373 16.5982 30.1033 31.8403C28.6847 71.3396 53.963 112.721 46.6108 112.721 39.2587 112.721 1.71213 71.3396 0.293479 31.8403L0 15.2542 3.21304e-05 15.2542C3.21304e-05 6.82954 6.82957 0 15.2543 0Z" stroke="#FFFFFF" stroke-width="6.875" stroke-miterlimit="8" fill="#DE0000" fill-rule="evenodd" transform="matrix(-0.965926 0.258819 0.258819 0.965926 2618.54 1051.4)"/><path d="M15.2541 0C23.6788 0 30.5082 6.82954 30.5082 15.2542L30.3728 16.5982 30.1031 31.8403C28.6845 71.3396 53.9626 112.721 46.6105 112.721 39.2584 112.721 1.71212 71.3396 0.293477 31.8403L0 15.2542 3.21301e-05 15.2542C3.21301e-05 6.82954 6.82952 0 15.2541 0Z" stroke="#FFFFFF" stroke-width="6.875" stroke-miterlimit="8" fill="#DE0000" fill-rule="evenodd" transform="matrix(-0.707107 0.707107 0.707107 0.707107 2716.74 1072.25)"/><path d="M15.2543 0C23.6789 0 30.5085 6.82954 30.5085 15.2542L30.373 16.5982 30.1033 31.8403C28.6847 71.3396 53.963 112.721 46.6108 112.721 39.2587 112.721 1.71213 71.3396 0.293479 31.8403L0 15.2542 3.21304e-05 15.2542C3.21304e-05 6.82954 6.82957 0 15.2543 0Z" stroke="#FFFFFF" stroke-width="6.875" stroke-miterlimit="8" fill="#DE0000" fill-rule="evenodd" transform="matrix(-0.866025 0.5 0.5 0.866025 2703.17 1079.63)"/><path d="M15.2543 0C23.6789 0 30.5085 6.82954 30.5085 15.2542L30.373 16.5982 30.1033 31.8403C28.6847 71.3396 53.963 112.721 46.6108 112.721 39.2587 112.721 1.71213 71.3396 0.293479 31.8403L0 15.2542 3.21304e-05 15.2542C3.21304e-05 6.82954 6.82957 0 15.2543 0Z" stroke="#FFFFFF" stroke-width="6.875" stroke-miterlimit="8" fill="#DE0000" fill-rule="evenodd" transform="matrix(-0.965926 0.258819 0.258819 0.965926 2679.34 1085.31)"/><path d="M15.2543 0C23.6789 0 30.5085 6.82954 30.5085 15.2542L30.373 16.5982 30.1033 31.8403C28.6847 71.3396 53.963 112.721 46.6108 112.721 39.2587 112.721 1.71213 71.3396 0.293479 31.8403L0 15.2542 3.21304e-05 15.2542C3.21304e-05 6.82954 6.82957 0 15.2543 0Z" stroke="#FFFFFF" stroke-width="6.875" stroke-miterlimit="8" fill="#DE0000" fill-rule="evenodd" transform="matrix(-0.965926 0.258819 0.258819 0.965926 2646.07 1084.77)"/><path d="M2481.33 1083.03C2487.28 1088.99 2487.28 1098.65 2481.33 1104.61L2480.28 1105.46 2469.31 1116.05C2440.38 1142.98 2428.99 1190.11 2423.79 1184.91 2418.6 1179.71 2421.31 1123.9 2448.23 1094.97L2459.75 1083.03 2459.75 1083.03C2465.71 1077.08 2475.37 1077.08 2481.33 1083.03Z" stroke="#FFFFFF" stroke-width="6.875" stroke-miterlimit="8" fill="#DE0000" fill-rule="evenodd"/><path d="M2498.95 1083.83C2506.24 1088.04 2508.74 1097.37 2504.53 1104.67L2503.74 1105.76 2495.89 1118.83C2474.91 1152.33 2476.11 1200.8 2469.74 1197.13 2463.38 1193.45 2451.55 1138.84 2470.07 1103.92L2478.11 1089.41 2478.11 1089.41C2482.32 1082.12 2491.65 1079.62 2498.95 1083.83Z" stroke="#FFFFFF" stroke-width="6.875" stroke-miterlimit="8" fill="#DE0000" fill-rule="evenodd"/><path d="M2522.53 1090.04C2530.67 1092.22 2535.5 1100.58 2533.32 1108.72L2532.84 1109.99 2528.63 1124.64C2517.04 1162.42 2530.75 1208.94 2523.65 1207.04 2516.54 1205.13 2490.99 1155.44 2499.84 1116.92L2503.85 1100.83 2503.85 1100.83C2506.03 1092.69 2514.39 1087.86 2522.53 1090.04Z" stroke="#FFFFFF" stroke-width="6.875" stroke-miterlimit="8" fill="#DE0000" fill-rule="evenodd"/><path d="M2555.95 1088.72C2564.09 1090.9 2568.92 1099.26 2566.74 1107.4L2566.26 1108.66 2562.05 1123.31C2550.46 1161.1 2564.17 1207.61 2557.06 1205.71 2549.96 1203.81 2524.41 1154.12 2533.26 1115.6L2537.27 1099.5 2537.27 1099.5C2539.45 1091.36 2547.81 1086.54 2555.95 1088.72Z" stroke="#FFFFFF" stroke-width="6.875" stroke-miterlimit="8" fill="#DE0000" fill-rule="evenodd"/><path d="M2584.07 1092.2C2592.2 1094.39 2597.03 1102.75 2594.85 1110.89L2594.37 1112.15 2590.17 1126.8C2578.57 1164.59 2592.28 1211.1 2585.18 1209.2 2578.08 1207.3 2552.52 1157.61 2561.37 1119.09L2565.38 1102.99 2565.38 1102.99C2567.56 1094.85 2575.93 1090.02 2584.07 1092.2Z" stroke="#FFFFFF" stroke-width="6.875" stroke-miterlimit="8" fill="#DE0000" fill-rule="evenodd"/><path d="M15.2543 0C23.6789 0 30.5085 6.82954 30.5085 15.2542L30.373 16.5982 30.1033 31.8403C28.6847 71.3396 53.963 112.721 46.6108 112.721 39.2587 112.721 1.71213 71.3396 0.293479 31.8403L0 15.2542 3.21304e-05 15.2542C3.21304e-05 6.82954 6.82957 0 15.2543 0Z" stroke="#FFFFFF" stroke-width="6.875" stroke-miterlimit="8" fill="#DE0000" fill-rule="evenodd" transform="matrix(-0.965926 0.258819 0.258819 0.965926 2617.95 1088.26)"/><path d="M2581.51 1131.27C2581.79 1112.1 2588 1095.5 2596.01 1095.5 2604.01 1095.5 2610.5 1111.52 2610.5 1131.27 2610.5 1151.03 2602.35 1210.5 2594.34 1210.5 2586.34 1210.5 2581.23 1150.44 2581.51 1131.27Z" stroke="#FFFFFF" stroke-width="6.875" stroke-miterlimit="8" fill="#DE0000" fill-rule="evenodd"/><path d="M15.2687 0C23.7014 0 30.5374 6.78585 30.5374 15.1566L30.4018 16.492 30.1319 31.6366C28.7119 70.8833 54.0142 112 46.655 112 39.2959 112 1.71376 70.8833 0.293757 31.6366L0 15.1566 3.21608e-05 15.1566C3.21608e-05 6.78585 6.83605 0 15.2687 0Z" stroke="#FFFFFF" stroke-width="6.875" stroke-miterlimit="8" fill="#DE0000" fill-rule="evenodd" transform="matrix(-1 0 0 1 2781.5 1128.5)"/><path d="M14.9506 0C23.2076 0 29.9012 6.84644 29.9012 15.292L29.7684 16.6393 29.5041 31.9191C28.1137 71.5162 52.8888 113 45.683 113 38.4772 113 1.67805 71.5162 0.287637 31.9191L0 15.292 3.14908e-05 15.292C3.14908e-05 6.84644 6.69362 0 14.9506 0Z" stroke="#FFFFFF" stroke-width="6.875" stroke-miterlimit="8" fill="#DE0000" fill-rule="evenodd" transform="matrix(-1 0 0 1 2753.5 1127.5)"/><path d="M15.2543 0C23.6789 0 30.5085 6.82954 30.5085 15.2542L30.373 16.5982 30.1033 31.8403C28.6847 71.3396 53.963 112.721 46.6108 112.721 39.2587 112.721 1.71213 71.3396 0.293479 31.8403L0 15.2542 3.21304e-05 15.2542C3.21304e-05 6.82954 6.82957 0 15.2543 0Z" stroke="#FFFFFF" stroke-width="6.875" stroke-miterlimit="8" fill="#DE0000" fill-rule="evenodd" transform="matrix(-0.993784 0.111327 0.111327 0.993784 2720.9 1123)"/><path d="M15.2543 0C23.6789 0 30.5085 6.82954 30.5085 15.2542L30.373 16.5982 30.1033 31.8403C28.6847 71.3396 53.963 112.721 46.6108 112.721 39.2587 112.721 1.71213 71.3396 0.293479 31.8403L0 15.2542 3.21304e-05 15.2542C3.21304e-05 6.82954 6.82957 0 15.2543 0Z" stroke="#FFFFFF" stroke-width="6.875" stroke-miterlimit="8" fill="#DE0000" fill-rule="evenodd" transform="matrix(-0.989355 0.145521 0.145521 0.989355 2657.95 1126.3)"/><path d="M15.2543 0C23.6789 0 30.5085 6.82954 30.5085 15.2542L30.373 16.5982 30.1033 31.8403C28.6847 71.3396 53.963 112.721 46.6108 112.721 39.2587 112.721 1.71213 71.3396 0.293479 31.8403L0 15.2542 3.21304e-05 15.2542C3.21304e-05 6.82954 6.82957 0 15.2543 0Z" stroke="#FFFFFF" stroke-width="6.875" stroke-miterlimit="8" fill="#DE0000" fill-rule="evenodd" transform="matrix(-0.999012 0.0444508 0.0444508 0.999012 2693.11 1125.67)"/><path d="M2421.77 1128.5C2430.2 1128.5 2437.04 1135.29 2437.04 1143.66L2436.9 1144.99 2436.63 1160.14C2435.21 1199.38 2460.51 1240.5 2453.15 1240.5 2445.8 1240.5 2408.21 1199.38 2406.79 1160.14L2406.5 1143.66 2406.5 1143.66C2406.5 1135.29 2413.34 1128.5 2421.77 1128.5Z" stroke="#FFFFFF" stroke-width="6.875" stroke-miterlimit="8" fill="#DE0000" fill-rule="evenodd"/><path d="M2449.77 1127.5C2458.2 1127.5 2465.04 1134.35 2465.04 1142.79L2464.9 1144.14 2464.63 1159.42C2463.21 1199.02 2488.51 1240.5 2481.16 1240.5 2473.8 1240.5 2436.21 1199.02 2434.79 1159.42L2434.5 1142.79 2434.5 1142.79C2434.5 1134.35 2441.34 1127.5 2449.77 1127.5Z" stroke="#FFFFFF" stroke-width="6.875" stroke-miterlimit="8" fill="#DE0000" fill-rule="evenodd"/><path d="M2481.54 1124.7C2489.91 1125.63 2495.94 1133.18 2495 1141.55L2494.72 1142.87 2492.75 1157.99C2486.95 1197.09 2507.46 1241.03 2500.15 1240.21 2492.85 1239.39 2460.14 1194.08 2463.13 1154.67L2464.68 1138.16 2464.68 1138.16C2465.62 1129.79 2473.17 1123.76 2481.54 1124.7Z" stroke="#FFFFFF" stroke-width="6.875" stroke-miterlimit="8" fill="#DE0000" fill-rule="evenodd"/><path d="M2544.42 1128.52C2552.76 1129.75 2558.52 1137.5 2557.29 1145.84L2556.96 1147.15 2554.48 1162.19C2547.33 1201.06 2566.31 1245.68 2559.04 1244.61 2551.77 1243.54 2520.64 1197.13 2524.99 1157.85L2527.11 1141.4 2527.11 1141.4C2528.33 1133.06 2536.09 1127.3 2544.42 1128.52Z" stroke="#FFFFFF" stroke-width="6.875" stroke-miterlimit="8" fill="#DE0000" fill-rule="evenodd"/><path d="M2577.67 1132.5C2585.81 1134.68 2590.64 1143.05 2588.46 1151.19L2587.98 1152.45 2583.78 1167.1C2572.18 1204.89 2585.89 1251.4 2578.79 1249.5 2571.69 1247.6 2546.13 1197.91 2554.98 1159.39L2558.99 1143.29 2558.99 1143.29C2561.17 1135.15 2569.54 1130.32 2577.67 1132.5Z" stroke="#FFFFFF" stroke-width="6.875" stroke-miterlimit="8" fill="#DE0000" fill-rule="evenodd"/><path d="M2509.41 1126.35C2517.83 1126.72 2524.35 1133.85 2523.97 1142.27L2523.78 1143.6 2522.83 1158.82C2519.66 1198.22 2543.07 1240.68 2535.73 1240.35 2528.38 1240.03 2492.71 1197.02 2493.05 1157.49L2493.49 1140.91 2493.49 1140.91C2493.87 1132.5 2501 1125.98 2509.41 1126.35Z" stroke="#FFFFFF" stroke-width="6.875" stroke-miterlimit="8" fill="#DE0000" fill-rule="evenodd"/><path d="M15.2543 0C23.6789 0 30.5085 6.82954 30.5085 15.2542L30.373 16.5982 30.1033 31.8403C28.6847 71.3396 53.963 112.721 46.6108 112.721 39.2587 112.721 1.71213 71.3396 0.293479 31.8403L0 15.2542 3.21304e-05 15.2542C3.21304e-05 6.82954 6.82957 0 15.2543 0Z" stroke="#FFFFFF" stroke-width="6.875" stroke-miterlimit="8" fill="#DE0000" fill-rule="evenodd" transform="matrix(-0.965926 0.258819 0.258819 0.965926 2624.34 1128.56)"/><path d="M18.3048 0C28.4143 0 36.6096 8.19543 36.6096 18.305L36.447 19.9178 36.1234 38.2082C34.4211 85.6073 64.7546 135.265 55.9321 135.265 47.1096 135.265 2.05452 85.6073 0.352169 38.2082L0 18.305 3.85558e-05 18.305C3.85558e-05 8.19543 8.19535 0 18.3048 0Z" stroke="#FFFFFF" stroke-width="6.875" stroke-miterlimit="8" fill="#DE0000" fill-rule="evenodd" transform="matrix(-0.866025 -0.5 -0.5 0.866025 2828.63 1184.64)"/><path d="M18.3048 0C28.4143 0 36.6096 8.19543 36.6096 18.305L36.447 19.9178 36.1234 38.2082C34.4211 85.6073 64.7546 135.265 55.9321 135.265 47.1096 135.265 2.05452 85.6073 0.352169 38.2082L0 18.305 3.85558e-05 18.305C3.85558e-05 8.19543 8.19535 0 18.3048 0Z" stroke="#FFFFFF" stroke-width="6.875" stroke-miterlimit="8" fill="#DE0000" fill-rule="evenodd" transform="matrix(-0.965926 -0.258819 -0.258819 0.965926 2788.18 1168.99)"/><path d="M18.3048 0C28.4143 0 36.6096 8.19543 36.6096 18.305L36.447 19.9178 36.1234 38.2082C34.4211 85.6073 64.7546 135.265 55.9321 135.265 47.1096 135.265 2.05452 85.6073 0.352169 38.2082L0 18.305 3.85558e-05 18.305C3.85558e-05 8.19543 8.19535 0 18.3048 0Z" stroke="#FFFFFF" stroke-width="6.875" stroke-miterlimit="8" fill="#DE0000" fill-rule="evenodd" transform="matrix(-0.965926 -0.258819 -0.258819 0.965926 2760.07 1168.93)"/><path d="M18.3048 0C28.4143 0 36.6096 8.19543 36.6096 18.305L36.447 19.9178 36.1234 38.2082C34.4211 85.6073 64.7546 135.265 55.9321 135.265 47.1096 135.265 2.05452 85.6073 0.352169 38.2082L0 18.305 3.85558e-05 18.305C3.85558e-05 8.19543 8.19535 0 18.3048 0Z" stroke="#FFFFFF" stroke-width="6.875" stroke-miterlimit="8" fill="#DE0000" fill-rule="evenodd" transform="matrix(-0.965926 -0.258819 -0.258819 0.965926 2727.83 1169.76)"/><path d="M18.3048 0C28.4143 0 36.6096 8.19543 36.6096 18.305L36.447 19.9178 36.1234 38.2082C34.4211 85.6073 64.7546 135.265 55.9321 135.265 47.1096 135.265 2.05452 85.6073 0.352169 38.2082L0 18.305 3.85558e-05 18.305C3.85558e-05 8.19543 8.19535 0 18.3048 0Z" stroke="#FFFFFF" stroke-width="6.875" stroke-miterlimit="8" fill="#DE0000" fill-rule="evenodd" transform="matrix(-0.965926 -0.258819 -0.258819 0.965926 2696.27 1173.3)"/><path d="M2374.51 1175.48C2383.26 1170.43 2394.46 1173.43 2399.51 1182.18L2400.18 1183.66 2409.04 1199.66C2431.27 1241.56 2482.37 1269.4 2474.73 1273.81 2467.09 1278.22 2403.24 1257.75 2378.06 1217.55L2367.81 1200.49 2367.81 1200.49C2362.75 1191.73 2365.75 1180.54 2374.51 1175.48Z" stroke="#FFFFFF" stroke-width="6.875" stroke-miterlimit="8" fill="#DE0000" fill-rule="evenodd"/><path d="M2416.79 1164.25C2426.55 1161.63 2436.59 1167.43 2439.2 1177.19L2439.46 1178.79 2443.89 1196.54C2454.51 1242.77 2496.66 1282.88 2488.14 1285.17 2479.62 1287.45 2423.25 1251.15 2409.33 1205.8L2403.84 1186.67 2403.84 1186.67C2401.23 1176.9 2407.02 1166.87 2416.79 1164.25Z" stroke="#FFFFFF" stroke-width="6.875" stroke-miterlimit="8" fill="#DE0000" fill-rule="evenodd"/><path d="M2444.89 1164.2C2454.65 1161.58 2464.69 1167.37 2467.31 1177.14L2467.57 1178.74 2471.99 1196.49C2482.61 1242.71 2524.76 1282.83 2516.24 1285.11 2507.72 1287.4 2451.35 1251.09 2437.44 1205.75L2431.94 1186.61 2431.94 1186.61C2429.33 1176.85 2435.12 1166.81 2444.89 1164.2Z" stroke="#FFFFFF" stroke-width="6.875" stroke-miterlimit="8" fill="#DE0000" fill-rule="evenodd"/><path d="M2477.13 1165.02C2486.9 1162.41 2496.93 1168.2 2499.55 1177.97L2499.81 1179.57 2504.23 1197.32C2514.86 1243.54 2557.01 1283.66 2548.49 1285.94 2539.97 1288.22 2483.59 1251.92 2469.68 1206.57L2464.19 1187.44 2464.19 1187.44C2461.57 1177.68 2467.37 1167.64 2477.13 1165.02Z" stroke="#FFFFFF" stroke-width="6.875" stroke-miterlimit="8" fill="#DE0000" fill-rule="evenodd"/><path d="M2508.7 1168.56C2518.46 1165.94 2528.5 1171.74 2531.11 1181.5L2531.37 1183.1 2535.8 1200.86C2546.42 1247.08 2588.57 1287.19 2580.05 1289.48 2571.53 1291.76 2515.16 1255.46 2501.24 1210.11L2495.75 1190.98 2495.75 1190.98C2493.14 1181.21 2498.93 1171.18 2508.7 1168.56Z" stroke="#FFFFFF" stroke-width="6.875" stroke-miterlimit="8" fill="#DE0000" fill-rule="evenodd"/><path d="M2542.04 1207.44C2536.39 1185.06 2538.37 1163.83 2547.59 1161.36 2556.81 1158.89 2569.27 1175.52 2575.43 1198.49 2581.58 1221.47 2590.73 1293.16 2581.51 1295.63 2572.29 1298.1 2547.69 1229.82 2542.04 1207.44Z" stroke="#FFFFFF" stroke-width="6.875" stroke-miterlimit="8" fill="#DE0000" fill-rule="evenodd"/><path d="M0.0127564 43.0703C0.343037 19.9922 7.75008 0 17.2944 0 26.8387 0 34.576 19.2833 34.576 43.0703 34.576 66.8573 24.8576 138.469 15.3133 138.469 5.76896 138.469-0.317524 66.1484 0.0127564 43.0703Z" stroke="#FFFFFF" stroke-width="6.875" stroke-miterlimit="8" fill="#DE0000" fill-rule="evenodd" transform="matrix(-0.965926 -0.258819 -0.258819 0.965926 2656.4 1165.84)"/><path d="M2578.51 1198.74C2578.85 1175.57 2586.35 1155.5 2596.01 1155.5 2605.67 1155.5 2613.5 1174.86 2613.5 1198.74 2613.5 1222.61 2603.66 1294.5 2594 1294.5 2584.34 1294.5 2578.18 1221.9 2578.51 1198.74Z" stroke="#FFFFFF" stroke-width="6.875" stroke-miterlimit="8" fill="#DE0000" fill-rule="evenodd"/><path d="M2318.42 1192C2328.56 1181.85 2345.01 1181.85 2355.16 1192L2356.61 1193.78 2374.65 1212.46C2420.51 1261.74 2500.79 1281.13 2491.93 1289.99 2483.08 1298.84 2388.02 1294.22 2338.75 1248.36L2318.42 1228.74 2318.42 1228.74C2308.27 1218.6 2308.27 1202.15 2318.42 1192Z" stroke="#FFFFFF" stroke-width="6.875" stroke-miterlimit="8" fill="#DE0000" fill-rule="evenodd"/><path d="M25.9805 0C40.3291 0 51.9609 11.6319 51.9609 25.9806L51.7302 28.2696 51.2709 54.2295C48.8547 121.504 91.9078 191.984 79.3859 191.984 66.8639 191.984 2.91604 121.504 0.499843 54.2295L0 25.9806 5.47233e-05 25.9806C5.47233e-05 11.6319 11.6319 0 25.9805 0Z" stroke="#FFFFFF" stroke-width="6.875" stroke-miterlimit="8" fill="#DE0000" fill-rule="evenodd" transform="matrix(-0.707107 -0.707107 -0.707107 0.707107 2884.93 1213.7)"/><path d="M358.758 44.2935C339.226 31.3821 286.04 6.36617 244.573 1.52449 203.106-3.31719 150.421 3.94522 109.956 15.2427 69.49 26.5402-13.1436 63.6606 1.78044 69.3094 16.7045 74.9581 139.503 47.5212 199.5 49.1351 259.497 50.749 334.92 79.5307 361.763 78.9927 388.606 78.4548 378.29 57.2048 358.758 44.2935Z" stroke="#FFFFFF" stroke-width="6.875" stroke-miterlimit="8" fill="#DE0000" fill-rule="evenodd" transform="matrix(-1 1.22465e-16 1.22465e-16 1 2582.5 1261.5)"/><path d="M2957.26 1307.79C2937.73 1294.88 2884.54 1269.87 2843.07 1265.02 2801.61 1260.18 2748.92 1267.45 2708.46 1278.74 2667.99 1290.04 2585.36 1327.16 2600.28 1332.81 2615.2 1338.46 2738 1311.02 2798 1312.64 2858 1314.25 2933.42 1343.03 2960.26 1342.49 2987.11 1341.95 2976.79 1320.7 2957.26 1307.79Z" stroke="#FFFFFF" stroke-width="6.875" stroke-miterlimit="8" fill="#DE0000" fill-rule="evenodd"/><path d="M2730.8 1268.71C2697.87 1255.11 2631.11 1301.28 2617.04 1316.35 2602.97 1331.42 2613.47 1345.51 2646.4 1359.11 2679.33 1372.7 2782.47 1419.84 2814.61 1397.93 2828.68 1382.87 2763.73 1282.31 2730.8 1268.71Z" stroke="#FFFFFF" stroke-width="6.875" stroke-miterlimit="8" fill="#DE0000" fill-rule="evenodd"/><path d="M135.586 27.3119C116.137-2.53683 34.9649-2.2666 14.8408 2.19044-5.28334 6.64748-4.60821 24.2056 14.8408 54.0544 34.2898 83.9031 92.6365 181.148 131.534 181.283 151.658 176.826 155.035 57.1607 135.586 27.3119Z" stroke="#FFFFFF" stroke-width="6.875" stroke-miterlimit="8" fill="#DE0000" fill-rule="evenodd" transform="matrix(-0.868173 -0.496261 -0.496261 0.868173 2580.04 1322.42)"/><path d="M2596.08 1276.15C2557.05 1275.74 2495.46 1246.5 2475.34 1250.96 2455.22 1255.43 2455.89 1273.03 2475.34 1302.96 2494.79 1332.88 2553.13 1430.36 2592.02 1430.5 2630.92 1430.64 2689.13 1333.29 2708.71 1303.77 2728.29 1274.25 2728.29 1258 2709.52 1253.4 2690.75 1248.8 2635.11 1276.55 2596.08 1276.15Z" stroke="#FFFFFF" stroke-width="6.875" stroke-miterlimit="8" fill="#DE0000" fill-rule="evenodd"/></g></svg>