<svg width="2338" height="1169" xmlns="http://www.w3.org/2000/svg" xmlns:xlink="http://www.w3.org/1999/xlink" xml:space="preserve" overflow="hidden"><defs><clipPath id="clip0"><rect x="1031" y="653" width="2338" height="1169"/></clipPath></defs><g clip-path="url(#clip0)" transform="translate(-1031 -653)"><rect x="1810" y="653" width="1559" height="1169" fill="#73182C"/><rect x="0" y="0" width="779" height="1169" fill="#FFD526" transform="matrix(-1 1.22465e-16 1.22465e-16 1 1810 653)"/><path d="M1506 1271.23 1539.6 1268.63 1552.5 1238 1565.4 1268.63 1599 1271.23 1573.37 1292.76 1581.24 1325 1552.5 1307.68 1523.76 1325 1531.63 1292.76Z" fill="#73182C" fill-rule="evenodd"/><path d="M1357 1633.5 1406.47 1619.4 1381.46 1574.46 1426.4 1599.47 1440.5 1550 1454.6 1599.47 1499.54 1574.46 1474.53 1619.4 1524 1633.5 1474.53 1647.6 1499.54 1692.54 1454.6 1667.53 1440.5 1717 1426.4 1667.53 1381.46 1692.54 1406.47 1647.6Z" fill="#73182C" fill-rule="evenodd"/><path d="M1062 1163.5 1111.47 1149.4 1086.46 1104.46 1131.4 1129.47 1145.5 1080 1159.6 1129.47 1204.54 1104.46 1179.53 1149.4 1229 1163.5 1179.53 1177.6 1204.54 1222.54 1159.6 1197.53 1145.5 1247 1131.4 1197.53 1086.46 1222.54 1111.47 1177.6Z" fill="#73182C" fill-rule="evenodd"/><path d="M1614 1106.25 1659.7 1079.47 1630.14 1035.49 1679.57 1054.54 1695.5 1004 1711.43 1054.54 1760.86 1035.49 1731.3 1079.47 1777 1106.25 1724.21 1110.55 1731.77 1163 1695.5 1124.39 1659.23 1163 1666.79 1110.55Z" fill="#73182C" fill-rule="evenodd"/><path d="M1359 867.254 1404.7 840.466 1375.14 796.492 1424.57 815.537 1440.5 765 1456.43 815.537 1505.86 796.492 1476.3 840.466 1522 867.254 1469.21 871.551 1476.77 924.001 1440.5 885.386 1404.23 924.001 1411.79 871.551Z" fill="#73182C" fill-rule="evenodd"/><path d="M2182 1237.5C2182 1011.89 2364.67 829 2590 829 2815.33 829 2998 1011.89 2998 1237.5 2998 1463.11 2815.33 1646 2590 1646 2364.67 1646 2182 1463.11 2182 1237.5Z" fill="#FFD526" fill-rule="evenodd"/><path d="M126.784 26.1585C108.118-7.43014 59.7529-9.2304 40.325 23.9982 20.8972 57.2267-18.6743 202.332 10.2165 225.53 39.1073 248.728 65.651 248.791 80.3198 279.039 95.6325 252.061 118.046 258.528 152.321 225.53 186.597 192.532 145.45 59.7471 126.784 26.1585Z" stroke="#ED51D7" stroke-width="6.875" stroke-miterlimit="8" fill="#F494E6" fill-rule="evenodd" transform="matrix(-0.720192 -0.693775 -0.693775 0.720192 2627.58 1322.51)"/><path d="M2661.4 1247.31C2624.65 1236.07 2588.57 1268.33 2597.64 1305.74 2606.7 1343.15 2678.87 1475.1 2715.77 1471.77 2752.67 1468.43 2771.83 1450.06 2803.38 1461.67 2795.69 1431.61 2816.32 1420.72 2818.11 1373.18 2819.9 1325.63 2698.15 1258.55 2661.4 1247.31Z" stroke="#ED51D7" stroke-width="6.875" stroke-miterlimit="8" fill="#F494E6" fill-rule="evenodd"/><path d="M2530.5 1114.02C2530.28 1065.03 2563.25 927.5 2588.11 927.5 2612.97 927.5 2650.61 1065.04 2649.48 1116.11 2648.35 1167.18 2609.3 1221.85 2589.47 1221.5 2569.64 1221.15 2530.73 1163.02 2530.5 1114.02Z" stroke="#ED51D7" stroke-width="6.875" stroke-miterlimit="8" fill="#F494E6" fill-rule="evenodd"/><path d="M100.512 10.165C81.9587 1.57328 72.9945-1.81484 52.2234 11.4143 31.4524 24.6434-6.81339 125.832 1.04814 174.219 8.90967 222.606 67.9568 292.416 99.3928 301.736 130.829 311.055 148.392 250.331 198.274 265.026 248.157 279.721 236.788 186.361 229.441 144.502 222.094 102.644 175.68 36.263 154.192 13.8734 132.703-8.5162 118.716 0.738564 100.512 10.165Z" stroke="#ED51D7" stroke-width="6.875" stroke-miterlimit="8" fill="#F494E6" fill-rule="evenodd" transform="matrix(-0.5 0.866025 0.866025 0.5 2353.13 998.601)"/><path d="M2867.85 1086.86C2866.01 1066.5 2864.46 1057.04 2842.62 1045.67 2820.78 1034.29 2714.01 1051.75 2676.04 1082.75 2638.07 1113.75 2607.13 1199.79 2614.78 1231.68 2622.43 1263.56 2683.8 1248.41 2696.01 1298.96 2708.23 1349.5 2783.39 1292.98 2815.97 1265.69 2848.55 1238.39 2882.83 1165.01 2891.47 1135.2 2900.12 1105.4 2885.11 1097.91 2867.85 1086.86Z" stroke="#ED51D7" stroke-width="6.875" stroke-miterlimit="8" fill="#F494E6" fill-rule="evenodd"/><path d="M2586.51 1538.7C2601.25 1546.7 2665.56 1551.12 2671.75 1519.93 2677.95 1488.73 2644.26 1379.8 2623.68 1351.52 2603.11 1323.25 2567.5 1321.53 2548.3 1350.26 2529.09 1379 2502.08 1492.52 2508.45 1523.93 2514.82 1555.33 2572.05 1547.48 2586.51 1538.7Z" stroke="#ED51D7" stroke-width="6.875" stroke-miterlimit="8" fill="#F494E6" fill-rule="evenodd"/><path d="M2527.79 1274.29C2539.72 1242.13 2556.23 1198.09 2589.67 1198.5 2623.11 1198.92 2633.96 1234.03 2651.56 1274.29 2669.15 1314.56 2651.31 1323.3 2620.61 1328.83 2589.92 1334.35 2599.24 1335.73 2558.73 1328.83 2518.22 1321.92 2515.85 1306.46 2527.79 1274.29Z" stroke="#C915AF" stroke-width="4.58333" stroke-miterlimit="8" fill="#ED51D7" fill-rule="evenodd"/><path d="M2515.4 1223.92 2333 1106.29 2526.07 1205.44Z" fill="#F2F2F2" fill-rule="evenodd"/><path d="M0 216.771 10.6698 0 21.3396 216.771Z" fill="#F2F2F2" fill-rule="evenodd" transform="matrix(-0.5 -0.866025 -0.866025 0.5 2856.76 1112.26)"/><path d="M0 135 10.5 0 21 135Z" fill="#F2F2F2" fill-rule="evenodd" transform="matrix(1 -1.22465e-16 -1.22465e-16 -1 2577 1514)"/><path d="M2539.69 1272.82C2549.53 1246.37 2563.15 1210.16 2590.73 1210.5 2618.31 1210.84 2627.26 1239.71 2641.77 1272.82 2656.28 1305.93 2641.57 1313.12 2616.25 1317.66 2590.93 1322.2 2598.62 1323.33 2565.21 1317.66 2531.8 1311.98 2529.84 1299.27 2539.69 1272.82Z" stroke="#A337AB" stroke-width="4.58333" stroke-miterlimit="8" fill="#A337AB" fill-rule="evenodd"/><path d="M2569 1271.5C2569 1264.6 2577.95 1259 2589 1259 2600.05 1259 2609 1264.6 2609 1271.5 2609 1278.4 2600.05 1284 2589 1284 2577.95 1284 2569 1278.4 2569 1271.5Z" fill="#FED894" fill-rule="evenodd"/></g></svg>