<svg width="2338" height="1169" xmlns="http://www.w3.org/2000/svg" xmlns:xlink="http://www.w3.org/1999/xlink" xml:space="preserve" overflow="hidden"><defs><clipPath id="clip0"><rect x="1031" y="653" width="2338" height="1169"/></clipPath></defs><g clip-path="url(#clip0)" transform="translate(-1031 -653)"><rect x="1810" y="653" width="1559" height="1169" fill="#D40032"/><rect x="0" y="0" width="779" height="1169" fill="#FFA400" transform="matrix(-1 1.22465e-16 1.22465e-16 1 1810 653)"/><path d="M1506 1271.23 1539.6 1268.63 1552.5 1238 1565.4 1268.63 1599 1271.23 1573.37 1292.76 1581.24 1325 1552.5 1307.68 1523.76 1325 1531.63 1292.76Z" fill="#002854" fill-rule="evenodd"/><path d="M1357 1633.5 1406.47 1619.4 1381.46 1574.46 1426.4 1599.47 1440.5 1550 1454.6 1599.47 1499.54 1574.46 1474.53 1619.4 1524 1633.5 1474.53 1647.6 1499.54 1692.54 1454.6 1667.53 1440.5 1717 1426.4 1667.53 1381.46 1692.54 1406.47 1647.6Z" fill="#002854" fill-rule="evenodd"/><path d="M1062 1163.5 1111.47 1149.4 1086.46 1104.46 1131.4 1129.47 1145.5 1080 1159.6 1129.47 1204.54 1104.46 1179.53 1149.4 1229 1163.5 1179.53 1177.6 1204.54 1222.54 1159.6 1197.53 1145.5 1247 1131.4 1197.53 1086.46 1222.54 1111.47 1177.6Z" fill="#002854" fill-rule="evenodd"/><path d="M1625 1045.5 1676.87 1054.75 1695 1004 1713.13 1054.75 1765 1045.5 1731.27 1087 1765 1128.5 1713.13 1119.25 1695 1170 1676.87 1119.25 1625 1128.5 1658.73 1087Z" fill="#002854" fill-rule="evenodd"/><path d="M1359 867.254 1404.7 840.466 1375.14 796.492 1424.57 815.537 1440.5 765 1456.43 815.537 1505.86 796.492 1476.3 840.466 1522 867.254 1469.21 871.551 1476.77 924.001 1440.5 885.386 1404.23 924.001 1411.79 871.551Z" fill="#002854" fill-rule="evenodd"/><path d="M2182 1237.5C2182 1011.89 2364.67 829 2590 829 2815.33 829 2998 1011.89 2998 1237.5 2998 1463.11 2815.33 1646 2590 1646 2364.67 1646 2182 1463.11 2182 1237.5Z" fill="#FFA400" fill-rule="evenodd"/><path d="M2552.25 1391.94C2529.7 1332.95 2540.99 1260.3 2563.84 1194.46L2579.97 1155.09C2567.51 1197.07 2531.38 1325.84 2560.82 1383.38L2552.25 1391.94Z" stroke="#4F6121" stroke-width="4.58333" stroke-miterlimit="8" fill="#5D7327" fill-rule="evenodd"/><path d="M2656.78 1292.22C2683.05 1285.88 2696.35 1289.23 2712 1306.7 2693.12 1311.35 2675.96 1309.23 2656.78 1292.22Z" stroke="#1F5529" stroke-width="6.875" stroke-miterlimit="8" fill="#297036" fill-rule="evenodd"/><path d="M2629.51 1317.49C2655.78 1311.15 2669.08 1314.5 2684.73 1331.97 2665.84 1336.62 2648.69 1334.5 2629.51 1317.49Z" stroke="#1F5529" stroke-width="6.875" stroke-miterlimit="8" fill="#297036" fill-rule="evenodd"/><path d="M2600.03 1336.76C2626.3 1330.42 2639.6 1333.77 2655.25 1351.24 2636.36 1355.89 2619.21 1353.77 2600.03 1336.76Z" stroke="#1F5529" stroke-width="6.875" stroke-miterlimit="8" fill="#297036" fill-rule="evenodd"/><path d="M2697.25 1236.32C2707.96 1217.85 2717.12 1212.08 2735.65 1212.66 2728.01 1225.99 2717.44 1234.64 2697.25 1236.32Z" stroke="#1F5529" stroke-width="6.875" stroke-miterlimit="8" fill="#297036" fill-rule="evenodd"/><path d="M2677.11 1257.66C2670.28 1237.44 2671.98 1226.73 2684.64 1213.19 2689.62 1227.73 2689.15 1241.38 2677.11 1257.66Z" stroke="#1F5529" stroke-width="6.875" stroke-miterlimit="8" fill="#297036" fill-rule="evenodd"/><path d="M2677.92 1262.65C2698.56 1257.15 2709.12 1259.55 2721.81 1273.06 2706.98 1277.09 2693.39 1275.73 2677.92 1262.65Z" stroke="#1F5529" stroke-width="6.875" stroke-miterlimit="8" fill="#297036" fill-rule="evenodd"/><path d="M2597.75 1330.88C2588.41 1305.52 2590.19 1291.93 2605.73 1274.35 2612.54 1292.57 2612.43 1309.86 2597.75 1330.88Z" stroke="#1F5529" stroke-width="6.875" stroke-miterlimit="8" fill="#297036" fill-rule="evenodd"/><path d="M2627.21 1314.28C2616.18 1289.62 2617.03 1275.93 2631.35 1257.35 2639.38 1275.06 2640.43 1292.32 2627.21 1314.28Z" stroke="#1F5529" stroke-width="6.875" stroke-miterlimit="8" fill="#297036" fill-rule="evenodd"/><path d="M2657.25 1292.42C2641.71 1270.31 2639.95 1256.71 2650.46 1235.74 2661.72 1251.6 2666.04 1268.34 2657.25 1292.42Z" stroke="#1F5529" stroke-width="6.875" stroke-miterlimit="8" fill="#297036" fill-rule="evenodd"/><path d="M2399.62 1330.85C2368.61 1324.79 2356.21 1314.87 2348.4 1289.05 2370.74 1293.31 2387.85 1303.81 2399.62 1330.85Z" stroke="#1F5529" stroke-width="6.875" stroke-miterlimit="8" fill="#297036" fill-rule="evenodd"/><path d="M2429.97 1338.11C2412.04 1312.1 2410.1 1296.33 2422.57 1272.41 2435.57 1291.08 2440.46 1310.55 2429.97 1338.11Z" stroke="#1F5529" stroke-width="6.875" stroke-miterlimit="8" fill="#297036" fill-rule="evenodd"/><path d="M2465.5 1355.39C2453.44 1326.19 2454.86 1310.37 2472.08 1289.61 2480.87 1310.59 2481.55 1330.65 2465.5 1355.39Z" stroke="#1F5529" stroke-width="6.875" stroke-miterlimit="8" fill="#297036" fill-rule="evenodd"/><path d="M2499.07 1373.36C2488.44 1343.61 2490.63 1327.88 2508.83 1307.98 2516.59 1329.36 2516.3 1349.43 2499.07 1373.36Z" stroke="#1F5529" stroke-width="6.875" stroke-miterlimit="8" fill="#297036" fill-rule="evenodd"/><path d="M2533.1 1414.61C2517.27 1387.27 2516.59 1371.4 2530.9 1348.54 2542.39 1368.17 2545.73 1387.96 2533.1 1414.61Z" stroke="#1F5529" stroke-width="6.875" stroke-miterlimit="8" fill="#297036" fill-rule="evenodd"/><path d="M2529.04 1426.29C2501.78 1442.26 2485.92 1443.03 2462.98 1428.84 2482.55 1417.24 2502.33 1413.8 2529.04 1426.29Z" stroke="#1F5529" stroke-width="6.875" stroke-miterlimit="8" fill="#297036" fill-rule="evenodd"/><path d="M2499.65 1391.37C2472.39 1407.34 2456.53 1408.11 2433.59 1393.92 2453.16 1382.33 2472.94 1378.88 2499.65 1391.37Z" stroke="#1F5529" stroke-width="6.875" stroke-miterlimit="8" fill="#297036" fill-rule="evenodd"/><path d="M2460.12 1363.83C2438.95 1387.28 2424.06 1392.8 2397.9 1386.19 2413.06 1369.24 2430.88 1359.98 2460.12 1363.83Z" stroke="#1F5529" stroke-width="6.875" stroke-miterlimit="8" fill="#297036" fill-rule="evenodd"/><path d="M2422.5 1344.77C2400.3 1367.25 2385.18 1372.1 2359.35 1364.33 2375.25 1348.07 2393.46 1339.62 2422.5 1344.77Z" stroke="#1F5529" stroke-width="6.875" stroke-miterlimit="8" fill="#297036" fill-rule="evenodd"/><path d="M2396.84 1330.34C2396.19 1331.4 2461.11 1357.48 2486.63 1378.32 2512.15 1399.16 2531.64 1437.31 2549.96 1455.37 2568.28 1473.44 2583.6 1476.09 2596.56 1486.69L2598.36 1481.49C2593.47 1476.31 2573.74 1470.28 2555.77 1452.02 2537.8 1433.76 2517.02 1392.21 2490.54 1371.93 2464.05 1351.65 2397.49 1329.27 2396.84 1330.34Z" stroke="#4F6121" stroke-width="6.875" stroke-miterlimit="8" fill="#5D7327" fill-rule="evenodd"/><path d="M178.579 105.451C179.03 104.602 135.72 69.5576 111.451 56.2773 87.1828 42.997 51.4751 35.1493 32.9681 25.7697 14.4612 16.3901 12.5563 6.77202 0.410027 0 0.273284 2.4478 0.136744 4.89578 0 7.34359 4.69807 10.7762 10.7099 22.5558 28.9032 31.6432 47.0966 40.7306 84.2142 49.5671 109.16 61.8685 134.106 74.1699 178.128 106.301 178.579 105.451Z" stroke="#4F6121" stroke-width="6.875" stroke-miterlimit="8" fill="#5D7327" fill-rule="evenodd" transform="matrix(0.952406 -0.304834 -0.304834 -0.952406 2560.94 1390.22)"/><path d="M1.60502-0.0278355C8.82735 74.3182-5.93146 71.1629 3.09223 161.94 13.621 267.86 42.8141 265.068 71.2779 321.995 74.9954 251.431 90.137 272.435 75.9508 164.489 63.9223 72.9603 31.7683 73.4683 1.60502-0.0278355Z" stroke="#9D160F" stroke-width="6.875" stroke-miterlimit="8" fill="#C31912" fill-rule="evenodd" transform="matrix(-0.964019 -0.265833 -0.265833 0.964019 2709.79 937.451)"/><path d="M1.60502-0.0245578C8.82735 65.5671-5.93146 62.7833 3.09223 142.871 13.621 236.319 42.8141 233.855 71.2779 284.079 74.9954 221.825 90.137 240.355 75.9508 145.12 63.9223 64.369 31.7683 64.8172 1.60502-0.0245578Z" stroke="#9D160F" stroke-width="6.875" stroke-miterlimit="8" fill="#C31912" fill-rule="evenodd" transform="matrix(-0.999462 0.0328075 0.0328075 0.999462 2623.52 920.553)"/><path d="M30.5859-0.0268414C-31.4399 131.671 7.64486 295.657 88.3632 333.892 41.6317 220.037 76.8542 253.503 62.0238 171.605 46.1908 84.1756 20.3896 169.056 30.5859-0.0268414Z" stroke="#9D160F" stroke-width="6.875" stroke-miterlimit="8" fill="#C31912" fill-rule="evenodd" transform="matrix(-0.985316 -0.170739 -0.170739 0.985316 2593.09 905.709)"/><path d="M21.9605 0C7.7042 3.12611-7.79414 45.9983 4.41479 69.6675 7.41213 77.2595 38.7757 58.875 41.6998 47.3381 44.624 35.8011 43.674 12.9508 21.9605 0Z" stroke="#000000" stroke-width="6.875" stroke-miterlimit="8" fill="#262626" fill-rule="evenodd" transform="matrix(-0.836417 -0.548094 -0.548094 0.836417 2534.15 1052.1)"/><path d="M2745.92 955.377C2622.03 1031.81 2565.19 1190.52 2611.92 1266.64 2634.97 1145.74 2646.19 1193.01 2678.5 1116.31 2713 1034.43 2645.02 1091.44 2745.92 955.377Z" stroke="#9D160F" stroke-width="6.875" stroke-miterlimit="8" fill="#C31912" fill-rule="evenodd"/><path d="M2682.19 1070.18C2667.61 1070.86 2645.11 1110.5 2653.15 1135.89 2654.83 1143.88 2688.84 1131.05 2693.67 1120.17 2698.5 1109.29 2701.41 1086.61 2682.19 1070.18Z" stroke="#000000" stroke-width="6.875" stroke-miterlimit="8" fill="#262626" fill-rule="evenodd"/><path d="M1.60502-0.0278355C8.82735 74.3182-5.93146 71.1629 3.09223 161.94 13.621 267.86 42.8141 265.068 71.2779 321.995 74.9954 251.431 90.137 272.435 75.9508 164.489 63.9223 72.9603 31.7683 73.4683 1.60502-0.0278355Z" stroke="#9D160F" stroke-width="6.875" stroke-miterlimit="8" fill="#C31912" fill-rule="evenodd" transform="matrix(-0.984939 -0.172902 -0.172902 0.984939 2658.14 930.101)"/><path d="M26.2265 0.253501C11.9807 2.69258-4.81802 26.2707 1.43949 49.6221 7.6965 72.9736 28.8395 77.7886 40.5806 75.3341 52.3217 72.8796 65.643 61.31 67.2604 43.1206 68.8773 24.9316 46.0498-3.13944 26.2265 0.253501Z" stroke="#000000" stroke-width="6.875" stroke-miterlimit="8" fill="#262626" fill-rule="evenodd" transform="matrix(-0.984939 -0.172902 -0.172902 0.984939 2630.37 1062.98)"/><path d="M2694.67 1562.91 2696.63 1578.2C2667.29 1558.44 2638.51 1532.51 2612.38 1503.52 2595.8 1488.89 2581.54 1501.35 2562.45 1487.1 2573.88 1480.65 2571.55 1477.97 2595.31 1477.51 2583.57 1459.81 2559.53 1423.07 2555.9 1403.17 2540.79 1396.78 2562.29 1374.2 2564.83 1359.08 2573.31 1373.85 2567.05 1387.46 2568.16 1401.66 2588.19 1454.18 2630.8 1516.19 2694.67 1562.91Z" stroke="#1F5529" stroke-width="6.875" stroke-miterlimit="8" fill="#297036" fill-rule="evenodd"/></g></svg>