<svg width="2338" height="1169" xmlns="http://www.w3.org/2000/svg" xmlns:xlink="http://www.w3.org/1999/xlink" xml:space="preserve" overflow="hidden"><defs><clipPath id="clip0"><rect x="1031" y="653" width="2338" height="1169"/></clipPath></defs><g clip-path="url(#clip0)" transform="translate(-1031 -653)"><rect x="1810" y="653" width="1559" height="1169" fill="#006747"/><rect x="0" y="0" width="779" height="1169" fill="#FFFFFF" transform="matrix(-1 1.22465e-16 1.22465e-16 1 1810 653)"/><path d="M1506 1271.23 1539.6 1268.63 1552.5 1238 1565.4 1268.63 1599 1271.23 1573.37 1292.76 1581.24 1325 1552.5 1307.68 1523.76 1325 1531.63 1292.76Z" fill="#9B2743" fill-rule="evenodd"/><path d="M1357 1633.5 1406.47 1619.4 1381.46 1574.46 1426.4 1599.47 1440.5 1550 1454.6 1599.47 1499.54 1574.46 1474.53 1619.4 1524 1633.5 1474.53 1647.6 1499.54 1692.54 1454.6 1667.53 1440.5 1717 1426.4 1667.53 1381.46 1692.54 1406.47 1647.6Z" fill="#9B2743" fill-rule="evenodd"/><path d="M1064 1183.25 1109.7 1156.47 1080.14 1112.49 1129.57 1131.54 1145.5 1081 1161.43 1131.54 1210.86 1112.49 1181.3 1156.47 1227 1183.25 1174.21 1187.55 1181.77 1240 1145.5 1201.39 1109.23 1240 1116.79 1187.55Z" fill="#9B2743" fill-rule="evenodd"/><path d="M1614 1106.25 1659.7 1079.47 1630.14 1035.49 1679.57 1054.54 1695.5 1004 1711.43 1054.54 1760.86 1035.49 1731.3 1079.47 1777 1106.25 1724.21 1110.55 1731.77 1163 1695.5 1124.39 1659.23 1163 1666.79 1110.55Z" fill="#9B2743" fill-rule="evenodd"/><path d="M1370 805.75 1421.87 815.055 1440 764 1458.13 815.055 1510 805.75 1476.27 847.5 1510 889.25 1458.13 879.945 1440 931 1421.87 879.945 1370 889.25 1403.73 847.5Z" fill="#9B2743" fill-rule="evenodd"/><path d="M2182 1237.5C2182 1011.89 2364.67 829 2590 829 2815.33 829 2998 1011.89 2998 1237.5 2998 1463.11 2815.33 1646 2590 1646 2364.67 1646 2182 1463.11 2182 1237.5Z" fill="#FFFFFF" fill-rule="evenodd"/><path d="M2590.03 1159.56C2579.86 1161.74 2566 1170.2 2556.14 1181.85 2546.29 1193.51 2538.58 1204.77 2530.88 1229.5 2523.18 1254.24 2510.92 1292.08 2509.96 1330.26 2509 1368.43 2514.78 1418.66 2525.1 1458.56 2535.43 1498.46 2554.1 1542.62 2571.88 1569.68 2589.67 1596.74 2621.86 1613.58 2631.8 1620.92 2641.74 1628.26 2635.48 1618.74 2631.52 1613.72 2627.56 1608.7 2616.42 1605.83 2608.06 1590.8 2599.7 1575.76 2589.53 1550.57 2581.34 1523.51 2573.14 1496.46 2561.86 1461.64 2558.89 1428.48 2555.93 1395.31 2558.03 1355.23 2563.56 1324.53 2569.09 1293.83 2585.82 1268.5 2592.07 1244.28 2598.33 1220.06 2599.35 1204 2598.91 1190.18 2598.48 1176.35 2597.68 1171.46 2590.03 1159.56Z" stroke="#5C7E6F" stroke-width="4.58333" stroke-miterlimit="8" fill="#769A8B" fill-rule="evenodd"/><path d="M2668.03 991.825C2660.73 983.435 2645.73 974.858 2629.84 971.69 2613.95 968.523 2599.55 967.161 2572.7 972.818 2545.84 978.476 2504.5 986.68 2468.72 1005.64 2432.94 1024.59 2389.53 1056.13 2358 1086.55 2326.48 1116.97 2295.36 1157.42 2279.57 1188.15 2263.79 1218.87 2264.93 1257.78 2263.31 1270.9 2261.68 1284.03 2267.23 1273.21 2269.82 1266.89 2272.41 1260.57 2269.28 1248.65 2278.83 1233 2288.39 1217.35 2306.4 1194.73 2327.15 1172.98 2347.9 1151.24 2374.22 1122.56 2403.34 1102.54 2432.45 1082.52 2470.58 1063.63 2501.82 1052.84 2533.07 1042.05 2565.16 1044.54 2590.79 1037.8 2616.42 1031.06 2631.79 1023.66 2644.34 1016.07 2656.9 1008.47 2661 1005.18 2668.03 991.825Z" stroke="#5C7E6F" stroke-width="4.58333" stroke-miterlimit="8" fill="#769A8B" fill-rule="evenodd"/><path d="M27.7 0C20.6161 3.97968 12.2589 13.4514 7.64247 24.3558 3.02609 35.2602-0.0780891 45.3685 0.00149159 65.4262 0.0810723 85.4838 5.55188 101.977 8.11996 144.702 10.688 187.426 8.9627 324.56 15.4098 321.774 21.8569 318.988 41.1723 171.269 46.8023 127.987 43.6982 104.029 50.2248 81.4246 49.1901 62.0832 48.1554 42.7419 45.1309 30.6437 41.5492 20.5352 37.9676 10.4268 36.2164 7.0043 27.7 0Z" stroke="#5C7E6F" stroke-width="4.58333" stroke-miterlimit="8" fill="#769A8B" fill-rule="evenodd" transform="matrix(-0.819567 0.572984 0.572984 0.819567 2660.02 1150.48)"/><path d="M2702.2 1014.89C2718.93 1032.8 2769.91 1101.39 2788.43 1136.88 2806.96 1172.38 2795.59 1199.15 2813.35 1227.86 2831.1 1256.58 2884.16 1296.48 2894.96 1309.18 2905.76 1321.87 2894.27 1312.9 2878.15 1304.03 2862.03 1295.17 2820.73 1280.97 2798.23 1256 2775.74 1231.02 2759.84 1182.77 2743.17 1154.16 2726.5 1125.56 2707.38 1105.15 2698.2 1084.37 2689.02 1063.59 2687.42 1041.05 2688.09 1029.47 2688.76 1017.89 2685.48 996.99 2702.2 1014.89Z" stroke="#5C7E6F" stroke-width="4.58333" stroke-miterlimit="8" fill="#769A8B" fill-rule="evenodd"/><path d="M2694.88 905.724 2669.25 979.805 2637.23 1047.05 2603.31 1116.21 2547.21 1190.3 2483.13 1244.79 2463.87 1264.75 2472.72 1265.53 2489.97 1246.02 2529.52 1223.03 2540.72 1220.11 2598.4 1151.17 2614.41 1115.64 2616.88 1143.88C2624.25 1155.72 2631.61 1167.55 2638.98 1179.39L2645.14 1175.69 2641.21 1166.62 2620.02 1146.57 2622.91 1096.81 2677.78 999.075 2682.47 972.628 2686.18 1001.65 2694.04 1023.61 2694.25 1011.28 2688.41 973.633 2694.56 947.073 2713.48 899.889 2694.31 883.201 2694.88 905.724Z" stroke="#828658" stroke-width="4.58333" stroke-miterlimit="8" fill="#989D6B" fill-rule="evenodd"/><path d="M2417.59 1260.27C2420.65 1251.64 2463.17 1238.88 2470.49 1247.08 2477.82 1255.27 2470.21 1282.69 2452.1 1298.88 2443.75 1300.55 2414.52 1268.9 2417.59 1260.27Z" stroke="#828658" stroke-width="4.58333" stroke-miterlimit="8" fill="#989D6B" fill-rule="evenodd"/><path d="M2635.18 1092.41C2630.14 1084.76 2645.57 1043.14 2656.53 1042.23 2667.48 1041.33 2684.78 1063.92 2686.78 1088.13 2683.09 1095.79 2640.22 1100.06 2635.18 1092.41Z" stroke="#828658" stroke-width="4.58333" stroke-miterlimit="8" fill="#989D6B" fill-rule="evenodd"/><path d="M2570.38 1063.13C2577.7 1057.63 2620.2 1070.44 2621.78 1081.32 2623.37 1092.2 2601.9 1110.87 2577.86 1114.37 2569.98 1111.16 2563.06 1068.64 2570.38 1063.13Z" stroke="#828658" stroke-width="4.58333" stroke-miterlimit="8" fill="#989D6B" fill-rule="evenodd"/><path d="M2503.34 1179.93C2512.49 1180.24 2537.49 1216.92 2531.89 1226.38 2526.29 1235.84 2497.86 1236.86 2476.95 1224.48 2472.84 1217.04 2494.18 1179.61 2503.34 1179.93Z" stroke="#828658" stroke-width="4.58333" stroke-miterlimit="8" fill="#989D6B" fill-rule="evenodd"/><path d="M2532.42 1172.19 2560.83 1164.82 2531.43 1163.47 2560.78 1162.06 2532.08 1154.76 2561.24 1159.36 2534.36 1146.38 2562.2 1156.81 2538.16 1138.65 2563.62 1154.52 2543.35 1131.88 2565.45 1152.57 2549.72 1126.32 2567.61 1151.04 2557.04 1122.18 2570.03 1149.98 2565.01 1119.63 2572.61 1149.44 2573.34 1118.76 2575.25 1149.43 2581.7 1119.61 2577.85 1149.97 2589.77 1122.14 2580.3 1151.02 2597.24 1126.26 2582.53 1152.55 2603.83 1131.81 2584.43 1154.49 2609.28 1138.57 2585.94 1156.78 2613.38 1146.28 2587 1159.33 2615.98 1154.66 2587.56 1162.03 2616.97 1163.37 2587.62 1164.78 2616.31 1172.08 2587.15 1167.49 2614.04 1180.47 2586.19 1170.03 2610.24 1188.19 2584.77 1172.33 2605.05 1194.97 2582.94 1174.28 2598.67 1200.53 2580.78 1175.81 2591.36 1204.67 2578.36 1176.87 2583.38 1207.22 2575.79 1177.41 2575.06 1208.08 2573.15 1177.41 2566.7 1207.24 2570.55 1176.88 2558.62 1204.7 2568.09 1175.82 2551.15 1200.59 2565.87 1174.3 2544.56 1195.04 2563.97 1172.35 2539.11 1188.28 2562.46 1170.06 2535.01 1180.56 2561.4 1167.52Z" fill="#F4EFCC" fill-rule="evenodd"/><path d="M2536.13 1183.01 2551.41 1172.05 2532.75 1174.92 2549.94 1167.31 2530.94 1166.37 2549.38 1162.41 2530.78 1157.68 2549.76 1157.53 2532.28 1149.2 2551.06 1152.86 2535.37 1141.25 2553.24 1148.57 2539.94 1134.13 2556.21 1144.83 2545.81 1128.11 2559.85 1141.79 2552.75 1123.44 2564.03 1139.57 2560.5 1120.28 2568.59 1138.24 2568.77 1118.76 2573.34 1137.85 2577.23 1118.93 2578.12 1138.43 2585.55 1120.8 2582.72 1139.96 2593.43 1124.29 2586.99 1142.36 2600.55 1129.26 2590.75 1145.56 2606.64 1135.52 2593.85 1149.42 2611.47 1142.84 2596.19 1153.8 2614.85 1150.93 2597.66 1158.53 2616.66 1159.48 2598.22 1163.43 2616.82 1168.16 2597.84 1168.31 2615.32 1176.64 2596.54 1172.99 2612.23 1184.6 2594.36 1177.28 2607.67 1191.72 2591.39 1181.01 2601.8 1197.73 2587.75 1184.05 2594.85 1202.41 2583.57 1186.28 2587.1 1205.57 2579.01 1187.61 2578.83 1207.09 2574.26 1187.99 2570.38 1206.91 2569.49 1187.41 2562.05 1205.04 2564.88 1185.89 2554.18 1201.56 2560.61 1183.48 2547.06 1196.59 2556.86 1180.29 2540.96 1190.32 2553.75 1176.43Z" fill="#F4EFCC" fill-rule="evenodd"/><path d="M2551.61 1168.16C2548.87 1155.07 2556.75 1142.34 2569.23 1139.72 2581.7 1137.1 2594.04 1145.6 2596.78 1158.69 2599.53 1171.78 2591.64 1184.51 2579.17 1187.12 2566.7 1189.74 2554.36 1181.25 2551.61 1168.16Z" fill="#BDB491" fill-rule="evenodd"/><path d="M2563.38 1124.5C2563.07 1123.03 2563.96 1121.59 2565.36 1121.3 2566.76 1121.01 2568.15 1121.96 2568.46 1123.43 2568.77 1124.9 2567.88 1126.33 2566.48 1126.63 2565.08 1126.92 2563.69 1125.97 2563.38 1124.5Z" fill="#FFCD00" fill-rule="evenodd"/><path d="M2571.14 1123.71C2570.83 1122.24 2571.72 1120.81 2573.12 1120.52 2574.52 1120.23 2575.91 1121.18 2576.22 1122.65 2576.52 1124.12 2575.64 1125.55 2574.24 1125.85 2572.84 1126.14 2571.45 1125.19 2571.14 1123.71Z" fill="#FFCD00" fill-rule="evenodd"/><path d="M2578.92 1124.58C2578.61 1123.11 2579.5 1121.68 2580.9 1121.39 2582.3 1121.09 2583.69 1122.05 2584 1123.52 2584.3 1124.99 2583.42 1126.42 2582.02 1126.72 2580.62 1127.01 2579.23 1126.06 2578.92 1124.58Z" fill="#FFCD00" fill-rule="evenodd"/><path d="M2586.4 1127.07C2586.1 1125.6 2586.98 1124.17 2588.38 1123.87 2589.78 1123.58 2591.17 1124.53 2591.48 1126.01 2591.79 1127.48 2590.9 1128.91 2589.5 1129.2 2588.1 1129.49 2586.71 1128.54 2586.4 1127.07Z" fill="#FFCD00" fill-rule="evenodd"/><path d="M2593.28 1131.07C2592.98 1129.6 2593.86 1128.17 2595.26 1127.87 2596.67 1127.58 2598.05 1128.53 2598.36 1130.01 2598.67 1131.48 2597.78 1132.91 2596.38 1133.2 2594.98 1133.49 2593.59 1132.54 2593.28 1131.07Z" fill="#FFCD00" fill-rule="evenodd"/><path d="M2599.28 1136.42C2598.97 1134.95 2599.86 1133.52 2601.26 1133.22 2602.66 1132.93 2604.05 1133.89 2604.36 1135.36 2604.66 1136.83 2603.78 1138.26 2602.38 1138.55 2600.98 1138.85 2599.59 1137.89 2599.28 1136.42Z" fill="#FFCD00" fill-rule="evenodd"/><path d="M2604.15 1142.9C2603.84 1141.43 2604.72 1140 2606.13 1139.71 2607.53 1139.41 2608.91 1140.37 2609.22 1141.84 2609.53 1143.31 2608.65 1144.74 2607.24 1145.03 2605.84 1145.33 2604.46 1144.37 2604.15 1142.9Z" fill="#FFCD00" fill-rule="evenodd"/><path d="M2607.68 1150.25C2607.38 1148.78 2608.26 1147.35 2609.66 1147.05 2611.06 1146.76 2612.45 1147.71 2612.76 1149.19 2613.07 1150.66 2612.18 1152.09 2610.78 1152.38 2609.38 1152.68 2607.99 1151.72 2607.68 1150.25Z" fill="#FFCD00" fill-rule="evenodd"/><path d="M2609.75 1158.16C2609.44 1156.69 2610.33 1155.26 2611.73 1154.97 2613.13 1154.67 2614.51 1155.63 2614.82 1157.1 2615.13 1158.57 2614.25 1160 2612.84 1160.29 2611.44 1160.59 2610.06 1159.63 2609.75 1158.16Z" fill="#FFCD00" fill-rule="evenodd"/><path d="M2610.25 1166.32C2609.94 1164.85 2610.83 1163.42 2612.23 1163.12 2613.63 1162.83 2615.02 1163.78 2615.33 1165.25 2615.64 1166.72 2614.75 1168.15 2613.35 1168.45 2611.95 1168.74 2610.56 1167.79 2610.25 1166.32Z" fill="#FFCD00" fill-rule="evenodd"/><path d="M2609.18 1174.38C2608.87 1172.91 2609.76 1171.48 2611.16 1171.18 2612.56 1170.89 2613.94 1171.84 2614.25 1173.31 2614.56 1174.79 2613.68 1176.22 2612.27 1176.51 2610.87 1176.8 2609.49 1175.85 2609.18 1174.38Z" fill="#FFCD00" fill-rule="evenodd"/><path d="M2606.57 1182.02C2606.26 1180.55 2607.15 1179.12 2608.55 1178.82 2609.95 1178.53 2611.33 1179.48 2611.64 1180.95 2611.95 1182.43 2611.07 1183.86 2609.66 1184.15 2608.26 1184.44 2606.88 1183.49 2606.57 1182.02Z" fill="#FFCD00" fill-rule="evenodd"/><path d="M2602.53 1188.92C2602.22 1187.45 2603.11 1186.02 2604.51 1185.73 2605.91 1185.43 2607.3 1186.39 2607.61 1187.86 2607.91 1189.33 2607.03 1190.76 2605.63 1191.05 2604.23 1191.35 2602.84 1190.39 2602.53 1188.92Z" fill="#FFCD00" fill-rule="evenodd"/><path d="M2597.23 1194.81C2596.92 1193.34 2597.81 1191.91 2599.21 1191.61 2600.61 1191.32 2602 1192.27 2602.3 1193.74 2602.61 1195.21 2601.73 1196.65 2600.33 1196.94 2598.92 1197.23 2597.54 1196.28 2597.23 1194.81Z" fill="#FFCD00" fill-rule="evenodd"/><path d="M2590.88 1199.44C2590.57 1197.96 2591.46 1196.53 2592.86 1196.24 2594.26 1195.95 2595.65 1196.9 2595.96 1198.37 2596.27 1199.84 2595.38 1201.27 2593.98 1201.57 2592.58 1201.86 2591.19 1200.91 2590.88 1199.44Z" fill="#FFCD00" fill-rule="evenodd"/><path d="M2583.75 1202.61C2583.44 1201.14 2584.33 1199.71 2585.73 1199.42 2587.13 1199.12 2588.52 1200.08 2588.82 1201.55 2589.13 1203.02 2588.25 1204.45 2586.85 1204.74 2585.44 1205.04 2584.06 1204.08 2583.75 1202.61Z" fill="#FFCD00" fill-rule="evenodd"/><path d="M2576.12 1204.21C2575.81 1202.74 2576.7 1201.31 2578.1 1201.02 2579.5 1200.72 2580.89 1201.68 2581.2 1203.15 2581.51 1204.62 2580.62 1206.05 2579.22 1206.34 2577.82 1206.64 2576.43 1205.68 2576.12 1204.21Z" fill="#FFCD00" fill-rule="evenodd"/><path d="M2568.31 1204.17C2568.01 1202.7 2568.89 1201.27 2570.29 1200.97 2571.69 1200.68 2573.08 1201.63 2573.39 1203.1 2573.7 1204.58 2572.81 1206.01 2571.41 1206.3 2570.01 1206.59 2568.62 1205.64 2568.31 1204.17Z" fill="#FFCD00" fill-rule="evenodd"/><path d="M2560.64 1202.48C2560.33 1201.01 2561.22 1199.58 2562.62 1199.29 2564.02 1198.99 2565.41 1199.95 2565.72 1201.42 2566.03 1202.89 2565.14 1204.32 2563.74 1204.61 2562.34 1204.91 2560.95 1203.95 2560.64 1202.48Z" fill="#FFCD00" fill-rule="evenodd"/><path d="M2553.42 1199.22C2553.11 1197.75 2554 1196.32 2555.4 1196.03 2556.8 1195.73 2558.19 1196.69 2558.5 1198.16 2558.81 1199.63 2557.92 1201.06 2556.52 1201.35 2555.12 1201.65 2553.73 1200.69 2553.42 1199.22Z" fill="#FFCD00" fill-rule="evenodd"/><path d="M2546.95 1194.52C2546.64 1193.05 2547.53 1191.62 2548.93 1191.33 2550.33 1191.03 2551.72 1191.99 2552.03 1193.46 2552.34 1194.93 2551.45 1196.36 2550.05 1196.65 2548.65 1196.95 2547.26 1195.99 2546.95 1194.52Z" fill="#FFCD00" fill-rule="evenodd"/><path d="M2541.49 1188.58C2541.18 1187.11 2542.07 1185.68 2543.47 1185.38 2544.87 1185.09 2546.26 1186.04 2546.57 1187.51 2546.88 1188.98 2545.99 1190.41 2544.59 1190.71 2543.19 1191 2541.8 1190.05 2541.49 1188.58Z" fill="#FFCD00" fill-rule="evenodd"/><path d="M2537.27 1181.63C2536.96 1180.16 2537.85 1178.73 2539.25 1178.43 2540.65 1178.14 2542.04 1179.09 2542.34 1180.56 2542.65 1182.03 2541.77 1183.46 2540.37 1183.76 2538.96 1184.05 2537.58 1183.1 2537.27 1181.63Z" fill="#FFCD00" fill-rule="evenodd"/><path d="M2534.45 1173.96C2534.15 1172.49 2535.03 1171.06 2536.43 1170.76 2537.84 1170.47 2539.22 1171.42 2539.53 1172.89 2539.84 1174.36 2538.95 1175.79 2537.55 1176.09 2536.15 1176.38 2534.76 1175.43 2534.45 1173.96Z" fill="#FFCD00" fill-rule="evenodd"/><path d="M2533.16 1165.88C2532.86 1164.41 2533.74 1162.98 2535.14 1162.69 2536.54 1162.39 2537.93 1163.35 2538.24 1164.82 2538.55 1166.29 2537.66 1167.72 2536.26 1168.01 2534.86 1168.31 2533.47 1167.35 2533.16 1165.88Z" fill="#FFCD00" fill-rule="evenodd"/><path d="M2533.45 1157.73C2533.14 1156.26 2534.03 1154.83 2535.43 1154.54 2536.83 1154.24 2538.22 1155.2 2538.53 1156.67 2538.83 1158.14 2537.95 1159.57 2536.55 1159.86 2535.15 1160.16 2533.76 1159.2 2533.45 1157.73Z" fill="#FFCD00" fill-rule="evenodd"/><path d="M2535.3 1149.84C2534.99 1148.37 2535.88 1146.94 2537.28 1146.65 2538.68 1146.35 2540.07 1147.31 2540.38 1148.78 2540.69 1150.25 2539.8 1151.68 2538.4 1151.97 2537 1152.27 2535.61 1151.31 2535.3 1149.84Z" fill="#FFCD00" fill-rule="evenodd"/><path d="M2538.64 1142.53C2538.33 1141.06 2539.22 1139.63 2540.62 1139.34 2542.02 1139.04 2543.41 1140 2543.72 1141.47 2544.03 1142.94 2543.14 1144.37 2541.74 1144.66 2540.34 1144.96 2538.95 1144 2538.64 1142.53Z" fill="#FFCD00" fill-rule="evenodd"/><path d="M2543.34 1136.1C2543.03 1134.63 2543.91 1133.2 2545.31 1132.91 2546.72 1132.61 2548.1 1133.57 2548.41 1135.04 2548.72 1136.51 2547.83 1137.94 2546.43 1138.23 2545.03 1138.53 2543.64 1137.57 2543.34 1136.1Z" fill="#FFCD00" fill-rule="evenodd"/><path d="M2549.19 1130.82C2548.88 1129.35 2549.77 1127.92 2551.17 1127.62 2552.57 1127.33 2553.96 1128.29 2554.26 1129.76 2554.57 1131.23 2553.69 1132.66 2552.29 1132.95 2550.88 1133.25 2549.5 1132.29 2549.19 1130.82Z" fill="#FFCD00" fill-rule="evenodd"/><path d="M2555.96 1126.9C2555.66 1125.43 2556.54 1124 2557.94 1123.7 2559.34 1123.41 2560.73 1124.36 2561.04 1125.83 2561.35 1127.3 2560.46 1128.73 2559.06 1129.03 2557.66 1129.32 2556.27 1128.37 2555.96 1126.9Z" fill="#FFCD00" fill-rule="evenodd"/><path d="M2461.25 1186.99 2483.87 1193.24 2465.37 1177.31 2485.34 1190.31 2470.56 1168.44 2487.12 1187.68 2476.64 1160.72 2489.15 1185.47 2483.36 1154.45 2491.33 1183.76 2490.46 1149.87 2493.6 1182.6 2497.67 1147.14 2495.85 1182.05 2504.72 1146.39 2498.01 1182.13 2511.34 1147.64 2499.99 1182.83 2517.26 1150.83 2501.72 1184.13 2522.27 1155.85 2503.13 1185.97 2526.16 1162.5 2504.16 1188.3 2528.8 1170.54 2504.78 1191.01 2530.07 1179.64 2504.96 1194 2529.94 1189.46 2504.69 1197.16 2528.4 1199.63 2503.99 1200.36 2525.51 1209.74 2502.89 1203.49 2521.39 1219.42 2501.41 1206.43 2516.19 1228.29 2499.63 1209.05 2510.12 1236.01 2497.61 1211.26 2503.4 1242.28 2495.42 1212.98 2496.3 1246.87 2493.16 1214.13 2489.08 1249.59 2490.91 1214.68 2482.03 1250.34 2488.75 1214.6 2475.42 1249.1 2486.76 1213.9 2469.5 1245.9 2485.04 1212.6 2464.49 1240.88 2483.63 1210.76 2460.6 1234.23 2482.6 1208.44 2457.96 1226.2 2481.98 1205.73 2456.68 1217.09 2481.8 1202.74 2456.82 1207.27 2482.06 1199.58 2458.36 1197.11 2482.76 1196.37Z" fill="#F4EFCC" fill-rule="evenodd"/><path d="M2459.36 1195.7 2474.39 1193.57 2460.62 1185.25 2475.47 1187.76 2463.13 1175.28 2477.23 1182.34 2466.81 1166.17 2479.61 1177.5 2471.5 1158.28 2482.52 1173.44 2477.04 1151.89 2485.85 1170.3 2483.21 1147.26 2489.47 1168.22 2489.77 1144.57 2493.24 1167.27 2496.47 1143.92 2497.01 1167.49 2503.05 1145.33 2500.65 1168.86 2509.26 1148.75 2504.01 1171.34 2514.86 1154.05 2506.96 1174.83 2519.63 1161.03 2509.39 1179.2 2523.4 1169.41 2511.2 1184.28 2526.01 1178.88 2512.33 1189.87 2527.37 1189.07 2512.73 1195.76 2527.42 1199.59 2512.39 1201.72 2526.17 1210.04 2511.32 1207.53 2523.66 1220 2509.56 1212.95 2519.98 1229.11 2507.18 1217.79 2515.28 1237.01 2504.27 1221.85 2509.74 1243.4 2500.94 1224.98 2503.57 1248.03 2497.32 1227.07 2497.02 1250.72 2493.55 1228.02 2490.32 1251.37 2489.77 1227.8 2483.74 1249.96 2486.14 1226.43 2477.53 1246.54 2482.78 1223.94 2471.93 1241.23 2479.83 1220.45 2467.16 1234.26 2477.4 1216.08 2463.39 1225.87 2475.58 1211.01 2460.78 1216.4 2474.45 1205.42 2459.42 1206.21 2474.05 1199.53Z" fill="#F4EFCC" fill-rule="evenodd"/><path d="M2478.33 1193.04C2482.98 1179.91 2493.49 1171.64 2501.8 1174.58 2510.11 1177.53 2513.07 1190.56 2508.42 1203.69 2503.77 1216.83 2493.27 1225.09 2484.96 1222.15 2476.65 1219.21 2473.68 1206.18 2478.33 1193.04Z" fill="#BDB491" fill-rule="evenodd"/><path d="M2507.61 1151.97C2508.21 1150.26 2509.57 1149.19 2510.65 1149.57 2511.73 1149.95 2512.11 1151.64 2511.51 1153.35 2510.91 1155.05 2509.54 1156.12 2508.47 1155.74 2507.39 1155.36 2507 1153.67 2507.61 1151.97Z" fill="#FFCD00" fill-rule="evenodd"/><path d="M2513.11 1154.97C2513.71 1153.27 2515.08 1152.19 2516.15 1152.58 2517.23 1152.96 2517.62 1154.65 2517.01 1156.35 2516.41 1158.06 2515.05 1159.13 2513.97 1158.75 2512.89 1158.37 2512.51 1156.67 2513.11 1154.97Z" fill="#FFCD00" fill-rule="evenodd"/><path d="M2517.72 1159.73C2518.33 1158.02 2519.69 1156.95 2520.77 1157.33 2521.85 1157.72 2522.23 1159.41 2521.63 1161.11 2521.03 1162.81 2519.66 1163.89 2518.58 1163.5 2517.51 1163.12 2517.12 1161.43 2517.72 1159.73Z" fill="#FFCD00" fill-rule="evenodd"/><path d="M2521.26 1166.04C2521.86 1164.34 2523.23 1163.27 2524.3 1163.65 2525.38 1164.03 2525.77 1165.72 2525.16 1167.42 2524.56 1169.13 2523.2 1170.2 2522.12 1169.82 2521.04 1169.44 2520.66 1167.75 2521.26 1166.04Z" fill="#FFCD00" fill-rule="evenodd"/><path d="M2523.57 1173.66C2524.18 1171.95 2525.54 1170.88 2526.62 1171.26 2527.7 1171.65 2528.08 1173.34 2527.48 1175.04 2526.87 1176.74 2525.51 1177.82 2524.43 1177.43 2523.36 1177.05 2522.97 1175.36 2523.57 1173.66Z" fill="#FFCD00" fill-rule="evenodd"/><path d="M2524.57 1182.26C2525.17 1180.56 2526.53 1179.49 2527.61 1179.87 2528.69 1180.25 2529.08 1181.94 2528.47 1183.64 2527.87 1185.35 2526.51 1186.42 2525.43 1186.04 2524.35 1185.66 2523.97 1183.97 2524.57 1182.26Z" fill="#FFCD00" fill-rule="evenodd"/><path d="M2524.21 1191.5C2524.81 1189.8 2526.17 1188.73 2527.25 1189.11 2528.33 1189.49 2528.71 1191.18 2528.11 1192.88 2527.51 1194.59 2526.14 1195.66 2525.06 1195.28 2523.99 1194.9 2523.6 1193.2 2524.21 1191.5Z" fill="#FFCD00" fill-rule="evenodd"/><path d="M2522.5 1201C2523.1 1199.29 2524.46 1198.22 2525.54 1198.6 2526.62 1198.98 2527 1200.68 2526.4 1202.38 2525.8 1204.08 2524.44 1205.16 2523.36 1204.77 2522.28 1204.39 2521.89 1202.7 2522.5 1201Z" fill="#FFCD00" fill-rule="evenodd"/><path d="M2519.52 1210.36C2520.12 1208.66 2521.48 1207.59 2522.56 1207.97 2523.64 1208.35 2524.02 1210.04 2523.42 1211.75 2522.82 1213.45 2521.45 1214.52 2520.38 1214.14 2519.3 1213.76 2518.91 1212.07 2519.52 1210.36Z" fill="#FFCD00" fill-rule="evenodd"/><path d="M2515.38 1219.21C2515.99 1217.51 2517.35 1216.44 2518.43 1216.82 2519.51 1217.2 2519.89 1218.89 2519.29 1220.6 2518.68 1222.3 2517.32 1223.37 2516.24 1222.99 2515.17 1222.61 2514.78 1220.92 2515.38 1219.21Z" fill="#FFCD00" fill-rule="evenodd"/><path d="M2510.27 1227.19C2510.87 1225.48 2512.23 1224.41 2513.31 1224.79 2514.39 1225.18 2514.78 1226.87 2514.17 1228.57 2513.57 1230.27 2512.21 1231.35 2511.13 1230.96 2510.05 1230.58 2509.67 1228.89 2510.27 1227.19Z" fill="#FFCD00" fill-rule="evenodd"/><path d="M2504.38 1233.96C2504.98 1232.26 2506.35 1231.18 2507.42 1231.56 2508.5 1231.95 2508.89 1233.64 2508.28 1235.34 2507.68 1237.04 2506.32 1238.12 2505.24 1237.73 2504.16 1237.35 2503.78 1235.66 2504.38 1233.96Z" fill="#FFCD00" fill-rule="evenodd"/><path d="M2497.96 1239.25C2498.56 1237.54 2499.93 1236.47 2501 1236.85 2502.08 1237.24 2502.47 1238.93 2501.86 1240.63 2501.26 1242.33 2499.9 1243.41 2498.82 1243.02 2497.74 1242.64 2497.36 1240.95 2497.96 1239.25Z" fill="#FFCD00" fill-rule="evenodd"/><path d="M2491.27 1242.84C2491.87 1241.14 2493.24 1240.07 2494.31 1240.45 2495.39 1240.83 2495.78 1242.52 2495.17 1244.22 2494.57 1245.93 2493.21 1247 2492.13 1246.62 2491.05 1246.24 2490.67 1244.55 2491.27 1242.84Z" fill="#FFCD00" fill-rule="evenodd"/><path d="M2484.59 1244.59C2485.19 1242.89 2486.55 1241.81 2487.63 1242.2 2488.71 1242.58 2489.09 1244.27 2488.49 1245.97 2487.89 1247.68 2486.52 1248.75 2485.45 1248.37 2484.37 1247.98 2483.98 1246.29 2484.59 1244.59Z" fill="#FFCD00" fill-rule="evenodd"/><path d="M2478.18 1244.42C2478.78 1242.72 2480.15 1241.65 2481.22 1242.03 2482.3 1242.41 2482.69 1244.1 2482.08 1245.8 2481.48 1247.51 2480.12 1248.58 2479.04 1248.2 2477.96 1247.82 2477.58 1246.13 2478.18 1244.42Z" fill="#FFCD00" fill-rule="evenodd"/><path d="M2472.31 1242.35C2472.92 1240.64 2474.28 1239.57 2475.36 1239.95 2476.44 1240.33 2476.82 1242.02 2476.22 1243.73 2475.61 1245.43 2474.25 1246.5 2473.17 1246.12 2472.1 1245.74 2471.71 1244.05 2472.31 1242.35Z" fill="#FFCD00" fill-rule="evenodd"/><path d="M2467.23 1238.45C2467.83 1236.74 2469.19 1235.67 2470.27 1236.05 2471.35 1236.43 2471.73 1238.12 2471.13 1239.83 2470.53 1241.53 2469.17 1242.6 2468.09 1242.22 2467.01 1241.84 2466.62 1240.15 2467.23 1238.45Z" fill="#FFCD00" fill-rule="evenodd"/><path d="M2463.13 1232.88C2463.74 1231.18 2465.1 1230.11 2466.18 1230.49 2467.25 1230.87 2467.64 1232.56 2467.04 1234.26 2466.43 1235.97 2465.07 1237.04 2463.99 1236.66 2462.91 1236.28 2462.53 1234.58 2463.13 1232.88Z" fill="#FFCD00" fill-rule="evenodd"/><path d="M2460.19 1225.88C2460.8 1224.18 2462.16 1223.1 2463.24 1223.49 2464.31 1223.87 2464.7 1225.56 2464.1 1227.26 2463.49 1228.97 2462.13 1230.04 2461.05 1229.66 2459.97 1229.27 2459.59 1227.58 2460.19 1225.88Z" fill="#FFCD00" fill-rule="evenodd"/><path d="M2458.53 1217.73C2459.13 1216.02 2460.5 1214.95 2461.57 1215.33 2462.65 1215.72 2463.04 1217.41 2462.43 1219.11 2461.83 1220.81 2460.47 1221.89 2459.39 1221.5 2458.31 1221.12 2457.93 1219.43 2458.53 1217.73Z" fill="#FFCD00" fill-rule="evenodd"/><path d="M2458.21 1208.76C2458.82 1207.06 2460.18 1205.99 2461.26 1206.37 2462.33 1206.75 2462.72 1208.44 2462.12 1210.14 2461.51 1211.85 2460.15 1212.92 2459.07 1212.54 2457.99 1212.16 2457.61 1210.47 2458.21 1208.76Z" fill="#FFCD00" fill-rule="evenodd"/><path d="M2459.25 1199.35C2459.86 1197.64 2461.22 1196.57 2462.3 1196.95 2463.38 1197.33 2463.76 1199.02 2463.16 1200.73 2462.55 1202.43 2461.19 1203.5 2460.11 1203.12 2459.04 1202.74 2458.65 1201.05 2459.25 1199.35Z" fill="#FFCD00" fill-rule="evenodd"/><path d="M2461.61 1189.87C2462.21 1188.16 2463.58 1187.09 2464.65 1187.47 2465.73 1187.85 2466.12 1189.54 2465.51 1191.25 2464.91 1192.95 2463.55 1194.02 2462.47 1193.64 2461.39 1193.26 2461.01 1191.57 2461.61 1189.87Z" fill="#FFCD00" fill-rule="evenodd"/><path d="M2465.19 1180.71C2465.79 1179.01 2467.15 1177.93 2468.23 1178.32 2469.31 1178.7 2469.69 1180.39 2469.09 1182.09 2468.49 1183.8 2467.12 1184.87 2466.04 1184.49 2464.97 1184.1 2464.58 1182.41 2465.19 1180.71Z" fill="#FFCD00" fill-rule="evenodd"/><path d="M2469.83 1172.25C2470.44 1170.55 2471.8 1169.48 2472.88 1169.86 2473.95 1170.24 2474.34 1171.93 2473.74 1173.64 2473.13 1175.34 2471.77 1176.41 2470.69 1176.03 2469.61 1175.65 2469.23 1173.96 2469.83 1172.25Z" fill="#FFCD00" fill-rule="evenodd"/><path d="M2475.36 1164.84C2475.97 1163.14 2477.33 1162.07 2478.41 1162.45 2479.48 1162.83 2479.87 1164.52 2479.27 1166.23 2478.66 1167.93 2477.3 1169 2476.22 1168.62 2475.14 1168.24 2474.76 1166.55 2475.36 1164.84Z" fill="#FFCD00" fill-rule="evenodd"/><path d="M2481.55 1158.78C2482.15 1157.08 2483.51 1156.01 2484.59 1156.39 2485.67 1156.77 2486.06 1158.46 2485.45 1160.16 2484.85 1161.87 2483.49 1162.94 2482.41 1162.56 2481.33 1162.18 2480.95 1160.49 2481.55 1158.78Z" fill="#FFCD00" fill-rule="evenodd"/><path d="M2488.14 1154.32C2488.74 1152.61 2490.1 1151.54 2491.18 1151.92 2492.26 1152.31 2492.64 1154 2492.04 1155.7 2491.44 1157.4 2490.08 1158.48 2489 1158.09 2487.92 1157.71 2487.53 1156.02 2488.14 1154.32Z" fill="#FFCD00" fill-rule="evenodd"/><path d="M2494.86 1151.63C2495.46 1149.93 2496.83 1148.86 2497.9 1149.24 2498.98 1149.62 2499.37 1151.31 2498.76 1153.02 2498.16 1154.72 2496.8 1155.79 2495.72 1155.41 2494.64 1155.03 2494.26 1153.34 2494.86 1151.63Z" fill="#FFCD00" fill-rule="evenodd"/><path d="M2501.44 1150.84C2502.04 1149.14 2503.4 1148.06 2504.48 1148.44 2505.56 1148.83 2505.95 1150.52 2505.34 1152.22 2504.74 1153.92 2503.38 1155 2502.3 1154.61 2501.22 1154.23 2500.84 1152.54 2501.44 1150.84Z" fill="#FFCD00" fill-rule="evenodd"/><path d="M2406.69 1301.89 2422.34 1284.39 2399.85 1293.9 2420.36 1281.77 2394.21 1285.3 2418.81 1279.01 2389.99 1276.43 2417.72 1276.22 2387.36 1267.62 2417.16 1273.49 2386.41 1259.22 2417.13 1270.95 2387.17 1251.55 2417.64 1268.69 2389.63 1244.9 2418.67 1266.79 2393.68 1239.53 2420.17 1265.32 2399.18 1235.64 2422.11 1264.35 2405.9 1233.38 2424.38 1263.91 2413.59 1232.85 2426.92 1264.02 2421.96 1234.06 2429.62 1264.67 2430.68 1236.96 2432.39 1265.84 2439.42 1241.44 2435.1 1267.48 2447.84 1247.34 2437.66 1269.53 2455.62 1254.42 2439.97 1271.91 2462.46 1262.41 2441.94 1274.53 2468.1 1271.01 2443.5 1277.3 2472.31 1279.88 2444.59 1280.09 2474.95 1288.68 2445.15 1282.81 2475.9 1297.08 2445.18 1285.35 2475.14 1304.76 2444.67 1287.62 2472.68 1311.41 2443.64 1289.52 2468.63 1316.78 2442.13 1290.98 2463.13 1320.67 2440.2 1291.95 2456.41 1322.92 2437.92 1292.39 2448.72 1323.46 2435.39 1292.29 2440.35 1322.25 2432.68 1291.64 2431.63 1319.35 2429.92 1290.47 2422.89 1314.86 2427.21 1288.83 2414.47 1308.97 2424.65 1286.78Z" fill="#F4EFCC" fill-rule="evenodd"/><path d="M2413.65 1307.44 2418.42 1293.03 2404.85 1301.68 2413.7 1289.49 2397.04 1295 2409.62 1285.5 2390.51 1287.66 2406.34 1281.22 2385.52 1279.94 2403.99 1276.81 2382.26 1272.14 2402.67 1272.43 2380.85 1264.56 2402.41 1268.26 2381.35 1257.48 2403.23 1264.46 2383.75 1251.19 2405.1 1261.18 2387.93 1245.93 2407.95 1258.53 2393.76 1241.89 2411.67 1256.62 2401 1239.22 2416.11 1255.53 2409.37 1238.05 2421.1 1255.3 2418.55 1238.4 2426.45 1255.93 2428.2 1240.26 2431.96 1257.4 2437.93 1243.57 2437.42 1259.65 2447.38 1248.2 2442.61 1262.61 2456.18 1253.96 2447.33 1266.15 2463.99 1260.64 2451.41 1270.14 2470.52 1267.98 2454.69 1274.42 2475.51 1275.7 2457.03 1278.83 2478.77 1283.5 2458.36 1283.21 2480.18 1291.08 2458.62 1287.37 2479.67 1298.15 2457.79 1291.17 2477.28 1304.44 2455.92 1294.46 2473.09 1309.71 2453.08 1297.11 2467.27 1313.75 2449.36 1299.01 2460.03 1316.41 2444.92 1300.11 2451.66 1317.59 2439.93 1300.34 2442.48 1317.24 2434.57 1299.71 2432.83 1315.37 2429.06 1298.24 2423.1 1312.07 2423.61 1295.98Z" fill="#F4EFCC" fill-rule="evenodd"/><path d="M2419.7 1289.27C2410 1279.27 2407.26 1266.18 2413.59 1260.04 2419.91 1253.91 2432.91 1257.04 2442.61 1267.04 2452.31 1277.04 2455.05 1290.12 2448.72 1296.26 2442.39 1302.4 2429.4 1299.27 2419.7 1289.27Z" fill="#BDB491" fill-rule="evenodd"/><path d="M2395.91 1244.79C2394.65 1243.49 2394.29 1241.8 2395.11 1241 2395.93 1240.21 2397.62 1240.61 2398.88 1241.91 2400.14 1243.21 2400.49 1244.9 2399.67 1245.7 2398.85 1246.5 2397.16 1246.09 2395.91 1244.79Z" fill="#FFCD00" fill-rule="evenodd"/><path d="M2401.04 1241.2C2399.78 1239.9 2399.43 1238.2 2400.25 1237.4 2401.07 1236.61 2402.76 1237.01 2404.01 1238.31 2405.27 1239.61 2405.63 1241.31 2404.81 1242.1 2403.99 1242.9 2402.3 1242.49 2401.04 1241.2Z" fill="#FFCD00" fill-rule="evenodd"/><path d="M2407.35 1239.17C2406.1 1237.88 2405.74 1236.18 2406.56 1235.38 2407.38 1234.59 2409.07 1234.99 2410.33 1236.29 2411.58 1237.59 2411.94 1239.29 2411.12 1240.08 2410.3 1240.88 2408.61 1240.47 2407.35 1239.17Z" fill="#FFCD00" fill-rule="evenodd"/><path d="M2414.58 1238.81C2413.32 1237.52 2412.97 1235.82 2413.79 1235.02 2414.61 1234.23 2416.3 1234.63 2417.55 1235.93 2418.81 1237.23 2419.17 1238.92 2418.35 1239.72 2417.53 1240.52 2415.84 1240.11 2414.58 1238.81Z" fill="#FFCD00" fill-rule="evenodd"/><path d="M2422.43 1240.12C2421.17 1238.83 2420.82 1237.13 2421.64 1236.33 2422.46 1235.54 2424.15 1235.94 2425.41 1237.24 2426.66 1238.54 2427.02 1240.24 2426.2 1241.03 2425.38 1241.83 2423.69 1241.42 2422.43 1240.12Z" fill="#FFCD00" fill-rule="evenodd"/><path d="M2430.58 1243.05C2429.32 1241.76 2428.97 1240.06 2429.79 1239.26 2430.61 1238.47 2432.3 1238.87 2433.55 1240.17 2434.81 1241.47 2435.17 1243.17 2434.35 1243.96 2433.53 1244.76 2431.84 1244.35 2430.58 1243.05Z" fill="#FFCD00" fill-rule="evenodd"/><path d="M2438.7 1247.49C2437.44 1246.19 2437.08 1244.49 2437.91 1243.69 2438.73 1242.9 2440.41 1243.3 2441.67 1244.6 2442.93 1245.9 2443.28 1247.6 2442.46 1248.39 2441.64 1249.19 2439.96 1248.78 2438.7 1247.49Z" fill="#FFCD00" fill-rule="evenodd"/><path d="M2446.45 1253.23C2445.19 1251.94 2444.83 1250.24 2445.66 1249.44 2446.48 1248.65 2448.16 1249.05 2449.42 1250.35 2450.68 1251.65 2451.03 1253.34 2450.21 1254.14 2449.39 1254.94 2447.71 1254.53 2446.45 1253.23Z" fill="#FFCD00" fill-rule="evenodd"/><path d="M2453.51 1260.06C2452.26 1258.77 2451.9 1257.07 2452.72 1256.27 2453.54 1255.48 2455.23 1255.88 2456.49 1257.18 2457.75 1258.48 2458.1 1260.18 2457.28 1260.97 2456.46 1261.77 2454.77 1261.36 2453.51 1260.06Z" fill="#FFCD00" fill-rule="evenodd"/><path d="M2459.61 1267.7C2458.35 1266.4 2457.99 1264.71 2458.82 1263.91 2459.64 1263.11 2461.32 1263.52 2462.58 1264.82 2463.84 1266.11 2464.19 1267.81 2463.37 1268.61 2462.55 1269.4 2460.87 1269 2459.61 1267.7Z" fill="#FFCD00" fill-rule="evenodd"/><path d="M2464.48 1275.82C2463.22 1274.53 2462.87 1272.83 2463.69 1272.03 2464.51 1271.24 2466.19 1271.64 2467.45 1272.94 2468.71 1274.24 2469.07 1275.94 2468.24 1276.73 2467.42 1277.53 2465.74 1277.12 2464.48 1275.82Z" fill="#FFCD00" fill-rule="evenodd"/><path d="M2467.93 1284.11C2466.67 1282.81 2466.32 1281.11 2467.14 1280.32 2467.96 1279.52 2469.64 1279.93 2470.9 1281.22 2472.16 1282.52 2472.52 1284.22 2471.69 1285.02 2470.87 1285.81 2469.19 1285.41 2467.93 1284.11Z" fill="#FFCD00" fill-rule="evenodd"/><path d="M2469.82 1292.21C2468.56 1290.91 2468.2 1289.22 2469.02 1288.42 2469.84 1287.62 2471.53 1288.03 2472.79 1289.33 2474.05 1290.62 2474.4 1292.32 2473.58 1293.12 2472.76 1293.91 2471.08 1293.51 2469.82 1292.21Z" fill="#FFCD00" fill-rule="evenodd"/><path d="M2470.06 1299.8C2468.8 1298.5 2468.45 1296.81 2469.27 1296.01 2470.09 1295.21 2471.78 1295.62 2473.04 1296.92 2474.29 1298.21 2474.65 1299.91 2473.83 1300.71 2473.01 1301.5 2471.32 1301.1 2470.06 1299.8Z" fill="#FFCD00" fill-rule="evenodd"/><path d="M2468.66 1306.57C2467.4 1305.27 2467.05 1303.57 2467.87 1302.77 2468.69 1301.98 2470.37 1302.38 2471.63 1303.68 2472.89 1304.98 2473.25 1306.68 2472.42 1307.47 2471.6 1308.27 2469.92 1307.86 2468.66 1306.57Z" fill="#FFCD00" fill-rule="evenodd"/><path d="M2465.66 1312.23C2464.41 1310.93 2464.05 1309.24 2464.87 1308.44 2465.69 1307.64 2467.38 1308.05 2468.64 1309.35 2469.89 1310.64 2470.25 1312.34 2469.43 1313.14 2468.61 1313.93 2466.92 1313.53 2465.66 1312.23Z" fill="#FFCD00" fill-rule="evenodd"/><path d="M2461.2 1316.56C2459.94 1315.27 2459.58 1313.57 2460.4 1312.77 2461.23 1311.98 2462.91 1312.38 2464.17 1313.68 2465.43 1314.98 2465.78 1316.67 2464.96 1317.47 2464.14 1318.27 2462.46 1317.86 2461.2 1316.56Z" fill="#FFCD00" fill-rule="evenodd"/><path d="M2455.44 1319.39C2454.19 1318.09 2453.83 1316.39 2454.65 1315.6 2455.47 1314.8 2457.16 1315.21 2458.42 1316.5 2459.67 1317.8 2460.03 1319.5 2459.21 1320.29 2458.39 1321.09 2456.7 1320.68 2455.44 1319.39Z" fill="#FFCD00" fill-rule="evenodd"/><path d="M2448.64 1320.58C2447.38 1319.29 2447.03 1317.59 2447.85 1316.79 2448.67 1316 2450.35 1316.4 2451.61 1317.7 2452.87 1319 2453.22 1320.69 2452.4 1321.49 2451.58 1322.29 2449.9 1321.88 2448.64 1320.58Z" fill="#FFCD00" fill-rule="evenodd"/><path d="M2441.06 1320.11C2439.8 1318.81 2439.45 1317.11 2440.27 1316.32 2441.09 1315.52 2442.77 1315.93 2444.03 1317.22 2445.29 1318.52 2445.65 1320.22 2444.83 1321.01 2444 1321.81 2442.32 1321.4 2441.06 1320.11Z" fill="#FFCD00" fill-rule="evenodd"/><path d="M2433.02 1317.98C2431.76 1316.68 2431.41 1314.98 2432.23 1314.18 2433.05 1313.39 2434.73 1313.79 2435.99 1315.09 2437.25 1316.39 2437.6 1318.09 2436.78 1318.88 2435.96 1319.68 2434.28 1319.27 2433.02 1317.98Z" fill="#FFCD00" fill-rule="evenodd"/><path d="M2424.84 1314.28C2423.59 1312.98 2423.23 1311.28 2424.05 1310.48 2424.87 1309.69 2426.56 1310.09 2427.82 1311.39 2429.08 1312.69 2429.43 1314.39 2428.61 1315.18 2427.79 1315.98 2426.1 1315.57 2424.84 1314.28Z" fill="#FFCD00" fill-rule="evenodd"/><path d="M2416.87 1309.16C2415.61 1307.86 2415.26 1306.17 2416.08 1305.37 2416.9 1304.57 2418.58 1304.98 2419.84 1306.28 2421.1 1307.57 2421.46 1309.27 2420.64 1310.07 2419.81 1310.86 2418.13 1310.46 2416.87 1309.16Z" fill="#FFCD00" fill-rule="evenodd"/><path d="M2409.42 1302.84C2408.17 1301.54 2407.81 1299.84 2408.63 1299.05 2409.45 1298.25 2411.14 1298.66 2412.4 1299.95 2413.66 1301.25 2414.01 1302.95 2413.19 1303.74 2412.37 1304.54 2410.68 1304.13 2409.42 1302.84Z" fill="#FFCD00" fill-rule="evenodd"/><path d="M2402.81 1295.57C2401.55 1294.27 2401.2 1292.57 2402.02 1291.78 2402.84 1290.98 2404.52 1291.39 2405.78 1292.68 2407.04 1293.98 2407.4 1295.68 2406.58 1296.47 2405.75 1297.27 2404.07 1296.86 2402.81 1295.57Z" fill="#FFCD00" fill-rule="evenodd"/><path d="M2397.3 1287.65C2396.04 1286.35 2395.69 1284.65 2396.51 1283.86 2397.33 1283.06 2399.01 1283.47 2400.27 1284.76 2401.53 1286.06 2401.89 1287.76 2401.06 1288.55 2400.24 1289.35 2398.56 1288.94 2397.3 1287.65Z" fill="#FFCD00" fill-rule="evenodd"/><path d="M2393.12 1279.4C2391.86 1278.1 2391.5 1276.41 2392.32 1275.61 2393.15 1274.81 2394.83 1275.22 2396.09 1276.52 2397.35 1277.81 2397.7 1279.51 2396.88 1280.31 2396.06 1281.1 2394.38 1280.7 2393.12 1279.4Z" fill="#FFCD00" fill-rule="evenodd"/><path d="M2390.44 1271.16C2389.18 1269.87 2388.82 1268.17 2389.64 1267.37 2390.46 1266.58 2392.15 1266.98 2393.41 1268.28 2394.67 1269.58 2395.02 1271.28 2394.2 1272.07 2393.38 1272.87 2391.69 1272.46 2390.44 1271.16Z" fill="#FFCD00" fill-rule="evenodd"/><path d="M2389.36 1263.28C2388.1 1261.98 2387.75 1260.28 2388.57 1259.49 2389.39 1258.69 2391.08 1259.1 2392.34 1260.4 2393.59 1261.69 2393.95 1263.39 2393.13 1264.19 2392.31 1264.98 2390.62 1264.58 2389.36 1263.28Z" fill="#FFCD00" fill-rule="evenodd"/><path d="M2389.94 1256.06C2388.69 1254.77 2388.33 1253.07 2389.15 1252.27 2389.97 1251.48 2391.66 1251.88 2392.92 1253.18 2394.18 1254.48 2394.53 1256.18 2393.71 1256.97 2392.89 1257.77 2391.2 1257.36 2389.94 1256.06Z" fill="#FFCD00" fill-rule="evenodd"/><path d="M2392.16 1249.82C2390.9 1248.52 2390.54 1246.82 2391.36 1246.03 2392.18 1245.23 2393.87 1245.64 2395.13 1246.93 2396.39 1248.23 2396.74 1249.93 2395.92 1250.72 2395.1 1251.52 2393.41 1251.11 2392.16 1249.82Z" fill="#FFCD00" fill-rule="evenodd"/></g></svg>