<svg width="2338" height="1169" xmlns="http://www.w3.org/2000/svg" xmlns:xlink="http://www.w3.org/1999/xlink" xml:space="preserve" overflow="hidden"><defs><clipPath id="clip0"><rect x="1031" y="653" width="2338" height="1169"/></clipPath></defs><g clip-path="url(#clip0)" transform="translate(-1031 -653)"><rect x="0" y="0" width="779" height="1169" fill="#FFFFFF" transform="matrix(-1 1.22465e-16 1.22465e-16 1 1810 653)"/><path d="M1506 1271.23 1539.6 1268.63 1552.5 1238 1565.4 1268.63 1599 1271.23 1573.37 1292.76 1581.24 1325 1552.5 1307.68 1523.76 1325 1531.63 1292.76Z" fill="#002854" fill-rule="evenodd"/><path d="M1357 1633.5 1406.47 1619.4 1381.46 1574.46 1426.4 1599.47 1440.5 1550 1454.6 1599.47 1499.54 1574.46 1474.53 1619.4 1524 1633.5 1474.53 1647.6 1499.54 1692.54 1454.6 1667.53 1440.5 1717 1426.4 1667.53 1381.46 1692.54 1406.47 1647.6Z" fill="#002854" fill-rule="evenodd"/><path d="M1064 1183.25 1109.7 1156.47 1080.14 1112.49 1129.57 1131.54 1145.5 1081 1161.43 1131.54 1210.86 1112.49 1181.3 1156.47 1227 1183.25 1174.21 1187.55 1181.77 1240 1145.5 1201.39 1109.23 1240 1116.79 1187.55Z" fill="#002854" fill-rule="evenodd"/><path d="M1625 1045.5 1676.87 1054.75 1695 1004 1713.13 1054.75 1765 1045.5 1731.27 1087 1765 1128.5 1713.13 1119.25 1695 1170 1676.87 1119.25 1625 1128.5 1658.73 1087Z" fill="#002854" fill-rule="evenodd"/><path d="M1359 867.254 1404.7 840.466 1375.14 796.492 1424.57 815.537 1440.5 765 1456.43 815.537 1505.86 796.492 1476.3 840.466 1522 867.254 1469.21 871.551 1476.77 924.001 1440.5 885.386 1404.23 924.001 1411.79 871.551Z" fill="#002854" fill-rule="evenodd"/><rect x="1810" y="653" width="1559" height="1169" fill="#002854"/><path d="M2182 1237.5C2182 1011.89 2364.67 829 2590 829 2815.33 829 2998 1011.89 2998 1237.5 2998 1463.11 2815.33 1646 2590 1646 2364.67 1646 2182 1463.11 2182 1237.5Z" fill="#FFFFFF" fill-rule="evenodd"/><path d="M10.0491 37.4278C0.899131 15.8143 10.739-0.219773 27.2684 0.0022018 43.7979 0.224176 52.2381 14.8777 44.4878 37.4278 36.7375 59.9779 48.7852 78.5111 51.3754 92.6925 53.9656 106.874 62.2428 122.075 60.0289 122.516 52.0342 125.176 44.0104 97.8148 40.7759 96.0024 37.5414 94.19 45.2584 124.422 38.5574 132.502 39.9081 119.944 31.0563 97.4378 28.8541 97.4378 26.652 97.4378 22.749 118.214 24.312 130.727 13.0747 125.93 21.2342 94.2492 18.4126 96.3945 15.591 98.5398 6.46014 111.419 0.363157 121.85-1.60474 121.85 4.99089 110.465 6.60519 96.3944 8.21948 82.3241 19.199 59.0413 10.0491 37.4278Z" stroke="#D67CD6" stroke-width="4.58333" stroke-miterlimit="8" fill="#ED8FE6" fill-rule="evenodd" transform="matrix(-0.344092 -0.938936 -0.938936 0.344092 2470.62 1363.59)"/><path d="M10.0491 37.4278C0.899131 15.8143 10.739-0.219773 27.2684 0.0022018 43.7979 0.224176 52.2381 14.8777 44.4878 37.4278 36.7375 59.9779 48.7852 78.5111 51.3754 92.6925 53.9656 106.874 62.2428 122.075 60.0289 122.516 52.0342 125.176 44.0104 97.8148 40.7759 96.0024 37.5414 94.19 45.2584 124.422 38.5574 132.502 39.9081 119.944 31.0563 97.4378 28.8541 97.4378 26.652 97.4378 22.749 118.214 24.312 130.727 13.0747 125.93 21.2342 94.2492 18.4126 96.3945 15.591 98.5398 6.46014 111.419 0.363157 121.85-1.60474 121.85 4.99089 110.465 6.60519 96.3944 8.21948 82.3241 19.199 59.0413 10.0491 37.4278Z" stroke="#D67CD6" stroke-width="4.58333" stroke-miterlimit="8" fill="#ED8FE6" fill-rule="evenodd" transform="matrix(-0.616709 -0.787191 -0.787191 0.616709 2438.27 1401.65)"/><path d="M10.0491 37.4277C0.899131 15.8143 10.739-0.219772 27.2684 0.0022018 43.7979 0.224176 52.2381 14.8776 44.4878 37.4277 36.7375 59.9778 48.7852 78.5109 51.3754 92.6922 53.9656 106.873 62.2428 122.075 60.0289 122.515 52.0342 125.175 44.0104 97.8146 40.7759 96.0022 37.5414 94.1898 45.2584 124.421 38.5574 132.502 39.9081 119.943 31.0563 97.4375 28.8541 97.4375 26.652 97.4375 22.749 118.214 24.312 130.727 13.0747 125.929 21.2342 94.249 18.4126 96.3942 15.591 98.5395 6.46014 111.419 0.363157 121.85-1.60474 121.85 4.99089 110.464 6.60519 96.3942 8.21948 82.3239 19.199 59.0411 10.0491 37.4277Z" stroke="#D67CD6" stroke-width="4.58333" stroke-miterlimit="8" fill="#ED8FE6" fill-rule="evenodd" transform="matrix(-0.912794 -0.40842 -0.40842 0.912794 2505.94 1376.61)"/><path d="M10.0491 37.4277C0.899131 15.8143 10.739-0.219772 27.2684 0.0022018 43.7979 0.224176 52.2381 14.8776 44.4878 37.4277 36.7375 59.9778 48.7852 78.5109 51.3754 92.6922 53.9656 106.873 62.2428 122.075 60.0289 122.515 52.0342 125.175 44.0104 97.8146 40.7759 96.0022 37.5414 94.1898 45.2584 124.421 38.5574 132.502 39.9081 119.943 31.0563 97.4375 28.8541 97.4375 26.652 97.4375 22.749 118.214 24.312 130.727 13.0747 125.929 21.2342 94.249 18.4126 96.3942 15.591 98.5395 6.46014 111.419 0.363157 121.85-1.60474 121.85 4.99089 110.464 6.60519 96.3942 8.21948 82.3239 19.199 59.0411 10.0491 37.4277Z" stroke="#D67CD6" stroke-width="4.58333" stroke-miterlimit="8" fill="#ED8FE6" fill-rule="evenodd" transform="matrix(-0.994554 -0.104227 -0.104227 0.994554 2551.84 1435.71)"/><path d="M10.0491 37.4277C0.899131 15.8143 10.739-0.219772 27.2684 0.0022018 43.7979 0.224176 52.2381 14.8776 44.4878 37.4277 36.7375 59.9778 48.7852 78.5109 51.3754 92.6922 53.9656 106.873 62.2428 122.075 60.0289 122.515 52.0342 125.175 44.0104 97.8146 40.7759 96.0022 37.5414 94.1898 45.2584 124.421 38.5574 132.502 39.9081 119.943 31.0563 97.4375 28.8541 97.4375 26.652 97.4375 22.749 118.214 24.312 130.727 13.0747 125.929 21.2342 94.249 18.4126 96.3942 15.591 98.5395 6.46014 111.419 0.363157 121.85-1.60474 121.85 4.99089 110.464 6.60519 96.3942 8.21948 82.3239 19.199 59.0411 10.0491 37.4277Z" stroke="#D67CD6" stroke-width="4.58333" stroke-miterlimit="8" fill="#ED8FE6" fill-rule="evenodd" transform="matrix(-0.971671 0.236339 0.236339 0.971671 2668.2 1122.92)"/><path d="M39.2812 0.336821C39.6724-0.111543 40.2568-0.125955 41.0284 0.375882 42.0572 1.04503 43.4191 2.63201 45.1008 5.33211 51.8275 16.1327 75.0395 51.0928 81.482 78.6628 84.7033 92.4478 86.8113 106.186 87.3441 121.119L87.2224 127.616 87.6158 126.538C89.835 120.349 92.1291 113.766 94.3103 107.073 103.036 80.301 114.071 63.0224 128.311 47.2963 142.552 31.5702 171.213 17.2944 179.754 12.7167 188.296 8.13885 186.964 13.3616 179.559 19.8296 172.154 26.2975 147.395 35.521 133.722 51.6308 120.049 67.7403 103.582 96.7912 92.3302 137.771L86.4219 148.584 83.7558 170.753C77.5975 207.892 74.5658 225.135 71.8183 250.336 69.0708 275.538 67.5549 297.423 67.2706 321.962 66.9865 346.5 62.344 379.85 70.1129 407.23 77.8818 434.611 102.894 458.675 113.884 486.245 124.874 513.816 132.075 555.123 136.054 572.651 140.033 590.178 138.801 588.473 137.759 591.41 136.717 594.347 134.633 604.863 129.801 590.273 126.177 579.33 120.101 548.03 114.333 524.19L112.472 516.888 111.508 516.269C101.792 509.906 87.6175 500.191 72.6085 491.001 48.5944 476.297 34.3508 461.551 22.3619 444.048 10.3728 426.544 3.14335 395.352 0.674269 385.981-1.79481 376.61 2.97604 379.117 7.5474 387.822 12.1189 396.527 15.3402 422.751 27.8343 439.792 40.3282 456.832 64.7606 479.595 102.007 500.056L109.699 507.001 108.768 503.868C101.757 482.835 96.8304 481.319 87.7351 464.076 78.6397 446.832 59.8807 424.189 54.1961 400.409 48.5115 376.628 51.3539 353.416 53.6277 321.393 55.9014 289.37 56.091 263.79 67.8391 208.271 70.7762 194.391 72.9138 181.186 74.3808 168.754L74.8034 164.301 74.7261 163.969 74.9284 162.984 76.0945 150.698C78.1661 121.611 76.4488 97.6588 72.9551 80.3682 67.3654 52.7034 45.4798 26.1755 41.1216 13.859 38.6701 6.93089 38.1073 1.6816 39.2812 0.336821Z" stroke="#A79B6D" stroke-width="4.58333" stroke-miterlimit="8" fill="#BDB491" fill-rule="evenodd" transform="matrix(0.804219 0.594333 0.594333 -0.804219 2384.87 1357.36)"/><path d="M10.0491 37.4277C0.899131 15.8143 10.739-0.219772 27.2684 0.0022018 43.7979 0.224176 52.2381 14.8776 44.4878 37.4277 36.7375 59.9778 48.7852 78.5109 51.3754 92.6922 53.9656 106.873 62.2428 122.075 60.0289 122.515 52.0342 125.175 44.0104 97.8146 40.7759 96.0022 37.5414 94.1898 45.2584 124.421 38.5574 132.502 39.9081 119.943 31.0563 97.4375 28.8541 97.4375 26.652 97.4375 22.749 118.214 24.312 130.727 13.0747 125.929 21.2342 94.249 18.4126 96.3942 15.591 98.5395 6.46014 111.419 0.363157 121.85-1.60474 121.85 4.99089 110.464 6.60519 96.3942 8.21948 82.3239 19.199 59.0411 10.0491 37.4277Z" stroke="#D67CD6" stroke-width="4.58333" stroke-miterlimit="8" fill="#ED8FE6" fill-rule="evenodd" transform="matrix(-0.99519 -0.0979636 -0.0979636 0.99519 2606.05 1243.59)"/><path d="M10.0491 37.4278C0.899131 15.8143 10.739-0.219773 27.2684 0.0022018 43.7979 0.224176 52.2381 14.8777 44.4878 37.4278 36.7375 59.9779 48.7852 78.5111 51.3754 92.6925 53.9656 106.874 62.2428 122.075 60.0289 122.516 52.0342 125.176 44.0104 97.8148 40.7759 96.0024 37.5414 94.19 45.2584 124.422 38.5574 132.502 39.9081 119.944 31.0563 97.4378 28.8541 97.4378 26.652 97.4378 22.749 118.214 24.312 130.727 13.0747 125.93 21.2342 94.2492 18.4126 96.3945 15.591 98.5398 6.46014 111.419 0.363157 121.85-1.60474 121.85 4.99089 110.465 6.60519 96.3944 8.21948 82.3241 19.199 59.0413 10.0491 37.4278Z" stroke="#D67CD6" stroke-width="4.58333" stroke-miterlimit="8" fill="#ED8FE6" fill-rule="evenodd" transform="matrix(-0.166457 -0.986049 -0.986049 0.166457 2580.25 1240.65)"/><path d="M10.0491 37.4277C0.899131 15.8143 10.739-0.219772 27.2684 0.0022018 43.7979 0.224176 52.2381 14.8776 44.4878 37.4277 36.7375 59.9778 48.7852 78.5109 51.3754 92.6922 53.9656 106.873 62.2428 122.075 60.0289 122.515 52.0342 125.175 44.0104 97.8146 40.7759 96.0022 37.5414 94.1898 45.2584 124.421 38.5574 132.502 39.9081 119.943 31.0563 97.4375 28.8541 97.4375 26.652 97.4375 22.749 118.214 24.312 130.727 13.0747 125.929 21.2342 94.249 18.4126 96.3942 15.591 98.5395 6.46014 111.419 0.363157 121.85-1.60474 121.85 4.99089 110.464 6.60519 96.3942 8.21948 82.3239 19.199 59.0411 10.0491 37.4277Z" stroke="#D67CD6" stroke-width="4.58333" stroke-miterlimit="8" fill="#ED8FE6" fill-rule="evenodd" transform="matrix(-0.83018 -0.557496 -0.557496 0.83018 2648.05 1065.91)"/><path d="M10.0491 37.4278C0.899131 15.8143 10.739-0.219773 27.2684 0.0022018 43.7979 0.224176 52.2381 14.8777 44.4878 37.4278 36.7375 59.9779 48.7852 78.5111 51.3754 92.6925 53.9656 106.874 62.2428 122.075 60.0289 122.516 52.0342 125.176 44.0104 97.8148 40.7759 96.0024 37.5414 94.19 45.2584 124.422 38.5574 132.502 39.9081 119.944 31.0563 97.4378 28.8541 97.4378 26.652 97.4378 22.749 118.214 24.312 130.727 13.0747 125.93 21.2342 94.2492 18.4126 96.3945 15.591 98.5398 6.46014 111.419 0.363157 121.85-1.60474 121.85 4.99089 110.465 6.60519 96.3944 8.21948 82.3241 19.199 59.0413 10.0491 37.4278Z" stroke="#D67CD6" stroke-width="4.58333" stroke-miterlimit="8" fill="#ED8FE6" fill-rule="evenodd" transform="matrix(-0.0367699 -0.999324 -0.999324 0.0367699 2606.91 1063.84)"/><path d="M10.0491 37.4278C0.899131 15.8143 10.739-0.219773 27.2684 0.0022018 43.7979 0.224176 52.2381 14.8777 44.4878 37.4278 36.7375 59.9779 48.7852 78.5111 51.3754 92.6925 53.9656 106.874 62.2428 122.075 60.0289 122.516 52.0342 125.176 44.0104 97.8148 40.7759 96.0024 37.5414 94.19 45.2584 124.422 38.5574 132.502 39.9081 119.944 31.0563 97.4378 28.8541 97.4378 26.652 97.4378 22.749 118.214 24.312 130.727 13.0747 125.93 21.2342 94.2492 18.4126 96.3945 15.591 98.5398 6.46014 111.419 0.363157 121.85-1.60474 121.85 4.99089 110.465 6.60519 96.3944 8.21948 82.3241 19.199 59.0413 10.0491 37.4278Z" stroke="#D67CD6" stroke-width="4.58333" stroke-miterlimit="8" fill="#ED8FE6" fill-rule="evenodd" transform="matrix(0.229734 -0.973254 -0.973254 -0.229734 2509.99 1335.01)"/><path d="M10.6539 0C7.92937 1.5307 4.71499 5.1738 2.93944 9.3679 1.16389 13.562-0.0300346 17.45 0.000573694 25.1647 0.031182 32.8794 2.13536 39.2232 3.12309 55.6563 4.11082 72.0894 3.44723 124.835 5.92691 123.763 8.40658 122.692 15.8357 65.8748 18.0011 49.2274 16.8072 40.0125 19.3174 31.3181 18.9195 23.8789 18.5215 16.4397 17.3582 11.7864 15.9806 7.89842 14.6031 4.01045 13.9295 2.69405 10.6539 0Z" stroke="#529462" stroke-width="4.58333" stroke-miterlimit="8" fill="#66AA76" fill-rule="evenodd" transform="matrix(-0.964974 -0.262346 -0.262346 0.964974 2783.3 1028.44)"/><path d="M19.718 4.45523C22.0223 13.7816 25.7973 46.8901 24.7187 62.4481 23.6401 78.0061 13.0505 84.6618 13.2466 97.8034 13.4427 110.945 24.6696 134.897 25.8953 141.298 27.121 147.699 24.7677 142.4 20.6005 136.211 16.4333 130.022 3.78461 117.007 0.892108 104.162-2.00039 91.3174 3.04923 72.0288 3.24536 59.1415 3.44148 46.2542 0.794072 35.6137 2.06876 26.8385 3.34345 18.0632 7.9518 10.2206 10.8934 6.49007 13.8349 2.75951 17.4138-4.87114 19.718 4.45523Z" stroke="#529462" stroke-width="4.58333" stroke-miterlimit="8" fill="#66AA76" fill-rule="evenodd" transform="matrix(-0.894574 0.446921 0.446921 0.894574 2794.16 1011.35)"/><path d="M2789.07 1007.27C2779.94 1005.04 2749.84 992.936 2737.22 984.535 2724.59 976.135 2724.57 962.907 2713.32 956.864 2702.07 950.821 2675.78 950.146 2669.7 948.278 2663.62 946.409 2669.36 946.683 2676.83 945.653 2684.29 944.623 2702.06 938.76 2714.49 942.098 2726.93 945.435 2740.61 959.382 2751.43 965.677 2762.26 971.973 2772.7 974.499 2779.46 979.871 2786.23 985.243 2790.43 993.344 2792.04 997.91 2793.64 1002.48 2798.21 1009.5 2789.07 1007.27Z" stroke="#529462" stroke-width="4.58333" stroke-miterlimit="8" fill="#66AA76" fill-rule="evenodd"/><path d="M10.6539 0C7.92937 1.5307 4.71499 5.17381 2.93944 9.36793 1.16389 13.5621-0.0300346 17.45 0.000573694 25.1648 0.031182 32.8795 2.13536 39.2233 3.12309 55.6565 4.11082 72.0896 3.44723 124.835 5.92691 123.764 8.40658 122.692 15.8357 65.8749 18.0011 49.2275 16.8072 40.0127 19.3174 31.3182 18.9195 23.879 18.5215 16.4398 17.3582 11.7864 15.9806 7.89845 14.6031 4.01046 13.9295 2.69406 10.6539 0Z" stroke="#529462" stroke-width="4.58333" stroke-miterlimit="8" fill="#66AA76" fill-rule="evenodd" transform="matrix(-0.489153 0.872198 0.872198 0.489153 2524.27 1376.83)"/><path d="M10.6539 0C7.92937 1.5307 4.71499 5.17381 2.93944 9.36793 1.16389 13.5621-0.0300346 17.45 0.000573694 25.1648 0.031182 32.8795 2.13536 39.2233 3.12309 55.6565 4.11082 72.0896 3.44723 124.835 5.92691 123.764 8.40658 122.692 15.8357 65.8749 18.0011 49.2275 16.8072 40.0127 19.3174 31.3182 18.9195 23.879 18.5215 16.4398 17.3582 11.7864 15.9806 7.89845 14.6031 4.01046 13.9295 2.69406 10.6539 0Z" stroke="#529462" stroke-width="4.58333" stroke-miterlimit="8" fill="#66AA76" fill-rule="evenodd" transform="matrix(-0.700864 0.713295 0.713295 0.700864 2526.77 1386.35)"/></g></svg>