<svg width="2338" height="1169" xmlns="http://www.w3.org/2000/svg" xmlns:xlink="http://www.w3.org/1999/xlink" xml:space="preserve" overflow="hidden"><defs><clipPath id="clip0"><rect x="1031" y="653" width="2338" height="1169"/></clipPath></defs><g clip-path="url(#clip0)" transform="translate(-1031 -653)"><rect x="1810" y="653" width="1559" height="1169"/><path d="M2182 1237.5C2182 1011.89 2364.67 829 2590 829 2815.33 829 2998 1011.89 2998 1237.5 2998 1463.11 2815.33 1646 2590 1646 2364.67 1646 2182 1463.11 2182 1237.5Z" fill="#FFD100" fill-rule="evenodd"/><rect x="0" y="0" width="779" height="1169" fill="#FFD100" transform="matrix(-1 1.22465e-16 1.22465e-16 1 1810 653)"/><path d="M1506 1271.23 1539.6 1268.63 1552.5 1238 1565.4 1268.63 1599 1271.23 1573.37 1292.76 1581.24 1325 1552.5 1307.68 1523.76 1325 1531.63 1292.76Z" fill-rule="evenodd"/><path d="M1441.25 1551 1453.49 1598.77 1493.77 1570.34 1473.82 1615.79 1522 1620.82 1479.09 1641.12 1512.97 1677.67 1466.1 1665.49 1468.92 1715 1441.06 1674.39 1413.4 1714.81 1416.22 1665.3 1369.92 1677.48 1403.8 1641.9 1359 1621.01 1407.94 1616.37 1388.55 1571.5 1427.7 1598.96 1441.25 1551Z" fill-rule="evenodd"/><path d="M1062 1163.5 1111.47 1149.4 1086.46 1104.46 1131.4 1129.47 1145.5 1080 1159.6 1129.47 1204.54 1104.46 1179.53 1149.4 1229 1163.5 1179.53 1177.6 1204.54 1222.54 1159.6 1197.53 1145.5 1247 1131.4 1197.53 1086.46 1222.54 1111.47 1177.6Z" fill-rule="evenodd"/><path d="M1614 1106.25 1659.7 1079.47 1630.14 1035.49 1679.57 1054.54 1695.5 1004 1711.43 1054.54 1760.86 1035.49 1731.3 1079.47 1777 1106.25 1724.21 1110.55 1731.77 1163 1695.5 1124.39 1659.23 1163 1666.79 1110.55Z" fill-rule="evenodd"/><path d="M1359 867.254 1404.7 840.466 1375.14 796.492 1424.57 815.537 1440.5 765 1456.43 815.537 1505.86 796.492 1476.3 840.466 1522 867.254 1469.21 871.551 1476.77 924.001 1440.5 885.386 1404.23 924.001 1411.79 871.551Z" fill-rule="evenodd"/><path d="M0.000120495-0.000120495C22.1157 9.59914 53.8746 1.11241 63.0658 5.93753 72.2569 10.7626 69.175 30.9273 55.1473 28.9507 64.8391 26.5278 71.125 12.2258 61.9338 7.4007 52.7427 2.57559 27.3152 17.5882 0.000120495-0.000120495Z" stroke="#E4681C" stroke-width="4.58333" stroke-miterlimit="8" fill="#E4681C" fill-rule="evenodd" transform="matrix(-0.813216 -0.581963 -0.581963 0.813216 2547.96 970.113)"/><path d="M25.4857 62.4322C21.4651 49.8878 6.06208 38.0793 2.74429 27.674-0.573502 17.2688-2.16546 5.26871 5.57919 0 2.48122 15.3544 26.0502 39.0266 31.4161 52.7864 36.782 66.5462 37.017 72.3725 37.775 82.5586 32.3702 85.7698 28.9131 70.3603 25.4857 62.4322Z" stroke="#6A0A18" stroke-width="4.58333" stroke-miterlimit="8" fill="#C4122E" fill-rule="evenodd" transform="matrix(-0.959682 -0.281089 -0.281089 0.959682 2614.03 1149.79)"/><path d="M25.4857 62.4322C21.4651 49.8878 6.06208 38.0793 2.74429 27.674-0.573502 17.2688-2.16546 5.26871 5.57919 0 2.48122 15.3544 26.0502 39.0266 31.4161 52.7864 36.782 66.5462 37.017 72.3725 37.775 82.5586 32.3702 85.7698 28.9131 70.3603 25.4857 62.4322Z" stroke="#6A0A18" stroke-width="4.58333" stroke-miterlimit="8" fill="#C4122E" fill-rule="evenodd" transform="matrix(-0.865216 -0.501399 -0.501399 0.865216 2707.92 1136.92)"/><path d="M2775.56 1253.44C2781.2 1262.09 2795.23 1267.82 2799.9 1275 2804.56 1282.18 2808.27 1290.92 2803.56 1296.51 2802.67 1284.26 2780.03 1271.25 2773.13 1261.97 2766.22 1252.68 2764.83 1248.32 2762.13 1240.78 2765.51 1237.23 2771.33 1248.16 2775.56 1253.44Z" stroke="#6A0A18" stroke-width="4.58333" stroke-miterlimit="8" fill="#C4122E" fill-rule="evenodd"/><path d="M20.9779 48.9686C17.6684 39.1294 4.98983 29.8675 2.25888 21.7061-0.472062 13.5447-1.78244 4.13251 4.59236 0 2.04235 12.0432 21.4425 30.6105 25.8593 41.403 30.2761 52.1954 30.4695 56.7653 31.0934 64.7547 26.6446 67.2735 23.799 55.187 20.9779 48.9686Z" stroke="#6A0A18" stroke-width="4.58333" stroke-miterlimit="8" fill="#C4122E" fill-rule="evenodd" transform="matrix(-0.136792 -0.9906 -0.9906 0.136792 2641.99 1227.45)"/><path d="M0 14.3243C0.428801 9.74249 15.0591-4.40445 23.6742 1.35902 32.2893 7.12249 24.7077 29.0687 20.762 31.2296 16.8163 33.3905 17.4928 10.5121 0 14.3243Z" stroke="#003E31" stroke-width="4.58333" stroke-miterlimit="8" fill="#00604B" fill-rule="evenodd" transform="matrix(-0.893045 -0.449968 -0.449968 0.893045 2448.13 1157.29)"/><path d="M46.7212 430.175C42.8053 407.781 36.0106 405.107 38.2382 384.525 89.6134 353.132 169.216 260.745 171.512 156.027 153.051 41.2777 85.986 7.76398 0 9.033 51.5737-21.4217 147.674 30.0385 168.43 90.2228 177.977 120.527 204.1 170.726 190.988 221.423 166.394 325.84 96.7456 363.524 46.7212 430.175Z" stroke="#6A0A18" stroke-width="4.58333" stroke-miterlimit="8" fill="#C4122E" fill-rule="evenodd" transform="matrix(-0.893045 -0.449968 -0.449968 0.893045 2731.5 1214.58)"/><path d="M30.8878 166.322C21.6728 147.439-1.43987 82.1037 0.0706555 52.5705 1.58118 23.0374 16.7633 7.93098 34.5133 0 27.413 23.1129 19.5084 37.4706 20.0109 57.1025 21.0874 99.1544 54.5291 168.211 56.2664 183.544 43.8792 188.378 38.743 178.256 30.8878 166.322Z" stroke="#00604B" stroke-width="4.58333" stroke-miterlimit="8" fill="#009271" fill-rule="evenodd" transform="matrix(-0.893045 -0.449968 -0.449968 0.893045 2827.7 1026.74)"/><path d="M29.3744 143.758C20.6109 127.437-1.36932 70.9652 0.0671936 45.4386 1.50371 19.912 15.942 6.85504 32.8222 0 26.0699 19.9774 18.5526 32.3872 19.0304 49.3558 20.0542 85.7028 51.8574 145.391 53.5095 158.644 41.7293 162.822 36.8447 154.074 29.3744 143.758Z" stroke="#00604B" stroke-width="4.58333" stroke-miterlimit="8" fill="#009271" fill-rule="evenodd" transform="matrix(-0.612893 -0.790166 -0.790166 0.612893 2869.57 1108.61)"/><path d="M38.9419 186.799C28.882 166.184-5.32458 128.169 0.708463 77.7464 6.7415 27.324 30.498 8.65812 49.8755 0 42.1242 25.232 28.3551 54.8003 26.0886 88.7314 23.8519 122.216 67.1219 175.366 76.8553 202.248 62.467 214.268 47.5173 199.827 38.9419 186.799Z" stroke="#00604B" stroke-width="4.58333" stroke-miterlimit="8" fill="#009271" fill-rule="evenodd" transform="matrix(-0.945075 0.326853 0.326853 0.945075 2679.59 917.269)"/><path d="M55.5485 81.2293C46.7851 64.9081 13.2128 49.5443 5.98143 36.0062-1.25 22.4681-4.71982 6.85503 12.1604 0 5.40804 19.9773 56.7787 50.7768 68.4743 68.6794 80.1698 86.5821 80.6818 94.1625 82.334 107.415 70.5538 111.594 63.0188 91.5445 55.5485 81.2293Z" stroke="#00604B" stroke-width="4.58333" stroke-miterlimit="8" fill="#009271" fill-rule="evenodd" transform="matrix(-0.720399 -0.69356 -0.69356 0.720399 2884.78 1178.63)"/><path d="M35.7101 26.4327C32.3238 21.9576 8.06373 11.8958 5.89536e-05 4.14141 1.06405-2.47758 16.4147 0.178378 24.0581 2.9159 31.7016 5.65342 45.3824 17.2536 45.8608 20.5665 42.45 21.6109 37.873 29.0112 35.7101 26.4327Z" stroke="#00604B" stroke-width="4.58333" stroke-miterlimit="8" fill="#009271" fill-rule="evenodd" transform="matrix(-0.612893 -0.790166 -0.790166 0.612893 2822.39 1259.03)"/><path d="M28.9186 14.2983C26.9929 11.9617 4.58569 13.959 0 9.91011 0.605078 6.45408 2.83905 2.55381 8.69646 1.11295 14.5539-0.327915 34.8724-0.464796 35.1444 1.26497 33.2048 1.8103 30.1486 15.6446 28.9186 14.2983Z" stroke="#00604B" stroke-width="4.58333" stroke-miterlimit="8" fill="#009271" fill-rule="evenodd" transform="matrix(-0.893045 -0.449968 -0.449968 0.893045 2800.53 1259.17)"/><path d="M3.87072 109.598C-11.6276 73.1225 22.4287 12.9474 52.6511 3.26555 82.8736-6.41633 122.775 7.14209 133.541 21.5967 144.824 30.0608 142.706 38.3765 135.133 36.9095 127.561 35.4426 111.973 8.37786 88.1063 12.795 56.0822 23.1038 32.4843 92.3722 20.9376 95.1369 6.54937 107.157 12.4461 122.627 3.87072 109.598Z" stroke="#00604B" stroke-width="4.58333" stroke-miterlimit="8" fill="#009271" fill-rule="evenodd" transform="matrix(-0.893045 -0.449968 -0.449968 0.893045 2618.7 1072.86)"/><path d="M1.71471 28.3109C46.0382-5.44611 74.2779-4.59063 93.0951 8.08525 111.912 20.7611 131.949 68.6112 114.617 104.366 102.787 116.909 70.4558 99.9214 62.2789 83.8766 54.102 67.8319 86.2505 12.7441 65.5561 8.09741 50.3002 1.63804 30.3281 48.2469 18.7814 51.0116 4.39313 63.0314-3.75899 40.8863 1.71471 28.3109Z" stroke="#00604B" stroke-width="4.58333" stroke-miterlimit="8" fill="#009271" fill-rule="evenodd" transform="matrix(-0.893045 -0.449968 -0.449968 0.893045 2492.86 1170.14)"/><path d="M45.4965 66.8213C38.3189 53.395 10.8219 40.7564 4.89903 29.6196-1.0238 18.4828-3.86573 5.63912 9.95983 0 4.42941 16.4338 46.5041 41.7703 56.0832 56.4974 65.6623 71.2245 66.0817 77.4604 67.4349 88.3626 57.7864 91.7997 51.6149 75.3067 45.4965 66.8213Z" stroke="#00604B" stroke-width="4.58333" stroke-miterlimit="8" fill="#009271" fill-rule="evenodd" transform="matrix(-0.624206 -0.781259 -0.781259 0.624206 2873.15 1211.8)"/><path d="M41.2343 56.5406C34.7291 45.18 9.80805 34.4859 4.44008 25.0625-0.927889 15.6392-3.50358 4.77152 9.02678 0 4.01445 13.9054 42.1475 35.3438 50.8292 47.8051 59.511 60.2664 59.8911 65.5429 61.1175 74.7678 52.3729 77.676 46.7796 63.7206 41.2343 56.5406Z" stroke="#00604B" stroke-width="4.58333" stroke-miterlimit="8" fill="#009271" fill-rule="evenodd" transform="matrix(-0.535734 -0.844387 -0.844387 0.535734 2866.34 1239.57)"/><path d="M42.0994 32.4417C65.4704 31.7261 51.2969-6.91535 34.6312 12.6406 20.3635 10.5849 23.7268-4.02322 0 1.07224 24.0219 9.78231 30.989 16.9247 42.0994 32.4417Z" stroke="#003E31" stroke-width="4.58333" stroke-miterlimit="8" fill="#00604B" fill-rule="evenodd" transform="matrix(-0.893045 -0.449968 -0.449968 0.893045 2584.89 959.248)"/><path d="M2547.32 971.309C2536.36 973.183 2525.9 981.054 2516.8 982.599 2507.7 984.144 2497.23 984.751 2492.74 980.579 2506.07 982.502 2526.95 970.565 2539 968.007 2551.04 965.45 2556.11 965.438 2564.99 965.234 2567.72 968.137 2554.27 969.659 2547.32 971.309Z" stroke="#009271" stroke-width="4.58333" stroke-miterlimit="8" fill="#08CE45" fill-rule="evenodd"/><path d="M2558.2 978.519C2547.42 981.303 2537.66 990.02 2528.72 992.32 2519.78 994.619 2509.4 996.098 2504.57 992.317 2518.02 993.119 2537.83 979.479 2549.62 975.925 2561.41 972.37 2566.46 971.934 2575.29 970.99 2578.26 973.654 2564.98 976.295 2558.2 978.519Z" stroke="#009271" stroke-width="4.58333" stroke-miterlimit="8" fill="#08CE45" fill-rule="evenodd"/><path d="M2571.83 982.7C2561.15 986.803 2552.21 996.674 2543.35 1000.07 2534.5 1003.46 2524.08 1006.22 2518.7 1003.06 2532.52 1002.19 2551.15 986.183 2562.76 981.188 2574.38 976.194 2579.49 975.133 2588.4 973.098 2591.74 975.376 2578.49 979.649 2571.83 982.7Z" stroke="#009271" stroke-width="4.58333" stroke-miterlimit="8" fill="#08CE45" fill-rule="evenodd"/><path d="M2466.51 1063.92C2455.81 1060.89 2442.98 1063.5 2434.1 1060.98 2425.22 1058.46 2415.51 1054.5 2413.25 1048.8 2424.46 1056.27 2448.44 1054.48 2460.41 1057.36 2472.39 1060.23 2476.97 1062.4 2485.07 1066.04 2486.29 1069.83 2473.49 1065.42 2466.51 1063.92Z" stroke="#009271" stroke-width="4.58333" stroke-miterlimit="8" fill="#08CE45" fill-rule="evenodd"/><path d="M2464.28 1074.49C2453.36 1072.37 2440.79 1076.03 2431.73 1074.26 2422.68 1072.49 2412.67 1069.36 2409.94 1063.87 2421.73 1070.38 2445.49 1066.59 2457.65 1068.46 2469.82 1070.32 2474.58 1072.1 2482.95 1075.05 2484.48 1078.73 2471.36 1075.4 2464.28 1074.49Z" stroke="#009271" stroke-width="4.58333" stroke-miterlimit="8" fill="#08CE45" fill-rule="evenodd"/><path d="M2463.87 1081.41C2452.47 1080.52 2440.15 1085.58 2430.69 1084.84 2421.24 1084.09 2410.65 1082.1 2407.15 1076.93 2420 1082.09 2443.71 1075.66 2456.34 1076.14 2468.98 1076.63 2474.05 1077.87 2482.96 1079.87 2484.99 1083.36 2471.19 1081.52 2463.87 1081.41Z" stroke="#009271" stroke-width="4.58333" stroke-miterlimit="8" fill="#08CE45" fill-rule="evenodd"/><path d="M2459.17 1091.43C2447.77 1090.54 2435.44 1095.61 2425.99 1094.86 2416.54 1094.12 2405.94 1092.12 2402.45 1086.96 2415.3 1092.12 2439 1085.68 2451.64 1086.17 2464.27 1086.66 2469.34 1087.9 2478.26 1089.89 2480.29 1093.39 2466.49 1091.54 2459.17 1091.43Z" stroke="#009271" stroke-width="4.58333" stroke-miterlimit="8" fill="#08CE45" fill-rule="evenodd"/><path d="M2374.59 1211.18C2372.17 1222.04 2375.49 1234.7 2373.48 1243.7 2371.46 1252.71 2368.06 1262.62 2362.49 1265.21 2369.32 1253.6 2366.19 1229.75 2368.38 1217.63 2370.58 1205.52 2372.49 1200.82 2375.66 1192.53 2379.39 1191.1 2375.7 1204.13 2374.59 1211.18Z" stroke="#009271" stroke-width="4.58333" stroke-miterlimit="8" fill="#08CE45" fill-rule="evenodd"/><path d="M2385.4 1211.85C2383.9 1222.88 2388.26 1235.22 2387.01 1244.36 2385.75 1253.5 2383.18 1263.67 2377.85 1266.71 2383.69 1254.56 2378.57 1231.06 2379.75 1218.81 2380.93 1206.55 2382.44 1201.71 2384.91 1193.18 2388.5 1191.44 2385.91 1204.74 2385.4 1211.85Z" stroke="#009271" stroke-width="4.58333" stroke-miterlimit="8" fill="#08CE45" fill-rule="evenodd"/><path d="M2396.02 1207.11C2395.18 1215.26 2400.09 1225.11 2399.38 1231.87 2398.68 1238.63 2396.76 1246.01 2391.77 1247.67 2396.75 1239.19 2390.48 1220.81 2390.94 1211.69 2391.39 1202.57 2392.58 1199.09 2394.5 1192.93 2397.88 1192.05 2396.11 1201.79 2396.02 1207.11Z" stroke="#009271" stroke-width="4.58333" stroke-miterlimit="8" fill="#08CE45" fill-rule="evenodd"/><path d="M2363.56 1216.08C2361.34 1224.34 2364.58 1235.11 2362.73 1241.96 2360.88 1248.81 2357.72 1256.14 2352.46 1257.17 2358.86 1249.13 2355.72 1229.42 2357.72 1220.11 2359.72 1210.8 2361.5 1207.38 2364.45 1201.32 2367.97 1200.86 2364.56 1210.63 2363.56 1216.08Z" stroke="#009271" stroke-width="4.58333" stroke-miterlimit="8" fill="#08CE45" fill-rule="evenodd"/><path d="M0.0915299 0.200781C7.02253-1.26694 46.0684 5.25837 46.6581 21.3078 47.2478 37.3572 23.8944 56.5211 7.15289 19.1101 27.622 48.7425 46.7126 34.0855 42.8254 18.6495 38.9381 3.21358-2.19163-0.043762 0.0915299 0.200781Z" stroke="#E4681C" stroke-width="4.58333" stroke-miterlimit="8" fill="#E4681C" fill-rule="evenodd" transform="matrix(-0.893045 -0.449968 -0.449968 0.893045 2480 1106.83)"/><path d="M0.000120496-0.000120495C22.1157 9.59912 52.8674 1.57294 63.0658 5.93751 73.2642 10.3021 75.2185 28.164 61.1908 26.1874 72.9953 25.5788 72.1322 11.7653 61.9339 7.40068 51.7355 3.03611 27.3152 17.5882 0.000120496-0.000120495Z" stroke="#E4681C" stroke-width="4.58333" stroke-miterlimit="8" fill="#E4681C" fill-rule="evenodd" transform="matrix(-0.698615 0.715498 0.715498 0.698615 2357 1209.74)"/><path d="M79.6107 106.434C59.7458 102.431 61.8607 97.2946 33.3848 88.3061 17.0698 79.0911-0.604855 62.6249 1.20778 41.6267-5.43898 1.21678 16.843-5.50536 31.5719 3.55848 46.3008 12.6223 29.5328 36.3395 13.4443 47.0653 13.4443 69.5738 38.8231 79.8465 79.6107 106.434Z" stroke="#6A0A18" stroke-width="4.58333" stroke-miterlimit="8" fill="#C4122E" fill-rule="evenodd" transform="matrix(-0.893045 -0.449968 -0.449968 0.893045 2704.72 1138.37)"/><path d="M12.8534 41.4581C11.7714 55.615 8.09827 64.0541 23.692 88.0761 8.09398 79.959-0.578273 55.1641 1.1547 36.6675-5.19995 1.07182 16.1028-4.84948 30.1844 3.13454 44.266 11.1186 28.2348 32.0102 12.8534 41.4581Z" stroke="#6A0A18" stroke-width="4.58333" stroke-miterlimit="8" fill="#C4122E" fill-rule="evenodd" transform="matrix(-0.878257 0.478189 0.478189 0.878257 2475.3 1177.69)"/><path d="M2754.6 1237.11C2748.09 1233.03 2719.39 1217.07 2720.42 1216.41 2734.92 1222.09 2751.72 1226.07 2760.73 1233.17 2781.1 1242.2 2777.51 1254.35 2768.99 1258.34 2760.47 1262.34 2754.68 1247.63 2754.6 1237.11Z" stroke="#6A0A18" stroke-width="4.58333" stroke-miterlimit="8" fill="#C4122E" fill-rule="evenodd"/><path d="M2761.65 1231.3C2754.38 1228.8 2722.82 1219.74 2723.67 1218.87 2739.08 1221.13 2756.34 1221.21 2766.73 1226.08 2788.61 1230.28 2787.86 1242.92 2780.46 1248.74 2773.06 1254.56 2764.1 1241.54 2761.65 1231.3Z" stroke="#6A0A18" stroke-width="4.58333" stroke-miterlimit="8" fill="#C4122E" fill-rule="evenodd"/><path d="M2763.6 1222.62C2756.01 1221.44 2723.35 1218.05 2724.03 1217.05 2739.6 1216.56 2756.61 1213.61 2767.68 1216.58 2789.97 1216.88 2791.44 1229.46 2785.18 1236.48 2778.92 1243.51 2767.82 1232.26 2763.6 1222.62Z" stroke="#6A0A18" stroke-width="4.58333" stroke-miterlimit="8" fill="#C4122E" fill-rule="evenodd"/><path d="M2756.3 1212.67C2748.67 1213.61 2716.33 1219.28 2716.71 1218.13 2731.55 1213.4 2747.11 1205.92 2758.57 1205.75 2780.09 1199.94 2784.95 1211.64 2780.84 1220.11 2776.74 1228.58 2762.98 1220.8 2756.3 1212.67Z" stroke="#6A0A18" stroke-width="4.58333" stroke-miterlimit="8" fill="#C4122E" fill-rule="evenodd"/><path d="M2740.71 1206.64C2734.25 1210.8 2719.95 1218.47 2719.79 1217.27 2732.59 1209.15 2729.5 1204.55 2739.75 1199.42 2756.61 1184.84 2766.06 1193.26 2766.05 1202.68 2766.04 1212.09 2750.26 1211.06 2740.71 1206.64Z" stroke="#6A0A18" stroke-width="4.58333" stroke-miterlimit="8" fill="#C4122E" fill-rule="evenodd"/><path d="M20.9779 48.9686C17.6684 39.1294 4.98983 29.8675 2.25888 21.7061-0.472062 13.5447-1.78244 4.13251 4.59236 0 2.04235 12.0432 21.4425 30.6105 25.8593 41.403 30.2761 52.1954 30.4695 56.7653 31.0934 64.7547 26.6446 67.2735 23.799 55.187 20.9779 48.9686Z" stroke="#6A0A18" stroke-width="4.58333" stroke-miterlimit="8" fill="#C4122E" fill-rule="evenodd" transform="matrix(-0.706723 -0.707491 -0.707491 0.706723 2572.27 1230.56)"/><path d="M20.9779 48.9686C17.6684 39.1294 4.98983 29.8675 2.25888 21.7061-0.472062 13.5447-1.78244 4.13251 4.59236 0 2.04235 12.0432 21.4425 30.6105 25.8593 41.403 30.2761 52.1954 30.4695 56.7653 31.0934 64.7547 26.6446 67.2735 23.799 55.187 20.9779 48.9686Z" stroke="#6A0A18" stroke-width="4.58333" stroke-miterlimit="8" fill="#C4122E" fill-rule="evenodd" transform="matrix(-0.00551434 -0.999985 -0.999985 0.00551434 2672.38 1222.86)"/><path d="M2696.4 1214.6C2700.78 1223.95 2713.87 1231.57 2717.5 1239.33 2721.12 1247.09 2723.57 1256.26 2718.12 1261.14 2718.95 1248.89 2698.34 1232.86 2692.8 1222.7 2687.25 1212.54 2686.48 1208.03 2684.86 1200.19 2688.7 1197.14 2692.94 1208.78 2696.4 1214.6Z" stroke="#6A0A18" stroke-width="4.58333" stroke-miterlimit="8" fill="#C4122E" fill-rule="evenodd"/><path d="M18.6572 48.9686C15.7138 39.1294 4.43784 29.8675 2.009 21.7061-0.419841 13.5447-1.58526 4.13251 4.08433 0 1.81641 12.0432 19.0704 30.6105 22.9986 41.403 26.9268 52.1954 27.0988 56.7653 27.6537 64.7547 23.6971 67.2735 21.1663 55.187 18.6572 48.9686Z" stroke="#6A0A18" stroke-width="4.58333" stroke-miterlimit="8" fill="#C4122E" fill-rule="evenodd" transform="matrix(0.279022 -0.960285 -0.960285 -0.279022 2746.26 1238)"/><path d="M20.9779 67.8633C17.6684 54.2276 4.98983 41.3919 2.25888 30.0815-0.472062 18.771-1.78244 5.72705 4.59236 0 2.04235 16.6901 21.4425 42.4216 25.8593 57.3784 30.2761 72.3352 30.4695 78.6683 31.0934 89.7405 26.6446 93.2311 23.799 76.481 20.9779 67.8633Z" stroke="#6A0A18" stroke-width="4.58333" stroke-miterlimit="8" fill="#C4122E" fill-rule="evenodd" transform="matrix(-0.979126 0.203252 0.203252 0.979126 2501.1 1178.86)"/><path d="M0 41.2412C11.7454 53.8931 30.855 68.5839 47.4722 70.0189 63.1831 52.6463 45.584 31.4217 50.8712 12.6896 46.9813 26.2099 46.4905 17.297 40.561 34.8963L42.7136 5.43836C39.0879 13.1426 35.4626 22.8865 30.1373 41.4675 29.3821 26.8141 33.3853 16.2397 35.0094 3.62572 31.3839 10.1216 24.3592 29.6466 15.6351 39.0883 19.865 26.3987 25.3411 7.70427 25.9453 0 16.7302 16.9193 2.87034 17.9772 0 41.2412Z" stroke="#009271" stroke-width="4.58333" stroke-miterlimit="8" fill="#08CE45" fill-rule="evenodd" transform="matrix(-0.893045 -0.449968 -0.449968 0.893045 2417.05 1183.18)"/><path d="M2.85138 131.469C-12.6469 94.9933 38.7062 25.603 68.3999 7.46141 98.0936-10.6802 170.248 8.16519 181.014 22.6198 192.297 31.084 182.247 31.8464 170.823 31.1349 159.398 30.4234 128.984 17.0237 112.466 18.3504 95.9474 19.6771 84.7196 34.0583 70.8056 50.4256 38.3107 67.6991 30.8664 122.006 20.3715 136.948 10.062 136.279 11.4268 144.498 2.85138 131.469Z" stroke="#00604B" stroke-width="4.58333" stroke-miterlimit="8" fill="#009271" fill-rule="evenodd" transform="matrix(-0.893045 -0.449968 -0.449968 0.893045 2709.04 1020.14)"/><path d="M77.7662 94.0161C55.8169 83.1936 57.3791 90.2457 30.9661 81.9085 15.8331 73.3611-0.561035 58.0878 1.12028 38.6109-5.04494 1.12862 15.6228-5.10651 29.2846 3.30067 42.9465 11.7078 27.3932 33.7068 12.4703 43.6554 12.4703 64.5333 39.9336 69.3548 77.7662 94.0161Z" stroke="#6A0A18" stroke-width="4.58333" stroke-miterlimit="8" fill="#C4122E" fill-rule="evenodd" transform="matrix(-0.98406 -0.177839 -0.177839 0.98406 2650.45 1123.99)"/><path d="M0.100377 14.3587C-0.731587 6.03205 3.64472-0.772968 11.9323 0.0708223 20.2198 0.914613 35.3321 4.96691 49.826 19.4214 65.0153 27.8855 60.2567 35.5781 51.9691 34.7343 43.6816 33.8905 32.2301 9.94154 0.100377 14.3587Z" stroke="#003E31" stroke-width="4.58333" stroke-miterlimit="8" fill="#00604B" fill-rule="evenodd" transform="matrix(-0.893045 -0.449968 -0.449968 0.893045 2544.69 1036.96)"/><path d="M0 6.30535C15.2177-6.78568 34.17 4.02896 42.8147 7.42496 51.4594 10.821 62.4134 23.5301 55.2775 23.3435 48.1416 23.157 39.9365 3.73422 0 6.30535Z" stroke="#003E31" stroke-width="4.58333" stroke-miterlimit="8" fill="#00604B" fill-rule="evenodd" transform="matrix(-0.234605 -0.972091 -0.972091 0.234605 2628.89 1029.9)"/><path d="M19.5889 43.8319C19.8777 56.2737 29.9368 85.5028 25.9945 114.643 23.7115 85.7042 9.03622 60.9068 10.7692 42.4102-5.26751 20.8849-3.71897 0.167854 17.6039 0.000754402 38.9267-0.166346 34.9703 34.3839 19.5889 43.8319Z" stroke="#6A0A18" stroke-width="4.58333" stroke-miterlimit="8" fill="#C4122E" fill-rule="evenodd" transform="matrix(-0.947245 -0.320509 -0.320509 0.947245 2580.77 1156.81)"/><path d="M3.93594 97.7717C-11.5624 61.2958 22.267 22.4965 43.6523 8.20723 65.0376-6.08209 116.949 0.300587 132.247 12.0361 133.56 30.9235 138.768 47.3216 124.775 53.6344 110.782 59.9472 87.1124 36.8857 48.2901 49.9135 16.2659 60.2223 42.0666 115.442 30.5198 118.206 16.1315 130.226 12.5114 110.8 3.93594 97.7717Z" stroke="#00604B" stroke-width="4.58333" stroke-miterlimit="8" fill="#009271" fill-rule="evenodd" transform="matrix(-0.893045 -0.449968 -0.449968 0.893045 2591.87 1110.27)"/><path d="M12.8534 41.4583C13.1422 53.9001 29.5249 64.7287 20.5276 99.3898 15.5077 68.0914-0.578273 55.1643 1.1547 36.6676-5.19995 1.07182 16.1028-4.8495 30.1844 3.13455 44.266 11.1186 28.2348 32.0103 12.8534 41.4583Z" stroke="#6A0A18" stroke-width="4.58333" stroke-miterlimit="8" fill="#C4122E" fill-rule="evenodd" transform="matrix(-0.893045 -0.449968 -0.449968 0.893045 2548.01 1200.64)"/><path d="M0 49.6444C16.7358 56.7892 22.172 61.6035 34.5125 69.0326 50.2233 51.66 48.4991 34.5941 53.7863 15.862L36.4142 43.7372C41.716 26.7044 43.2591 6.1342 42.0033 5.43835 38.3776 13.1426 35.184 28.0238 28.88 39.5616 29.7959 21.7138 32.4926 15.6044 34.2991 3.62571 30.6736 10.1215 22.5786 33.6105 16.3095 39.1531 22.7967 24.6051 24.6308 7.70426 25.235 0 16.02 16.9193 2.87033 26.3805 0 49.6444Z" stroke="#009271" stroke-width="4.58333" stroke-miterlimit="8" fill="#08CE45" fill-rule="evenodd" transform="matrix(0.665773 -0.746155 -0.746155 -0.665773 2488.39 1127.66)"/><path d="M9.17779 32.1293C9.38402 41.7715 24.1825 60.9013 22.7903 60.2826 11.6527 53.9919-0.412907 42.7512 0.824499 28.4166-3.71295 0.830638 11.498-3.75826 21.5527 2.42921 31.6075 8.61668 20.1607 24.8073 9.17779 32.1293Z" stroke="#6A0A18" stroke-width="4.58333" stroke-miterlimit="8" fill="#C4122E" fill-rule="evenodd" transform="matrix(-0.691352 -0.722518 -0.722518 0.691352 2741.05 1177.32)"/><path d="M50.4095 67.3938C37.831 64.8591 39.1702 61.6067 21.1392 55.9152 10.8086 50.0803-0.382994 39.6539 0.764768 26.3579-3.44396 0.77046 10.665-3.48598 19.9913 2.25322 29.3177 7.99242 18.7001 23.0101 8.5129 29.8016 8.5129 44.054 24.5828 50.5586 50.4095 67.3938Z" stroke="#6A0A18" stroke-width="4.58333" stroke-miterlimit="8" fill="#C4122E" fill-rule="evenodd" transform="matrix(-0.840747 -0.541428 -0.541428 0.840747 2716.73 1170.02)"/></g></svg>