<svg width="2339" height="1560" xmlns="http://www.w3.org/2000/svg" xmlns:xlink="http://www.w3.org/1999/xlink" xml:space="preserve" overflow="hidden"><defs><clipPath id="clip0"><rect x="1031" y="458" width="2339" height="1560"/></clipPath></defs><g clip-path="url(#clip0)" transform="translate(-1031 -458)"><rect x="1031.5" y="458.5" width="2338" height="1559" stroke="#000000" stroke-width="1.14583" stroke-miterlimit="8" fill="#F2F2F2"/><path d="M1031 458 1132.77 458 1288.39 559.083 1283.26 502.619 1408.35 583.867 1413.48 640.331 1527.32 714.277 1522.19 657.814 1647.27 739.062 1652.41 795.525 1772.21 873.341 1767.07 816.878 1892.16 898.126 1897.29 954.589 2200 1151.21 2502.71 954.589 2507.84 898.126 2632.93 816.878 2627.79 873.341 2747.59 795.526 2752.73 739.062 2877.81 657.814 2872.68 714.277 2986.52 640.331 2991.65 583.867 3116.74 502.619 3111.61 559.083 3267.23 458 3369 458 3369 577.782 3203.86 685.046 3244.07 698.742 3118.99 779.99 3078.78 766.294 2964.94 840.241 3005.15 853.937 2880.06 935.185 2839.85 921.489 2720.05 999.305 2760.26 1013 2635.18 1094.25 2594.97 1080.55 2343.09 1244.16 2575.13 1394.88 2628.79 1376.6 2753.87 1457.85 2700.21 1476.12 2820.23 1554.08 2873.89 1535.81 2998.97 1617.05 2945.31 1635.33 3065.33 1713.29 3118.99 1695.01 3244.07 1776.26 3190.42 1794.53 3369 1910.53 3369 2017 3246.73 2017 3112.89 1930.07 3116.74 1972.38 2991.65 1891.13 2987.81 1848.82 2867.79 1770.86 2871.64 1813.18 2746.55 1731.93 2742.71 1689.62 2622.69 1611.66 2626.53 1653.97 2501.45 1572.72 2497.61 1530.41 2200 1337.1 1902.4 1530.41 1898.55 1572.72 1773.47 1653.97 1777.31 1611.66 1657.29 1689.62 1653.45 1731.93 1528.36 1813.18 1532.21 1770.86 1412.19 1848.82 1408.35 1891.13 1283.26 1972.38 1287.11 1930.07 1153.27 2017 1031 2017 1031 1910.53 1209.58 1794.53 1155.93 1776.26 1281.01 1695.01 1334.67 1713.29 1454.69 1635.33 1401.03 1617.05 1526.11 1535.81 1579.77 1554.08 1699.79 1476.12 1646.13 1457.85 1771.21 1376.6 1824.87 1394.88 2056.91 1244.16 1805.03 1080.55 1764.82 1094.25 1639.74 1013 1679.95 999.305 1560.15 921.489 1519.94 935.185 1394.85 853.938 1435.06 840.241 1321.22 766.294 1281.01 779.99 1155.93 698.743 1196.14 685.046 1031 577.783Z" fill="#C00000" fill-rule="evenodd"/><path d="M1844 1127.64 1983.26 1087.95 1979.98 949.893 2117.21 995.521 2200 882 2282.79 995.521 2420.02 949.893 2416.74 1087.95 2556 1127.64 2467.9 1237.5 2556 1347.36 2416.74 1387.05 2420.02 1525.11 2282.79 1479.48 2200 1593 2117.21 1479.48 1979.98 1525.11 1983.26 1387.05 1844 1347.36 1932.1 1237.5Z" stroke="#F2F2F2" stroke-width="27.5" stroke-miterlimit="8" fill="#FC8624" fill-rule="evenodd"/><path d="M2224.37 1204.03 2357.13 1107.79 2351.2 1099.86C2342.02 1089.84 2331.71 1080.6 2320.28 1072.31 2308.85 1064.03 2296.85 1057.1 2284.47 1051.48L2275.08 1048.3ZM2200 1196.13 2250.82 1040.08 2246.39 1038.58C2220.49 1032.58 2193.85 1031.75 2167.99 1035.83L2149.36 1040.63ZM2239.43 1224.72 2403.29 1224.72 2402.11 1205.56C2398.01 1179.75 2388.98 1154.73 2375.26 1132.01L2372.47 1128.27ZM2175.63 1204.03 2124.84 1048.07 2094.28 1062.62C2082.9 1069.46 2072.09 1077.48 2062.06 1086.63L2043.03 1107.9ZM2372.03 1346.42 2386.43 1321.79C2392.05 1309.43 2396.35 1296.7 2399.36 1283.79L2403.78 1250.28 2239.43 1250.28ZM1996.22 1224.72 2160.57 1224.72 2027.97 1128.58 2013.57 1153.21C2007.95 1165.57 2003.65 1178.3 2000.64 1191.21ZM2275.16 1426.93 2305.72 1412.38C2317.1 1405.54 2327.91 1397.52 2337.94 1388.37L2356.97 1367.1 2224.37 1270.97ZM2027.53 1346.73 2160.57 1250.28 1996.71 1250.28 1997.89 1269.44C2001.99 1295.25 2011.02 1320.27 2024.74 1342.99ZM2149.18 1434.92 2153.61 1436.42C2179.51 1442.42 2206.15 1443.25 2232.01 1439.17L2250.64 1434.37 2200 1278.87ZM2079.72 1402.69C2091.15 1410.97 2103.15 1417.9 2115.53 1423.52L2124.92 1426.7 2175.63 1270.97 2042.87 1367.21 2048.8 1375.14C2057.98 1385.16 2068.29 1394.4 2079.72 1402.69ZM2065.99 1421.54C1964.13 1347.69 1941.55 1205.43 2015.56 1103.79 2089.57 1002.15 2232.14 979.615 2334.01 1053.46 2435.87 1127.31 2458.45 1269.57 2384.44 1371.21 2310.43 1472.85 2167.86 1495.39 2065.99 1421.54Z" fill="#F2F2F2" fill-rule="evenodd"/></g></svg>