<svg width="2339" height="1560" xmlns="http://www.w3.org/2000/svg" xmlns:xlink="http://www.w3.org/1999/xlink" xml:space="preserve" overflow="hidden"><defs><clipPath id="clip0"><rect x="1031" y="458" width="2339" height="1560"/></clipPath></defs><g clip-path="url(#clip0)" transform="translate(-1031 -458)"><rect x="1031.5" y="458.5" width="2338" height="1559" stroke="#000000" stroke-width="1.14583" stroke-miterlimit="8" fill="#F2F2F2"/><path d="M1031 458 1132.77 458 1288.39 559.083 1283.26 502.619 1408.35 583.867 1413.48 640.331 1527.32 714.277 1522.19 657.814 1647.27 739.062 1652.41 795.525 1772.21 873.341 1767.07 816.878 1892.16 898.126 1897.29 954.589 2200 1151.21 2502.71 954.589 2507.84 898.126 2632.93 816.878 2627.79 873.341 2747.59 795.526 2752.73 739.062 2877.81 657.814 2872.68 714.277 2986.52 640.331 2991.65 583.867 3116.74 502.619 3111.61 559.083 3267.23 458 3369 458 3369 577.782 3203.86 685.046 3244.07 698.742 3118.99 779.99 3078.78 766.294 2964.94 840.241 3005.15 853.937 2880.06 935.185 2839.85 921.489 2720.05 999.305 2760.26 1013 2635.18 1094.25 2594.97 1080.55 2343.09 1244.16 2575.13 1394.88 2628.79 1376.6 2753.87 1457.85 2700.21 1476.12 2820.23 1554.08 2873.89 1535.81 2998.97 1617.05 2945.31 1635.33 3065.33 1713.29 3118.99 1695.01 3244.07 1776.26 3190.42 1794.53 3369 1910.53 3369 2017 3246.73 2017 3112.89 1930.07 3116.74 1972.38 2991.65 1891.13 2987.81 1848.82 2867.79 1770.86 2871.64 1813.18 2746.55 1731.93 2742.71 1689.62 2622.69 1611.66 2626.53 1653.97 2501.45 1572.72 2497.61 1530.41 2200 1337.1 1902.4 1530.41 1898.55 1572.72 1773.47 1653.97 1777.31 1611.66 1657.29 1689.62 1653.45 1731.93 1528.36 1813.18 1532.21 1770.86 1412.19 1848.82 1408.35 1891.13 1283.26 1972.38 1287.11 1930.07 1153.27 2017 1031 2017 1031 1910.53 1209.58 1794.53 1155.93 1776.26 1281.01 1695.01 1334.67 1713.29 1454.69 1635.33 1401.03 1617.05 1526.11 1535.81 1579.77 1554.08 1699.79 1476.12 1646.13 1457.85 1771.21 1376.6 1824.87 1394.88 2056.91 1244.16 1805.03 1080.55 1764.82 1094.25 1639.74 1013 1679.95 999.305 1560.15 921.489 1519.94 935.185 1394.85 853.938 1435.06 840.241 1321.22 766.294 1281.01 779.99 1155.93 698.743 1196.14 685.046 1031 577.783Z" fill="#C00000" fill-rule="evenodd"/><path d="M1875 1237.5C1875 1058.28 2020.51 913 2200 913 2379.49 913 2525 1058.28 2525 1237.5 2525 1416.72 2379.49 1562 2200 1562 2020.51 1562 1875 1416.72 1875 1237.5Z" fill="#FC8624" fill-rule="evenodd"/><path d="M2231.21 1194.47 2401.24 1070.72 2393.64 1060.53C2381.89 1047.66 2368.68 1035.77 2354.04 1025.12 2339.4 1014.47 2324.04 1005.55 2308.18 998.336L2296.15 994.245ZM2200 1184.31 2265.08 983.676 2259.41 981.747C2226.25 974.033 2192.12 972.96 2159 978.214L2135.15 984.383ZM2250.5 1221.06 2460.36 1221.06 2458.84 1196.43C2453.6 1163.26 2442.03 1131.08 2424.46 1101.87L2420.88 1097.06ZM2168.79 1194.47 2103.75 993.944 2064.6 1012.65C2050.02 1021.45 2036.19 1031.76 2023.33 1043.53L1998.96 1070.87ZM2420.32 1377.53 2438.75 1345.87C2445.96 1329.99 2451.47 1313.62 2455.32 1297.01L2460.98 1253.93 2250.5 1253.93ZM1939.02 1221.06 2149.5 1221.06 1979.68 1097.47 1961.24 1129.13C1954.04 1145.01 1948.53 1161.38 1944.68 1177.99ZM2296.25 1481.06 2335.4 1462.35C2349.98 1453.55 2363.81 1443.24 2376.67 1431.47L2401.04 1404.13 2231.21 1280.53ZM1979.12 1377.94 2149.5 1253.93 1939.64 1253.93 1941.16 1278.57C1946.4 1311.75 1957.97 1343.92 1975.54 1373.13ZM2134.92 1491.32 2140.59 1493.25C2173.75 1500.97 2207.87 1502.04 2241 1496.79L2264.85 1490.62 2200 1290.69ZM2045.96 1449.88C2060.6 1460.53 2075.96 1469.45 2091.82 1476.66L2103.85 1480.75 2168.79 1280.53 1998.76 1404.27 2006.36 1414.47C2018.11 1427.34 2031.32 1439.23 2045.96 1449.88ZM2028.38 1474.12C1897.92 1379.17 1869 1196.27 1963.78 1065.58 2058.57 934.903 2241.16 905.933 2371.62 1000.88 2502.08 1095.83 2531 1278.73 2436.22 1409.42 2341.43 1540.1 2158.84 1569.07 2028.38 1474.12Z" fill="#F2F2F2" fill-rule="evenodd"/></g></svg>
