<svg width="2338" height="1559" xmlns="http://www.w3.org/2000/svg" xmlns:xlink="http://www.w3.org/1999/xlink" xml:space="preserve" overflow="hidden"><defs><clipPath id="clip0"><rect x="1025" y="456" width="2338" height="1559"/></clipPath></defs><g clip-path="url(#clip0)" transform="translate(-1025 -456)"><rect x="1025" y="456" width="2338" height="1559"/><rect x="1025" y="456" width="325" height="1559" fill="#60A9DA"/><rect x="3039" y="456" width="324" height="1559" fill="#60A9DA"/><path d="M2116 699C2116 655.922 2150.92 621 2194 621 2237.08 621 2272 655.922 2272 699 2272 742.079 2237.08 777 2194 777 2150.92 777 2116 742.079 2116 699Z" fill="#FFB81D" fill-rule="evenodd"/><path d="M2322 740C2322 696.922 2356.7 662 2399.5 662 2442.3 662 2477 696.922 2477 740 2477 783.079 2442.3 818 2399.5 818 2356.7 818 2322 783.079 2322 740Z" fill="#FFB81D" fill-rule="evenodd"/><path d="M2496 856C2496 812.922 2530.92 778 2574 778 2617.08 778 2652 812.922 2652 856 2652 899.079 2617.08 934 2574 934 2530.92 934 2496 899.079 2496 856Z" fill="#FFB81D" fill-rule="evenodd"/><path d="M2612 1030.5C2612 987.698 2646.92 953 2690 953 2733.08 953 2768 987.698 2768 1030.5 2768 1073.3 2733.08 1108 2690 1108 2646.92 1108 2612 1073.3 2612 1030.5Z" fill="#FFB81D" fill-rule="evenodd"/><path d="M2653 1236C2653 1192.92 2687.92 1158 2731 1158 2774.08 1158 2809 1192.92 2809 1236 2809 1279.08 2774.08 1314 2731 1314 2687.92 1314 2653 1279.08 2653 1236Z" fill="#FFB81D" fill-rule="evenodd"/><path d="M2612 1441.5C2612 1398.7 2646.92 1364 2690 1364 2733.08 1364 2768 1398.7 2768 1441.5 2768 1484.3 2733.08 1519 2690 1519 2646.92 1519 2612 1484.3 2612 1441.5Z" fill="#FFB81D" fill-rule="evenodd"/><path d="M2496 1615.5C2496 1572.7 2530.92 1538 2574 1538 2617.08 1538 2652 1572.7 2652 1615.5 2652 1658.3 2617.08 1693 2574 1693 2530.92 1693 2496 1658.3 2496 1615.5Z" fill="#FFB81D" fill-rule="evenodd"/><path d="M2322 1732C2322 1688.92 2356.7 1654 2399.5 1654 2442.3 1654 2477 1688.92 2477 1732 2477 1775.08 2442.3 1810 2399.5 1810 2356.7 1810 2322 1775.08 2322 1732Z" fill="#FFB81D" fill-rule="evenodd"/><path d="M2116 1773C2116 1729.92 2150.92 1695 2194 1695 2237.08 1695 2272 1729.92 2272 1773 2272 1816.08 2237.08 1851 2194 1851 2150.92 1851 2116 1816.08 2116 1773Z" fill="#FFB81D" fill-rule="evenodd"/><path d="M1911 1732C1911 1688.92 1945.7 1654 1988.5 1654 2031.3 1654 2066 1688.92 2066 1732 2066 1775.08 2031.3 1810 1988.5 1810 1945.7 1810 1911 1775.08 1911 1732Z" fill="#FFB81D" fill-rule="evenodd"/><path d="M1737 1615.5C1737 1572.7 1771.7 1538 1814.5 1538 1857.3 1538 1892 1572.7 1892 1615.5 1892 1658.3 1857.3 1693 1814.5 1693 1771.7 1693 1737 1658.3 1737 1615.5Z" fill="#FFB81D" fill-rule="evenodd"/><path d="M1620 1441.5C1620 1398.7 1654.92 1364 1698 1364 1741.08 1364 1776 1398.7 1776 1441.5 1776 1484.3 1741.08 1519 1698 1519 1654.92 1519 1620 1484.3 1620 1441.5Z" fill="#FFB81D" fill-rule="evenodd"/><path d="M1579 1236C1579 1192.92 1613.92 1158 1657 1158 1700.08 1158 1735 1192.92 1735 1236 1735 1279.08 1700.08 1314 1657 1314 1613.92 1314 1579 1279.08 1579 1236Z" fill="#FFB81D" fill-rule="evenodd"/><path d="M1620 1030.5C1620 987.698 1654.92 953 1698 953 1741.08 953 1776 987.698 1776 1030.5 1776 1073.3 1741.08 1108 1698 1108 1654.92 1108 1620 1073.3 1620 1030.5Z" fill="#FFB81D" fill-rule="evenodd"/><path d="M1737 856C1737 812.922 1771.7 778 1814.5 778 1857.3 778 1892 812.922 1892 856 1892 899.079 1857.3 934 1814.5 934 1771.7 934 1737 899.079 1737 856Z" fill="#FFB81D" fill-rule="evenodd"/><path d="M1911 740C1911 696.922 1945.7 662 1988.5 662 2031.3 662 2066 696.922 2066 740 2066 783.079 2031.3 818 1988.5 818 1945.7 818 1911 783.079 1911 740Z" fill="#FFB81D" fill-rule="evenodd"/><path d="M2115 897C2115 853.37 2150.37 818 2194 818 2237.63 818 2273 853.37 2273 897 2273 940.631 2237.63 976 2194 976 2150.37 976 2115 940.631 2115 897Z" fill="#FFB81D" fill-rule="evenodd"/><path d="M2284 942C2284 898.37 2319.59 863 2363.5 863 2407.41 863 2443 898.37 2443 942 2443 985.631 2407.41 1021 2363.5 1021 2319.59 1021 2284 985.631 2284 942Z" fill="#FFB81D" fill-rule="evenodd"/><path d="M2409 1066C2409 1022.37 2444.37 987 2488 987 2531.63 987 2567 1022.37 2567 1066 2567 1109.63 2531.63 1145 2488 1145 2444.37 1145 2409 1109.63 2409 1066Z" fill="#FFB81D" fill-rule="evenodd"/><path d="M2454 1236C2454 1192.37 2489.37 1157 2533 1157 2576.63 1157 2612 1192.37 2612 1236 2612 1279.63 2576.63 1315 2533 1315 2489.37 1315 2454 1279.63 2454 1236Z" fill="#FFB81D" fill-rule="evenodd"/><path d="M2409 1405.5C2409 1361.59 2444.37 1326 2488 1326 2531.63 1326 2567 1361.59 2567 1405.5 2567 1449.41 2531.63 1485 2488 1485 2444.37 1485 2409 1449.41 2409 1405.5Z" fill="#FFB81D" fill-rule="evenodd"/><path d="M2284 1529.5C2284 1485.59 2319.59 1450 2363.5 1450 2407.41 1450 2443 1485.59 2443 1529.5 2443 1573.41 2407.41 1609 2363.5 1609 2319.59 1609 2284 1573.41 2284 1529.5Z" fill="#FFB81D" fill-rule="evenodd"/><path d="M2115 1575C2115 1531.37 2150.37 1496 2194 1496 2237.63 1496 2273 1531.37 2273 1575 2273 1618.63 2237.63 1654 2194 1654 2150.37 1654 2115 1618.63 2115 1575Z" fill="#FFB81D" fill-rule="evenodd"/><path d="M1945 1529.5C1945 1485.59 1980.59 1450 2024.5 1450 2068.41 1450 2104 1485.59 2104 1529.5 2104 1573.41 2068.41 1609 2024.5 1609 1980.59 1609 1945 1573.41 1945 1529.5Z" fill="#FFB81D" fill-rule="evenodd"/><path d="M1821 1405.5C1821 1361.59 1856.59 1326 1900.5 1326 1944.41 1326 1980 1361.59 1980 1405.5 1980 1449.41 1944.41 1485 1900.5 1485 1856.59 1485 1821 1449.41 1821 1405.5Z" fill="#FFB81D" fill-rule="evenodd"/><path d="M1776 1236C1776 1192.37 1811.37 1157 1855 1157 1898.63 1157 1934 1192.37 1934 1236 1934 1279.63 1898.63 1315 1855 1315 1811.37 1315 1776 1279.63 1776 1236Z" fill="#FFB81D" fill-rule="evenodd"/><path d="M1821 1066C1821 1022.37 1856.59 987 1900.5 987 1944.41 987 1980 1022.37 1980 1066 1980 1109.63 1944.41 1145 1900.5 1145 1856.59 1145 1821 1109.63 1821 1066Z" fill="#FFB81D" fill-rule="evenodd"/><path d="M1945 942C1945 898.37 1980.59 863 2024.5 863 2068.41 863 2104 898.37 2104 942 2104 985.631 2068.41 1021 2024.5 1021 1980.59 1021 1945 985.631 1945 942Z" fill="#FFB81D" fill-rule="evenodd"/><path d="M1999 1236C1999 1128.3 2086.3 1041 2194 1041 2301.7 1041 2389 1128.3 2389 1236 2389 1343.7 2301.7 1431 2194 1431 2086.3 1431 1999 1343.7 1999 1236Z" fill="#FFB81D" fill-rule="evenodd"/></g></svg>
