<svg width="2338" height="1559" xmlns="http://www.w3.org/2000/svg" xmlns:xlink="http://www.w3.org/1999/xlink" xml:space="preserve" overflow="hidden"><defs><clipPath id="clip0"><rect x="1031" y="458" width="2338" height="1559"/></clipPath></defs><g clip-path="url(#clip0)" transform="translate(-1031 -458)"><path d="M3369 458 3369 2017 1031 2017 1031 458Z" fill="#60A9DA" fill-rule="evenodd"/><rect x="1031" y="1238" width="2338" height="779" fill="#4C7430"/><path d="M1771.98 1478.39 1771.98 1478.39 1771.98 1478.39ZM2172.86 1429.57 2200.22 1432.33 2214.79 1430.86 2221.21 1445.49C2251.12 1519 2280.42 1654.06 2194.4 1729 2194.4 1729 2197.36 1690.05 2182.12 1661.42 2176.35 1650.58 2170.56 1634.88 2165.49 1615.99L2161.49 1595.1 2167.92 1570.59C2177.73 1523.98 2177.73 1475.95 2173.99 1437.73ZM2264.42 1420.61 2274.27 1432.91C2322.16 1496.16 2385.38 1619.03 2321.67 1713.7 2321.67 1713.7 2314.46 1675.31 2292.34 1651.61 2283.96 1642.63 2274.31 1628.97 2264.53 1612.04L2255.07 1592.49 2254.93 1565.8C2252.43 1519.56 2240.62 1474.43 2227.56 1438.92L2224.01 1429.93 2239.44 1428.37ZM2124.79 1417.12 2161 1428.37 2164.39 1428.71 2166.71 1443.9C2176.6 1522.65 2169.97 1660.71 2067.51 1710.8L2067.51 1710.8C2067.51 1710.8 2080.44 1673.95 2073.12 1642.34 2070.35 1630.38 2068.82 1613.71 2068.8 1594.16L2069.55 1573.75 2084.46 1547.58C2101.2 1514.54 2112.44 1479.13 2119.55 1447.2ZM2310.17 1398.12 2322.26 1407.01C2384.88 1455.7 2477.71 1558 2440.64 1665.96 2440.64 1665.96 2423.75 1630.74 2396.26 1613.57 2385.85 1607.07 2372.99 1596.38 2359.16 1582.56L2345.73 1568.08 2338.92 1543.19C2324.55 1499.17 2301.48 1458.63 2279.68 1427.72L2272.55 1418.08 2275.97 1417.02C2287.61 1412.09 2298.67 1406.06 2309.03 1399.06ZM2081.11 1390.55 2091.42 1399.06 2116.19 1412.52 2115.33 1421.68C2106.83 1492.44 2071.8 1613.86 1978.47 1651.79L1949.65 1660.34 1953.1 1654.8C1959.35 1644.21 1971.94 1619.99 1972.77 1595.67 1973.19 1583.4 1976.02 1566.91 1981.06 1548.01L1987.19 1528.04 2008.04 1506.95C2032.75 1479.38 2052.76 1448.09 2067.89 1419.09ZM2347.25 1363.83 2361.92 1369.56C2434.99 1400.36 2551.12 1475.13 2543.22 1589.01 2543.22 1589.01 2517.8 1559.37 2486.8 1549.91 2475.07 1546.33 2459.89 1539.33 2442.96 1529.56L2426.06 1518.95 2412.62 1495.94C2392.41 1464.9 2367.4 1437.46 2343.33 1415.33L2316.5 1392.89 2337.83 1375.27ZM2045.37 1354.34 2062.62 1375.27 2073.89 1384.58 2070.59 1393.46C2044.09 1459.61 1978.86 1567.82 1878.9 1580.27L1848.85 1581.07 1853.62 1576.61C1862.39 1568 1880.82 1547.87 1887.91 1524.6 1891.49 1512.85 1898.48 1497.65 1908.23 1480.7L1919.09 1463.37 1943.79 1448.93C1974.79 1428.69 2002.21 1403.65 2024.32 1379.56ZM2375.16 1321.41 2390.55 1323.1C2469.1 1333.93 2600.6 1376.07 2622.41 1488.11L2622.41 1488.11C2622.41 1488.11 2590.2 1466.07 2557.81 1464.96 2545.55 1464.54 2529.07 1461.71 2510.2 1456.66L2490.41 1450.57 2468.51 1428.88C2440.97 1404.14 2409.71 1384.12 2380.74 1368.97L2353.46 1356.31 2361.59 1346.44ZM2020.43 1311.8 2020.91 1313.35C2025.84 1325.01 2031.86 1336.08 2038.85 1346.44L2039.55 1347.29 2021.86 1370.83C1975.35 1426.74 1891.91 1498.01 1801.21 1485.4L1771.98 1478.39 1777.74 1475.32C1788.44 1469.27 1811.44 1454.6 1824.31 1433.96 1830.8 1423.53 1841.49 1410.67 1855.29 1396.83L1869.92 1383.21 1899.79 1375.03C1943.76 1360.64 1984.26 1337.55 2015.14 1315.73ZM2480.79 1268.02C2553.55 1271.68 2636.42 1295.53 2672.82 1370.13L2672.82 1370.13C2672.82 1370.13 2636 1357.18 2604.43 1364.51 2592.48 1367.28 2575.83 1368.81 2556.29 1368.83L2536.93 1368.12 2510.68 1353.13C2477.68 1336.37 2442.31 1325.13 2410.41 1318.01L2379.75 1312.66 2390.87 1276.79 2391.24 1273.11 2406.19 1270.82C2427.65 1268.12 2453.51 1266.65 2480.79 1268.02ZM2008.11 1262.27 2009.57 1276.79 2017.32 1301.78 2004.79 1311.84C1941.6 1359.78 1818.85 1423.07 1724.28 1359.29L1724.28 1359.29C1724.28 1359.29 1762.63 1352.07 1786.32 1329.93 1795.28 1321.54 1808.93 1311.88 1825.84 1302.09L1844.18 1293.2 1872.79 1293.05C1918.99 1290.55 1964.08 1278.73 1999.55 1265.66ZM1844.69 1198.58 1858 1202.5C1908.65 1214.76 1961.94 1214.78 2003.17 1210.48L2008.41 1209.81 2005.62 1237.53 2007.1 1252.19 1992.22 1258.73C1918.79 1288.67 1783.86 1318 1709 1231.89L1709 1231.89C1709 1231.89 1747.91 1234.85 1776.51 1219.6 1787.34 1213.82 1803.02 1208.03 1821.89 1202.95ZM2563.1 1186.45C2610.53 1188.68 2656.97 1203.97 2691 1243.11L2691 1243.11C2691 1243.11 2652.09 1240.15 2623.49 1255.4 2612.66 1261.17 2596.98 1266.97 2578.11 1272.05L2556.23 1276.24 2533.13 1270.17C2486.57 1260.35 2438.59 1260.35 2400.41 1264.1L2392.03 1265.26 2394.82 1237.53 2393.32 1222.59 2418.17 1212.19C2457.55 1197.37 2510.93 1184.01 2563.1 1186.45ZM2675.72 1115.71 2675.72 1115.71 2675.72 1115.71ZM1727.18 1104.87 1728.83 1105.41C1736.3 1107.79 1767.95 1116.9 1795.57 1110.49 1807.53 1107.72 1824.17 1106.18 1843.71 1106.16L1864.75 1106.94 1886.66 1119.45C1919.67 1136.21 1955.04 1147.45 1986.94 1154.57L2021.51 1160.6 2020.91 1161.7C2015.99 1173.35 2012.16 1185.59 2009.57 1198.27L2009.22 1201.79 2000.36 1203.29C1929.88 1213.39 1803.65 1210.94 1742.9 1130.52ZM2593.83 1088.99C2612.64 1089.91 2631.3 1093.75 2649.29 1101.36L2675.72 1115.71 2669.36 1117.18C2657.46 1120.25 2631.45 1128.46 2613.68 1145.07 2604.72 1153.45 2591.07 1163.11 2574.16 1172.91L2554.54 1182.42 2528.02 1182.55C2481.83 1185.06 2436.74 1196.88 2401.27 1209.95L2392.4 1213.46 2390.87 1198.27 2383.1 1173.2 2393.08 1164.78C2438.74 1129.64 2517.45 1085.25 2593.83 1088.99ZM2628.02 996.607 2628.02 996.608 2628.02 996.608ZM2570.04 988.301C2579.52 987.857 2589.11 988.248 2598.78 989.592L2628.02 996.608 2622.25 999.679C2611.56 1005.72 2588.55 1020.4 2575.69 1041.04 2569.19 1051.46 2558.51 1064.33 2544.71 1078.17L2528.79 1092.98 2505.92 1099.24C2461.95 1113.63 2421.45 1136.72 2390.57 1158.54L2380.8 1165.8 2379.53 1161.7C2374.61 1150.05 2368.58 1138.97 2361.59 1128.61L2360.65 1127.47 2372.74 1110.79C2413.34 1059.91 2487.15 992.184 2570.04 988.301ZM1777.59 986.887C1777.59 986.887 1809.8 1008.93 1842.19 1010.04 1854.45 1010.46 1870.93 1013.29 1889.81 1018.33L1908.1 1023.96 1926.41 1042.1C1953.96 1066.84 1985.21 1086.87 2014.18 1102.01L2047.89 1117.65 2038.85 1128.61 2025.28 1153.64 2009.45 1151.89C1930.9 1141.07 1799.41 1098.93 1777.59 986.887ZM2551.15 893.924 2546.38 898.384C2537.61 906.995 2519.18 927.126 2512.09 950.4 2508.51 962.148 2501.52 977.344 2491.77 994.291L2479.02 1014.63 2459.09 1026.29C2419.23 1052.3 2385.3 1086.26 2360.95 1115.94L2356.26 1122.14 2337.83 1099.78 2326.2 1090.18 2329.41 1081.53C2355.91 1015.38 2421.14 907.178 2521.1 894.721ZM2551.15 893.923 2551.15 893.924 2551.15 893.924ZM1856.78 885.985C1856.78 885.985 1882.19 915.623 1913.19 925.085 1924.93 928.667 1940.11 935.668 1957.04 945.431L1974.64 956.484 1988.29 979.861C2008.5 1010.89 2033.52 1038.34 2057.58 1060.47L2083.73 1082.34 2062.62 1099.78 2053.12 1111.31 2038.08 1105.44C1965.01 1074.63 1848.88 999.863 1856.78 885.985ZM2450.35 814.652 2449.4 816.1C2445.18 822.716 2428.2 850.953 2427.23 879.323 2426.81 891.597 2423.98 908.087 2418.94 926.985L2412.24 948.81 2393.63 967.631C2361.85 1003.08 2337.86 1044.68 2322.01 1079.65L2319.86 1084.95 2309.03 1075.99 2283.83 1062.3 2284.67 1053.32C2293.17 982.556 2328.2 861.137 2421.53 823.208ZM1959.35 809.038 1959.35 809.038C1959.35 809.038 1976.24 844.252 2003.74 861.423 2014.15 867.924 2027 878.619 2040.83 892.437L2054.39 907.041 2061.66 933.639C2076.03 977.654 2099.11 1018.2 2120.9 1049.11L2126.95 1057.27 2124.47 1058.03C2112.83 1062.96 2101.77 1068.99 2091.42 1075.99L2090.11 1077.08 2077.74 1067.99C2015.12 1019.3 1922.29 916.991 1959.35 809.038ZM2332.49 764.196 2330.59 770.448C2327.29 782.295 2321.39 808.952 2326.88 832.655 2329.65 844.62 2331.18 861.28 2331.2 880.839L2330.4 902.704 2320.82 918.434C2295.88 964.234 2282.07 1015.75 2275.55 1056.73L2275.39 1057.85 2239.44 1046.68 2235.63 1046.3 2234.17 1037.66C2224.08 967.102 2226.53 840.744 2306.87 779.928ZM2078.33 761.291 2079.81 767.66C2082.87 779.568 2091.07 805.608 2107.66 823.39 2116.04 832.367 2125.69 846.028 2135.47 862.957L2145.65 884.002 2145.32 897.994C2146.6 950.14 2160.37 1001.66 2175.19 1040.42L2177.08 1045.06 2161 1046.68 2135.73 1054.53 2129.77 1047.33C2085.8 991.275 2024.8 880.624 2064 787.743ZM2078.33 761.291 2078.33 761.291 2078.33 761.291ZM2205.6 746 2205.51 747.726C2205.15 755.572 2204.55 788.525 2217.88 813.578 2223.65 824.418 2229.44 840.114 2234.51 859.002L2238.93 882.13 2232.3 907.456C2222.49 954.063 2222.48 1002.09 2226.23 1040.31L2226.94 1045.42 2200.22 1042.73 2185.28 1044.23 2181.33 1035.62C2153.35 970.077 2123.04 847.393 2184.92 767.835Z" fill="#EACB1E" fill-rule="evenodd"/><path d="M2390.22 1237.53C2390.22 1342.74 2305.15 1428.03 2200.22 1428.03 2095.28 1428.03 2010.22 1342.74 2010.22 1237.53 2010.22 1132.32 2095.28 1047.03 2200.22 1047.03 2305.15 1047.03 2390.22 1132.32 2390.22 1237.53Z" fill="#4F3427" fill-rule="evenodd"/></g></svg>
