<svg width="2341" height="1560" xmlns="http://www.w3.org/2000/svg" xmlns:xlink="http://www.w3.org/1999/xlink" xml:space="preserve" overflow="hidden"><defs><clipPath id="clip0"><rect x="1029" y="458" width="2341" height="1560"/></clipPath></defs><g clip-path="url(#clip0)" transform="translate(-1029 -458)"><path d="M1031.5 2017.5 3369.5 2017.5 3369.5 458.5 1031.5 458.5Z" stroke="#000000" stroke-width="1.14583" stroke-miterlimit="8" fill="#AB0635" fill-rule="evenodd"/><path d="M1031.5 2017.5 3369.5 2017.5 3369.5 1238.5 1031.5 1238.5Z" stroke="#000000" stroke-width="1.14583" stroke-miterlimit="8" fill="#012773" fill-rule="evenodd"/><path d="M1273.59 1034C1278.49 1033.98 1283.42 1034.26 1289.49 1034.82 1325.9 1038.44 1356.99 1049.72 1431.14 1086.08 1506.42 1122.99 1538.27 1134.13 1576.76 1136.36 1613.55 1138.45 1658.11 1125.64 1718.98 1095.41 1778.71 1065.6 1791.98 1059.61 1816.25 1050.7 1850.38 1038.16 1867.64 1034.68 1894.76 1034.68 1910.87 1034.68 1919.22 1035.38 1931.54 1037.88 1954.87 1042.76 1998.29 1059.47 2033.18 1076.89 2115.85 1118.39 2144.86 1129.68 2183.17 1134.97L2201.36 1135.53 2201.36 1136.09 2220.36 1134.5C2236.65 1131.99 2253.57 1127.21 2272.68 1120.35 2286.9 1115.19 2315.91 1101.96 2350.42 1085.1 2422.86 1049.58 2452.44 1038.86 2489.03 1034.96 2500.98 1033.7 2508.57 1033.7 2520.7 1034.82 2557.11 1038.44 2588.21 1049.72 2662.35 1086.08 2737.63 1122.99 2769.48 1134.13 2807.98 1136.36 2844.76 1138.45 2889.32 1125.64 2950.19 1095.41 3009.92 1065.6 3023.19 1059.61 3047.46 1050.7 3081.6 1038.16 3098.85 1034.68 3125.97 1034.68 3142.08 1034.68 3150.43 1035.38 3162.75 1037.88 3186.08 1042.76 3229.5 1059.47 3264.39 1076.89 3305.73 1097.64 3333.65 1110.84 3356.02 1119.51L3368 1123.45 3368 1238.9 3365.69 1238.22C3344.03 1230.49 3317.77 1218.62 3280.13 1200.16 3223.62 1172.3 3196.13 1161.3 3166.74 1154.19 3152.89 1150.99 3147.21 1150.43 3127.86 1150.29 3082.73 1150.01 3055.24 1158.93 2965.36 1203.22 2879.65 1245.57 2840.78 1256.29 2795.08 1250.58 2758.86 1245.99 2732.13 1235.96 2658.74 1199.88 2577.97 1160.18 2547.06 1150.29 2504.96 1150.29 2462.3 1150.15 2428.74 1161.02 2352.32 1199.6 2292.97 1229.55 2260.35 1242.5 2229.07 1248.35 2220.25 1250.03 2210.67 1251.14 2201.52 1251.63L2201.36 1251.62 2201.36 1251.48 2192.46 1251.42C2153.97 1247.66 2124.2 1237.07 2048.92 1200.16 1992.41 1172.3 1964.92 1161.3 1935.52 1154.19 1921.68 1150.99 1915.99 1150.43 1896.65 1150.29 1851.52 1150.01 1824.03 1158.93 1734.15 1203.22 1648.44 1245.57 1609.57 1256.29 1563.87 1250.58 1527.65 1245.99 1500.92 1235.96 1427.53 1199.88 1346.75 1160.18 1315.85 1150.29 1273.75 1150.29 1231.09 1150.15 1197.52 1161.02 1121.11 1199.6 1091.43 1214.58 1068.44 1225.3 1048.96 1233.02L1029 1240.01 1029 1124.34 1041.47 1120.35C1055.69 1115.19 1084.7 1101.96 1119.21 1085.1 1191.65 1049.58 1221.23 1038.86 1257.82 1034.96 1263.8 1034.33 1268.68 1034.02 1273.59 1034Z" fill="#012773" fill-rule="evenodd"/><path d="M1273.59 925.001C1278.49 924.983 1283.42 925.262 1289.49 925.819 1325.9 929.44 1356.99 940.723 1431.14 977.079 1506.42 1013.99 1538.27 1025.13 1576.76 1027.36 1613.55 1029.45 1658.11 1016.64 1718.98 986.411 1778.71 956.603 1791.98 950.613 1816.25 941.699 1850.38 929.162 1867.64 925.68 1894.76 925.68 1910.87 925.68 1919.22 926.376 1931.54 928.883 1954.87 933.759 1998.29 950.474 2033.18 967.885 2115.85 1009.39 2144.86 1020.68 2183.17 1025.97L2201.36 1026.53 2201.36 1027.09 2220.36 1025.5C2236.65 1022.99 2253.57 1018.21 2272.68 1011.35 2286.9 1006.19 2315.91 992.958 2350.42 976.104 2422.86 940.585 2452.44 929.859 2489.03 925.958 2500.98 924.705 2508.57 924.705 2520.7 925.819 2557.11 929.44 2588.21 940.723 2662.35 977.079 2737.63 1013.99 2769.48 1025.13 2807.98 1027.36 2844.76 1029.45 2889.32 1016.64 2950.19 986.411 3009.92 956.603 3023.19 950.613 3047.46 941.699 3081.6 929.162 3098.85 925.68 3125.97 925.68 3142.08 925.68 3150.43 926.376 3162.75 928.883 3186.08 933.759 3229.5 950.474 3264.39 967.885 3305.73 988.64 3333.65 1001.84 3356.02 1010.51L3368 1014.45 3368 1129.9 3365.69 1129.22C3344.03 1121.49 3317.77 1109.62 3280.13 1091.16 3223.62 1063.3 3196.13 1052.3 3166.74 1045.19 3152.89 1041.99 3147.21 1041.43 3127.86 1041.29 3082.73 1041.01 3055.24 1049.93 2965.36 1094.22 2879.65 1136.57 2840.78 1147.29 2795.08 1141.58 2758.86 1136.99 2732.13 1126.96 2658.74 1090.88 2577.97 1051.18 2547.06 1041.29 2504.96 1041.29 2462.3 1041.15 2428.74 1052.02 2352.32 1090.6 2292.97 1120.55 2260.35 1133.5 2229.07 1139.36 2220.25 1141.03 2210.67 1142.14 2201.52 1142.63L2201.36 1142.62 2201.36 1142.48 2192.46 1142.42C2153.97 1138.66 2124.2 1128.07 2048.92 1091.16 1992.41 1063.3 1964.92 1052.3 1935.52 1045.19 1921.68 1041.99 1915.99 1041.43 1896.65 1041.29 1851.52 1041.01 1824.03 1049.93 1734.15 1094.22 1648.44 1136.57 1609.57 1147.29 1563.87 1141.58 1527.65 1136.99 1500.92 1126.96 1427.53 1090.88 1346.75 1051.18 1315.85 1041.29 1273.75 1041.29 1231.09 1041.15 1197.52 1052.02 1121.11 1090.6 1091.43 1105.58 1068.44 1116.3 1048.96 1124.02L1029 1131.01 1029 1015.34 1041.47 1011.35C1055.69 1006.19 1084.7 992.958 1119.21 976.104 1191.65 940.585 1221.23 929.859 1257.82 925.958 1263.8 925.332 1268.68 925.018 1273.59 925.001Z" fill="#F2F2F2" fill-rule="evenodd"/><path d="M1273.59 1151C1278.49 1150.98 1283.42 1151.26 1289.49 1151.82 1325.9 1155.42 1356.99 1166.65 1431.14 1202.84 1506.42 1239.58 1538.27 1250.68 1576.76 1252.89 1613.55 1254.97 1658.11 1242.22 1718.98 1212.13 1778.71 1182.46 1791.98 1176.5 1816.25 1167.62 1850.38 1155.14 1867.64 1151.68 1894.76 1151.68 1910.87 1151.68 1919.22 1152.37 1931.54 1154.87 1954.87 1159.72 1998.29 1176.36 2033.18 1193.69 2115.85 1235.01 2144.86 1246.24 2183.17 1251.51L2201.36 1252.06 2201.36 1252.62 2220.36 1251.04C2236.65 1248.54 2253.57 1243.78 2272.68 1236.95 2286.9 1231.82 2315.91 1218.65 2350.42 1201.87 2422.86 1166.51 2452.44 1155.84 2489.03 1151.95 2500.98 1150.71 2508.57 1150.71 2520.7 1151.82 2557.11 1155.42 2588.21 1166.65 2662.35 1202.84 2737.63 1239.58 2769.48 1250.68 2807.98 1252.89 2844.76 1254.97 2889.32 1242.22 2950.19 1212.13 3009.92 1182.46 3023.19 1176.5 3047.46 1167.62 3081.6 1155.14 3098.85 1151.68 3125.97 1151.68 3142.08 1151.68 3150.43 1152.37 3162.75 1154.87 3186.08 1159.72 3229.5 1176.36 3264.39 1193.69 3305.73 1214.35 3333.65 1227.49 3356.02 1236.12L3368 1240.04 3368 1354.96 3365.69 1354.28C3344.03 1346.59 3317.77 1334.77 3280.13 1316.4 3223.62 1288.67 3196.13 1277.71 3166.74 1270.64 3152.89 1267.45 3147.21 1266.9 3127.86 1266.76 3082.73 1266.48 3055.24 1275.36 2965.36 1319.45 2879.65 1361.6 2840.78 1372.28 2795.08 1366.59 2758.86 1362.01 2732.13 1352.03 2658.74 1316.12 2577.97 1276.6 2547.06 1266.76 2504.96 1266.76 2462.3 1266.62 2428.74 1277.44 2352.32 1315.84 2292.97 1345.65 2260.35 1358.55 2229.07 1364.37 2220.25 1366.04 2210.67 1367.14 2201.52 1367.63L2201.36 1367.63 2201.36 1367.48 2192.46 1367.42C2153.97 1363.68 2124.2 1353.14 2048.92 1316.4 1992.41 1288.67 1964.92 1277.71 1935.52 1270.64 1921.68 1267.45 1915.99 1266.9 1896.65 1266.76 1851.52 1266.48 1824.03 1275.36 1734.15 1319.45 1648.44 1361.6 1609.57 1372.28 1563.87 1366.59 1527.65 1362.01 1500.92 1352.03 1427.53 1316.12 1346.75 1276.6 1315.85 1266.76 1273.75 1266.76 1231.09 1266.62 1197.52 1277.44 1121.11 1315.84 1091.43 1330.75 1068.44 1341.42 1048.96 1349.1L1029 1356.07 1029 1240.92 1041.47 1236.95C1055.69 1231.82 1084.7 1218.65 1119.21 1201.87 1191.65 1166.51 1221.23 1155.84 1257.82 1151.95 1263.8 1151.33 1268.68 1151.02 1273.59 1151Z" fill="#F2F2F2" fill-rule="evenodd"/><path d="M2971 1555 3046.23 1529 3011.42 1457.42 3083 1492.23 3109 1417 3135 1492.23 3206.58 1457.42 3171.77 1529 3247 1555 3171.77 1581 3206.58 1652.58 3135 1617.77 3109 1693 3083 1617.77 3011.42 1652.58 3046.23 1581Z" fill="#F2F2F2" fill-rule="evenodd"/><path d="M1153 1555 1228.23 1529 1193.42 1457.42 1265 1492.23 1291 1417 1317 1492.23 1388.58 1457.42 1353.77 1529 1429 1555 1353.77 1581 1388.58 1652.58 1317 1617.77 1291 1693 1265 1617.77 1193.42 1652.58 1228.23 1581Z" fill="#F2F2F2" fill-rule="evenodd"/><path d="M2062 1555 2137.23 1529 2102.42 1457.42 2174 1492.23 2200 1417 2226 1492.23 2297.58 1457.42 2262.77 1529 2338 1555 2262.77 1581 2297.58 1652.58 2226 1617.77 2200 1693 2174 1617.77 2102.42 1652.58 2137.23 1581Z" fill="#F2F2F2" fill-rule="evenodd"/></g></svg>