<svg width="2339" height="1560" xmlns="http://www.w3.org/2000/svg" xmlns:xlink="http://www.w3.org/1999/xlink" xml:space="preserve" overflow="hidden"><defs><clipPath id="clip0"><rect x="1031" y="458" width="2339" height="1560"/></clipPath></defs><g clip-path="url(#clip0)" transform="translate(-1031 -458)"><path d="M1031.5 458.5 3369.5 458.5 3369.5 2017.5 1031.5 2017.5Z" stroke="#000000" stroke-width="1.14583" stroke-miterlimit="8" fill="#001C5A" fill-rule="evenodd"/><rect x="1031" y="1631" width="2338" height="386" fill="#FFD700"/><path d="M1031 1634 1128.5 841 1226 1634Z" fill="#FFD700" fill-rule="evenodd"/><path d="M1226 1634 1323 841 1420 1634Z" fill="#FFD700" fill-rule="evenodd"/><path d="M1420 1634 1517.5 841 1615 1634Z" fill="#FFD700" fill-rule="evenodd"/><path d="M1615 1634 1712.5 841 1810 1634Z" fill="#FFD700" fill-rule="evenodd"/><path d="M1810 1634 1907.5 841 2005 1634Z" fill="#FFD700" fill-rule="evenodd"/><path d="M2005 1634 2102.5 841 2200 1634Z" fill="#FFD700" fill-rule="evenodd"/><path d="M2200 1634 2297.5 841 2395 1634Z" fill="#FFD700" fill-rule="evenodd"/><path d="M2395 1634 2492.5 841 2590 1634Z" fill="#FFD700" fill-rule="evenodd"/><path d="M2590 1634 2687.5 841 2785 1634Z" fill="#FFD700" fill-rule="evenodd"/><path d="M2785 1634 2882.5 841 2980 1634Z" fill="#FFD700" fill-rule="evenodd"/><path d="M2980 1634 3077 841 3174 1634Z" fill="#FFD700" fill-rule="evenodd"/><path d="M3174 1634 3271.5 841 3369 1634Z" fill="#FFD700" fill-rule="evenodd"/></g></svg>
