<svg width="2342" height="1559" xmlns="http://www.w3.org/2000/svg" xmlns:xlink="http://www.w3.org/1999/xlink" xml:space="preserve" overflow="hidden"><defs><clipPath id="clip0"><rect x="1031" y="472" width="2342" height="1559"/></clipPath></defs><g clip-path="url(#clip0)" transform="translate(-1031 -472)"><path d="M1031 472 3369 472 3369 2031 1031 2031Z" fill="#F1850F" fill-rule="evenodd"/><rect x="2200" y="472" width="1173" height="1559" fill="#A60A3D"/><path d="M2701 846.462 2766.7 846.462 2787 780 2807.3 846.462 2873 846.462 2819.85 887.537 2840.15 953.999 2787 912.923 2733.85 953.999 2754.15 887.537 2701 846.462Z" fill="#FFC425" fill-rule="evenodd"/><path d="M2976.71 885.052 3027.05 927.293 3085.38 889.376 3058.16 953.399 3108.51 995.64 3041.35 992.967 3014.13 1056.99 2999.84 991.315 2932.68 988.643 2991.01 950.727 2976.71 885.052Z" fill="#FFC425" fill-rule="evenodd"/><path d="M3163.44 1093.33 3174.99 1158.85 3243.28 1167.69 3182.13 1199.35 3193.69 1264.88 3144.34 1218.92 3083.2 1250.58 3113.85 1190.51 3064.5 1144.55 3132.79 1153.39 3163.44 1093.33Z" fill="#FFC425" fill-rule="evenodd"/><path d="M3174.84 1374.95 3141.57 1432.58 3188.2 1483.24 3121.01 1468.19 3087.74 1525.81 3079.48 1458.89 3012.29 1443.84 3074.38 1417.53 3066.12 1350.6 3112.75 1401.27 3174.84 1374.95Z" fill="#FFC425" fill-rule="evenodd"/><path d="M3003.66 1598.27 2941.91 1620.74 2945.59 1690.21 2903.75 1634.63 2842 1657.11 2877.89 1600.28 2836.05 1544.71 2900.07 1565.17 2935.97 1508.34 2939.64 1577.81 3003.66 1598.27Z" fill="#FFC425" fill-rule="evenodd"/><path d="M2731.25 1657.11 2669.5 1634.63 2627.66 1690.21 2631.33 1620.74 2569.58 1598.27 2633.61 1577.81 2637.28 1508.34 2673.17 1565.17 2737.2 1544.71 2695.36 1600.29 2731.25 1657.11Z" fill="#FFC425" fill-rule="evenodd"/><path d="M2485.51 1525.81 2452.24 1468.19 2385.05 1483.24 2431.68 1432.58 2398.41 1374.95 2460.5 1401.27 2507.13 1350.6 2498.87 1417.53 2560.96 1443.84 2493.76 1458.89 2485.51 1525.81Z" fill="#FFC425" fill-rule="evenodd"/><path d="M2379.56 1264.88 2391.11 1199.35 2329.97 1167.69 2398.25 1158.85 2409.81 1093.33 2440.46 1153.39 2508.74 1144.55 2459.4 1190.51 2490.05 1250.58 2428.9 1218.92 2379.56 1264.88Z" fill="#FFC425" fill-rule="evenodd"/><path d="M2464.74 995.64 2515.08 953.399 2487.87 889.376 2546.2 927.293 2596.54 885.051 2582.24 950.727 2640.57 988.643 2573.41 991.315 2559.11 1056.99 2531.9 992.967 2464.74 995.64Z" fill="#FFC425" fill-rule="evenodd"/></g></svg>
