<svg width="2535" height="1560" xmlns="http://www.w3.org/2000/svg" xmlns:xlink="http://www.w3.org/1999/xlink" xml:space="preserve" overflow="hidden"><g transform="translate(-974 -454)"><path d="M981.591 456.764 3500.41 753.092 2923.14 1237.86 3505.27 1726.71 978.121 2012.59Z" stroke="#000000" stroke-width="1.14583" stroke-miterlimit="8" fill="#FFFFFF" fill-rule="evenodd"/><path d="M3304.83 1555.6 3509 1727.09 982 2013 982.433 1818.97ZM983.942 1142.26 3041.12 1142.26 2926.9 1238.18 3045.93 1338.16 983.505 1338.16ZM985.47 457 3504.14 753.36 3298.93 925.721 985.037 651.056Z" fill="#C1133D" fill-rule="evenodd"/><path d="M977.798 454.626 974.328 2010.46 2531.89 1236.01Z" fill="#001C5A" fill-rule="evenodd"/><path d="M1747.78 1234.27C1747.42 1395.38 1616.53 1525.69 1455.41 1525.33 1294.3 1524.97 1163.99 1394.08 1164.35 1232.96 1164.71 1071.85 1295.6 941.538 1456.72 941.897 1617.83 942.257 1748.14 1073.15 1747.78 1234.27Z" fill="#FFFFFF" fill-rule="evenodd"/><path d="M1650.54 1234.05C1650.3 1341.46 1563.04 1428.33 1455.63 1428.09 1348.22 1427.85 1261.35 1340.59 1261.59 1233.18 1261.83 1125.77 1349.09 1038.9 1456.5 1039.14 1563.91 1039.38 1650.78 1126.64 1650.54 1234.05Z" fill="#C1133D" fill-rule="evenodd"/><path d="M1393 835.128 1441.13 835.128 1456 787 1470.87 835.128 1519 835.128 1480.06 864.872 1494.94 913 1456 883.255 1417.06 913 1431.94 864.872 1393 835.128Z" fill="#F2F2F2" fill-rule="evenodd"/><path d="M1542.23 839.884 1587.18 857.138 1618.33 817.521 1614.96 867.802 1659.91 885.056 1612.88 898.876 1609.52 949.157 1583.82 907.418 1536.79 921.24 1567.93 881.622 1542.23 839.884Z" fill="#F2F2F2" fill-rule="evenodd"/><path d="M1679.67 897.935 1715.45 930.151 1758.72 904.326 1737.56 950.062 1773.34 982.278 1724.49 978.328 1703.33 1024.06 1694.29 975.886 1645.43 971.936 1688.71 946.111 1679.67 897.935Z" fill="#F2F2F2" fill-rule="evenodd"/><path d="M1787.93 1001.39 1809.03 1044.66 1858.83 1036.93 1822.08 1071.41 1843.18 1114.68 1799.36 1092.72 1762.61 1127.2 1772.28 1079.14 1728.46 1057.18 1778.26 1049.44 1787.93 1001.39Z" fill="#F2F2F2" fill-rule="evenodd"/><path d="M1850.4 1137.15 1854.59 1185.11 1903.85 1195.73 1857.19 1214.75 1861.38 1262.72 1828.35 1226.51 1781.68 1245.52 1807.93 1204.13 1774.89 1167.92 1824.15 1178.54 1850.4 1137.15Z" fill="#F2F2F2" fill-rule="evenodd"/><path d="M1859.63 1286.23 1846.36 1332.52 1888.54 1360.09 1838.16 1361.12 1824.89 1407.4 1807.02 1361.76 1756.64 1362.79 1795.98 1333.55 1778.11 1287.9 1820.29 1315.48 1859.63 1286.23Z" fill="#F2F2F2" fill-rule="evenodd"/><path d="M1814.43 1428.54 1785.46 1466.99 1814.95 1507.84 1767.55 1490.75 1738.57 1529.2 1738.25 1480.19 1690.84 1463.09 1738.05 1449.89 1737.73 1400.88 1767.23 1441.74 1814.43 1428.54Z" fill="#F2F2F2" fill-rule="evenodd"/><path d="M1720.94 1544.86 1680.11 1570.38 1693.01 1619.09 1654.88 1586.15 1614.05 1611.66 1631.31 1565.78 1593.18 1532.84 1641.98 1537.43 1659.25 1491.56 1672.14 1540.27 1720.94 1544.86Z" fill="#F2F2F2" fill-rule="evenodd"/><path d="M1591.82 1619.55 1544.55 1628.74 1539.14 1678.84 1515.35 1634.42 1468.08 1643.61 1500.64 1606.96 1476.85 1562.54 1520.76 1584.32 1553.32 1547.68 1547.9 1597.78 1591.82 1619.55Z" fill="#F2F2F2" fill-rule="evenodd"/><path d="M1444.04 1643.61 1396.78 1634.42 1372.99 1678.84 1367.57 1628.74 1320.31 1619.55 1364.22 1597.78 1358.81 1547.68 1391.36 1584.32 1435.28 1562.54 1411.49 1606.96 1444.04 1643.61Z" fill="#F2F2F2" fill-rule="evenodd"/><path d="M1298.08 1611.66 1257.25 1586.15 1219.12 1619.09 1232.02 1570.38 1191.18 1544.86 1239.99 1540.27 1252.88 1491.56 1270.15 1537.43 1318.95 1532.84 1280.82 1565.78 1298.08 1611.66Z" fill="#F2F2F2" fill-rule="evenodd"/><path d="M1173.55 1529.2 1144.58 1490.75 1097.17 1507.84 1126.67 1466.99 1097.7 1428.54 1144.9 1441.74 1174.4 1400.88 1174.08 1449.89 1221.28 1463.09 1173.88 1480.19 1173.55 1529.2Z" fill="#F2F2F2" fill-rule="evenodd"/><path d="M1087.24 1407.4 1073.97 1361.12 1023.59 1360.09 1065.77 1332.52 1052.5 1286.23 1091.84 1315.48 1134.02 1287.9 1116.15 1333.55 1155.49 1362.79 1105.11 1361.76 1087.24 1407.4Z" fill="#F2F2F2" fill-rule="evenodd"/><path d="M1050.74 1262.72 1054.94 1214.75 1008.27 1195.73 1057.53 1185.11 1061.73 1137.15 1087.98 1178.54 1137.24 1167.92 1104.2 1204.13 1130.45 1245.52 1083.78 1226.51 1050.74 1262.72Z" fill="#F2F2F2" fill-rule="evenodd"/><path d="M1068.94 1114.68 1090.05 1071.41 1053.3 1036.93 1103.09 1044.66 1124.2 1001.39 1133.87 1049.44 1183.67 1057.18 1139.85 1079.14 1149.52 1127.2 1112.76 1092.72 1068.94 1114.68Z" fill="#F2F2F2" fill-rule="evenodd"/><path d="M1138.78 982.278 1174.56 950.062 1153.4 904.326 1196.68 930.151 1232.46 897.935 1223.42 946.111 1266.69 971.936 1217.84 975.886 1208.8 1024.06 1187.64 978.327 1138.78 982.278Z" fill="#F2F2F2" fill-rule="evenodd"/><path d="M1252.22 885.056 1297.17 867.802 1293.8 817.521 1324.95 857.138 1369.89 839.884 1344.19 881.622 1375.34 921.24 1328.31 907.418 1302.61 949.157 1299.25 898.876 1252.22 885.056Z" fill="#F2F2F2" fill-rule="evenodd"/></g></svg>
