<svg width="2339" height="1560" xmlns="http://www.w3.org/2000/svg" xmlns:xlink="http://www.w3.org/1999/xlink" xml:space="preserve" overflow="hidden"><defs><clipPath id="clip0"><rect x="1031" y="458" width="2339" height="1560"/></clipPath></defs><g clip-path="url(#clip0)" transform="translate(-1031 -458)"><path d="M0 0 2338 0 2338 1559 0 1559Z" stroke="#000000" stroke-width="1.14583" stroke-miterlimit="8" fill="#003271" fill-rule="evenodd" transform="matrix(-1 0 0 1 3369.5 458.5)"/><path d="M621.072 0.000482938C412.654-0.356891 303.626 228.834 303.626 228.834 303.626 228.834 284.353 271.617 217.819 287.477 148.823 303.925 78.1323 295.611 44.7948 317.512 32.9629 325.285-4.54785 360.791 0.456765 396.189 6.90072 441.768 51.6511 505.331 123.151 491.386 194.649 477.441 255.036 388.081 283.596 346.12 291.511 334.491 327.704 338.418 346.47 341.315 349.527 319.879 355.578 295.583 369.658 272.808 377.788 259.658 391.131 252.247 391.131 252.247 391.131 252.247 384.293 265.691 377.059 277.392 368.63 291.027 363.225 305.297 359.643 319.227 365.35 306.478 373.061 293.603 384.817 283.538 399.398 271.091 417.408 271.518 417.408 271.518 417.408 271.518 402.259 280.014 390.469 290.143 373.531 304.645 362.75 343.734 363.157 343.777 355.192 371.86 370.829 387.598 370.829 387.598L672.556 389.041C672.556 389.041 674.341 374.728 643.953 369.007 613.567 363.286 551.017 366.155 551.017 366.155L549.387 358.005C599.811 360.693 653.495 362.563 702.584 361.859 725.775 361.526 747.151 360.455 767.767 359.159 767.116 348.819 763.21 324.096 772.469 299.922 779.511 281.581 795.759 272.892 795.759 272.892 795.759 272.892 786.331 287.983 780.583 303.029 772.084 325.218 775.884 340.516 780.414 358.412 782.999 368.628 782.173 377.26 795.538 386.172 818.061 401.19 871.331 390.467 871.331 390.467 857.809 382.664 845.31 375.884 835.582 371.876 835.582 371.876 829.06 360.451 829.437 354.236 830.529 336.243 840.224 320.208 853.27 305.695 862.292 295.676 875.167 291.365 875.167 291.365 875.167 291.365 867.761 302.556 859.737 311.501 848.219 324.315 842.525 337.142 842.423 352.64 911.804 344.716 956.221 337.478 956.221 337.478L1025.77 324.677C1025.77 324.677 1041.55 321.587 1057.82 315.389L1061.43 329.396 1069.04 331.569C1069.04 331.569 1067.88 321.109 1066.95 311.518 1083.8 303.597 1098.11 292.019 1091.54 276.034 1077.6 242.064 1046.37 218.506 1011.46 194.521 988.522 178.763 954.977 189.147 927.093 174.487 899.208 159.826 889.198 138.014 879.903 127.287 822.229 60.7251 767.359 0.249679 621.072 0.000482938ZM698.578 19.1688C702.626 19.1606 706.655 19.248 710.545 19.4576 719.977 19.7638 727.953 20.5466 734.836 23.6171 740.996 26.3646 743.561 30.018 743.561 30.018 743.561 30.018 740.024 27.3218 734.021 26.0623 727.979 24.7936 719.01 25.3238 710.257 24.6699 700.129 24.1242 689.097 24.3594 679.057 25.247 671.439 25.9724 663.856 26.0511 658.314 26.8432 652.794 27.6323 649.148 28.9314 649.148 28.9314 649.148 28.9314 652.157 26.4776 657.652 24.3304 663.613 22.0012 670.487 20.7132 678.599 20.0516 685.013 19.4846 691.833 19.1823 698.578 19.1688ZM529.679 39.1523C531.679 39.1682 533.622 39.2667 535.518 39.4749 542.507 40.2423 546.705 42.2252 546.705 42.2252 546.705 42.2252 542.117 41.5143 535.468 42.0726 527.13 42.7729 521.643 44.4487 510.99 46.4872 501.228 48.4228 491.116 51.2518 482.133 54.6194 473.669 57.8792 469.317 58.9146 463.07 62.073 458.18 64.5457 455.262 67.0647 455.262 67.0647 455.262 67.0647 457.154 63.6996 461.627 59.9167 466.453 55.8359 472.698 52.5026 480.3 49.7296 489.552 46.2607 499.97 43.3596 509.971 41.3767 517.175 39.8975 523.68 39.1059 529.679 39.1523ZM725.925 41.7331C730.435 41.6964 734.954 41.8461 739.284 42.1914 747.429 42.6869 754.482 44.0923 760.18 47.0981 765.398 49.8513 767.581 53.0744 767.581 53.0744 767.581 53.0744 764.441 50.7945 759.246 49.492 752.67 47.8437 747.858 48.274 738.859 47.3869 730.494 46.7195 721.447 46.8069 713.058 47.5738 706.394 48.2238 699.769 48.4503 694.878 49.1863 690.004 49.9199 686.73 51.0031 686.73 51.0031 686.73 51.0031 689.356 48.7686 694.148 46.6905 699.259 44.4743 705.454 42.9863 712.582 42.3783 716.909 41.9828 721.414 41.7698 725.925 41.7331ZM770.653 63.2446C773.883 63.2359 777.105 63.3968 780.227 63.7029 788.24 64.281 795.304 66.306 800.444 69.8493 805.206 73.1318 806.673 76.6573 806.673 76.6573 806.673 76.6573 804.075 73.8876 799.256 72.107 793.531 69.9918 787.983 69.9304 779.718 68.8984 771.816 68.1223 763.332 68.3894 755.749 69.7643 748.908 71.1716 744.242 71.7386 739.504 73.8558 735.474 75.6571 733.241 78.0496 733.241 78.0496 733.241 78.0496 734.316 74.9419 738.112 71.6999 742.162 68.2416 748.012 65.7124 754.816 64.6369 759.855 63.7227 765.271 63.2596 770.653 63.2446ZM489.925 65.7067C491.924 65.7221 493.867 65.8375 495.763 66.0462 502.752 66.8131 506.95 68.7796 506.95 68.7796 506.95 68.7796 502.362 68.0682 495.713 68.6265 487.375 69.3268 481.889 71.0199 471.235 73.0579 461.473 74.994 451.361 77.8057 442.378 81.1737 433.915 84.4336 429.562 85.4685 423.315 88.6269 418.426 91.0995 415.507 93.6186 415.507 93.6186 415.507 93.6186 417.399 90.2534 421.872 86.4711 426.698 82.3902 432.943 79.0565 440.545 76.284 449.798 72.815 460.216 69.914 470.217 67.9306 477.42 66.4513 483.925 65.6603 489.925 65.7062ZM791.413 85.0276C796.054 85.0102 800.734 85.3444 805.197 85.9954 812.043 86.9091 817.926 89.0872 822.358 92.0567 826.528 94.8501 828.316 97.6255 828.316 97.6255 828.316 97.6255 825.586 95.7985 821.221 94.3826 816.026 92.6971 811.502 92.2813 804.433 91.157 797.7 90.1742 790.448 89.9796 783.639 90.6311 777.097 91.3048 773.234 91.4709 768.209 92.5324 764.068 93.407 761.3 94.553 761.3 94.553 761.3 94.553 763.312 92.3223 767.292 90.1047 771.479 87.7716 776.924 85.9862 783.147 85.4357 785.856 85.1768 788.629 85.0392 791.413 85.0281ZM465.226 88.9157C467.226 88.9331 469.169 89.0471 471.065 89.2557 478.053 90.0221 482.269 91.9891 482.269 91.9891 482.269 91.9891 477.681 91.2947 471.032 91.8534 462.693 92.5542 457.191 94.23 446.537 96.268 436.775 98.2036 426.663 101.016 417.68 104.384 409.216 107.644 404.864 108.679 398.617 111.837 393.727 114.31 390.809 116.845 390.809 116.845 390.809 116.845 392.701 113.463 397.174 109.681 402 105.6 408.262 102.283 415.863 99.5109 425.117 96.0419 435.517 93.1409 445.518 91.1575 452.721 89.6783 459.227 88.8698 465.226 88.9162ZM824.107 110.003C828.006 109.959 831.783 110.557 835.429 111.735 845.681 115.088 850.672 124.027 850.672 124.027 850.672 124.027 842.009 119.294 833.833 116.692 830.271 115.542 826.563 115.04 822.732 115.266 814.982 115.693 806.13 117.507 806.13 117.507 806.13 117.507 812.559 110.685 822.426 110.071 822.989 110.036 823.55 110.01 824.107 110.001ZM441.275 113.874C443.274 113.891 445.218 113.988 447.114 114.197 454.102 114.964 458.318 116.93 458.318 116.93 458.318 116.93 453.729 116.236 447.08 116.794 438.742 117.495 433.239 119.17 422.586 121.208 412.824 123.144 402.711 125.957 393.728 129.324 385.265 132.584 380.913 133.636 374.666 136.795 369.776 139.267 366.857 141.786 366.857 141.786 366.857 141.786 368.75 138.421 373.223 134.638 378.049 130.558 384.311 127.224 391.912 124.451 401.165 120.982 411.565 118.081 421.567 116.098 428.77 114.619 435.275 113.828 441.275 113.874ZM422.534 138.934C423.225 138.93 423.908 138.942 424.588 138.986 429.547 139.297 432.38 140.888 432.38 140.888 432.38 140.888 429.158 140.577 424.775 141.567 420.358 142.564 414.589 145.163 408.428 146.864 391.93 151.734 371.996 160.464 359.066 169.547 353.323 173.58 342.518 186.083 342.617 185.999 347.443 181.918 353.688 178.585 361.29 175.812 370.543 172.343 380.96 169.442 390.962 167.458 400.566 165.487 408.905 164.741 416.492 165.574 423.48 166.341 427.695 168.307 427.695 168.307 427.695 168.307 423.107 167.613 416.457 168.172 408.119 168.872 402.634 170.548 391.98 172.586 382.218 174.522 372.106 177.334 363.123 180.702 354.659 183.961 350.29 184.996 344.043 188.155 341.395 189.494 339.393 190.813 338.051 191.771 334.702 196.248 331.586 200.756 328.817 204.811 324.154 211.672 317.223 216.611 317.223 216.611 317.223 216.611 319.93 208.544 324.505 201.874 332.604 190.012 344.256 173.589 356.078 165.285 369.399 155.929 390.184 146.805 406.952 141.855 412.572 140.084 417.696 138.961 422.534 138.935ZM948.192 201.736C953.307 201.754 957.593 204.886 959.464 208.002 961.703 211.73 960.397 214.215 960.397 214.215 960.397 214.215 959.267 211.817 956.696 210.956 954.026 210.061 950.03 210.612 946.563 210.65 941.982 211.341 939.127 213.601 939.705 216.354 940.052 219.89 942.735 223.582 945.289 227 947.745 230.285 949.533 232.688 949.533 232.688 949.533 232.688 946.658 232.314 942.557 230.548 938.519 228.81 933.107 225.237 931.2 218.154 929.233 208.77 937.505 203.231 945.273 202.059 946.266 201.829 947.245 201.733 948.192 201.736ZM603.316 237.34C603.784 237.332 604.256 237.335 604.725 237.34L620.902 237.527C634.788 237.693 648.639 240.464 648.639 240.464 648.639 240.464 634.719 242.905 620.834 242.739L604.674 242.552 582.182 242.281C589.246 239.106 596.289 237.46 603.316 237.341ZM1009.28 241.381C1017.08 241.381 1023.41 246.246 1023.41 252.247 1023.41 258.248 1017.08 263.113 1009.28 263.113 1001.48 263.113 995.161 258.248 995.161 252.247 995.161 246.246 1001.48 241.381 1009.28 241.381ZM614.655 250.753 629.983 250.822C643.146 250.884 656.294 253.556 656.294 253.556 656.294 253.556 643.112 256.097 629.949 256.035L614.621 255.966C603.967 255.913 593.335 253.266 593.334 253.266 593.334 253.266 604.001 250.703 614.655 250.753ZM575.749 258.41 586.035 258.462C603.266 258.541 620.495 261.213 620.494 261.213 620.494 261.213 603.249 263.751 586.018 263.675L575.715 263.622C564.267 263.57 552.833 260.923 552.833 260.923 552.833 260.923 564.301 258.359 575.749 258.41ZM944.169 268.377C950.524 268.403 960.868 268.822 970.871 270.906L1001.51 277.29C1004.21 277.853 1006.03 282.672 1006.03 282.672 1006.03 282.672 1002.43 286.359 999.727 285.796L969.105 279.412C953.101 276.078 937.973 268.495 937.973 268.495 937.973 268.495 940.356 268.362 944.169 268.376ZM612.38 269.684 630 269.701C645.125 269.71 660.249 272.333 660.249 272.333 660.249 272.333 645.125 274.925 630 274.914L612.38 274.896C600.139 274.888 587.903 272.282 587.902 272.282 587.903 272.282 600.139 269.675 612.38 269.684ZM563.544 276.441 578.872 276.511C592.035 276.572 605.183 279.244 605.183 279.244 605.183 279.244 592.001 281.785 578.838 281.723L563.51 281.653C552.856 281.601 542.224 278.937 542.224 278.937 542.224 278.937 552.889 276.39 563.544 276.441ZM607.509 284.761C608.198 284.752 608.888 284.752 609.579 284.761L625.502 284.948C639.181 285.113 652.831 287.885 652.831 287.885 652.831 287.885 639.13 290.326 625.451 290.159L609.511 289.973C598.439 289.839 587.41 287.087 587.41 287.087 587.41 287.087 597.166 284.922 607.509 284.761ZM963.435 293.097C967.19 293.088 971.173 293.237 975.131 293.657L1026.72 299.142C1023.57 301.448 1020.37 303.684 1017.13 305.848 1000.8 316.753 987.315 323.109 973.162 329.312 961.14 334.582 947.36 335.916 947.36 335.916 947.36 335.916 957.611 326.632 969.666 321.349 980.394 316.647 990.562 311.902 1001.78 305.237L974.214 302.3C958.382 300.619 943.015 294.625 943.015 294.625 943.015 294.625 952.174 293.131 963.435 293.097ZM596.152 298.665 612.38 298.735C626.318 298.796 640.236 301.469 640.236 301.469 640.236 301.469 626.301 304.008 612.364 303.947L596.135 303.878 573.559 303.776C581.095 300.333 588.632 298.631 596.152 298.666ZM596.831 312.52C609.271 312.477 621.716 315.05 621.716 315.05 621.716 315.05 609.288 317.709 596.848 317.749L582.369 317.784C572.3 317.819 562.22 315.254 562.22 315.254 562.22 315.254 572.283 312.605 582.352 312.572ZM263.583 316.086C263.583 316.086 249.509 326.669 233.962 333.505 217.856 340.586 201.811 348.083 185.787 356.748 172.049 364.179 156.336 369.007 156.336 369.007 156.336 369.007 167.429 356.788 181.662 349.091 197.967 340.273 214.241 332.676 230.465 325.542 246.15 318.646 263.583 316.086 263.583 316.086ZM149.699 319.227C149.699 319.227 154.389 321.942 156.845 326.018L163.55 337.156C166.299 341.717 166.826 347.631 166.826 347.631 166.826 347.631 161.834 344.416 159.086 339.855L152.381 328.717C149.925 324.641 149.699 319.227 149.699 319.227ZM109.197 320.449C109.197 320.449 114.931 325.089 118.414 331.043L127.937 347.308C131.835 353.971 133.488 361.961 133.488 361.961 133.488 361.961 127.336 356.603 123.439 349.94L113.916 333.675C110.432 327.721 109.197 320.449 109.197 320.449ZM131.434 321.195C131.434 321.195 136.548 324.727 139.429 329.583L147.305 342.843C150.529 348.276 151.515 355.034 151.515 355.034 151.515 355.034 146.048 350.942 142.824 345.509L134.948 332.232C132.066 327.376 131.434 321.195 131.434 321.195ZM572.914 329.702 584.338 329.719C594.146 329.728 603.944 332.334 603.944 332.334 603.944 332.334 594.128 334.942 584.321 334.932L572.914 334.914C564.975 334.905 557.026 332.282 557.026 332.282 557.026 332.282 564.975 329.693 572.914 329.702ZM541.714 339.838 553.138 339.855C562.946 339.864 572.761 342.487 572.761 342.487 572.761 342.487 562.946 345.078 553.138 345.068L541.714 345.068C533.776 345.059 525.843 342.436 525.843 342.436 525.843 342.436 533.776 339.829 541.714 339.838ZM59.3253 339.957C59.3253 339.957 65.4501 345.2 69.3235 351.757L79.8986 369.669C84.2325 377.005 86.315 385.662 86.315 385.662 86.315 385.662 79.7508 379.654 75.4174 372.317L64.8249 354.405C60.9515 347.849 59.3253 339.957 59.3253 339.957ZM1042.72 347.58C1022.41 347.731 1001.15 351.056 987.098 355.339 964.042 373.693 956.405 394.946 933.237 400.994 926.763 405.31 501.23 396.929 314.863 399.788 262.57 400.591 196.634 482.116 196.634 482.116 196.634 482.116 200.377 492.185 207.193 492.677 270.596 497.222 418.291 498.908 418.291 498.908 418.291 498.908 419.028 494.134 415.807 483.346 408.746 472.208 390.045 454.357 390.045 454.357L404.168 453.27 424.809 469.569C425.926 462.718 423.084 451.907 421.55 442.404L433.5 444.577 436.759 470.656C442.001 465.871 444.815 460.115 463.919 460.876L449.796 479.349 449.083 500.86C508.588 501.285 569.153 500.708 629.236 499.621L625.79 477.175C625.79 477.175 607.083 472.763 602.976 465.223 601.063 461.71 604.063 453.27 604.063 453.27 604.063 453.27 607.924 461.785 611.667 464.136 616.526 467.188 628.659 466.904 628.659 466.904L618.186 444.577C618.186 444.577 627.612 443.219 631.222 445.664 634.575 447.934 636.654 456.53 636.654 456.53L646.432 442.404 651.864 464.136 673.591 453.27 661.641 483.695 659.553 498.959C731.731 497.393 802.051 495.194 865.236 492.354L848.499 463.049 868.054 472.829 872.4 440.231 878.918 473.916 900.646 463.049C900.646 463.049 892.295 470.056 890.868 475.002 889.386 480.143 892.855 490.928 892.855 490.928 923.455 489.442 953.08 487.947 979.273 486.344L954.965 453.27C954.965 453.27 967.056 451.968 972.347 454.357 975.615 455.831 979.952 461.963 979.952 461.963L994.075 444.577C994.075 444.577 996.388 454.143 995.161 458.703 994.26 462.054 989.264 467.279 989.264 467.279L991.053 485.529C1047.5 481.938 1093.27 478.244 1117.38 475.07 1130.03 473.404 1105.94 444.259 1099.78 415.205 1093.62 386.151 1098.01 374.262 1092.73 358.854 1082.42 350.448 1063.04 347.43 1042.72 347.58ZM46.9845 355.764C46.9845 355.764 52.4729 359.685 55.7436 364.966L64.6723 379.38C68.3322 385.29 69.7817 392.573 69.7817 392.573 69.7817 392.573 63.9021 388.04 60.2418 382.131L51.3131 367.7C48.0424 362.419 46.9845 355.764 46.9845 355.764ZM198.094 370.348C198.094 370.348 202.59 372.853 204.833 376.681L210.961 387.14C213.471 391.423 213.728 397.021 213.728 397.021 213.728 397.021 208.973 394.054 206.462 389.771L200.335 379.313C198.092 375.485 198.094 370.348 198.094 370.348ZM35.3742 371.078C35.3742 371.078 40.1958 374.203 42.7582 378.634L49.7516 390.739C52.6187 395.696 53.2314 401.962 53.2314 401.962 53.2314 401.962 48.1206 398.311 45.253 393.354L38.2427 381.248C35.6803 376.818 35.3742 371.078 35.3742 371.078ZM177.843 380.722C177.843 380.722 182.665 383.797 185.227 388.193L192.221 400.196C195.088 405.114 195.7 411.351 195.7 411.351 195.7 411.351 190.59 407.745 187.723 402.828L180.729 390.824C178.167 386.429 177.843 380.722 177.843 380.722ZM19.1972 387.598C19.1972 387.598 23.6924 390.12 25.9361 393.948L32.0638 404.407C34.5741 408.69 34.831 414.288 34.831 414.288 34.831 414.288 30.076 411.322 27.5657 407.038L21.4375 396.58C19.1943 392.752 19.1972 387.598 19.1972 387.598ZM1082.07 389.33C1084.22 389.054 1086.18 390.576 1086.45 392.726 1086.72 394.868 1085.2 396.821 1083.06 397.089 1061.05 399.86 1039.28 398.54 1017.77 397.412 1015.62 397.299 1013.96 395.459 1014.07 393.303 1014.18 391.147 1016.02 389.49 1018.18 389.602 1039.73 390.733 1061.01 391.981 1082.07 389.33ZM160.817 390.349C160.817 390.349 166.877 395.641 170.68 402.234L181.069 420.231C185.323 427.606 187.315 436.292 187.315 436.292 187.315 436.292 180.808 430.221 176.553 422.845L166.164 404.831C162.362 398.24 160.817 390.349 160.817 390.349ZM119.145 393.32C119.145 393.32 110.78 402.584 100.404 407.989L74.8573 421.3C63.6878 427.118 50.5155 429.076 50.5155 429.076 50.5155 429.076 59.6817 419.411 70.8512 413.592L96.3981 400.281C106.775 394.875 119.145 393.32 119.145 393.32ZM929.978 415.68 959.311 415.68C961.466 415.684 963.211 417.43 963.215 419.585 963.211 421.74 961.466 423.487 959.311 423.491L929.978 423.491C927.824 423.487 926.078 421.74 926.074 419.585 926.078 417.43 927.824 415.684 929.978 415.68ZM290.097 416.767 353.108 416.767C355.262 416.771 357.008 418.517 357.012 420.672 357.008 422.827 355.262 424.573 353.108 424.577L290.097 424.577C287.943 424.573 286.197 422.827 286.193 420.672 286.197 418.517 287.943 416.771 290.097 416.767ZM1052.96 417.854C1058.98 417.857 1065.24 418.311 1071.6 418.957 1073.74 419.175 1075.31 421.089 1075.1 423.236 1074.88 425.382 1072.96 426.946 1070.82 426.733 1050.99 424.722 1033.62 425.313 1023.71 433.474 1022.04 434.841 1019.58 434.598 1018.21 432.931 1016.85 431.261 1017.09 428.799 1018.76 427.429 1025.28 422.06 1033.4 419.432 1042.44 418.397 1045.83 418.008 1049.35 417.852 1052.96 417.854ZM711.666 421.113C735.867 421.386 759.031 425.26 780.515 434.459 782.505 435.309 783.426 437.615 782.569 439.603 781.718 441.593 779.413 442.513 777.426 441.657 757.079 432.946 734.985 429.188 711.564 428.924 709.409 428.889 707.686 427.123 707.711 424.967 707.745 422.812 709.511 421.089 711.666 421.113ZM114.137 423.202C114.137 423.202 120.133 428.79 123.83 435.63L133.93 454.323C138.065 461.976 139.905 470.86 139.905 470.86 139.905 470.86 133.482 464.455 129.346 456.802L119.246 438.109C115.55 431.269 114.137 423.202 114.137 423.202ZM579.958 427.378C586.871 427.396 591.673 428.202 595.406 429.569 600.382 431.392 603.128 434.209 605.455 436.122 607.122 437.492 607.365 439.953 605.998 441.623 604.628 443.291 602.167 443.534 600.498 442.167 597.706 439.87 596.185 438.194 592.707 436.92 589.229 435.647 583.467 434.769 572.812 435.443 570.656 435.585 568.793 433.95 568.653 431.793 568.512 429.636 570.146 427.773 572.303 427.633 575.115 427.455 577.654 427.372 579.958 427.378ZM96.8563 432.829C96.8568 432.829 102.608 437.633 106.091 443.729L115.614 460.384C119.512 467.205 121.147 475.308 121.147 475.308 121.147 475.308 114.979 469.786 111.081 462.965L101.559 446.309C98.075 440.213 96.8563 432.829 96.8563 432.829ZM484.323 433.066C486.479 432.934 488.334 434.576 488.464 436.733 488.596 438.89 486.954 440.745 484.798 440.876L466.329 441.962C464.173 442.094 462.319 440.452 462.187 438.295 462.057 436.138 463.698 434.283 465.854 434.152ZM499.77 433.066 533.448 433.066C535.602 433.07 537.348 434.815 537.352 436.971 537.348 439.126 535.602 440.872 533.448 440.876L499.77 440.876C497.615 440.872 495.869 439.126 495.865 436.971 495.869 434.815 497.615 433.07 499.77 433.066ZM81.5455 439.246C81.5455 439.246 86.8568 443.448 89.8798 448.907L98.1296 463.813C101.512 469.921 102.628 477.294 102.628 477.294 102.628 477.294 96.963 472.45 93.5803 466.343L85.3136 451.419C82.2906 445.961 81.5455 439.246 81.5455 439.246ZM272.715 441.759 324.862 441.759C327.016 441.763 328.762 443.509 328.766 445.664 328.762 447.819 327.016 449.565 324.862 449.569L272.715 449.569C270.561 449.565 268.815 447.819 268.811 445.664 268.815 443.509 270.561 441.763 272.715 441.759ZM1038.35 443.915C1058.48 443.898 1071.83 448.777 1083.67 454.051 1085.63 454.935 1086.52 457.243 1085.64 459.213 1084.75 461.179 1082.45 462.06 1080.48 461.182 1068.6 455.889 1056.49 451.411 1036.51 451.742 1034.36 451.777 1032.58 450.06 1032.54 447.905 1032.5 445.75 1034.22 443.973 1036.38 443.932 1037.04 443.923 1037.7 443.914 1038.35 443.914ZM65.9962 445.919C65.9962 445.919 70.4919 448.424 72.7352 452.251L78.8634 462.71C81.3736 466.993 81.63 472.591 81.63 472.591 81.63 472.591 76.8755 469.625 74.3648 465.341L68.2371 454.883C65.9933 451.055 65.9962 445.919 65.9962 445.919ZM245.708 468.924 273.955 470.011C276.11 470.097 277.788 471.913 277.706 474.069 277.619 476.224 275.804 477.903 273.649 477.821L245.403 476.734C243.247 476.647 241.569 474.832 241.651 472.676 241.738 470.521 243.553 468.842 245.708 468.924Z" fill="#FFC000" fill-rule="evenodd" transform="matrix(-1 0 0 1 2809 821)"/><rect x="1031" y="1627" width="2338" height="390" fill="#084411"/><rect x="0" y="0" width="2338" height="65" fill="#FFC000" transform="matrix(-1 0 0 1 3369 1562)"/></g></svg>
