<svg width="2340" height="1561" xmlns="http://www.w3.org/2000/svg" xmlns:xlink="http://www.w3.org/1999/xlink" xml:space="preserve" overflow="hidden"><g transform="translate(-1031 -463)"><path d="M1031.51 464.49 3369.51 464.49 3369.51 2023.49 1031.51 2023.49Z" stroke="#000000" stroke-width="1.14583" stroke-linecap="square" stroke-miterlimit="8" fill="#F2F2F2" fill-rule="evenodd"/><path d="M2258.84 956.326 2271.09 956.809C2339.79 961.866 2396 971.98 2396 971.98L2396 1005.01C2396 1005.01 2262.77 1020 2185.05 1020 2107.33 1020 2000 1001.99 2000 1001.99 2000.01 991.997 2000.02 982.002 2000.03 972.007 2000.03 972.007 2058.31 961.878 2128.04 956.814L2138.82 956.392 2142.09 972.696C2151.66 995.501 2173.91 1011.5 2198.82 1011.5 2223.74 1011.5 2245.98 995.501 2255.55 972.696L2258.84 956.326ZM2199.86 954 2234.21 955.355 2232.61 964.062C2227.23 977.988 2214.64 987.759 2199.96 987.759 2185.29 987.759 2172.7 977.988 2167.32 964.062L2165.71 955.338 2199.86 954Z" fill="#003271" fill-rule="evenodd"/><path d="M2257 948.058C2257 931.506 2250.7 916.534 2240.52 905.699 2235.43 900.282 2229.36 895.899 2222.63 892.871 2219.27 891.357 2219.86 890.779 2216.2 889.982L2216.31 910.731C2220.72 912.937 2221.75 915.132 2225.09 919.076 2231.77 926.964 2235.9 937.857 2235.9 949.882 2235.9 973.933 2219.37 989.512 2199 989.512 2178.63 989.512 2162.1 973.933 2162.1 949.882 2162.1 937.857 2166.23 926.964 2172.91 919.076 2176.25 915.132 2177.28 912.937 2181.69 910.731L2181.8 889.982C2178.14 890.779 2178.73 891.357 2175.37 892.871 2168.64 895.899 2162.58 900.282 2157.48 905.699 2147.3 916.534 2141 931.506 2141 948.058 2141 981.161 2167.77 1007.98 2199 1007.98 2230.23 1007.98 2257 981.161 2257 948.058Z" fill="#003271" fill-rule="evenodd"/><path d="M2218.82 1023.24 2218.75 1031.27C2217.82 1142.66 2215.34 1442.6 2215.34 1473.52 2215.34 1511.57 2258.76 1518.2 2320.02 1488.75 2353.64 1473.52 2450.8 1397.34 2450.8 1397.34L2391.03 1382.11 2491.94 1340.23C2518.09 1328.79 2548 1305.93 2548 1305.93 2548 1305.93 2544.28 1366.87 2533.05 1401.13 2521.81 1435.43 2480.71 1484.92 2480.71 1484.92L2480.71 1420.19C2480.71 1420.19 2420.93 1477.31 2398.5 1492.54 2376.07 1507.78 2327.49 1530.59 2290.11 1545.83 2252.73 1561.06 2195.37 1622 2195.37 1622 2195.37 1622 2140.58 1568.68 2110.67 1549.69 2080.8 1530.63 2006.03 1500.16 1987.36 1488.75 1968.65 1477.31 1916.31 1427.81 1916.31 1427.81L1916.31 1477.31C1916.31 1477.31 1878.97 1439.22 1860.26 1397.34 1841.58 1355.46 1845.3 1298.32 1845.3 1298.32 1845.3 1298.32 1875.21 1321.17 1912.59 1347.85 1949.98 1374.49 2006.03 1385.9 2006.03 1385.9L1949.98 1404.96C1949.98 1404.96 1949.98 1412.58 2009.75 1454.45 2069.57 1496.33 2110.71 1496.33 2144.3 1503.95 2177.96 1511.57 2177.96 1469.69 2177.96 1439.22 2177.96 1414.46 2180.44 1133.32 2181.37 1028.76 2181.38 1027.18 2181.4 1025.61 2181.41 1024.03L2185.44 1024.16C2195.25 1024.16 2205.93 1023.87 2217.12 1023.35L2218.82 1023.24ZM2185.44 849 2211.59 849C2211.42 882.599 2211.26 916.199 2211.1 949.798L2200.88 949.243 2185.93 949.98C2185.76 916.32 2185.6 882.66 2185.44 849Z" fill="#003271" fill-rule="evenodd"/><path d="M2199.43 587.965 2225.42 651.67 2295.01 658.053 2241.34 702.008 2256.66 768.965 2197.5 732.426 2137.38 767.424 2154.49 700.886 2102.01 655.56 2171.75 650.976Z" stroke="#003271" stroke-width="13.75" stroke-linecap="square" stroke-miterlimit="8" fill="#FEC500" fill-rule="evenodd"/><path d="M2508.05 662.968 2498.89 731.36 2556.02 771.748 2487.65 783.09 2467.63 848.968 2434.53 787.586 2365.02 787.913 2412.94 738.635 2390 672.959 2452.72 703.886Z" stroke="#003271" stroke-width="13.75" stroke-linecap="square" stroke-miterlimit="8" fill="#FEC500" fill-rule="evenodd"/><path d="M2736.03 870.278 2698.03 927.8 2732.34 988.94 2665.38 969.433 2618.62 1019.98 2615.23 950.398 2552.03 920.494 2616.9 897 2624.59 827.976 2668.07 883.034Z" stroke="#003271" stroke-width="13.75" stroke-linecap="square" stroke-miterlimit="8" fill="#FEC500" fill-rule="evenodd"/><path d="M2844.03 1172.06 2783.87 1206.06 2786.51 1275.99 2735.73 1228.33 2670.94 1252.15 2699.72 1188.7 2657.03 1133.49 2725.6 1141.93 2764.01 1083.99 2777.61 1152.66Z" stroke="#003271" stroke-width="13.75" stroke-linecap="square" stroke-miterlimit="8" fill="#FEC500" fill-rule="evenodd"/><path d="M2812.03 1485.71 2743.15 1488.32 2713.18 1552 2690.31 1486.01 2622.03 1477.4 2676.78 1434 2664.56 1365 2721.27 1404.17 2781.98 1370.14 2762.28 1437.74Z" stroke="#003271" stroke-width="13.75" stroke-linecap="square" stroke-miterlimit="8" fill="#FEC500" fill-rule="evenodd"/><path d="M1889.94 662.969 1941.33 708.618 2006.75 683.776 1977.78 746.719 2021 799.966 1951.7 793.218 1912.99 850.969 1899.14 783.855 1832 766.3 1892.73 731.569Z" stroke="#003271" stroke-width="13.75" stroke-linecap="square" stroke-miterlimit="8" fill="#FEC500" fill-rule="evenodd"/><path d="M2361.44 1700.02 2362.42 1769.03 2425.02 1800.52 2358.89 1821.87 2348.74 1890.02 2306.88 1834.2 2238.02 1844.83 2278.27 1788.97 2245.87 1727.4 2312.6 1748.7Z" stroke="#003271" stroke-width="13.75" stroke-linecap="square" stroke-miterlimit="8" fill="#FEC500" fill-rule="evenodd"/><path d="M1765 834.976 1770.65 903.612 1834.99 930.685 1770.72 956.453 1765.24 1024.98 1719.86 972.267 1652.14 987.543 1688.37 929.198 1651.99 870.116 1719.76 886.767Z" stroke="#003271" stroke-width="13.75" stroke-linecap="square" stroke-miterlimit="8" fill="#FEC500" fill-rule="evenodd"/><path d="M1624.78 1083.99 1662.43 1141.55 1731.98 1134.53 1687.65 1187.92 1715.44 1250.72 1650.39 1226.15 1598.01 1271.99 1602.15 1203.41 1541.98 1168.94 1609.59 1151.12Z" stroke="#003271" stroke-width="13.75" stroke-linecap="square" stroke-miterlimit="8" fill="#FEC500" fill-rule="evenodd"/><path d="M1613.4 1366.81 1674.42 1398.85 1732.06 1359 1719.08 1427.13 1773.99 1468.51 1704.94 1478.58 1681.24 1544 1651.55 1482.1 1581.99 1481.15 1632.68 1432.82Z" stroke="#003271" stroke-width="13.75" stroke-linecap="square" stroke-miterlimit="8" fill="#FEC500" fill-rule="evenodd"/><path d="M1837.7 1566.01 1856.39 1632.14 1924.99 1646.33 1866.55 1683.86 1874.23 1752.01 1819.43 1709.08 1755.57 1737 1780.15 1672.93 1732.99 1622.04 1802.99 1625.38Z" stroke="#003271" stroke-width="13.75" stroke-linecap="square" stroke-miterlimit="8" fill="#FEC500" fill-rule="evenodd"/><path d="M2136.42 1729.56 2104.65 1790.49 2145 1847.61 2076.54 1835.11 2035.35 1890.02 2024.81 1821.37 1959 1798.18 2020.95 1768.25 2021.47 1699.02 2070.29 1749.16Z" stroke="#003271" stroke-width="13.75" stroke-linecap="square" stroke-miterlimit="8" fill="#FEC500" fill-rule="evenodd"/><path d="M2555.2 1569.01 2590.02 1628.26 2660.03 1624.73 2612.95 1675.72 2637.63 1739.69 2573.72 1711.96 2518.97 1755.01 2526.55 1686.88 2468.03 1649.52 2536.62 1635.15Z" stroke="#003271" stroke-width="13.75" stroke-linecap="square" stroke-miterlimit="8" fill="#FEC500" fill-rule="evenodd"/></g></svg>
