<svg width="2339" height="1560" xmlns="http://www.w3.org/2000/svg" xmlns:xlink="http://www.w3.org/1999/xlink" xml:space="preserve" overflow="hidden"><g transform="translate(-1031 -458)"><path d="M1031.5 458.5 3369.5 458.5 3369.5 2017.5 1031.5 2017.5Z" stroke="#000000" stroke-width="1.14583" stroke-miterlimit="8" fill="#738FC3" fill-rule="evenodd"/><path d="M2847 1237.5C2847 1595.1 2557.33 1885 2200 1885 1842.67 1885 1553 1595.1 1553 1237.5 1553 879.896 1842.67 590 2200 590 2557.33 590 2847 879.896 2847 1237.5Z" fill="#F2F2F2" fill-rule="evenodd"/><path d="M2682 1237.5C2682 1503.43 2466.2 1719 2200 1719 1933.8 1719 1718 1503.43 1718 1237.5 1718 971.575 1933.8 756 2200 756 2466.2 756 2682 971.575 2682 1237.5Z" fill="#28358C" fill-rule="evenodd"/><path d="M2200 590 2307.89 942.528 2415.78 813.028 2372.62 985.694 2660.32 777.055 2451.74 1064.83 2624.36 1014.47 2494.89 1122.39 3171 1237.5 2494.89 1352.61 2624.36 1460.53 2451.74 1410.17 2660.32 1697.94 2372.62 1489.31 2415.78 1661.97 2307.89 1532.47 2200 1885 2092.11 1532.47 1984.22 1661.97 2027.38 1489.31 1739.68 1697.94 1948.26 1410.17 1775.64 1460.53 1905.11 1352.61 1229 1237.5 1905.11 1122.39 1775.64 1014.47 1948.26 1064.83 1739.68 777.055 2027.38 985.694 1984.22 813.028 2092.11 942.528Z" fill="#F7D52A" fill-rule="evenodd"/><path d="M2516 1237.5C2516 1412.3 2374.52 1554 2200 1554 2025.48 1554 1884 1412.3 1884 1237.5 1884 1062.7 2025.48 921 2200 921 2374.52 921 2516 1062.7 2516 1237.5Z" fill="#DA5F00" fill-rule="evenodd"/><path d="M2250.36 1036C2323.33 1049.62 2380.41 1106.85 2394 1179.99L2250.36 1179.99ZM2250.36 1432C2323.33 1418.38 2380.41 1361.15 2394 1288.01L2250.36 1288.01ZM2142.64 1036C2069.67 1049.62 2012.59 1106.85 1999 1179.99L2142.64 1179.99ZM2142.64 1432C2069.67 1418.38 2012.59 1361.15 1999 1288.01L2142.64 1288.01Z" fill="#28358C" fill-rule="evenodd"/></g></svg>
