<svg width="2339" height="1558" xmlns="http://www.w3.org/2000/svg" xmlns:xlink="http://www.w3.org/1999/xlink" xml:space="preserve" overflow="hidden"><defs><clipPath id="clip0"><rect x="1031" y="457" width="2339" height="1558"/></clipPath></defs><g clip-path="url(#clip0)" transform="translate(-1031 -457)"><path d="M1031 457.95 3370 457.95 3370 2014.95 1031 2014.95Z" fill="#337711" fill-rule="evenodd"/><path d="M1031 457.95 1967 457.95 1967 1235.95 1031 1235.95Z" fill="#2277CC" fill-rule="evenodd"/><path d="M1233.46 1057.93 1224.06 1065.45 1191.64 1091.32 1146.93 1061.9 1165.8 1111.95 1123.98 1145.34 1177.46 1142.88 1196.32 1192.93 1210.51 1141.37 1263.98 1138.91 1219.27 1109.5Z" fill="#FFFFFF" fill-rule="evenodd"/><path d="M1566.46 1032.93 1559.37 1042.62 1534.56 1076.48 1483.03 1059.79 1514.85 1103.39 1482.95 1146.93 1534.51 1130.34 1566.33 1173.93 1566.38 1120.08 1617.95 1103.48 1566.42 1086.79Z" fill="#FFFFFF" fill-rule="evenodd"/><path d="M1819.06 1009.94 1813.9 1020.75 1797.81 1054.46 1748.92 1048 1784.68 1081.97 1763.43 1126.49 1806.78 1102.96 1842.54 1136.94 1833.57 1088.42 1876.92 1064.9 1828.03 1058.45Z" fill="#FFFFFF" fill-rule="evenodd"/><path d="M1417.18 935.945 1408.74 944.486 1383.48 970.071 1340.54 948.646 1362.65 991.161 1328.96 1025.28 1376.33 1017.43 1398.45 1059.95 1405.6 1012.58 1452.96 1004.73 1410.02 983.31Z" fill="#FFFFFF" fill-rule="evenodd"/><path d="M1239.23 830.955 1232.12 840.614 1208.96 872.084 1160.74 855.823 1190.25 897.502 1159.98 938.637 1208.49 923.265 1238 964.955 1238.47 913.77 1286.98 898.399 1238.76 882.137Z" fill="#FFFFFF" fill-rule="evenodd"/><path d="M1692.22 899.95 1684.58 909.707 1659.67 941.496 1610.03 923.436 1639.55 967.171 1607 1008.72 1657.8 994.205 1687.33 1037.95 1689.2 985.238 1740 970.721 1690.35 952.661Z" fill="#FFFFFF" fill-rule="evenodd"/><path d="M1516.24 759.963 1508.8 769.344 1486.72 797.153 1442.07 780.687 1468.47 820.132 1438.95 857.317 1484.79 844.512 1511.18 883.963 1513.12 836.597 1558.95 823.792 1514.31 807.326Z" fill="#FFFFFF" fill-rule="evenodd"/><path d="M1729.05 676.971 1723.61 687.648 1705.73 722.819 1654.93 714.812 1691.32 751.159 1668.01 797.012 1713.81 773.624 1750.21 809.971 1742.12 759.167 1787.93 735.779 1737.13 727.772Z" fill="#FFFFFF" fill-rule="evenodd"/><path d="M1335.33 672.972 1329.64 683.453 1313.66 712.932 1268.97 704.67 1300.27 737.63 1278.6 777.596 1319.61 758.007 1350.91 790.972 1344.95 745.904 1385.97 726.315 1341.28 718.044Z" fill="#FFFFFF" fill-rule="evenodd"/><path d="M1494.68 618.978 1474.06 654.828 1433.95 646.09 1461.32 676.986 1440.7 712.836 1478.23 696.077 1505.6 726.978 1501.43 685.726 1538.95 668.967 1498.85 660.229Z" fill="#FFFFFF" fill-rule="evenodd"/><path d="M1202.46 527.986 1179.11 571.322 1130.98 562.342 1164.68 598.111 1141.32 641.452 1185.5 620.218 1219.2 655.986 1212.8 607.095 1256.98 585.856 1208.85 576.876Z" fill="#FFFFFF" fill-rule="evenodd"/><path d="M1864.98 515.987 1857.39 525.283 1830.19 558.61 1779.07 538.573 1808.7 584.946 1773.92 627.569 1827.01 613.608 1856.65 659.987 1859.83 604.99 1912.92 591.029 1861.79 570.996Z" fill="#FFFFFF" fill-rule="evenodd"/><path d="M1512.59 480.992 1496.55 524.989 1449.95 523.252 1486.64 552.179 1470.6 596.176 1509.31 570.059 1545.99 598.992 1533.24 553.916 1571.95 527.794 1525.35 526.057Z" fill="#FFFFFF" fill-rule="evenodd"/></g></svg>
