<svg width="2339" height="1560" xmlns="http://www.w3.org/2000/svg" xmlns:xlink="http://www.w3.org/1999/xlink" xml:space="preserve" overflow="hidden"><defs><clipPath id="clip0"><rect x="1031" y="458" width="2339" height="1560"/></clipPath></defs><g clip-path="url(#clip0)" transform="translate(-1031 -458)"><path d="M1031.5 458.5 3369.5 458.5 3369.5 2017.5 1031.5 2017.5 1031.5 458.5Z" stroke="#000000" stroke-width="1.29849" stroke-miterlimit="8" fill="#F2F2F2" fill-rule="evenodd"/><path d="M1031 458 3369 458 3369 978 1031 978" fill="#002868" fill-rule="evenodd"/><path d="M1031 1497 3369 1497 3369 2017 1031 2017" fill="#002868" fill-rule="evenodd"/><path d="M2468.17 1497.48C2324.66 1746.04 2006.83 1831.2 1758.27 1687.7 1509.7 1544.19 1424.54 1226.35 1568.05 977.792 1711.56 729.231 2029.39 644.069 2277.96 787.578 2356.73 833.059 2422.19 898.421 2467.79 977.13L2242.95 1107.38C2171.01 983.209 2012.03 940.862 1887.86 1012.8 1763.68 1084.74 1721.34 1243.72 1793.27 1367.89 1865.21 1492.07 2024.19 1534.41 2148.36 1462.48 2187.72 1439.68 2220.4 1406.95 2243.14 1367.56Z" fill="#BF0A30" fill-rule="evenodd"/><path d="M2278 1237.5C2278 1380.82 2161.59 1497 2018 1497 1874.41 1497 1758 1380.82 1758 1237.5 1758 1094.18 1874.41 978 2018 978 2161.59 978 2278 1094.18 2278 1237.5Z" fill="#FFD700" fill-rule="evenodd"/></g></svg>