<svg width="2339" height="1560" xmlns="http://www.w3.org/2000/svg" xmlns:xlink="http://www.w3.org/1999/xlink" xml:space="preserve" overflow="hidden"><defs><clipPath id="clip0"><rect x="1031" y="458" width="2339" height="1560"/></clipPath></defs><g clip-path="url(#clip0)" transform="translate(-1031 -458)"><path d="M1031.5 458.5 3369.5 458.5 3369.5 2017.5 1031.5 2017.5 1031.5 458.5Z" stroke="#000000" stroke-width="1.29849" stroke-miterlimit="8" fill="#F2F2F2" fill-rule="evenodd"/><path d="M0 0 781 0 781 1559 0 1559" fill="#6E24AC" fill-rule="evenodd" transform="matrix(-1 0 0 1 1812 458)"/><path d="M560.264 450.301 565.179 448.116 568.783 454.726C591.458 495.992 638.319 580.638 662.485 649.951 690.103 729.166 694.038 804.137 692.571 896.707L688.369 896.778C685.688 796.544 687.525 742.885 656.703 652.772 633.587 585.187 589.638 498.749 567.694 461.911ZM653.498 297.916 656.524 341.193C657.885 355.424 659.554 369.025 661.505 382.251L676.061 457.516 695.569 453.586C759.663 436.765 804.047 397.366 798.489 358.558 792.931 319.75 739.273 294.393 673.034 296.237ZM258.862 350.013 263.292 353.529 259.81 375.36C251.637 425.931 237.857 504.691 217.808 564.329 191.076 643.847 148.231 705.496 90.3328 777.738L86.9686 775.219C146.288 694.378 180.629 653.107 211.511 563.014 234.672 495.445 252.927 400.209 258.169 357.652ZM243.187 290.747 253.25 288.912C295.165 279.871 388.377 253.14 453.595 224.007 540.552 185.163 578.574 147.255 653.762 80.9182L656.574 84.0424C589.82 148.193 532.267 196.398 455.47 230.161 388.272 259.703 294.387 283.082 248.734 294.604L246.91 295.071ZM220.47 264.362 204.767 293.428C216.54 308.808 228.231 323.666 242.484 337.011L254.411 346.48 253.925 347.691C250.622 357.504 250.91 361.512 245.396 368.204 238.045 377.127 222.118 379.66 214.662 389.168 207.207 398.675 200.129 418.761 200.662 425.249 201.194 431.736 215.436 425.59 217.857 428.091 220.278 430.591 225.152 431.877 215.189 440.251 205.226 448.625 162.416 455.673 158.08 478.336 153.744 500.998 179.568 495.168 182.444 501.548 185.319 507.929 186.911 510.504 175.333 516.619 163.755 522.734 134.556 527.091 112.976 538.237 91.3949 549.384 50.2243 569.406 45.8481 583.498 41.472 597.59 87.2706 609.774 86.7185 622.789 86.1663 635.805 56.9817 646.696 42.5351 661.591 28.089 676.486-1.23353 700.93 0.0400591 712.161 1.31401 723.391 44.9784 715.377 50.177 728.972 55.3757 742.567 30.7379 781.28 31.2327 793.73 31.7275 806.181 48.1167 796.6 53.1461 803.676 58.1755 810.751 55.7543 832.613 61.4084 836.182 67.0628 839.75 76.6821 824.662 87.0718 825.085 97.4615 825.508 109.06 848.042 123.747 838.719 138.434 829.396 155.356 777.576 175.195 769.148 195.034 760.721 228.892 791.233 242.782 788.151 256.672 785.07 256.026 773.26 258.537 750.658 261.048 728.055 246.53 671.384 257.849 652.536 269.168 633.688 318.949 654.087 326.452 637.569 333.956 621.052 300.748 573.385 302.871 553.431 304.993 533.478 337.894 538.877 339.188 517.848 340.482 496.819 297.822 478.863 291.595 466.615 285.368 454.368 299.515 454.138 301.823 444.362 304.131 434.587 310.549 420.52 305.443 407.962 300.338 395.405 277.046 381.767 271.192 369.016L270.17 357.939 295.577 371.522C339.626 390.188 420.985 388.778 469.063 405.423 493.101 413.745 514.465 423.618 533.509 434.72 547.536 441.124 550.421 447.307 556.63 451.916L556.859 451.814 558.235 456.643C561.64 466.42 564.324 469.41 564.07 478.077 563.731 489.634 552.699 501.398 552.636 513.479 552.572 525.562 559.292 545.771 563.689 550.57 568.086 555.369 575.572 541.784 579.017 542.275 582.463 542.767 587.102 540.796 584.363 553.519 581.624 566.243 552.118 598.052 562.583 618.615 573.048 639.179 589.879 618.744 596.062 622.023 602.245 625.302 605.081 626.361 599.68 638.289 594.28 650.217 573.881 671.557 563.661 693.591 553.442 715.627 533.185 756.682 538.365 770.499 543.545 784.316 587.199 765.871 594.741 776.493 602.282 787.115 585.898 813.609 583.614 834.233 581.329 854.857 573.143 892.144 581.033 900.236 588.923 908.329 618.511 875.233 630.952 882.789 643.393 890.344 647.655 936.034 655.677 945.568 663.7 955.102 670.777 937.486 679.087 939.994 687.398 942.502 698.885 961.26 705.54 960.613 712.194 959.967 710.547 942.15 719.015 936.116 727.484 930.081 750.46 940.776 756.35 924.408 762.24 908.039 743.848 856.724 754.358 837.904 764.867 819.085 810.322 822.441 819.408 811.492 828.494 800.543 820.745 791.608 808.875 772.21 797.005 752.812 750.798 716.933 748.188 695.103 745.579 673.273 797.416 658.878 793.22 641.227 789.024 623.577 733.569 606.269 723.015 589.202 712.462 572.135 741.768 556.235 729.901 538.826 718.033 521.418 673.321 533.378 660.893 527.517 648.466 521.657 659.503 512.805 655.335 503.666 651.167 494.528 647.615 479.479 635.884 472.686 624.153 465.893 597.391 469.395 584.949 462.908 578.728 459.664 574.4 453.086 570.759 447.728L569.548 446.173 569.942 445.998C556.913 428.934 545.741 415.438 530.837 405.137 544.786 399.515 584.231 404.199 602.321 403.392L607.878 402.75 609.427 409.478C611.872 416.997 614.961 424.163 618.654 430.719 633.429 456.938 655.031 468.291 673.51 459.548 661.627 408.572 653.403 359.754 650.524 296.762 630.326 293.336 612.692 310.083 605.744 339.289 602.27 353.892 601.804 370.194 604.053 386.123L604.14 386.503 590.063 385.736C570.354 385.958 541.02 388.471 504.111 383.731 454.899 377.41 358.488 368.602 311.215 348.707 292.951 340.359 277.042 327.729 262.31 312.957L251.218 300.074 255.269 299.592C258.837 299.433 262.431 299.69 265.737 300.862 278.963 305.548 294.636 327.522 307.602 331.479 320.567 335.436 334.001 327.782 343.53 324.606 353.059 321.43 352.017 307.319 364.774 312.421 377.531 317.524 399.244 358.399 420.073 355.223 440.9 352.047 432.569 319.763 452.252 315.858 471.934 311.953 522.39 340.747 538.167 331.791 553.944 322.835 529.159 275.087 546.915 262.122 564.671 249.156 622.416 258.529 644.702 253.999 666.988 249.469 678.808 249.052 680.63 234.941 682.453 220.83 649.024 189.849 655.637 169.333 662.25 148.818 712.341 127.313 720.308 111.848 728.275 96.3832 704.791 86.8542 703.437 76.5446 702.083 66.2346 716.246 55.2999 712.185 49.9886 708.124 44.6778 686.566 49.0514 679.068 44.6778 671.571 40.3037 679.641 23.1206 667.197 23.7456 654.752 24.3703 618.407 52.3839 604.4 48.4267 590.393 44.4692 594.455 0.262008 583.156 0.00144357 571.856-0.25876 550.143 31.1396 536.605 46.8648 523.067 62.5896 514.84 92.6342 501.927 94.3524 489.013 96.0706 472.767 51.551 459.125 57.1744 445.483 62.7978 429.237 105.6 420.073 128.094 410.908 150.588 409.19 180.06 404.139 192.14 399.089 204.22 396.381 202.866 389.768 200.575 383.155 198.284 386.643 172.041 364.462 178.393 342.28 184.746 339.104 228.016 331.658 238.69 324.212 249.364 322.493 244.626 319.786 242.439 317.078 240.253 321.921 225.517 315.412 225.569 308.903 225.621 289.533 234.473 280.733 242.752 271.934 251.031 270.84 267.121 262.613 275.243 256.443 281.335 252.425 281.409 242.949 285.579L240.023 287.072Z" fill="#4C7430" fill-rule="evenodd" transform="matrix(-0.65203 0.758194 0.758194 0.65203 2473.25 528.203)"/></g></svg>