<svg width="2339" height="1560" xmlns="http://www.w3.org/2000/svg" xmlns:xlink="http://www.w3.org/1999/xlink" xml:space="preserve" overflow="hidden"><defs><clipPath id="clip0"><rect x="1031" y="458" width="2339" height="1560"/></clipPath></defs><g clip-path="url(#clip0)" transform="translate(-1031 -458)"><path d="M1031.5 458.5 3369.5 458.5 3369.5 2017.5 1031.5 2017.5Z" stroke="#000000" stroke-width="1.14583" stroke-miterlimit="8" fill="#F2F2F2" fill-rule="evenodd"/><path d="M1031 926 3369 926 3369 1238 1031 1238 1031 926Z" fill="#E81B39" fill-rule="evenodd"/><path d="M1031 1393 3369 1393 3369 1705 1031 1705 1031 1393Z" fill="#E81B39" fill-rule="evenodd"/><path d="M1279 656.916 1395.12 656.916 1431 545 1466.88 656.916 1583 656.916 1489.06 726.083 1524.94 837.999 1431 768.831 1337.06 837.999 1372.94 726.083Z" fill="#E81B39" fill-rule="evenodd"/><path d="M2048 656.916 2164.12 656.916 2200 545 2235.88 656.916 2352 656.916 2258.06 726.083 2293.94 837.999 2200 768.831 2106.06 837.999 2141.94 726.083Z" fill="#E81B39" fill-rule="evenodd"/><path d="M2817 656.916 2933.12 656.916 2969 545 3004.88 656.916 3121 656.916 3027.06 726.083 3062.94 837.999 2969 768.831 2875.06 837.999 2910.94 726.083Z" fill="#E81B39" fill-rule="evenodd"/></g></svg>