<svg width="2338" height="1559" xmlns="http://www.w3.org/2000/svg" xmlns:xlink="http://www.w3.org/1999/xlink" xml:space="preserve" overflow="hidden"><defs><clipPath id="clip0"><rect x="1031" y="458" width="2338" height="1559"/></clipPath></defs><g clip-path="url(#clip0)" transform="translate(-1031 -458)"><rect x="1031" y="458" width="2338" height="1559" fill="#669CA4"/><path d="M1031 945 1420.67 1237.5 1810.33 945 2200 1237.5 2589.67 945 2979.33 1237.5 3369 945 3369 1237.5 2979.33 1530 2589.67 1237.5 2200 1530 1810.33 1237.5 1420.67 1530 1031 1237.5Z" fill="#F2F2F2" fill-rule="evenodd"/><path d="M2979.33 1238 2589.67 945.5 2200 1238 1810.33 945.5 1420.67 1238 1031 945.5 1031 766.641 1031 653 1031 474.141 1031 474.141 1031 458 3369 458 3369 801.996 3369 801.996 3369 945.5Z" fill="#C7A97F" fill-rule="evenodd"/></g></svg>