<svg width="2340" height="1560" xmlns="http://www.w3.org/2000/svg" xmlns:xlink="http://www.w3.org/1999/xlink" xml:space="preserve" overflow="hidden"><defs><clipPath id="clip0"><rect x="1030" y="458" width="2340" height="1560"/></clipPath></defs><g clip-path="url(#clip0)" transform="translate(-1030 -458)"><rect x="1031.5" y="458.5" width="2338" height="1559" stroke="#000000" stroke-width="1.14583" stroke-miterlimit="8" fill="#F2F2F2"/><rect x="1032" y="458" width="2338" height="222" fill="#B50027"/><rect x="1031" y="904" width="2338" height="222" fill="#B50027"/><rect x="1031" y="1795" width="2338" height="222" fill="#B50027"/><rect x="1031" y="1349" width="2338" height="222" fill="#B50027"/><rect x="1030" y="458" width="779" height="1559" fill="#002D56"/><path d="M1422.86 1112.04C1422.94 1112.01 1422.98 1112 1422.99 1112 1423.02 1111.99 1427.64 1113.68 1427.68 1121.02 1431.77 1120.24 1433.42 1122.44 1432.63 1127.59 1432.63 1127.59 1427.78 1126.26 1426.98 1129.07 1425.79 1132.32 1426.7 1134.96 1429.71 1137.01 1429.71 1137.01 1434.76 1141.07 1437.94 1133.37 1441.11 1125.68 1442.26 1123.06 1442.26 1123.06 1443.14 1120.23 1448.41 1113.58 1453.18 1112.65 1455.01 1111.91 1456.75 1112.06 1458.69 1112.53 1458.69 1112.53 1462.87 1113.45 1462.99 1116.99 1463.11 1120.53 1461.69 1122.08 1459.33 1123.1 1456.72 1124.24 1453.5 1121.8 1453.5 1121.8 1452.38 1121.59 1452.02 1121.98 1451.33 1122.47 1451.01 1122.69 1449.69 1124.16 1448.92 1125.82 1448.92 1125.82 1446.6 1130.8 1445.49 1134.6 1444.62 1137.59 1442.7 1146.64 1433.66 1148L1412.34 1148C1403.3 1146.64 1401.38 1137.59 1400.51 1134.6 1399.4 1130.8 1397.08 1125.82 1397.08 1125.82 1396.31 1124.16 1394.99 1122.69 1394.67 1122.47 1393.98 1121.98 1393.62 1121.59 1392.5 1121.8 1392.5 1121.8 1389.28 1124.24 1386.67 1123.1 1384.31 1122.08 1382.89 1120.54 1383.01 1116.99 1383.13 1113.45 1387.31 1112.53 1387.31 1112.53 1389.25 1112.06 1390.99 1111.91 1392.82 1112.65 1397.59 1113.58 1402.86 1120.23 1403.74 1123.06 1403.74 1123.06 1404.89 1125.68 1408.06 1133.37 1411.24 1141.07 1416.29 1137.01 1416.29 1137.01 1419.3 1134.96 1420.21 1132.32 1419.02 1129.07 1418.23 1126.26 1413.37 1127.59 1413.37 1127.59 1412.58 1122.44 1414.23 1120.24 1418.32 1121.02 1418.36 1113.68 1422.98 1111.99 1423.01 1112 1423.02 1112 1423.06 1112.01 1423.14 1112.04Z" fill="#EED000" fill-rule="evenodd"/><path d="M1450 1356.15 1398.42 1356.15 1404.5 1155 1444.15 1155ZM1449.78 1468 1395 1468 1395 1376.66 1449.78 1376.64Z" stroke="#002D56" stroke-width="4.05282" stroke-miterlimit="8" fill="#EED000" fill-rule="evenodd"/><path d="M1393.95 1366 1449.05 1366C1452.89 1366 1456 1368.46 1456 1371.5 1456 1374.54 1452.89 1377 1449.05 1377L1393.95 1377C1390.11 1377 1387 1374.54 1387 1371.5 1387 1368.46 1390.11 1366 1393.95 1366Z" stroke="#002D56" stroke-width="4.05282" stroke-miterlimit="8" fill="#EED000" fill-rule="evenodd"/><path d="M1398.24 1356 1446.76 1356C1450.21 1356 1453 1358.24 1453 1361 1453 1363.76 1450.21 1366 1446.76 1366L1398.24 1366C1394.79 1366 1392 1363.76 1392 1361 1392 1358.24 1394.79 1356 1398.24 1356Z" stroke="#002D56" stroke-width="4.05282" stroke-miterlimit="8" fill="#EED000" fill-rule="evenodd"/><path d="M1407 1394 1436 1394 1436 1454 1407 1454Z" stroke="#002D56" stroke-width="4.05282" stroke-miterlimit="8" fill="none" fill-rule="evenodd"/><path d="M1406.05 1148 1439.95 1148C1442.74 1148 1445 1149.57 1445 1151.5 1445 1153.43 1442.74 1155 1439.95 1155L1406.05 1155C1403.26 1155 1401 1153.43 1401 1151.5 1401 1149.57 1403.26 1148 1406.05 1148Z" stroke="#002D56" stroke-width="2.3393" stroke-miterlimit="8" fill="#EED000" fill-rule="evenodd"/><path d="M1147.5 1479.5 1706.5 1479.5 1706.5 1498.5 1147.5 1498.5Z" stroke="#002D56" stroke-width="4.77425" stroke-miterlimit="8" fill="#EED000" fill-rule="evenodd"/><path d="M1123.5 1498.5 1730.5 1498.5 1730.5 1518.5 1123.5 1518.5Z" stroke="#002D56" stroke-width="2.86476" stroke-miterlimit="8" fill="#EED000" fill-rule="evenodd"/><path d="M1164.5 1070.5 1686.5 1070.5 1686.5 1081.5 1164.5 1081.5Z" stroke="#002D56" stroke-width="4.55951" stroke-miterlimit="8" fill="#EED000" fill-rule="evenodd"/><path d="M1587.16 1070C1560.15 1005.06 1497.47 959.679 1424.45 959.679 1351.48 959.679 1288.83 1005.12 1261.8 1070L1197 1070C1226.97 970.18 1317.57 897 1424.45 897 1531.41 897 1622.06 970.043 1652 1069.97Z" stroke="#002D56" stroke-width="2.3393" stroke-linejoin="round" stroke-miterlimit="10" fill="#EED000" fill-rule="evenodd"/><path d="M1178.5 1082.53C1178.5 1082.53 1187.52 1087.81 1195.03 1103.5L1659.35 1103.48C1659.35 1103.48 1666.98 1085.93 1677.5 1082.5Z" stroke="#002D56" stroke-width="2.86476" stroke-miterlimit="8" fill="#EED000" fill-rule="evenodd"/><path d="M1293.35 1107C1293.35 1107 1336.28 1180.81 1423.58 1179.79 1509.82 1178.79 1553.81 1109.51 1553.81 1109.51L1576.81 1143.65C1576.81 1143.65 1585.31 1155.19 1568.81 1169.75 1510.53 1221.18 1464.36 1231.29 1423.58 1230.99 1363.35 1227.69 1314.77 1207.28 1277.85 1169.75 1271.21 1164.22 1269.85 1156.95 1271.85 1150.92Z" stroke="#002D56" stroke-width="2.3393" stroke-linejoin="round" stroke-miterlimit="10" fill="#EED000" fill-rule="evenodd"/><path d="M1270.59 1159.5C1270.59 1159.5 1267.95 1144.37 1291.56 1156.58L1293.32 1107.5M1579.5 1149.2C1571.97 1132.8 1558.15 1152.89 1558.15 1152.89L1554.67 1110.04" stroke="#002D56" stroke-width="3.0398" stroke-miterlimit="8" fill="none" fill-rule="evenodd"/><path d="M1192.01 1104 1658.99 1104C1660.65 1104 1662 1105.34 1662 1107L1662 1108C1662 1109.66 1660.65 1111 1658.99 1111L1192.01 1111C1190.35 1111 1189 1109.66 1189 1108L1189 1107C1189 1105.34 1190.35 1104 1192.01 1104Z" stroke="#002D56" stroke-width="2.3873" stroke-miterlimit="8" fill="#EED000" fill-rule="evenodd"/><path d="M1232.86 1112.04C1232.94 1112.01 1232.98 1112 1232.99 1112 1233.02 1111.99 1237.64 1113.63 1237.68 1120.77 1241.77 1120.01 1243.42 1122.15 1242.63 1127.16 1242.63 1127.16 1237.78 1125.87 1236.98 1128.6 1235.79 1131.75 1236.7 1134.33 1239.71 1136.31 1239.71 1136.31 1244.76 1140.26 1247.94 1132.78 1251.11 1125.3 1252.26 1122.75 1252.26 1122.75 1253.14 1120 1258.41 1113.54 1263.18 1112.63 1265.01 1111.92 1266.75 1112.06 1268.69 1112.52 1268.69 1112.52 1272.87 1113.41 1272.99 1116.85 1273.11 1120.3 1271.69 1121.8 1269.33 1122.8 1266.72 1123.9 1263.5 1121.53 1263.5 1121.53 1262.38 1121.32 1262.02 1121.71 1261.33 1122.18 1261.01 1122.39 1259.69 1123.83 1258.92 1125.44 1258.92 1125.44 1256.6 1130.28 1255.49 1133.97 1254.62 1136.88 1252.7 1145.68 1243.66 1147L1222.34 1147C1213.3 1145.68 1211.38 1136.88 1210.51 1133.97 1209.4 1130.28 1207.08 1125.44 1207.08 1125.44 1206.31 1123.83 1204.99 1122.39 1204.67 1122.18 1203.98 1121.71 1203.62 1121.32 1202.5 1121.53 1202.5 1121.53 1199.28 1123.9 1196.67 1122.8 1194.32 1121.8 1192.89 1120.3 1193.01 1116.85 1193.13 1113.41 1197.31 1112.52 1197.31 1112.52 1199.25 1112.06 1201 1111.92 1202.82 1112.63 1207.59 1113.54 1212.86 1120 1213.74 1122.75 1213.74 1122.75 1214.89 1125.3 1218.06 1132.78 1221.24 1140.26 1226.29 1136.31 1226.29 1136.31 1229.3 1134.33 1230.21 1131.75 1229.02 1128.6 1228.23 1125.87 1223.37 1127.16 1223.37 1127.16 1222.58 1122.15 1224.23 1120.02 1228.32 1120.77 1228.36 1113.63 1232.98 1111.99 1233.01 1112 1233.02 1112 1233.06 1112.01 1233.14 1112.04Z" fill="#EED000" fill-rule="evenodd"/><path d="M1259.4 1356.15 1207.6 1356.15 1214.49 1155 1252.75 1155ZM1261 1468 1206 1468 1206 1376.66 1261 1376.64Z" stroke="#002D56" stroke-width="4.05282" stroke-miterlimit="8" fill="#EED000" fill-rule="evenodd"/><path d="M1205.05 1366.16 1260.95 1366.16C1264.84 1366.16 1268 1368.59 1268 1371.58 1268 1374.57 1264.84 1377 1260.95 1377L1205.05 1377C1201.16 1377 1198 1374.57 1198 1371.58 1198 1368.59 1201.16 1366.16 1205.05 1366.16ZM1208.6 1356 1257.4 1356C1260.87 1356 1263.68 1358.28 1263.68 1361.08 1263.68 1363.89 1260.87 1366.16 1257.4 1366.16L1208.6 1366.16C1205.13 1366.16 1202.32 1363.89 1202.32 1361.08 1202.32 1358.28 1205.13 1356 1208.6 1356Z" stroke="#002D56" stroke-width="4.05282" stroke-miterlimit="8" fill="#EED000" fill-rule="evenodd"/><path d="M1219 1394 1248 1394 1248 1454 1219 1454Z" stroke="#002D56" stroke-width="4.05282" stroke-miterlimit="8" fill="none" fill-rule="evenodd"/><path d="M1216.05 1148 1249.95 1148C1252.74 1148 1255 1149.79 1255 1152 1255 1154.21 1252.74 1156 1249.95 1156L1216.05 1156C1213.26 1156 1211 1154.21 1211 1152 1211 1149.79 1213.26 1148 1216.05 1148Z" stroke="#002D56" stroke-width="2.3393" stroke-miterlimit="8" fill="#EED000" fill-rule="evenodd"/><path d="M1194 1468 1272 1468 1272 1479 1194 1479Z" stroke="#002D56" stroke-width="1.94918" stroke-miterlimit="8" fill="#EED000" fill-rule="evenodd"/><path d="M1615.86 1112.04C1615.94 1112.01 1615.98 1112 1615.99 1112 1616.02 1111.99 1620.64 1113.68 1620.68 1121.02 1624.77 1120.24 1626.42 1122.44 1625.63 1127.59 1625.63 1127.59 1620.78 1126.26 1619.98 1129.07 1618.79 1132.32 1619.7 1134.96 1622.71 1137.01 1622.71 1137.01 1627.76 1141.07 1630.94 1133.37 1634.11 1125.68 1635.26 1123.06 1635.26 1123.06 1636.14 1120.23 1641.41 1113.58 1646.18 1112.65 1648.01 1111.91 1649.75 1112.06 1651.69 1112.53 1651.69 1112.53 1655.87 1113.45 1655.99 1116.99 1656.11 1120.53 1654.69 1122.08 1652.33 1123.1 1649.72 1124.24 1646.5 1121.8 1646.5 1121.8 1645.38 1121.59 1645.02 1121.98 1644.33 1122.47 1644.01 1122.69 1642.69 1124.16 1641.92 1125.82 1641.92 1125.82 1639.6 1130.8 1638.49 1134.6 1637.62 1137.59 1635.7 1146.64 1626.66 1148L1605.34 1148C1596.3 1146.64 1594.38 1137.59 1593.51 1134.6 1592.4 1130.8 1590.08 1125.82 1590.08 1125.82 1589.31 1124.16 1587.99 1122.69 1587.67 1122.47 1586.98 1121.98 1586.62 1121.59 1585.5 1121.8 1585.5 1121.8 1582.28 1124.24 1579.67 1123.1 1577.31 1122.08 1575.89 1120.54 1576.01 1116.99 1576.13 1113.45 1580.31 1112.53 1580.31 1112.53 1582.25 1112.06 1583.99 1111.91 1585.82 1112.65 1590.59 1113.58 1595.86 1120.23 1596.74 1123.06 1596.74 1123.06 1597.89 1125.68 1601.06 1133.37 1604.24 1141.07 1609.29 1137.01 1609.29 1137.01 1612.3 1134.96 1613.21 1132.32 1612.02 1129.07 1611.22 1126.26 1606.37 1127.59 1606.37 1127.59 1605.58 1122.44 1607.23 1120.24 1611.32 1121.02 1611.36 1113.68 1615.98 1111.99 1616.01 1112 1616.02 1112 1616.06 1112.01 1616.14 1112.04Z" fill="#EED000" fill-rule="evenodd"/><path d="M1643.12 1356.15 1590.93 1356.15 1597.87 1155 1636.42 1155ZM1646 1468 1590.58 1468 1590 1376.66 1646 1376.64Z" stroke="#002D56" stroke-width="4.05282" stroke-miterlimit="8" fill="#EED000" fill-rule="evenodd"/><path d="M1590.05 1366 1645.95 1366C1649.84 1366 1653 1368.46 1653 1371.5 1653 1374.54 1649.84 1377 1645.95 1377L1590.05 1377C1586.16 1377 1583 1374.54 1583 1371.5 1583 1368.46 1586.16 1366 1590.05 1366Z" stroke="#002D56" stroke-width="4.05282" stroke-miterlimit="8" fill="#EED000" fill-rule="evenodd"/><path d="M1593.24 1356 1641.76 1356C1645.21 1356 1648 1358.24 1648 1361 1648 1363.76 1645.21 1366 1641.76 1366L1593.24 1366C1589.79 1366 1587 1363.76 1587 1361 1587 1358.24 1589.79 1356 1593.24 1356Z" stroke="#002D56" stroke-width="4.05282" stroke-miterlimit="8" fill="#EED000" fill-rule="evenodd"/><path d="M1603 1394 1633 1394 1633 1454 1603 1454Z" stroke="#002D56" stroke-width="4.05282" stroke-miterlimit="8" fill="none" fill-rule="evenodd"/><path d="M1600.05 1148 1633.95 1148C1636.74 1148 1639 1149.57 1639 1151.5 1639 1153.43 1636.74 1155 1633.95 1155L1600.05 1155C1597.26 1155 1595 1153.43 1595 1151.5 1595 1149.57 1597.26 1148 1600.05 1148Z" stroke="#002D56" stroke-width="2.3393" stroke-miterlimit="8" fill="#EED000" fill-rule="evenodd"/><path d="M1382 1468 1460 1468 1460 1479 1382 1479Z" stroke="#002D56" stroke-width="1.94918" stroke-miterlimit="8" fill="#EED000" fill-rule="evenodd"/><path d="M1091.31 1325.47C1078.03 1315.94 1064 1318.45 1064 1318.45 1064 1318.45 1074.14 1304.97 1090.31 1311.68 1100.58 1315.94 1109.35 1331.74 1135.4 1315.19 1161.46 1298.63 1171.57 1290.27 1194.53 1282.59 1218.11 1274.69 1236.61 1273.06 1242.13 1271.05 1247.64 1269.04 1256.26 1265.9 1260.67 1239.45 1261.67 1233.43 1285.72 1289.61 1285.72 1289.61 1285.72 1289.61 1282.21 1308.16 1259.16 1318.7 1236.11 1329.23 1196.18 1335.53 1173.98 1353.31 1166.47 1359.32 1152.02 1369.73 1143.29 1382.52 1122.75 1412.61 1101.33 1416 1101.33 1416 1101.33 1416 1120.75 1399.01 1126.13 1376.13 1127.13 1371.86 1125.49 1352.69 1133.15 1345.03 1125.02 1353.16 1104.45 1337.14 1107.09 1339.26 1107.09 1339.26 1104.59 1335 1091.31 1325.47ZM1588.61 1239.93C1588.61 1239.93 1592.62 1262.75 1637.46 1274.29 1682.31 1285.83 1689.32 1300.37 1696.59 1303.88 1703.85 1307.39 1722.73 1320.91 1742.94 1314.16 1750.9 1311.51 1773.14 1305.39 1774.95 1306.75 1775.63 1307.88 1768.6 1319.67 1767.74 1320.68 1752.86 1338.29 1747.19 1341 1741.68 1343.76 1729.64 1349.78 1728.71 1350.51 1720.14 1351.03 1720.14 1351.03 1728.15 1361.06 1729.41 1377.36 1730.66 1393.66 1752.45 1410.21 1752.45 1410.21 1752.45 1410.21 1723.39 1402.69 1710.62 1385.39 1697.84 1368.08 1676.8 1353.29 1669.03 1349.52 1661.26 1345.76 1621.68 1332.22 1613.41 1328.96 1605.14 1325.7 1579.34 1312.16 1575.83 1290.34 1572.32 1268.52 1588.61 1239.93 1588.61 1239.93Z" stroke="#002D56" stroke-width="3.54649" stroke-miterlimit="8" fill="#EED000" fill-rule="evenodd"/><path d="M1163.46 1257.95C1132.95 1246.03 1142.37 1237.99 1142.37 1237.99 1149.88 1224.61 1159.72 1207.81 1196.89 1193.55 1246.61 1174.49 1297.33 1183.02 1283.77 1205.09 1275.53 1218.51 1261.3 1241.97 1261.3 1241.97 1261.3 1241.97 1255.4 1226.17 1228.28 1236.2 1201.16 1246.24 1192.79 1250.49 1191.18 1255.79 1188.67 1264.07 1189.67 1269.34 1209.26 1266.33 1196.45 1270.6 1182.18 1266.15 1166.16 1259.04Z" stroke="#002D56" stroke-width="3.54649" stroke-miterlimit="8" fill="#EED000" fill-rule="evenodd"/><path d="M1628.02 1235.8C1633.61 1237.24 1643.16 1241.89 1648.78 1245.95 1676.2 1265.72 1671.15 1282.97 1663.55 1283.42 1655.08 1283.92 1717.31 1282.17 1724.79 1278.16 1732.26 1274.15 1734.75 1269.64 1730.27 1260.11 1725.78 1250.59 1691.91 1192.43 1636.61 1181.4 1581.31 1170.37 1559.4 1193.78 1564.12 1201.71 1568.61 1209.23 1589.03 1234.29 1589.78 1244.57 1595.45 1233.81 1608.21 1230.75 1628.02 1235.8Z" stroke="#002D56" stroke-width="3.0398" stroke-linejoin="round" stroke-miterlimit="10" fill="#EED000" fill-rule="evenodd"/><path d="M1601.05 1224.36 1590.31 1208.95 1593.11 1225.69 1588.8 1226.42 1583.92 1197.24 1588.54 1196.46 1602.49 1215.97 1609.51 1192.95 1613.6 1192.26 1618.47 1221.44 1612.77 1222.4 1609.97 1205.65 1604.28 1223.82ZM1645.39 1213.18C1644.46 1217.75 1642.72 1221.03 1640.17 1223.02 1637.61 1224.99 1634.64 1225.63 1631.25 1224.94 1627.9 1224.26 1625.43 1222.51 1623.84 1219.69 1622.25 1216.86 1621.91 1213.19 1622.83 1208.68L1623.16 1207.03C1624.02 1202.83 1625.68 1199.6 1628.15 1197.34 1630.63 1195.09 1633.75 1194.34 1637.49 1195.1 1641.14 1195.85 1643.64 1197.76 1644.96 1200.83 1646.3 1203.9 1646.55 1207.5 1645.71 1211.62ZM1639.24 1211.53 1639.4 1210.74C1640.12 1207.16 1640.37 1204.45 1640.14 1202.61 1639.91 1200.76 1638.69 1199.61 1636.49 1199.16 1634.46 1198.75 1632.96 1199.24 1631.98 1200.64 1631.01 1202.05 1630.12 1204.73 1629.32 1208.68L1629.17 1209.4C1628.37 1213.38 1628.11 1216.17 1628.4 1217.78 1628.69 1219.39 1629.92 1220.41 1632.09 1220.85 1633.86 1221.21 1635.3 1220.67 1636.42 1219.23 1637.54 1217.8 1638.49 1215.23 1639.24 1211.53ZM1669.13 1225.98C1666.85 1230.19 1664.35 1232.89 1661.65 1234.07 1658.96 1235.26 1656.07 1235 1652.96 1233.32L1643.92 1228.4 1658.02 1202.4 1666.13 1206.81C1669.83 1208.82 1671.87 1211.38 1672.25 1214.49 1672.64 1217.59 1671.79 1221.07 1669.7 1224.93ZM1663.64 1222.77 1664.02 1222.06C1665.56 1219.21 1666.27 1216.78 1666.15 1214.77 1666.03 1212.75 1665.17 1211.31 1663.55 1210.43L1661.48 1209.3 1651.58 1227.55 1654.13 1228.93C1655.71 1229.79 1657.23 1229.83 1658.68 1229.06 1660.13 1228.28 1661.78 1226.18 1663.64 1222.77ZM1685.23 1227.2 1679.67 1232.86 1685.63 1238.72 1682.5 1241.91 1676.54 1236.05 1670.69 1242.01 1678.91 1250.09 1675.82 1253.24 1663.1 1240.72 1683.81 1219.61 1695.98 1231.6 1692.9 1234.74ZM1688.18 1273.98 1685.01 1268.58C1689.09 1266.12 1691.8 1264.02 1693.14 1262.27 1694.49 1260.54 1694.73 1258.91 1693.83 1257.39L1693.08 1256.11 1681.64 1262.85 1678.43 1257.4 1703.89 1242.38 1709.49 1251.91C1710.86 1254.23 1711.3 1256.19 1710.81 1257.78 1710.32 1259.37 1709.31 1260.63 1707.77 1261.53L1706.38 1262.35C1704.93 1263.21 1703.52 1263.47 1702.15 1263.14 1700.77 1262.81 1699.51 1261.85 1698.36 1260.25 1698.88 1262.51 1698.39 1264.72 1696.9 1266.89 1695.42 1269.06 1692.51 1271.42 1688.18 1273.98ZM1702.7 1257.28 1703.39 1256.88C1704.49 1256.23 1705.12 1255.48 1705.26 1254.65 1705.41 1253.81 1705.16 1252.85 1704.52 1251.76L1703.47 1249.98 1696.74 1253.95 1697.61 1255.42C1698.37 1256.72 1699.16 1257.5 1699.98 1257.76 1700.8 1258.03 1701.71 1257.87 1702.7 1257.28ZM1608.25 1310.49 1603.02 1306.68 1605.51 1299.72 1598.02 1294.27 1592.14 1298.76 1587.97 1295.73 1612.98 1277.36 1617.75 1280.83ZM1606.94 1295.48 1610.53 1284.64 1601.52 1291.54ZM1641.14 1298.2 1635.66 1295.52 1624.64 1318.15 1618.95 1315.37 1629.97 1292.75 1624.36 1290 1626.29 1286.04 1643.07 1294.24ZM1654.71 1298.78 1643.16 1326.02 1637.34 1323.54 1648.89 1296.31ZM1677.1 1325.83C1675.2 1330.09 1672.79 1332.91 1669.87 1334.3 1666.95 1335.67 1663.91 1335.65 1660.75 1334.25 1657.62 1332.85 1655.59 1330.61 1654.64 1327.51 1653.7 1324.4 1654.17 1320.75 1656.04 1316.54L1656.72 1315C1658.46 1311.09 1660.78 1308.29 1663.68 1306.62 1666.6 1304.96 1669.8 1304.91 1673.28 1306.46 1676.69 1307.98 1678.71 1310.39 1679.34 1313.67 1679.98 1316.96 1679.45 1320.53 1677.74 1324.37ZM1671.44 1322.88 1671.77 1322.14C1673.25 1318.81 1674.08 1316.22 1674.25 1314.36 1674.43 1312.51 1673.49 1311.12 1671.44 1310.21 1669.54 1309.37 1667.97 1309.52 1666.71 1310.68 1665.46 1311.84 1664.02 1314.26 1662.38 1317.95L1662.08 1318.62C1660.43 1322.33 1659.57 1325 1659.51 1326.63 1659.45 1328.27 1660.43 1329.53 1662.45 1330.43 1664.1 1331.17 1665.63 1330.96 1667.03 1329.79 1668.44 1328.63 1669.91 1326.33 1671.44 1322.88ZM1696.83 1338.29 1705.58 1323.12 1709.47 1325.38 1694.7 1351 1692.35 1349.64 1689.47 1326.51 1680.19 1342.61 1676.29 1340.36 1691.06 1314.73 1694 1316.43ZM1192.18 1240.3 1188.26 1242.66 1166.39 1221.3 1171.88 1218 1185.69 1231.55 1180.82 1212.62 1184.66 1210.31 1199.1 1223.48 1193.38 1205.06 1197.77 1202.42 1206.32 1231.79 1202.4 1234.15 1187.43 1220.67ZM1214.06 1198.41 1222.69 1226.7 1216.65 1228.56 1208.01 1200.26ZM1248.03 1213.51C1248.46 1216.62 1247.8 1219.05 1246.05 1220.82 1244.29 1222.57 1241.66 1223.69 1238.16 1224.18 1236.16 1224.47 1234.46 1224.58 1233.05 1224.53 1231.64 1224.48 1230.46 1224.33 1229.51 1224.08L1228.8 1219.03C1229.56 1219.38 1230.72 1219.65 1232.27 1219.83 1233.82 1219.99 1235.32 1219.97 1236.77 1219.77 1238.81 1219.48 1240.17 1219 1240.85 1218.32 1241.55 1217.64 1241.8 1216.64 1241.62 1215.32 1241.5 1214.47 1241.11 1213.75 1240.47 1213.17 1239.82 1212.59 1238.13 1211.93 1235.38 1211.21 1233.2 1210.62 1231.44 1209.73 1230.12 1208.53 1228.8 1207.31 1227.98 1205.53 1227.65 1203.17 1227.33 1200.92 1227.97 1198.89 1229.57 1197.08 1231.18 1195.27 1233.6 1194.14 1236.81 1193.69 1238.37 1193.47 1239.79 1193.41 1241.07 1193.5 1242.36 1193.59 1243.27 1193.7 1243.8 1193.83L1244.43 1198.3C1243.35 1198.17 1242.26 1198.08 1241.18 1198.02 1240.11 1197.96 1238.98 1198.02 1237.8 1198.18 1236.13 1198.41 1234.97 1198.86 1234.31 1199.5 1233.64 1200.15 1233.37 1200.88 1233.49 1201.7 1233.63 1202.73 1234.02 1203.48 1234.64 1203.93 1235.27 1204.38 1237 1204.94 1239.84 1205.59 1242.48 1206.2 1244.43 1207.17 1245.69 1208.49 1246.96 1209.81 1247.74 1211.48 1248.03 1213.51ZM1339.47 1193.4C1338.56 1195.18 1337.23 1196.4 1335.47 1197.06 1333.73 1197.71 1331.72 1197.46 1329.43 1196.29 1328.1 1195.61 1327.07 1194.96 1326.35 1194.36 1325.63 1193.76 1325.1 1193.17 1324.74 1192.59L1326.79 1188.56C1327.13 1188.97 1327.61 1189.44 1328.22 1189.97 1328.85 1190.49 1329.53 1190.95 1330.25 1191.32 1330.94 1191.67 1331.63 1191.77 1332.33 1191.63 1333.03 1191.48 1333.61 1190.95 1334.09 1190.02L1344.13 1170.27 1349.77 1173.15ZM1371.57 1205.22C1370.57 1207.82 1369.03 1209.57 1366.95 1210.46 1364.87 1211.34 1362.24 1211.17 1359.05 1209.95 1355.64 1208.64 1353.49 1206.91 1352.6 1204.76 1351.71 1202.61 1351.86 1199.99 1353.05 1196.89L1360.17 1178.31 1366.08 1180.58 1358.66 1199.91C1358.09 1201.41 1357.97 1202.66 1358.32 1203.66 1358.68 1204.65 1359.66 1205.45 1361.24 1206.06 1362.71 1206.63 1363.93 1206.71 1364.89 1206.31 1365.87 1205.92 1366.69 1204.85 1367.35 1203.12L1374.72 1183.9 1379.1 1185.58ZM1402.82 1211.6C1402.44 1214.71 1401.17 1216.89 1399.02 1218.14 1396.87 1219.38 1394.04 1219.78 1390.53 1219.35 1388.52 1219.11 1386.85 1218.77 1385.5 1218.36 1384.15 1217.94 1383.05 1217.49 1382.2 1217L1382.82 1211.94C1383.46 1212.48 1384.51 1213.04 1385.97 1213.62 1387.42 1214.18 1388.88 1214.55 1390.33 1214.72 1392.37 1214.98 1393.81 1214.86 1394.64 1214.39 1395.49 1213.91 1395.99 1213.01 1396.15 1211.69 1396.26 1210.83 1396.07 1210.04 1395.6 1209.31 1395.13 1208.58 1393.66 1207.51 1391.2 1206.1 1389.24 1204.96 1387.78 1203.65 1386.81 1202.14 1385.85 1200.63 1385.51 1198.69 1385.8 1196.33 1386.08 1194.07 1387.22 1192.28 1389.23 1190.94 1391.26 1189.61 1393.88 1189.15 1397.11 1189.54 1398.67 1189.73 1400.06 1190.04 1401.27 1190.47 1402.49 1190.88 1403.34 1191.22 1403.82 1191.49L1403.27 1195.97C1402.26 1195.57 1401.24 1195.2 1400.2 1194.86 1399.18 1194.53 1398.08 1194.29 1396.9 1194.14 1395.23 1193.93 1393.99 1194.06 1393.18 1194.51 1392.38 1194.97 1391.92 1195.6 1391.82 1196.42 1391.7 1197.46 1391.88 1198.28 1392.36 1198.88 1392.85 1199.48 1394.38 1200.46 1396.95 1201.83 1399.34 1203.1 1400.98 1204.54 1401.85 1206.15 1402.75 1207.74 1403.07 1209.56 1402.82 1211.6ZM1431.94 1196.9 1425.84 1196.8 1425.41 1221.97 1419.08 1221.86 1419.52 1196.69 1413.27 1196.58 1413.35 1192.17 1432.02 1192.49ZM1449.2 1190.85 1452.8 1220.21 1446.52 1220.99 1442.92 1191.62ZM1484.55 1211.41C1484.23 1211.83 1483.56 1212.33 1482.55 1212.93 1481.54 1213.54 1480.32 1214.06 1478.89 1214.5 1475.27 1215.61 1471.96 1215.34 1468.95 1213.69 1465.95 1212.02 1463.76 1208.91 1462.36 1204.35L1462.01 1203.2C1460.72 1198.95 1460.83 1195.19 1462.36 1191.9 1463.89 1188.62 1466.41 1186.44 1469.91 1185.37 1471.42 1184.91 1472.7 1184.62 1473.77 1184.49 1474.83 1184.36 1475.68 1184.36 1476.33 1184.49L1477.71 1188.99C1477.11 1188.86 1476.34 1188.81 1475.39 1188.86 1474.46 1188.9 1473.4 1189.1 1472.23 1189.46 1470.05 1190.12 1468.61 1191.54 1467.92 1193.71 1467.25 1195.87 1467.39 1198.52 1468.35 1201.67L1468.47 1202.07C1469.51 1205.44 1470.84 1207.76 1472.47 1209.03 1474.11 1210.29 1475.92 1210.61 1477.9 1210.01 1479.24 1209.6 1480.34 1209.11 1481.21 1208.54 1482.07 1207.97 1482.74 1207.47 1483.22 1207.05ZM1493.31 1180.07 1496.91 1187.14 1504.35 1183.34 1506.38 1187.33 1498.94 1191.12 1502.72 1198.57 1512.98 1193.33 1514.98 1197.26 1499.09 1205.37 1485.68 1179.01 1500.89 1171.25 1502.89 1175.18ZM1181.83 1320.93C1184.15 1325.13 1185.08 1328.69 1184.63 1331.6 1184.18 1334.51 1182.42 1336.82 1179.32 1338.53L1170.33 1343.52 1156 1317.64 1164.07 1313.17C1167.75 1311.12 1171.01 1310.77 1173.82 1312.12 1176.65 1313.46 1179.12 1316.05 1181.25 1319.89ZM1176.17 1323.85 1175.78 1323.15C1174.21 1320.31 1172.54 1318.4 1170.78 1317.42 1169.02 1316.44 1167.34 1316.4 1165.73 1317.29L1163.67 1318.43 1173.72 1336.6 1176.26 1335.19C1177.83 1334.32 1178.68 1333.06 1178.81 1331.42 1178.93 1329.77 1178.05 1327.25 1176.17 1323.85ZM1208.49 1309.81C1210.31 1314.11 1210.73 1317.8 1209.75 1320.88 1208.76 1323.96 1206.68 1326.17 1203.49 1327.53 1200.34 1328.87 1197.31 1328.83 1194.41 1327.41 1191.5 1325.97 1189.14 1323.14 1187.35 1318.9L1186.69 1317.35C1185.02 1313.4 1184.56 1309.8 1185.32 1306.54 1186.09 1303.27 1188.23 1300.89 1191.75 1299.39 1195.19 1297.93 1198.32 1298.09 1201.15 1299.87 1203.99 1301.65 1206.23 1304.47 1207.87 1308.35ZM1202.48 1311.94 1202.17 1311.2C1200.74 1307.84 1199.41 1305.47 1198.18 1304.07 1196.94 1302.68 1195.29 1302.43 1193.22 1303.3 1191.32 1304.11 1190.36 1305.38 1190.34 1307.09 1190.34 1308.79 1191.12 1311.5 1192.7 1315.22L1192.98 1315.89C1194.57 1319.63 1195.94 1322.08 1197.09 1323.24 1198.24 1324.4 1199.83 1324.55 1201.86 1323.68 1203.53 1322.97 1204.41 1321.71 1204.52 1319.89 1204.63 1318.07 1203.95 1315.42 1202.48 1311.94ZM1231.77 1317.3 1218.4 1304.1 1224.2 1320.06 1220.09 1321.56 1209.99 1293.75 1214.39 1292.15 1231.66 1308.78 1234.37 1284.87 1238.27 1283.45 1248.37 1311.25 1242.94 1313.23 1237.14 1297.27 1234.84 1316.18ZM1270.72 1024.48C1270.7 1025.09 1270.43 1026.03 1269.92 1027.29 1269.41 1028.57 1268.66 1029.93 1267.65 1031.37 1265.11 1034.99 1261.92 1037.17 1258.07 1037.9 1254.22 1038.6 1250.13 1037.44 1245.79 1034.4L1244.7 1033.64C1240.66 1030.81 1238.22 1027.38 1237.39 1023.35 1236.58 1019.31 1237.39 1015.54 1239.85 1012.03 1240.91 1010.52 1241.88 1009.33 1242.77 1008.44 1243.64 1007.55 1244.42 1006.92 1245.1 1006.56L1249.38 1009.56C1248.75 1009.88 1248.02 1010.4 1247.19 1011.13 1246.36 1011.85 1245.54 1012.8 1244.72 1013.97 1243.18 1016.16 1242.83 1018.46 1243.67 1020.89 1244.51 1023.3 1246.43 1025.56 1249.43 1027.65L1249.8 1027.92C1253.02 1030.16 1255.79 1031.25 1258.12 1031.18 1260.47 1031.11 1262.33 1030.07 1263.72 1028.09 1264.66 1026.75 1265.34 1025.51 1265.74 1024.38 1266.13 1023.23 1266.41 1022.3 1266.56 1021.57ZM1286.75 984.975C1290.48 988.572 1292.47 992.205 1292.72 995.873 1292.96 999.532 1291.67 1002.81 1288.86 1005.73 1286.07 1008.61 1282.84 1010 1279.16 1009.9 1275.48 1009.79 1271.79 1007.96 1268.12 1004.41L1266.77 1003.11C1263.34 999.807 1261.35 996.282 1260.79 992.537 1260.24 988.782 1261.52 985.298 1264.63 982.084 1267.67 978.943 1271.06 977.627 1274.8 978.136 1278.56 978.635 1282.12 980.507 1285.49 983.751ZM1281.27 990.026 1280.62 989.406C1277.71 986.594 1275.31 984.759 1273.41 983.9 1271.52 983.04 1269.66 983.555 1267.83 985.443 1266.15 987.186 1265.65 988.949 1266.35 990.732 1267.06 992.504 1269.03 994.947 1272.26 998.061L1272.84 998.62C1276.08 1001.75 1278.56 1003.65 1280.27 1004.31 1281.97 1004.96 1283.72 1004.37 1285.52 1002.51 1286.99 1000.98 1287.4 999.254 1286.75 997.316 1286.12 995.368 1284.29 992.938 1281.27 990.026ZM1316.05 964.794 1304.62 949.075 1308.88 945.98 1328.2 972.542 1325.63 974.41 1300.19 967.378 1312.33 984.065 1308.06 987.16 1288.74 960.598 1291.95 958.271ZM1356.99 948.158C1358.46 951.313 1358.5 954.136 1357.1 956.629 1355.69 959.109 1353.12 961.222 1349.37 962.969 1347.22 963.968 1345.35 964.686 1343.76 965.123 1342.17 965.56 1340.81 965.812 1339.67 965.878L1337.28 960.75C1338.24 960.861 1339.62 960.741 1341.41 960.386 1343.19 960.019 1344.86 959.474 1346.41 958.751 1348.6 957.734 1349.96 956.745 1350.51 955.787 1351.07 954.822 1351.03 953.67 1350.41 952.329 1350 951.461 1349.35 950.829 1348.44 950.435 1347.54 950.04 1345.44 949.938 1342.15 950.127 1339.52 950.263 1337.28 949.923 1335.42 949.106 1333.56 948.277 1332.07 946.666 1330.95 944.273 1329.89 941.986 1329.96 939.6 1331.17 937.115 1332.39 934.624 1334.73 932.575 1338.18 930.969 1339.85 930.191 1341.41 929.63 1342.87 929.286 1344.34 928.924 1345.39 928.723 1346.03 928.682L1348.14 933.217C1346.9 933.465 1345.66 933.746 1344.43 934.06 1343.21 934.371 1341.97 934.821 1340.71 935.408 1338.92 936.242 1337.76 937.119 1337.22 938.039 1336.69 938.959 1336.62 939.833 1337.01 940.662 1337.5 941.714 1338.16 942.371 1339.01 942.634 1339.85 942.897 1341.96 942.883 1345.33 942.592 1348.47 942.315 1350.96 942.661 1352.79 943.633 1354.63 944.586 1356.03 946.094 1356.99 948.158ZM1385.43 920.959 1378.53 922.806 1385.77 949.791 1378.61 951.706 1371.38 924.72 1364.31 926.612 1363.04 921.883 1384.16 916.23ZM1404.63 913.654 1412.02 913.138 1414.31 945.891 1406.92 946.407ZM1451.61 919.407 1444.48 918.909 1442.53 946.778 1435.14 946.262 1437.09 918.393 1429.79 917.883 1430.13 913 1451.95 914.524ZM1487.57 947.518C1486.66 950.473 1485.04 952.511 1482.71 953.635 1480.38 954.744 1477.31 954.715 1473.49 953.549 1469.39 952.297 1466.72 950.504 1465.48 948.167 1464.23 945.831 1464.15 942.901 1465.23 939.377L1471.69 918.258 1478.78 920.421 1472.05 942.393C1471.53 944.099 1471.52 945.5 1472.02 946.592 1472.54 947.677 1473.75 948.508 1475.65 949.089 1477.41 949.628 1478.84 949.645 1479.92 949.141 1481.01 948.64 1481.86 947.406 1482.46 945.436L1489.15 923.589 1494.4 925.192ZM1528.85 945.458 1522.48 942.217 1509.79 967.109 1503.19 963.751 1515.89 938.859 1509.36 935.54 1511.59 931.178 1531.08 941.096ZM1547.01 951.311 1553 955.659 1533.68 982.221 1527.69 977.873ZM1575.84 999.339C1572.17 1003 1568.5 1004.92 1564.83 1005.11 1561.16 1005.28 1557.9 1003.94 1555.03 1001.08 1552.2 998.246 1550.86 994.995 1551.02 991.323 1551.2 987.641 1553.09 983.995 1556.71 980.385L1558.03 979.061C1561.4 975.697 1564.96 973.769 1568.72 973.277 1572.49 972.794 1575.96 974.133 1579.12 977.292 1582.21 980.379 1583.47 983.79 1582.89 987.523 1582.33 991.267 1580.39 994.79 1577.08 998.093ZM1570.88 993.769 1571.51 993.138C1574.37 990.277 1576.25 987.907 1577.15 986.03 1578.04 984.153 1577.56 982.287 1575.7 980.43 1573.98 978.717 1572.23 978.194 1570.43 978.861 1568.65 979.538 1566.17 981.461 1562.99 984.631L1562.42 985.2C1559.23 988.389 1557.29 990.831 1556.6 992.523 1555.91 994.215 1556.48 995.974 1558.31 997.801 1559.81 999.298 1561.53 999.739 1563.49 999.124 1565.45 998.518 1567.91 996.733 1570.88 993.769ZM1596.23 1027.93 1611.97 1016.51 1615.07 1020.77 1588.48 1040.07 1586.61 1037.5 1593.65 1012.08 1576.94 1024.21 1573.84 1019.95 1600.44 1000.65 1602.76 1003.85Z" fill="#002D56" fill-rule="evenodd"/><path d="M1530.32 1267.26C1530.32 1267.26 1532.11 1265.27 1532.7 1266.72 1533.28 1268.18 1533.4 1269.41 1532.9 1269.96 1532.41 1270.5 1532.46 1270.84 1531.76 1271.75 1531.05 1272.67 1531.37 1273.19 1530.68 1273.62 1530 1274.06 1529.69 1273.87 1528.94 1273.83L1528.63 1276.08 1528.14 1277.97 1528.42 1279.79 1529.71 1282.68 1528.73 1280.51 1530.1 1282.88C1531.13 1285.63 1540.98 1288.39 1544.55 1290 1551.97 1293.34 1550.81 1309.25 1551.59 1310.82 1552.37 1312.4 1555.5 1333.45 1555.5 1337 1555.5 1340.54 1551.59 1359.63 1551.2 1363.57 1551.01 1365.53 1550.52 1370.22 1550.03 1374.98 1549.94 1375.92 1548.6 1374.68 1548.17 1375.53 1547.61 1376.65 1547.7 1379.88 1547.83 1380.94 1547.59 1383.27 1546.94 1385.07 1546.83 1386.25 1546.44 1390.58 1542.48 1390.99 1542.48 1390.99 1542.48 1390.99 1542.34 1405.79 1541.56 1409.34 1540.78 1412.88 1540.24 1413.55 1541.42 1423.39 1542.59 1433.24 1539.85 1445.44 1539.85 1445.44 1539.85 1445.44 1535.82 1463.38 1535.04 1466.13 1534.25 1468.89 1535.55 1471.42 1535.94 1473.38 1536.34 1475.35 1536.34 1478.5 1536.34 1478.5L1501.97 1478.5C1501.1 1478.5 1502.58 1475.39 1503.73 1473.19 1504.27 1472.17 1505.88 1470.63 1508.23 1470.23 1510.57 1469.84 1510.77 1467.28 1512.13 1464.13 1513.5 1460.98 1512.92 1454.29 1511.74 1450.16 1510.57 1446.03 1509.01 1435.99 1509.01 1432.45 1509.01 1428.91 1507.07 1420.84 1505.11 1415.33 1503.16 1409.82 1502.18 1397.81 1502.18 1396.63 1502.18 1396.11 1501.96 1395.45 1501.55 1394.41 1501.01 1393.06 1500.92 1391.08 1499.82 1387.97 1497.87 1382.46 1498.05 1375.77 1497.85 1370.06 1497.66 1364.35 1495.51 1358.05 1494.52 1356.66L1493.91 1354.19 1487.89 1356.09 1482.06 1360.68C1480.78 1361.85 1479.38 1362.04 1477.02 1362.26 1472.46 1362.67 1467.9 1357.28 1466.83 1349.48 1465.65 1340.87 1467.34 1337.18 1476.85 1337.21L1481.08 1337.22 1484.76 1337.34 1486.54 1337.34C1486.54 1337.34 1487.6 1339.44 1485.94 1340.18 1484.29 1340.92 1483.81 1341.04 1483.81 1341.04L1485.93 1343.49C1485.89 1343.49 1487.08 1342.68 1490.62 1340.73L1491.94 1337.63C1492.04 1335.67 1492.19 1335.22 1491.8 1333.06 1491.41 1330.89 1490.65 1318.45 1490.65 1315.5 1490.65 1312.54 1490.73 1309.05 1491.03 1305.64 1491.3 1302.54 1491.26 1295.64 1492.76 1292.7 1494.61 1289.06 1504.65 1287.49 1504.65 1287.49 1504.65 1287.49 1508.99 1287.01 1509.58 1285.83 1509.8 1285.39 1510.89 1283.5 1511.35 1282.76 1508.56 1281.76 1507.64 1278.3 1507.23 1277.46 1506.81 1276.59 1506.06 1272.54 1505.96 1272.15 1505.82 1271.57 1504.94 1267.91 1504.45 1266.46 1503.97 1265.02 1504.38 1262.38 1504.38 1262.38L1501.2 1262.02 1497.36 1261.73C1497.36 1261.73 1495.21 1261.42 1494.66 1261.21 1494.1 1260.99 1492.24 1260.6 1492.24 1260.6 1492.24 1260.6 1489.18 1257.97 1492.21 1255.85 1495.24 1253.74 1498.8 1251.78 1499.39 1251.43 1499.97 1251.08 1500.2 1250.5 1500.2 1250.5L1500.15 1249.74C1499.45 1248.66 1498.77 1247.2 1497.9 1244.03 1497.03 1240.85 1505.3 1239.53 1505.3 1239.53 1507.7 1239.32 1515.72 1240.39 1514.89 1240.21 1516.57 1240.58 1517.67 1240.52 1520.87 1240.5 1524.07 1240.48 1528.24 1241.65 1530.57 1242.15 1532.9 1242.65 1535.27 1244.82 1536.47 1247.06 1537.67 1249.31 1542.54 1252.15 1543.97 1253.55 1546.14 1255.67 1548.72 1260.12 1549.71 1261.75 1551.44 1264.59 1549.57 1263.91 1548.99 1264.26 1546.28 1265.88 1531.18 1262.45 1532.5 1262.61 1533.58 1262.75 1533.32 1262.36 1532.16 1261.73L1532.15 1262.8 1531.27 1266.15Z" stroke="#EED000" stroke-width="0.779528" stroke-miterlimit="8" fill="#EED000" fill-rule="evenodd"/><path d="M1513.4 1309C1513.89 1300.96 1514.57 1294.33 1515.82 1289.17 1516.22 1287.5 1515.82 1286.71 1515.82 1286.71 1513.67 1286.66 1512.22 1286.5 1510 1284" stroke="#002D56" stroke-width="1.94918" stroke-miterlimit="8" fill="none" fill-rule="evenodd"/><path d="M1500 1397 1500.48 1393.65C1500.48 1393.65 1501.56 1391.73 1501.15 1387.98 1500.74 1384.22 1501.15 1373.75 1502.17 1368.42 1503.14 1363.37 1511.36 1347.67 1512.18 1343.52 1512.89 1339.94 1513 1327.92 1513 1326.93 1513 1326.6 1512.59 1325.46 1512.79 1321" stroke="#002D56" stroke-width="2.3393" stroke-miterlimit="8" fill="none" fill-rule="evenodd"/><path d="M1511.5 1282.5 1509.7 1285.57C1509.7 1285.57 1494.52 1288.81 1492.64 1292.46 1491.12 1295.41 1490.5 1312.35 1490.5 1315.31 1490.5 1318.27 1491.27 1330.74 1491.67 1332.91 1492.06 1335.08 1491.91 1335.53 1491.81 1337.5" stroke="#002D56" stroke-width="2.58832" stroke-linejoin="round" stroke-miterlimit="10" fill="none" fill-rule="evenodd"/><path d="M1519 1331C1519.2 1332.58 1518.79 1342.7 1523.02 1349.17 1524.83 1351.94 1532.74 1367 1534.48 1368.92 1535.53 1370.08 1538.21 1370.52 1538.88 1372.09 1542.38 1380.2 1538.68 1388.18 1543.62 1389.35L1545 1394" stroke="#002D56" stroke-width="2.3393" stroke-miterlimit="8" fill="none" fill-rule="evenodd"/><path d="M1530 1282C1529.18 1283.13 1523.69 1286.43 1520.46 1286.43 1519.28 1286.43 1519.98 1288.84 1519.46 1291.69 1518.91 1294.69 1518.87 1311.72 1519.26 1313.88 1519.42 1314.75 1519.11 1315.2 1519.06 1318" stroke="#002D56" stroke-width="1.94918" stroke-miterlimit="8" fill="none" fill-rule="evenodd"/><path d="M1535 1303 1537.09 1310.86 1539.96 1325.37 1540.98 1334.2 1541.19 1342.04 1540.98 1348.71 1540.17 1353.41 1539.14 1357.73 1537.3 1371.84C1543.24 1370.47 1547.15 1371.8 1550 1374" stroke="#002D56" stroke-width="2.3393" stroke-linecap="round" stroke-linejoin="round" stroke-miterlimit="10" fill="none" fill-rule="evenodd"/><path d="M1498 1289 1498.38 1290.35C1497.85 1287.39 1507.28 1329.39 1539.44 1349.02L1541 1350" stroke="#002D56" stroke-width="2.3393" stroke-miterlimit="8" fill="none" fill-rule="evenodd"/><path d="M1504 1287C1507.39 1297.82 1517.53 1324.87 1540.71 1338.99L1541 1340.95M1508.88 1351.38C1514.83 1352.63 1518.67 1352.63 1524.04 1351.18M1518.19 1382C1519.36 1390.16 1520.81 1399.92 1521.25 1401.47 1522.03 1404.23 1522.82 1417.98 1522.82 1417.98L1523.21 1431.34 1523.6 1448.24 1523.6 1467.89C1520.39 1470.15 1518.7 1473.52 1518.54 1478" stroke="#002D56" stroke-width="2.3393" stroke-miterlimit="8" fill="none" fill-rule="evenodd"/><path d="M1486.21 1340C1484.08 1343.07 1473.6 1337.24 1473.07 1345.94 1472.66 1352.62 1474 1360.17 1480.73 1361L1485.68 1357.85 1487 1356.58" stroke="#002D56" stroke-width="2.15669" stroke-linejoin="round" stroke-miterlimit="10" fill="none" fill-rule="evenodd"/><path d="M1480.3 1335.97C1477.54 1293.45 1478.82 1256.2 1486 1228 1466.67 1255.57 1474.62 1336 1474.62 1336Z" fill="#EED000" fill-rule="evenodd"/><path d="M1491.5 1336.5 1490.12 1340.38C1486.56 1342.4 1485.46 1342.5 1485.5 1342.5" stroke="#002D56" stroke-width="2.58832" stroke-linejoin="round" stroke-miterlimit="10" fill="none" fill-rule="evenodd"/><path d="M1485 1341C1485 1341 1488.97 1350.16 1485.72 1357" stroke="#002D56" stroke-width="2.15669" stroke-linejoin="round" stroke-miterlimit="10" fill="none" fill-rule="evenodd"/><path d="M1480 1337 1483.87 1337.07 1485.66 1337.07C1485.66 1337.07 1486.74 1338.8 1485.06 1339.4 1483.39 1340.01 1482.25 1340 1482.25 1340" stroke="#002D56" stroke-width="1.66516" stroke-linejoin="round" stroke-miterlimit="10" fill="none" fill-rule="evenodd"/><path d="M1481 1360.36C1479.77 1361.56 1478.42 1361.76 1476.16 1361.98 1471.78 1362.4 1467.4 1356.85 1466.38 1348.82 1465.24 1339.94 1466.33 1336.25 1474.47 1336" stroke="#002D56" stroke-width="1.66516" stroke-miterlimit="8" fill="none" fill-rule="evenodd"/><path d="M1483 1340 1476.65 1340C1476.65 1340 1473.28 1340.87 1473.12 1343.53 1472.88 1347.77 1472.8 1353.76 1474.69 1356.12L1476.57 1358" stroke="#002D56" stroke-width="1.66516" stroke-miterlimit="8" fill="none" fill-rule="evenodd"/><path d="M1503.48 1258.33 1504 1261.6 1503.26 1263 1500.03 1262.78 1496.25 1262.64C1496.25 1262.64 1494.13 1262.43 1493.57 1262.23 1493.02 1262.03 1491.18 1261.72 1491.18 1261.72 1491.18 1261.72 1488.44 1257.91 1491.32 1255.61 1494.2 1253.3 1497.17 1251.68 1497.73 1251.3 1498.28 1250.91 1498.56 1251.01 1498.56 1251.01" stroke="#002D56" stroke-width="1.94918" stroke-miterlimit="8" fill="none" fill-rule="evenodd"/><path d="M1504.5 1259.5 1505.5 1262.5" stroke="#002D56" stroke-width="0.779528" stroke-miterlimit="8" fill="none" fill-rule="evenodd"/><path d="M1504.57 1261C1504.57 1261 1503.65 1264.18 1504.15 1265.67 1504.64 1267.17 1505.53 1270.94 1505.67 1271.54 1505.77 1271.95 1506.53 1276.12 1506.96 1277.02 1507.39 1277.93 1508.37 1281.75 1511.47 1282.6 1514.57 1283.46 1518.03 1282.86 1520 1281.5" stroke="#002D56" stroke-width="1.55978" stroke-miterlimit="8" fill="none" fill-rule="evenodd"/><path d="M1510.5 1275.24C1510.5 1275.24 1512.08 1274.69 1512.62 1274.91 1513.15 1275.12 1514.69 1275.29 1514.69 1275.29 1514.69 1275.29 1516.61 1274.96 1517.24 1275.14 1517.88 1275.31 1518.9 1275.31 1519.2 1275.28M1511.89 1277.17C1511.89 1277.17 1515.66 1277.86 1517.24 1277.24M1517.12 1261.91C1517.12 1261.91 1520.52 1260.59 1523.5 1262.67" stroke="#002D56" stroke-width="1.16965" stroke-miterlimit="8" fill="none" fill-rule="evenodd"/><path d="M1512.74 1261.5C1513.01 1262.2 1512.49 1264.24 1512.03 1265.05 1511.57 1265.87 1511.44 1267.34 1511.14 1267.96 1510.85 1268.59 1510.48 1269.65 1510.5 1270.24 1510.52 1270.83 1510.52 1270.78 1511.48 1271.27 1512.43 1271.76 1513.11 1271.34 1513.84 1271.13 1514.58 1270.92 1515.23 1270.72 1515.9 1270.9 1516.56 1271.08 1517.52 1270.59 1517.5 1269.95 1517.48 1269.31 1517.28 1268.36 1516.83 1268 1516.39 1267.63 1515.44 1267.04 1515.44 1267.04" stroke="#002D56" stroke-width="0.935794" stroke-miterlimit="8" fill="none" fill-rule="evenodd"/><path d="M1506.5 1262.5C1506.98 1262.41 1509.99 1260.31 1512.5 1262.48" stroke="#002D56" stroke-width="1.16965" stroke-miterlimit="8" fill="none" fill-rule="evenodd"/><path d="M1505.77 1262.92C1505.78 1262.63 1506.73 1262.41 1507.9 1262.43 1509.07 1262.45 1510.02 1262.7 1510.01 1262.99 1510.01 1263.28 1509.05 1263.5 1507.88 1263.48 1506.71 1263.46 1505.76 1263.21 1505.77 1262.92Z" stroke="#002D56" stroke-width="0.779528" stroke-miterlimit="8" fill="#002D56" fill-rule="evenodd"/><path d="M1511 1282.33C1511.11 1282.38 1511.23 1282.43 1511.35 1282.47 1514.49 1283.61 1518 1282.81 1520 1281" stroke="#002D56" stroke-width="1.55978" stroke-miterlimit="8" fill="none" fill-rule="evenodd"/><path d="M1503.08 1239.06C1503.08 1239.06 1495.08 1241.43 1496.09 1244.54 1497.09 1247.65 1497.83 1249.06 1498.57 1250.1 1499.31 1251.14 1500.78 1255.19 1501.24 1256.32 1501.7 1257.45 1501.42 1259.51 1503.29 1258.6 1513.87 1253.38 1536.65 1262.4 1531.75 1262.01 1530.43 1261.9 1546.5 1265.23 1549.14 1263.5 1549.7 1263.13 1550.83 1262.39 1548.98 1259.65 1547.92 1258.08 1544.7 1253.98 1542.44 1251.97 1540.95 1250.64 1536.63 1247.81 1535.33 1245.63 1534.04 1243.46 1530.93 1241.65 1528.59 1241.25 1526.25 1240.86 1522.03 1239.88 1518.84 1240.04 1515.65 1240.2 1514.71 1239.91 1513.02 1239.61 1513.85 1239.76 1505.46 1238.75 1503.08 1239.06Z" stroke="#002D56" stroke-width="1.55869" stroke-miterlimit="8" fill="none" fill-rule="evenodd"/><path d="M1522.95 1408.86C1522.95 1408.86 1531.39 1414.36 1541.37 1408.66 1550.66 1403.34 1543.1 1407.64 1543.1 1407.64M1503 1410.08C1503 1410.08 1512.34 1414.77 1521.93 1409.48" stroke="#002D56" stroke-width="2.3393" stroke-miterlimit="8" fill="none" fill-rule="evenodd"/><path d="M1516 1262.94C1516.03 1262.64 1517.05 1262.5 1518.28 1262.63 1519.5 1262.76 1520.47 1263.11 1520.44 1263.41 1520.4 1263.72 1519.39 1263.86 1518.16 1263.73 1516.94 1263.6 1515.97 1263.25 1516 1262.94Z" stroke="#002D56" stroke-width="0.779528" stroke-miterlimit="8" fill="#002D56" fill-rule="evenodd"/><path d="M1507 1357.12C1512.7 1358.49 1521.49 1358.11 1527 1357" stroke="#002D56" stroke-width="2.3393" stroke-miterlimit="8" fill="none" fill-rule="evenodd"/><path d="M1579.5 1468.5 1657.5 1468.5 1657.5 1479.5 1579.5 1479.5Z" stroke="#002D56" stroke-width="0.324803" stroke-miterlimit="8" fill="#EED000" fill-rule="evenodd"/></g></svg>