<svg width="2339" height="1561" xmlns="http://www.w3.org/2000/svg" xmlns:xlink="http://www.w3.org/1999/xlink" xml:space="preserve" overflow="hidden"><g transform="translate(-1025 -455)"><rect x="1025.5" y="456.5" width="2338" height="1559" stroke="#000000" stroke-width="1.14583" stroke-miterlimit="8" fill="#FFC000"/><path d="M2760 1048 2858.5 877 2957 1048 2858.5 1219Z" fill="#800000" fill-rule="evenodd"/><path d="M2642.44 1226.86 2543.76 1056.08 2741 1056.14 2839.67 1226.92Z" fill="#800000" fill-rule="evenodd"/><path d="M2980.81 1053.68 3178.05 1053.62 3079.37 1224.4 2882.13 1224.47Z" fill="#800000" fill-rule="evenodd"/><path d="M0 171 98.5 0 197 171 98.5 342Z" fill="#800000" fill-rule="evenodd" transform="matrix(-1 0 0 1 2957 1256)"/><path d="M0 170.846 98.5648 0 197.13 170.846 98.5648 341.692Z" fill="#800000" fill-rule="evenodd" transform="matrix(-0.5 -0.866025 -0.866025 0.5 2887.76 1333.16)"/><path d="M0 170.846 98.5648 0 197.13 170.846 98.5648 341.692Z" fill="#800000" fill-rule="evenodd" transform="matrix(-0.5 0.866025 0.866025 0.5 2927.4 1161.89)"/><path d="M0 0 340.974 0 787 779.5 340.974 1559 0 1559 446.026 779.5 0 0Z" fill="#F2F2F2" fill-rule="evenodd" transform="matrix(-1 0 0 1 2303 456)"/><path d="M0 0 340.974 0 787 779.5 340.974 1559 0 1559 446.026 779.5 0 0Z" fill="#385723" fill-rule="evenodd" transform="matrix(-1 0 0 1 2639 455)"/><path d="M0 0 340.974 0 787 779.5 340.974 1559 0 1559 446.026 779.5 0 0Z" fill="#800000" fill-rule="evenodd" transform="matrix(-1 0 0 1 1975 456)"/></g></svg>