<svg width="2338" height="1559" xmlns="http://www.w3.org/2000/svg" xmlns:xlink="http://www.w3.org/1999/xlink" xml:space="preserve" overflow="hidden"><defs><clipPath id="clip0"><rect x="1031" y="458" width="2338" height="1559"/></clipPath></defs><g clip-path="url(#clip0)" transform="translate(-1031 -458)"><path d="M3369 458 3369 2017 1031 2017 1031 458Z" fill="#385A4F" fill-rule="evenodd"/><rect x="1031" y="1497" width="2338" height="130" fill="#F2F2F2"/><rect x="1031" y="1757" width="2338" height="130" fill="#F2F2F2"/><rect x="1031" y="588" width="2338" height="130" fill="#F2F2F2"/><rect x="1031" y="848" width="2338" height="130" fill="#F2F2F2"/><path d="M0.000263561 91.6716 88.572 86.6535 120.5 0 152.428 86.6535 241 91.6716 172.161 150.245 194.973 239.999 120.5 189.546 46.0269 239.999 68.8394 150.245Z" fill="#FFC000" fill-rule="evenodd" transform="matrix(-1 0 0 1 1641 1108)"/><path d="M0.000263561 91.6716 88.572 86.6535 120.5 0 152.428 86.6535 241 91.6716 172.161 150.245 194.973 239.999 120.5 189.546 46.0269 239.999 68.8394 150.245Z" fill="#FFC000" fill-rule="evenodd" transform="matrix(-1 0 0 1 2319 1108)"/><path d="M0.000262468 91.6716 88.2046 86.6535 120 0 151.796 86.6535 240 91.6716 171.446 150.245 194.164 239.999 120 189.546 45.836 239.999 68.5539 150.245Z" fill="#FFC000" fill-rule="evenodd" transform="matrix(-1 0 0 1 2997 1108)"/></g></svg>