<svg width="2338" height="1559" xmlns="http://www.w3.org/2000/svg" xmlns:xlink="http://www.w3.org/1999/xlink" xml:space="preserve" overflow="hidden"><defs><clipPath id="clip0"><rect x="1031" y="458" width="2338" height="1559"/></clipPath></defs><g clip-path="url(#clip0)" transform="translate(-1031 -458)"><rect x="1031" y="458" width="2338" height="1559" fill="#001C5A"/><rect x="1031" y="458" width="519" height="1559" fill="#C00000"/><rect x="2850" y="458" width="519" height="1559" fill="#C00000"/><path d="M2198.45 687 2198.66 687.115 2198.87 687 2198.87 687.229 2199.5 687.811 2200.13 687.229 2200.13 687 2200.34 687.115 2200.55 687 2200.55 687.229C2221.32 707.549 2296.18 765.819 2325.21 808.923L2325.25 808.989 2345.73 841.41C2361.39 868.652 2372.84 896.62 2375.47 927.585 2375.63 933.817 2375.79 940.048 2375.95 946.28 2375.95 946.367 2375.95 946.455 2375.95 946.542 2375.95 946.567 2375.95 946.593 2375.94 946.619L2373.8 966.01C2367.88 998.686 2350.94 1032.69 2334.17 1070.76L2314.83 1118.55C2314.83 1118.55 2314.83 1118.56 2314.83 1118.57 2294.76 1176.99 2265.74 1226.85 2245.62 1309.24L2237.87 1345.38 2236.36 1365.95 2246.83 1365.95 2248.27 1359.84C2261.86 1305.41 2296.26 1208.99 2328.78 1170.13 2363.8 1128.28 2408.35 1102.22 2460.04 1101.4 2467.42 1101.28 2474.95 1101.68 2482.61 1102.62 2550.74 1110.99 2589.09 1144.21 2610.38 1180.81 2631.68 1217.41 2627.98 1291.96 2610.38 1322.22 2591.78 1354.22 2568.01 1372.78 2545 1383.75 2522 1394.71 2485.61 1397.13 2472.36 1388.02 2493.3 1372.92 2509.54 1349.85 2507.83 1322.65 2506.12 1295.45 2494.65 1275.65 2474.92 1268.39 2455.2 1261.13 2417.23 1258.85 2389.46 1279.07 2368.63 1294.24 2338.74 1328.31 2321.07 1359.84L2317.65 1366.7 2329.13 1369.02C2343.12 1374.93 2352.93 1388.78 2352.93 1404.93L2352.93 1404.93C2352.93 1426.45 2335.48 1443.9 2313.95 1443.9L2300.68 1443.9 2301.31 1452.83C2302.33 1458.11 2304.05 1462.85 2306.73 1466.56 2317.42 1481.43 2330.46 1498.57 2353.67 1498.64 2376.88 1498.7 2416.4 1484.56 2420.18 1455.22 2440.39 1472.82 2444.76 1516.56 2434.65 1537.75 2424.54 1558.93 2393.9 1583.44 2359.54 1582.34 2325.18 1581.23 2292.71 1544.46 2273.08 1514.67 2263.27 1499.78 2254.53 1476.57 2248.71 1454.81L2246.1 1443.9 2235.52 1443.9 2236.65 1457.83C2245.74 1516.47 2284.02 1565.36 2340.18 1603.65 2338.32 1641.91 2310.08 1648.12 2260.65 1661.26 2260.62 1690.14 2250.65 1714.68 2207.37 1731L2199.5 1731 2191.63 1731C2148.35 1714.68 2138.38 1690.14 2138.35 1661.26 2088.92 1648.12 2060.68 1641.91 2058.82 1603.65 2114.98 1565.36 2153.26 1516.47 2162.35 1457.83L2163.48 1443.9 2152.9 1443.9 2150.29 1454.81C2144.47 1476.57 2135.73 1499.78 2125.92 1514.67 2106.29 1544.46 2073.82 1581.23 2039.46 1582.34 2005.1 1583.44 1974.46 1558.93 1964.35 1537.75 1954.24 1516.56 1958.61 1472.82 1978.82 1455.22 1982.61 1484.56 2022.12 1498.7 2045.33 1498.64 2068.54 1498.57 2081.58 1481.43 2092.27 1466.56 2094.95 1462.85 2096.67 1458.11 2097.69 1452.83L2098.32 1443.9 2085.05 1443.9C2063.52 1443.9 2046.07 1426.45 2046.07 1404.93L2046.07 1404.93C2046.07 1388.78 2055.88 1374.93 2069.87 1369.02L2081.35 1366.7 2077.93 1359.84C2060.26 1328.31 2030.37 1294.24 2009.54 1279.07 1981.77 1258.85 1943.8 1261.13 1924.08 1268.39 1904.35 1275.65 1892.88 1295.45 1891.17 1322.65 1889.46 1349.85 1905.7 1372.92 1926.64 1388.02 1913.39 1397.13 1877 1394.71 1854 1383.75 1830.99 1372.78 1807.22 1354.22 1788.62 1322.22 1771.02 1291.96 1767.32 1217.41 1788.62 1180.81 1809.91 1144.21 1848.26 1110.99 1916.39 1102.62 1924.05 1101.68 1931.58 1101.28 1938.96 1101.4 1990.65 1102.22 2035.2 1128.28 2070.22 1170.13 2102.74 1208.99 2137.14 1305.41 2150.73 1359.84L2152.17 1365.95 2162.64 1365.95 2161.13 1345.38 2153.38 1309.24C2133.26 1226.85 2104.24 1176.99 2084.17 1118.57 2084.17 1118.56 2084.17 1118.55 2084.17 1118.55L2064.83 1070.76C2048.06 1032.69 2031.12 998.686 2025.2 966.01L2023.06 946.619C2023.05 946.593 2023.05 946.567 2023.05 946.542 2023.05 946.455 2023.05 946.367 2023.05 946.28 2023.21 940.048 2023.37 933.817 2023.53 927.585 2026.16 896.62 2037.61 868.652 2053.27 841.41L2073.75 808.989 2073.79 808.923C2102.82 765.819 2177.68 707.549 2198.45 687.229Z" fill="#FFC000" fill-rule="evenodd"/><path d="M2174 1672.17C2174.07 1655.5 2192.61 1633.92 2199.39 1598 2205.78 1633.72 2224 1657.9 2224 1672.17 2224 1686.43 2212.81 1698 2199 1698 2185.19 1698 2173.94 1688.83 2174 1672.17Z" fill="#FFC000" fill-rule="evenodd"/><path d="M0.199892 74.356C-1.50784 57.6986 8.09428 35.5844 14.8393 0 21.1956 35.3845 49.972 60.2237 49.972 74.356 49.972 88.4884 38.8302 99.9448 25.086 99.9448 11.3417 99.9448 1.90762 91.0135 0.199892 74.356Z" fill="#FFC000" fill-rule="evenodd" transform="matrix(-0.866025 -0.5 -0.5 0.866025 2189.16 1551.9)"/><path d="M2246.42 1616.2C2236.61 1602.62 2233.87 1578.67 2221.92 1544.48 2245.12 1571.95 2282.46 1579.07 2289.52 1591.31 2296.59 1603.55 2292.67 1619.04 2280.77 1625.91 2268.86 1632.78 2256.23 1629.77 2246.42 1616.2Z" fill="#FFC000" fill-rule="evenodd"/><path d="M2175.91 1695.75C2162.61 1682.44 2162.61 1660.87 2175.91 1647.57 2187.03 1636.45 2195.06 1622.24 2200 1604.95 2204.94 1622.24 2212.97 1636.45 2224.09 1647.57 2237.39 1660.87 2237.39 1682.44 2224.09 1695.75 2210.78 1709.05 2189.21 1709.05 2175.91 1695.75Z" fill="#C00000" fill-rule="evenodd"/><path d="M2097.6 1612.33C2094.71 1593.74 2107.43 1576.32 2126.02 1573.43 2141.56 1571.01 2156.43 1564.28 2170.62 1553.23 2164.41 1570.11 2162.51 1586.32 2164.93 1601.85 2167.82 1620.44 2155.1 1637.86 2136.5 1640.76 2117.91 1643.65 2100.5 1630.92 2097.6 1612.33Z" fill="#C00000" fill-rule="evenodd"/><path d="M0 34.0679C-4.33725e-15 15.2527 15.2525-4.3373e-15 34.0675-8.67459e-15 49.7909-2.89153e-15 65.5144-4.36762 81.2378-13.1029 72.5026 2.62071 68.135 18.3443 68.135 34.0679 68.135 52.8831 52.8825 68.1358 34.0675 68.1358 15.2525 68.1358 0 52.8831 0 34.0679Z" fill="#C00000" fill-rule="evenodd" transform="matrix(-0.988101 -0.153808 -0.153808 0.988101 2306.99 1576.88)"/><path d="M2116 996 2155.56 996C2160.12 1057.41 2185.19 1100.01 2200 1152.01 2214.81 1100.01 2240.37 1055.53 2244.44 996L2284 996C2273.09 1074.55 2228 1149.33 2200 1226 2172 1149.33 2129.35 1080.19 2116 996Z" fill="#001C5A" fill-rule="evenodd"/></g></svg>