<svg width="2338" height="1560" xmlns="http://www.w3.org/2000/svg" xmlns:xlink="http://www.w3.org/1999/xlink" xml:space="preserve" overflow="hidden"><defs><clipPath id="clip0"><rect x="1031" y="458" width="2338" height="1560"/></clipPath></defs><g clip-path="url(#clip0)" transform="translate(-1031 -458)"><rect x="1031" y="458" width="2338" height="1559" fill="#A60A3D"/><rect x="1031" y="458" width="195" height="1559" fill="#006338"/><rect x="1810.5" y="458.5" width="195" height="1559" stroke="#002D65" stroke-width="1.14583" stroke-miterlimit="8" fill="#002D65"/><path d="M2438.5 1158.17C2438.7 1155.54 2613.17 1025.6 2685.13 1132.72 2612.25 1025.32 2788.31 901.385 2784.99 900.505 2781.67 899.624 2958.47 1020.2 2884.85 1132.72 2958.27 1019.02 3130.15 1151.6 3131.48 1158.17 3132.81 1164.74 3068.98 1359.34 2946.57 1327.14 3068.06 1358.57 3000.22 1573.78 2999.13 1575.08 2998.04 1576.38 2789.01 1568.17 2784.99 1447.29 2789.76 1568.91 2573.1 1577.98 2570.85 1575.08 2568.6 1572.18 2507.78 1362.23 2623.42 1327.14 2510.52 1360.81 2438.3 1160.8 2438.5 1158.17Z" stroke="#FFFFFF" stroke-width="4.58333" stroke-miterlimit="8" fill="#F2F2F2" fill-rule="evenodd"/><path d="M2680.02 1233.09C2681.54 1228.18 2754.87 1262.19 2772.78 1248.5 2790.7 1234.82 2782.59 1151 2787.5 1151 2792.41 1183.5 2787.41 1235.25 2802.22 1248.5 2817.03 1261.75 2893.46 1228.18 2894.98 1233.09 2896.49 1237.99 2818.16 1255.79 2811.31 1277.93 2804.47 1300.07 2857.89 1362.88 2853.93 1365.91 2849.96 1368.94 2809.64 1296.12 2787.5 1296.12 2765.36 1296.12 2725.04 1368.94 2721.07 1365.91 2717.11 1362.88 2770.53 1300.07 2763.69 1277.93 2756.84 1255.79 2678.51 1237.99 2680.02 1233.09Z" fill="#FFCD00" fill-rule="evenodd"/><rect x="1226" y="458" width="195" height="1559" fill="#F2F2F2"/><rect x="2005" y="458" width="195" height="1559" fill="#F2F2F2"/><rect x="1615" y="458" width="195" height="1559" fill="#F2F2F2"/></g></svg>