<svg width="2339" height="1560" xmlns="http://www.w3.org/2000/svg" xmlns:xlink="http://www.w3.org/1999/xlink" xml:space="preserve" overflow="hidden"><defs><clipPath id="clip0"><rect x="1031" y="458" width="2339" height="1560"/></clipPath></defs><g clip-path="url(#clip0)" transform="translate(-1031 -458)"><rect x="1031.5" y="458.5" width="2338" height="1559" stroke="#000000" stroke-width="1.14583" stroke-miterlimit="8" fill="#F2F2F2"/><path d="M2981.73 1582C2981.73 1582 2968.27 1561.22 2960.91 1546.47 2941.73 1509.21 2938.22 1443.2 2933.3 1375.77 2933.3 1375.77 2962.94 1419.79 2983.48 1434.92 2989.79 1439.57 3006.43 1444.07 3006.43 1444.07L3042.72 1473.81C3042.72 1473.81 3105.8 1518.26 3113.88 1507.95 3120.88 1499.02 3069.48 1459.92 3051.18 1436.22 3032.88 1412.53 3001.34 1371.49 3006.43 1366.63 3006.43 1366.63 3030.88 1398.24 3049.16 1405.89 3053.04 1407.51 3061.79 1405.33 3065.01 1408.21 3086.43 1427.33 3112.78 1441.26 3138.18 1454.65 3172.43 1472.71 3245.17 1488.88 3245.41 1476.23 3245.52 1470.59 3198.77 1445.24 3153.54 1404.26 3105.07 1360.34 3060.18 1294.88 3052.91 1285.19 3045.82 1275.75 3108.99 1330.83 3138.18 1327.31 3140.9 1326.98 3140.48 1319.18 3143.09 1320.08 3163.86 1327.24 3185.66 1334.74 3202.72 1338.65 3249.14 1349.31 3249.33 1339.74 3248.94 1332.64 3248.57 1325.88 3111.08 1288.32 3020.18 1172.36 3016.69 1167.91 3055.33 1200.74 3075.07 1194.67 3077.93 1193.79 3077.47 1187.9 3080.41 1188.28 3097.89 1190.54 3153.75 1212.16 3153.33 1195.44 3153.08 1185.84 3106.34 1170.73 3065.14 1139.03 3029.77 1111.82 3002.94 1084.62 2987.68 1068.44 2983.79 1064.32 3014.19 1089.6 3027.66 1084.79 3029.67 1084.07 3028.05 1080.36 3030.15 1080.65 3041.89 1082.23 3081.89 1106.64 3085.86 1091.7 3086.74 1088.41 3049.5 1066.2 3017.52 1038.72 2985.54 1011.24 2958.45 980.121 2958.45 980.121 2967.01 985.746 2977.86 993.499 2984.89 992.491 2985.93 991.835 2988.04 991.159 2986.83 987.296 2991.32 988.217 3019.12 1003.88 3021.29 993.777 3022.42 990.704 2978.42 965.395 2953.94 943.882 2927.9 920.994 2901.5 893 2901.5 893 2901.5 893 2875.1 920.994 2849.06 943.882 2824.59 965.395 2780.58 990.704 2781.71 993.777 2783.88 1003.88 2811.68 988.217 2816.17 987.296 2814.96 991.159 2817.07 991.835 2818.11 992.491 2825.14 993.499 2836 985.746 2844.55 980.121 2844.55 980.121 2817.46 1011.24 2785.48 1038.72 2753.5 1066.2 2716.26 1088.41 2717.14 1091.7 2721.11 1106.64 2761.11 1082.23 2772.85 1080.65 2774.95 1080.36 2773.33 1084.07 2775.34 1084.79 2788.81 1089.6 2819.21 1064.32 2815.32 1068.44 2800.06 1084.62 2773.23 1111.82 2737.86 1139.03 2696.66 1170.73 2649.92 1185.84 2649.67 1195.44 2649.25 1212.16 2705.11 1190.54 2722.59 1188.28 2725.53 1187.9 2725.07 1193.79 2727.93 1194.67 2747.67 1200.74 2786.31 1167.91 2782.82 1172.36 2691.92 1288.32 2554.43 1325.88 2554.06 1332.64 2553.67 1339.74 2553.86 1349.31 2600.29 1338.65 2617.34 1334.74 2639.14 1327.24 2659.91 1320.08 2662.52 1319.18 2662.1 1326.98 2664.82 1327.31 2694.02 1330.83 2757.18 1275.75 2750.09 1285.19 2742.82 1294.88 2697.93 1360.34 2649.46 1404.26 2604.23 1445.24 2557.48 1470.59 2557.59 1476.23 2557.83 1488.88 2630.57 1472.71 2664.82 1454.65 2690.22 1441.26 2716.57 1427.33 2737.99 1408.21 2741.21 1405.33 2749.96 1407.51 2753.84 1405.89 2772.13 1398.24 2796.57 1366.63 2796.57 1366.63 2801.66 1371.49 2770.12 1412.53 2751.82 1436.22 2733.52 1459.92 2682.12 1499.02 2689.12 1507.95 2697.2 1518.26 2760.28 1473.81 2760.28 1473.81L2796.57 1444.07C2796.57 1444.07 2813.21 1439.57 2819.52 1434.92 2840.06 1419.79 2869.7 1375.77 2869.7 1375.77 2864.78 1443.2 2861.27 1509.21 2842.09 1546.47 2834.74 1561.22 2821.27 1582 2821.27 1582 2874.76 1582 2928.24 1582 2981.73 1582Z" fill="#006338" fill-rule="evenodd"/><rect x="1275" y="458" width="182" height="1559" fill="#A60A3D"/><rect x="2252.5" y="458.5" width="182" height="1559" stroke="#002D65" stroke-width="1.14583" stroke-miterlimit="8" fill="#002D65"/><rect x="1031" y="458" width="182" height="1559" fill="#006338"/><rect x="2008" y="458" width="182" height="1559" fill="#A60A3D"/><rect x="1519.5" y="458.5" width="182" height="1559" stroke="#002D65" stroke-width="1.14583" stroke-miterlimit="8" fill="#002D65"/><rect x="1763" y="458" width="182" height="1559" fill="#006338"/></g></svg>