<svg width="2340" height="1561" xmlns="http://www.w3.org/2000/svg" xmlns:xlink="http://www.w3.org/1999/xlink" xml:space="preserve" overflow="hidden"><defs><clipPath id="clip0"><rect x="1030" y="458" width="2340" height="1561"/></clipPath></defs><g clip-path="url(#clip0)" transform="translate(-1030 -458)"><path d="M1031 458 3369 458 3369 2017 1031 2017Z" fill-rule="evenodd"/><path d="M1031 2017 1031 587.917 1225.83 717.833 1225.83 2017 1420.67 2017 1420.67 458 1615.5 458 1615.5 2017 1810.33 2017 1810.33 458 2005.17 458 2005.17 2017 2200 2017 2200 458 2394.83 458 2394.83 2017 2589.67 2017 2589.67 458 2784.5 458 2784.5 2017 2979.33 2017 2979.33 458 3174.17 458 3174.17 2017 3369 2017 3369 1887.08 1225.83 458 1225.83 717.833 3174.17 2017Z" fill="#EAAA00" fill-rule="evenodd"/><path d="M2200.5 458.5 2785 458.5 2785 1238.5 3369.5 1238.5 3369.5 848.5 2200.5 848.5Z" stroke="#000000" stroke-width="1.14583" stroke-miterlimit="8" fill="#FFFFFF" fill-rule="evenodd"/><path d="M2784.5 458 3369 458 3369 848 2200 848 2200 1238 2784.5 1238Z" fill="#9D2235" fill-rule="evenodd"/><path d="M2784.95 1182.96C2812.48 1182.96 2834.8 1160.64 2834.8 1133.1L2834.8 1108.17 2883.09 1108.17C2910.62 1108.17 2932.93 1085.85 2932.93 1058.31 2932.93 1030.78 2910.62 1008.45 2883.09 1008.45L2834.8 1008.45 2834.8 897.825 3144.79 897.825 3144.79 946.127C3144.79 973.664 3167.1 995.988 3194.64 995.988 3222.17 995.988 3244.48 973.664 3244.48 946.127L3244.48 897.825 3288.1 897.825C3315.63 897.825 3337.95 875.502 3337.95 847.964L2784.95 847.964Z" fill="#9D2235" fill-rule="evenodd"/><path d="M-0.0559925 334.964C27.5241 334.964 49.8821 312.641 49.8821 285.104L49.8821 260.174 98.2596 260.174C125.84 260.174 148.198 237.85 148.198 210.313 148.198 182.776 125.84 160.453 98.2596 160.453L49.8821 160.453 49.8821 49.8248 360.434 49.8248 360.434 98.1271C360.434 125.664 382.792 147.988 410.373 147.988 437.953 147.988 460.311 125.664 460.311 98.1271L460.311 49.8248 504.006 49.8248C531.586 49.8248 553.945 27.5015 553.945-0.0357074L-0.0559925-0.0357074Z" fill="#FFFFFF" fill-rule="evenodd" transform="matrix(-1 1.22465e-16 1.22465e-16 1 2785 848)"/><path d="M-0.0526461 334.963C27.4777 334.963 49.7953 312.64 49.7953 285.102L49.7953 260.172 98.0855 260.172C125.616 260.172 147.933 237.849 147.933 210.312 147.933 182.774 125.616 160.451 98.0855 160.451L49.7953 160.451 49.7953 49.823 359.787 49.823 359.787 98.1254C359.787 125.663 382.105 147.986 409.635 147.986 437.165 147.986 459.483 125.663 459.483 98.1254L459.483 49.823 503.1 49.823C530.63 49.823 552.948 27.4998 552.948-0.0375108L-0.0526461-0.0375108Z" fill="#FFFFFF" fill-rule="evenodd" transform="matrix(1 0 0 -1 2785 848)"/><path d="M2785.06 513.037C2757.48 513.037 2735.12 535.36 2735.12 562.898L2735.12 587.828 2686.74 587.828C2659.16 587.828 2636.8 610.151 2636.8 637.688 2636.8 665.226 2659.16 687.549 2686.74 687.549L2735.12 687.549 2735.12 798.177 2424.57 798.177 2424.57 749.875C2424.57 722.337 2402.21 700.014 2374.63 700.014 2347.05 700.014 2324.69 722.337 2324.69 749.875L2324.69 798.177 2280.99 798.177C2253.41 798.177 2231.06 820.5 2231.06 848.038L2785.06 848.038Z" fill="#9D2235" fill-rule="evenodd"/><path d="M1031.49 1238.5 1615.99 1238.5 1615.99 2017.5 2200.49 2017.5 2200.49 1628 1031.49 1628Z" stroke="#000000" stroke-width="1.14583" stroke-miterlimit="8" fill="#FFFFFF" fill-rule="evenodd"/><path d="M1615.49 1238 2199.99 1238 2199.99 1627.5 1030.99 1627.5 1030.99 2017 1615.49 2017Z" fill="#9D2235" fill-rule="evenodd"/><path d="M1614.94 1961.97C1642.52 1961.97 1664.88 1939.65 1664.88 1912.11L1664.88 1887.18 1713.26 1887.18C1740.84 1887.18 1763.19 1864.86 1763.19 1837.32 1763.19 1809.78 1740.84 1787.46 1713.26 1787.46L1664.88 1787.46 1664.88 1676.83 1975.43 1676.83 1975.43 1725.13C1975.43 1752.67 1997.79 1774.99 2025.37 1774.99 2052.95 1774.99 2075.31 1752.67 2075.31 1725.13L2075.31 1676.83 2119 1676.83C2146.58 1676.83 2168.94 1654.51 2168.94 1626.97L1614.94 1626.97Z" fill="#9D2235" fill-rule="evenodd"/><path d="M-0.062382 334.969C27.4679 334.969 49.7855 312.646 49.7855 285.109L49.7855 260.178 98.0757 260.178C125.606 260.178 147.924 237.855 147.924 210.318 147.924 182.781 125.606 160.457 98.0757 160.457L49.7855 160.457 49.7855 49.8292 359.777 49.8292 359.777 98.1316C359.777 125.669 382.095 147.992 409.625 147.992 437.156 147.992 459.473 125.669 459.473 98.1316L459.473 49.8292 503.09 49.8292C530.62 49.8292 552.938 27.5059 552.938-0.0313792L-0.062382-0.0313792Z" fill="#FFFFFF" fill-rule="evenodd" transform="matrix(-1 1.22465e-16 1.22465e-16 1 1615 1627)"/><path d="M-0.0592437 334.967C27.5208 334.967 49.8788 312.644 49.8788 285.107L49.8788 260.176 98.2563 260.176C125.836 260.176 148.194 237.853 148.194 210.316 148.194 182.779 125.836 160.455 98.2563 160.455L49.8788 160.455 49.8788 49.8273 360.431 49.8273 360.431 98.1297C360.431 125.667 382.789 147.99 410.369 147.99 437.949 147.99 460.307 125.667 460.307 98.1297L460.307 49.8273 504.003 49.8273C531.583 49.8273 553.941 27.5041 553.941-0.0331826L-0.0592437-0.0331826Z" fill="#FFFFFF" fill-rule="evenodd" transform="matrix(1 0 0 -1 1615 1627)"/><path d="M1615.06 1292.03C1587.53 1292.03 1565.21 1314.36 1565.21 1341.89L1565.21 1366.82 1516.92 1366.82C1489.39 1366.82 1467.08 1389.15 1467.08 1416.68 1467.08 1444.22 1489.39 1466.54 1516.92 1466.54L1565.21 1466.54 1565.21 1577.17 1255.22 1577.17 1255.22 1528.87C1255.22 1501.33 1232.9 1479.01 1205.37 1479.01 1177.84 1479.01 1155.53 1501.33 1155.53 1528.87L1155.53 1577.17 1111.91 1577.17C1084.38 1577.17 1062.06 1599.5 1062.06 1627.03L1615.06 1627.03Z" fill="#9D2235" fill-rule="evenodd"/></g></svg>