<svg width="2339" height="1560" xmlns="http://www.w3.org/2000/svg" xmlns:xlink="http://www.w3.org/1999/xlink" xml:space="preserve" overflow="hidden"><defs><clipPath id="clip0"><rect x="1031" y="458" width="2339" height="1560"/></clipPath></defs><g clip-path="url(#clip0)" transform="translate(-1031 -458)"><rect x="1031.5" y="458.5" width="2338" height="1559" stroke="#000000" stroke-width="1.14583" stroke-miterlimit="8" fill="#F2F2F2"/><rect x="1810" y="458" width="1559" height="312" fill="#00205B"/><rect x="1810" y="1705" width="1559" height="312" fill="#00205B"/><rect x="1031" y="458" width="779" height="1559" fill="#00824A"/><rect x="1810" y="1082" width="1559" height="311" fill="#00205B"/><path d="M0.000567585 198.622 190.742 187.749 259.5 0 328.258 187.749 518.999 198.622 370.752 325.53 419.88 519.999 259.5 410.683 99.1203 519.999 148.248 325.53Z" fill="#F2F2F2" fill-rule="evenodd" transform="matrix(1 -1.22465e-16 -1.22465e-16 -1 1161 1134)"/><path d="M0.000567585 198.24 193.376 191.199 259.5 0 325.624 191.199 518.999 198.24 366.492 323.448 419.88 518.999 259.5 405.182 99.1203 518.999 152.508 323.448Z" fill="#F2F2F2" fill-rule="evenodd" transform="matrix(-1 0 0 1 1680 1291)"/></g></svg>