<svg width="2338" height="1559" xmlns="http://www.w3.org/2000/svg" xmlns:xlink="http://www.w3.org/1999/xlink" xml:space="preserve" overflow="hidden"><defs><clipPath id="clip0"><rect x="1031" y="458" width="2338" height="1559"/></clipPath></defs><g clip-path="url(#clip0)" transform="translate(-1031 -458)"><rect x="1031" y="458" width="2338" height="1559" fill="#002D5D"/><path d="M0 0 985.352 0 1426 779.5 985.352 1559 0 1559Z" fill="#F2F2F2" fill-rule="evenodd" transform="matrix(-1 0 0 1 3369 458)"/><path d="M2383.74 458 3369 458 3369 978 2090 978Z" fill="#52C9E8" fill-rule="evenodd"/><path d="M1230 1237.5 1389.19 1182.4 1315.52 1030.67 1466.99 1104.46 1522 945 1577.01 1104.46 1728.47 1030.67 1654.81 1182.4 1814 1237.5 1654.81 1292.6 1728.47 1444.33 1577.01 1370.54 1522 1530 1466.99 1370.54 1315.52 1444.33 1389.19 1292.6Z" fill="#F2F2F2" fill-rule="evenodd"/><path d="M2090 1497 3369 1497 3369 2017 2383.74 2017Z" fill="#4C7430" fill-rule="evenodd"/></g></svg>