<svg width="2338" height="1559" xmlns="http://www.w3.org/2000/svg" xmlns:xlink="http://www.w3.org/1999/xlink" xml:space="preserve" overflow="hidden"><defs><clipPath id="clip0"><rect x="1031" y="458" width="2338" height="1559"/></clipPath></defs><g clip-path="url(#clip0)" transform="translate(-1031 -458)"><path d="M1031 458 3369 458 3369 2017 1031 2017Z" fill="#3E69CA" fill-rule="evenodd"/><rect x="0" y="0" width="2338" height="279" fill="#FFC000" transform="matrix(-1 0 0 1 3369 1738)"/><path d="M2199.9 563 2200 563.177 2200.1 563 2200.42 563.584 2200.42 563.934 2216.26 592.146C2249.41 653.65 2247.72 678.081 2220.29 843L2179.71 843C2152.28 678.081 2150.59 653.65 2183.74 592.146L2199.58 563.934 2199.58 563.584 2199.9 563Z" fill="#C26EC5" fill-rule="evenodd"/><path d="M40.9005 0 41 0.176548 41.0993 0 41.4246 0.581899 41.4246 0.930142 57.2648 29.0423C90.4094 90.3264 88.7159 114.67 61.2916 279L20.7082 279C-6.71605 114.67-8.40963 90.3264 24.735 29.0423L40.5752 0.930142 40.5752 0.581899 40.9005 0Z" fill="#C26EC5" fill-rule="evenodd" transform="matrix(1 0 0 -1 2159 1206)"/><path d="M2389.04 1144.76 2388.86 1144.68 2388.88 1144.88 2388.27 1144.6 2388.07 1144.32 2358.67 1130.88C2295.69 1100.76 2282.74 1080.04 2208.25 930.722L2241.18 906.796C2360.18 1023.78 2375.88 1042.5 2385.06 1111.7L2388.76 1143.82 2388.96 1144.1 2389.04 1144.76Z" fill="#C26EC5" fill-rule="evenodd"/><path d="M41.0242 0 41.124 0.176821 41.2236 0 41.5498 0.582799 41.5498 0.931581 57.4379 29.0872C90.6828 90.4662 88.9841 114.847 61.4769 279.431L20.7709 279.431C-6.73636 114.847-8.43506 90.4662 24.8098 29.0872L40.6979 0.931581 40.6979 0.582799 41.0242 0Z" fill="#C26EC5" fill-rule="evenodd" transform="matrix(-0.809017 0.587785 0.587785 0.809017 2044.31 600.488)"/><path d="M2505.78 983.989 2505.58 984.029 2505.71 984.179 2505.06 984.309 2504.73 984.201 2473.04 990.611C2404.39 1003.26 2381.73 994.112 2233.7 917.092L2246.28 878.378C2411.31 903.077 2435.02 908.995 2483.12 959.58L2504.99 983.391 2505.32 983.499 2505.78 983.989Z" fill="#C26EC5" fill-rule="evenodd"/><path d="M41.0242 0 41.124 0.176821 41.2236 0 41.5498 0.582799 41.5498 0.931581 57.4379 29.0872C90.6828 90.4662 88.9841 114.847 61.4769 279.431L20.7709 279.431C-6.73636 114.847-8.43506 90.4662 24.8098 29.0872L40.6979 0.931581 40.6979 0.582799 41.0242 0Z" fill="#C26EC5" fill-rule="evenodd" transform="matrix(-0.309017 0.951057 0.951057 0.309017 1906.96 746.288)"/><path d="M2505.71 785.304 2505.58 785.454 2505.78 785.494 2505.32 785.984 2504.99 786.092 2483.12 809.903C2435.02 860.488 2411.31 866.406 2246.28 891.105L2233.7 852.391C2381.73 775.371 2404.39 766.221 2473.04 778.872L2504.73 785.282 2505.06 785.174 2505.71 785.304Z" fill="#C26EC5" fill-rule="evenodd"/><path d="M41.0242 0 41.124 0.176821 41.2236 0 41.5498 0.582799 41.5498 0.931581 57.4379 29.0872C90.6828 90.4662 88.9841 114.847 61.4769 279.431L20.7709 279.431C-6.73636 114.847-8.43506 90.4662 24.8098 29.0872L40.6979 0.931581 40.6979 0.582799 41.0242 0Z" fill="#C26EC5" fill-rule="evenodd" transform="matrix(0.309017 0.951057 0.951057 -0.309017 1881.55 944.973)"/><path d="M2388.88 624.601 2388.86 624.803 2389.04 624.718 2388.96 625.381 2388.76 625.664 2385.06 657.781C2375.88 726.978 2360.18 745.704 2241.18 862.688L2208.25 838.761C2282.74 689.441 2295.69 668.718 2358.67 638.603L2388.07 625.163 2388.27 624.881 2388.88 624.601Z" fill="#C26EC5" fill-rule="evenodd"/><path d="M41.0242 0 41.124 0.176821 41.2236 0 41.5498 0.582799 41.5498 0.931581 57.4379 29.0872C90.6828 90.4662 88.9841 114.847 61.4769 279.431L20.7709 279.431C-6.73636 114.847-8.43506 90.4662 24.8098 29.0872L40.6979 0.931581 40.6979 0.582799 41.0242 0Z" fill="#C26EC5" fill-rule="evenodd" transform="matrix(0.809017 0.587785 0.587785 -0.809017 1977.77 1120.65)"/><path d="M2295.09 591.771 2295.13 591.962 2295.27 591.83 2295.4 592.458 2295.29 592.776 2301.44 623.136C2313.56 688.909 2304.79 710.623 2231 852.452L2193.9 840.4C2217.57 682.282 2223.24 659.563 2271.7 613.475L2294.52 592.523 2294.62 592.206 2295.09 591.771Z" fill="#FFFFFF" fill-rule="evenodd"/><path d="M39.3062 0 39.4018 0.169416 39.4972 0 39.8098 0.558393 39.8098 0.892569 55.0326 27.8691C86.8852 86.6777 85.2576 110.037 58.9024 267.729L19.901 267.729C-6.45425 110.037-8.08182 86.6777 23.7708 27.8691L38.9935 0.892569 38.9935 0.558393 39.3062 0Z" fill="#FFFFFF" fill-rule="evenodd" transform="matrix(0.951057 0.309017 0.309017 -0.951057 2067.34 1165.51)"/><path d="M2295.27 1177.65 2295.13 1177.52 2295.09 1177.71 2294.62 1177.28 2294.52 1176.96 2271.7 1156.01C2223.24 1109.92 2217.57 1087.2 2193.9 929.082L2231 917.03C2304.79 1058.86 2313.56 1080.57 2301.44 1146.35L2295.29 1176.71 2295.4 1177.02 2295.27 1177.65Z" fill="#FFFFFF" fill-rule="evenodd"/><path d="M39.3062 0 39.4018 0.169416 39.4972 0 39.8098 0.558392 39.8098 0.892568 55.0326 27.8691C86.8852 86.6776 85.2576 110.037 58.9024 267.729L19.901 267.729C-6.45425 110.037-8.08182 86.6776 23.7708 27.8691L38.9935 0.892568 38.9935 0.558392 39.3062 0Z" fill="#FFFFFF" fill-rule="evenodd" transform="matrix(-0.951057 0.309017 0.309017 0.951057 2142.29 579.625)"/><path d="M2449.25 1065.71 2449.05 1065.69 2449.13 1065.87 2448.5 1065.79 2448.23 1065.59 2417.46 1062.05C2351.16 1053.26 2333.21 1038.21 2221.13 924.198L2244.05 892.645C2387.12 964.012 2406.98 976.426 2435.83 1036.76L2448.71 1064.93 2448.98 1065.13 2449.25 1065.71Z" fill="#FFFFFF" fill-rule="evenodd"/><path d="M39.3062 0 39.4018 0.169416 39.4972 0 39.8098 0.558392 39.8098 0.892568 55.0326 27.8691C86.8852 86.6776 85.2576 110.037 58.9024 267.729L19.901 267.729C-6.45425 110.037-8.08182 86.6776 23.7708 27.8691L38.9935 0.892568 38.9935 0.558392 39.3062 0Z" fill="#FFFFFF" fill-rule="evenodd" transform="matrix(-0.587785 0.809017 0.809017 0.587785 1973.97 671.817)"/><path d="M2508 884.404 2507.83 884.5 2508 884.596 2507.44 884.909 2507.11 884.909 2480.1 900.17C2421.23 932.102 2397.85 930.47 2240 904.049L2240 864.951C2397.85 838.53 2421.23 836.898 2480.1 868.83L2507.11 884.091 2507.44 884.091 2508 884.404Z" fill="#FFFFFF" fill-rule="evenodd"/><path d="M39.4043 0 39.5001 0.169587 39.5958 0 39.9092 0.558957 39.9092 0.893471 55.1699 27.8973C87.1021 86.7653 85.4704 110.149 59.0494 268L19.9507 268C-6.47036 110.149-8.10199 86.7653 23.8301 27.8973L39.0909 0.893471 39.0909 0.558957 39.4043 0Z" fill="#FFFFFF" fill-rule="evenodd" transform="matrix(6.12323e-17 1 1 -6.12323e-17 1892 845)"/><path d="M2449.13 703.616 2449.05 703.793 2449.25 703.771 2448.98 704.352 2448.71 704.549 2435.83 732.72C2406.98 793.056 2387.12 805.47 2244.05 876.837L2221.13 845.285C2333.21 731.274 2351.16 716.227 2417.46 707.429L2448.23 703.888 2448.5 703.692 2449.13 703.616Z" fill="#FFFFFF" fill-rule="evenodd"/><path d="M39.3062 0 39.4018 0.169416 39.4972 0 39.8098 0.558392 39.8098 0.892568 55.0326 27.8691C86.8852 86.6776 85.2576 110.037 58.9024 267.729L19.901 267.729C-6.45425 110.037-8.08182 86.6776 23.7708 27.8691L38.9935 0.892568 38.9935 0.558392 39.3062 0Z" fill="#FFFFFF" fill-rule="evenodd" transform="matrix(0.587785 0.809017 0.809017 -0.587785 1927.65 1033.91)"/><path d="M2125 885C2125 843.579 2158.58 810 2200 810 2241.42 810 2275 843.579 2275 885 2275 926.421 2241.42 960 2200 960 2158.58 960 2125 926.421 2125 885Z" fill="#E2A5F7" fill-rule="evenodd"/><path d="M2104 884.5C2104 831.757 2146.98 789 2200 789 2253.02 789 2296 831.757 2296 884.5 2296 937.243 2253.02 980 2200 980 2146.98 980 2104 937.243 2104 884.5ZM2112.98 884.5C2112.98 932.281 2151.94 971.015 2200 971.015 2248.06 971.015 2287.02 932.281 2287.02 884.5 2287.02 836.719 2248.06 797.985 2200 797.985 2151.94 797.985 2112.98 836.719 2112.98 884.5Z" fill="#FFC425" fill-rule="evenodd"/><path d="M2128.01 833.084 2186.18 866.101 2172.12 801.685 2199.86 861.801 2226.88 802.01 2213.6 866.263 2271.38 833.935 2222.14 877.784 2288.61 885.267 2222.22 891.962 2271.99 936.398 2213.82 903.382 2227.88 967.798 2200.14 907.682 2173.12 967.473 2186.4 903.219 2128.62 935.547 2177.86 891.699 2111.39 884.216 2177.78 877.521Z" fill="#F2F2F2" fill-rule="evenodd"/><path d="M2183 885C2183 875.611 2190.61 868 2200 868 2209.39 868 2217 875.611 2217 885 2217 894.389 2209.39 902 2200 902 2190.61 902 2183 894.389 2183 885Z" fill="#B271B0" fill-rule="evenodd"/><path d="M2200 1737 2784.5 958 3369 1737Z" fill="#FFC000" fill-rule="evenodd"/><path d="M1031 1737 1615.5 958 2200 1737Z" fill="#FFC000" fill-rule="evenodd"/></g></svg>