<svg width="2339" height="1560" xmlns="http://www.w3.org/2000/svg" xmlns:xlink="http://www.w3.org/1999/xlink" xml:space="preserve" overflow="hidden"><defs><clipPath id="clip0"><rect x="1031" y="458" width="2339" height="1560"/></clipPath></defs><g clip-path="url(#clip0)" transform="translate(-1031 -458)"><path d="M1031.5 458.5 3369.5 458.5 3369.5 2017.5 1031.5 2017.5Z" stroke="#000000" stroke-width="1.14583" stroke-miterlimit="8" fill="#F2F2F2" fill-rule="evenodd"/><rect x="1810" y="458" width="1559" height="390" fill="#00205B"/><rect x="1810" y="1238" width="1559" height="389" fill="#00205B"/><path d="M1093 1236.5 1263.59 1171.5 1188.92 1004.92 1355.51 1079.59 1420.5 909 1485.49 1079.59 1652.08 1004.92 1577.41 1171.5 1748 1236.5 1577.41 1301.49 1652.08 1468.08 1485.49 1393.41 1420.5 1564 1355.51 1393.41 1188.92 1468.08 1263.59 1301.49Z" fill="#00205B" fill-rule="evenodd"/><rect x="1810" y="848" width="1559" height="390" fill="#BF0D3E"/><rect x="1810" y="1627" width="1559" height="390" fill="#BF0D3E"/></g></svg>