<svg width="2339" height="1565" xmlns="http://www.w3.org/2000/svg" xmlns:xlink="http://www.w3.org/1999/xlink" xml:space="preserve" overflow="hidden"><defs><clipPath id="clip0"><rect x="1031" y="455" width="2339" height="1565"/></clipPath></defs><g clip-path="url(#clip0)" transform="translate(-1031 -455)"><path d="M1031.5 458.5 3369.5 458.5 3369.5 2017.5 1031.5 2017.5Z" stroke="#000000" stroke-width="1.14583" stroke-miterlimit="8" fill="#F2F2F2" fill-rule="evenodd"/><rect x="1031" y="455" width="2338" height="390" fill="#006600"/><rect x="1031" y="1630" width="2338" height="390"/><path d="M2109.86 1080.52C2093.57 1099.24 2089.47 1097.66 2082.3 1101.18L2061.63 1121.84C2120.19 1139.06 2103.86 1173.83 2051.3 1166.61 2044.65 1165.7 2039.11 1165.91 2034.08 1166.61 2033.19 1197.32 2036.25 1195.22 2037.52 1207.93 2050.2 1225.44 2044.44 1234.28 2044.41 1245.81 2055.78 1259.12 2053.11 1269.19 2054.75 1280.25 2068.65 1296.51 2065.72 1308.27 2068.52 1321.57 2082.77 1335.32 2081.22 1345.35 2082.3 1356.01 2098.64 1388.36 2107.31 1395.71 2106.41 1411.1 2121.59 1421.43 2129.31 1434.62 2133.97 1448.98 2150.56 1456.07 2156.01 1464.39 2158.08 1473.09 2175.95 1492.41 2189.09 1490.3 2199.42 1507.52 2209.75 1490.3 2222.89 1492.41 2240.76 1473.09 2242.83 1464.39 2248.28 1456.07 2264.87 1448.98 2269.53 1434.62 2277.25 1421.43 2292.42 1411.1 2291.53 1395.71 2300.2 1388.36 2316.54 1356.01 2317.62 1345.35 2316.07 1335.32 2330.32 1321.57 2333.12 1308.27 2330.19 1296.51 2344.09 1280.25 2345.73 1269.19 2343.06 1259.12 2354.43 1245.81 2354.4 1234.28 2348.64 1225.44 2361.32 1207.93 2362.59 1195.22 2365.65 1197.32 2364.76 1166.61 2359.72 1165.91 2354.19 1165.7 2347.54 1166.61 2294.98 1173.83 2278.65 1139.06 2337.2 1121.84L2316.54 1101.18C2309.37 1097.66 2305.27 1099.24 2288.98 1080.52 2279.4 1093.35 2261.68 1086.64 2244.2 1080.52 2229.36 1083.04 2220.99 1088.92 2199.42 1083.97 2177.85 1088.92 2169.48 1083.04 2154.64 1080.52 2137.16 1086.64 2119.44 1093.35 2109.86 1080.52Z" fill="#FFDC00" fill-rule="evenodd"/><path d="M2096.55 1095C2090.37 1099.85 2086.96 1100.04 2082.34 1102.31L2061.67 1122.94C2120.23 1140.13 2103.89 1174.85 2051.33 1167.64 2044.68 1166.73 2039.14 1166.94 2034.11 1167.64 2034.02 1170.82 2034.01 1173.5 2034 1176.03L2302.28 1383C2306.05 1376.36 2310.82 1368.19 2316.59 1356.78 2317.67 1346.14 2316.12 1336.12 2330.37 1322.39 2333.01 1309.88 2330.65 1298.75 2342 1283.92L2096.55 1095ZM2140.04 1157.54 2140.9 1181.83 2163.83 1190.21 2140.9 1198.59 2140.04 1222.99 2124.97 1203.75 2101.5 1210.41 2115.06 1190.21 2101.5 1170.01 2124.97 1176.67 2140.04 1157.54ZM2212.38 1212.03 2213.24 1236.42 2236.18 1244.8 2213.24 1253.18 2212.38 1277.47 2197.31 1258.34 2173.84 1265 2187.41 1244.8 2173.84 1224.6 2197.31 1231.26 2212.38 1212.03ZM2284.73 1267.05 2285.59 1291.44 2308.52 1299.82 2285.59 1308.21 2284.73 1332.49 2269.66 1313.36 2246.19 1320.03 2259.75 1299.82 2246.19 1279.62 2269.66 1286.28 2284.73 1267.05Z" fill="#006600" fill-rule="evenodd"/><path d="M2233.88 1410.49C2236.14 1407.12 2235.94 1399.74 2231.42 1397.14 2227.97 1395.41 2224.06 1396.08 2222.24 1397.58 2219.3 1399.36 2216.47 1405.05 2216.47 1410.82L2226.61 1410.82 2226.61 1422.17 2205.57 1422.17C2205.84 1428 2209.02 1432.68 2214.93 1435.28 2214.17 1437.74 2210.6 1442.76 2205.71 1442.42 2204.74 1447.73 2203.82 1450.7 2199.42 1455.53 2195.02 1450.71 2194.1 1447.73 2193.13 1442.42 2188.24 1442.76 2184.68 1437.74 2183.92 1435.28 2189.82 1432.68 2193 1428 2193.28 1422.17L2172.23 1422.17 2172.23 1410.82 2182.37 1410.82C2182.37 1405.05 2179.54 1399.36 2176.6 1397.58 2174.78 1396.09 2170.88 1395.41 2167.42 1397.14 2162.9 1399.74 2162.7 1407.12 2164.97 1410.49 2143.61 1406.51 2145.73 1385.84 2153 1378.34 2158.88 1372.28 2165.29 1371.33 2170.23 1373.24 2181.47 1377.28 2189.02 1390.73 2189.39 1410.82L2195.26 1410.82C2195.26 1392.55 2192.09 1386.73 2183.83 1363.8 2179.67 1352.96 2182.17 1339.55 2189.61 1327.22 2192.27 1322.79 2195.6 1318.8 2199.42 1314.52 2203.24 1318.8 2206.57 1322.79 2209.23 1327.22 2216.67 1339.55 2219.17 1352.96 2215.01 1363.8 2206.75 1386.73 2203.58 1392.55 2203.58 1410.82L2209.45 1410.82C2209.82 1390.73 2217.38 1377.28 2228.6 1373.24 2233.55 1371.33 2239.96 1372.28 2245.84 1378.34 2253.11 1385.84 2255.23 1406.51 2233.88 1410.49Z" fill="#006600" fill-rule="evenodd"/><path d="M2110.36 1081.02C2094.07 1099.74 2089.97 1098.16 2082.8 1101.68L2062.13 1122.34C2120.69 1139.56 2104.36 1174.33 2051.8 1167.11 2045.15 1166.2 2039.61 1166.41 2034.58 1167.11 2033.69 1197.81 2036.75 1195.72 2038.02 1208.43 2050.7 1225.94 2044.94 1234.78 2044.91 1246.31 2056.28 1259.62 2053.61 1269.69 2055.25 1280.75 2069.15 1297 2066.22 1308.77 2069.02 1322.07 2083.27 1335.82 2081.72 1345.85 2082.8 1356.51 2099.14 1388.86 2107.81 1396.21 2106.91 1411.6 2122.09 1421.92 2129.81 1435.12 2134.47 1449.48 2151.06 1456.57 2156.51 1464.89 2158.58 1473.59 2176.45 1492.91 2189.59 1490.8 2199.92 1508.02 2210.25 1490.8 2223.39 1492.91 2241.26 1473.59 2243.33 1464.89 2248.78 1456.57 2265.37 1449.48 2270.03 1435.12 2277.75 1421.92 2292.92 1411.6 2292.03 1396.21 2300.7 1388.86 2317.04 1356.51 2318.12 1345.85 2316.57 1335.82 2330.82 1322.07 2333.62 1308.77 2330.68 1297 2344.59 1280.75 2346.23 1269.69 2343.56 1259.62 2354.93 1246.31 2354.9 1234.78 2349.14 1225.94 2361.82 1208.43 2363.09 1195.72 2366.15 1197.81 2365.26 1167.11 2360.22 1166.41 2354.69 1166.2 2348.04 1167.11 2295.48 1174.33 2279.15 1139.56 2337.7 1122.34L2317.04 1101.68C2309.87 1098.16 2305.77 1099.74 2289.48 1081.02 2279.9 1093.85 2262.18 1087.14 2244.7 1081.02 2229.86 1083.54 2221.49 1089.42 2199.92 1084.47 2178.35 1089.42 2169.98 1083.54 2155.14 1081.02 2137.66 1087.14 2119.94 1093.85 2110.36 1081.02Z" stroke="#000000" stroke-width="3.4375" stroke-miterlimit="8" fill="none" fill-rule="evenodd"/><path d="M2186.03 1040.5C2187.95 1046.58 2185.68 1051.5 2180.97 1051.5 2176.26 1051.5 2170.88 1046.58 2168.97 1040.5 2167.05 1034.42 2169.32 1029.5 2174.03 1029.5 2178.74 1029.5 2184.12 1034.42 2186.03 1040.5Z" stroke="#000000" stroke-width="0.795046" stroke-miterlimit="8" fill="#FFDC00" fill-rule="evenodd"/><path d="M2202.03 1040.5C2203.95 1046.58 2201.68 1051.5 2196.97 1051.5 2192.26 1051.5 2186.88 1046.58 2184.97 1040.5 2183.05 1034.42 2185.32 1029.5 2190.03 1029.5 2194.74 1029.5 2200.12 1034.42 2202.03 1040.5Z" stroke="#000000" stroke-width="0.795046" stroke-miterlimit="8" fill="#FFDC00" fill-rule="evenodd"/><path d="M2219.03 1040.5C2220.95 1046.58 2218.68 1051.5 2213.97 1051.5 2209.26 1051.5 2203.88 1046.58 2201.97 1040.5 2200.05 1034.42 2202.32 1029.5 2207.03 1029.5 2211.74 1029.5 2217.12 1034.42 2219.03 1040.5Z" stroke="#000000" stroke-width="0.795046" stroke-miterlimit="8" fill="#000066" fill-rule="evenodd"/><path d="M2235.03 1040.5C2236.95 1046.58 2234.68 1051.5 2229.97 1051.5 2225.26 1051.5 2219.88 1046.58 2217.97 1040.5 2216.05 1034.42 2218.32 1029.5 2223.03 1029.5 2227.74 1029.5 2233.12 1034.42 2235.03 1040.5Z" stroke="#000000" stroke-width="0.795046" stroke-miterlimit="8" fill="#000066" fill-rule="evenodd"/><path d="M2121.03 1040.5C2122.95 1046.58 2120.68 1051.5 2115.97 1051.5 2111.26 1051.5 2105.88 1046.58 2103.97 1040.5 2102.05 1034.42 2104.32 1029.5 2109.03 1029.5 2113.74 1029.5 2119.12 1034.42 2121.03 1040.5Z" stroke="#000000" stroke-width="0.795046" stroke-miterlimit="8" fill="#FFDC00" fill-rule="evenodd"/><path d="M2137.03 1040.5C2138.95 1046.58 2136.68 1051.5 2131.97 1051.5 2127.26 1051.5 2121.88 1046.58 2119.97 1040.5 2118.05 1034.42 2120.32 1029.5 2125.03 1029.5 2129.74 1029.5 2135.12 1034.42 2137.03 1040.5Z" stroke="#000000" stroke-width="0.795046" stroke-miterlimit="8" fill="#FFDC00" fill-rule="evenodd"/><path d="M2154.03 1040.5C2155.95 1046.58 2153.68 1051.5 2148.97 1051.5 2144.26 1051.5 2138.88 1046.58 2136.97 1040.5 2135.05 1034.42 2137.32 1029.5 2142.03 1029.5 2146.74 1029.5 2152.12 1034.42 2154.03 1040.5Z" stroke="#000000" stroke-width="0.795046" stroke-miterlimit="8" fill="#000066" fill-rule="evenodd"/><path d="M2169.18 1040.5C2171.01 1046.58 2168.84 1051.5 2164.32 1051.5 2159.81 1051.5 2154.66 1046.58 2152.82 1040.5 2150.99 1034.42 2153.16 1029.5 2157.68 1029.5 2162.19 1029.5 2167.34 1034.42 2169.18 1040.5Z" stroke="#000000" stroke-width="0.795046" stroke-miterlimit="8" fill="#000066" fill-rule="evenodd"/><path d="M2251.03 1040.5C2252.95 1046.58 2250.68 1051.5 2245.97 1051.5 2241.26 1051.5 2235.88 1046.58 2233.97 1040.5 2232.05 1034.42 2234.32 1029.5 2239.03 1029.5 2243.74 1029.5 2249.12 1034.42 2251.03 1040.5Z" stroke="#000000" stroke-width="0.795046" stroke-miterlimit="8" fill="#FFDC00" fill-rule="evenodd"/><path d="M2266.18 1040.5C2268.01 1046.58 2265.84 1051.5 2261.32 1051.5 2256.81 1051.5 2251.66 1046.58 2249.82 1040.5 2247.99 1034.42 2250.16 1029.5 2254.68 1029.5 2259.19 1029.5 2264.34 1034.42 2266.18 1040.5Z" stroke="#000000" stroke-width="0.795046" stroke-miterlimit="8" fill="#FFDC00" fill-rule="evenodd"/><path d="M2283.18 1040.5C2285.01 1046.58 2282.84 1051.5 2278.32 1051.5 2273.81 1051.5 2268.66 1046.58 2266.82 1040.5 2264.99 1034.42 2267.16 1029.5 2271.68 1029.5 2276.19 1029.5 2281.34 1034.42 2283.18 1040.5Z" stroke="#000000" stroke-width="0.795046" stroke-miterlimit="8" fill="#000066" fill-rule="evenodd"/><path d="M2299.18 1040.5C2301.01 1046.58 2298.84 1051.5 2294.32 1051.5 2289.81 1051.5 2284.66 1046.58 2282.82 1040.5 2280.99 1034.42 2283.16 1029.5 2287.68 1029.5 2292.19 1029.5 2297.34 1034.42 2299.18 1040.5Z" stroke="#000000" stroke-width="0.795046" stroke-miterlimit="8" fill="#000066" fill-rule="evenodd"/><path d="M2190.87 950.592C2165.42 950.592 2138.92 957.89 2109.22 971.444 2104.92 973.407 2100.74 972.486 2098.62 968.316 2095.44 972.486 2099.68 974.571 2101.8 974.571 2101.8 974.571 2108.43 974.831 2111.35 973.529 2134.67 963.103 2167.55 954.762 2190.87 954.762L2201.48 954.762 2212.08 954.762C2235.41 954.762 2268.28 963.103 2291.61 973.529 2294.52 974.831 2301.15 974.571 2301.15 974.571 2303.27 974.571 2307.51 972.486 2304.33 968.316 2302.21 972.486 2298.03 973.407 2293.73 971.444 2264.04 957.89 2237.53 950.592 2212.08 950.592L2201.48 950.592 2190.87 950.592Z" stroke="#000000" stroke-width="1.06319" stroke-miterlimit="8" fill="#FFDC00" fill-rule="evenodd"/><path d="M2188.4 951.786C2188.4 956.346 2196.93 956.112 2201.4 956.112 2205.86 956.112 2214.4 956.346 2214.4 951.786 2214.4 945.296 2205.73 947.459 2201.4 947.459 2196.68 947.459 2188.4 945.296 2188.4 951.786Z" stroke="#000000" stroke-width="1.06319" stroke-miterlimit="8" fill="#FF0000" fill-rule="evenodd"/><path d="M2195.48 897.61C2198.73 896.568 2199.81 894.485 2201.98 896.568 2204.14 894.485 2205.23 896.568 2208.48 897.61L2201.98 872.61 2195.48 897.61Z" stroke="#000000" stroke-width="1.06319" stroke-miterlimit="8" fill="#FF0000" fill-rule="evenodd"/><path d="M2200.48 895.603 2202.48 895.603 2202.48 946.603 2200.48 946.603Z" stroke="#000000" stroke-width="1.06319" stroke-miterlimit="8" fill="#FFFFFF" fill-rule="evenodd"/><path d="M2200.4 957.116 2202.4 957.116 2202.4 973.116 2200.4 973.116Z" stroke="#000000" stroke-width="1.06319" stroke-miterlimit="8" fill="#FFFFFF" fill-rule="evenodd"/><path d="M2195.48 1002.77 2200.48 997.582 2200.48 1025.26 2195.66 1030.58 2195.48 1002.77Z" stroke="#000000" stroke-width="1.06319" stroke-miterlimit="8" fill="#FF0000" fill-rule="evenodd"/><path d="M2196.48 1005.58 2200.48 1002.58" stroke="#000000" stroke-width="1.06319" stroke-miterlimit="8" fill="none" fill-rule="evenodd"/><path d="M2196.4 1009.14 2200.4 1006.14" stroke="#000000" stroke-width="1.06319" stroke-miterlimit="8" fill="none" fill-rule="evenodd"/><path d="M2196.4 1013.14 2200.4 1010.14" stroke="#000000" stroke-width="1.06319" stroke-miterlimit="8" fill="none" fill-rule="evenodd"/><path d="M2196.4 1018.01 2200.4 1014.01" stroke="#000000" stroke-width="1.06319" stroke-miterlimit="8" fill="none" fill-rule="evenodd"/><path d="M2196.4 1022.14 2200.4 1019.14" stroke="#000000" stroke-width="1.06319" stroke-miterlimit="8" fill="none" fill-rule="evenodd"/><path d="M2196.4 1026.13 2200.4 1023.13" stroke="#000000" stroke-width="1.06319" stroke-miterlimit="8" fill="none" fill-rule="evenodd"/><path d="M-0.0227741 5.2715 5.97742 0.0820284 5.97742 27.7596 0.193973 33.082-0.0227741 5.2715Z" stroke="#000000" stroke-width="1.06319" stroke-miterlimit="8" fill="#FF0000" fill-rule="evenodd" transform="matrix(-1 1.22465e-16 1.22465e-16 1 2208.5 997.5)"/><path d="M-0.0206752 3.07825 3.97946 0.077821" stroke="#000000" stroke-width="1.06319" stroke-miterlimit="8" fill="none" fill-rule="evenodd" transform="matrix(-1 1.22465e-16 1.22465e-16 1 2206.5 1002.5)"/><path d="M-0.0981197 2.63826 3.90201-0.362167" stroke="#000000" stroke-width="1.06319" stroke-miterlimit="8" fill="none" fill-rule="evenodd" transform="matrix(-1 1.22465e-16 1.22465e-16 1 2206.5 1006.5)"/><path d="M-0.0981197 2.63695 3.90201-0.363121" stroke="#000000" stroke-width="1.06319" stroke-miterlimit="8" fill="none" fill-rule="evenodd" transform="matrix(-1 1.22465e-16 1.22465e-16 1 2206.5 1010.5)"/><path d="M-0.0981197 3.51502 3.90201-0.485106" stroke="#000000" stroke-width="1.06319" stroke-miterlimit="8" fill="none" fill-rule="evenodd" transform="matrix(-1 1.22465e-16 1.22465e-16 1 2206.5 1014.5)"/><path d="M-0.0981197 2.6356 3.90201-0.364827" stroke="#000000" stroke-width="1.06319" stroke-miterlimit="8" fill="none" fill-rule="evenodd" transform="matrix(-1 1.22465e-16 1.22465e-16 1 2206.5 1019.5)"/><path d="M-0.0981197 2.63461 3.90201-0.365825" stroke="#000000" stroke-width="1.06319" stroke-miterlimit="8" fill="none" fill-rule="evenodd" transform="matrix(-1 1.22465e-16 1.22465e-16 1 2206.5 1023.5)"/><path d="M2200.4 975.109 2202.4 975.109 2202.4 1025.11 2200.4 1025.11Z" stroke="#000000" stroke-width="1.06319" stroke-miterlimit="8" fill="#FFFFFF" fill-rule="evenodd"/><path d="M2222.42 901.545C2225.71 902.219 2227.69 900.909 2228.47 903.813 2231.38 903.035 2231.23 905.408 2233.46 907.923L2240.7 882.637 2222.42 901.545Z" stroke="#000000" stroke-width="1.06319" stroke-miterlimit="8" fill="#FF0000" fill-rule="evenodd"/><path d="M2228.08 902.352 2229.85 903.373 2205.35 945.813 2203.58 944.792Z" stroke="#000000" stroke-width="1.06319" stroke-miterlimit="8" fill="#FFFFFF" fill-rule="evenodd"/><path d="M2196.67 956.605 2198.51 957.668 2191.29 970.164 2189.45 969.101Z" stroke="#000000" stroke-width="1.06319" stroke-miterlimit="8" fill="#FFFFFF" fill-rule="evenodd"/><path d="M2169.69 992.449 2177.06 990.718 2163.24 1014.66 2155.98 1016.6 2169.69 992.449Z" stroke="#000000" stroke-width="1.06319" stroke-miterlimit="8" fill="#FF0000" fill-rule="evenodd"/><path d="M2169.74 995.163 2174.93 994.404" stroke="#000000" stroke-width="1.06319" stroke-miterlimit="8" fill="none" fill-rule="evenodd"/><path d="M2167.78 998.393 2172.98 997.633" stroke="#000000" stroke-width="1.06319" stroke-miterlimit="8" fill="none" fill-rule="evenodd"/><path d="M2165.66 1002.07 2170.85 1001.31" stroke="#000000" stroke-width="1.06319" stroke-miterlimit="8" fill="none" fill-rule="evenodd"/><path d="M2163.53 1005.76 2168.73 1005" stroke="#000000" stroke-width="1.06319" stroke-miterlimit="8" fill="none" fill-rule="evenodd"/><path d="M2161.4 1009.44 2166.6 1008.68" stroke="#000000" stroke-width="1.06319" stroke-miterlimit="8" fill="none" fill-rule="evenodd"/><path d="M2159.28 1013.12 2164.47 1012.36" stroke="#000000" stroke-width="1.06319" stroke-miterlimit="8" fill="none" fill-rule="evenodd"/><path d="M-0.0245407 5.26398 5.49062 0.0812008 5.49062 27.723 0.175033 33.0386-0.0245407 5.26398Z" stroke="#000000" stroke-width="1.06319" stroke-miterlimit="8" fill="#FF0000" fill-rule="evenodd" transform="matrix(-0.866025 -0.5 -0.5 0.866025 2183.74 994.481)"/><path d="M-0.0241798 3.3397 4.09541 0.083727" stroke="#000000" stroke-width="1.06319" stroke-miterlimit="8" fill="none" fill-rule="evenodd" transform="matrix(-0.866025 -0.5 -0.5 0.866025 2180.41 997.466)"/><path d="M-0.104298 2.86224 4.01565-0.393734" stroke="#000000" stroke-width="1.06319" stroke-miterlimit="8" fill="none" fill-rule="evenodd" transform="matrix(-0.866025 -0.5 -0.5 0.866025 2178.28 1001.15)"/><path d="M-0.104298 2.86115 4.01529-0.394816" stroke="#000000" stroke-width="1.06319" stroke-miterlimit="8" fill="none" fill-rule="evenodd" transform="matrix(-0.866025 -0.5 -0.5 0.866025 2176.15 1004.83)"/><path d="M-0.104659 2.86007 4.01493-0.395899" stroke="#000000" stroke-width="1.06319" stroke-miterlimit="8" fill="none" fill-rule="evenodd" transform="matrix(-0.866025 -0.5 -0.5 0.866025 2174.03 1008.52)"/><path d="M-0.104659 2.85899 4.01493-0.396621" stroke="#000000" stroke-width="1.06319" stroke-miterlimit="8" fill="none" fill-rule="evenodd" transform="matrix(-0.866025 -0.5 -0.5 0.866025 2171.9 1012.2)"/><path d="M-0.10502 2.85791 4.01457-0.397703" stroke="#000000" stroke-width="1.06319" stroke-miterlimit="8" fill="none" fill-rule="evenodd" transform="matrix(-0.866025 -0.5 -0.5 0.866025 2169.78 1015.88)"/><path d="M2188.39 970.934 2190.23 971.997 2165.25 1015.27 2163.41 1014.21Z" stroke="#000000" stroke-width="1.06319" stroke-miterlimit="8" fill="#FFFFFF" fill-rule="evenodd"/><path d="M-0.0263451 25.6284C3.16322 24.5656 4.22641 22.4392 6.35243 24.5656 8.47881 22.4392 9.542 24.5656 12.7316 25.6284L6.35243 0.112959-0.0263451 25.6284Z" stroke="#000000" stroke-width="1.06319" stroke-miterlimit="8" fill="#FF0000" fill-rule="evenodd" transform="matrix(-0.866025 0.5 0.5 0.866025 2167.09 879.359)"/><path d="M-0.0245407 0.104298 2.01739 0.104298 2.01739 49.1095-0.0245407 49.1095Z" stroke="#000000" stroke-width="1.06319" stroke-miterlimit="8" fill="#FFFFFF" fill-rule="evenodd" transform="matrix(-0.866025 0.5 0.5 0.866025 2174.18 902.273)"/><path d="M-0.101772-0.383268 2.02461-0.383268 2.02461 14.0456-0.101772 14.0456Z" stroke="#000000" stroke-width="1.06319" stroke-miterlimit="8" fill="#FFFFFF" fill-rule="evenodd" transform="matrix(-0.866025 0.5 0.5 0.866025 2205.77 956.989)"/><path d="M-0.0176837 5.26362 5.49711 0.0808399 5.49711 27.7227 0.181529 33.0383-0.0176837 5.26362Z" stroke="#000000" stroke-width="1.06319" stroke-miterlimit="8" fill="#FF0000" fill-rule="evenodd" transform="matrix(-0.866025 0.5 0.5 0.866025 2229.99 987.903)"/><path d="M-0.0187664 3.33934 4.10082 0.0833661" stroke="#000000" stroke-width="1.06319" stroke-miterlimit="8" fill="none" fill-rule="evenodd" transform="matrix(-0.866025 0.5 0.5 0.866025 2230.91 992.284)"/><path d="M-0.0981627 2.86188 4.02142-0.394094" stroke="#000000" stroke-width="1.06319" stroke-miterlimit="8" fill="none" fill-rule="evenodd" transform="matrix(-0.866025 0.5 0.5 0.866025 2233.03 995.967)"/><path d="M-0.0981627 2.86079 4.02178-0.395177" stroke="#000000" stroke-width="1.06319" stroke-miterlimit="8" fill="none" fill-rule="evenodd" transform="matrix(-0.866025 0.5 0.5 0.866025 2235.16 999.65)"/><path d="M-0.0978018 2.85971 4.02178-0.395899" stroke="#000000" stroke-width="1.06319" stroke-miterlimit="8" fill="none" fill-rule="evenodd" transform="matrix(-0.866025 0.5 0.5 0.866025 2237.29 1003.33)"/><path d="M-0.0974409 2.85863 4.02215-0.396982" stroke="#000000" stroke-width="1.06319" stroke-miterlimit="8" fill="none" fill-rule="evenodd" transform="matrix(-0.866025 0.5 0.5 0.866025 2239.41 1007.02)"/><path d="M-0.0974409 2.85755 4.02251-0.398064" stroke="#000000" stroke-width="1.06319" stroke-miterlimit="8" fill="none" fill-rule="evenodd" transform="matrix(-0.866025 0.5 0.5 0.866025 2241.54 1010.7)"/><path d="M2221.21 999.049 2223.4 991.804 2237.22 1015.74 2235.27 1023 2221.21 999.049Z" stroke="#000000" stroke-width="1.06319" stroke-miterlimit="8" fill="#FF0000" fill-rule="evenodd"/><path d="M2223.58 1000.37 2225.52 995.489" stroke="#000000" stroke-width="1.06319" stroke-miterlimit="8" fill="none" fill-rule="evenodd"/><path d="M2225.4 1003.68 2227.34 998.798" stroke="#000000" stroke-width="1.06319" stroke-miterlimit="8" fill="none" fill-rule="evenodd"/><path d="M2227.53 1007.36 2229.47 1002.48" stroke="#000000" stroke-width="1.06319" stroke-miterlimit="8" fill="none" fill-rule="evenodd"/><path d="M2229.65 1011.04 2231.59 1006.16" stroke="#000000" stroke-width="1.06319" stroke-miterlimit="8" fill="none" fill-rule="evenodd"/><path d="M2231.78 1014.72 2233.72 1009.84" stroke="#000000" stroke-width="1.06319" stroke-miterlimit="8" fill="none" fill-rule="evenodd"/><path d="M2233.91 1018.4 2235.85 1013.53" stroke="#000000" stroke-width="1.06319" stroke-miterlimit="8" fill="none" fill-rule="evenodd"/><path d="M-0.0999672-0.391929 2.02641-0.391929 2.02641 49.5758-0.0999672 49.5758Z" stroke="#000000" stroke-width="1.06319" stroke-miterlimit="8" fill="#FFFFFF" fill-rule="evenodd" transform="matrix(-0.866025 0.5 0.5 0.866025 2214.05 971.326)"/><path d="M2148.36 1549.02 2117.42 1576.75C2134 1597.08 2172.42 1601.02 2199.92 1601.02 2227.42 1601.02 2265.84 1597.08 2282.42 1576.75L2251.48 1549.02C2237.73 1555.95 2223.98 1559.42 2199.92 1559.42 2175.86 1559.42 2162.11 1555.95 2148.36 1549.02Z" stroke="#000000" stroke-width="3.4375" stroke-miterlimit="8" fill="#FFDC00" fill-rule="evenodd"/><path d="M2017.79 1411.03 2038.42 1393.93C2034.98 1366.57 2010.92 1352.9 2004.04 1349.48 1998.6 1346.77 1989.8 1348.5 1986.86 1349.48L1986.86 1356.31 1983.42 1373.41C2000.27 1385.95 2007.73 1398.49 2017.79 1411.03Z" stroke="#000000" stroke-width="3.4375" stroke-miterlimit="8" fill="#FFDC00" fill-rule="evenodd"/><path d="M2010.67 1418.04C2010.67 1418.04 2017.78 1408.54 2024.33 1404.7 2041.41 1394.7 2017.5 1394.7 2014.08 1398.03 2008.93 1403.06 2000.42 1408.03 2000.42 1408.03L2010.67 1418.04Z" stroke="#000000" stroke-width="3.4375" stroke-miterlimit="8" fill="#FFDC00" fill-rule="evenodd"/><path d="M2158.42 1538.62C2158.42 1552.62 2134.38 1573.02 2134.38 1573.02 2038.23 1517.98 2008.81 1486.85 1976.42 1428.54L2007.33 1401.02C2072.57 1500.78 2158.42 1531.74 2158.42 1538.62Z" stroke="#000000" stroke-width="3.4375" stroke-miterlimit="8" fill="#FFDC00" fill-rule="evenodd"/><path d="M1986.42 1370.59C1993.53 1377.77 2000.17 1371.54 2004.2 1370.59 2006.53 1370.03 2007.72 1362.65 2004.2 1359.81 2000.25 1356.62 1989.97 1363.4 1986.42 1370.59Z" stroke="#000000" stroke-width="3.4375" stroke-miterlimit="8" fill="#FFDC00" fill-rule="evenodd"/><path d="M1986.88 1356.02C1991.76 1361.35 1994.22 1368.41 2004.42 1369.97 2004.42 1369.97 1983.8 1400.34 1976.36 1397.87 1965.84 1394.38 1986.88 1356.02 1986.88 1356.02Z" stroke="#000000" stroke-width="3.4375" stroke-miterlimit="8" fill="#FFDC00" fill-rule="evenodd"/><path d="M2382.04 1411.03 2361.42 1393.93C2364.86 1366.57 2388.92 1352.9 2395.79 1349.48 2401.24 1346.77 2410.04 1348.5 2412.98 1349.48L2412.98 1356.31 2416.42 1373.41C2399.57 1385.95 2392.11 1398.49 2382.04 1411.03Z" stroke="#000000" stroke-width="3.4375" stroke-miterlimit="8" fill="#FFDC00" fill-rule="evenodd"/><path d="M2389.17 1418.04C2389.17 1418.04 2382.06 1408.54 2375.51 1404.7 2358.43 1394.7 2382.34 1394.7 2385.76 1398.03 2390.91 1403.06 2399.42 1408.03 2399.42 1408.03L2389.17 1418.04Z" stroke="#000000" stroke-width="3.4375" stroke-miterlimit="8" fill="#FFDC00" fill-rule="evenodd"/><path d="M2241.42 1538.62C2241.42 1552.62 2265.46 1573.02 2265.46 1573.02 2361.61 1517.98 2391.03 1486.85 2423.42 1428.54L2392.51 1401.02C2327.27 1500.78 2241.42 1531.74 2241.42 1538.62Z" stroke="#000000" stroke-width="3.4375" stroke-miterlimit="8" fill="#FFDC00" fill-rule="evenodd"/><path d="M2413.42 1370.59C2406.3 1377.77 2399.67 1371.54 2395.63 1370.59 2393.3 1370.03 2392.11 1362.65 2395.63 1359.81 2399.59 1356.62 2409.86 1363.4 2413.42 1370.59Z" stroke="#000000" stroke-width="3.4375" stroke-miterlimit="8" fill="#FFDC00" fill-rule="evenodd"/><path d="M2412.95 1356.02C2408.08 1361.35 2405.62 1368.41 2395.42 1369.97 2395.42 1369.97 2416.03 1400.34 2423.47 1397.87 2433.99 1394.38 2412.95 1356.02 2412.95 1356.02Z" stroke="#000000" stroke-width="3.4375" stroke-miterlimit="8" fill="#FFDC00" fill-rule="evenodd"/><path d="M2000.91 1436.99 2002.37 1438.96C2001.6 1439.58 2001.06 1440.24 2000.75 1440.93 2000.44 1441.63 2000.35 1442.46 2000.49 1443.42 2000.63 1444.39 2000.99 1445.35 2001.57 1446.3 2002.09 1447.15 2002.67 1447.82 2003.32 1448.31 2003.96 1448.8 2004.6 1449.07 2005.22 1449.12 2005.85 1449.16 2006.42 1449.02 2006.93 1448.7 2007.45 1448.38 2007.81 1447.94 2008.01 1447.39 2008.21 1446.85 2008.23 1446.14 2008.07 1445.27 2007.96 1444.72 2007.63 1443.55 2007.05 1441.79 2006.47 1440.02 2006.16 1438.72 2006.11 1437.9 2006.03 1436.84 2006.18 1435.93 2006.55 1435.15 2006.93 1434.37 2007.5 1433.75 2008.26 1433.27 2009.09 1432.75 2010.02 1432.5 2011.04 1432.52 2012.06 1432.56 2013.04 1432.91 2013.98 1433.59 2014.92 1434.28 2015.74 1435.18 2016.43 1436.31 2017.18 1437.55 2017.66 1438.77 2017.84 1439.97 2018.03 1441.17 2017.89 1442.26 2017.43 1443.25 2016.98 1444.24 2016.28 1445.06 2015.33 1445.71L2013.87 1443.68C2014.85 1442.91 2015.4 1442.03 2015.53 1441.04 2015.66 1440.04 2015.34 1438.9 2014.55 1437.61 2013.73 1436.27 2012.89 1435.45 2012.03 1435.14 2011.17 1434.83 2010.4 1434.89 2009.71 1435.32 2009.11 1435.69 2008.76 1436.21 2008.64 1436.89 2008.52 1437.55 2008.8 1438.91 2009.5 1440.97 2010.2 1443.02 2010.61 1444.48 2010.71 1445.34 2010.87 1446.59 2010.74 1447.67 2010.35 1448.56 2009.95 1449.45 2009.31 1450.17 2008.42 1450.73 2007.54 1451.28 2006.55 1451.54 2005.46 1451.52 2004.37 1451.49 2003.31 1451.14 2002.29 1450.46 2001.28 1449.77 2000.4 1448.83 1999.67 1447.64 1998.74 1446.12 1998.19 1444.71 1998 1443.41 1997.81 1442.12 1997.97 1440.9 1998.49 1439.77 1999.01 1438.64 1999.82 1437.71 2000.91 1436.99Z" fill="#006600" fill-rule="evenodd"/><path d="M2010.92 1463.45 2024.68 1453.09 2020.83 1447.91 2022.68 1446.52 2031.92 1458.98 2030.08 1460.36 2026.22 1455.16 2012.46 1465.52Z" fill="#006600" fill-rule="evenodd"/><path d="M2018.92 1474.75 2033.45 1461.52 2039.33 1467.95C2040.51 1469.24 2041.28 1470.34 2041.63 1471.25 2041.98 1472.16 2042.01 1473.12 2041.72 1474.12 2041.43 1475.13 2040.88 1475.99 2040.08 1476.72 2039.05 1477.66 2037.88 1478.12 2036.56 1478.1 2035.25 1478.06 2033.86 1477.45 2032.39 1476.24 2032.61 1476.97 2032.72 1477.57 2032.73 1478.05 2032.72 1479.08 2032.57 1480.2 2032.25 1481.4L2030.6 1487.52 2028.4 1485.11 2029.66 1480.44C2030.02 1479.09 2030.27 1478.02 2030.4 1477.24 2030.53 1476.45 2030.56 1475.83 2030.48 1475.38 2030.4 1474.92 2030.27 1474.51 2030.07 1474.15 2029.91 1473.89 2029.61 1473.51 2029.16 1473.02L2027.13 1470.8 2020.67 1476.67ZM2028.79 1469.28 2032.56 1473.4C2033.36 1474.28 2034.08 1474.88 2034.71 1475.21 2035.35 1475.54 2035.98 1475.65 2036.62 1475.54 2037.25 1475.44 2037.8 1475.17 2038.27 1474.74 2038.96 1474.12 2039.3 1473.35 2039.29 1472.45 2039.27 1471.55 2038.78 1470.57 2037.79 1469.49L2033.6 1464.9Z" fill="#006600" fill-rule="evenodd"/><path d="M2034.92 1490.89 2048.23 1476.53 2058.92 1485.87 2057.35 1487.57 2048.61 1479.94 2044.54 1484.33 2052.72 1491.48 2051.16 1493.17 2042.98 1486.02 2038.45 1490.91 2047.53 1498.84 2045.95 1500.53Z" fill="#006600" fill-rule="evenodd"/><path d="M2050.92 1505.17 2062.69 1489.52 2064.8 1491.13 2063.71 1509.66 2072.95 1497.37 2074.92 1498.87 2063.15 1514.52 2061.04 1512.91 2062.14 1494.38 2052.89 1506.68Z" fill="#006600" fill-rule="evenodd"/><path d="M2081.02 1517.69 2082.31 1515.76 2089.3 1520.37 2085.23 1526.46C2083.59 1526.6 2082.06 1526.51 2080.63 1526.18 2079.21 1525.86 2077.89 1525.3 2076.69 1524.51 2075.07 1523.44 2073.83 1522.12 2072.97 1520.55 2072.11 1518.99 2071.78 1517.33 2071.97 1515.58 2072.17 1513.82 2072.81 1512.14 2073.88 1510.53 2074.95 1508.93 2076.28 1507.67 2077.88 1506.73 2079.47 1505.79 2081.12 1505.4 2082.83 1505.56 2084.54 1505.72 2086.21 1506.34 2087.86 1507.43 2089.05 1508.22 2090 1509.12 2090.7 1510.14 2091.41 1511.17 2091.81 1512.2 2091.9 1513.25 2091.99 1514.3 2091.8 1515.47 2091.35 1516.76L2089.03 1516C2089.34 1515 2089.47 1514.14 2089.42 1513.42 2089.37 1512.7 2089.1 1511.97 2088.61 1511.23 2088.12 1510.49 2087.46 1509.84 2086.63 1509.29 2085.63 1508.63 2084.67 1508.22 2083.74 1508.04 2082.81 1507.86 2081.96 1507.87 2081.18 1508.07 2080.41 1508.27 2079.7 1508.58 2079.06 1509.01 2077.96 1509.74 2077.02 1510.7 2076.22 1511.89 2075.25 1513.35 2074.68 1514.74 2074.53 1516.06 2074.38 1517.38 2074.63 1518.6 2075.28 1519.72 2075.92 1520.84 2076.79 1521.75 2077.88 1522.47 2078.82 1523.1 2079.87 1523.53 2081.01 1523.76 2082.15 1523.99 2083.09 1524.06 2083.83 1523.96L2085.87 1520.9Z" fill="#006600" fill-rule="evenodd"/><path d="M2093.92 1535.1 2103.03 1520.04 2097.57 1516.53 2098.79 1514.51 2111.92 1522.95 2110.7 1524.97 2105.22 1521.44 2096.11 1536.51Z" fill="#006600" fill-rule="evenodd"/><path d="M2106.92 1542.68 2117.52 1526.54 2119.78 1527.87 2115.43 1534.49 2124.3 1539.7 2128.66 1533.08 2130.92 1534.4 2120.31 1550.54 2118.05 1549.21 2123.05 1541.61 2114.18 1536.4 2109.18 1544Z" fill="#006600" fill-rule="evenodd"/><path d="M2285.7 1547.54 2276.66 1533.09 2271.13 1536.38 2269.92 1534.45 2283.24 1526.53 2284.45 1528.47 2278.89 1531.77 2287.92 1546.21Z" fill="#006600" fill-rule="evenodd"/><path d="M2300.9 1538.52 2289.92 1522.06 2292.12 1520.62 2296.62 1527.38 2305.25 1521.72 2300.75 1514.96 2302.94 1513.52 2313.92 1529.98 2311.72 1531.42 2306.55 1523.66 2297.92 1529.32 2303.09 1537.08Z" fill="#006600" fill-rule="evenodd"/><path d="M2321.81 1524.51 2309.92 1508.17 2321.65 1499.51 2323.05 1501.44 2313.47 1508.51 2317.11 1513.52 2326.09 1506.89 2327.48 1508.81 2318.51 1515.43 2322.56 1521 2332.51 1513.64 2333.92 1515.57Z" fill="#006600" fill-rule="evenodd"/><path d="M2346.24 1497.39 2347.94 1495.57C2348.69 1496.23 2349.44 1496.65 2350.19 1496.84 2350.93 1497.03 2351.77 1496.97 2352.71 1496.65 2353.64 1496.34 2354.53 1495.81 2355.37 1495.06 2356.12 1494.39 2356.68 1493.68 2357.05 1492.95 2357.42 1492.22 2357.57 1491.53 2357.51 1490.89 2357.44 1490.26 2357.2 1489.71 2356.79 1489.26 2356.37 1488.79 2355.87 1488.51 2355.29 1488.41 2354.71 1488.3 2354.01 1488.41 2353.18 1488.73 2352.64 1488.93 2351.55 1489.48 2349.89 1490.37 2348.24 1491.26 2347.02 1491.81 2346.21 1492.01 2345.17 1492.27 2344.23 1492.29 2343.4 1492.05 2342.56 1491.81 2341.83 1491.36 2341.22 1490.68 2340.55 1489.93 2340.14 1489.05 2339.98 1488.02 2339.82 1486.99 2339.99 1485.94 2340.5 1484.88 2341.02 1483.81 2341.77 1482.83 2342.76 1481.94 2343.86 1480.96 2344.98 1480.27 2346.14 1479.87 2347.29 1479.47 2348.4 1479.41 2349.47 1479.69 2350.54 1479.97 2351.48 1480.53 2352.29 1481.37L2350.54 1483.19C2349.6 1482.35 2348.63 1481.95 2347.61 1481.99 2346.6 1482.04 2345.53 1482.57 2344.39 1483.59 2343.21 1484.65 2342.54 1485.64 2342.39 1486.56 2342.24 1487.48 2342.44 1488.24 2342.99 1488.86 2343.47 1489.39 2344.05 1489.65 2344.74 1489.65 2345.43 1489.65 2346.73 1489.12 2348.64 1488.05 2350.55 1486.99 2351.93 1486.32 2352.76 1486.06 2353.98 1485.68 2355.07 1485.62 2356.02 1485.86 2356.98 1486.09 2357.81 1486.61 2358.53 1487.4 2359.23 1488.19 2359.68 1489.13 2359.85 1490.23 2360.03 1491.33 2359.86 1492.45 2359.37 1493.59 2358.87 1494.73 2358.1 1495.78 2357.04 1496.73 2355.7 1497.93 2354.41 1498.74 2353.15 1499.16 2351.9 1499.58 2350.66 1499.63 2349.44 1499.31 2348.22 1498.99 2347.16 1498.35 2346.24 1497.39Z" fill="#006600" fill-rule="evenodd"/><path d="M2360.73 1479.59C2358.35 1477.36 2357.09 1474.98 2356.94 1472.43 2356.78 1469.89 2357.65 1467.6 2359.53 1465.57 2360.76 1464.24 2362.19 1463.34 2363.8 1462.87 2365.42 1462.39 2367.06 1462.41 2368.7 1462.91 2370.35 1463.41 2371.89 1464.33 2373.32 1465.67 2374.77 1467.03 2375.79 1468.55 2376.39 1470.21 2376.99 1471.88 2377.08 1473.53 2376.67 1475.16 2376.25 1476.79 2375.47 1478.23 2374.31 1479.48 2373.05 1480.84 2371.61 1481.74 2369.97 1482.2 2368.33 1482.65 2366.69 1482.63 2365.06 1482.12 2363.43 1481.62 2361.98 1480.77 2360.73 1479.59ZM2362.58 1477.66C2364.3 1479.28 2366.09 1480.09 2367.94 1480.08 2369.8 1480.08 2371.38 1479.38 2372.68 1477.97 2374.01 1476.54 2374.6 1474.89 2374.46 1473.02 2374.32 1471.15 2373.33 1469.36 2371.49 1467.63 2370.32 1466.53 2369.13 1465.78 2367.89 1465.36 2366.66 1464.94 2365.45 1464.89 2364.26 1465.2 2363.08 1465.51 2362.05 1466.15 2361.17 1467.09 2359.92 1468.44 2359.3 1470.04 2359.32 1471.87 2359.34 1473.71 2360.42 1475.64 2362.58 1477.66Z" fill="#006600" fill-rule="evenodd"/><path d="M2386.3 1465.53 2370.92 1453.53 2372.54 1451.53 2387.92 1463.53Z" fill="#006600" fill-rule="evenodd"/><path d="M2393.74 1455.53 2376.92 1444.64 2378.44 1442.53 2393.27 1452.14 2398.93 1444.29 2400.92 1445.57Z" fill="#006600" fill-rule="evenodd"/><path d="M2151.92 1582.96 2156.05 1563.52 2168.92 1566.36 2168.43 1568.65 2158.09 1566.37 2156.81 1572.39 2165.76 1574.37 2165.27 1576.66 2156.32 1574.68 2154.44 1583.52Z" fill="#006600" fill-rule="evenodd"/><path d="M2173.92 1587.16 2175.53 1567.52 2184.58 1568.21C2186.4 1568.35 2187.77 1568.63 2188.69 1569.05 2189.61 1569.48 2190.32 1570.16 2190.81 1571.09 2191.3 1572.03 2191.5 1573.04 2191.42 1574.12 2191.3 1575.51 2190.74 1576.65 2189.72 1577.53 2188.7 1578.42 2187.2 1578.92 2185.22 1579.03 2185.91 1579.41 2186.43 1579.78 2186.77 1580.13 2187.51 1580.88 2188.18 1581.81 2188.8 1582.91L2191.92 1588.52 2188.52 1588.27 2186.15 1583.97C2185.46 1582.74 2184.88 1581.79 2184.42 1581.12 2183.96 1580.46 2183.54 1579.98 2183.16 1579.7 2182.77 1579.42 2182.38 1579.22 2181.97 1579.09 2181.66 1579 2181.17 1578.93 2180.47 1578.88L2177.33 1578.64 2176.62 1587.36ZM2177.52 1576.39 2183.33 1576.83C2184.56 1576.93 2185.54 1576.88 2186.26 1576.69 2186.97 1576.49 2187.53 1576.14 2187.94 1575.63 2188.35 1575.11 2188.58 1574.54 2188.63 1573.91 2188.71 1572.98 2188.42 1572.19 2187.76 1571.54 2187.11 1570.89 2186.03 1570.5 2184.52 1570.39L2178.05 1569.9Z" fill="#006600" fill-rule="evenodd"/><path d="M2198.93 1579.16C2198.8 1575.95 2199.58 1573.41 2201.28 1571.53 2202.97 1569.64 2205.22 1568.65 2208.02 1568.54 2209.85 1568.47 2211.52 1568.83 2213.03 1569.63 2214.53 1570.42 2215.7 1571.57 2216.54 1573.06 2217.37 1574.55 2217.83 1576.27 2217.91 1578.2 2217.99 1580.16 2217.65 1581.92 2216.9 1583.5 2216.15 1585.08 2215.05 1586.29 2213.59 1587.14 2212.14 1588 2210.55 1588.46 2208.82 1588.52 2206.95 1588.6 2205.27 1588.22 2203.76 1587.4 2202.25 1586.58 2201.09 1585.42 2200.27 1583.93 2199.45 1582.44 2199 1580.85 2198.93 1579.16ZM2201.64 1579.09C2201.74 1581.42 2202.46 1583.23 2203.8 1584.52 2205.14 1585.81 2206.78 1586.41 2208.72 1586.34 2210.7 1586.26 2212.3 1585.52 2213.52 1584.12 2214.74 1582.72 2215.3 1580.77 2215.2 1578.29 2215.13 1576.72 2214.81 1575.36 2214.21 1574.2 2213.62 1573.05 2212.78 1572.18 2211.7 1571.57 2210.62 1570.97 2209.43 1570.69 2208.12 1570.74 2206.26 1570.81 2204.69 1571.5 2203.4 1572.79 2202.11 1574.08 2201.52 1576.18 2201.64 1579.09Z" fill="#006600" fill-rule="evenodd"/><path d="M2226.49 1587.52 2222.92 1567.97 2226.77 1567.25 2233.87 1580.24C2234.52 1581.45 2235.01 1582.35 2235.32 1582.96 2235.41 1582.2 2235.56 1581.1 2235.77 1579.63L2237.91 1565.16 2241.35 1564.52 2244.92 1584.07 2242.46 1584.53 2239.47 1568.17 2236.84 1585.58 2234.54 1586.01 2225.91 1570.41 2228.95 1587.06Z" fill="#006600" fill-rule="evenodd"/></g></svg>