<svg width="2339" height="1562" xmlns="http://www.w3.org/2000/svg" xmlns:xlink="http://www.w3.org/1999/xlink" xml:space="preserve" overflow="hidden"><defs><clipPath id="clip0"><rect x="1031" y="458" width="2339" height="1562"/></clipPath></defs><g clip-path="url(#clip0)" transform="translate(-1031 -458)"><path d="M1031.5 458.5 3369.5 458.5 3369.5 2017.5 1031.5 2017.5Z" stroke="#000000" stroke-width="1.14583" stroke-miterlimit="8" fill="#F2F2F2" fill-rule="evenodd"/><rect x="0" y="0" width="389" height="1559" fill="#0047AB" transform="matrix(-1 0 0 1 3369 458)"/><rect x="0" y="0" width="779" height="1559" fill="#F1850F" transform="matrix(-1 0 0 1 2592 461)"/><path d="M1864 1132.68C2031.99 1115.83 2138.25 1052.67 2200 876 2277.54 1073.58 2385.24 1126.28 2536 1132.68 2394.16 1257.68 2362.86 1399.1 2407.66 1548 2282.14 1455.39 2130.78 1444.94 1992.34 1548 2031.4 1388.65 1988.62 1254.69 1864 1132.68Z" fill="#0047AB" fill-rule="evenodd"/><path d="M2176.19 1208.53 2175.71 1207.88 2121.92 1206.96 2108.29 1205.72 1977.02 1163.02 1976.62 1162.69C1951.34 1137.23 1946.89 1096.42 1966.7 1067.24 1989.34 1033.9 2014.43 1044.73 2039.88 1023.51L2043.39 1020.95C2071.42 1003.29 2068.88 976.049 2107.55 964.8 2141.39 954.957 2178.8 971.805 2195.18 1003.74L2196.11 1006.15 2196.11 1139.07 2192.34 1155.75 2176.58 1207.25 2177.05 1207.9 2176.38 1207.89ZM2057.13 1426.26 2045.27 1431C2015.85 1439.87 1982.74 1430.41 1963.84 1406.02 1939.16 1374.16 1957.21 1353.62 1944.91 1322.83L1943.57 1318.71C1935.44 1286.56 1908.78 1280.56 1910.04 1240.27 1911.15 1205.01 1938.71 1174.6 1974.11 1168.88L1976.06 1168.77 2103.88 1210.34 2117.66 1218.56 2161.72 1249.47 2162.48 1249.22 2162.27 1249.85 2162.81 1250.24 2162.05 1250.49 2144.56 1301.42 2139.27 1313.09ZM2420.35 1163 2290.33 1205.29 2275.42 1206.96 2221.63 1207.88 2221.15 1208.53 2220.96 1207.89 2220.29 1207.9 2220.76 1207.25 2205.01 1155.75 2201.87 1140.46 2201.87 1004.5 2202.17 1003.74C2218.54 971.805 2255.95 954.957 2289.79 964.8 2328.47 976.049 2325.92 1003.29 2353.95 1020.95L2357.46 1023.51C2382.91 1044.73 2408 1033.9 2430.64 1067.24 2450.45 1096.42 2446 1137.23 2420.73 1162.69ZM2307.99 1500.68C2301.5 1506.26 2294.01 1510.73 2285.72 1513.71 2247.83 1527.37 2233.89 1503.84 2200.84 1506.04L2196.5 1506.04C2163.45 1503.84 2149.51 1527.37 2111.62 1513.71 2078.46 1501.76 2058.09 1466.13 2063.59 1430.66L2065.04 1425.17 2137.19 1325.76 2155.15 1309.35 2198.14 1276.96 2198.14 1276.15 2198.67 1276.55 2199.21 1276.15 2199.21 1276.96 2242.19 1309.35 2256.94 1322.83 2332.92 1427.51 2333.75 1430.66C2337.87 1457.26 2327.45 1483.96 2307.99 1500.68ZM2422.84 1417.22C2400.25 1436.25 2366.83 1440.43 2339.4 1426.54L2339.27 1426.46 2258.39 1315.03 2252.44 1301.89 2234.95 1250.96 2234.19 1250.71 2234.73 1250.32 2234.52 1249.69 2235.28 1249.94 2279.34 1219.03 2296.19 1209.44 2419.97 1169.18 2422.89 1169.35C2458.29 1175.07 2485.85 1205.48 2486.96 1240.74 2488.22 1281.03 2461.55 1287.03 2453.43 1319.18L2452.09 1323.3C2439.79 1354.09 2457.84 1374.63 2433.16 1406.49 2430.07 1410.47 2426.61 1414.05 2422.84 1417.22Z" fill="#F2F2F2" fill-rule="evenodd"/><path d="M2365.5 1296.4 2216.94 1259.63 2203 1425.5 2189.06 1259.63 2040.5 1296.4 2180.45 1230.65 2102.57 1087.5 2203 1212.73 2303.43 1087.5 2225.55 1230.65Z" stroke="#F1850F" stroke-width="4.58333" stroke-miterlimit="8" fill="#F1850F" fill-rule="evenodd"/><path d="M2283.5 1238C2283.5 1285.22 2246.56 1323.5 2201 1323.5 2155.44 1323.5 2118.5 1285.22 2118.5 1238 2118.5 1190.78 2155.44 1152.5 2201 1152.5 2246.56 1152.5 2283.5 1190.78 2283.5 1238Z" stroke="#F1850F" stroke-width="21.162" stroke-miterlimit="8" fill="#F1850F" fill-rule="evenodd"/><rect x="0" y="0" width="389" height="1559" fill="#0047AB" transform="matrix(-1 0 0 1 1420 458)"/></g></svg>