<svg width="2339" height="1560" xmlns="http://www.w3.org/2000/svg" xmlns:xlink="http://www.w3.org/1999/xlink" xml:space="preserve" overflow="hidden"><defs><clipPath id="clip0"><rect x="1031" y="458" width="2339" height="1560"/></clipPath></defs><g clip-path="url(#clip0)" transform="translate(-1031 -458)"><path d="M1031.5 458.5 3369.5 458.5 3369.5 2017.5 1031.5 2017.5Z" stroke="#000000" stroke-width="1.14583" stroke-miterlimit="8" fill="#F2F2F2" fill-rule="evenodd"/><rect x="0" y="0" width="1559" height="311" fill="#F1850F" transform="matrix(-1 0 0 1 3368 461)"/><rect x="0" y="0" width="779" height="1559" fill="#0047AB" transform="matrix(-1 0 0 1 1810 458)"/><rect x="0" y="0" width="1559" height="312" fill="#F1850F" transform="matrix(-1 0 0 1 3369 1087)"/><rect x="0" y="0" width="1559" height="312" fill="#F1850F" transform="matrix(-1 0 0 1 3369 1705)"/><path d="M1127 616.99 1190.4 610.343 1216 549 1241.6 610.343 1305 616.99 1257.43 661.548 1271 727 1216 693.195 1161 727 1174.57 661.548Z" fill="#F2F2F2" fill-rule="evenodd"/><path d="M1533 616.99 1596.4 610.343 1622 549 1647.6 610.343 1711 616.99 1663.43 661.548 1677 727 1622 693.195 1567 727 1580.57 661.548Z" fill="#F2F2F2" fill-rule="evenodd"/><path d="M1127 1016.99 1190.4 1010.34 1216 949 1241.6 1010.34 1305 1016.99 1257.43 1061.55 1271 1127 1216 1093.2 1161 1127 1174.57 1061.55Z" fill="#F2F2F2" fill-rule="evenodd"/><path d="M1533 1016.99 1596.4 1010.34 1622 949 1647.6 1010.34 1711 1016.99 1663.43 1061.55 1677 1127 1622 1093.2 1567 1127 1580.57 1061.55Z" fill="#F2F2F2" fill-rule="evenodd"/><path d="M1127 1415.99 1190.4 1409.34 1216 1348 1241.6 1409.34 1305 1415.99 1257.43 1460.55 1271 1526 1216 1492.19 1161 1526 1174.57 1460.55Z" fill="#F2F2F2" fill-rule="evenodd"/><path d="M1533 1415.99 1596.4 1409.34 1622 1348 1647.6 1409.34 1711 1415.99 1663.43 1460.55 1677 1526 1622 1492.19 1567 1526 1580.57 1460.55Z" fill="#F2F2F2" fill-rule="evenodd"/><path d="M1127 1815.99 1190.4 1809.34 1216 1748 1241.6 1809.34 1305 1815.99 1257.43 1860.55 1271 1926 1216 1892.2 1161 1926 1174.57 1860.55Z" fill="#F2F2F2" fill-rule="evenodd"/><path d="M1533 1815.99 1596.4 1809.34 1622 1748 1647.6 1809.34 1711 1815.99 1663.43 1860.55 1677 1926 1622 1892.2 1567 1926 1580.57 1860.55Z" fill="#F2F2F2" fill-rule="evenodd"/><path d="M1330 816.99 1393.4 810.344 1419 749 1444.6 810.344 1508 816.99 1460.43 861.549 1474.01 927 1419 893.195 1363.99 927 1377.57 861.549Z" fill="#F2F2F2" fill-rule="evenodd"/><path d="M1330 1216.37 1393.4 1209.69 1419 1148 1444.6 1209.69 1508 1216.37 1460.43 1261.18 1474.01 1327 1419 1293.01 1363.99 1327 1377.57 1261.18Z" fill="#F2F2F2" fill-rule="evenodd"/><path d="M1330 1615.99 1393.4 1609.34 1419 1548 1444.6 1609.34 1508 1615.99 1460.43 1660.55 1474.01 1726 1419 1692.19 1363.99 1726 1377.57 1660.55Z" fill="#F2F2F2" fill-rule="evenodd"/></g></svg>2.89 1169.35C2458.29 1175.07 2485.85 1205.48 2486.96 1240.74 2488.22 1281.03 2461.55 1287.03 2453.43 1319.18L2452.09 1323.3C2439.79 1354.09 2457.84 1374.63 2433.16 1406.49 2430.07 1410.47 2426.61 1414.05 2422.84 1417.22Z" fill="#F2F2F2" fill-rule="evenodd"/><path d="M2365.5 1296.4 2216.94 1259.63 2203 1425.5 2189.06 1259.63 2040.5 1296.4 2180.45 1230.65 2102.57 1087.5 2203 1212.73 2303.43 1087.5 2225.55 1230.65Z" stroke="#F1850F" stroke-width="4.58333" stroke-miterlimit="8" fill="#F1850F" fill-rule="evenodd"/><path d="M2283.5 1238C2283.5 1285.22 2246.56 1323.5 2201 1323.5 2155.44 1323.5 2118.5 1285.22 2118.5 1238 2118.5 1190.78 2155.44 1152.5 2201 1152.5 2246.56 1152.5 2283.5 1190.78 2283.5 1238Z" stroke="#F1850F" stroke-width="21.162" stroke-miterlimit="8" fill="#F1850F" fill-rule="evenodd"/><rect x="0" y="0" width="389" height="1559" fill="#0047AB" transform="matrix(-1 0 0 1 1420 458)"/></g></svg>