<svg width="2340" height="1561" xmlns="http://www.w3.org/2000/svg" xmlns:xlink="http://www.w3.org/1999/xlink" xml:space="preserve" overflow="hidden"><g transform="translate(-1031 -463)"><path d="M1031.51 464.49 3369.51 464.49 3369.51 2023.49 1031.51 2023.49Z" stroke="#000000" stroke-width="1.14583" stroke-linecap="square" stroke-miterlimit="8" fill="#0074A8" fill-rule="evenodd"/><path d="M1827 1084C1827 874.684 1996.46 705 2205.5 705 2414.54 705 2584 874.684 2584 1084 2584 1293.32 2414.54 1463 2205.5 1463 1996.46 1463 1827 1293.32 1827 1084Z" fill="#D1B881" fill-rule="evenodd"/><path d="M1804 1083.5C1804 861.758 1983.76 682 2205.5 682 2427.24 682 2607 861.758 2607 1083.5 2607 1305.24 2427.24 1485 2205.5 1485 1983.76 1485 1804 1305.24 1804 1083.5ZM1829.02 1083.5C1829.02 1291.42 1997.58 1459.98 2205.5 1459.98 2413.42 1459.98 2581.98 1291.42 2581.98 1083.5 2581.98 875.577 2413.42 707.022 2205.5 707.022 1997.58 707.022 1829.02 875.577 1829.02 1083.5Z" fill="#9E3C3C" fill-rule="evenodd"/><path d="M1757.84 1598.83C1750.05 1591.04 1750.05 1578.41 1757.84 1570.62L2056.21 1272.25C2064 1264.46 2076.63 1264.46 2084.42 1272.25L2084.42 1272.25C2092.21 1280.04 2092.21 1292.67 2084.42 1300.46L1786.05 1598.83C1778.26 1606.62 1765.63 1606.62 1757.84 1598.83Z" fill="#6F3E3E" fill-rule="evenodd"/><path d="M2047.52 1270.21C2041.91 1264.6 2041.91 1255.5 2047.52 1249.88L2507.68 789.725C2513.29 784.11 2522.4 784.11 2528.01 789.725L2568.68 830.391C2574.29 836.006 2574.29 845.11 2568.68 850.725L2108.52 1310.88C2102.91 1316.5 2093.8 1316.5 2088.19 1310.88Z" fill="#EFE8C7" fill-rule="evenodd"/><path d="M2312 835.046 2341.05 835.046 2341.05 806 2365.95 806 2365.95 835.046 2395 835.046 2395 860.954 2365.95 860.954 2365.95 890 2341.05 890 2341.05 860.954 2312 860.954Z" fill="#9E3C3C" fill-rule="evenodd"/><path d="M1866 1014.05 1895.05 1014.05 1895.05 985 1919.95 985 1919.95 1014.05 1949 1014.05 1949 1040.95 1919.95 1040.95 1919.95 1070 1895.05 1070 1895.05 1040.95 1866 1040.95Z" fill="#9E3C3C" fill-rule="evenodd"/><path d="M2178 780.046 2207.05 780.046 2207.05 751 2231.95 751 2231.95 780.046 2261 780.046 2261 806.954 2231.95 806.954 2231.95 836 2207.05 836 2207.05 806.954 2178 806.954Z" fill="#9E3C3C" fill-rule="evenodd"/><path d="M1926 1186.05 1955.05 1186.05 1955.05 1157 1979.95 1157 1979.95 1186.05 2009 1186.05 2009 1212.95 1979.95 1212.95 1979.95 1242 1955.05 1242 1955.05 1212.95 1926 1212.95Z" fill="#9E3C3C" fill-rule="evenodd"/><path d="M2082 1363.05 2111.05 1363.05 2111.05 1334 2135.95 1334 2135.95 1363.05 2165 1363.05 2165 1388.95 2135.95 1388.95 2135.95 1418 2111.05 1418 2111.05 1388.95 2082 1388.95Z" fill="#9E3C3C" fill-rule="evenodd"/><path d="M2388 1100.05 2417.05 1100.05 2417.05 1071 2441.95 1071 2441.95 1100.05 2471 1100.05 2471 1125.95 2441.95 1125.95 2441.95 1155 2417.05 1155 2417.05 1125.95 2388 1125.95Z" fill="#9E3C3C" fill-rule="evenodd"/><path d="M1836.7 1412.82C1863.88 1439.91 1894.83 1500.74 1886.64 1508.81 1878.45 1516.87 1817.86 1490.22 1787.55 1461.22 1799.72 1446.22 1821.73 1425.28 1836.7 1412.82Z" fill="#6F3E3E" fill-rule="evenodd"/><path d="M2493.7 1182.7C2500.76 1195.65 2509.66 1197 2511.47 1207.23 2513.28 1217.47 2507.69 1247.26 2504.57 1244.1 2500.95 1223.63 2492.56 1204.3 2493.7 1182.7ZM2485.59 1047.12 2490.14 1052.37 2491.92 1053.96ZM2484.74 967.677 2484.78 967.731 2485.03 967.998ZM2512.71 952.68 2520.58 960.184 2525.5 966.053 2520.25 958.844ZM2474.26 816.952C2480.09 821.503 2492.86 847.475 2496.09 865.533 2499.33 883.592 2486.27 891.21 2490.48 899.509 2494.69 907.808 2502.33 896.77 2518.67 915.661 2535.01 934.552 2538.14 973.082 2531.36 974.104L2526.89 967.969 2530.22 973.7C2533.62 982.054 2532.02 990.072 2529.34 997.985L2525.27 1009.05 2529.51 1015.07C2532.87 1023.43 2531.31 1031.45 2528.69 1039.35L2524.76 1050.29 2525.38 1051.15C2528.43 1058.59 2526.98 1065.73 2524.55 1072.78L2520.64 1083.27 2522.19 1085.42C2526.3 1095.44 2521.32 1104.87 2517.92 1114.32L2517.5 1115.93 2517.7 1116.21C2519.84 1121.43 2518.83 1126.43 2517.13 1131.38L2514.65 1139.19 2517.6 1143.28C2519.58 1148.1 2518.64 1152.73 2517.07 1157.31L2514.39 1165.76 2514.84 1166.38C2516.4 1170.18 2515.66 1173.83 2514.42 1177.43L2512.57 1183.29 2514.19 1185.39C2516.98 1191.83 2511.36 1197.83 2510.51 1203.98 2506.55 1193.72 2500.39 1187.98 2493.99 1182.2 2487.6 1176.42 2490.19 1164.47 2493.75 1165.36 2494.4 1166.53 2495.83 1167.96 2497.65 1169.55L2503.37 1174.27 2502.86 1173.34C2499.73 1169.27 2496.27 1165.85 2492.75 1162.42 2485.7 1155.56 2488.4 1141.53 2492.31 1142.62 2493.03 1144 2494.61 1145.7 2496.61 1147.59L2503.08 1153.36 2502.4 1152.11C2498.43 1146.94 2494.04 1142.61 2489.57 1138.25 2480.63 1129.54 2484.06 1111.75 2489.01 1113.13 2489.93 1114.88 2491.93 1117.03 2494.47 1119.44L2499.81 1124.19 2487.39 1110.77C2477.72 1101.35 2481.43 1082.11 2486.78 1083.6 2487.78 1085.49 2489.94 1087.82 2492.69 1090.42L2501.42 1098.2 2501.12 1097.66C2495.62 1090.5 2489.54 1084.48 2483.34 1078.45 2474.05 1069.4 2474.4 1053.26 2478.05 1046.57L2482.43 1043.71 2482.13 1043.39C2471.79 1033.31 2472.18 1015.35 2476.24 1007.9L2481.26 1004.63 2475.86 996.348C2471.38 985.498 2472.41 972.591 2475.71 966.328L2480.99 962.808 2474.39 951.401C2472.17 943.937 2472.28 935.984 2473.74 930.122L2479.43 923.449 2477.96 921.792C2468.52 904.319 2475.69 891.702 2474.73 869.27 2473.77 846.837 2465.73 855.29 2458.38 838.558Z" fill="#6F3E3E" fill-rule="evenodd"/><path d="M1803.94 1047 1812.32 1047.7 1809.92 1075.98 1823.19 1078.26C1828.71 1080.43 1833.28 1083.72 1835.96 1088.17 1846.68 1105.99 1843.38 1147.52 1837.76 1195.08 1832.15 1242.65 1820.53 1400.96 1804.71 1414 1785.88 1400.09 1776.91 1233.35 1771.05 1190.52 1765.2 1147.69 1762.63 1105.23 1773.45 1088.17 1776.16 1083.91 1780.75 1080.66 1786.28 1078.47L1801.51 1075.69Z" fill="#EFE8C7" fill-rule="evenodd"/><path d="M1789 1357.25 1799.25 1365.68 1790.57 1367ZM1783.61 1315.63 1799.78 1336.7 1785.97 1335.12ZM1827.07 1298.83 1825.09 1317.7 1821.49 1345.59 1813.45 1351.45 1811.87 1312.98ZM1773 1204.89 1796.1 1241.84 1804.51 1292.96 1777.57 1253 1776.49 1241.76C1775.52 1230.83 1774.62 1220.74 1773.79 1212.06ZM1837 1202 1835.34 1217.82C1834.46 1226.72 1833.49 1236.86 1832.43 1247.73L1831.73 1254.44 1818.18 1260.81 1828.17 1210.74Z" fill="#9E3C3C" fill-rule="evenodd"/><path d="M37.4501 0 45.7151 0.704423 43.3516 29.0615 56.4518 31.343C61.8975 33.5168 66.4087 36.8191 69.0536 41.2856 79.6329 59.1525 76.3736 100.79 70.8314 148.486 65.2893 196.182 53.8211 354.923 38.205 368 19.6257 354.053 10.764 186.862 4.98572 143.913-0.792554 100.965-3.32189 58.3906 7.35647 41.2856 10.026 37.0098 14.5555 33.7548 20.0135 31.5573L35.0529 28.7641Z" fill="#EFE8C7" fill-rule="evenodd" transform="matrix(-1 0 0 1 2645 1116)"/><path d="M16.2468 155.248 26.6619 163.682 17.8455 165ZM10.7754 113.629 27.1957 134.696 13.174 133.12ZM54.9156 96.8334 52.9052 115.702 49.2512 143.587 41.0796 149.453 39.4777 110.981ZM0 2.89237 23.4577 39.8351 32.0018 90.955 4.63896 51.0021 3.54839 39.7619C2.56024 28.8249 1.64783 18.7431 0.797818 10.0567ZM65 0 63.3117 15.8166C62.4181 24.7238 61.4335 34.8614 60.361 45.7294L59.646 52.4417 45.8853 58.8074 56.0313 8.74178Z" fill="#9E3C3C" fill-rule="evenodd" transform="matrix(-1 0 0 1 2640 1271)"/><path d="M37.4499 0 45.7149 0.704423 43.3514 29.0615 56.4515 31.343C61.8973 33.5168 66.4083 36.8191 69.0533 41.2856 79.6325 59.1525 76.3732 100.79 70.8311 148.486 65.289 196.182 53.8208 354.923 38.2048 368 19.6256 354.053 10.7639 186.862 4.98569 143.913-0.79255 100.965-3.32188 58.3906 7.35643 41.2856 10.0259 37.0098 14.5554 33.7548 20.0134 31.5573L35.0527 28.7641Z" fill="#EFE8C7" fill-rule="evenodd" transform="matrix(-1 0 0 1 2038 1421)"/><path d="M15.9968 155.248 26.2517 163.682 17.571 165ZM10.6097 113.629 26.7772 134.696 12.9713 133.12ZM54.0707 96.8334 52.0912 115.702 48.4935 143.587 40.4476 149.453 38.8703 110.981ZM0 2.89237 23.0968 39.8351 31.5094 90.955 4.56759 51.0021 3.49379 39.7619C2.52085 28.8249 1.62248 18.7431 0.785543 10.0567ZM63.9999 0 62.3377 15.8166C61.4578 24.7238 60.4884 34.8614 59.4323 45.7294L58.7283 52.4417 45.1794 58.8074 55.1692 8.74178Z" fill="#9E3C3C" fill-rule="evenodd" transform="matrix(-1 0 0 1 2032 1576)"/><path d="M37.9427 0 46.3164 0.70251 43.9219 28.9826 57.1944 31.2578C62.7117 33.4258 67.2822 36.7191 69.9619 41.1735 80.6803 58.9918 77.3782 100.516 71.7631 148.082 66.1481 195.649 54.529 353.959 38.7076 367 19.8838 353.091 10.9056 186.354 5.0513 143.522-0.802979 100.69-3.36559 58.232 7.45323 41.1735 10.1578 36.9093 14.747 33.6632 20.2768 31.4716L35.5139 28.6859Z" fill="#EFE8C7" fill-rule="evenodd" transform="matrix(-1 0 0 1 2214 1485)"/><path d="M2160 1795.25 2170.25 1803.68 2161.57 1805ZM2154.61 1753.63 2170.78 1774.7 2156.97 1773.12ZM2198.07 1736.83 2196.09 1755.7 2192.49 1783.59 2184.45 1789.45 2182.87 1750.98ZM2144 1642.89 2167.1 1679.84 2175.51 1730.95 2148.57 1691 2147.49 1679.76C2146.52 1668.82 2145.62 1658.74 2144.79 1650.06ZM2208 1640 2206.34 1655.82C2205.46 1664.72 2204.49 1674.86 2203.43 1685.73L2202.73 1692.44 2189.18 1698.81 2199.17 1648.74Z" fill="#9E3C3C" fill-rule="evenodd"/><path d="M37.4499 0 45.7149 0.704424 43.3514 29.0616 56.4515 31.343C61.8973 33.5168 66.4083 36.8192 69.0533 41.2857 79.6325 59.1526 76.3732 100.79 70.8311 148.486 65.289 196.182 53.8208 354.923 38.2048 368 19.6256 354.053 10.7639 186.862 4.98569 143.913-0.79255 100.965-3.32188 58.3907 7.35643 41.2857 10.0259 37.0098 14.5554 33.7549 20.0134 31.5573L35.0527 28.7641Z" fill="#EFE8C7" fill-rule="evenodd" transform="matrix(-1 0 0 1 2341 1473)"/><path d="M15.9968 155.248 26.2517 163.682 17.571 165ZM10.6097 113.629 26.7772 134.696 12.9713 133.12ZM54.0707 96.8334 52.0912 115.702 48.4935 143.587 40.4476 149.453 38.8703 110.981ZM0 2.89237 23.0968 39.8351 31.5094 90.955 4.56759 51.0021 3.49379 39.7619C2.52085 28.8249 1.62248 18.7431 0.785543 10.0567ZM63.9999 0 62.3377 15.8166C61.4578 24.7238 60.4884 34.8614 59.4323 45.7294L58.7283 52.4417 45.1794 58.8074 55.1692 8.74178Z" fill="#9E3C3C" fill-rule="evenodd" transform="matrix(-1 0 0 1 2335 1628)"/><path d="M37.4499 0 45.7149 0.702509 43.3514 28.9826 56.4515 31.2578C61.8973 33.4257 66.4083 36.7191 69.0533 41.1735 79.6325 58.9918 76.3732 100.516 70.8311 148.082 65.289 195.649 53.8208 353.958 38.2048 367 19.6256 353.091 10.7639 186.354 4.98569 143.522-0.79255 100.69-3.32188 58.232 7.35643 41.1735 10.0259 36.9092 14.5554 33.6631 20.0134 31.4716L35.0527 28.6859Z" fill="#EFE8C7" fill-rule="evenodd" transform="matrix(-1 0 0 1 2476 1412)"/><path d="M2422 1722.25 2432.25 1730.68 2423.57 1732ZM2416.61 1680.63 2432.78 1701.7 2418.97 1700.12ZM2460.07 1663.83 2458.09 1682.7 2454.49 1710.59 2446.45 1716.45 2444.87 1677.98ZM2406 1569.89 2429.1 1606.84 2437.51 1657.96 2410.57 1618 2409.49 1606.76C2408.52 1595.83 2407.62 1585.74 2406.79 1577.06ZM2470 1567 2468.34 1582.82C2467.46 1591.72 2466.49 1601.86 2465.43 1612.73L2464.73 1619.44 2451.18 1625.81 2461.17 1575.74Z" fill="#9E3C3C" fill-rule="evenodd"/><path d="M1810.57 748.93C1830.37 736.378 1833.18 729.217 1852.79 728.27 1862.6 727.796 1876.4 729.34 1890.29 732.102 1904.17 734.864 1918.13 738.844 1928.24 743.245 1932.67 745.17 1937.38 747.615 1942.03 750.358L1950.74 756.127 1924.78 718.166 1930.13 715.881 1955.95 752.556 1953.58 742.34C1952.64 737.022 1952 731.756 1951.74 726.938 1951.16 715.925 1952.32 701.454 1954.59 687.482 1956.86 673.509 1960.24 660.035 1964.12 651.015 1971.87 632.975 1979.56 632.847 1998.25 618.698 2011.15 643.603 2016.62 647.038 2017.82 667.891 2019.02 688.743 2013.23 724.6 2005.44 743.814 2000.33 756.422 1991 770.643 1982.66 778.135L1976.63 781.945 2016.69 838.859 2013.89 824.376C2013.04 818.484 2012.49 812.638 2012.33 807.278 2011.94 795.026 2013.38 778.858 2015.92 763.206 2018.47 747.553 2022.12 732.415 2026.19 722.224 2034.32 701.842 2042.06 701.422 2061.12 684.983 2073.64 712.273 2079.07 715.905 2079.89 739.1 2080.71 762.295 2074.21 802.463 2066.03 824.154 2060.65 838.389 2051 854.572 2042.47 863.221L2036.76 867.373 2077.67 925.487 2074.91 909.98C2074.1 903.814 2073.6 897.691 2073.48 892.071 2073.19 879.227 2074.76 862.247 2077.43 845.791 2080.11 829.334 2083.9 813.401 2088.05 802.65 2096.37 781.147 2104.13 780.588 2123.37 763.053 2135.7 791.484 2141.12 795.21 2141.75 819.525 2142.39 843.841 2135.56 886.07 2127.18 908.947 2121.68 923.96 2111.87 941.081 2103.25 950.284L2097.98 954.351 2138.58 1012.03 2135.86 995.249C2135.11 988.78 2134.65 982.351 2134.58 976.446 2134.4 962.948 2136.11 945.073 2138.93 927.731 2141.75 910.388 2145.68 893.578 2149.94 882.209 2158.45 859.471 2166.24 858.759 2185.67 840.016 2197.8 869.705 2203.2 873.534 2203.64 899.085 2204.07 924.636 2196.87 969.138 2188.28 993.321 2182.64 1009.19 2172.66 1027.35 2163.94 1037.16L2159.08 1041.15 2199.75 1098.93 2197.18 1082.34C2196.45 1075.72 2196.02 1069.14 2195.96 1063.09 2195.84 1049.27 2197.62 1030.95 2200.51 1013.17 2203.41 995.384 2207.41 978.139 2211.71 966.464 2220.33 943.113 2228.13 942.325 2247.66 922.983 2259.68 953.295 2265.08 957.176 2265.41 983.339 2265.75 1009.5 2258.36 1055.13 2249.66 1079.96 2243.96 1096.26 2233.9 1114.93 2225.13 1125.04L2220.74 1128.75 2261.08 1186.06 2258.71 1170.52C2257.99 1163.84 2257.57 1157.2 2257.53 1151.1 2257.42 1137.15 2259.23 1118.66 2262.15 1100.7 2265.07 1082.75 2269.1 1065.34 2273.43 1053.54 2282.08 1029.95 2289.89 1029.14 2309.46 1009.56 2321.44 1040.12 2326.83 1044.02 2327.13 1070.42 2327.42 1096.82 2319.97 1142.89 2311.23 1167.97 2305.49 1184.43 2295.4 1203.3 2286.61 1213.53L2282.74 1216.84 2323.12 1274.21 2320.82 1259.02C2320.1 1252.34 2319.68 1245.69 2319.63 1239.58 2319.53 1225.62 2321.34 1207.12 2324.27 1189.15 2327.19 1171.18 2331.22 1153.75 2335.55 1141.95 2344.21 1118.34 2352.01 1117.52 2371.58 1097.92 2383.56 1128.5 2388.96 1132.4 2389.25 1158.82 2389.54 1185.25 2382.08 1231.35 2373.33 1256.46 2367.59 1272.94 2357.5 1291.82 2348.71 1302.07L2344.98 1305.26 2384.55 1361.49 2382.49 1347.89C2381.77 1341.21 2381.35 1334.57 2381.31 1328.46 2381.2 1314.5 2383.02 1295.99 2385.94 1278.02 2388.86 1260.06 2392.89 1242.63 2397.22 1230.82 2405.88 1207.21 2413.69 1206.39 2433.26 1186.8 2445.24 1217.37 2450.63 1221.27 2450.92 1247.7 2451.21 1274.12 2443.75 1320.23 2435.01 1345.33 2429.27 1361.81 2419.18 1380.7 2410.39 1390.94L2407.2 1393.66 2447.24 1450.54 2445.05 1436.15C2444.33 1429.47 2443.91 1422.82 2443.87 1416.72 2443.76 1402.76 2445.58 1384.25 2448.5 1366.28 2451.42 1348.32 2455.45 1330.89 2459.78 1319.08 2468.44 1295.47 2476.25 1294.65 2495.82 1275.05 2507.8 1305.63 2513.19 1309.53 2513.48 1335.96 2513.77 1362.38 2506.31 1408.49 2497.57 1433.59 2491.83 1450.07 2481.74 1468.96 2472.95 1479.2L2469.49 1482.15 2508.66 1537.81 2506.72 1525.03C2506 1518.34 2505.58 1511.7 2505.54 1505.59 2505.44 1491.63 2507.25 1473.13 2510.17 1455.16 2513.1 1437.19 2517.13 1419.76 2521.46 1407.95 2530.11 1384.34 2537.92 1383.52 2557.49 1363.93 2569.47 1394.5 2574.86 1398.41 2575.16 1424.83 2575.45 1451.25 2567.98 1497.36 2559.24 1522.47 2553.5 1538.94 2543.41 1557.83 2534.62 1568.07L2531.71 1570.56 2593.12 1657.8 2575.58 1669.97 2515.35 1581.88 2512.22 1583.61C2499.55 1588.26 2478.33 1591.11 2460.88 1590.72 2434.31 1590.12 2388.5 1580.98 2363.85 1571.46 2339.2 1561.94 2337.43 1555.52 2312.98 1533.6 2338.19 1522.12 2341.69 1515.1 2366.83 1515.25 2379.41 1515.33 2397.15 1517.65 2415 1521.2 2432.86 1524.75 2450.83 1529.53 2463.87 1534.51 2469.57 1536.69 2475.65 1539.41 2481.66 1542.42L2492.49 1548.45 2454.33 1492.64 2450.55 1494.74C2437.88 1499.39 2416.65 1502.23 2399.21 1501.84 2372.63 1501.25 2326.83 1492.11 2302.18 1482.59 2277.53 1473.07 2275.76 1466.65 2251.31 1444.73 2276.51 1433.25 2280.02 1426.23 2305.16 1426.38 2317.74 1426.45 2335.47 1428.78 2353.33 1432.33 2371.18 1435.88 2389.15 1440.65 2402.2 1445.64 2407.9 1447.81 2413.98 1450.53 2419.99 1453.54L2432.28 1460.39 2393.25 1403.31 2389.76 1405.25C2377.09 1409.9 2355.87 1412.74 2338.43 1412.35 2311.85 1411.76 2266.04 1402.62 2241.39 1393.1 2216.74 1383.58 2214.97 1377.16 2190.52 1355.24 2215.73 1343.76 2219.23 1336.74 2244.38 1336.89 2256.95 1336.96 2274.69 1339.29 2292.54 1342.84 2310.4 1346.39 2328.37 1351.16 2341.41 1356.14 2347.11 1358.32 2353.19 1361.04 2359.2 1364.05L2370.84 1370.54 2332.24 1314.07 2328.09 1316.38C2315.42 1321.03 2294.2 1323.87 2276.75 1323.48 2250.17 1322.89 2204.37 1313.74 2179.72 1304.22 2155.07 1294.7 2153.3 1288.29 2128.85 1266.36 2154.06 1254.89 2157.56 1247.86 2182.7 1248.01 2195.28 1248.09 2213.02 1250.41 2230.87 1253.96 2248.72 1257.51 2266.7 1262.29 2279.74 1267.27 2285.44 1269.45 2291.52 1272.17 2297.53 1275.18L2310.63 1282.48 2271.21 1224.82 2266.89 1227.22C2254.23 1231.87 2233.02 1234.72 2215.59 1234.33 2189.04 1233.74 2143.27 1224.61 2118.64 1215.09 2094.02 1205.58 2092.25 1199.16 2067.82 1177.24 2093 1165.76 2096.5 1158.74 2121.63 1158.88 2134.19 1158.96 2151.91 1161.28 2169.75 1164.82 2187.59 1168.37 2205.55 1173.15 2218.58 1178.12 2224.28 1180.3 2230.35 1183.02 2236.35 1186.03L2249.82 1193.54 2210.41 1135.9 2205.51 1138.66C2192.97 1143.33 2171.96 1146.22 2154.69 1145.87 2128.39 1145.33 2083.06 1136.28 2058.67 1126.81 2034.27 1117.34 2032.53 1110.93 2008.34 1089.06 2033.29 1077.53 2036.76 1070.5 2061.65 1070.6 2074.09 1070.65 2091.65 1072.94 2109.32 1076.45 2126.99 1079.96 2144.77 1084.7 2157.68 1089.66 2163.32 1091.82 2169.34 1094.53 2175.28 1097.53L2189.7 1105.62 2149.95 1047.48 2144.59 1050.59C2132.35 1055.32 2111.85 1058.31 2095.01 1058.04 2069.35 1057.63 2025.14 1048.8 2001.36 1039.45 1977.57 1030.11 1975.88 1023.7 1952.31 1001.96 1976.67 990.31 1980.06 983.264 2004.34 983.243 2016.48 983.233 2033.6 985.435 2050.84 988.861 2068.07 992.288 2085.41 996.94 2097.99 1001.83 2103.5 1003.97 2109.36 1006.64 2115.16 1009.61L2129.75 1017.94 2090.04 959.858 2084.45 963.333C2072.81 968.188 2053.34 971.381 2037.35 971.279 2012.99 971.124 1971.04 962.746 1948.48 953.642 1925.93 944.538 1924.34 938.155 1902.02 916.656 1925.17 904.772 1928.41 897.696 1951.47 897.432 1962.99 897.3 1979.24 899.328 1995.6 902.58 2011.95 905.832 2028.4 910.308 2040.34 915.069 2045.56 917.153 2051.12 919.766 2056.61 922.677L2070.04 930.612 2030.01 872.059 2024.16 875.928C2013.07 880.892 1994.54 884.27 1979.32 884.322 1956.14 884.401 1916.23 876.428 1894.79 867.545 1873.35 858.663 1871.85 852.299 1850.67 831.024 1872.73 818.924 1875.84 811.821 1897.78 811.336 1908.75 811.093 1924.21 812.965 1939.76 816.058 1955.31 819.152 1970.96 823.467 1982.3 828.112 1987.27 830.144 1992.55 832.703 1997.77 835.559L2010.28 843.204 1971.04 785.823 1965.38 790.125C1955.45 795.317 1938.86 799.082 1925.26 799.455 1904.54 800.022 1868.92 792.9 1849.81 784.48 1830.69 776.059 1829.39 769.733 1810.57 748.93Z" fill="#395839" fill-rule="evenodd"/><path d="M2532.21 799.87 2554.37 777.707 2577.43 800.763 2555.26 822.927Z" fill="#EFE8C7" fill-rule="evenodd"/></g></svg>