<svg width="2339" height="1560" xmlns="http://www.w3.org/2000/svg" xmlns:xlink="http://www.w3.org/1999/xlink" xml:space="preserve" overflow="hidden"><defs><clipPath id="clip0"><rect x="1031" y="458" width="2339" height="1560"/></clipPath></defs><g clip-path="url(#clip0)" transform="translate(-1031 -458)"><path d="M1031.5 458.5 3369.5 458.5 3369.5 2017.5 1031.5 2017.5Z" stroke="#000000" stroke-width="1.14583" stroke-miterlimit="8" fill="#F2F2F2" fill-rule="evenodd"/><rect x="0" y="0" width="2338" height="520" fill="#FFB81D" transform="matrix(-1 0 0 1 3369 1497)"/><rect x="0" y="0" width="2338" height="520" fill="#00407A" transform="matrix(-1 0 0 1 3369 458)"/><path d="M1373.73 1079 1416.67 1079 1577.33 1079 1620.27 1079 1609.77 1120.99 1658 1120.99 1598.2 1373 1395.8 1373 1336 1120.99 1384.23 1120.99Z" fill-rule="evenodd"/><path d="M2076.73 1079 2119.67 1079 2280.33 1079 2323.27 1079 2312.77 1120.99 2361 1120.99 2301.2 1373 2098.8 1373 2039 1120.99 2087.23 1120.99Z" fill-rule="evenodd"/><path d="M2779.73 1079 2822.67 1079 2983.33 1079 3026.27 1079 3015.77 1120.99 3064 1120.99 3004.2 1373 2801.8 1373 2742 1120.99 2790.23 1120.99Z" fill-rule="evenodd"/></g></svg>