<svg width="2341" height="1560" xmlns="http://www.w3.org/2000/svg" xmlns:xlink="http://www.w3.org/1999/xlink" xml:space="preserve" overflow="hidden"><defs><clipPath id="clip0"><rect x="1031" y="458" width="2341" height="1560"/></clipPath></defs><g clip-path="url(#clip0)" transform="translate(-1031 -458)"><rect x="1031.5" y="458.5" width="2338" height="1559" stroke="#000000" stroke-width="1.14583" stroke-miterlimit="8" fill="#FFFFFF"/><rect x="1031" y="458" width="2144" height="1559" fill="#F77F00"/><path d="M1682 1237.5C1682 1005.26 1870.26 817 2102.5 817 2334.74 817 2523 1005.26 2523 1237.5 2523 1469.74 2334.74 1658 2102.5 1658 1870.26 1658 1682 1469.74 1682 1237.5Z" fill="#F2F2F2" fill-rule="evenodd"/><path d="M1713 1237.5C1713 1022.39 1887.39 848 2102.5 848 2317.61 848 2492 1022.39 2492 1237.5 2492 1452.61 2317.61 1627 2102.5 1627 1887.39 1627 1713 1452.61 1713 1237.5Z" fill="#002D65" fill-rule="evenodd"/><path d="M2138.06 1014.24 2038.75 1103.7 2091.58 1225.97 1976.13 1159.55 1875.92 1248 1903.88 1117.48 1789.12 1049.88 1921.84 1035.64 1951.13 905.403 2005.2 1027.13Z" fill="#FFFFFF" fill-rule="evenodd"/><path d="M2280.03 1378.58 2251.18 1248.06 2118.76 1233.72 2233.48 1166.05 2205.96 1035.25 2305.71 1123.94 2421.12 1057.45 2368.05 1179.94 2466.9 1269.64 2334.34 1256.65Z" fill="#FFFFFF" fill-rule="evenodd"/><path d="M1890.79 1319.5 2018.12 1360.16 2097.08 1252.9 2097.92 1386.09 2224.83 1428.04 2098.01 1469.7 2097.49 1602.89 2018.27 1495.44 1891.04 1535.81 1968.9 1427.75Z" fill="#FFFFFF" fill-rule="evenodd"/><rect x="3212" y="458" width="160" height="1559" fill="#002D65"/></g></svg>