<svg width="2339" height="1560" xmlns="http://www.w3.org/2000/svg" xmlns:xlink="http://www.w3.org/1999/xlink" xml:space="preserve" overflow="hidden"><defs><clipPath id="clip0"><rect x="1031" y="458" width="2339" height="1560"/></clipPath></defs><g clip-path="url(#clip0)" transform="translate(-1031 -458)"><rect x="1031.5" y="458.5" width="2338" height="1559" stroke="#000000" stroke-width="1.14583" stroke-miterlimit="8" fill="#F2F2F2"/><rect x="0" y="0" width="390" height="1559" fill="#00843D" transform="matrix(-1 0 0 1 2204 458)"/><rect x="0" y="0" width="390" height="1559" fill="#00843D" transform="matrix(-1 0 0 1 2980 458)"/><path d="M0.000301837 105.422 100.969 98.9776 138 0 175.031 98.9776 276 105.422 197.917 173.039 223.289 275.999 138 218.811 52.7114 275.999 78.0832 173.039Z" fill="#00843D" fill-rule="evenodd" transform="matrix(1.83697e-16 1 1 -1.83697e-16 1282 638)"/><path d="M0.000300744 105.04 100.604 98.619 137.5 0 174.396 98.619 275 105.04 197.2 172.412 222.48 274.999 137.5 218.018 52.5204 274.999 77.8003 172.412Z" fill="#00843D" fill-rule="evenodd" transform="matrix(1.83697e-16 1 1 -1.83697e-16 1283 1571)"/><path d="M0.000300744 105.04 100.604 98.619 137.5 0 174.396 98.619 275 105.04 197.2 172.412 222.48 274.999 137.5 218.018 52.5204 274.999 77.8003 172.412Z" fill="#00843D" fill-rule="evenodd" transform="matrix(1.83697e-16 1 1 -1.83697e-16 1283 1105)"/></g></svg>