<svg width="2338" height="1559" xmlns="http://www.w3.org/2000/svg" xmlns:xlink="http://www.w3.org/1999/xlink" xml:space="preserve" overflow="hidden"><defs><clipPath id="clip0"><rect x="1031" y="458" width="2338" height="1559"/></clipPath></defs><g clip-path="url(#clip0)" transform="translate(-1031 -458)"><path d="M1031 458 3369 458 3369 2017 1031 2017Z" fill="#FFC425" fill-rule="evenodd"/><path d="M1031 458 3369 614 1031 770Z" fill="#F2F2F2" fill-rule="evenodd"/><path d="M1031 770 3369 926 1031 1082Z" fill="#F2F2F2" fill-rule="evenodd"/><path d="M1031 1082 3369 1238 1031 1394Z" fill="#F2F2F2" fill-rule="evenodd"/><path d="M1031 1394 3369 1550 1031 1706Z" fill="#F2F2F2" fill-rule="evenodd"/><path d="M1031 1706 3369 1861.5 1031 2017Z" fill="#F2F2F2" fill-rule="evenodd"/><path d="M1031 458 2525 614 1031 770Z" fill-rule="evenodd"/><path d="M1031 770 2525 926 1031 1082Z" fill-rule="evenodd"/><path d="M1031 1082 2525 1238 1031 1394Z" fill-rule="evenodd"/><path d="M1031 1394 2525 1550 1031 1706Z" fill-rule="evenodd"/><path d="M1031 1706 2525 1861.5 1031 2017Z" fill-rule="evenodd"/></g></svg>