<svg width="2340" height="1561" xmlns="http://www.w3.org/2000/svg" xmlns:xlink="http://www.w3.org/1999/xlink" xml:space="preserve" overflow="hidden"><g transform="translate(-1030 -457)"><path d="M1031 458 3369 458 3369 2017 1031 2017Z" stroke="#000000" stroke-width="2.16427" stroke-miterlimit="8" fill="#FFFFFF" fill-rule="evenodd"/><path d="M1822.44 864.571C1810.47 840.414 1802.26 761.519 1808.83 730.343 1839.29 693.823 1844.97 678.112 1861.84 677.515 1878.71 676.919 1886.87 693.412 1914.85 730.343 1921.28 761.382 1915.82 829.866 1900.41 863.749 1891.65 890.437 1875.25 890.334 1862.25 890.471 1849.26 890.608 1831.35 891.259 1822.44 864.571Z" stroke="#FF6699" stroke-width="4.58333" stroke-miterlimit="8" fill="#FF6699" fill-rule="evenodd"/><path d="M1874.24 844.542C1893.53 825.734 1966.05 793.565 1997.72 790.154 2041.84 807.739 2058.53 808.273 2064.3 824.076 2070.06 839.878 2056.88 852.711 2030.37 890.65 2002.83 906.336 1936.01 922.32 1899.04 918.193 1870.95 918.131 1866 902.556 1861.87 890.281 1857.73 878.005 1851.6 861.229 1874.24 844.542Z" stroke="#FF6699" stroke-width="4.58333" stroke-miterlimit="8" fill="#FF6699" fill-rule="evenodd"/><path d="M1825.58 919.531C1798.91 923.408 1721.34 906.811 1693.71 890.952 1668.35 850.794 1655.16 840.549 1659.79 824.378 1664.42 808.206 1682.62 805.568 1726.36 790.457 1757.87 793.956 1821.32 820.302 1848.81 845.372 1871.49 861.929 1866.34 877.441 1862.47 889.801 1858.6 902.161 1853.7 919.34 1825.58 919.531Z" stroke="#FF6699" stroke-width="4.58333" stroke-miterlimit="8" fill="#FF6699" fill-rule="evenodd"/><path d="M1908.9 887.856C1932.75 900.392 1985.75 959.414 1998.78 988.486 1995.69 1035.88 2000.34 1051.92 1987.09 1062.28 1973.84 1072.65 1957.57 1064.08 1913.3 1050.6 1889.87 1029.25 1854.01 970.634 1846.51 934.197 1837.89 907.468 1851.18 897.945 1861.57 890.222 1871.97 882.498 1886.03 871.479 1908.9 887.856Z" stroke="#FF6699" stroke-width="4.58333" stroke-miterlimit="8" fill="#FF6699" fill-rule="evenodd"/><path d="M1878.41 934.203C1873.86 960.758 1834.11 1029.4 1810.48 1050.78 1764.46 1062.49 1750.64 1071.87 1736.69 1062.47 1722.74 1053.07 1725.85 1034.95 1725 988.673 1738.06 959.793 1782.73 907.584 1815.06 889.192 1837.82 872.734 1850.98 882.424 1861.54 889.926 1872.1 897.427 1886.92 907.393 1878.41 934.203Z" stroke="#FF6699" stroke-width="4.58333" stroke-miterlimit="8" fill="#FF6699" fill-rule="evenodd"/><path d="M1861.67 879.29 1857.01 880.175 1854.83 881.979C1853.75 883.288 1852.88 884.833 1852.32 886.568 1851.75 888.303 1851.55 890.063 1851.66 891.76L1852.54 895.215 1855.48 898.343C1856.96 899.415 1858.57 900.156 1860.21 900.577L1861.67 900.67 1863.13 900.577C1864.77 900.156 1866.38 899.415 1867.86 898.343 1869.33 897.271 1870.53 895.969 1871.44 894.532L1871.98 893.174 1872.34 891.76C1872.45 890.063 1872.25 888.303 1871.68 886.568 1871.12 884.833 1870.25 883.288 1869.17 881.979L1868.04 881.047 1866.81 880.266C1865.23 879.638 1863.49 879.29 1861.67 879.29ZM1861.67 677 1867.26 857.734 1896.26 728.224 1876.42 869.511 2004.61 806.98 1890.45 874.584 2064 824.057 1893.91 885.229 2025.99 872.791 1885.54 897.581 1984.6 1000.22 1885.05 912.493 1986.72 1062 1876 919.072 1928.64 1040.9 1861.67 914.929 1794.7 1040.9 1847.34 919.072 1736.62 1062 1838.29 912.493 1738.74 1000.22 1837.9 897.482 1698.01 872.791 1830.09 885.229 1660 824.057 1833.55 874.584 1719.39 806.98 1846.87 869.165 1827.08 728.224 1856.08 857.734Z" fill="#F2F2F2" fill-rule="evenodd"/><path d="M1831 889.5C1831 872.655 1844.66 859 1861.5 859 1878.34 859 1892 872.655 1892 889.5 1892 906.345 1878.34 920 1861.5 920 1844.66 920 1831 906.345 1831 889.5Z" fill="#FFC000" fill-rule="evenodd"/><path d="M1822.44 1570.57C1810.47 1546.41 1802.26 1467.52 1808.83 1436.34 1839.29 1399.82 1844.97 1384.11 1861.84 1383.52 1878.71 1382.92 1886.87 1399.41 1914.85 1436.34 1921.28 1467.38 1915.82 1535.87 1900.41 1569.75 1891.65 1596.44 1875.25 1596.33 1862.25 1596.47 1849.26 1596.61 1831.35 1597.26 1822.44 1570.57Z" stroke="#FF6699" stroke-width="4.58333" stroke-miterlimit="8" fill="#FF6699" fill-rule="evenodd"/><path d="M1874.24 1550.78C1893.53 1531.98 1966.05 1499.81 1997.72 1496.4 2041.84 1513.98 2058.53 1514.51 2064.3 1530.32 2070.06 1546.12 2056.88 1558.95 2030.37 1596.89 2002.83 1612.58 1936.01 1628.56 1899.04 1624.43 1870.95 1624.37 1866 1608.8 1861.87 1596.52 1857.73 1584.25 1851.6 1567.47 1874.24 1550.78Z" stroke="#FF6699" stroke-width="4.58333" stroke-miterlimit="8" fill="#FF6699" fill-rule="evenodd"/><path d="M1825.58 1625.77C1798.91 1629.65 1721.34 1613.05 1693.71 1597.19 1668.35 1557.04 1655.16 1546.79 1659.79 1530.62 1664.42 1514.45 1682.62 1511.81 1726.36 1496.7 1757.87 1500.2 1821.32 1526.54 1848.81 1551.61 1871.49 1568.17 1866.34 1583.68 1862.47 1596.04 1858.6 1608.4 1853.7 1625.58 1825.58 1625.77Z" stroke="#FF6699" stroke-width="4.58333" stroke-miterlimit="8" fill="#FF6699" fill-rule="evenodd"/><path d="M1908.9 1594.1C1932.75 1606.63 1985.75 1665.66 1998.78 1694.73 1995.69 1742.12 2000.34 1758.16 1987.09 1768.53 1973.84 1778.89 1957.57 1770.33 1913.3 1756.84 1889.87 1735.49 1854.01 1676.88 1846.51 1640.44 1837.89 1613.71 1851.18 1604.19 1861.57 1596.46 1871.97 1588.74 1886.03 1577.72 1908.9 1594.1Z" stroke="#FF6699" stroke-width="4.58333" stroke-miterlimit="8" fill="#FF6699" fill-rule="evenodd"/><path d="M1878.41 1640.44C1873.86 1667 1834.11 1735.65 1810.48 1757.02 1764.46 1768.73 1750.64 1778.11 1736.69 1768.71 1722.74 1759.32 1725.85 1741.19 1725 1694.92 1738.06 1666.04 1782.73 1613.83 1815.06 1595.43 1837.82 1578.98 1850.98 1588.67 1861.54 1596.17 1872.1 1603.67 1886.92 1613.64 1878.41 1640.44Z" stroke="#FF6699" stroke-width="4.58333" stroke-miterlimit="8" fill="#FF6699" fill-rule="evenodd"/><path d="M1861.67 1585.82 1857.01 1586.7 1854.83 1588.51C1853.75 1589.82 1852.88 1591.37 1852.32 1593.11 1851.75 1594.85 1851.55 1596.62 1851.66 1598.32L1852.54 1601.78 1855.48 1604.92C1856.96 1605.99 1858.57 1606.74 1860.21 1607.16L1861.67 1607.25 1863.13 1607.16C1864.77 1606.74 1866.38 1605.99 1867.86 1604.92 1869.33 1603.84 1870.53 1602.54 1871.44 1601.1L1871.98 1599.74 1872.34 1598.32C1872.45 1596.62 1872.25 1594.85 1871.68 1593.11 1871.12 1591.37 1870.25 1589.82 1869.17 1588.51L1868.04 1587.58 1866.81 1586.79C1865.23 1586.16 1863.49 1585.82 1861.67 1585.82ZM1861.67 1383 1867.26 1564.2 1896.26 1434.36 1876.42 1576.01 2004.61 1513.32 1890.45 1581.1 2064 1530.44 1893.91 1591.77 2025.99 1579.3 1885.54 1604.15 1984.6 1707.06 1885.05 1619.1 1986.72 1769 1876 1625.7 1928.64 1747.84 1861.67 1621.55 1794.7 1747.84 1847.34 1625.7 1736.62 1769 1838.29 1619.1 1738.74 1707.06 1837.9 1604.05 1698.01 1579.3 1830.09 1591.77 1660 1530.44 1833.55 1581.1 1719.39 1513.32 1846.87 1575.66 1827.08 1434.36 1856.08 1564.2Z" fill="#F2F2F2" fill-rule="evenodd"/><path d="M1831 1595.5C1831 1578.66 1844.66 1565 1861.5 1565 1878.34 1565 1892 1578.66 1892 1595.5 1892 1612.34 1878.34 1626 1861.5 1626 1844.66 1626 1831 1612.34 1831 1595.5Z" fill="#FFC000" fill-rule="evenodd"/><path d="M2502.44 1570.57C2490.47 1546.41 2482.26 1467.52 2488.83 1436.34 2519.29 1399.82 2524.97 1384.11 2541.84 1383.52 2558.71 1382.92 2566.87 1399.41 2594.85 1436.34 2601.28 1467.38 2595.82 1535.87 2580.41 1569.75 2571.65 1596.44 2555.25 1596.33 2542.25 1596.47 2529.26 1596.61 2511.35 1597.26 2502.44 1570.57Z" stroke="#FF6699" stroke-width="4.58333" stroke-miterlimit="8" fill="#FF6699" fill-rule="evenodd"/><path d="M2554.11 1550.78C2573.4 1531.98 2645.91 1499.81 2677.59 1496.4 2721.71 1513.98 2738.4 1514.51 2744.16 1530.32 2749.92 1546.12 2736.75 1558.95 2710.24 1596.89 2682.7 1612.58 2615.88 1628.56 2578.9 1624.43 2550.82 1624.37 2545.87 1608.8 2541.73 1596.52 2537.6 1584.25 2531.47 1567.47 2554.11 1550.78Z" stroke="#FF6699" stroke-width="4.58333" stroke-miterlimit="8" fill="#FF6699" fill-rule="evenodd"/><path d="M2505.44 1625.77C2478.78 1629.65 2401.21 1613.05 2373.58 1597.19 2348.22 1557.04 2335.03 1546.79 2339.66 1530.62 2344.28 1514.45 2362.49 1511.81 2406.23 1496.7 2437.73 1500.2 2501.19 1526.54 2528.68 1551.61 2551.36 1568.17 2546.21 1583.68 2542.34 1596.04 2538.47 1608.4 2533.57 1625.58 2505.44 1625.77Z" stroke="#FF6699" stroke-width="4.58333" stroke-miterlimit="8" fill="#FF6699" fill-rule="evenodd"/><path d="M2588.77 1594.1C2612.62 1606.63 2665.62 1665.66 2678.65 1694.73 2675.56 1742.12 2680.21 1758.16 2666.96 1768.53 2653.71 1778.89 2637.44 1770.33 2593.16 1756.84 2569.73 1735.49 2533.88 1676.88 2526.38 1640.44 2517.76 1613.71 2531.05 1604.19 2541.44 1596.46 2551.84 1588.74 2565.9 1577.72 2588.77 1594.1Z" stroke="#FF6699" stroke-width="4.58333" stroke-miterlimit="8" fill="#FF6699" fill-rule="evenodd"/><path d="M2558.28 1640.44C2553.73 1667 2513.97 1735.65 2490.35 1757.02 2444.32 1768.73 2430.5 1778.11 2416.55 1768.71 2402.6 1759.32 2405.72 1741.19 2404.87 1694.92 2417.93 1666.04 2462.59 1613.83 2494.93 1595.43 2517.69 1578.98 2530.85 1588.67 2541.41 1596.17 2551.97 1603.67 2566.79 1613.64 2558.28 1640.44Z" stroke="#FF6699" stroke-width="4.58333" stroke-miterlimit="8" fill="#FF6699" fill-rule="evenodd"/><path d="M2541.67 1585.82 2537.01 1586.7 2534.83 1588.51C2533.75 1589.82 2532.88 1591.37 2532.32 1593.11 2531.75 1594.85 2531.55 1596.62 2531.66 1598.32L2532.54 1601.78 2535.48 1604.92C2536.96 1605.99 2538.57 1606.74 2540.21 1607.16L2541.67 1607.25 2543.13 1607.16C2544.77 1606.74 2546.38 1605.99 2547.86 1604.92 2549.33 1603.84 2550.53 1602.54 2551.44 1601.1L2551.98 1599.74 2552.34 1598.32C2552.45 1596.62 2552.25 1594.85 2551.68 1593.11 2551.12 1591.37 2550.25 1589.82 2549.17 1588.51L2548.04 1587.58 2546.81 1586.79C2545.23 1586.16 2543.49 1585.82 2541.67 1585.82ZM2541.67 1383 2547.26 1564.2 2576.26 1434.36 2556.42 1576.01 2684.61 1513.32 2570.45 1581.1 2744 1530.44 2573.91 1591.77 2705.99 1579.3 2565.54 1604.15 2664.6 1707.06 2565.05 1619.1 2666.72 1769 2556 1625.7 2608.64 1747.84 2541.67 1621.55 2474.7 1747.84 2527.34 1625.7 2416.62 1769 2518.29 1619.1 2418.74 1707.06 2517.9 1604.05 2378.01 1579.3 2510.09 1591.77 2340 1530.44 2513.55 1581.1 2399.39 1513.32 2526.87 1575.66 2507.08 1434.36 2536.08 1564.2Z" fill="#F2F2F2" fill-rule="evenodd"/><path d="M2511 1595.5C2511 1578.66 2524.66 1565 2541.5 1565 2558.34 1565 2572 1578.66 2572 1595.5 2572 1612.34 2558.34 1626 2541.5 1626 2524.66 1626 2511 1612.34 2511 1595.5Z" fill="#FFC000" fill-rule="evenodd"/><path d="M2502.44 864.571C2490.47 840.414 2482.26 761.519 2488.83 730.343 2519.29 693.823 2524.97 678.112 2541.84 677.515 2558.71 676.919 2566.87 693.412 2594.85 730.343 2601.28 761.382 2595.82 829.866 2580.41 863.749 2571.65 890.437 2555.25 890.334 2542.25 890.471 2529.26 890.608 2511.35 891.259 2502.44 864.571Z" stroke="#FF6699" stroke-width="4.58333" stroke-miterlimit="8" fill="#FF6699" fill-rule="evenodd"/><path d="M2554.11 844.542C2573.4 825.734 2645.91 793.565 2677.59 790.154 2721.71 807.739 2738.4 808.273 2744.16 824.076 2749.92 839.878 2736.75 852.711 2710.24 890.65 2682.7 906.336 2615.88 922.32 2578.9 918.193 2550.82 918.131 2545.87 902.556 2541.73 890.281 2537.6 878.005 2531.47 861.229 2554.11 844.542Z" stroke="#FF6699" stroke-width="4.58333" stroke-miterlimit="8" fill="#FF6699" fill-rule="evenodd"/><path d="M2505.44 919.531C2478.78 923.408 2401.21 906.811 2373.58 890.952 2348.22 850.794 2335.03 840.549 2339.66 824.378 2344.28 808.206 2362.49 805.568 2406.23 790.457 2437.73 793.956 2501.19 820.302 2528.68 845.372 2551.36 861.929 2546.21 877.441 2542.34 889.801 2538.47 902.161 2533.57 919.34 2505.44 919.531Z" stroke="#FF6699" stroke-width="4.58333" stroke-miterlimit="8" fill="#FF6699" fill-rule="evenodd"/><path d="M2588.77 887.856C2612.62 900.392 2665.62 959.414 2678.65 988.486 2675.56 1035.88 2680.21 1051.92 2666.96 1062.28 2653.71 1072.65 2637.44 1064.08 2593.16 1050.6 2569.73 1029.25 2533.88 970.634 2526.38 934.197 2517.76 907.468 2531.05 897.945 2541.44 890.222 2551.84 882.498 2565.9 871.479 2588.77 887.856Z" stroke="#FF6699" stroke-width="4.58333" stroke-miterlimit="8" fill="#FF6699" fill-rule="evenodd"/><path d="M2558.28 934.203C2553.73 960.758 2513.97 1029.4 2490.35 1050.78 2444.32 1062.49 2430.5 1071.87 2416.55 1062.47 2402.6 1053.07 2405.72 1034.95 2404.87 988.673 2417.93 959.793 2462.59 907.584 2494.93 889.192 2517.69 872.734 2530.85 882.424 2541.41 889.926 2551.97 897.427 2566.79 907.393 2558.28 934.203Z" stroke="#FF6699" stroke-width="4.58333" stroke-miterlimit="8" fill="#FF6699" fill-rule="evenodd"/><path d="M2541.67 879.29 2537.01 880.175 2534.83 881.979C2533.75 883.288 2532.88 884.833 2532.32 886.568 2531.75 888.303 2531.55 890.063 2531.66 891.76L2532.54 895.215 2535.48 898.343C2536.96 899.415 2538.57 900.156 2540.21 900.577L2541.67 900.67 2543.13 900.577C2544.77 900.156 2546.38 899.415 2547.86 898.343 2549.33 897.271 2550.53 895.969 2551.44 894.532L2551.98 893.174 2552.34 891.76C2552.45 890.063 2552.25 888.303 2551.68 886.568 2551.12 884.833 2550.25 883.288 2549.17 881.979L2548.04 881.047 2546.81 880.266C2545.23 879.638 2543.49 879.29 2541.67 879.29ZM2541.67 677 2547.26 857.734 2576.26 728.224 2556.42 869.511 2684.61 806.98 2570.45 874.584 2744 824.057 2573.91 885.229 2705.99 872.791 2565.54 897.581 2664.6 1000.22 2565.05 912.493 2666.72 1062 2556 919.072 2608.64 1040.9 2541.67 914.929 2474.7 1040.9 2527.34 919.072 2416.62 1062 2518.29 912.493 2418.74 1000.22 2517.9 897.482 2378.01 872.791 2510.09 885.229 2340 824.057 2513.55 874.584 2399.39 806.98 2526.87 869.165 2507.08 728.224 2536.08 857.734Z" fill="#F2F2F2" fill-rule="evenodd"/><path d="M2511 889.5C2511 872.655 2524.66 859 2541.5 859 2558.34 859 2572 872.655 2572 889.5 2572 906.345 2558.34 920 2541.5 920 2524.66 920 2511 906.345 2511 889.5Z" fill="#FFC000" fill-rule="evenodd"/><path d="M1483.3 1217.57C1471.44 1193.41 1463.3 1114.52 1469.81 1083.34 1499.99 1046.82 1505.63 1031.11 1522.34 1030.52 1539.06 1029.92 1547.15 1046.41 1574.88 1083.34 1581.25 1114.38 1575.83 1182.87 1560.57 1216.75 1551.88 1243.44 1535.63 1243.33 1522.75 1243.47 1509.87 1243.61 1492.12 1244.26 1483.3 1217.57Z" stroke="#FF6699" stroke-width="4.58333" stroke-miterlimit="8" fill="#FF6699" fill-rule="evenodd"/><path d="M1534.31 1197.66C1553.6 1178.85 1626.11 1146.69 1657.79 1143.28 1701.9 1160.86 1718.6 1161.39 1724.36 1177.2 1730.12 1193 1716.95 1205.83 1690.44 1243.77 1662.9 1259.46 1596.07 1275.44 1559.1 1271.31 1531.02 1271.25 1526.07 1255.68 1521.93 1243.4 1517.8 1231.13 1511.66 1214.35 1534.31 1197.66Z" stroke="#FF6699" stroke-width="4.58333" stroke-miterlimit="8" fill="#FF6699" fill-rule="evenodd"/><path d="M1485.64 1272.65C1458.98 1276.53 1381.41 1259.93 1353.78 1244.07 1328.42 1203.91 1315.23 1193.67 1319.86 1177.5 1324.48 1161.33 1342.68 1158.69 1386.43 1143.58 1417.93 1147.08 1481.39 1173.42 1508.87 1198.49 1531.56 1215.05 1526.41 1230.56 1522.54 1242.92 1518.67 1255.28 1513.77 1272.46 1485.64 1272.65Z" stroke="#FF6699" stroke-width="4.58333" stroke-miterlimit="8" fill="#FF6699" fill-rule="evenodd"/><path d="M1568.97 1240.98C1592.81 1253.51 1645.82 1312.54 1658.85 1341.61 1655.76 1389 1660.41 1405.04 1647.16 1415.4 1633.91 1425.77 1617.64 1417.2 1573.36 1403.72 1549.93 1382.37 1514.08 1323.76 1506.58 1287.32 1497.96 1260.59 1511.24 1251.07 1521.64 1243.34 1532.04 1235.62 1546.1 1224.6 1568.97 1240.98Z" stroke="#FF6699" stroke-width="4.58333" stroke-miterlimit="8" fill="#FF6699" fill-rule="evenodd"/><path d="M1538.48 1287.32C1533.93 1313.88 1494.17 1382.53 1470.55 1403.9 1424.52 1415.61 1410.7 1424.99 1396.75 1415.59 1382.8 1406.19 1385.92 1388.07 1385.06 1341.79 1398.13 1312.91 1442.79 1260.7 1475.13 1242.31 1497.89 1225.85 1511.05 1235.54 1521.61 1243.05 1532.16 1250.55 1546.99 1260.51 1538.48 1287.32Z" stroke="#FF6699" stroke-width="4.58333" stroke-miterlimit="8" fill="#FF6699" fill-rule="evenodd"/><path d="M1521.67 1232.82 1517.01 1233.7 1514.83 1235.51C1513.75 1236.82 1512.88 1238.37 1512.32 1240.11 1511.75 1241.85 1511.55 1243.62 1511.66 1245.32L1512.54 1248.78 1515.48 1251.92C1516.96 1252.99 1518.57 1253.74 1520.21 1254.16L1521.67 1254.25 1523.13 1254.16C1524.77 1253.74 1526.38 1252.99 1527.86 1251.92 1529.33 1250.84 1530.53 1249.54 1531.44 1248.1L1531.98 1246.74 1532.34 1245.32C1532.45 1243.62 1532.25 1241.85 1531.68 1240.11 1531.12 1238.37 1530.25 1236.82 1529.17 1235.51L1528.04 1234.58 1526.81 1233.79C1525.23 1233.16 1523.49 1232.82 1521.67 1232.82ZM1521.67 1030 1527.26 1211.2 1556.26 1081.36 1536.42 1223.01 1664.61 1160.32 1550.45 1228.1 1724 1177.44 1553.91 1238.77 1685.99 1226.3 1545.54 1251.15 1644.6 1354.06 1545.05 1266.1 1646.72 1416 1536 1272.7 1588.64 1394.84 1521.67 1268.55 1454.7 1394.84 1507.34 1272.7 1396.62 1416 1498.29 1266.1 1398.74 1354.06 1497.9 1251.05 1358.01 1226.3 1490.09 1238.77 1320 1177.44 1493.55 1228.1 1379.39 1160.32 1506.87 1222.66 1487.08 1081.36 1516.08 1211.2Z" fill="#F2F2F2" fill-rule="evenodd"/><path d="M1491 1242.5C1491 1225.66 1504.66 1212 1521.5 1212 1538.34 1212 1552 1225.66 1552 1242.5 1552 1259.34 1538.34 1273 1521.5 1273 1504.66 1273 1491 1259.34 1491 1242.5Z" fill="#FFC000" fill-rule="evenodd"/><path d="M2842.44 1217.57C2830.48 1193.41 2822.26 1114.52 2828.83 1083.34 2859.29 1046.82 2864.97 1031.11 2881.84 1030.52 2898.71 1029.92 2906.87 1046.41 2934.85 1083.34 2941.28 1114.38 2935.82 1182.87 2920.41 1216.75 2911.65 1243.44 2895.25 1243.33 2882.25 1243.47 2869.26 1243.61 2851.35 1244.26 2842.44 1217.57Z" stroke="#FF6699" stroke-width="4.58333" stroke-miterlimit="8" fill="#FF6699" fill-rule="evenodd"/><path d="M2894.04 1197.66C2913.33 1178.85 2985.85 1146.69 3017.52 1143.28 3061.64 1160.86 3078.33 1161.39 3084.1 1177.2 3089.86 1193 3076.68 1205.83 3050.18 1243.77 3022.63 1259.46 2955.81 1275.44 2918.84 1271.31 2890.75 1271.25 2885.8 1255.68 2881.67 1243.4 2877.54 1231.13 2871.4 1214.35 2894.04 1197.66Z" stroke="#FF6699" stroke-width="4.58333" stroke-miterlimit="8" fill="#FF6699" fill-rule="evenodd"/><path d="M2845.38 1272.65C2818.72 1276.53 2741.14 1259.93 2713.51 1244.07 2688.16 1203.91 2674.96 1193.67 2679.59 1177.5 2684.22 1161.33 2702.42 1158.69 2746.17 1143.58 2777.67 1147.08 2841.12 1173.42 2868.61 1198.49 2891.29 1215.05 2886.15 1230.56 2882.27 1242.92 2878.4 1255.28 2873.5 1272.46 2845.38 1272.65Z" stroke="#FF6699" stroke-width="4.58333" stroke-miterlimit="8" fill="#FF6699" fill-rule="evenodd"/><path d="M2928.7 1240.98C2952.55 1253.51 3005.55 1312.54 3018.58 1341.61 3015.49 1389 3020.14 1405.04 3006.89 1415.4 2993.65 1425.77 2977.37 1417.2 2933.1 1403.72 2909.67 1382.37 2873.82 1323.76 2866.32 1287.32 2857.7 1260.59 2870.98 1251.07 2881.38 1243.34 2891.77 1235.62 2905.83 1224.6 2928.7 1240.98Z" stroke="#FF6699" stroke-width="4.58333" stroke-miterlimit="8" fill="#FF6699" fill-rule="evenodd"/><path d="M2898.22 1287.32C2893.66 1313.88 2853.91 1382.53 2830.29 1403.9 2784.26 1415.61 2770.44 1424.99 2756.49 1415.59 2742.54 1406.19 2745.65 1388.07 2744.8 1341.79 2757.86 1312.91 2802.53 1260.7 2834.86 1242.31 2857.62 1225.85 2870.78 1235.54 2881.34 1243.05 2891.9 1250.55 2906.72 1260.51 2898.22 1287.32Z" stroke="#FF6699" stroke-width="4.58333" stroke-miterlimit="8" fill="#FF6699" fill-rule="evenodd"/><path d="M2881.67 1232.82 2877.01 1233.7 2874.83 1235.51C2873.75 1236.82 2872.88 1238.37 2872.32 1240.11 2871.75 1241.85 2871.55 1243.62 2871.66 1245.32L2872.54 1248.78 2875.48 1251.92C2876.96 1252.99 2878.57 1253.74 2880.21 1254.16L2881.67 1254.25 2883.13 1254.16C2884.77 1253.74 2886.38 1252.99 2887.86 1251.92 2889.33 1250.84 2890.53 1249.54 2891.44 1248.1L2891.98 1246.74 2892.34 1245.32C2892.45 1243.62 2892.25 1241.85 2891.68 1240.11 2891.12 1238.37 2890.25 1236.82 2889.17 1235.51L2888.04 1234.58 2886.81 1233.79C2885.23 1233.16 2883.49 1232.82 2881.67 1232.82ZM2881.67 1030 2887.26 1211.2 2916.26 1081.36 2896.42 1223.01 3024.61 1160.32 2910.45 1228.1 3084 1177.44 2913.91 1238.77 3045.99 1226.3 2905.54 1251.15 3004.6 1354.06 2905.05 1266.1 3006.72 1416 2896 1272.7 2948.64 1394.84 2881.67 1268.55 2814.7 1394.84 2867.34 1272.7 2756.62 1416 2858.29 1266.1 2758.74 1354.06 2857.9 1251.05 2718.01 1226.3 2850.09 1238.77 2680 1177.44 2853.55 1228.1 2739.39 1160.32 2866.87 1222.66 2847.08 1081.36 2876.08 1211.2Z" fill="#F2F2F2" fill-rule="evenodd"/><path d="M2851 1242.5C2851 1225.66 2864.66 1212 2881.5 1212 2898.34 1212 2912 1225.66 2912 1242.5 2912 1259.34 2898.34 1273 2881.5 1273 2864.66 1273 2851 1259.34 2851 1242.5Z" fill="#FFC000" fill-rule="evenodd"/><path d="M2162.44 1217.57C2150.47 1193.41 2142.26 1114.52 2148.83 1083.34 2179.29 1046.82 2184.97 1031.11 2201.84 1030.52 2218.71 1029.92 2226.87 1046.41 2254.85 1083.34 2261.28 1114.38 2255.82 1182.87 2240.41 1216.75 2231.65 1243.44 2215.25 1243.33 2202.25 1243.47 2189.26 1243.61 2171.35 1244.26 2162.44 1217.57Z" stroke="#FF6699" stroke-width="4.58333" stroke-miterlimit="8" fill="#FF6699" fill-rule="evenodd"/><path d="M2214.17 1197.66C2233.47 1178.85 2305.98 1146.69 2337.65 1143.28 2381.77 1160.86 2398.47 1161.39 2404.23 1177.2 2409.99 1193 2396.82 1205.83 2370.31 1243.77 2342.76 1259.46 2275.94 1275.44 2238.97 1271.31 2210.89 1271.25 2205.93 1255.68 2201.8 1243.4 2197.67 1231.13 2191.53 1214.35 2214.17 1197.66Z" stroke="#FF6699" stroke-width="4.58333" stroke-miterlimit="8" fill="#FF6699" fill-rule="evenodd"/><path d="M2165.51 1272.65C2138.85 1276.53 2061.28 1259.93 2033.64 1244.07 2008.29 1203.91 1995.1 1193.67 1999.72 1177.5 2004.35 1161.33 2022.55 1158.69 2066.3 1143.58 2097.8 1147.08 2161.26 1173.42 2188.74 1198.49 2211.43 1215.05 2206.28 1230.56 2202.41 1242.92 2198.53 1255.28 2193.64 1272.46 2165.51 1272.65Z" stroke="#FF6699" stroke-width="4.58333" stroke-miterlimit="8" fill="#FF6699" fill-rule="evenodd"/><path d="M2248.83 1240.98C2272.68 1253.51 2325.68 1312.54 2338.72 1341.61 2335.62 1389 2340.28 1405.04 2327.03 1415.4 2313.78 1425.77 2297.5 1417.2 2253.23 1403.72 2229.8 1382.37 2193.95 1323.76 2186.45 1287.32 2177.83 1260.59 2191.11 1251.07 2201.51 1243.34 2211.91 1235.62 2225.97 1224.6 2248.83 1240.98Z" stroke="#FF6699" stroke-width="4.58333" stroke-miterlimit="8" fill="#FF6699" fill-rule="evenodd"/><path d="M2218.35 1287.32C2213.8 1313.88 2174.04 1382.53 2150.42 1403.9 2104.39 1415.61 2090.57 1424.99 2076.62 1415.59 2062.67 1406.19 2065.79 1388.07 2064.93 1341.79 2077.99 1312.91 2122.66 1260.7 2155 1242.31 2177.75 1225.85 2190.92 1235.54 2201.47 1243.05 2212.03 1250.55 2226.86 1260.51 2218.35 1287.32Z" stroke="#FF6699" stroke-width="4.58333" stroke-miterlimit="8" fill="#FF6699" fill-rule="evenodd"/><path d="M2201.67 1232.82 2197.01 1233.7 2194.83 1235.51C2193.75 1236.82 2192.88 1238.37 2192.32 1240.11 2191.75 1241.85 2191.55 1243.62 2191.66 1245.32L2192.54 1248.78 2195.48 1251.92C2196.96 1252.99 2198.57 1253.74 2200.21 1254.16L2201.67 1254.25 2203.13 1254.16C2204.77 1253.74 2206.38 1252.99 2207.86 1251.92 2209.33 1250.84 2210.53 1249.54 2211.44 1248.1L2211.98 1246.74 2212.34 1245.32C2212.45 1243.62 2212.25 1241.85 2211.68 1240.11 2211.12 1238.37 2210.25 1236.82 2209.17 1235.51L2208.04 1234.58 2206.81 1233.79C2205.23 1233.16 2203.49 1232.82 2201.67 1232.82ZM2201.67 1030 2207.26 1211.2 2236.26 1081.36 2216.42 1223.01 2344.61 1160.32 2230.45 1228.1 2404 1177.44 2233.91 1238.77 2365.99 1226.3 2225.54 1251.15 2324.6 1354.06 2225.05 1266.1 2326.72 1416 2216 1272.7 2268.64 1394.84 2201.67 1268.55 2134.7 1394.84 2187.34 1272.7 2076.62 1416 2178.29 1266.1 2078.74 1354.06 2177.9 1251.05 2038.01 1226.3 2170.09 1238.77 2000 1177.44 2173.55 1228.1 2059.39 1160.32 2186.87 1222.66 2167.08 1081.36 2196.08 1211.2Z" fill="#F2F2F2" fill-rule="evenodd"/><path d="M2171 1242.5C2171 1225.66 2184.66 1212 2201.5 1212 2218.34 1212 2232 1225.66 2232 1242.5 2232 1259.34 2218.34 1273 2201.5 1273 2184.66 1273 2171 1259.34 2171 1242.5Z" fill="#FFC000" fill-rule="evenodd"/><path d="M1031 458 3369 458 3369 2017 1031 2017ZM1178.46 605.465 1178.46 1869.54 3221.54 1869.54 3221.54 605.465Z" fill="#003271" fill-rule="evenodd"/></g></svg>