<svg width="2338" height="1559" xmlns="http://www.w3.org/2000/svg" xmlns:xlink="http://www.w3.org/1999/xlink" xml:space="preserve" overflow="hidden"><defs><clipPath id="clip0"><rect x="1031" y="458" width="2338" height="1559"/></clipPath></defs><g clip-path="url(#clip0)" transform="translate(-1031 -458)"><path d="M1031 458 3369 458 3369 2017 1031 2017Z" fill="#492F24" fill-rule="evenodd"/><path d="M1142 569 3258 569 3258 1906 1142 1906Z" fill="#F2F2F2" fill-rule="evenodd"/><path d="M1198 625 3202 625 3202 1850 1198 1850Z" fill="#492F24" fill-rule="evenodd"/><path d="M1692.27 1392.46C1682.04 1341.37 1649.67 1298.8 1639.45 1295.4 1629.22 1291.99 1610.48 1286.88 1610.48 1286.88 1610.48 1286.88 1624.11 1276.67 1617.3 1257.94 1610.48 1239.2 1579.81 1188.12 1578.11 1159.17 1576.4 1130.22 1584.92 1092.76 1578.11 1068.92 1571.29 1045.08 1545.73 1024.65 1544.03 980.371 1542.33 936.096 1615.59 874.796 1658.19 873.092 1700.79 871.39 1739.97 886.715 1763.83 885.013 1787.68 883.311 1816.65 852.658 1835.39 845.846 1854.13 839.034 1862.65 849.252 1874.58 844.144 1886.5 839.036 1983.62 759 2080.74 759 2177.86 759 2251.13 794.761 2273.28 794.761 2295.43 794.761 2336.32 784.543 2366.99 794.761 2397.66 804.978 2435.15 850.954 2479.45 862.873 2523.75 874.793 2779.33 920.771 2808.29 966.746 2837.26 1012.72 2856 1079.13 2856 1111.49 2856 1143.85 2847.48 1230.69 2847.48 1247.72 2847.48 1264.75 2856 1286.88 2852.59 1309.02 2849.18 1331.16 2838.96 1339.67 2838.96 1339.67 2838.96 1339.67 2832.15 1302.21 2830.44 1280.07 2828.74 1257.93 2844.07 1196.63 2842.37 1160.87 2840.67 1125.11 2825.33 1080.84 2825.33 1080.84 2825.33 1080.84 2815.11 1131.92 2806.59 1164.28 2798.07 1196.63 2772.51 1288.59 2772.51 1341.37 2772.51 1394.16 2787.84 1470.79 2787.84 1470.79 2787.84 1470.79 2745.25 1544.01 2741.84 1572.96 2738.43 1601.91 2731.62 1670.02 2733.32 1678.54 2735.03 1687.05 2723.1 1675.13 2719.69 1685.35 2716.28 1695.56 2717.99 1709.19 2717.99 1709.19L2678.8 1705.78C2678.8 1705.78 2680.5 1688.75 2687.32 1676.83 2694.13 1664.91 2704.36 1656.4 2702.65 1641.07 2700.95 1625.75 2704.36 1559.34 2704.36 1559.34 2704.36 1559.34 2675.39 1608.72 2666.87 1627.45 2658.35 1646.18 2658.35 1670.02 2654.94 1678.54 2651.54 1687.05 2644.72 1687.05 2641.31 1697.27 2637.91 1707.48 2632.79 1707.48 2632.79 1707.48L2602.12 1709.19C2602.12 1709.19 2661.76 1562.74 2665.17 1525.28 2668.58 1487.82 2627.68 1411.19 2619.16 1385.65 2610.65 1360.11 2610.64 1339.67 2602.12 1329.45 2593.61 1319.24 2564.64 1307.32 2554.42 1312.43 2544.19 1317.53 2487.97 1370.32 2476.04 1385.65 2464.11 1400.97 2433.44 1429.92 2433.44 1429.92 2433.44 1429.92 2365.29 1392.46 2329.51 1383.94 2293.73 1375.43 2205.13 1368.62 2205.13 1368.62 2205.13 1368.62 2211.94 1499.74 2208.53 1520.17 2205.12 1540.61 2188.09 1547.42 2188.09 1561.04L2188.09 1603.61C2188.09 1613.83 2160.83 1617.23 2154.01 1625.75 2147.2 1634.26 2154.01 1641.07 2145.49 1652.99 2136.97 1664.92 2125.04 1661.51 2119.93 1668.32 2114.82 1675.13 2118.23 1716 2118.23 1716L2050.07 1714.3C2050.07 1714.3 2077.34 1658.1 2075.63 1625.75 2073.93 1593.39 2046.67 1545.72 2041.56 1520.17 2036.44 1494.63 2021.11 1455.46 2000.66 1455.46 1980.22 1455.46 1963.18 1465.68 1963.18 1465.68 1963.18 1465.68 1968.29 1380.54 1939.32 1344.78 1910.36 1309.02 1840.5 1312.43 1818.35 1317.53 1796.2 1322.64 1772.35 1355 1763.83 1358.4 1755.31 1361.81 1748.49 1358.4 1734.86 1363.51 1721.23 1368.62 1704.19 1382.24 1692.26 1392.46Z" fill="#FFC425" fill-rule="evenodd"/></g></svg>