<svg width="2344" height="1187" xmlns="http://www.w3.org/2000/svg" xmlns:xlink="http://www.w3.org/1999/xlink" xml:space="preserve" overflow="hidden"><defs><clipPath id="clip0"><rect x="1028" y="650" width="2344" height="1187"/></clipPath></defs><g clip-path="url(#clip0)" transform="translate(-1028 -650)"><rect x="1030" y="653" width="2338" height="1169" fill="#6BA4B8"/><path d="M1033 655 2202 1239.5 1033 1824Z" fill="#F2F2F2" fill-rule="evenodd"/><rect x="1033" y="1140" width="2339" height="195" fill="#F2F2F2"/><rect x="2114" y="653" width="195" height="1184" fill="#F2F2F2"/><rect x="1033" y="1175" width="2339" height="130" fill="#012169"/><rect x="2147" y="653" width="130" height="1169" fill="#012169"/><path d="M2489.77 1110.03 2504.05 1047.67 2441.19 1033.37 2499.05 1006.52 2470.17 948.648 2528.04 977.531 2554.89 919.666 2569.19 982.527 2631.55 968.243 2591.51 1017.75 2642.42 1057.8 2578.19 1056.67 2579.33 1120.9 2539.27 1069.99Z" fill="#F2F2F2" fill-rule="evenodd"/><path d="M2888.79 1274.74 2913.42 1244.2 2899.82 1207.85 2936.16 1221.45 2966.71 1196.83 2964.54 1235.77 2997.02 1256.9 2959.33 1267.37 2948.86 1305.05 2927.73 1272.58Z" fill="#F2F2F2" fill-rule="evenodd"/><path d="M3042.09 1662.35 3056.38 1599.99 2993.52 1585.69 3051.38 1558.85 3022.5 1500.97 3080.37 1529.86 3107.22 1471.99 3121.52 1534.85 3183.88 1520.57 3143.84 1570.07 3194.75 1610.13 3130.52 1609 3131.65 1673.23 3091.6 1622.31Z" fill="#F2F2F2" fill-rule="evenodd"/><path d="M2506.22 1545.42 2520.5 1483.06 2457.64 1468.76 2515.51 1441.91 2486.62 1384.04 2544.5 1412.92 2571.34 1355.06 2585.64 1417.92 2648 1403.63 2607.96 1453.14 2658.87 1493.19 2594.64 1492.06 2595.78 1556.29 2555.72 1505.38Z" fill="#F2F2F2" fill-rule="evenodd"/><path d="M2848.55 1090.05 2862.84 1027.7 2799.98 1013.39 2857.84 986.549 2828.96 928.676 2886.83 957.558 2913.68 899.693 2927.98 962.555 2990.34 948.271 2950.3 997.775 3001.21 1037.83 2936.98 1036.7 2938.11 1100.93 2898.06 1050.01Z" fill="#F2F2F2" fill-rule="evenodd"/><path d="M1028 650 1873 1234.5 1028 1819Z" fill="#C8102E" fill-rule="evenodd"/><path d="M1345.3 983.937 1393.56 1134.07 1540.97 1078.22 1453.74 1209.57 1589.3 1290.06 1432.26 1303.72 1453.89 1459.94 1345.3 1345.62 1236.71 1459.94 1258.33 1303.72 1101.3 1290.06 1236.85 1209.57 1149.62 1078.22 1297.04 1134.07Z" fill="#FFFFFF" fill-rule="evenodd"/></g></svg>