<svg width="4879" height="2724" xmlns="http://www.w3.org/2000/svg" xmlns:xlink="http://www.w3.org/1999/xlink" xml:space="preserve" overflow="hidden"><g transform="translate(102 288)"><text font-family="Inter 18pt 18pt,Inter 18pt 18pt_MSFontService,sans-serif" font-weight="400" font-size="55" transform="matrix(-1.83697e-16 -1 1 -1.83697e-16 -31.9395 1247)">h</text><text font-family="Inter 18pt 18pt,Inter 18pt 18pt_MSFontService,sans-serif" font-weight="400" font-size="55" transform="matrix(-1.83697e-16 -1 1 -1.83697e-16 -31.9395 1215)">oist </text><text font-family="Inter 18pt 18pt,Inter 18pt 18pt_MSFontService,sans-serif" font-weight="400" font-size="55" transform="matrix(-1.83697e-16 -1 1 -1.83697e-16 -31.9395 1108)">(h) </text><text font-family="Inter 18pt 18pt,Inter 18pt 18pt_MSFontService,sans-serif" font-weight="400" font-size="55" transform="matrix(-1.83697e-16 -1 1 -1.83697e-16 -31.9395 1022)">=</text><text font-family="Inter 18pt 18pt,Inter 18pt 18pt_MSFontService,sans-serif" font-weight="400" font-size="55" transform="matrix(-1.83697e-16 -1 1 -1.83697e-16 -31.9395 971)">½</text><text font-family="Inter 18pt 18pt,Inter 18pt 18pt_MSFontService,sans-serif" font-weight="400" font-size="55" transform="matrix(-1.83697e-16 -1 1 -1.83697e-16 -31.9395 926)">(</text><text font-family="Inter 18pt 18pt,Inter 18pt 18pt_MSFontService,sans-serif" font-weight="400" font-size="55" transform="matrix(-1.83697e-16 -1 1 -1.83697e-16 -31.9395 906)">w</text><text font-family="Inter 18pt 18pt,Inter 18pt 18pt_MSFontService,sans-serif" font-weight="400" font-size="55" transform="matrix(-1.83697e-16 -1 1 -1.83697e-16 -31.9395 862)">) = 18</text><path d="M2.29166-0.00568389 4.38466 843.862-0.198658 843.873-2.29166 0.00568389ZM15.8316 839.248 2.14984 866.782-11.6683 839.316Z" transform="matrix(-1 0 0 1 -51.3503 1276.5)"/><rect x="0.499836" y="-194.5" width="4677" height="2339" stroke="#000000" stroke-width="1.14583" stroke-miterlimit="8" stroke-dasharray="4.58333 3.4375" fill="none"/><path d="M0.499836-194.5 4677.67 2144.08" stroke="#000000" stroke-width="1.14583" stroke-miterlimit="8" stroke-dasharray="4.58333 3.4375" fill="none" fill-rule="evenodd"/><path d="M0 0 4677.17 2338.58" stroke="#000000" stroke-width="1.14583" stroke-miterlimit="8" stroke-dasharray="4.58333 3.4375" fill="none" fill-rule="evenodd" transform="matrix(-1 0 0 1 4677.67 -194.5)"/><path d="M0.499836-194.5 3118.61 2144.08" stroke="#000000" stroke-width="1.14583" stroke-miterlimit="8" stroke-dasharray="4.58333 3.4375" fill="none" fill-rule="evenodd"/><path d="M0 0 3118.11 2338.58" stroke="#000000" stroke-width="1.14583" stroke-miterlimit="8" stroke-dasharray="4.58333 3.4375" fill="none" fill-rule="evenodd" transform="matrix(-1 0 0 1 3118.61 -194.5)"/><path d="M1559.5-194.5 1559.5 2277.91" stroke="#000000" stroke-width="1.14583" stroke-miterlimit="8" stroke-dasharray="4.58333 3.4375" fill="none" fill-rule="evenodd"/><path d="M2339.5-194.5 2339.5 2315.67" stroke="#000000" stroke-width="1.14583" stroke-miterlimit="8" stroke-dasharray="4.58333 3.4375" fill="none" fill-rule="evenodd"/><path d="M0 0 4677.17 0.000360892" stroke="#000000" stroke-width="1.14583" stroke-miterlimit="8" stroke-dasharray="4.58333 3.4375" fill="none" fill-rule="evenodd" transform="matrix(-1 0 0 1 4677.67 976.5)"/><path d="M184.499 1051.38 373.175 940.855 251.148 759.429 455.213 838.004 521 629.5 586.788 838.004 790.852 759.429 668.825 940.855 857.502 1051.38 639.547 1069.11 670.756 1285.5 521 1126.19 371.244 1285.5 402.454 1069.11Z" stroke="#000000" stroke-width="1.14583" stroke-miterlimit="8" stroke-dasharray="4.58333 3.4375" fill="none" fill-rule="evenodd"/><path d="M169.5 977.5C169.5 783.648 326.648 626.5 520.5 626.5 714.352 626.5 871.5 783.648 871.5 977.5 871.5 1171.35 714.352 1328.5 520.5 1328.5 326.648 1328.5 169.5 1171.35 169.5 977.5Z" stroke="#000000" stroke-width="1.14583" stroke-miterlimit="8" stroke-dasharray="4.58333 3.4375" fill="none" fill-rule="evenodd"/><path d="M364.5 977.5C364.5 891.344 434.343 821.5 520.5 821.5 606.656 821.5 676.5 891.344 676.5 977.5 676.5 1063.66 606.656 1133.5 520.5 1133.5 434.343 1133.5 364.5 1063.66 364.5 977.5Z" stroke="#000000" stroke-width="1.14583" stroke-miterlimit="8" stroke-dasharray="4.58333 3.4375" fill="none" fill-rule="evenodd"/><path d="M520.5 626.5 520.5 1328.07" stroke="#000000" stroke-width="1.14583" stroke-miterlimit="8" stroke-dasharray="4.58333 3.4375" fill="none" fill-rule="evenodd"/><path d="M0 0 701.575 0.000360892" stroke="#000000" stroke-width="1.14583" stroke-miterlimit="8" stroke-dasharray="4.58333 3.4375" fill="none" fill-rule="evenodd" transform="matrix(-1 0 0 1 871.075 977.5)"/><path d="M2919.5 663.5 2919.5 997.398" stroke="#000000" stroke-width="1.14583" stroke-miterlimit="8" stroke-dasharray="4.58333 3.4375" fill="none" fill-rule="evenodd"/><path d="M2756.5 867.365 2847.89 813.957 2788.78 726.286 2887.63 764.256 2919.5 663.5 2951.37 764.256 3050.22 726.286 2991.11 813.957 3082.5 867.365 2976.92 875.933 2992.04 980.502 2919.5 903.514 2846.96 980.502 2862.08 875.933Z" stroke="#000000" stroke-width="1.14583" stroke-miterlimit="8" stroke-dasharray="4.58333 3.4375" fill="none" fill-rule="evenodd"/><path d="M2752.5 830C2752.5 738.045 2827.27 663.5 2919.5 663.5 3011.73 663.5 3086.5 738.045 3086.5 830 3086.5 921.955 3011.73 996.5 2919.5 996.5 2827.27 996.5 2752.5 921.955 2752.5 830Z" stroke="#000000" stroke-width="1.14583" stroke-miterlimit="8" stroke-dasharray="4.58333 3.4375" fill="none" fill-rule="evenodd"/><path d="M2845.5 830C2845.5 788.855 2878.63 755.5 2919.5 755.5 2960.37 755.5 2993.5 788.855 2993.5 830 2993.5 871.145 2960.37 904.5 2919.5 904.5 2878.63 904.5 2845.5 871.145 2845.5 830Z" stroke="#000000" stroke-width="1.14583" stroke-miterlimit="8" stroke-dasharray="4.58333 3.4375" fill="none" fill-rule="evenodd"/><path d="M3856.5 712.365 3947.89 658.957 3888.78 571.286 3987.63 609.256 4019.5 508.5 4051.37 609.256 4150.22 571.286 4091.11 658.957 4182.5 712.365 4076.92 720.932 4092.04 825.502 4019.5 748.514 3946.96 825.502 3962.08 720.932Z" stroke="#000000" stroke-width="1.14583" stroke-miterlimit="8" stroke-dasharray="4.58333 3.4375" fill="none" fill-rule="evenodd"/><path d="M3852.5 675.5C3852.5 583.268 3927.27 508.5 4019.5 508.5 4111.73 508.5 4186.5 583.268 4186.5 675.5 4186.5 767.732 4111.73 842.5 4019.5 842.5 3927.27 842.5 3852.5 767.732 3852.5 675.5Z" stroke="#000000" stroke-width="1.14583" stroke-miterlimit="8" stroke-dasharray="4.58333 3.4375" fill="none" fill-rule="evenodd"/><path d="M3945.5 676C3945.5 634.855 3978.63 601.5 4019.5 601.5 4060.37 601.5 4093.5 634.855 4093.5 676 4093.5 717.145 4060.37 750.5 4019.5 750.5 3978.63 750.5 3945.5 717.145 3945.5 676Z" stroke="#000000" stroke-width="1.14583" stroke-miterlimit="8" stroke-dasharray="4.58333 3.4375" fill="none" fill-rule="evenodd"/><path d="M3734.5 975.5 3734.5 1263.85" stroke="#000000" stroke-width="1.14583" stroke-miterlimit="8" stroke-dasharray="4.58333 3.4375" fill="none" fill-rule="evenodd"/><path d="M3636.5 1073C3636.5 1019.15 3680.15 975.5 3734 975.5 3787.85 975.5 3831.5 1019.15 3831.5 1073 3831.5 1126.85 3787.85 1170.5 3734 1170.5 3680.15 1170.5 3636.5 1126.85 3636.5 1073Z" stroke="#000000" stroke-width="1.14583" stroke-miterlimit="8" stroke-dasharray="4.58333 3.4375" fill="none" fill-rule="evenodd"/><path d="M3690.5 1073C3690.5 1048.98 3709.98 1029.5 3734 1029.5 3758.02 1029.5 3777.5 1048.98 3777.5 1073 3777.5 1097.02 3758.02 1116.5 3734 1116.5 3709.98 1116.5 3690.5 1097.02 3690.5 1073Z" stroke="#000000" stroke-width="1.14583" stroke-miterlimit="8" stroke-dasharray="4.58333 3.4375" fill="none" fill-rule="evenodd"/><path d="M0 0 194.882 0.000360892" stroke="#000000" stroke-width="1.14583" stroke-miterlimit="8" stroke-dasharray="4.58333 3.4375" fill="none" fill-rule="evenodd" transform="matrix(-1 0 0 1 3831.38 1072.5)"/><path d="M3641.5 1042.73 3708.34 1037.46 3734 975.5 3759.66 1037.46 3826.5 1042.73 3775.52 1086.28 3791.17 1151.5 3734 1116.46 3676.83 1151.5 3692.48 1086.28Z" stroke="#000000" stroke-width="1.14583" stroke-miterlimit="8" stroke-dasharray="4.58333 3.4375" fill="none" fill-rule="evenodd"/><path d="M0 0 751.538 0.000360892" stroke="#000000" stroke-width="1.14583" stroke-miterlimit="8" stroke-dasharray="4.58333 3.4375" fill="none" fill-rule="evenodd" transform="matrix(1 0 0 -1 2752.5 829.5)"/><path d="M3513.5 1073.5 3944.72 1073.5" stroke="#000000" stroke-width="1.14583" stroke-miterlimit="8" stroke-dasharray="4.58333 3.4375" fill="none" fill-rule="evenodd"/><path d="M0 0 0.000360892 468.52" stroke="#000000" stroke-width="1.14583" stroke-miterlimit="8" stroke-dasharray="4.58333 3.4375" fill="none" fill-rule="evenodd" transform="matrix(-1 0 0 1 4019.5 508.5)"/><path d="M3508.5 674.5 4186.34 674.877" stroke="#000000" stroke-width="1.14583" stroke-miterlimit="8" stroke-dasharray="4.58333 3.4375" fill="none" fill-rule="evenodd"/><path d="M3346.5 233.008 3437.89 179.431 3378.78 91.4841 3477.63 129.574 3509.5 28.5 3541.37 129.574 3640.22 91.4841 3581.11 179.431 3672.5 233.008 3566.92 241.603 3582.04 346.502 3509.5 269.272 3436.96 346.502 3452.08 241.603Z" stroke="#000000" stroke-width="1.14583" stroke-miterlimit="8" stroke-dasharray="4.58333 3.4375" fill="none" fill-rule="evenodd"/><path d="M3342.5 195.5C3342.5 103.269 3417.27 28.5 3509.5 28.5 3601.73 28.5 3676.5 103.269 3676.5 195.5 3676.5 287.732 3601.73 362.5 3509.5 362.5 3417.27 362.5 3342.5 287.732 3342.5 195.5Z" stroke="#000000" stroke-width="1.14583" stroke-miterlimit="8" stroke-dasharray="4.58333 3.4375" fill="none" fill-rule="evenodd"/><path d="M3435.5 195.5C3435.5 154.631 3468.63 121.5 3509.5 121.5 3550.37 121.5 3583.5 154.631 3583.5 195.5 3583.5 236.369 3550.37 269.5 3509.5 269.5 3468.63 269.5 3435.5 236.369 3435.5 195.5Z" stroke="#000000" stroke-width="1.14583" stroke-miterlimit="8" stroke-dasharray="4.58333 3.4375" fill="none" fill-rule="evenodd"/><path d="M0 0 441.016 0.000360892" stroke="#000000" stroke-width="1.14583" stroke-miterlimit="8" stroke-dasharray="4.58333 3.4375" fill="none" fill-rule="evenodd" transform="matrix(-1 0 0 1 3783.52 195.5)"/><path d="M3346.5 1807.36 3437.89 1753.96 3378.78 1666.29 3477.63 1704.26 3509.5 1603.5 3541.37 1704.26 3640.22 1666.29 3581.11 1753.96 3672.5 1807.36 3566.92 1815.93 3582.04 1920.5 3509.5 1843.51 3436.96 1920.5 3452.08 1815.93Z" stroke="#000000" stroke-width="1.14583" stroke-miterlimit="8" stroke-dasharray="4.58333 3.4375" fill="none" fill-rule="evenodd"/><path d="M3342.5 1770C3342.5 1678.04 3417.27 1603.5 3509.5 1603.5 3601.73 1603.5 3676.5 1678.04 3676.5 1770 3676.5 1861.96 3601.73 1936.5 3509.5 1936.5 3417.27 1936.5 3342.5 1861.96 3342.5 1770Z" stroke="#000000" stroke-width="1.14583" stroke-miterlimit="8" stroke-dasharray="4.58333 3.4375" fill="none" fill-rule="evenodd"/><path d="M3435.5 1770C3435.5 1728.85 3468.63 1695.5 3509.5 1695.5 3550.37 1695.5 3583.5 1728.85 3583.5 1770 3583.5 1811.15 3550.37 1844.5 3509.5 1844.5 3468.63 1844.5 3435.5 1811.15 3435.5 1770Z" stroke="#000000" stroke-width="1.14583" stroke-miterlimit="8" stroke-dasharray="4.58333 3.4375" fill="none" fill-rule="evenodd"/><path d="M0 0 460.781 0.000360892" stroke="#000000" stroke-width="1.14583" stroke-miterlimit="8" stroke-dasharray="4.58333 3.4375" fill="none" fill-rule="evenodd" transform="matrix(-1 0 0 1 3803.28 1770.5)"/><path d="M3509.5-194.5 3509.5 2403.13" stroke="#000000" stroke-width="1.14583" stroke-miterlimit="8" stroke-dasharray="4.58333 3.4375" fill="none" fill-rule="evenodd"/><path d="M520.5-194.5 520.5 2238.33" stroke="#000000" stroke-width="1.14583" stroke-miterlimit="8" stroke-dasharray="4.58333 3.4375" fill="none" fill-rule="evenodd"/><path d="M22.418-239.792 2138.35-239.791 2138.35-235.208 22.418-235.208ZM27.0002-223.75-0.499836-237.5 27.0002-251.25Z"/><text font-family="Inter 18pt 18pt,Inter 18pt 18pt_MSFontService,sans-serif" font-weight="400" font-size="55" transform="matrix(1 0 0 1 2154.69 -218)">width (w)= 36</text><path d="M3118.5-194.5 3118.5 2369.88" stroke="#000000" stroke-width="1.14583" stroke-miterlimit="8" stroke-dasharray="4.58333 3.4375" fill="none" fill-rule="evenodd"/><text font-family="Inter 18pt 18pt,Inter 18pt 18pt_MSFontService,sans-serif" font-weight="400" font-size="55" transform="matrix(1 0 0 1 240.888 2234)">4</text><path d="M22.4168 2212.21 194.335 2212.21 194.335 2216.79 22.4168 2216.79ZM27.0001 2228.25-0.499836 2214.5 27.0002 2200.75Z"/><text font-family="Inter 18pt 18pt,Inter 18pt 18pt_MSFontService,sans-serif" font-weight="400" font-size="55" transform="matrix(1 0 0 1 1009.77 2274)">12</text><path d="M22.418 2291.21 1882.69 2291.21 1882.69 2295.79 22.418 2295.79ZM27.0002 2307.25-0.499836 2293.5 27.0002 2279.75Z"/><text font-family="Inter 18pt 18pt,Inter 18pt 18pt_MSFontService,sans-serif" font-weight="400" font-size="55" transform="matrix(1 0 0 1 1918.93 2313)">18</text><text font-family="Inter 18pt 18pt,Inter 18pt 18pt_MSFontService,sans-serif" font-weight="400" font-size="55" transform="matrix(1 0 0 1 2682.36 2351)">24</text><text font-family="Inter 18pt 18pt,Inter 18pt 18pt_MSFontService,sans-serif" font-weight="400" font-size="55" transform="matrix(1 0 0 1 3279.81 2390)">27</text><path d="M502.668 961.925 207.563 667.121 209.182 667.792 37.5 667.792 37.5 663.208 210.131 663.208 505.907 958.683ZM510.762 947.337 520.5 976.5 491.327 966.792Z"/><text font-family="Inter 18pt 18pt,Inter 18pt 18pt_MSFontService,sans-serif" font-weight="400" font-size="55" transform="matrix(1 0 0 1 12.746 466)">COMMONWEALTH STAR</text><text font-family="Inter 18pt 18pt,Inter 18pt 18pt_MSFontService,sans-serif" font-weight="400" font-size="55" transform="matrix(1 0 0 1 12.746 532)">Outer diameter (d) = ³⁄₁₀ (h) </text><text font-family="Inter 18pt 18pt,Inter 18pt 18pt_MSFontService,sans-serif" font-weight="400" font-size="55" transform="matrix(1 0 0 1 12.746 598)">Inner diameter = ⁴⁄₉ (d)</text><path d="M2901.69 814.892 2728.38 641.118 2730 641.792 2625.5 641.792 2625.5 637.208 2730.95 637.208 2904.94 811.656ZM2909.82 800.319 2919.5 829.5 2890.34 819.739Z"/><text font-family="Inter 18pt 18pt,Inter 18pt 18pt_MSFontService,sans-serif" font-weight="400" font-size="55" transform="matrix(1 0 0 1 2654.49 1403)">STARS ALPHA, </text><text font-family="Inter 18pt 18pt,Inter 18pt 18pt_MSFontService,sans-serif" font-weight="400" font-size="55" transform="matrix(1 0 0 1 2654.49 1469)">BETA, GAMMA &amp; </text><text font-family="Inter 18pt 18pt,Inter 18pt 18pt_MSFontService,sans-serif" font-weight="400" font-size="55" transform="matrix(1 0 0 1 2654.49 1535)">DELTA CRUCIUS</text><text font-family="Inter 18pt 18pt,Inter 18pt 18pt_MSFontService,sans-serif" font-weight="400" font-size="55" transform="matrix(1 0 0 1 2654.49 1601)">Outer diameter </text><text font-family="Inter 18pt 18pt,Inter 18pt 18pt_MSFontService,sans-serif" font-weight="400" font-size="55" transform="matrix(1 0 0 1 2654.49 1667)">(d)= ⅐(h)</text><text font-family="Inter 18pt 18pt,Inter 18pt 18pt_MSFontService,sans-serif" font-weight="400" font-size="55" transform="matrix(0.808238 0.588856 -0.588856 0.808238 2626.67 1806)">30</text><path d="M2569.37 1730.28 2634.92 1777.9 2632.22 1781.61 2566.68 1733.99ZM2563.65 1745.95 2549.48 1718.66 2579.81 1723.7Z"/><path d="M22.9167-2.29159 103.937-2.29131 103.937 2.29203 22.9167 2.29175ZM27.5 13.7501 0 0 27.5-13.7499Z" transform="matrix(-0.809017 -0.587785 -0.587785 0.809017 2785.07 1894.69)"/><text font-family="Inter 18pt 18pt,Inter 18pt 18pt_MSFontService,sans-serif" font-weight="400" font-size="55" transform="matrix(0.809017 -0.587785 0.587785 0.809017 2670.46 174)">30</text><path d="M2581.51 205.225 2647.05 157.602 2649.75 161.31 2584.2 208.933ZM2594.64 215.509 2564.31 220.549 2578.48 193.261Z"/><path d="M22.9167-2.29159 103.937-2.29131 103.937 2.29203 22.9167 2.29175ZM27.5 13.7501 0 0 27.5-13.7499Z" transform="matrix(-0.809017 0.587785 0.587785 0.809017 2800.35 46.3014)"/><text font-family="Inter 18pt 18pt,Inter 18pt 18pt_MSFontService,sans-serif" font-weight="400" font-size="55" transform="matrix(0.898856 0.438244 -0.438244 0.898856 4121.84 1887)">≈40.25</text><path d="M22.9167-2.29159 103.937-2.29131 103.937 2.29203 22.9167 2.29175ZM27.5 13.7501 0 0 27.5-13.7499Z" transform="matrix(-0.898794 -0.438371 -0.438371 0.898794 4408.06 2009.05)"/><path d="M4042.13 1826.78 4114.95 1862.3 4112.94 1866.41 4040.12 1830.9ZM4039.21 1843.21 4020.53 1818.79 4051.27 1818.49Z"/><text font-family="Inter 18pt 18pt,Inter 18pt 18pt_MSFontService,sans-serif" font-weight="400" font-size="55" transform="matrix(0.891006 -0.45399 0.45399 0.891006 4150.39 93)">≈40.25</text><path d="M22.9167-2.29159 103.937-2.29131 103.937 2.29203 22.9167 2.29175ZM27.5 13.7501 0 0 27.5-13.7499Z" transform="matrix(-0.891007 0.45399 0.45399 0.891007 4407.91 -60.4818)"/><path d="M4055.22 114.909 4127.41 78.1265 4129.49 82.2103 4057.3 118.992ZM4066.58 127.121 4035.84 127.354 4054.1 102.618Z"/><path d="M3490.71 1755.87 3368.57 1633.12 3370.2 1633.79 2990.51 1634.66 2990.5 1630.07 3371.14 1629.21 3493.96 1752.64ZM3498.85 1741.31 3508.5 1770.5 3479.36 1760.7Z"/><text font-family="Inter 18pt 18pt,Inter 18pt 18pt_MSFontService,sans-serif" font-weight="400" font-size="55" transform="matrix(1 0 0 1 2481.59 479)">ALL STARS</text><text font-family="Inter 18pt 18pt,Inter 18pt 18pt_MSFontService,sans-serif" font-weight="400" font-size="55" transform="matrix(1 0 0 1 2481.59 545)">Inner diameter </text><text font-family="Inter 18pt 18pt,Inter 18pt 18pt_MSFontService,sans-serif" font-weight="400" font-size="55" transform="matrix(1 0 0 1 2481.59 611)">= ⁴⁄₉ (d)</text><text font-family="Inter 18pt 18pt,Inter 18pt 18pt_MSFontService,sans-serif" font-weight="400" font-size="55" transform="matrix(1 0 0 1 3616.36 1974)">⅙ (h) = 3</text><path d="M2.29173 22.9167 2.29203 129.921-2.29131 129.921-2.2916 22.9167ZM-13.7499 27.5 0 0 13.7501 27.5Z" transform="matrix(1 0 0 -1 3732.5 2144.42)"/><path d="M3734.79 1792.42 3734.79 1899.42 3730.21 1899.42 3730.21 1792.42ZM3718.75 1797 3732.5 1769.5 3746.25 1797Z"/><path d="M323.5 2212.21 496.946 2212.21 496.946 2216.79 323.5 2216.79ZM492.362 2200.75 519.862 2214.5 492.362 2228.25Z"/><path d="M22.4169 2252.21 973.241 2252.21 973.241 2256.79 22.4169 2256.79ZM27.0002 2268.25-0.499836 2254.5 27.0002 2240.75Z"/><path d="M1102.5 2252.21 1536.41 2252.21 1536.41 2256.79 1102.5 2256.79ZM1531.83 2240.75 1559.33 2254.5 1531.83 2268.25Z"/><path d="M2012.5 2291.21 2316.49 2291.21 2316.49 2295.79 2012.5 2295.79ZM2311.91 2279.75 2339.41 2293.5 2311.91 2307.25Z"/><path d="M22.3976 2329.21 2652.42 2329.21 2652.42 2333.79 22.3976 2333.79ZM27.0002 2345.25-0.499836 2331.5 27.0002 2317.75Z"/><path d="M2781.5 2329.21 3095.28 2329.21 3095.28 2333.79 2781.5 2333.79ZM3090.7 2317.75 3118.2 2331.5 3090.7 2345.25Z"/><path d="M23.4135 2368.21 3255.74 2368.21 3255.74 2372.79 23.4135 2372.79ZM27.9998 2384.25 0.499836 2370.5 27.9998 2356.75Z"/><path d="M3377.5 2368.21 3485.89 2368.21 3485.89 2372.79 3377.5 2372.79ZM3481.31 2356.75 3508.81 2370.5 3481.31 2384.25Z"/><text font-family="Inter 18pt 18pt,Inter 18pt 18pt_MSFontService,sans-serif" font-weight="400" font-size="55" transform="matrix(1 0 0 1 3998.03 2390)">½(h)=</text><text font-family="Inter 18pt 18pt,Inter 18pt 18pt_MSFontService,sans-serif" font-weight="400" font-size="55" transform="matrix(1 0 0 1 4150.43 2390)">9</text><path d="M3531.42 2368.21 3982.52 2368.21 3982.52 2372.79 3531.42 2372.79ZM3536 2384.25 3508.5 2370.5 3536 2356.75Z"/><path d="M4200.5 2368.21 4654.37 2368.21 4654.37 2372.79 4200.5 2372.79ZM4649.79 2356.75 4677.29 2370.5 4649.79 2384.25Z"/><path d="M4677.5 2143.5 4677.5 2391.76" stroke="#000000" stroke-width="1.14583" stroke-miterlimit="8" stroke-dasharray="4.58333 3.4375" fill="none" fill-rule="evenodd"/><path d="M3752.34 1089.06 3874.42 1210.88 3872.79 1210.21 4001.48 1209.35 4001.52 1213.93 3871.86 1214.8 3749.1 1092.31ZM3744.25 1103.66 3734.5 1074.5 3763.68 1084.19Z"/><text font-family="Inter 18pt 18pt,Inter 18pt 18pt_MSFontService,sans-serif" font-weight="400" font-size="55" transform="matrix(1 0 0 1 3875.14 1288)">STAR EPSILON </text><text font-family="Inter 18pt 18pt,Inter 18pt 18pt_MSFontService,sans-serif" font-weight="400" font-size="55" transform="matrix(1 0 0 1 3875.14 1354)">CRUCIUS</text><text font-family="Inter 18pt 18pt,Inter 18pt 18pt_MSFontService,sans-serif" font-weight="400" font-size="55" transform="matrix(1 0 0 1 3875.14 1420)">5</text><text font-family="Inter 18pt 18pt,Inter 18pt 18pt_MSFontService,sans-serif" font-weight="400" font-size="55" transform="matrix(1 0 0 1 3922.69 1420)">Points</text><text font-family="Inter 18pt 18pt,Inter 18pt 18pt_MSFontService,sans-serif" font-weight="400" font-size="55" transform="matrix(1 0 0 1 3875.14 1486)">Outer diameter</text><text font-family="Inter 18pt 18pt,Inter 18pt 18pt_MSFontService,sans-serif" font-weight="400" font-size="55" transform="matrix(1 0 0 1 3875.14 1552)">(d) = ⅟₁₂ (h)</text><text font-family="Inter 18pt 18pt,Inter 18pt 18pt_MSFontService,sans-serif" font-weight="400" font-size="55" transform="matrix(1 0 0 1 3131.72 922)">⅟₁₆ (h)</text><path d="M2.29188 22.9166 2.29203 39.4044-2.29131 39.4044-2.29146 22.9167ZM-13.7497 27.5001 0 0 13.7503 27.4999Z" transform="matrix(1 0 0 -1 3207.5 975.904)"/><path d="M3209.79 852.417 3209.79 869.976 3205.21 869.976 3205.21 852.417ZM3193.75 857 3207.5 829.5 3221.25 857Z"/><text font-family="Inter 18pt 18pt,Inter 18pt 18pt_MSFontService,sans-serif" font-weight="400" font-size="55" transform="matrix(1 0 0 1 3654.11 845)">³¹⁄₂₄₀ (h)</text><path d="M2.29174 22.9167 2.29203 117.2-2.29131 117.2-2.2916 22.9167ZM-13.7499 27.5 0 0 13.7501 27.5Z" transform="matrix(1 0 0 -1 3758.5 975.7)"/><path d="M3760.79 697.417 3760.79 792.322 3756.21 792.322 3756.21 697.417ZM3744.75 702 3758.5 674.5 3772.25 702Z"/><text font-family="Inter 18pt 18pt,Inter 18pt 18pt_MSFontService,sans-serif" font-weight="400" font-size="55" transform="matrix(1 0 0 1 61.9926 1550)">INNER TRIANGLE</text><text font-family="Inter 18pt 18pt,Inter 18pt 18pt_MSFontService,sans-serif" font-weight="400" font-size="55" transform="matrix(1 0 0 1 61.9926 1616)">base = (h)</text><text font-family="Inter 18pt 18pt,Inter 18pt 18pt_MSFontService,sans-serif" font-weight="400" font-size="55" transform="matrix(1 0 0 1 61.9926 1682)">height = </text><text font-family="Inter 18pt 18pt,Inter 18pt 18pt_MSFontService,sans-serif" font-weight="400" font-size="55" transform="matrix(1 0 0 1 287.722 1682)">⅔</text><text font-family="Inter 18pt 18pt,Inter 18pt 18pt_MSFontService,sans-serif" font-weight="400" font-size="55" transform="matrix(1 0 0 1 354.18 1682)">(h)</text><text font-family="Inter 18pt 18pt,Inter 18pt 18pt_MSFontService,sans-serif" font-weight="400" font-size="55" transform="matrix(1 0 0 1 1729.29 285)">OUTER TRIANGLE</text><text font-family="Inter 18pt 18pt,Inter 18pt 18pt_MSFontService,sans-serif" font-weight="400" font-size="55" transform="matrix(1 0 0 1 1729.29 351)">base = (h)</text><text font-family="Inter 18pt 18pt,Inter 18pt 18pt_MSFontService,sans-serif" font-weight="400" font-size="55" transform="matrix(1 0 0 1 1729.29 417)">height = (h)</text><text font-family="Inter 18pt 18pt,Inter 18pt 18pt_MSFontService,sans-serif" font-weight="400" font-size="55" transform="matrix(1 0 0 1 3959.8 1038)">⅟₂₄ (h)</text><path d="M3917.79 998.417 3917.79 1050.02 3913.21 1050.02 3913.21 998.417ZM3901.75 1003 3915.5 975.5 3929.25 1003ZM3929.25 1045.44 3915.5 1072.94 3901.75 1045.44Z"/><text font-family="Inter 18pt 18pt,Inter 18pt 18pt_MSFontService,sans-serif" font-weight="400" font-size="55" transform="matrix(1 0 0 1 3712.7 527)">⅑(h)</text><path d="M3531.42 505.208 3690.39 505.209 3690.39 509.792 3531.42 509.792ZM3536 521.25 3508.5 507.5 3536 493.75Z"/><path d="M3997.36 510.45 3840.49 509.792 3840.51 505.208 3997.38 505.867ZM3992.84 494.389 4020.28 508.254 3992.73 521.889Z"/><text font-family="Inter 18pt 18pt,Inter 18pt 18pt_MSFontService,sans-serif" font-weight="400" font-size="55" transform="matrix(1 0 0 1 3158.18 683)">¼(h)</text><path d="M2942.42 661.208 3133.87 661.209 3133.87 665.792 2942.42 665.792ZM2947 677.25 2919.5 663.5 2947 649.75Z"/><path d="M22.9166-2.29163 214.37-2.29131 214.37 2.29203 22.9166 2.29171ZM27.5 13.75 0 0 27.5-13.75Z" transform="matrix(-1 0 0 1 3508.87 663.5)"/><text font-family="Inter 18pt 18pt,Inter 18pt 18pt_MSFontService,sans-serif" font-weight="400" font-size="55" transform="matrix(1 0 0 1 3557.05 1263)">⅒(h)</text><path d="M3531.42 1243.21 3552.37 1243.21 3552.37 1247.79 3531.42 1247.79ZM3536 1259.25 3508.5 1245.5 3536 1231.75Z"/><path d="M22.9167-2.29147 41.2114-2.29131 41.2114 2.29203 22.9166 2.29187ZM27.4999 13.7502 0 0 27.5001-13.7498Z" transform="matrix(-1 0 0 1 3732.71 1243.5)"/><text font-family="Inter 18pt 18pt,Inter 18pt 18pt_MSFontService,sans-serif" font-weight="400" font-size="55" transform="matrix(6.12323e-17 1 -1 6.12323e-17 4707.02 1458)">½(h) =</text><text font-family="Inter 18pt 18pt,Inter 18pt 18pt_MSFontService,sans-serif" font-weight="400" font-size="55" transform="matrix(6.12323e-17 1 -1 6.12323e-17 4707.02 1626)">9</text><path d="M4729.79 998.417 4729.79 1450.99 4725.21 1450.99 4725.21 998.417ZM4713.75 1003 4727.5 975.5 4741.25 1003Z"/><path d="M4729.79 1667.5 4729.79 2120.35 4725.21 2120.35 4725.21 1667.5ZM4741.25 2115.77 4727.5 2143.27 4713.75 2115.77Z"/><path d="M3.84828e-07-2.29167 2126.22-2.29131 2126.22 2.29202-3.84828e-07 2.29167ZM2121.63-13.7496 2149.13 0.000360892 2121.63 13.7504Z" transform="matrix(1 0 0 -1 2528.5 -237.5)"/><path d="M-49.2084-171.583-49.208 691.62-53.7914 691.62-53.7917-171.583ZM-65.2501-167-51.5001-194.5-37.7501-167Z"/><path d="M196.231 124.347 74.4397 1.6142 76.0664 2.29167 0 2.29167 0-2.29167 77.0208-2.29167 199.485 121.119ZM204.39 109.794 214 139 184.87 129.165Z" transform="matrix(-1 0 0 1 1814.5 445.5)"/><text font-family="Inter 18pt 18pt,Inter 18pt 18pt_MSFontService,sans-serif" font-weight="400" font-size="55" transform="matrix(1 0 0 1 3616.36 19)">⅙ (h) = 3</text><path d="M2.29173 22.9167 2.29203 129.921-2.29131 129.921-2.2916 22.9167ZM-13.7499 27.5 0 0 13.7501 27.5Z" transform="matrix(1 0 0 -1 3732.5 195.421)"/><path d="M3734.79-169.583 3734.79-62.5788 3730.21-62.5787 3730.21-169.583ZM3718.75-165 3732.5-192.5 3746.25-165Z"/><text font-family="Inter 18pt 18pt,Inter 18pt 18pt_MSFontService,sans-serif" font-style="italic" font-weight="400" font-size="37" transform="matrix(1 0 0 1 3158.71 1783)">α</text><text font-family="Inter 18pt 18pt,Inter 18pt 18pt_MSFontService,sans-serif" font-weight="400" font-size="37" transform="matrix(1 0 0 1 3193.09 1783)">CRUCIS</text><text font-family="Inter 18pt 18pt,Inter 18pt 18pt_MSFontService,sans-serif" font-style="italic" font-weight="400" font-size="37" transform="matrix(1 0 0 1 2828.63 1050)">β</text><text font-family="Inter 18pt 18pt,Inter 18pt 18pt_MSFontService,sans-serif" font-weight="400" font-size="37" transform="matrix(1 0 0 1 2860.71 1050)">CRUCIS</text><text font-family="Inter 18pt 18pt,Inter 18pt 18pt_MSFontService,sans-serif" font-style="italic" font-weight="400" font-size="37" transform="matrix(1 0 0 1 3843.25 1118)">ε</text><text font-family="Inter 18pt 18pt,Inter 18pt 18pt_MSFontService,sans-serif" font-weight="400" font-size="37" transform="matrix(1 0 0 1 3872.46 1118)">CRUCIS</text><text font-family="Inter 18pt 18pt,Inter 18pt 18pt_MSFontService,sans-serif" font-style="italic" font-weight="400" font-size="37" transform="matrix(1 0 0 1 3164.27 207)">γ</text><text font-family="Inter 18pt 18pt,Inter 18pt 18pt_MSFontService,sans-serif" font-weight="400" font-size="37" transform="matrix(1 0 0 1 3194.63 207)">CRUCIS</text><text font-family="Inter 18pt 18pt,Inter 18pt 18pt_MSFontService,sans-serif" font-style="italic" font-weight="400" font-size="37" transform="matrix(1 0 0 1 4204.34 687)">δ</text><text font-family="Inter 18pt 18pt,Inter 18pt 18pt_MSFontService,sans-serif" font-weight="400" font-size="37" transform="matrix(1 0 0 1 4235.85 687)">CRUCIS</text><path d="M0.499836 2143.5 0.500197 2391.76" stroke="#000000" stroke-width="1.14583" stroke-miterlimit="8" stroke-dasharray="4.58333 3.4375" fill="none" fill-rule="evenodd"/><text font-family="Inter 18pt 18pt,Inter 18pt 18pt_MSFontService,sans-serif" font-weight="400" font-size="55" transform="matrix(6.12323e-17 1 -1 6.12323e-17 4707.02 290)">½(h) =</text><text font-family="Inter 18pt 18pt,Inter 18pt 18pt_MSFontService,sans-serif" font-weight="400" font-size="55" transform="matrix(6.12323e-17 1 -1 6.12323e-17 4707.02 457)">9</text><path d="M4729.79-169.583 4729.79 282.989 4725.21 282.989 4725.21-169.583ZM4713.75-165 4727.5-192.5 4741.25-165Z"/><path d="M4729.79 499.5 4729.79 952.353 4725.21 952.353 4725.21 499.5ZM4741.25 947.77 4727.5 975.27 4713.75 947.77Z"/></g></svg>