<svg width="2340" height="1172" xmlns="http://www.w3.org/2000/svg" xmlns:xlink="http://www.w3.org/1999/xlink" xml:space="preserve" overflow="hidden"><defs><clipPath id="clip0"><rect x="1028" y="650" width="2340" height="1172"/></clipPath></defs><g clip-path="url(#clip0)" transform="translate(-1028 -650)"><rect x="1030" y="653" width="2338" height="1169" fill="#6BA4B8"/><path d="M1030 650 2199 1234.5 1030 1819Z" fill="#F2F2F2" fill-rule="evenodd"/><path d="M1028 650 1873 1234.5 1028 1819Z" fill="#C8102E" fill-rule="evenodd"/><path d="M1345.3 983.937 1393.56 1134.07 1540.97 1078.22 1453.74 1209.57 1589.3 1290.06 1432.26 1303.72 1453.89 1459.94 1345.3 1345.62 1236.71 1459.94 1258.33 1303.72 1101.3 1290.06 1236.85 1209.57 1149.62 1078.22 1297.04 1134.07Z" fill="#FFFFFF" fill-rule="evenodd"/><path d="M3225 1534C3225 1641.7 3137.7 1729 3030 1729 2922.3 1729 2835 1641.7 2835 1534 2835 1426.3 2922.3 1339 3030 1339 3137.7 1339 3225 1426.3 3225 1534Z" fill="#012169" fill-rule="evenodd"/><path d="M3161 1534.5C3161 1606.57 3102.57 1665 3030.5 1665 2958.43 1665 2900 1606.57 2900 1534.5 2900 1462.43 2958.43 1404 3030.5 1404 3102.57 1404 3161 1462.43 3161 1534.5Z" fill="#FFFFFF" fill-rule="evenodd"/><path d="M2975.43 1517.03C2975.43 1517.03 2976.76 1516.8 2977.87 1515.8 2978.7 1515.03 2979.52 1512.91 2979.52 1512.91 2979.52 1512.91 2984.63 1500.44 2992.94 1493.46 3006.11 1482.4 3015.27 1481.58 3015.27 1481.58 3015.27 1481.58 3027.83 1478.03 3037.61 1481.57 3051.3 1486.53 3058.47 1493.25 3058.47 1493.25 3058.47 1493.25 3066.2 1499.4 3066.92 1500.32 3067.61 1501.19 3077.18 1509.27 3077.18 1509.27L3081.49 1513.23C3081.49 1513.23 3108.13 1535.4 3121.07 1536.89 3144.05 1539.55 3145.7 1520.25 3145.7 1520.25 3145.7 1520.25 3146.1 1515.95 3147.91 1516.08 3150.24 1516.24 3153.8 1535.31 3138.29 1544.24 3125.95 1551.32 3104.17 1544.87 3104.17 1544.87 3104.17 1544.87 3092.14 1540.58 3085.42 1536.82 3078.61 1533.01 3070.26 1527.79 3070.26 1527.79 3070.26 1527.79 3070.14 1527.4 3067.03 1526.73 3064.81 1526.26 3062.35 1528.94 3062.35 1528.94 3062.35 1528.94 3052.55 1536.88 3048.02 1540.3 3042.92 1544.13 3028.36 1550.66 3028.36 1550.66 3028.36 1550.66 3023.84 1561.52 3022.98 1570.14 3021.61 1583.9 3022.77 1589.92 3022.77 1589.92 3022.77 1589.92 3023.27 1594.82 3021.92 1596.79 3020.3 1599.19 3015.58 1601.16 3015.58 1601.16 3015.58 1601.16 3007.65 1604.94 3000.09 1609.43 2991.92 1614.28 2982.46 1623.18 2982.46 1623.18 2982.46 1623.18 2980.3 1625.41 2978.83 1625.72 2977.36 1626.03 2977.56 1623.24 2977.56 1623.24 2977.56 1623.24 2974.37 1625.63 2972.8 1625.78 2971.23 1625.93 2971.4 1623.48 2971.4 1623.48 2971.4 1623.48 2970.13 1624.03 2968.91 1624.96 2968.11 1625.57 2965.97 1628 2965.97 1628 2965.97 1628 2964.89 1626.95 2966.62 1623.78 2967.23 1622.65 2969.67 1620.53 2969.67 1620.53 2969.67 1620.53 2970.47 1619.77 2970.77 1619.31 2971.2 1618.66 2971.35 1617.97 2971.35 1617.97 2971.35 1617.97 2972.39 1614.99 2975.88 1612.15 2977.39 1610.91 2981.44 1609.03 2981.44 1609.03 2981.44 1609.03 3005 1602.88 3010.01 1585.32 3013.19 1574.18 3013.48 1551.89 3013.48 1551.89 3013.48 1551.89 3013.41 1551.35 3012.9 1550.83 3012.41 1550.31 3012.11 1550.02 3012.11 1550.02L3008.32 1546.22C3008.32 1546.22 3007.87 1545.75 3007.04 1545.53 3006.29 1545.33 3005.4 1545.6 3005.4 1545.6 3005.4 1545.6 3003.24 1546.16 3001.81 1546.38 3000.22 1546.62 2998.28 1546.07 2998.28 1546.07 2998.28 1546.07 2996.6 1545.26 2995.45 1546.18 2994.59 1546.87 2995.12 1548.11 2995.12 1548.11 2995.12 1548.11 2997.64 1555.81 2997.84 1556.63 2998.18 1558.12 2999.44 1564.62 2999.44 1564.62L3001.91 1568.57C3001.91 1568.57 3002.76 1568.41 3002.97 1568.34 3003.17 1568.28 3004.15 1568.05 3004.15 1568.05 3004.15 1568.05 3004.29 1564.61 3005.62 1564.47 3007.66 1564.26 3007.27 1571.79 3007.27 1571.79 3007.27 1571.79 3007.2 1572.17 3006.89 1572.49 3006.52 1572.87 3006 1573.09 3006 1573.09 3006 1573.09 3004.22 1573.57 3003.31 1573.86 3001.68 1574.37 2999.85 1574.81 2997.79 1573.67 2996.81 1573.13 2995.67 1571.58 2995.67 1571.58 2995.67 1571.58 2990.75 1564.12 2990.48 1563.81 2990.23 1563.5 2984.75 1556.06 2981.72 1554.83 2979.73 1554 2976.66 1553.39 2976.66 1553.39 2976.66 1553.39 2973.49 1552.62 2972.32 1552.35 2968.86 1551.56 2965.72 1549.77 2965.72 1549.77 2965.72 1549.77 2957.85 1543.86 2955.46 1541.73 2954.09 1540.51 2946.17 1534.05 2945.69 1533.73 2945.13 1533.36 2944.16 1533.66 2944.16 1533.66 2944.16 1533.66 2941.19 1534.48 2938.18 1534.03 2936.39 1533.77 2933.92 1533.32 2931.95 1533.2 2931.21 1533.15 2928.77 1533.39 2928.06 1533.42 2926.22 1533.53 2921.38 1534.73 2918.96 1532.82 2917.14 1531.38 2915.86 1527.94 2916.01 1526.59 2916.24 1524.7 2917.4 1523.96 2917.4 1523.96 2917.4 1523.96 2919 1522.82 2921.36 1521.45 2924.55 1519.59 2926.42 1518.96 2926.42 1518.96 2926.42 1518.96 2928.41 1518.4 2929.52 1517.98 2930.62 1517.57 2932.12 1516.2 2932.12 1516.2 2932.12 1516.2 2935.6 1513.22 2937.38 1512.31 2938.69 1511.63 2941.72 1510.62 2941.72 1510.62 2941.72 1510.62 2944.24 1509.84 2944.46 1509.74 2946.06 1508.98 2947.28 1507.71 2947.28 1507.71 2947.28 1507.71 2952.02 1501.3 2958.11 1498.99 2958.75 1498.75 2960.46 1498.21 2962.12 1497.7 2964.1 1497.1 2966.03 1496.52 2966.03 1496.52 2966.03 1496.52 2967.31 1495.93 2967.92 1496.57 2968.51 1497.2 2967.45 1498.7 2967.45 1498.7 2967.45 1498.7 2964.11 1505.43 2959.74 1508.86 2958.22 1510.06 2954.32 1511.17 2954.32 1511.17 2954.32 1511.17 2952.69 1511.76 2952.69 1512.51 2952.71 1513.46 2953.84 1514.01 2953.84 1514.01L2960.39 1518.9C2960.39 1518.9 2961.41 1519.53 2961.87 1519.68 2962.83 1519.97 2963.83 1519.61 2963.83 1519.61 2963.83 1519.61 2968.57 1518.44 2968.98 1518.35 2969.4 1518.24 2975.43 1517.03 2975.43 1517.03" fill="#E4002B" fill-rule="evenodd"/><path d="M2673.89 841.483 2734.69 821.61 2714.58 760.361 2767.39 796.135 2802.12 741.571 2807.17 806.054 2870.6 799.262 2824.08 843.896 2868.44 889.991 2805.39 881.167 2797.28 945.438 2765.16 889.8 2710.69 923.851 2733.7 863.295Z" fill="#F2F2F2" fill-rule="evenodd"/><path d="M2736.36 1280.18 2775.22 1285.56 2799.37 1255.18 2806.44 1293.34 2843.28 1306.84 2808.78 1325.04 2807.39 1363.76 2779.01 1336.85 2741.32 1347.28 2758.27 1312.45Z" fill="#F2F2F2" fill-rule="evenodd"/><path d="M2480.4 1618.66 2541.21 1598.79 2521.1 1537.54 2573.91 1573.31 2608.64 1518.75 2613.69 1583.23 2677.12 1576.44 2630.6 1621.07 2674.96 1667.17 2611.9 1658.35 2603.79 1722.62 2571.68 1666.98 2517.21 1701.03 2540.22 1640.47Z" fill="#F2F2F2" fill-rule="evenodd"/><path d="M2300.7 1084.05 2361.51 1064.17 2341.39 1002.92 2394.2 1038.7 2428.94 984.134 2433.99 1048.62 2497.41 1041.82 2450.89 1086.46 2495.26 1132.55 2432.2 1123.73 2424.09 1188 2391.98 1132.36 2337.51 1166.41 2360.52 1105.86Z" fill="#F2F2F2" fill-rule="evenodd"/><path d="M2874.92 1145.56 2935.73 1125.69 2915.62 1064.44 2968.43 1100.21 3003.16 1045.65 3008.21 1110.13 3071.64 1103.34 3025.12 1147.98 3069.48 1194.07 3006.42 1185.25 2998.31 1249.52 2966.2 1193.88 2911.73 1227.93 2934.74 1167.37Z" fill="#F2F2F2" fill-rule="evenodd"/></g></svg>
