<svg width="2340" height="1172" xmlns="http://www.w3.org/2000/svg" xmlns:xlink="http://www.w3.org/1999/xlink" xml:space="preserve" overflow="hidden"><defs><clipPath id="clip0"><rect x="1028" y="650" width="2340" height="1172"/></clipPath></defs><g clip-path="url(#clip0)" transform="translate(-1028 -650)"><rect x="1030" y="653" width="2338" height="1169" fill="#F2F2F2"/><path d="M2687 874.978 2741.33 840.982 2706.91 786.415 2766.95 808.351 2787.5 747 2808.05 808.351 2868.09 786.415 2833.67 840.982 2888 874.978 2824.53 881.671 2832.23 946.001 2787.5 899.78 2742.77 946.001 2750.47 881.671Z" fill="#012169" fill-rule="evenodd"/><path d="M2853 1274.34 2891.94 1270.18 2908 1235 2924.06 1270.18 2963 1274.34 2933.98 1300.25 2941.99 1338 2908 1318.83 2874.01 1338 2882.02 1300.25Z" fill="#012169" fill-rule="evenodd"/><path d="M2687 1656.98 2741.33 1622.98 2706.91 1568.41 2766.95 1590.35 2787.5 1529 2808.05 1590.35 2868.09 1568.41 2833.67 1622.98 2888 1656.98 2824.53 1663.67 2832.23 1728 2787.5 1681.78 2742.77 1728 2750.47 1663.67Z" fill="#012169" fill-rule="evenodd"/><path d="M2391 1194.98 2445.33 1160.98 2410.91 1106.41 2470.95 1128.35 2491.5 1067 2512.05 1128.35 2572.09 1106.41 2537.67 1160.98 2592 1194.98 2528.53 1201.67 2536.23 1266 2491.5 1219.78 2446.77 1266 2454.47 1201.67Z" fill="#012169" fill-rule="evenodd"/><path d="M2955 1114.98 3009.33 1080.98 2974.91 1026.41 3034.95 1048.35 3055.5 987 3076.05 1048.35 3136.09 1026.41 3101.67 1080.98 3156 1114.98 3092.53 1121.67 3100.23 1186 3055.5 1139.78 3010.77 1186 3018.47 1121.67Z" fill="#012169" fill-rule="evenodd"/><path d="M1030 650 2199 1234.5 1030 1819Z" fill="#C8102E" fill-rule="evenodd"/><path d="M1028 650 1873 1234.5 1028 1819Z" fill="#012169" fill-rule="evenodd"/><path d="M1345.3 983.937 1393.56 1134.07 1540.97 1078.22 1453.74 1209.57 1589.3 1290.06 1432.26 1303.72 1453.89 1459.94 1345.3 1345.62 1236.71 1459.94 1258.33 1303.72 1101.3 1290.06 1236.85 1209.57 1149.62 1078.22 1297.04 1134.07Z" fill="#FFFFFF" fill-rule="evenodd"/></g></svg>