<svg width="2338" height="1169" xmlns="http://www.w3.org/2000/svg" xmlns:xlink="http://www.w3.org/1999/xlink" xml:space="preserve" overflow="hidden"><defs><clipPath id="clip0"><rect x="1031" y="653" width="2338" height="1169"/></clipPath></defs><g clip-path="url(#clip0)" transform="translate(-1031 -653)"><rect x="1810" y="653" width="1559" height="1169" fill="#73BAF5"/><rect x="0" y="0" width="779" height="1169" fill="#003087" transform="matrix(-1 1.22465e-16 1.22465e-16 1 1810 653)"/><path d="M1506 1271.23 1539.6 1268.63 1552.5 1238 1565.4 1268.63 1599 1271.23 1573.37 1292.76 1581.24 1325 1552.5 1307.68 1523.76 1325 1531.63 1292.76Z" fill="#FFFFFF" fill-rule="evenodd"/><path d="M1441.25 1551 1453.49 1598.77 1493.77 1570.34 1473.82 1615.79 1522 1620.82 1479.09 1641.12 1512.97 1677.67 1466.1 1665.49 1468.92 1715 1441.06 1674.39 1413.4 1714.81 1416.22 1665.3 1369.92 1677.48 1403.8 1641.9 1359 1621.01 1407.94 1616.37 1388.55 1571.5 1427.7 1598.96 1441.25 1551Z" fill="#FFFFFF" fill-rule="evenodd"/><path d="M1062 1163.5 1111.47 1149.4 1086.46 1104.46 1131.4 1129.47 1145.5 1080 1159.6 1129.47 1204.54 1104.46 1179.53 1149.4 1229 1163.5 1179.53 1177.6 1204.54 1222.54 1159.6 1197.53 1145.5 1247 1131.4 1197.53 1086.46 1222.54 1111.47 1177.6Z" fill="#FFFFFF" fill-rule="evenodd"/><path d="M1625 1045.5 1676.87 1054.75 1695 1004 1713.13 1054.75 1765 1045.5 1731.27 1087 1765 1128.5 1713.13 1119.25 1695 1170 1676.87 1119.25 1625 1128.5 1658.73 1087Z" fill="#FFFFFF" fill-rule="evenodd"/><path d="M1359 867.254 1404.7 840.466 1375.14 796.492 1424.57 815.537 1440.5 765 1456.43 815.537 1505.86 796.492 1476.3 840.466 1522 867.254 1469.21 871.551 1476.77 924.001 1440.5 885.386 1404.23 924.001 1411.79 871.551Z" fill="#FFFFFF" fill-rule="evenodd"/><path d="M17.859 0C27.7223 0 35.718 7.99579 35.718 17.8591L35.5594 19.4326 35.2437 37.2775C33.5828 83.522 63.1776 131.97 54.57 131.97 45.9624 131.97 2.00449 83.522 0.343593 37.2775L0 17.8591 3.76169e-05 17.8591C3.76169e-05 7.99579 7.99577 0 17.859 0Z" stroke="#FFFFFF" stroke-width="6.875" stroke-miterlimit="8" fill="#DE0000" fill-rule="evenodd" transform="matrix(-0.34202 0.939693 0.939693 0.34202 2645.08 998.684)"/><path d="M17.8592 0C27.7225 0 35.7183 7.99579 35.7183 17.8591L35.5597 19.4326 35.2439 37.2775C33.583 83.522 63.178 131.97 54.5704 131.97 45.9627 131.97 2.0045 83.522 0.343595 37.2775L0 17.8591 3.76171e-05 17.8591C3.76171e-05 7.99579 7.99583 0 17.8592 0Z" stroke="#FFFFFF" stroke-width="6.875" stroke-miterlimit="8" fill="#DE0000" fill-rule="evenodd" transform="matrix(-0.866025 0.5 0.5 0.866025 2629 987.248)"/><path d="M17.859 0C27.7223 0 35.718 7.99579 35.718 17.8591L35.5594 19.4326 35.2437 37.2775C33.5828 83.522 63.1776 131.97 54.57 131.97 45.9624 131.97 2.00449 83.522 0.343593 37.2775L0 17.8591 3.76169e-05 17.8591C3.76169e-05 7.99579 7.99577 0 17.859 0Z" stroke="#FFFFFF" stroke-width="6.875" stroke-miterlimit="8" fill="#DE0000" fill-rule="evenodd" transform="matrix(-0.707107 0.707107 0.707107 0.707107 2664.32 1019.5)"/><path d="M17.8592 0C27.7225 0 35.7183 7.99579 35.7183 17.8591L35.5597 19.4326 35.2439 37.2775C33.583 83.522 63.178 131.97 54.5704 131.97 45.9627 131.97 2.0045 83.522 0.343595 37.2775L0 17.8591 3.76171e-05 17.8591C3.76171e-05 7.99579 7.99583 0 17.8592 0Z" stroke="#FFFFFF" stroke-width="6.875" stroke-miterlimit="8" fill="#DE0000" fill-rule="evenodd" transform="matrix(-0.866025 0.5 0.5 0.866025 2647.2 1025.26)"/><path d="M2549.64 1015.47C2553.01 1024.73 2548.23 1034.98 2538.96 1038.36L2537.43 1038.75 2520.55 1044.55C2476.53 1058.81 2441.13 1103.19 2438.18 1095.1 2435.24 1087.01 2465.73 1029.13 2508.62 1011.76L2526.75 1004.79 2526.75 1004.79C2536.02 1001.42 2546.26 1006.2 2549.64 1015.47Z" stroke="#FFFFFF" stroke-width="6.875" stroke-miterlimit="8" fill="#DE0000" fill-rule="evenodd"/><path d="M2575.07 996.177C2583.61 1001.11 2586.54 1012.03 2581.61 1020.57L2580.68 1021.86 2571.49 1037.15C2546.93 1076.37 2548.33 1133.13 2540.88 1128.82 2533.42 1124.52 2519.58 1060.58 2541.26 1019.7L2550.67 1002.71 2550.67 1002.71C2555.61 994.172 2566.53 991.246 2575.07 996.177Z" stroke="#FFFFFF" stroke-width="6.875" stroke-miterlimit="8" fill="#DE0000" fill-rule="evenodd"/><path d="M2580.51 1035.49C2580.83 1012.99 2587.9 993.5 2597.01 993.5 2606.12 993.5 2613.5 1012.3 2613.5 1035.49 2613.5 1058.68 2604.22 1128.5 2595.12 1128.5 2586.01 1128.5 2580.2 1057.99 2580.51 1035.49Z" stroke="#FFFFFF" stroke-width="6.875" stroke-miterlimit="8" fill="#DE0000" fill-rule="evenodd"/><path d="M2536.91 1032.13C2543.89 1039.1 2543.89 1050.41 2536.91 1057.38L2535.69 1058.38 2522.85 1070.78C2488.97 1102.3 2475.64 1157.49 2469.56 1151.4 2463.47 1145.32 2466.64 1079.97 2498.17 1046.1L2511.66 1032.13 2511.66 1032.13C2518.63 1025.15 2529.94 1025.15 2536.91 1032.13Z" stroke="#FFFFFF" stroke-width="6.875" stroke-miterlimit="8" fill="#DE0000" fill-rule="evenodd"/><path d="M2556.87 1034.19C2565.42 1039.12 2568.34 1050.04 2563.41 1058.58L2562.49 1059.87 2553.29 1075.16C2528.73 1114.38 2530.14 1171.14 2522.68 1166.83 2515.23 1162.53 2501.38 1098.59 2523.07 1057.71L2532.48 1040.72 2532.48 1040.72C2537.41 1032.18 2548.33 1029.25 2556.87 1034.19Z" stroke="#FFFFFF" stroke-width="6.875" stroke-miterlimit="8" fill="#DE0000" fill-rule="evenodd"/><path d="M2584.48 1033.54C2594.01 1036.09 2599.66 1045.88 2597.11 1055.41L2596.55 1056.89 2591.62 1074.04C2578.05 1118.28 2594.1 1172.74 2585.78 1170.51 2577.47 1168.28 2547.55 1110.11 2557.91 1065.01L2562.61 1046.16 2562.61 1046.16C2565.16 1036.64 2574.95 1030.98 2584.48 1033.54Z" stroke="#FFFFFF" stroke-width="6.875" stroke-miterlimit="8" fill="#DE0000" fill-rule="evenodd"/><path d="M17.8592 0C27.7225 0 35.7183 7.99579 35.7183 17.8591L35.5597 19.4326 35.2439 37.2775C33.583 83.522 63.178 131.97 54.5704 131.97 45.9627 131.97 2.0045 83.522 0.343595 37.2775L0 17.8591 3.76171e-05 17.8591C3.76171e-05 7.99579 7.99583 0 17.8592 0Z" stroke="#FFFFFF" stroke-width="6.875" stroke-miterlimit="8" fill="#DE0000" fill-rule="evenodd" transform="matrix(-0.965926 0.258819 0.258819 0.965926 2623.46 1029.09)"/><path d="M17.859 0C27.7223 0 35.718 7.99579 35.718 17.8591L35.5594 19.4326 35.2437 37.2775C33.5828 83.522 63.1776 131.97 54.57 131.97 45.9624 131.97 2.00449 83.522 0.343593 37.2775L0 17.8591 3.76169e-05 17.8591C3.76169e-05 7.99579 7.99577 0 17.859 0Z" stroke="#FFFFFF" stroke-width="6.875" stroke-miterlimit="8" fill="#DE0000" fill-rule="evenodd" transform="matrix(-0.707107 0.707107 0.707107 0.707107 2738.42 1053.5)"/><path d="M17.8592 0C27.7225 0 35.7183 7.99579 35.7183 17.8591L35.5597 19.4326 35.2439 37.2775C33.583 83.522 63.178 131.97 54.5704 131.97 45.9627 131.97 2.0045 83.522 0.343595 37.2775L0 17.8591 3.76171e-05 17.8591C3.76171e-05 7.99579 7.99583 0 17.8592 0Z" stroke="#FFFFFF" stroke-width="6.875" stroke-miterlimit="8" fill="#DE0000" fill-rule="evenodd" transform="matrix(-0.866025 0.5 0.5 0.866025 2722.54 1062.14)"/><path d="M17.8592 0C27.7225 0 35.7183 7.99579 35.7183 17.8591L35.5597 19.4326 35.2439 37.2775C33.583 83.522 63.178 131.97 54.5704 131.97 45.9627 131.97 2.0045 83.522 0.343595 37.2775L0 17.8591 3.76171e-05 17.8591C3.76171e-05 7.99579 7.99583 0 17.8592 0Z" stroke="#FFFFFF" stroke-width="6.875" stroke-miterlimit="8" fill="#DE0000" fill-rule="evenodd" transform="matrix(-0.965926 0.258819 0.258819 0.965926 2694.64 1068.8)"/><path d="M17.8592 0C27.7225 0 35.7183 7.99579 35.7183 17.8591L35.5597 19.4326 35.2439 37.2775C33.583 83.522 63.178 131.97 54.5704 131.97 45.9627 131.97 2.0045 83.522 0.343595 37.2775L0 17.8591 3.76171e-05 17.8591C3.76171e-05 7.99579 7.99583 0 17.8592 0Z" stroke="#FFFFFF" stroke-width="6.875" stroke-miterlimit="8" fill="#DE0000" fill-rule="evenodd" transform="matrix(-0.965926 0.258819 0.258819 0.965926 2655.68 1068.16)"/><path d="M2462.81 1066.13C2469.78 1073.1 2469.78 1084.41 2462.81 1091.39L2461.59 1092.39 2448.74 1104.78C2414.87 1136.31 2401.54 1191.49 2395.45 1185.4 2389.37 1179.32 2392.54 1113.98 2424.07 1080.1L2437.55 1066.13 2437.55 1066.13C2444.53 1059.15 2455.84 1059.15 2462.81 1066.13Z" stroke="#FFFFFF" stroke-width="6.875" stroke-miterlimit="8" fill="#DE0000" fill-rule="evenodd"/><path d="M2483.44 1067.06C2491.98 1071.99 2494.91 1082.91 2489.98 1091.45L2489.05 1092.74 2479.86 1108.03C2455.3 1147.25 2456.7 1204.01 2449.25 1199.7 2441.79 1195.4 2427.95 1131.46 2449.63 1090.58L2459.04 1073.6 2459.04 1073.6C2463.98 1065.05 2474.9 1062.13 2483.44 1067.06Z" stroke="#FFFFFF" stroke-width="6.875" stroke-miterlimit="8" fill="#DE0000" fill-rule="evenodd"/><path d="M2511.05 1074.33C2520.58 1076.88 2526.23 1086.68 2523.68 1096.2L2523.12 1097.68 2518.2 1114.84C2504.62 1159.08 2520.67 1213.53 2512.36 1211.31 2504.04 1209.08 2474.12 1150.9 2484.48 1105.8L2489.18 1086.96 2489.18 1086.96C2491.73 1077.43 2501.52 1071.78 2511.05 1074.33Z" stroke="#FFFFFF" stroke-width="6.875" stroke-miterlimit="8" fill="#DE0000" fill-rule="evenodd"/><path d="M2550.18 1072.78C2559.7 1075.33 2565.36 1085.13 2562.8 1094.65L2562.24 1096.13 2557.32 1113.29C2543.75 1157.53 2559.79 1211.98 2551.48 1209.76 2543.17 1207.53 2513.24 1149.35 2523.61 1104.25L2528.3 1085.41 2528.3 1085.41C2530.86 1075.88 2540.65 1070.23 2550.18 1072.78Z" stroke="#FFFFFF" stroke-width="6.875" stroke-miterlimit="8" fill="#DE0000" fill-rule="evenodd"/><path d="M2583.09 1076.87C2592.62 1079.42 2598.27 1089.21 2595.72 1098.74L2595.16 1100.22 2590.24 1117.37C2576.66 1161.61 2592.71 1216.07 2584.4 1213.84 2576.08 1211.61 2546.16 1153.44 2556.53 1108.34L2561.22 1089.49 2561.22 1089.49C2563.77 1079.97 2573.57 1074.31 2583.09 1076.87Z" stroke="#FFFFFF" stroke-width="6.875" stroke-miterlimit="8" fill="#DE0000" fill-rule="evenodd"/><path d="M17.8592 0C27.7225 0 35.7183 7.99579 35.7183 17.8591L35.5597 19.4326 35.2439 37.2775C33.583 83.522 63.178 131.97 54.5704 131.97 45.9627 131.97 2.0045 83.522 0.343595 37.2775L0 17.8591 3.76171e-05 17.8591C3.76171e-05 7.99579 7.99583 0 17.8592 0Z" stroke="#FFFFFF" stroke-width="6.875" stroke-miterlimit="8" fill="#DE0000" fill-rule="evenodd" transform="matrix(-0.965926 0.258819 0.258819 0.965926 2622.76 1072.24)"/><path d="M2580.51 1122.49C2580.83 1099.99 2587.9 1080.5 2597.01 1080.5 2606.12 1080.5 2613.5 1099.3 2613.5 1122.49 2613.5 1145.68 2604.22 1215.5 2595.12 1215.5 2586.01 1215.5 2580.2 1144.99 2580.51 1122.49Z" stroke="#FFFFFF" stroke-width="6.875" stroke-miterlimit="8" fill="#DE0000" fill-rule="evenodd"/><path d="M17.8135 0C27.6516 0 35.6269 7.99761 35.6269 17.8632L35.4687 19.437 35.1538 37.286C33.4971 83.541 63.0164 132 54.4308 132 45.8451 132 1.99938 83.541 0.342716 37.286L0 17.8632 3.75209e-05 17.8632C3.75209e-05 7.99761 7.97537 0 17.8135 0Z" stroke="#FFFFFF" stroke-width="6.875" stroke-miterlimit="8" fill="#DE0000" fill-rule="evenodd" transform="matrix(-1 0 0 1 2814.5 1118.5)"/><path d="M17.8135 0C27.6516 0 35.6269 7.99761 35.6269 17.8632L35.4687 19.437 35.1538 37.286C33.4971 83.541 63.0164 132 54.4308 132 45.8451 132 1.99938 83.541 0.342716 37.286L0 17.8632 3.75209e-05 17.8632C3.75209e-05 7.99761 7.97537 0 17.8135 0Z" stroke="#FFFFFF" stroke-width="6.875" stroke-miterlimit="8" fill="#DE0000" fill-rule="evenodd" transform="matrix(-1 0 0 1 2781.5 1118.5)"/><path d="M17.8592 0C27.7225 0 35.7183 7.99579 35.7183 17.8591L35.5597 19.4326 35.2439 37.2775C33.583 83.522 63.178 131.97 54.5704 131.97 45.9627 131.97 2.0045 83.522 0.343595 37.2775L0 17.8591 3.76171e-05 17.8591C3.76171e-05 7.99579 7.99583 0 17.8592 0Z" stroke="#FFFFFF" stroke-width="6.875" stroke-miterlimit="8" fill="#DE0000" fill-rule="evenodd" transform="matrix(-0.993784 0.111327 0.111327 0.993784 2743.29 1112.92)"/><path d="M17.8592 0C27.7225 0 35.7183 7.99579 35.7183 17.8591L35.5597 19.4326 35.2439 37.2775C33.583 83.522 63.178 131.97 54.5704 131.97 45.9627 131.97 2.0045 83.522 0.343595 37.2775L0 17.8591 3.76171e-05 17.8591C3.76171e-05 7.99579 7.99583 0 17.8592 0Z" stroke="#FFFFFF" stroke-width="6.875" stroke-miterlimit="8" fill="#DE0000" fill-rule="evenodd" transform="matrix(-0.989355 0.145521 0.145521 0.989355 2669.6 1116.79)"/><path d="M17.8592 0C27.7225 0 35.7183 7.99579 35.7183 17.8591L35.5597 19.4326 35.2439 37.2775C33.583 83.522 63.178 131.97 54.5704 131.97 45.9627 131.97 2.0045 83.522 0.343595 37.2775L0 17.8591 3.76171e-05 17.8591C3.76171e-05 7.99579 7.99583 0 17.8592 0Z" stroke="#FFFFFF" stroke-width="6.875" stroke-miterlimit="8" fill="#DE0000" fill-rule="evenodd" transform="matrix(-0.999012 0.0444508 0.0444508 0.999012 2710.76 1116.05)"/><path d="M2393.31 1118.5C2403.15 1118.5 2411.13 1126.5 2411.13 1136.36L2410.97 1137.94 2410.65 1155.79C2409 1202.04 2438.52 1250.5 2429.93 1250.5 2421.34 1250.5 2377.5 1202.04 2375.84 1155.79L2375.5 1136.36 2375.5 1136.36C2375.5 1126.5 2383.48 1118.5 2393.31 1118.5Z" stroke="#FFFFFF" stroke-width="6.875" stroke-miterlimit="8" fill="#DE0000" fill-rule="evenodd"/><path d="M2425.31 1118.5C2435.15 1118.5 2443.13 1126.5 2443.13 1136.36L2442.97 1137.94 2442.65 1155.79C2441 1202.04 2470.52 1250.5 2461.93 1250.5 2453.35 1250.5 2409.5 1202.04 2407.84 1155.79L2407.5 1136.36 2407.5 1136.36C2407.5 1126.5 2415.48 1118.5 2425.31 1118.5Z" stroke="#FFFFFF" stroke-width="6.875" stroke-miterlimit="8" fill="#DE0000" fill-rule="evenodd"/><path d="M2463.06 1114.9C2472.86 1116 2479.92 1124.84 2478.82 1134.64L2478.49 1136.19 2476.19 1153.89C2469.39 1199.66 2493.41 1251.1 2484.85 1250.14 2476.3 1249.18 2438.01 1196.14 2441.5 1150L2443.32 1130.66 2443.32 1130.66C2444.42 1120.86 2453.26 1113.81 2463.06 1114.9Z" stroke="#FFFFFF" stroke-width="6.875" stroke-miterlimit="8" fill="#DE0000" fill-rule="evenodd"/><path d="M2536.68 1119.39C2546.44 1120.82 2553.18 1129.89 2551.75 1139.65L2551.36 1141.19 2548.45 1158.8C2540.08 1204.31 2562.31 1256.55 2553.79 1255.29 2545.28 1254.04 2508.84 1199.71 2513.92 1153.72L2516.41 1134.46 2516.41 1134.46C2517.85 1124.7 2526.92 1117.95 2536.68 1119.39Z" stroke="#FFFFFF" stroke-width="6.875" stroke-miterlimit="8" fill="#DE0000" fill-rule="evenodd"/><path d="M2575.61 1124.05C2585.14 1126.6 2590.79 1136.39 2588.24 1145.92L2587.68 1147.4 2582.75 1164.55C2569.18 1208.79 2585.23 1263.25 2576.91 1261.02 2568.6 1258.79 2538.68 1200.62 2549.04 1155.52L2553.74 1136.67 2553.74 1136.67C2556.29 1127.15 2566.08 1121.49 2575.61 1124.05Z" stroke="#FFFFFF" stroke-width="6.875" stroke-miterlimit="8" fill="#DE0000" fill-rule="evenodd"/><path d="M2495.69 1116.84C2505.54 1117.28 2513.18 1125.62 2512.74 1135.48L2512.51 1137.04 2511.4 1154.86C2507.69 1200.98 2535.1 1250.7 2526.5 1250.31 2517.9 1249.93 2476.14 1199.58 2476.53 1153.3L2477.05 1133.89 2477.05 1133.89C2477.49 1124.04 2485.84 1116.4 2495.69 1116.84Z" stroke="#FFFFFF" stroke-width="6.875" stroke-miterlimit="8" fill="#DE0000" fill-rule="evenodd"/><path d="M17.8592 0C27.7225 0 35.7183 7.99579 35.7183 17.8591L35.5597 19.4326 35.2439 37.2775C33.583 83.522 63.178 131.97 54.5704 131.97 45.9627 131.97 2.0045 83.522 0.343595 37.2775L0 17.8591 3.76171e-05 17.8591C3.76171e-05 7.99579 7.99583 0 17.8592 0Z" stroke="#FFFFFF" stroke-width="6.875" stroke-miterlimit="8" fill="#DE0000" fill-rule="evenodd" transform="matrix(-0.965926 0.258819 0.258819 0.965926 2630.25 1119.42)"/><path d="M21.4307 0C33.2665 0 42.8613 9.59494 42.8613 21.4309L42.671 23.3191 42.2921 44.733C40.299 100.226 75.8125 158.364 65.4835 158.364 55.1544 158.364 2.40537 100.226 0.412308 44.733L0 21.4309 4.51399e-05 21.4309C4.51399e-05 9.59494 9.59485 0 21.4307 0Z" stroke="#FFFFFF" stroke-width="6.875" stroke-miterlimit="8" fill="#DE0000" fill-rule="evenodd" transform="matrix(-0.866025 -0.5 -0.5 0.866025 2869.42 1185.08)"/><path d="M21.4307 0C33.2665 0 42.8613 9.59494 42.8613 21.4309L42.671 23.3191 42.2921 44.733C40.299 100.226 75.8125 158.364 65.4835 158.364 55.1544 158.364 2.40537 100.226 0.412308 44.733L0 21.4309 4.51399e-05 21.4309C4.51399e-05 9.59494 9.59485 0 21.4307 0Z" stroke="#FFFFFF" stroke-width="6.875" stroke-miterlimit="8" fill="#DE0000" fill-rule="evenodd" transform="matrix(-0.965926 -0.258819 -0.258819 0.965926 2822.06 1166.76)"/><path d="M21.4307 0C33.2665 0 42.8613 9.59494 42.8613 21.4309L42.671 23.3191 42.2921 44.733C40.299 100.226 75.8125 158.364 65.4835 158.364 55.1544 158.364 2.40537 100.226 0.412308 44.733L0 21.4309 4.51399e-05 21.4309C4.51399e-05 9.59494 9.59485 0 21.4307 0Z" stroke="#FFFFFF" stroke-width="6.875" stroke-miterlimit="8" fill="#DE0000" fill-rule="evenodd" transform="matrix(-0.965926 -0.258819 -0.258819 0.965926 2789.16 1166.7)"/><path d="M21.4307 0C33.2665 0 42.8613 9.59494 42.8613 21.4309L42.671 23.3191 42.2921 44.733C40.299 100.226 75.8125 158.364 65.4835 158.364 55.1544 158.364 2.40537 100.226 0.412308 44.733L0 21.4309 4.51399e-05 21.4309C4.51399e-05 9.59494 9.59485 0 21.4307 0Z" stroke="#FFFFFF" stroke-width="6.875" stroke-miterlimit="8" fill="#DE0000" fill-rule="evenodd" transform="matrix(-0.965926 -0.258819 -0.258819 0.965926 2751.41 1167.66)"/><path d="M21.4307 0C33.2665 0 42.8613 9.59494 42.8613 21.4309L42.671 23.3191 42.2921 44.733C40.299 100.226 75.8125 158.364 65.4835 158.364 55.1544 158.364 2.40537 100.226 0.412308 44.733L0 21.4309 4.51399e-05 21.4309C4.51399e-05 9.59494 9.59485 0 21.4307 0Z" stroke="#FFFFFF" stroke-width="6.875" stroke-miterlimit="8" fill="#DE0000" fill-rule="evenodd" transform="matrix(-0.965926 -0.258819 -0.258819 0.965926 2714.45 1171.81)"/><path d="M2337.75 1174.36C2348 1168.45 2361.11 1171.96 2367.03 1182.21L2367.8 1183.94 2378.18 1202.67C2404.2 1251.73 2464.03 1284.32 2455.08 1289.49 2446.14 1294.65 2371.39 1270.68 2341.91 1223.61L2329.91 1203.64 2329.91 1203.64C2323.99 1193.39 2327.5 1180.28 2337.75 1174.36Z" stroke="#FFFFFF" stroke-width="6.875" stroke-miterlimit="8" fill="#DE0000" fill-rule="evenodd"/><path d="M2387.25 1161.21C2398.68 1158.15 2410.43 1164.93 2413.49 1176.37L2413.8 1178.24 2418.98 1199.02C2431.41 1253.14 2480.76 1300.11 2470.79 1302.78 2460.81 1305.45 2394.81 1262.95 2378.52 1209.86L2372.09 1187.46 2372.09 1187.46C2369.03 1176.03 2375.81 1164.28 2387.25 1161.21Z" stroke="#FFFFFF" stroke-width="6.875" stroke-miterlimit="8" fill="#DE0000" fill-rule="evenodd"/><path d="M2420.15 1161.15C2431.58 1158.09 2443.33 1164.87 2446.4 1176.3L2446.7 1178.18 2451.88 1198.96C2464.31 1253.08 2513.66 1300.04 2503.69 1302.72 2493.71 1305.39 2427.71 1262.88 2411.42 1209.8L2404.99 1187.4 2404.99 1187.4C2401.93 1175.96 2408.72 1164.21 2420.15 1161.15Z" stroke="#FFFFFF" stroke-width="6.875" stroke-miterlimit="8" fill="#DE0000" fill-rule="evenodd"/><path d="M2457.9 1162.12C2469.33 1159.05 2481.08 1165.84 2484.15 1177.27L2484.45 1179.14 2489.63 1199.93C2502.07 1254.04 2551.42 1301.01 2541.44 1303.68 2531.46 1306.36 2465.46 1263.85 2449.17 1210.77L2442.75 1188.36 2442.75 1188.36C2439.68 1176.93 2446.47 1165.18 2457.9 1162.12Z" stroke="#FFFFFF" stroke-width="6.875" stroke-miterlimit="8" fill="#DE0000" fill-rule="evenodd"/><path d="M2494.85 1166.26C2506.28 1163.2 2518.04 1169.98 2521.1 1181.41L2521.4 1183.29 2526.58 1204.07C2539.02 1258.19 2588.37 1305.15 2578.39 1307.83 2568.41 1310.5 2502.41 1268 2486.13 1214.91L2479.7 1192.51 2479.7 1192.51C2476.63 1181.07 2483.42 1169.32 2494.85 1166.26Z" stroke="#FFFFFF" stroke-width="6.875" stroke-miterlimit="8" fill="#DE0000" fill-rule="evenodd"/><path d="M2533.89 1211.78C2527.27 1185.58 2529.59 1160.73 2540.38 1157.83 2551.18 1154.94 2565.77 1174.4 2572.98 1201.3 2580.19 1228.2 2590.9 1312.13 2580.1 1315.02 2569.31 1317.92 2540.51 1237.98 2533.89 1211.78Z" stroke="#FFFFFF" stroke-width="6.875" stroke-miterlimit="8" fill="#DE0000" fill-rule="evenodd"/><path d="M0.0149348 50.4253C0.401617 23.4062 9.07357 0 20.2478 0 31.4219 0 40.4806 22.5763 40.4806 50.4253 40.4806 78.2744 29.1025 162.115 17.9283 162.115 6.75412 162.115-0.371748 77.4444 0.0149348 50.4253Z" stroke="#FFFFFF" stroke-width="6.875" stroke-miterlimit="8" fill="#DE0000" fill-rule="evenodd" transform="matrix(-0.965926 -0.258819 -0.258819 0.965926 2667.78 1163.07)"/><path d="M2576.52 1201.89C2576.91 1174.89 2585.69 1151.5 2597.01 1151.5 2608.33 1151.5 2617.5 1174.06 2617.5 1201.89 2617.5 1229.72 2605.98 1313.5 2594.66 1313.5 2583.34 1313.5 2576.12 1228.89 2576.52 1201.89Z" stroke="#FFFFFF" stroke-width="6.875" stroke-miterlimit="8" fill="#DE0000" fill-rule="evenodd"/><path d="M2272.08 1193.7C2283.96 1181.82 2303.22 1181.82 2315.1 1193.7L2316.8 1195.79 2337.91 1217.66C2391.6 1275.35 2485.59 1298.06 2475.23 1308.42 2464.86 1318.79 2353.57 1313.38 2295.88 1259.69L2272.08 1236.72 2272.08 1236.72C2260.2 1224.84 2260.2 1205.58 2272.08 1193.7Z" stroke="#FFFFFF" stroke-width="6.875" stroke-miterlimit="8" fill="#DE0000" fill-rule="evenodd"/><path d="M30.4171 0C47.216 0 60.8342 13.6182 60.8342 30.4172L60.5641 33.097 60.0263 63.49C57.1975 142.252 107.603 224.768 92.9425 224.768 78.2822 224.768 3.41401 142.252 0.5852 63.49L0 30.4172 6.40683e-05 30.4172C6.40683e-05 13.6182 13.6182 0 30.4171 0Z" stroke="#FFFFFF" stroke-width="6.875" stroke-miterlimit="8" fill="#DE0000" fill-rule="evenodd" transform="matrix(-0.707107 -0.707107 -0.707107 0.707107 2935.33 1219.11)"/><path d="M420.449 52.1428C397.559 36.9434 335.227 7.49433 286.63 1.79465 238.032-3.90503 176.287 4.64436 128.863 17.9439 81.4393 31.2434-15.4038 74.942 2.0866 81.5918 19.577 88.2416 163.492 55.9426 233.806 57.8425 304.12 59.7424 392.512 93.6245 423.971 92.9912 455.43 92.3579 443.34 67.3422 420.449 52.1428Z" stroke="#FFFFFF" stroke-width="6.875" stroke-miterlimit="8" fill="#DE0000" fill-rule="evenodd" transform="matrix(-1 1.22465e-16 1.22465e-16 1 2581.5 1274.5)"/><path d="M3019 1329.64C2996.16 1314.44 2933.97 1284.99 2885.48 1279.29 2836.99 1273.59 2775.39 1282.14 2728.07 1295.44 2680.76 1308.74 2584.13 1352.44 2601.58 1359.09 2619.03 1365.74 2762.62 1333.44 2832.78 1335.34 2902.93 1337.24 2991.13 1371.12 3022.51 1370.49 3053.9 1369.86 3041.84 1344.84 3019 1329.64Z" stroke="#FFFFFF" stroke-width="6.875" stroke-miterlimit="8" fill="#DE0000" fill-rule="evenodd"/><path d="M2754.88 1283.51C2716.33 1267.59 2638.17 1321.65 2621.7 1339.29 2605.23 1356.93 2617.52 1373.42 2656.07 1389.34 2694.62 1405.26 2815.38 1460.45 2853.01 1434.8 2869.48 1417.16 2793.44 1299.43 2754.88 1283.51Z" stroke="#FFFFFF" stroke-width="6.875" stroke-miterlimit="8" fill="#DE0000" fill-rule="evenodd"/><path d="M158.739 31.9758C135.969-2.97003 40.9357-2.65365 17.3751 2.56449-6.18555 7.78262-5.39513 28.339 17.3751 63.2849 40.1453 98.2307 108.456 212.082 153.996 212.24 177.556 207.022 181.51 66.9217 158.739 31.9758Z" stroke="#FFFFFF" stroke-width="6.875" stroke-miterlimit="8" fill="#DE0000" fill-rule="evenodd" transform="matrix(-0.868173 -0.496261 -0.496261 0.868173 2578.38 1346.4)"/><path d="M2597.27 1292.42C2551.57 1291.95 2479.44 1257.83 2455.88 1263.04 2432.31 1268.25 2433.1 1288.79 2455.88 1323.7 2478.65 1358.61 2546.98 1472.34 2592.53 1472.5 2638.08 1472.66 2706.25 1359.08 2729.18 1324.65 2752.11 1290.21 2752.11 1271.26 2730.13 1265.88 2708.14 1260.51 2642.98 1292.9 2597.27 1292.42Z" stroke="#FFFFFF" stroke-width="6.875" stroke-miterlimit="8" fill="#DE0000" fill-rule="evenodd"/></g></svg>