<svg width="2338" height="1170" xmlns="http://www.w3.org/2000/svg" xmlns:xlink="http://www.w3.org/1999/xlink" xml:space="preserve" overflow="hidden"><defs><clipPath id="clip0"><rect x="1031" y="653" width="2338" height="1170"/></clipPath></defs><g clip-path="url(#clip0)" transform="translate(-1031 -653)"><rect x="1810" y="653" width="1559" height="1169" fill="#C75B12"/><rect x="0" y="0" width="779" height="1169" transform="matrix(-1 1.22465e-16 1.22465e-16 1 1810 653)"/><path d="M1506 1271.23 1539.6 1268.63 1552.5 1238 1565.4 1268.63 1599 1271.23 1573.37 1292.76 1581.24 1325 1552.5 1307.68 1523.76 1325 1531.63 1292.76Z" fill="#FFFFFF" fill-rule="evenodd"/><path d="M1359 1653.25 1404.7 1626.47 1375.14 1582.49 1424.57 1601.54 1440.5 1551 1456.43 1601.54 1505.86 1582.49 1476.3 1626.47 1522 1653.25 1469.21 1657.55 1476.77 1710 1440.5 1671.39 1404.23 1710 1411.79 1657.55Z" fill="#FFFFFF" fill-rule="evenodd"/><path d="M1064 1183.25 1109.7 1156.47 1080.14 1112.49 1129.57 1131.54 1145.5 1081 1161.43 1131.54 1210.86 1112.49 1181.3 1156.47 1227 1183.25 1174.21 1187.55 1181.77 1240 1145.5 1201.39 1109.23 1240 1116.79 1187.55Z" fill="#FFFFFF" fill-rule="evenodd"/><path d="M1625 1045.5 1676.87 1054.75 1695 1004 1713.13 1054.75 1765 1045.5 1731.27 1087 1765 1128.5 1713.13 1119.25 1695 1170 1676.87 1119.25 1625 1128.5 1658.73 1087Z" fill="#FFFFFF" fill-rule="evenodd"/><path d="M1359 867.254 1404.7 840.466 1375.14 796.492 1424.57 815.537 1440.5 765 1456.43 815.537 1505.86 796.492 1476.3 840.466 1522 867.254 1469.21 871.551 1476.77 924.001 1440.5 885.386 1404.23 924.001 1411.79 871.551Z" fill="#FFFFFF" fill-rule="evenodd"/><path d="M1063.5 653.5 1063.5 1822.27" stroke="#000000" stroke-width="1.14583" stroke-miterlimit="8" stroke-dasharray="4.58333 3.4375" fill="none" fill-rule="evenodd"/><path d="M1779.5 653.5 1779.5 1822.27" stroke="#000000" stroke-width="1.14583" stroke-miterlimit="8" stroke-dasharray="4.58333 3.4375" fill="none" fill-rule="evenodd"/><path d="M2508.01 1076 2509.29 1078.3 2522.61 1095.04C2539.49 1111.52 2562.12 1121.36 2586.24 1122.1 2610.36 1121.36 2632.98 1111.52 2649.86 1095.04L2663.33 1078.12 2664.2 1076.57 2664.05 1077.22 2664.67 1076.44 2663.67 1078.9 2658.91 1099.76C2656.57 1123.26 2663 1147.12 2677.46 1166.47 2693.08 1184.9 2714.86 1196.48 2738.25 1199.43L2759.78 1199.43 2761.59 1199.13 2760.97 1199.43 2762 1199.43 2759.36 1200.2 2740.19 1209.45C2720.4 1222.27 2705.78 1242.18 2699.7 1265.57 2695.05 1289.29 2699.59 1313.58 2711.88 1333.73L2725.24 1350.52 2726.68 1351.82 2726.02 1351.5 2726.69 1352.33 2724.36 1350.7 2705.28 1341.49C2682.93 1333.98 2658.29 1334.95 2636.23 1344.77 2614.82 1355.92 2598.7 1374.62 2590.63 1396.8L2585.88 1417.68 2585.75 1419.69 2585.58 1418.95 2585.35 1420 2585.17 1417.13 2580.47 1396.49C2572.4 1374.3 2556.28 1355.6 2534.86 1344.45 2512.81 1334.63 2488.17 1333.67 2465.82 1341.18L2446.53 1350.49 2444.91 1351.63 2445.37 1351.05 2444.42 1351.5 2446.5 1349.62 2459.71 1333.03C2472 1312.87 2476.54 1288.59 2471.89 1264.86 2465.81 1241.47 2451.19 1221.56 2431.4 1208.75L2412.01 1199.39 2410.2 1198.86 2410.91 1198.86 2410 1198.42 2412.66 1198.86 2433.95 1198.86C2457.34 1195.92 2479.13 1184.34 2494.74 1165.9 2504.38 1153 2510.45 1138.1 2512.74 1122.63L2508.13 1077.23 2507.81 1076.44 2508.09 1076.79Z" fill-rule="evenodd"/><path d="M2586.36 873.246C2607.92 874.411 2629.09 879.384 2648.9 887.933 2673.57 899.565 2689.32 924.343 2689.36 951.579 2689.44 978.382 2684.45 1004.96 2674.65 1029.91 2663.63 1062.27 2639.65 1088.62 2608.44 1102.66 2601.59 1106.15 2594.05 1108.05 2586.36 1108.25 2578.68 1108.05 2571.14 1106.15 2564.29 1102.66 2533.08 1088.62 2509.1 1062.27 2498.08 1029.91 2488.28 1004.96 2483.29 978.382 2483.36 951.579 2483.4 924.343 2499.16 899.565 2523.83 887.933 2543.64 879.384 2564.81 874.411 2586.36 873.246Z" fill="#FFFFFF" fill-rule="evenodd"/><path d="M2872.09 1011.52C2884.57 1029.05 2893.85 1048.65 2899.49 1069.41 2905.74 1095.89 2896.19 1123.6 2874.94 1140.59 2854.06 1157.34 2830.2 1170 2804.63 1177.9 2772.51 1189.46 2737.03 1187.18 2706.66 1171.59 2699.68 1168.42 2693.5 1163.73 2688.58 1157.87 2683.95 1151.76 2680.76 1144.69 2679.22 1137.19 2670.78 1104.11 2676.45 1069.01 2694.87 1040.27 2708.26 1017.09 2725.91 996.651 2746.89 980.02 2768.18 963.09 2797.32 959.939 2821.74 971.926 2840.73 982.044 2857.78 995.451 2872.09 1011.52Z" fill="#FFFFFF" fill-rule="evenodd"/><path d="M2942.28 1320.8C2936.37 1341.49 2926.83 1360.96 2914.11 1378.32 2897.31 1399.72 2869.68 1409.52 2843.15 1403.5 2817.04 1397.62 2792.27 1386.86 2770.14 1371.79 2741.08 1353.89 2720.74 1324.73 2713.99 1291.27 2712.12 1283.84 2711.94 1276.08 2713.45 1268.57 2715.34 1261.15 2718.87 1254.24 2723.78 1248.36 2744.39 1221.14 2775.36 1203.69 2809.31 1200.17 2835.79 1196.19 2862.77 1197.25 2888.85 1203.28 2915.37 1209.37 2936 1230.19 2941.85 1256.75 2945.78 1277.91 2945.93 1299.59 2942.28 1320.8Z" fill="#FFFFFF" fill-rule="evenodd"/><path d="M2744.29 1568.47C2724.43 1576.75 2703.26 1581.43 2681.76 1582.31 2654.55 1582.51 2629.67 1567.03 2617.83 1542.54 2606.14 1518.45 2599.11 1492.38 2597.1 1465.68 2592.98 1431.8 2603.1 1397.72 2625.05 1371.57 2629.69 1365.48 2635.64 1360.5 2642.46 1357 2649.44 1353.85 2657.04 1352.31 2664.7 1352.48 2698.83 1351.62 2731.78 1364.95 2755.7 1389.3 2775.32 1407.52 2791.32 1429.28 2802.87 1453.43 2814.63 1477.96 2811.22 1507.07 2794.1 1528.21 2780.01 1544.47 2763.15 1558.1 2744.29 1568.47Z" fill="#FFFFFF" fill-rule="evenodd"/><path d="M2427.24 1568.16C2408.39 1557.79 2391.52 1544.16 2377.43 1527.89 2360.31 1506.75 2356.9 1477.64 2368.67 1453.12 2380.21 1428.96 2396.21 1407.21 2415.83 1388.99 2439.75 1364.64 2472.71 1351.3 2506.83 1352.16 2514.49 1351.99 2522.09 1353.54 2529.08 1356.69 2535.89 1360.19 2541.84 1365.16 2546.48 1371.26 2568.43 1397.4 2578.55 1431.48 2574.43 1465.37 2572.42 1492.06 2565.39 1518.14 2553.7 1542.22 2541.87 1566.72 2516.98 1582.2 2489.78 1581.99 2468.28 1581.12 2447.1 1576.43 2427.24 1568.16Z" fill="#FFFFFF" fill-rule="evenodd"/><path d="M2229.74 1320.09C2226.1 1298.89 2226.24 1277.2 2230.17 1256.05 2236.03 1229.48 2256.66 1208.66 2283.17 1202.57 2309.25 1196.54 2336.24 1195.49 2362.71 1199.46 2396.67 1202.99 2427.64 1220.44 2448.24 1247.65 2453.15 1253.54 2456.68 1260.44 2458.57 1267.87 2460.09 1275.38 2459.91 1283.13 2458.04 1290.56 2451.28 1324.02 2430.95 1353.18 2401.88 1371.09 2379.76 1386.16 2354.99 1396.92 2328.87 1402.8 2302.34 1408.81 2274.72 1399.01 2257.92 1377.61 2245.2 1360.26 2235.66 1340.78 2229.74 1320.09Z" fill="#FFFFFF" fill-rule="evenodd"/><path d="M2300.55 1010.96C2314.86 994.885 2331.9 981.477 2350.89 971.359 2375.31 959.372 2404.45 962.523 2425.75 979.453 2446.72 996.084 2464.37 1016.53 2477.77 1039.7 2496.19 1068.45 2501.85 1103.54 2493.42 1136.62 2491.88 1144.13 2488.68 1151.19 2484.06 1157.3 2479.13 1163.17 2472.96 1167.86 2465.98 1171.03 2435.61 1186.61 2400.13 1188.89 2368.01 1177.33 2342.43 1169.43 2318.58 1156.77 2297.7 1140.02 2276.45 1123.03 2266.9 1095.32 2273.15 1068.85 2278.79 1048.08 2288.07 1028.48 2300.55 1010.96Z" fill="#FFFFFF" fill-rule="evenodd"/></g></svg>