<svg width="2338" height="1169" xmlns="http://www.w3.org/2000/svg" xmlns:xlink="http://www.w3.org/1999/xlink" xml:space="preserve" overflow="hidden"><defs><clipPath id="clip0"><rect x="1031" y="653" width="2338" height="1169"/></clipPath></defs><g clip-path="url(#clip0)" transform="translate(-1031 -653)"><rect x="1810" y="653" width="1559" height="1169" fill="#FFCD00"/><rect x="0" y="0" width="779" height="1169" fill="#73182C" transform="matrix(-1 1.22465e-16 1.22465e-16 1 1810 653)"/><path d="M2786 793 2587.5 1241 2389 793 2587.5 939.649 2786 793Z" fill="#57ACF3" fill-rule="evenodd"/><path d="M2389 1682 2587.5 1234 2786 1682 2587.5 1535.35 2389 1682Z" fill="#57ACF3" fill-rule="evenodd"/><path d="M2143 1039 2591 1237.5 2143 1436 2289.65 1237.5 2143 1039Z" fill="#57ACF3" fill-rule="evenodd"/><path d="M3031 1436 2583 1237.5 3031 1039 2884.35 1237.5 3031 1436Z" fill="#57ACF3" fill-rule="evenodd"/><path d="M1506 1271.23 1539.6 1268.63 1552.5 1238 1565.4 1268.63 1599 1271.23 1573.37 1292.76 1581.24 1325 1552.5 1307.68 1523.76 1325 1531.63 1292.76Z" fill="#FFFFFF" fill-rule="evenodd"/><path d="M1357 1633.5 1406.47 1619.4 1381.46 1574.46 1426.4 1599.47 1440.5 1550 1454.6 1599.47 1499.54 1574.46 1474.53 1619.4 1524 1633.5 1474.53 1647.6 1499.54 1692.54 1454.6 1667.53 1440.5 1717 1426.4 1667.53 1381.46 1692.54 1406.47 1647.6Z" fill="#FFFFFF" fill-rule="evenodd"/><path d="M1062 1163.5 1111.47 1149.4 1086.46 1104.46 1131.4 1129.47 1145.5 1080 1159.6 1129.47 1204.54 1104.46 1179.53 1149.4 1229 1163.5 1179.53 1177.6 1204.54 1222.54 1159.6 1197.53 1145.5 1247 1131.4 1197.53 1086.46 1222.54 1111.47 1177.6Z" fill="#FFFFFF" fill-rule="evenodd"/><path d="M1614 1106.25 1659.7 1079.47 1630.14 1035.49 1679.57 1054.54 1695.5 1004 1711.43 1054.54 1760.86 1035.49 1731.3 1079.47 1777 1106.25 1724.21 1110.55 1731.77 1163 1695.5 1124.39 1659.23 1163 1666.79 1110.55Z" fill="#FFFFFF" fill-rule="evenodd"/><path d="M1359 867.254 1404.7 840.466 1375.14 796.492 1424.57 815.537 1440.5 765 1456.43 815.537 1505.86 796.492 1476.3 840.466 1522 867.254 1469.21 871.551 1476.77 924.001 1440.5 885.386 1404.23 924.001 1411.79 871.551Z" fill="#FFFFFF" fill-rule="evenodd"/><path d="M2428.81 1183.13C2426.5 1200.86 2437.44 1227.6 2447.06 1247.5L2461.91 1240.01C2451.93 1220.51 2441.33 1199.38 2444.13 1187.67 2446.93 1175.95 2456.48 1170.05 2478.71 1169.73 2500.94 1169.41 2543.57 1185.77 2577.5 1185.77 2577.45 1180.2 2577.4 1174.63 2577.36 1169.05 2516.38 1169.05 2435.37 1132.98 2428.81 1183.13Z" stroke="#FFA400" stroke-width="4.58333" stroke-miterlimit="8" fill="#FFC000" fill-rule="evenodd"/><path d="M0.314075 26.3417C-2.00263 43.8738 8.94375 70.3144 18.5566 89.9997L33.408 82.5936C23.4293 63.3053 12.8308 42.4108 15.6312 30.8259 18.4315 19.241 27.9821 13.3966 50.2101 13.084 72.4381 12.7715 115.066 28.9507 149 28.9507 148.952 23.4387 148.904 17.9265 148.857 12.4145 87.8814 12.4145 6.8687-23.2608 0.314075 26.3417Z" stroke="#FFA400" stroke-width="4.58333" stroke-miterlimit="8" fill="#FFC000" fill-rule="evenodd" transform="matrix(-1 0 0 1 2752.5 1154.5)"/><path d="M2586.52 1091.26 2586.52 1091.26 2586.52 1091.26ZM2573.82 1070.5 2607.25 1070.5 2606.38 1071.06C2600.51 1075.45 2596.27 1081.91 2594.75 1089.35L2594.56 1091.24 2594.58 1091.29 2596.84 1091.06C2604.29 1089.54 2610.75 1085.3 2615.14 1079.43L2615.5 1078.86 2615.5 1111.94 2614.94 1111.07C2610.55 1105.2 2604.09 1100.96 2596.65 1099.44L2594.51 1099.22C2594.49 1099.08 2594.48 1098.95 2594.46 1098.81 2594.48 1098.95 2594.49 1099.08 2594.51 1099.22L2594.75 1101.65C2596.27 1109.09 2600.51 1115.55 2606.38 1119.94L2607.25 1120.5 2573.82 1120.5 2574.69 1119.94C2580.56 1115.55 2584.8 1109.09 2586.32 1101.65L2586.57 1099.22 2586.57 1099.22 2584.35 1099.44C2576.91 1100.96 2570.45 1105.2 2566.06 1111.07L2565.5 1111.94 2565.5 1078.25 2566.25 1079.43C2570.64 1085.3 2577.1 1089.54 2584.55 1091.06L2586.52 1091.26 2586.32 1089.35C2584.8 1081.91 2580.56 1075.45 2574.69 1071.06L2573.82 1070.5Z" stroke="#FFA400" stroke-width="4.58333" stroke-miterlimit="8" fill="#FFC000" fill-rule="evenodd"/><path d="M2590 1113.5C2602.98 1113.5 2613.5 1124.02 2613.5 1137 2613.5 1149.98 2602.98 1160.5 2590 1160.5 2577.02 1160.5 2566.5 1149.98 2566.5 1137 2566.5 1124.02 2577.02 1113.5 2590 1113.5Z" stroke="#FFA400" stroke-width="4.58333" stroke-miterlimit="8" fill="#FFC000" fill-rule="evenodd"/><path d="M2590 1112.5 2596.09 1113.75 2596.09 1130.66 2612.36 1130.66 2613.5 1136.37 2612.28 1142.5 2567.72 1142.5 2566.5 1136.37 2567.64 1130.66 2584.43 1130.66 2584.43 1113.64 2590 1112.5Z" stroke="#FFA400" stroke-width="4.58333" stroke-miterlimit="8" fill="#FFC000" fill-rule="evenodd"/><path d="M2481.59 1309.5 2703.69 1307.68C2714.17 1284.95 2721.01 1254.65 2722.37 1240.45 2725.23 1217.15 2679.43 1203.32 2646.75 1215.91 2629.01 1217.61 2627.81 1202.68 2591.63 1202.5 2554.3 1202.32 2550.23 1218.7 2532.65 1217.01 2507.8 1210.54 2452.85 1203.2 2455.6 1242.26 2457.63 1256.77 2462.08 1287.08 2481.59 1309.5Z" stroke="#A40000" stroke-width="4.58333" stroke-miterlimit="8" fill="#D40032" fill-rule="evenodd"/><rect x="2576.5" y="1154.5" width="28.0002" height="67.9998" stroke="#FFA400" stroke-width="4.58333" stroke-miterlimit="8" fill="#FFC000"/><path d="M0 10.5C-1.33679e-15 4.701 4.701-1.33679e-15 10.5-2.67358e-15 16.299-5.34715e-15 21 4.701 21 10.5 21 16.299 16.299 21 10.5 21 4.701 21-6.68394e-15 16.299 0 10.5Z" stroke="#E9E1D3" stroke-width="4.58333" stroke-miterlimit="8" fill="#FEFAE7" fill-rule="evenodd" transform="matrix(-1 1.22465e-16 1.22465e-16 1 2600.5 1134.5)"/><path d="M0 10.5C-1.33679e-15 4.701 4.701-1.33679e-15 10.5-2.67358e-15 16.299-5.34715e-15 21 4.701 21 10.5 21 16.299 16.299 21 10.5 21 4.701 21-6.68394e-15 16.299 0 10.5Z" stroke="#E9E1D3" stroke-width="4.58333" stroke-miterlimit="8" fill="#FEFAE7" fill-rule="evenodd" transform="matrix(-1 1.22465e-16 1.22465e-16 1 2600.5 1148.5)"/><path d="M0 9.99997C-1.33679e-15 4.47714 4.701-1.27313e-15 10.5-2.54626e-15 16.299-5.09252e-15 21 4.47714 21 9.99997 21 15.5228 16.299 19.9999 10.5 19.9999 4.701 19.9999-6.68394e-15 15.5228 0 9.99997Z" stroke="#E9E1D3" stroke-width="4.58333" stroke-miterlimit="8" fill="#FEFAE7" fill-rule="evenodd" transform="matrix(-1 1.22465e-16 1.22465e-16 1 2600.5 1165.5)"/><path d="M0 10.5C-1.33679e-15 4.701 4.701-1.33679e-15 10.5-2.67358e-15 16.299-5.34715e-15 21 4.701 21 10.5 21 16.299 16.299 21 10.5 21 4.701 21-6.68394e-15 16.299 0 10.5Z" stroke="#E9E1D3" stroke-width="4.58333" stroke-miterlimit="8" fill="#FEFAE7" fill-rule="evenodd" transform="matrix(-1 1.22465e-16 1.22465e-16 1 2600.5 1181.5)"/><path d="M0 10.5002C-1.33679e-15 4.70108 4.701-1.33681e-15 10.5-2.67362e-15 16.299-5.34724e-15 21 4.70108 21 10.5002 21 16.2992 16.299 21.0003 10.5 21.0003 4.701 21.0003-6.68394e-15 16.2992 0 10.5002Z" stroke="#E9E1D3" stroke-width="4.58333" stroke-miterlimit="8" fill="#FEFAE7" fill-rule="evenodd" transform="matrix(-1 1.22465e-16 1.22465e-16 1 2600.5 1199.5)"/><path d="M0 10.5C-1.33681e-15 4.701 4.70108-1.33679e-15 10.5002-2.67358e-15 16.2992-5.34715e-15 21.0003 4.701 21.0003 10.5 21.0003 16.299 16.2992 21 10.5002 21 4.70108 21-6.68406e-15 16.299 0 10.5Z" stroke="#E9E1D3" stroke-width="4.58333" stroke-miterlimit="8" fill="#FEFAE7" fill-rule="evenodd" transform="matrix(-1 1.22465e-16 1.22465e-16 1 2463.5 1136.5)"/><path d="M0 10.5C-1.27315e-15 4.701 4.47722-1.33679e-15 10.0001-2.67358e-15 15.5231-5.34715e-15 20.0003 4.701 20.0003 10.5 20.0003 16.299 15.5231 21 10.0001 21 4.47722 21-6.36576e-15 16.299 0 10.5Z" stroke="#E9E1D3" stroke-width="4.58333" stroke-miterlimit="8" fill="#FEFAE7" fill-rule="evenodd" transform="matrix(-1 1.22465e-16 1.22465e-16 1 2484.5 1135.5)"/><path d="M0 10.0001C-1.27313e-15 4.47722 4.47714-1.27315e-15 9.99997-2.5463e-15 15.5228-5.09261e-15 19.9999 4.47722 19.9999 10.0001 19.9999 15.5231 15.5228 20.0003 9.99997 20.0003 4.47714 20.0003-6.36565e-15 15.5231 0 10.0001Z" stroke="#E9E1D3" stroke-width="4.58333" stroke-miterlimit="8" fill="#FEFAE7" fill-rule="evenodd" transform="matrix(-1 1.22465e-16 1.22465e-16 1 2443.5 1144.5)"/><path d="M0 10.5C-1.33681e-15 4.701 4.70108-1.33679e-15 10.5002-2.67358e-15 16.2992-5.34715e-15 21.0003 4.701 21.0003 10.5 21.0003 16.299 16.2992 21 10.5002 21 4.70108 21-6.68406e-15 16.299 0 10.5Z" stroke="#E9E1D3" stroke-width="4.58333" stroke-miterlimit="8" fill="#FEFAE7" fill-rule="evenodd" transform="matrix(-1 1.22465e-16 1.22465e-16 1 2430.5 1161.5)"/><path d="M0 9.99997C-1.33679e-15 4.47714 4.701-1.27313e-15 10.5-2.54626e-15 16.299-5.09252e-15 21 4.47714 21 9.99997 21 15.5228 16.299 19.9999 10.5 19.9999 4.701 19.9999-6.68394e-15 15.5228 0 9.99997Z" stroke="#E9E1D3" stroke-width="4.58333" stroke-miterlimit="8" fill="#FEFAE7" fill-rule="evenodd" transform="matrix(-1 1.22465e-16 1.22465e-16 1 2428.5 1182.5)"/><path d="M0 10.5C-1.33679e-15 4.701 4.701-1.33679e-15 10.5-2.67358e-15 16.299-5.34715e-15 21 4.701 21 10.5 21 16.299 16.299 21 10.5 21 4.701 21-6.68394e-15 16.299 0 10.5Z" stroke="#E9E1D3" stroke-width="4.58333" stroke-miterlimit="8" fill="#FEFAE7" fill-rule="evenodd" transform="matrix(-1 1.22465e-16 1.22465e-16 1 2432.5 1202.5)"/><path d="M0 10.5002C-1.33679e-15 4.70108 4.701-1.33681e-15 10.5-2.67362e-15 16.299-5.34724e-15 21 4.70108 21 10.5002 21 16.2992 16.299 21.0003 10.5 21.0003 4.701 21.0003-6.68394e-15 16.2992 0 10.5002Z" stroke="#E9E1D3" stroke-width="4.58333" stroke-miterlimit="8" fill="#FEFAE7" fill-rule="evenodd" transform="matrix(-1 1.22465e-16 1.22465e-16 1 2439.5 1221.5)"/><path d="M0 9.99997C-1.33679e-15 4.47714 4.701-1.27313e-15 10.5-2.54626e-15 16.299-5.09252e-15 21 4.47714 21 9.99997 21 15.5228 16.299 19.9999 10.5 19.9999 4.701 19.9999-6.68394e-15 15.5228 0 9.99997Z" stroke="#E9E1D3" stroke-width="4.58333" stroke-miterlimit="8" fill="#FEFAE7" fill-rule="evenodd" transform="matrix(-1 1.22465e-16 1.22465e-16 1 2506.5 1138.5)"/><path d="M0 10.5C-1.33679e-15 4.701 4.701-1.33679e-15 10.5-2.67358e-15 16.299-5.34715e-15 21 4.701 21 10.5 21 16.299 16.299 21 10.5 21 4.701 21-6.68394e-15 16.299 0 10.5Z" stroke="#E9E1D3" stroke-width="4.58333" stroke-miterlimit="8" fill="#FEFAE7" fill-rule="evenodd" transform="matrix(-1 1.22465e-16 1.22465e-16 1 2527.5 1141.5)"/><path d="M0 10.5C-1.33679e-15 4.701 4.701-1.33679e-15 10.5-2.67358e-15 16.299-5.34715e-15 21 4.701 21 10.5 21 16.299 16.299 21 10.5 21 4.701 21-6.68394e-15 16.299 0 10.5Z" stroke="#E9E1D3" stroke-width="4.58333" stroke-miterlimit="8" fill="#FEFAE7" fill-rule="evenodd" transform="matrix(-1 1.22465e-16 1.22465e-16 1 2549.5 1145.5)"/><path d="M0 10.5C-1.33679e-15 4.701 4.701-1.33679e-15 10.5-2.67358e-15 16.299-5.34715e-15 21 4.701 21 10.5 21 16.299 16.299 21 10.5 21 4.701 21-6.68394e-15 16.299 0 10.5Z" stroke="#E9E1D3" stroke-width="4.58333" stroke-miterlimit="8" fill="#FEFAE7" fill-rule="evenodd" transform="matrix(-1 1.22465e-16 1.22465e-16 1 2571.5 1147.5)"/><path d="M2717.5 1145C2717.5 1139.2 2722.2 1134.5 2728 1134.5 2733.8 1134.5 2738.5 1139.2 2738.5 1145 2738.5 1150.8 2733.8 1155.5 2728 1155.5 2722.2 1155.5 2717.5 1150.8 2717.5 1145Z" stroke="#E9E1D3" stroke-width="4.58333" stroke-miterlimit="8" fill="#FEFAE7" fill-rule="evenodd"/><path d="M2695.5 1144C2695.5 1138.2 2700.2 1133.5 2706 1133.5 2711.8 1133.5 2716.5 1138.2 2716.5 1144 2716.5 1149.8 2711.8 1154.5 2706 1154.5 2700.2 1154.5 2695.5 1149.8 2695.5 1144Z" stroke="#E9E1D3" stroke-width="4.58333" stroke-miterlimit="8" fill="#FEFAE7" fill-rule="evenodd"/><path d="M2736.5 1152.5C2736.5 1146.98 2741.2 1142.5 2747 1142.5 2752.8 1142.5 2757.5 1146.98 2757.5 1152.5 2757.5 1158.02 2752.8 1162.5 2747 1162.5 2741.2 1162.5 2736.5 1158.02 2736.5 1152.5Z" stroke="#E9E1D3" stroke-width="4.58333" stroke-miterlimit="8" fill="#FEFAE7" fill-rule="evenodd"/><path d="M2749.5 1170C2749.5 1164.2 2754.2 1159.5 2760 1159.5 2765.8 1159.5 2770.5 1164.2 2770.5 1170 2770.5 1175.8 2765.8 1180.5 2760 1180.5 2754.2 1180.5 2749.5 1175.8 2749.5 1170Z" stroke="#E9E1D3" stroke-width="4.58333" stroke-miterlimit="8" fill="#FEFAE7" fill-rule="evenodd"/><path d="M2751.5 1190.5C2751.5 1184.98 2756.2 1180.5 2762 1180.5 2767.8 1180.5 2772.5 1184.98 2772.5 1190.5 2772.5 1196.02 2767.8 1200.5 2762 1200.5 2756.2 1200.5 2751.5 1196.02 2751.5 1190.5Z" stroke="#E9E1D3" stroke-width="4.58333" stroke-miterlimit="8" fill="#FEFAE7" fill-rule="evenodd"/><path d="M2748.5 1210.5C2748.5 1204.98 2753.2 1200.5 2759 1200.5 2764.8 1200.5 2769.5 1204.98 2769.5 1210.5 2769.5 1216.02 2764.8 1220.5 2759 1220.5 2753.2 1220.5 2748.5 1216.02 2748.5 1210.5Z" stroke="#E9E1D3" stroke-width="4.58333" stroke-miterlimit="8" fill="#FEFAE7" fill-rule="evenodd"/><path d="M2741.5 1230C2741.5 1224.2 2746.2 1219.5 2752 1219.5 2757.8 1219.5 2762.5 1224.2 2762.5 1230 2762.5 1235.8 2757.8 1240.5 2752 1240.5 2746.2 1240.5 2741.5 1235.8 2741.5 1230Z" stroke="#E9E1D3" stroke-width="4.58333" stroke-miterlimit="8" fill="#FEFAE7" fill-rule="evenodd"/><path d="M2673.5 1146C2673.5 1140.2 2678.2 1135.5 2684 1135.5 2689.8 1135.5 2694.5 1140.2 2694.5 1146 2694.5 1151.8 2689.8 1156.5 2684 1156.5 2678.2 1156.5 2673.5 1151.8 2673.5 1146Z" stroke="#E9E1D3" stroke-width="4.58333" stroke-miterlimit="8" fill="#FEFAE7" fill-rule="evenodd"/><path d="M2652.5 1150C2652.5 1144.2 2657.2 1139.5 2663 1139.5 2668.8 1139.5 2673.5 1144.2 2673.5 1150 2673.5 1155.8 2668.8 1160.5 2663 1160.5 2657.2 1160.5 2652.5 1155.8 2652.5 1150Z" stroke="#E9E1D3" stroke-width="4.58333" stroke-miterlimit="8" fill="#FEFAE7" fill-rule="evenodd"/><path d="M2631.5 1154C2631.5 1148.2 2635.98 1143.5 2641.5 1143.5 2647.02 1143.5 2651.5 1148.2 2651.5 1154 2651.5 1159.8 2647.02 1164.5 2641.5 1164.5 2635.98 1164.5 2631.5 1159.8 2631.5 1154Z" stroke="#E9E1D3" stroke-width="4.58333" stroke-miterlimit="8" fill="#FEFAE7" fill-rule="evenodd"/><path d="M2609.5 1156C2609.5 1150.2 2614.2 1145.5 2620 1145.5 2625.8 1145.5 2630.5 1150.2 2630.5 1156 2630.5 1161.8 2625.8 1166.5 2620 1166.5 2614.2 1166.5 2609.5 1161.8 2609.5 1156Z" stroke="#E9E1D3" stroke-width="4.58333" stroke-miterlimit="8" fill="#FEFAE7" fill-rule="evenodd"/><path d="M2589.5 1221.5C2598.67 1221.4 2606.98 1224.81 2609.94 1226.4 2599.39 1231.33 2594.92 1246.64 2592.85 1252.41L2592.62 1254.49 2595.01 1254.28C2604.05 1252.61 2611.9 1247.99 2617.24 1241.58L2618.15 1240.3 2618.15 1277.06 2617.47 1276.11C2612.14 1269.7 2604.29 1265.08 2595.24 1263.42L2592.55 1263.17 2592.85 1265.83 2596.54 1273.99 2599.03 1275.53C2603.78 1277.71 2607.91 1279.02 2616.54 1279.66 2625.17 1280.3 2631.05 1278.03 2638.3 1277.22 2640.47 1276.18 2642.59 1275.05 2644.59 1273.7L2646.01 1272.47 2646.16 1271.49C2646.12 1270.64 2645.74 1269.63 2644.9 1268.39L2644.79 1268.12C2643.78 1266.03 2642 1263.74 2640.72 1262.7 2639.87 1262 2638.84 1261.66 2637.86 1261.55L2636.45 1261.53 2635.3 1261.75C2634.01 1262.16 2633.21 1263.4 2633 1265.16 2632.78 1266.91 2633.73 1268.45 2635.02 1269.49 2634.57 1269.76 2633.78 1269.84 2632.91 1269.74 2632.04 1269.65 2631.1 1269.38 2630.39 1269 2628.96 1268.22 2627.51 1266.95 2626.45 1264.82 2625.44 1262.81 2625.48 1257.98 2626.98 1255.68 2627.73 1254.53 2628.75 1253.45 2630.13 1252.61L2632.08 1251.73 2632.48 1251.56 2632.48 1251.56 2633.35 1251.34 2633.88 1251.21C2634.37 1251.12 2634.89 1251.05 2635.44 1251.01 2635.93 1250.97 2636.41 1250.97 2636.88 1251 2640.18 1251.21 2642.93 1253.03 2645.01 1255.84 2645.49 1256.49 2645.97 1257.37 2646.42 1258.39L2646.69 1259.03 2646.47 1258.16C2645.93 1256.19 2645.37 1254.4 2644.95 1252.49 2644.95 1252.49 2644.95 1252.49 2644.95 1252.49L2644.1 1249.35C2643.34 1246.85 2642.57 1244.61 2642.38 1242.48 2642.36 1242.06 2642.35 1241.64 2642.33 1241.22L2642.33 1241.22C2642.33 1241.21 2642.34 1241.21 2642.34 1241.2 2642.37 1240.8 2642.4 1240.4 2642.43 1239.99 2642.69 1238 2643.41 1236.22 2644.34 1234.5L2645.56 1232.45C2645.56 1232.45 2645.56 1232.45 2645.56 1232.45 2647.27 1229.73 2651.49 1226.16 2652.68 1224.89 2652.68 1224.89 2652.68 1224.89 2652.68 1224.88 2652.68 1224.88 2652.68 1224.89 2652.69 1224.89 2652.69 1224.89 2652.7 1224.88 2652.7 1224.88 2652.7 1224.89 2652.7 1224.89 2652.7 1224.9 2652.71 1224.91 2652.72 1224.92 2652.73 1224.94L2652.77 1224.9C2652.77 1224.89 2652.77 1224.89 2652.77 1224.88 2652.77 1224.89 2652.77 1224.89 2652.78 1224.89 2652.78 1224.89 2652.78 1224.89 2652.79 1224.89 2652.79 1224.89 2652.79 1224.89 2652.79 1224.9 2653.82 1226.27 2657.6 1230.22 2658.98 1233.08 2658.98 1233.08 2658.98 1233.08 2658.98 1233.08L2659.96 1235.23C2660.69 1237.03 2661.19 1238.87 2661.22 1240.88 2661.2 1241.28 2661.19 1241.68 2661.17 1242.09L2661.17 1242.1C2661.17 1242.11 2661.17 1242.11 2661.17 1242.11L2660.98 1243.36C2660.54 1245.45 2659.51 1247.61 2658.47 1250.03L2657.26 1253.07C2657.26 1253.07 2657.26 1253.07 2657.26 1253.07 2656.61 1254.93 2655.86 1256.65 2655.09 1258.57L2654.77 1259.41 2655.11 1258.8C2655.68 1257.83 2656.25 1256.99 2656.81 1256.39 2659.21 1253.79 2662.15 1252.24 2665.45 1252.34 2665.93 1252.36 2666.41 1252.41 2666.89 1252.49 2667.43 1252.58 2667.94 1252.7 2668.42 1252.84L2669.63 1253.26 2669.77 1253.31 2670.53 1253.75 2671.99 1254.58 2672.54 1255.11 2673.62 1256.16C2674.08 1256.72 2674.45 1257.32 2674.76 1257.93 2675.98 1260.36 2675.46 1265.17 2674.23 1267.07 2672.92 1269.08 2671.33 1270.21 2669.82 1270.85 2669.06 1271.17 2668.1 1271.34 2667.23 1271.36 2666.35 1271.37 2665.57 1271.22 2665.16 1270.91 2666.55 1270 2667.68 1268.55 2667.67 1266.79 2667.67 1265.03 2667.01 1263.71 2665.78 1263.18L2664.66 1262.86 2663.26 1262.74C2662.27 1262.76 2661.2 1263 2660.28 1263.62 2658.89 1264.53 2656.85 1266.65 2655.6 1268.63L2655.46 1268.89C2653.99 1270.58 2653.72 1271.93 2654.08 1273.12L2654.53 1274.07 2654.7 1274.27C2656.49 1275.8 2658.49 1277.12 2660.59 1278.35L2665.92 1281.47C2669.48 1282.18 2676.24 1282.42 2681.94 1282.56 2687.63 1282.7 2690.73 1281.91 2695.13 1281.59 2697.38 1280.68 2699.58 1279.69 2701.68 1278.47L2706 1275.21 2708.53 1271.14 2709.18 1268.54 2706.48 1268.49C2697.27 1269.15 2688.85 1272.88 2682.69 1278.65L2681.89 1279.52 2686.88 1243.04 2687.61 1244.41C2692.04 1251.35 2699.2 1256.8 2707.95 1259.44L2710.3 1259.92C2710.31 1259.22 2710.33 1258.52 2710.35 1257.83 2709.61 1249.56 2712.26 1241.73 2705.83 1236.2 2710.52 1233.58 2725.28 1230.04 2738.5 1242.14 2721.39 1268.06 2702.68 1321.86 2698.29 1356.42 2680.69 1354.18 2650.4 1353.08 2617.32 1352.79L2589.77 1352.75 2589.77 1352.83 2561.68 1352.87C2528.61 1353.16 2498.31 1354.26 2480.71 1356.5 2476.32 1321.94 2457.61 1268.14 2440.5 1242.22 2453.72 1230.12 2468.48 1233.66 2473.17 1236.28 2466.74 1241.81 2469.39 1249.64 2468.65 1257.91 2468.67 1258.6 2468.69 1259.3 2468.7 1260L2471.05 1259.52C2479.8 1256.88 2486.96 1251.43 2491.39 1244.49L2492.12 1243.12 2497.11 1279.6 2496.31 1278.73C2490.15 1272.96 2481.73 1269.23 2472.52 1268.57L2469.82 1268.62 2470.47 1271.22 2473 1275.29 2477.32 1278.55C2479.42 1279.77 2481.62 1280.77 2483.87 1281.67 2488.27 1281.99 2491.37 1282.78 2497.06 1282.64 2502.76 1282.5 2509.52 1282.26 2513.08 1281.55L2518.41 1278.43C2520.51 1277.2 2522.51 1275.88 2524.3 1274.35L2524.47 1274.15 2524.92 1273.2C2525.28 1272.01 2525.01 1270.66 2523.54 1268.97L2523.4 1268.71C2522.15 1266.73 2520.11 1264.61 2518.73 1263.7 2517.8 1263.08 2516.73 1262.84 2515.74 1262.82L2514.34 1262.94 2513.23 1263.26C2511.99 1263.79 2511.33 1265.11 2511.33 1266.87 2511.32 1268.63 2512.45 1270.08 2513.84 1270.99 2513.43 1271.3 2512.65 1271.45 2511.77 1271.44 2510.9 1271.42 2509.94 1271.25 2509.18 1270.93 2507.67 1270.29 2506.08 1269.16 2504.77 1267.15 2503.54 1265.25 2503.02 1260.44 2504.24 1258.01 2504.55 1257.4 2504.92 1256.8 2505.38 1256.24L2506.46 1255.19 2507.01 1254.66 2508.47 1253.83 2509.23 1253.39 2509.37 1253.34 2510.58 1252.92C2511.06 1252.78 2511.57 1252.66 2512.11 1252.57 2512.59 1252.49 2513.07 1252.44 2513.55 1252.42 2516.85 1252.32 2519.8 1253.87 2522.19 1256.47 2522.75 1257.08 2523.32 1257.91 2523.89 1258.88L2524.23 1259.49 2523.91 1258.65C2523.14 1256.73 2522.39 1255.01 2521.74 1253.15 2521.74 1253.15 2521.74 1253.15 2521.74 1253.15L2520.53 1250.11C2519.49 1247.69 2518.46 1245.53 2518.02 1243.44L2517.83 1242.19C2517.83 1242.19 2517.83 1242.19 2517.83 1242.18L2517.83 1242.17C2517.81 1241.76 2517.8 1241.36 2517.78 1240.96 2517.81 1238.95 2518.31 1237.11 2519.04 1235.31L2520.02 1233.16C2520.02 1233.16 2520.02 1233.16 2520.02 1233.16 2521.4 1230.3 2525.18 1226.35 2526.21 1224.98 2526.21 1224.98 2526.21 1224.97 2526.21 1224.97 2526.22 1224.97 2526.22 1224.97 2526.22 1224.97 2526.23 1224.97 2526.23 1224.97 2526.23 1224.96 2526.23 1224.97 2526.24 1224.97 2526.24 1224.98L2526.27 1225.02C2526.28 1225 2526.29 1224.99 2526.3 1224.98 2526.3 1224.97 2526.3 1224.97 2526.3 1224.96 2526.31 1224.96 2526.31 1224.97 2526.31 1224.97 2526.32 1224.97 2526.32 1224.96 2526.32 1224.96 2526.32 1224.97 2526.32 1224.97 2526.32 1224.97 2527.51 1226.24 2531.73 1229.82 2533.44 1232.53 2533.44 1232.53 2533.44 1232.53 2533.44 1232.53L2534.66 1234.58C2535.59 1236.3 2536.31 1238.08 2536.57 1240.07 2536.6 1240.48 2536.63 1240.88 2536.67 1241.28 2536.67 1241.29 2536.67 1241.29 2536.67 1241.3L2536.67 1241.3C2536.65 1241.72 2536.64 1242.14 2536.62 1242.56 2536.43 1244.69 2535.66 1246.93 2534.9 1249.43L2534.05 1252.57C2534.05 1252.57 2534.05 1252.57 2534.05 1252.57 2533.63 1254.48 2533.07 1256.27 2532.53 1258.24L2532.31 1259.11 2532.58 1258.47C2533.03 1257.45 2533.51 1256.57 2533.99 1255.92 2536.07 1253.11 2538.82 1251.29 2542.12 1251.08 2542.59 1251.05 2543.07 1251.05 2543.56 1251.09 2544.11 1251.13 2544.63 1251.2 2545.12 1251.29L2545.65 1251.42 2546.52 1251.64 2546.52 1251.64 2546.92 1251.81 2548.87 1252.69C2550.25 1253.53 2551.27 1254.61 2552.02 1255.76 2553.52 1258.06 2553.56 1262.89 2552.56 1264.9 2551.49 1267.03 2550.04 1268.3 2548.61 1269.08 2547.9 1269.46 2546.96 1269.73 2546.09 1269.82 2545.23 1269.92 2544.43 1269.84 2543.99 1269.57 2545.27 1268.53 2546.22 1266.99 2546 1265.24 2545.79 1263.48 2544.99 1262.24 2543.7 1261.83L2542.55 1261.61 2541.14 1261.63C2540.16 1261.74 2539.13 1262.08 2538.28 1262.78 2537 1263.82 2535.22 1266.11 2534.21 1268.2L2534.1 1268.47C2533.26 1269.71 2532.88 1270.72 2532.84 1271.57L2532.99 1272.55 2534.41 1273.78C2536.41 1275.13 2538.53 1276.26 2540.7 1277.3 2547.95 1278.11 2553.83 1280.38 2562.46 1279.74 2571.09 1279.1 2575.22 1277.79 2579.97 1275.61L2582.46 1274.07 2586.15 1265.91 2586.45 1263.25 2583.76 1263.5C2574.71 1265.16 2566.86 1269.78 2561.53 1276.19L2560.85 1277.14 2560.85 1240.38 2561.76 1241.67C2567.1 1248.07 2574.95 1252.69 2583.99 1254.36L2586.38 1254.57 2586.15 1252.49C2584.08 1246.72 2579.61 1231.41 2569.06 1226.49 2571.28 1225.29 2576.51 1223.07 2582.85 1222.08L2589.5 1221.58Z" stroke="#FFA400" stroke-width="4.58333" stroke-miterlimit="8" fill="#FFC000" fill-rule="evenodd"/><path d="M2629.54 1317.34C2629.93 1311.73 2638.72 1307.78 2649.16 1308.51 2659.61 1309.24 2667.75 1314.38 2667.36 1319.99 2666.97 1325.6 2658.18 1329.56 2647.74 1328.83 2637.3 1328.09 2629.15 1322.95 2629.54 1317.34Z" stroke="#165235" stroke-width="4.58333" stroke-miterlimit="8" fill="#21794F" fill-rule="evenodd"/><path d="M2511.37 1319.99C2510.97 1314.38 2519.12 1309.24 2529.57 1308.51 2540.01 1307.78 2548.8 1311.73 2549.19 1317.34 2549.58 1322.95 2541.43 1328.09 2530.99 1328.83 2520.54 1329.56 2511.76 1325.6 2511.37 1319.99Z" stroke="#165235" stroke-width="4.58333" stroke-miterlimit="8" fill="#21794F" fill-rule="evenodd"/><path d="M2567.5 1315 2590 1302.5 2612.5 1315 2590 1327.5Z" stroke="#011783" stroke-width="4.58333" stroke-miterlimit="8" fill="#184EC6" fill-rule="evenodd"/><path d="M2682.95 1321.71 2707.19 1314.37 2713.41 1328.08 2702.14 1338.24 2682.95 1321.71Z" stroke="#A40000" stroke-width="4.58333" stroke-miterlimit="8" fill="#D40032" fill-rule="evenodd"/><path d="M2589.11 1339.5C2617.78 1339.5 2638.93 1340.01 2669.65 1342.56L2698.15 1345.26C2703.52 1346.49 2704.97 1352.42 2704.37 1355.56 2703.77 1358.69 2698.4 1366.38 2694.55 1364.07 2645.69 1358.65 2624.24 1357.79 2589.13 1357.74 2554.02 1357.69 2533.26 1359.58 2483.9 1363.8 2478.83 1363.87 2476.38 1359.92 2475.87 1356.85 2475.37 1353.78 2474.38 1347.65 2480.85 1345.35L2509.45 1343.07C2540.02 1340.69 2560.43 1339.5 2589.11 1339.5Z" stroke="#E9E1D3" stroke-width="4.58333" stroke-miterlimit="8" fill="#FEFAE7" fill-rule="evenodd"/><path d="M2498.79 1353.59 2507.88 1350.78 2503.27 1348.95 2527.85 1350.51 2504.13 1357.14 2508.24 1354.43 2498.79 1353.59Z" fill="#404040" fill-rule="evenodd"/><path d="M2551.53 1350.67 2560.75 1348.34 2556.25 1346.27 2580.72 1349.11 2556.68 1354.49 2560.92 1352 2551.53 1350.67Z" fill="#404040" fill-rule="evenodd"/><path d="M2604.33 1349.59 2613.75 1348.24 2609.48 1345.71 2633.52 1351.09 2609.05 1353.93 2613.53 1351.9 2604.33 1349.59Z" fill="#404040" fill-rule="evenodd"/><path d="M2657.18 1350.54 2666.66 1349.68 2662.53 1346.93 2686.26 1353.56 2661.67 1355.12 2666.25 1353.32 2657.18 1350.54Z" fill="#404040" fill-rule="evenodd"/><path d="M2589.5 1283.5C2621.76 1283.5 2645.56 1283.89 2680.12 1285.79L2712.17 1287.82C2718.22 1288.74 2720.39 1289.58 2719.18 1295.54 2717.96 1301.5 2715.52 1303.65 2711.19 1301.92 2656.23 1297.86 2629.95 1297.17 2589.53 1297.17 2549.12 1297.17 2524.23 1298.76 2468.7 1301.92 2464.53 1300.12 2463.15 1303.12 2462.12 1296.51 2461.1 1289.89 2460.44 1289.61 2467.73 1287.89L2499.89 1286.17C2534.28 1284.39 2557.25 1283.5 2589.5 1283.5Z" stroke="#FFA400" stroke-width="4.58333" stroke-miterlimit="8" fill="#FFC000" fill-rule="evenodd"/><path d="M2516.38 1270.05C2516.25 1267.36 2518.33 1265.08 2521.02 1264.95L2536.58 1264.23C2539.27 1264.1 2541.55 1266.18 2541.68 1268.87L2541.68 1268.87C2541.8 1271.56 2539.73 1273.84 2537.04 1273.97L2521.47 1274.69C2518.78 1274.82 2516.5 1272.74 2516.38 1270.05Z" stroke="#FFA400" stroke-width="4.58333" stroke-miterlimit="8" fill="#FFC000" fill-rule="evenodd"/><path d="M0 12.2027 22.1992 0 31.1143 12.127 22.1992 24.4053 0 12.2027Z" stroke="#A40000" stroke-width="4.58333" stroke-miterlimit="8" fill="#D40032" fill-rule="evenodd" transform="matrix(-0.978343 0.206992 0.206992 0.978343 2493.25 1309.77)"/></g></svg>