<svg width="2338" height="1169" xmlns="http://www.w3.org/2000/svg" xmlns:xlink="http://www.w3.org/1999/xlink" xml:space="preserve" overflow="hidden"><defs><clipPath id="clip0"><rect x="1031" y="653" width="2338" height="1169"/></clipPath></defs><g clip-path="url(#clip0)" transform="translate(-1031 -653)"><rect x="1810" y="653" width="1559" height="1169" fill="#006747"/><rect x="0" y="0" width="779" height="1169" fill="#9B2743" transform="matrix(-1 1.22465e-16 1.22465e-16 1 1810 653)"/><path d="M1506 1271.23 1539.6 1268.63 1552.5 1238 1565.4 1268.63 1599 1271.23 1573.37 1292.76 1581.24 1325 1552.5 1307.68 1523.76 1325 1531.63 1292.76Z" fill="#F7E34A" fill-rule="evenodd"/><path d="M1357 1633.5 1406.47 1619.4 1381.46 1574.46 1426.4 1599.47 1440.5 1550 1454.6 1599.47 1499.54 1574.46 1474.53 1619.4 1524 1633.5 1474.53 1647.6 1499.54 1692.54 1454.6 1667.53 1440.5 1717 1426.4 1667.53 1381.46 1692.54 1406.47 1647.6Z" fill="#F7E34A" fill-rule="evenodd"/><path d="M1064 1183.25 1109.7 1156.47 1080.14 1112.49 1129.57 1131.54 1145.5 1081 1161.43 1131.54 1210.86 1112.49 1181.3 1156.47 1227 1183.25 1174.21 1187.55 1181.77 1240 1145.5 1201.39 1109.23 1240 1116.79 1187.55Z" fill="#F7E34A" fill-rule="evenodd"/><path d="M1614 1106.25 1659.7 1079.47 1630.14 1035.49 1679.57 1054.54 1695.5 1004 1711.43 1054.54 1760.86 1035.49 1731.3 1079.47 1777 1106.25 1724.21 1110.55 1731.77 1163 1695.5 1124.39 1659.23 1163 1666.79 1110.55Z" fill="#F7E34A" fill-rule="evenodd"/><path d="M1370 805.75 1421.87 815.055 1440 764 1458.13 815.055 1510 805.75 1476.27 847.5 1510 889.25 1458.13 879.945 1440 931 1421.87 879.945 1370 889.25 1403.73 847.5Z" fill="#F7E34A" fill-rule="evenodd"/><path d="M2449.01 1315.43C2453.82 1343.64 2440.13 1432.88 2458.37 1462.54 2463.82 1471.33 2429.58 1495.7 2426.56 1514.65L2383.7 1511.22C2377.7 1507.61 2367.51 1508.54 2380.74 1497.65 2397.23 1488.16 2403.78 1488.65 2421.42 1477.68 2422.29 1457.53 2406.74 1445.26 2408.87 1419.83 2411 1394.4 2430.79 1324.4 2432.8 1318.55ZM2705.82 1283.01C2731.08 1326.69 2759.14 1351.66 2800.76 1382.7 2807.93 1411.12 2814.32 1423.16 2818.06 1432.47 2821.8 1441.78 2841.13 1448.82 2815.25 1461.02 2795.46 1470.74 2764.9 1487.49 2742.3 1515.47L2705.98 1509.69C2699.98 1506.08 2690.26 1503.27 2703.49 1492.38 2722.32 1489.91 2747.11 1475.89 2776.91 1441.05 2743.6 1394.71 2705.62 1346.98 2685.4 1288.47ZM2178.65 1144.71C2178.56 1144.96 2178.3 1145.53 2177.85 1146.5 2174.57 1168.03 2165.22 1187.69 2146.05 1202.67 2139.66 1197.99 2131.39 1196.11 2126.87 1188.62 2134.98 1192.21 2140.28 1192.99 2146.51 1194.24 2145.58 1190.5 2142.31 1186.75 2143.71 1183.01 2150.26 1180.67 2151.19 1184.88 2154.93 1185.82 2154.31 1182.85 2152.28 1179.89 2153.06 1176.92 2156.65 1175.05 2160.23 1175.99 2163.82 1175.52 2161.95 1172.56 2157.74 1171 2158.21 1166.63 2158.91 1163.35 2165.69 1163.43 2168.96 1160.07 2171.83 1157.14 2179.29 1142.98 2178.65 1144.71ZM2045.6 1065.34 2056.35 1067.68C2056.35 1073.92 2056.82 1077.82 2059.63 1085.94 2046.69 1080.79 2047.78 1073.77 2045.6 1065.34ZM2134.23 1016.59C2137.33 1016.59 2139.84 1019.1 2139.84 1022.2 2139.84 1025.31 2137.33 1027.82 2134.23 1027.82 2131.13 1027.82 2128.62 1025.31 2128.62 1022.2 2128.62 1019.1 2131.13 1016.59 2134.23 1016.59ZM2122.82 1005.23C2124.72 1007.94 2126.75 1010.04 2128.83 1011.76L2130.81 1013.08 2128.11 1014.08C2124.94 1016.04 2123.08 1019.78 2123.69 1023.7 2124.09 1026.31 2125.52 1028.52 2127.5 1029.96L2129.18 1030.75 2128 1032.26C2125.98 1034.42 2123.15 1036.78 2118.71 1039.17 2146.4 1031.52 2145.93 1025.64 2161.25 1026.38 2151.23 1015.68 2138.97 1012.52 2122.82 1005.23ZM2246.61 982.596C2243.42 982.384 2239.99 982.866 2236.77 984.095 2223.91 989.009 2231 1020.68 2251.74 1025.75 2236.93 1012.1 2237.47 997.901 2241.92 993.923 2246.36 989.945 2254.78 985.733 2255.94 1001.88 2263.49 990.12 2256.16 983.232 2246.61 982.596ZM2258.37 967.751C2259.85 967.816 2261.23 968.103 2262.49 968.649 2272.55 973.018 2273.17 995.249 2266.23 1015.92 2266.99 1026.86 2304.14 1043.94 2328.85 1058.78L2354.13 1075.09 2383.1 1084.9 2388.29 1153.21 2399.34 1087.68 2422.36 1091.49 2428.01 1091.92 2432.3 1109.5C2435.52 1125.68 2438.07 1142.77 2439.54 1161.32 2443.06 1144.08 2445.07 1127.38 2446.14 1111.02 2446.25 1105.12 2446.36 1099.22 2446.48 1093.32L2469.89 1095.1 2480.3 1095.38 2489.32 1137.89C2492.05 1154.16 2494.09 1171.32 2495 1189.91 2499.03 1172.78 2501.55 1156.14 2503.11 1139.82L2505.27 1096.06 2525.54 1096.61 2534.08 1096.62 2535.53 1105.68C2540.07 1136.28 2543.35 1168.19 2541.61 1205.38 2552.92 1172.05 2557.97 1140.11 2561.45 1108.53L2562.62 1096.69 2586.46 1096.74 2589.05 1119.9C2592.12 1150.68 2593.88 1182.72 2590.37 1219.78 2603.26 1187.03 2609.82 1155.37 2614.8 1123.98L2618.82 1096.52 2647.69 1096.31C2647.75 1105.33 2647.8 1114.35 2647.86 1123.37 2647.69 1154.3 2646.08 1186.34 2638.7 1222.83 2654.95 1191.61 2664.8 1160.82 2673.04 1130.13L2681.75 1096.1 2708.76 1095.95 2706.71 1126.9C2704.31 1157.74 2700.39 1189.58 2690.39 1225.44 2708.86 1195.48 2720.9 1165.48 2731.34 1135.46L2744.3 1096.73 2765.49 1098.84 2770.71 1099.37 2765.06 1136.67C2759.71 1169.44 2752.64 1203.13 2738.72 1240.58 2761.16 1210.21 2776.75 1179.21 2790.63 1148.06L2809.57 1104.12 2813.38 1104.67 2824.57 1107.34 2822.42 1121.53C2817.07 1154.29 2810 1187.99 2796.08 1225.44 2818.52 1195.07 2834.11 1164.07 2847.99 1132.92L2854.48 1117.86 2872.26 1127.77 2877.94 1131.89 2862.9 1167.76C2855.38 1183.78 2846.68 1200.16 2836.12 1217.11 2850.15 1204.47 2862.53 1191.35 2873.88 1177.91L2897.85 1146.74 2905.53 1153.12 2914.52 1161.09 2907.03 1174C2897.52 1188.92 2886.8 1204.05 2874.16 1219.51 2885.81 1211.46 2896.57 1203.02 2906.7 1194.29L2928.1 1174.23 2931.84 1177.97 2943.52 1191.35 2935.12 1202.84C2929.4 1210.21 2923.28 1217.64 2916.68 1225.13L2950.54 1199.96 2960.3 1212.29 2967.49 1222.04 2950.57 1241.85 2971.29 1227.19 2975.1 1232.36C3034.94 1315.83 3102.09 1434.37 3160.23 1483.95 3172.18 1494.15 3164.8 1509.33 3145.26 1496.43 3066.7 1435.69 2990.62 1265.75 2908.01 1251.81 2862.49 1249.1 2855.32 1366.22 2922.04 1399.08 2937.42 1407.61 2944.38 1424.56 2936.38 1434.97 2910.92 1461.59 2889.2 1485.41 2875.89 1515.78 2854.9 1518.07 2814.27 1519.42 2818.53 1504.86 2826.84 1485.72 2845.44 1476.88 2861.24 1467.1L2879.64 1425.29C2806.06 1390.87 2744.64 1323.68 2715.02 1274.27 2614.11 1299.44 2530.04 1297.47 2435.68 1309.53 2418.84 1312.13 2406.68 1396.17 2387.04 1439.02 2383.77 1446.25 2398.73 1448.8 2390.32 1456.96 2363.24 1474.18 2349.27 1519.47 2337.16 1517.96L2281.04 1515.16C2281.72 1494.64 2315.28 1480.62 2327.18 1473.97 2329.21 1457.22 2347.14 1458.21 2352.12 1432 2351.92 1393.73 2351.71 1355.45 2351.5 1317.18 2342.64 1286.29 2307.18 1275.81 2287.74 1251.81 2268.31 1227.81 2239.34 1191.46 2233.5 1159.61 2239.22 1154.48 2244.3 1149.34 2248.91 1144.24L2259.25 1131.82 2260.84 1126.92C2267.58 1105.77 2278.36 1068.15 2263.43 1073.96 2270.68 1103.52 2240.36 1127.47 2230.22 1140.89L2193.75 1197.52C2171.61 1219.83 2159.3 1217.33 2152.59 1209.69 2152.28 1200.72 2174.34 1182.85 2179.72 1170.37 2185.09 1157.89 2185.02 1122.09 2176.44 1104.85 2167.87 1087.61 2149.79 1073.64 2128.28 1066.94 2106.76 1060.23 2060.47 1068.34 2044.57 1058.98 2027.11 1055.23 2026.72 1051.02 2023.52 1044.47 2019.55 1040.18 2037.32 1040.18 2036.15 1032.77 2035.84 1030.82 2024.92 1038 2023.05 1036.05 2022.12 1034.64 2020.87 1026.84 2023.99 1023.88 2027.11 1020.91 2029.29 1021.61 2041.76 1018.26 2053.29 1012.72 2080.11 1011.16 2105.36 1004.22 2130.61 994.001 2147.29 979.726 2172.7 980.35 2206 981.523 2205.83 982.846 2219.94 986.903 2232.69 977.756 2248.01 967.296 2258.37 967.751ZM2202.77 957.012C2204.09 957.078 2205.3 957.406 2206.39 958.052 2215.07 963.222 2214.41 972.442 2215.37 980.744 2197.04 975.678 2194.8 975.211 2172.54 974.712 2179.5 968.931 2193.55 956.553 2202.77 957.012Z" fill="#F7E34A" fill-rule="evenodd"/></g></svg>