<svg width="2338" height="1169" xmlns="http://www.w3.org/2000/svg" xmlns:xlink="http://www.w3.org/1999/xlink" xml:space="preserve" overflow="hidden"><defs><clipPath id="clip0"><rect x="1031" y="653" width="2338" height="1169"/></clipPath></defs><g clip-path="url(#clip0)" transform="translate(-1031 -653)"><rect x="1810" y="653" width="1559" height="1169" fill="#FFFFFF"/><rect x="0" y="0" width="779" height="1169" fill="#002854" transform="matrix(-1 1.22465e-16 1.22465e-16 1 1810 653)"/><path d="M2394 1401.5 2511.13 1368.21 2451.85 1261.85 2558.21 1321.13 2591.5 1204 2624.79 1321.13 2731.15 1261.85 2671.87 1368.21 2789 1401.5 2671.87 1434.79 2731.15 1541.15 2624.79 1481.87 2591.5 1599 2558.21 1481.87 2451.85 1541.15 2511.13 1434.79Z" fill="#002854" fill-rule="evenodd"/><path d="M1506 1271.23 1539.6 1268.63 1552.5 1238 1565.4 1268.63 1599 1271.23 1573.37 1292.76 1581.24 1325 1552.5 1307.68 1523.76 1325 1531.63 1292.76Z" fill="#FFFFFF" fill-rule="evenodd"/><path d="M1357 1633.5 1406.47 1619.4 1381.46 1574.46 1426.4 1599.47 1440.5 1550 1454.6 1599.47 1499.54 1574.46 1474.53 1619.4 1524 1633.5 1474.53 1647.6 1499.54 1692.54 1454.6 1667.53 1440.5 1717 1426.4 1667.53 1381.46 1692.54 1406.47 1647.6Z" fill="#FFFFFF" fill-rule="evenodd"/><path d="M1064 1183.25 1109.7 1156.47 1080.14 1112.49 1129.57 1131.54 1145.5 1081 1161.43 1131.54 1210.86 1112.49 1181.3 1156.47 1227 1183.25 1174.21 1187.55 1181.77 1240 1145.5 1201.39 1109.23 1240 1116.79 1187.55Z" fill="#FFFFFF" fill-rule="evenodd"/><path d="M1625 1045.5 1676.87 1054.75 1695 1004 1713.13 1054.75 1765 1045.5 1731.27 1087 1765 1128.5 1713.13 1119.25 1695 1170 1676.87 1119.25 1625 1128.5 1658.73 1087Z" fill="#FFFFFF" fill-rule="evenodd"/><path d="M1359 867.254 1404.7 840.466 1375.14 796.492 1424.57 815.537 1440.5 765 1456.43 815.537 1505.86 796.492 1476.3 840.466 1522 867.254 1469.21 871.551 1476.77 924.001 1440.5 885.386 1404.23 924.001 1411.79 871.551Z" fill="#FFFFFF" fill-rule="evenodd"/><path d="M2396.88 979.403C2394.11 1000.64 2407.18 1032.66 2418.67 1056.5L2436.41 1047.53C2424.49 1024.17 2411.83 998.864 2415.17 984.834 2418.52 970.803 2429.93 963.725 2456.48 963.346 2483.04 962.968 2533.96 982.562 2574.5 982.562 2574.44 975.887 2574.39 969.211 2574.33 962.535 2501.49 962.535 2404.71 919.328 2396.88 979.403Z" stroke="#FFA400" stroke-width="4.58333" stroke-miterlimit="8" fill="#FFC000" fill-rule="evenodd"/><path d="M0.375203 31.6101C-2.3924 52.6487 10.6845 84.3775 22.1683 108L39.9103 99.1126C27.9893 75.9666 15.3281 50.893 18.6735 36.9912 22.0188 23.0893 33.4282 16.0759 59.9825 15.7009 86.5368 15.3258 137.462 34.7409 178 34.7409 177.943 28.1265 177.886 21.5119 177.829 14.8975 104.986 14.8975 8.20556-27.9131 0.375203 31.6101Z" stroke="#FFA400" stroke-width="4.58333" stroke-miterlimit="8" fill="#FFC000" fill-rule="evenodd" transform="matrix(-1 0 0 1 2783.5 945.5)"/><path d="M2585.72 869.409 2585.72 869.41 2585.72 869.409ZM2570.49 844.5 2610.6 844.5 2609.56 845.168C2602.51 850.438 2597.43 858.187 2595.6 867.123L2595.37 869.383 2595.4 869.445 2598.11 869.172C2607.05 867.343 2614.8 862.259 2620.07 855.212L2620.5 854.537 2620.5 894.228 2619.83 893.187C2614.56 886.14 2606.81 881.055 2597.88 879.227L2595.31 878.968C2595.29 878.802 2595.27 878.635 2595.26 878.469 2595.27 878.635 2595.29 878.802 2595.31 878.968L2595.6 881.877C2597.43 890.813 2602.51 898.563 2609.56 903.833L2610.6 904.5 2570.49 904.5 2571.53 903.833C2578.58 898.563 2583.66 890.813 2585.49 881.877L2585.78 878.959 2585.78 878.959 2583.12 879.227C2574.19 881.055 2566.44 886.14 2561.17 893.187L2560.5 894.228 2560.5 853.804 2561.4 855.212C2566.67 862.259 2574.42 867.343 2583.36 869.172L2585.72 869.409 2585.49 867.123C2583.66 858.187 2578.58 850.438 2571.53 845.168L2570.49 844.5Z" stroke="#FFA400" stroke-width="4.58333" stroke-miterlimit="8" fill="#FFC000" fill-rule="evenodd"/><path d="M2590 896.5C2605.74 896.5 2618.5 909.036 2618.5 924.5 2618.5 939.964 2605.74 952.5 2590 952.5 2574.26 952.5 2561.5 939.964 2561.5 924.5 2561.5 909.036 2574.26 896.5 2590 896.5Z" stroke="#FFA400" stroke-width="4.58333" stroke-miterlimit="8" fill="#FFC000" fill-rule="evenodd"/><path d="M2590 895.5 2597.38 896.998 2597.38 917.287 2617.12 917.287 2618.5 924.145 2617.02 931.5 2562.98 931.5 2561.5 924.145 2562.88 917.287 2583.24 917.287 2583.24 896.872 2590 895.5Z" stroke="#FFA400" stroke-width="4.58333" stroke-miterlimit="8" fill="#FFC000" fill-rule="evenodd"/><path d="M2460.67 1130.5 2726.03 1128.34C2738.55 1101.37 2746.72 1065.4 2748.35 1048.54 2751.76 1020.89 2697.05 1004.47 2658 1019.42 2636.8 1021.43 2635.37 1003.71 2592.14 1003.5 2547.54 1003.29 2542.68 1022.73 2521.67 1020.72 2491.98 1013.04 2426.34 1004.33 2429.62 1050.7 2432.04 1067.91 2437.36 1103.89 2460.67 1130.5Z" stroke="#A40000" stroke-width="4.58333" stroke-miterlimit="8" fill="#D40032" fill-rule="evenodd"/><rect x="2573.5" y="946.5" width="33.9998" height="80.0001" stroke="#FFA400" stroke-width="4.58333" stroke-miterlimit="8" fill="#FFC000"/><path d="M0 12.4999C-1.59142e-15 5.59638 5.59646-1.5914e-15 12.5-3.1828e-15 19.4036-6.3656e-15 25.0001 5.59638 25.0001 12.4999 25.0001 19.4034 19.4036 24.9997 12.5 24.9997 5.59646 24.9997-7.95712e-15 19.4034 0 12.4999Z" stroke="#E9E1D3" stroke-width="4.58333" stroke-miterlimit="8" fill="#FEFAE7" fill-rule="evenodd" transform="matrix(-1 1.22465e-16 1.22465e-16 1 2602.5 921.5)"/><path d="M0 12.5C-1.59142e-15 5.59646 5.59646-1.59142e-15 12.5-3.18285e-15 19.4036-6.36569e-15 25.0001 5.59646 25.0001 12.5 25.0001 19.4036 19.4036 25.0001 12.5 25.0001 5.59646 25.0001-7.95712e-15 19.4036 0 12.5Z" stroke="#E9E1D3" stroke-width="4.58333" stroke-miterlimit="8" fill="#FEFAE7" fill-rule="evenodd" transform="matrix(-1 1.22465e-16 1.22465e-16 1 2602.5 938.5)"/><path d="M0 12.5C-1.59142e-15 5.59646 5.59646-1.59142e-15 12.5-3.18285e-15 19.4036-6.36569e-15 25.0001 5.59646 25.0001 12.5 25.0001 19.4036 19.4036 25.0001 12.5 25.0001 5.59646 25.0001-7.95712e-15 19.4036 0 12.5Z" stroke="#E9E1D3" stroke-width="4.58333" stroke-miterlimit="8" fill="#FEFAE7" fill-rule="evenodd" transform="matrix(-1 1.22465e-16 1.22465e-16 1 2602.5 958.5)"/><path d="M0 12.4999C-1.59142e-15 5.59638 5.59646-1.5914e-15 12.5-3.1828e-15 19.4036-6.3656e-15 25.0001 5.59638 25.0001 12.4999 25.0001 19.4034 19.4036 24.9997 12.5 24.9997 5.59646 24.9997-7.95712e-15 19.4034 0 12.4999Z" stroke="#E9E1D3" stroke-width="4.58333" stroke-miterlimit="8" fill="#FEFAE7" fill-rule="evenodd" transform="matrix(-1 1.22465e-16 1.22465e-16 1 2602.5 977.5)"/><path d="M0 11.9999C-1.59142e-15 5.37252 5.59646-1.52774e-15 12.5-3.05548e-15 19.4036-6.11097e-15 25.0001 5.37252 25.0001 11.9999 25.0001 18.6272 19.4036 23.9997 12.5 23.9997 5.59646 23.9997-7.95712e-15 18.6272 0 11.9999Z" stroke="#E9E1D3" stroke-width="4.58333" stroke-miterlimit="8" fill="#FEFAE7" fill-rule="evenodd" transform="matrix(-1 1.22465e-16 1.22465e-16 1 2602.5 999.5)"/><path d="M0 12C-1.59142e-15 5.3726 5.59646-1.52776e-15 12.5-3.05553e-15 19.4036-6.11106e-15 25.0001 5.3726 25.0001 12 25.0001 18.6275 19.4036 24.0001 12.5 24.0001 5.59646 24.0001-7.95712e-15 18.6275 0 12Z" stroke="#E9E1D3" stroke-width="4.58333" stroke-miterlimit="8" fill="#FEFAE7" fill-rule="evenodd" transform="matrix(-1 1.22465e-16 1.22465e-16 1 2438.5 924.5)"/><path d="M0 12.4999C-1.5914e-15 5.59638 5.59638-1.5914e-15 12.4999-3.1828e-15 19.4034-6.3656e-15 24.9997 5.59638 24.9997 12.4999 24.9997 19.4034 19.4034 24.9997 12.4999 24.9997 5.59638 24.9997-7.957e-15 19.4034 0 12.4999Z" stroke="#E9E1D3" stroke-width="4.58333" stroke-miterlimit="8" fill="#FEFAE7" fill-rule="evenodd" transform="matrix(-1 1.22465e-16 1.22465e-16 1 2464.5 923.5)"/><path d="M0 12.4999C-1.59142e-15 5.59638 5.59646-1.5914e-15 12.5-3.1828e-15 19.4036-6.3656e-15 25.0001 5.59638 25.0001 12.4999 25.0001 19.4034 19.4036 24.9997 12.5 24.9997 5.59646 24.9997-7.95712e-15 19.4034 0 12.4999Z" stroke="#E9E1D3" stroke-width="4.58333" stroke-miterlimit="8" fill="#FEFAE7" fill-rule="evenodd" transform="matrix(-1 1.22465e-16 1.22465e-16 1 2415.5 933.5)"/><path d="M0 12.4999C-1.5914e-15 5.59638 5.59638-1.5914e-15 12.4999-3.1828e-15 19.4034-6.3656e-15 24.9997 5.59638 24.9997 12.4999 24.9997 19.4034 19.4034 24.9997 12.4999 24.9997 5.59638 24.9997-7.957e-15 19.4034 0 12.4999Z" stroke="#E9E1D3" stroke-width="4.58333" stroke-miterlimit="8" fill="#FEFAE7" fill-rule="evenodd" transform="matrix(-1 1.22465e-16 1.22465e-16 1 2399.5 954.5)"/><path d="M0 12.4999C-1.59142e-15 5.59638 5.59646-1.5914e-15 12.5-3.1828e-15 19.4036-6.3656e-15 25.0001 5.59638 25.0001 12.4999 25.0001 19.4034 19.4036 24.9997 12.5 24.9997 5.59646 24.9997-7.95712e-15 19.4034 0 12.4999Z" stroke="#E9E1D3" stroke-width="4.58333" stroke-miterlimit="8" fill="#FEFAE7" fill-rule="evenodd" transform="matrix(-1 1.22465e-16 1.22465e-16 1 2397.5 978.5)"/><path d="M0 12.5C-1.59142e-15 5.59646 5.59646-1.59142e-15 12.5-3.18285e-15 19.4036-6.36569e-15 25.0001 5.59646 25.0001 12.5 25.0001 19.4036 19.4036 25.0001 12.5 25.0001 5.59646 25.0001-7.95712e-15 19.4036 0 12.5Z" stroke="#E9E1D3" stroke-width="4.58333" stroke-miterlimit="8" fill="#FEFAE7" fill-rule="evenodd" transform="matrix(-1 1.22465e-16 1.22465e-16 1 2401.5 1002.5)"/><path d="M0 12.5C-1.5914e-15 5.59646 5.59638-1.59142e-15 12.4999-3.18285e-15 19.4034-6.36569e-15 24.9997 5.59646 24.9997 12.5 24.9997 19.4036 19.4034 25.0001 12.4999 25.0001 5.59638 25.0001-7.957e-15 19.4036 0 12.5Z" stroke="#E9E1D3" stroke-width="4.58333" stroke-miterlimit="8" fill="#FEFAE7" fill-rule="evenodd" transform="matrix(-1 1.22465e-16 1.22465e-16 1 2409.5 1025.5)"/><path d="M0 12C-1.59142e-15 5.3726 5.59646-1.52776e-15 12.5-3.05553e-15 19.4036-6.11106e-15 25.0001 5.3726 25.0001 12 25.0001 18.6275 19.4036 24.0001 12.5 24.0001 5.59646 24.0001-7.95712e-15 18.6275 0 12Z" stroke="#E9E1D3" stroke-width="4.58333" stroke-miterlimit="8" fill="#FEFAE7" fill-rule="evenodd" transform="matrix(-1 1.22465e-16 1.22465e-16 1 2490.5 926.5)"/><path d="M0 12C-1.59142e-15 5.3726 5.59646-1.52776e-15 12.5-3.05553e-15 19.4036-6.11106e-15 25.0001 5.3726 25.0001 12 25.0001 18.6275 19.4036 24.0001 12.5 24.0001 5.59646 24.0001-7.95712e-15 18.6275 0 12Z" stroke="#E9E1D3" stroke-width="4.58333" stroke-miterlimit="8" fill="#FEFAE7" fill-rule="evenodd" transform="matrix(-1 1.22465e-16 1.22465e-16 1 2515.5 930.5)"/><path d="M0 12.4999C-1.5914e-15 5.59638 5.59638-1.5914e-15 12.4999-3.1828e-15 19.4034-6.3656e-15 24.9997 5.59638 24.9997 12.4999 24.9997 19.4034 19.4034 24.9997 12.4999 24.9997 5.59638 24.9997-7.957e-15 19.4034 0 12.4999Z" stroke="#E9E1D3" stroke-width="4.58333" stroke-miterlimit="8" fill="#FEFAE7" fill-rule="evenodd" transform="matrix(-1 1.22465e-16 1.22465e-16 1 2541.5 934.5)"/><path d="M0 12.5C-1.59142e-15 5.59646 5.59646-1.59142e-15 12.5-3.18285e-15 19.4036-6.36569e-15 25.0001 5.59646 25.0001 12.5 25.0001 19.4036 19.4036 25.0001 12.5 25.0001 5.59646 25.0001-7.95712e-15 19.4036 0 12.5Z" stroke="#E9E1D3" stroke-width="4.58333" stroke-miterlimit="8" fill="#FEFAE7" fill-rule="evenodd" transform="matrix(-1 1.22465e-16 1.22465e-16 1 2567.5 937.5)"/><path d="M2741.5 934C2741.5 927.096 2747.1 921.5 2754 921.5 2760.9 921.5 2766.5 927.096 2766.5 934 2766.5 940.904 2760.9 946.5 2754 946.5 2747.1 946.5 2741.5 940.904 2741.5 934Z" stroke="#E9E1D3" stroke-width="4.58333" stroke-miterlimit="8" fill="#FEFAE7" fill-rule="evenodd"/><path d="M2716.5 933C2716.5 926.096 2722.1 920.5 2729 920.5 2735.9 920.5 2741.5 926.096 2741.5 933 2741.5 939.904 2735.9 945.5 2729 945.5 2722.1 945.5 2716.5 939.904 2716.5 933Z" stroke="#E9E1D3" stroke-width="4.58333" stroke-miterlimit="8" fill="#FEFAE7" fill-rule="evenodd"/><path d="M2765.5 943C2765.5 936.096 2771.1 930.5 2778 930.5 2784.9 930.5 2790.5 936.096 2790.5 943 2790.5 949.904 2784.9 955.5 2778 955.5 2771.1 955.5 2765.5 949.904 2765.5 943Z" stroke="#E9E1D3" stroke-width="4.58333" stroke-miterlimit="8" fill="#FEFAE7" fill-rule="evenodd"/><path d="M2780.5 964C2780.5 957.096 2786.1 951.5 2793 951.5 2799.9 951.5 2805.5 957.096 2805.5 964 2805.5 970.904 2799.9 976.5 2793 976.5 2786.1 976.5 2780.5 970.904 2780.5 964Z" stroke="#E9E1D3" stroke-width="4.58333" stroke-miterlimit="8" fill="#FEFAE7" fill-rule="evenodd"/><path d="M2783.5 989C2783.5 982.096 2789.1 976.5 2796 976.5 2802.9 976.5 2808.5 982.096 2808.5 989 2808.5 995.904 2802.9 1001.5 2796 1001.5 2789.1 1001.5 2783.5 995.904 2783.5 989Z" stroke="#E9E1D3" stroke-width="4.58333" stroke-miterlimit="8" fill="#FEFAE7" fill-rule="evenodd"/><path d="M2779.5 1013C2779.5 1006.1 2784.87 1000.5 2791.5 1000.5 2798.13 1000.5 2803.5 1006.1 2803.5 1013 2803.5 1019.9 2798.13 1025.5 2791.5 1025.5 2784.87 1025.5 2779.5 1019.9 2779.5 1013Z" stroke="#E9E1D3" stroke-width="4.58333" stroke-miterlimit="8" fill="#FEFAE7" fill-rule="evenodd"/><path d="M2770.5 1035.5C2770.5 1028.87 2776.1 1023.5 2783 1023.5 2789.9 1023.5 2795.5 1028.87 2795.5 1035.5 2795.5 1042.13 2789.9 1047.5 2783 1047.5 2776.1 1047.5 2770.5 1042.13 2770.5 1035.5Z" stroke="#E9E1D3" stroke-width="4.58333" stroke-miterlimit="8" fill="#FEFAE7" fill-rule="evenodd"/><path d="M2690.5 936C2690.5 929.097 2696.1 923.5 2703 923.5 2709.9 923.5 2715.5 929.097 2715.5 936 2715.5 942.904 2709.9 948.5 2703 948.5 2696.1 948.5 2690.5 942.904 2690.5 936Z" stroke="#E9E1D3" stroke-width="4.58333" stroke-miterlimit="8" fill="#FEFAE7" fill-rule="evenodd"/><path d="M2664.5 940C2664.5 933.096 2670.1 927.5 2677 927.5 2683.9 927.5 2689.5 933.096 2689.5 940 2689.5 946.904 2683.9 952.5 2677 952.5 2670.1 952.5 2664.5 946.904 2664.5 940Z" stroke="#E9E1D3" stroke-width="4.58333" stroke-miterlimit="8" fill="#FEFAE7" fill-rule="evenodd"/><path d="M2638.5 945C2638.5 938.096 2644.1 932.5 2651 932.5 2657.9 932.5 2663.5 938.096 2663.5 945 2663.5 951.904 2657.9 957.5 2651 957.5 2644.1 957.5 2638.5 951.904 2638.5 945Z" stroke="#E9E1D3" stroke-width="4.58333" stroke-miterlimit="8" fill="#FEFAE7" fill-rule="evenodd"/><path d="M2612.5 947C2612.5 940.097 2618.1 934.5 2625 934.5 2631.9 934.5 2637.5 940.097 2637.5 947 2637.5 953.904 2631.9 959.5 2625 959.5 2618.1 959.5 2612.5 953.904 2612.5 947Z" stroke="#E9E1D3" stroke-width="4.58333" stroke-miterlimit="8" fill="#FEFAE7" fill-rule="evenodd"/><path d="M2589.5 1025.5C2600.45 1025.38 2610.39 1029.44 2613.92 1031.35 2601.31 1037.22 2595.98 1055.49 2593.5 1062.37L2593.22 1064.85 2596.08 1064.59C2606.89 1062.61 2616.26 1057.09 2622.63 1049.45L2623.73 1047.93 2623.73 1091.76 2622.92 1090.63C2616.54 1082.99 2607.17 1077.47 2596.36 1075.49L2593.15 1075.2 2593.5 1078.36 2597.91 1088.09 2600.88 1089.93C2606.55 1092.54 2611.49 1094.09 2621.8 1094.86 2632.11 1095.62 2639.13 1092.92 2647.8 1091.95 2650.39 1090.71 2652.93 1089.37 2655.31 1087.76L2657 1086.29 2657.18 1085.11C2657.14 1084.1 2656.68 1082.9 2655.68 1081.42L2655.55 1081.1C2654.34 1078.61 2652.21 1075.87 2650.69 1074.63 2649.68 1073.8 2648.44 1073.4 2647.27 1073.26L2645.59 1073.24 2644.22 1073.5C2642.68 1073.99 2641.71 1075.47 2641.46 1077.57 2641.21 1079.66 2642.34 1081.49 2643.87 1082.73 2643.35 1083.06 2642.39 1083.14 2641.36 1083.03 2640.32 1082.92 2639.2 1082.61 2638.35 1082.14 2636.64 1081.21 2634.91 1079.7 2633.64 1077.17 2632.43 1074.77 2632.48 1069.01 2634.27 1066.26 2635.17 1064.89 2636.38 1063.6 2638.03 1062.6L2640.37 1061.56 2640.84 1061.35 2640.84 1061.35 2641.88 1061.09 2642.51 1060.94C2643.1 1060.83 2643.72 1060.74 2644.38 1060.69 2644.97 1060.65 2645.54 1060.64 2646.11 1060.68 2650.05 1060.93 2653.33 1063.1 2655.81 1066.45 2656.39 1067.23 2656.96 1068.28 2657.5 1069.5L2657.82 1070.26 2657.56 1069.22C2656.91 1066.87 2656.25 1064.74 2655.74 1062.46 2655.74 1062.46 2655.74 1062.46 2655.74 1062.46L2654.72 1058.72C2653.82 1055.73 2652.9 1053.06 2652.67 1050.52 2652.65 1050.02 2652.63 1049.52 2652.62 1049.02L2652.62 1049.01C2652.62 1049.01 2652.62 1049 2652.62 1048.99 2652.66 1048.51 2652.7 1048.03 2652.73 1047.55 2653.04 1045.18 2653.9 1043.05 2655.02 1041L2656.47 1038.56C2656.47 1038.56 2656.47 1038.56 2656.47 1038.56 2658.52 1035.32 2663.56 1031.05 2664.97 1029.55 2664.97 1029.54 2664.97 1029.54 2664.97 1029.53 2664.98 1029.53 2664.98 1029.54 2664.99 1029.54 2664.99 1029.54 2664.99 1029.53 2665 1029.53 2665 1029.54 2665 1029.54 2665 1029.55 2665.01 1029.57 2665.02 1029.58 2665.04 1029.6L2665.08 1029.55C2665.08 1029.55 2665.08 1029.54 2665.08 1029.54 2665.08 1029.54 2665.09 1029.54 2665.09 1029.55 2665.1 1029.54 2665.1 1029.54 2665.11 1029.54 2665.11 1029.54 2665.11 1029.55 2665.11 1029.55 2666.34 1031.18 2670.85 1035.9 2672.51 1039.31 2672.51 1039.31 2672.51 1039.31 2672.51 1039.32L2673.67 1041.88C2674.54 1044.02 2675.15 1046.21 2675.18 1048.61 2675.16 1049.09 2675.14 1049.57 2675.12 1050.05L2675.12 1050.07C2675.12 1050.07 2675.12 1050.08 2675.12 1050.08L2674.9 1051.57C2674.37 1054.07 2673.14 1056.64 2671.9 1059.52L2670.45 1063.15C2670.45 1063.15 2670.45 1063.15 2670.45 1063.15 2669.68 1065.37 2668.77 1067.42 2667.85 1069.7L2667.47 1070.71 2667.88 1069.98C2668.56 1068.83 2669.25 1067.83 2669.91 1067.11 2672.77 1064.01 2676.29 1062.16 2680.24 1062.28 2680.8 1062.3 2681.37 1062.36 2681.96 1062.46 2682.6 1062.57 2683.21 1062.71 2683.78 1062.87L2685.23 1063.38 2685.4 1063.44 2686.3 1063.96 2688.04 1064.95 2688.71 1065.59 2690 1066.83C2690.54 1067.51 2690.99 1068.22 2691.35 1068.94 2692.81 1071.84 2692.2 1077.58 2690.72 1079.85 2689.15 1082.25 2687.25 1083.59 2685.45 1084.36 2684.55 1084.74 2683.4 1084.94 2682.35 1084.96 2681.31 1084.97 2680.37 1084.8 2679.89 1084.42 2681.55 1083.34 2682.9 1081.62 2682.89 1079.51 2682.88 1077.41 2682.09 1075.84 2680.62 1075.21L2679.28 1074.82 2677.61 1074.69C2676.43 1074.71 2675.16 1075 2674.05 1075.73 2672.39 1076.82 2669.96 1079.34 2668.47 1081.71L2668.3 1082.01C2666.54 1084.03 2666.21 1085.65 2666.64 1087.07L2667.19 1088.19 2667.39 1088.43C2669.52 1090.26 2671.92 1091.83 2674.43 1093.3L2680.8 1097.03C2685.05 1097.86 2693.12 1098.15 2699.93 1098.32 2706.73 1098.49 2710.44 1097.55 2715.69 1097.16 2718.37 1096.08 2721 1094.9 2723.51 1093.44L2728.68 1089.55 2731.69 1084.7 2732.48 1081.6 2729.24 1081.54C2718.25 1082.32 2708.19 1086.77 2700.83 1093.66L2699.87 1094.69 2705.83 1051.19 2706.71 1052.82C2711.99 1061.1 2720.55 1067.6 2731.01 1070.75L2733.81 1071.32C2733.83 1070.49 2733.85 1069.66 2733.87 1068.82 2732.99 1058.97 2736.16 1049.63 2728.47 1043.03 2734.08 1039.91 2751.71 1035.68 2767.5 1050.12 2747.06 1081.02 2724.71 1145.19 2719.47 1186.4 2698.44 1183.74 2662.25 1182.43 2622.74 1182.07L2589.83 1182.03 2589.83 1182.13 2556.26 1182.17C2516.75 1182.52 2480.56 1183.83 2459.53 1186.5 2454.29 1145.29 2431.94 1081.12 2411.5 1050.21 2427.29 1035.78 2444.92 1040.01 2450.53 1043.12 2442.84 1049.73 2446.01 1059.06 2445.13 1068.92 2445.15 1069.75 2445.17 1070.58 2445.19 1071.41L2447.99 1070.84C2458.45 1067.69 2467.01 1061.2 2472.29 1052.92L2473.17 1051.29 2479.13 1094.79 2478.17 1093.75C2470.81 1086.87 2460.75 1082.42 2449.76 1081.63L2446.52 1081.7 2447.31 1084.8 2450.32 1089.65 2455.49 1093.54C2458 1094.99 2460.63 1096.18 2463.31 1097.26 2468.56 1097.64 2472.27 1098.59 2479.07 1098.42 2485.88 1098.25 2493.95 1097.96 2498.2 1097.12L2504.57 1093.39C2507.08 1091.93 2509.48 1090.36 2511.61 1088.53L2511.81 1088.28 2512.36 1087.16C2512.79 1085.74 2512.46 1084.13 2510.7 1082.11L2510.53 1081.81C2509.04 1079.44 2506.61 1076.92 2504.95 1075.82 2503.84 1075.09 2502.57 1074.81 2501.39 1074.78L2499.72 1074.92 2498.38 1075.31C2496.91 1075.94 2496.12 1077.5 2496.11 1079.61 2496.1 1081.71 2497.45 1083.43 2499.11 1084.52 2498.63 1084.89 2497.69 1085.07 2496.65 1085.05 2495.6 1085.04 2494.45 1084.83 2493.55 1084.45 2491.75 1083.69 2489.85 1082.34 2488.28 1079.94 2486.8 1077.67 2486.19 1071.94 2487.65 1069.04 2488.01 1068.32 2488.46 1067.6 2489 1066.93L2490.29 1065.68 2490.96 1065.04 2492.7 1064.05 2493.6 1063.54 2493.77 1063.48 2495.22 1062.97C2495.79 1062.81 2496.4 1062.67 2497.05 1062.55 2497.63 1062.45 2498.2 1062.4 2498.76 1062.38 2502.71 1062.26 2506.23 1064.11 2509.09 1067.21 2509.75 1067.93 2510.44 1068.92 2511.12 1070.08L2511.53 1070.81 2511.15 1069.8C2510.23 1067.52 2509.32 1065.47 2508.55 1063.25 2508.55 1063.25 2508.55 1063.25 2508.55 1063.24L2507.1 1059.62C2505.86 1056.73 2504.63 1054.16 2504.1 1051.66L2503.88 1050.17C2503.88 1050.17 2503.88 1050.17 2503.88 1050.17L2503.88 1050.15C2503.86 1049.67 2503.84 1049.19 2503.82 1048.7 2503.85 1046.31 2504.46 1044.12 2505.33 1041.97L2506.49 1039.41C2506.49 1039.41 2506.49 1039.41 2506.49 1039.41 2508.15 1036 2512.66 1031.28 2513.9 1029.65 2513.89 1029.64 2513.89 1029.64 2513.89 1029.63 2513.9 1029.64 2513.9 1029.64 2513.91 1029.64 2513.91 1029.64 2513.92 1029.63 2513.92 1029.63 2513.92 1029.64 2513.92 1029.64 2513.92 1029.65L2513.96 1029.69C2513.98 1029.68 2513.99 1029.66 2514 1029.65 2514 1029.64 2514 1029.63 2514 1029.63 2514.01 1029.63 2514.01 1029.63 2514.01 1029.64 2514.02 1029.63 2514.02 1029.63 2514.03 1029.63 2514.03 1029.63 2514.03 1029.64 2514.03 1029.64 2515.44 1031.15 2520.48 1035.42 2522.53 1038.65 2522.53 1038.65 2522.53 1038.66 2522.53 1038.66L2523.98 1041.1C2525.1 1043.15 2525.96 1045.27 2526.27 1047.65 2526.3 1048.13 2526.34 1048.61 2526.38 1049.09 2526.38 1049.1 2526.38 1049.1 2526.38 1049.11L2526.38 1049.12C2526.37 1049.62 2526.35 1050.12 2526.33 1050.62 2526.1 1053.15 2525.18 1055.83 2524.28 1058.81L2523.26 1062.55C2523.26 1062.55 2523.26 1062.55 2523.26 1062.56 2522.75 1064.84 2522.09 1066.96 2521.44 1069.32L2521.18 1070.36 2521.5 1069.59C2522.04 1068.38 2522.61 1067.32 2523.19 1066.54 2525.67 1063.19 2528.95 1061.02 2532.89 1060.78 2533.46 1060.74 2534.03 1060.74 2534.62 1060.79 2535.28 1060.84 2535.9 1060.92 2536.49 1061.03L2537.12 1061.19 2538.16 1061.44 2538.16 1061.44 2538.63 1061.65 2540.97 1062.69C2542.62 1063.69 2543.83 1064.99 2544.73 1066.36 2546.52 1069.1 2546.57 1074.86 2545.36 1077.26 2544.09 1079.79 2542.36 1081.31 2540.65 1082.24 2539.8 1082.7 2538.68 1083.01 2537.64 1083.13 2536.61 1083.24 2535.65 1083.16 2535.13 1082.83 2536.66 1081.59 2537.79 1079.75 2537.54 1077.66 2537.29 1075.57 2536.32 1074.09 2534.78 1073.6L2533.41 1073.33 2531.73 1073.36C2530.56 1073.49 2529.32 1073.9 2528.31 1074.73 2526.79 1075.97 2524.66 1078.7 2523.45 1081.2L2523.32 1081.51C2522.32 1083 2521.86 1084.19 2521.82 1085.21L2522 1086.39 2523.69 1087.85C2526.07 1089.46 2528.61 1090.81 2531.2 1092.05 2539.87 1093.02 2546.89 1095.72 2557.2 1094.95 2567.51 1094.19 2572.45 1092.63 2578.12 1090.03L2581.09 1088.19 2585.5 1078.46 2585.85 1075.3 2582.64 1075.59C2571.83 1077.57 2562.46 1083.08 2556.08 1090.72L2555.27 1091.85 2555.27 1048.02 2556.37 1049.55C2562.74 1057.19 2572.11 1062.7 2582.92 1064.68L2585.78 1064.94 2585.5 1062.46C2583.02 1055.58 2577.69 1037.32 2565.08 1031.45 2567.73 1030.02 2573.98 1027.37 2581.56 1026.19L2589.5 1025.6Z" stroke="#FFA400" stroke-width="4.58333" stroke-miterlimit="8" fill="#FFC000" fill-rule="evenodd"/><path d="M2637.29 1140.32C2637.76 1133.62 2648.26 1128.89 2660.74 1129.76 2673.22 1130.63 2682.96 1136.78 2682.49 1143.48 2682.02 1150.18 2671.52 1154.91 2659.04 1154.04 2646.56 1153.17 2636.82 1147.02 2637.29 1140.32Z" stroke="#165235" stroke-width="4.58333" stroke-miterlimit="8" fill="#21794F" fill-rule="evenodd"/><path d="M2496.08 1143.48C2495.61 1136.78 2505.35 1130.63 2517.83 1129.76 2530.31 1128.89 2540.81 1133.62 2541.28 1140.32 2541.75 1147.02 2532.01 1153.17 2519.53 1154.04 2507.05 1154.91 2496.55 1150.18 2496.08 1143.48Z" stroke="#165235" stroke-width="4.58333" stroke-miterlimit="8" fill="#21794F" fill-rule="evenodd"/><path d="M2563.5 1137.5 2590 1122.5 2616.5 1137.5 2590 1152.5Z" stroke="#011783" stroke-width="4.58333" stroke-miterlimit="8" fill="#184EC6" fill-rule="evenodd"/><path d="M2701.12 1145.54 2730.09 1136.76 2737.51 1153.14 2724.05 1165.29 2701.12 1145.54Z" stroke="#A40000" stroke-width="4.58333" stroke-miterlimit="8" fill="#D40032" fill-rule="evenodd"/><path d="M2588.43 1167.5C2622.74 1167.5 2648.05 1168.1 2684.81 1171.05L2718.9 1174.18C2725.33 1175.61 2727.07 1182.49 2726.35 1186.13 2725.63 1189.76 2719.21 1198.69 2714.6 1196.01 2656.14 1189.72 2630.47 1188.71 2588.46 1188.66 2546.45 1188.6 2521.61 1190.79 2462.55 1195.68 2456.48 1195.77 2453.56 1191.19 2452.95 1187.63 2452.34 1184.06 2451.16 1176.95 2458.91 1174.29L2493.12 1171.64C2529.7 1168.88 2554.12 1167.5 2588.43 1167.5Z" stroke="#E9E1D3" stroke-width="4.58333" stroke-miterlimit="8" fill="#FEFAE7" fill-rule="evenodd"/><path d="M2481.05 1183.64 2491.92 1180.28 2486.41 1178.09 2515.79 1179.95 2487.44 1187.87 2492.34 1184.63 2481.05 1183.64Z" fill="#404040" fill-rule="evenodd"/><path d="M2544.07 1180.14 2555.1 1177.36 2549.71 1174.89 2578.95 1178.28 2550.23 1184.71 2555.3 1181.73 2544.07 1180.14Z" fill="#404040" fill-rule="evenodd"/><path d="M2607.16 1178.85 2618.42 1177.24 2613.32 1174.21 2642.05 1180.64 2612.81 1184.04 2618.16 1181.6 2607.16 1178.85Z" fill="#404040" fill-rule="evenodd"/><path d="M2670.33 1179.98 2681.65 1178.96 2676.72 1175.67 2705.07 1183.6 2675.69 1185.46 2681.16 1183.31 2670.33 1179.98Z" fill="#404040" fill-rule="evenodd"/><path d="M2589.31 1099.5C2627.82 1099.5 2656.23 1099.97 2697.48 1102.28L2735.75 1104.73C2742.97 1105.84 2745.56 1106.86 2744.11 1114.07 2742.66 1121.28 2739.75 1123.9 2734.58 1121.8 2668.96 1116.88 2637.59 1116.05 2589.34 1116.05 2541.1 1116.05 2511.38 1117.97 2445.1 1121.8 2440.11 1119.61 2438.47 1123.25 2437.24 1115.24 2436.02 1107.23 2435.23 1106.89 2443.93 1104.81L2482.33 1102.74C2523.39 1100.58 2550.8 1099.5 2589.31 1099.5Z" stroke="#FFA400" stroke-width="4.58333" stroke-miterlimit="8" fill="#FFC000" fill-rule="evenodd"/><path d="M2502.07 1083.8C2501.92 1080.59 2504.4 1077.86 2507.62 1077.71L2526.21 1076.84C2529.43 1076.69 2532.15 1079.18 2532.3 1082.39L2532.3 1082.39C2532.45 1085.61 2529.97 1088.33 2526.76 1088.48L2508.16 1089.35C2504.94 1089.5 2502.22 1087.02 2502.07 1083.8Z" stroke="#FFA400" stroke-width="4.58333" stroke-miterlimit="8" fill="#FFC000" fill-rule="evenodd"/><path d="M0 14.5815 26.527 0 37.1802 14.4911 26.527 29.163 0 14.5815Z" stroke="#A40000" stroke-width="4.58333" stroke-miterlimit="8" fill="#D40032" fill-rule="evenodd" transform="matrix(-0.978343 0.206992 0.206992 0.978343 2474.44 1131.27)"/></g></svg>