<svg width="2338" height="1169" xmlns="http://www.w3.org/2000/svg" xmlns:xlink="http://www.w3.org/1999/xlink" xml:space="preserve" overflow="hidden"><defs><clipPath id="clip0"><rect x="1031" y="653" width="2338" height="1169"/></clipPath></defs><g clip-path="url(#clip0)" transform="translate(-1031 -653)"><rect x="1810" y="653" width="1559" height="1169" fill="#FFD100"/><rect x="0" y="0" width="779" height="1169" transform="matrix(-1 1.22465e-16 1.22465e-16 1 1810 653)"/><path d="M2595.58 961.287C2590.3 971.594 2570.59 1003.57 2566.41 1008.67 2549.68 1029.15 2545.53 1033.4 2536.03 1046.22 2530.81 1053.23 2519.68 1067.87 2512.81 1080.34 2497.8 1107.65 2497.8 1117.58 2497.8 1117.58 2497.8 1117.58 2476.62 1130.03 2474.59 1130.9 2472.54 1131.75 2463.07 1137.85 2450.01 1147.27 2432.94 1159.54 2440.46 1153.45 2422.01 1169.15 2406.19 1182.66 2392.41 1207.44 2383.79 1218.97 2373.55 1232.63 2365.66 1253.32 2363.98 1270.17 2361.95 1290.68 2364.68 1295.81 2364.68 1312.88 2364.68 1326.03 2361.27 1337.12 2353.74 1337.12 2347.95 1337.12 2346.24 1337.81 2342.14 1322.8 2339.76 1314.04 2339.63 1316.08 2338.06 1295.48 2337.71 1291.04 2336.01 1277.38 2342.14 1253.11 2349.78 1222.72 2358.62 1211.09 2373.9 1187.59 2389.25 1164.11 2443.19 1099.8 2450.7 1065.32 2458.11 1031.07 2463.66 995.648 2439.42 958.775 2419.49 928.484 2383.36 924.175 2375.6 923.276 2365.88 922.135 2353.23 920.229 2333.48 925.656 2322.36 928.74 2314.83 931.119 2301.53 939.654 2283.56 951.164 2274.9 964.409 2269.44 977.557 2264.32 989.855 2261.42 999.701 2264.32 1009 2266.27 1015.29 2269.44 1016.52 2269.44 1016.52 2269.44 1016.52 2258.99 1058.18 2262.62 1066.38 2266.37 1074.73 2274.27 1075.28 2277.97 1075.93 2281.98 1076.64 2278.57 1050.92 2300.72 1035.04 2300.72 1035.04 2313.22 1033.82 2325.77 1030.04 2331.09 1028.41 2343.29 1020.93 2345.77 1018.65 2352.47 1012.52 2363.1 999.92 2370.82 1001.5 2375.17 1002.37 2379.04 1003.61 2383.45 1007.98 2392.58 1018.46 2390.36 1030.95 2389.25 1045.51 2388.52 1054.78 2380.62 1075.42 2346.59 1111.44 2305.63 1154.81 2290.27 1169.46 2262.27 1205.64 2242.05 1231.8 2234.75 1242.44 2215.5 1278.06 2209.14 1289.84 2191.95 1338.16 2198.44 1378.79 2208.29 1440.38 2237.91 1469.58 2255.65 1485.31 2273.45 1501.07 2317.57 1519.89 2317.57 1519.89 2317.57 1519.89 2337.71 1531.37 2375.6 1536.88 2437.04 1545.76 2445.1 1542.91 2472.32 1539.01 2498.73 1535.26 2559.24 1522.21 2579.72 1515.37 2584.11 1513.88 2586.76 1525.62 2608.38 1538.24 2628.86 1550.19 2631.26 1551.48 2658.91 1550.88 2689.96 1550.19 2695.34 1546.35 2709.08 1541.99 2716.17 1539.74 2720.35 1538.24 2726.83 1536.88 2730.03 1536.2 2738.08 1535.51 2742.54 1534.15 2749.23 1532.05 2741.71 1529.2 2738.08 1528.69 2724.43 1526.64 2720.09 1521.51 2718.64 1519.46 2718.64 1519.46 2716.25 1517.42 2720 1516.39 2720 1516.39 2728.41 1516.39 2750.04 1509.57 2763.01 1505.48 2774.14 1500.81 2783.5 1496.25 2803.03 1486.7 2822.45 1473.67 2830.25 1467.91 2839.47 1461.08 2849.02 1454.26 2869.51 1437.19 2890.03 1420.06 2894.43 1411.23 2899.55 1404.05 2902.96 1399.23 2904.42 1393.25 2900.57 1395.18 2898.52 1396.21 2895.45 1397.57 2892.73 1398.93 2892.73 1398.93 2886.91 1399.24 2890.32 1394.5 2891.14 1393.33 2894.68 1390.66 2896.82 1389.28 2896.82 1389.28 2911.19 1376.27 2921.39 1364.44 2932.62 1351.39 2939.48 1341.91 2944.6 1333.37 2944.6 1333.37 2947.03 1328.25 2940.51 1331.66 2933.34 1335.42 2931.98 1337.48 2931.98 1337.48 2931.98 1337.48 2926.85 1338.16 2930.26 1327.23 2934.15 1314.89 2934.35 1317.67 2937.78 1310.5 2941.05 1303.59 2949.04 1290.69 2954.84 1282.84 2960.99 1274.51 2966.78 1267.81 2973.96 1254.85 2981.08 1241.94 2974.51 1245.34 2966.44 1248.66 2959.96 1251.35 2954.54 1253.06 2952.11 1253.83 2947.92 1255.15 2929.5 1263.54 2924.8 1265.43 2912.25 1270.51 2910.47 1271.32 2898.52 1277.38 2883.64 1284.93 2873.99 1289.46 2870.54 1291.04 2866.78 1292.74 2865.42 1294.79 2855.18 1295.48 2841.21 1296.42 2842.54 1295.81 2833.32 1295.81 2824.46 1295.81 2818.31 1296.98 2812.16 1295.81 2806.06 1294.66 2801.87 1297.22 2809.09 1286.6 2816.25 1276.01 2815.23 1277.38 2820.36 1270.84 2823.55 1266.8 2833.96 1252.08 2833.66 1252.42 2831.92 1254.39 2848.68 1231.64 2847.66 1229.25 2846.64 1226.85 2839.81 1233.35 2831.96 1233 2827.18 1233 2820.7 1231.3 2818.31 1230.94 2816.98 1230.76 2816.59 1227.21 2822.06 1222.08 2825.95 1218.45 2822.92 1221.12 2831.28 1214.57 2836.35 1210.61 2841.21 1205.63 2844.59 1202.27 2851.41 1195.45 2853.8 1193.39 2861.32 1183.83 2872.49 1169.6 2876.67 1163.31 2876.67 1163.31 2876.67 1163.31 2881.5 1156.63 2873.26 1159.55 2873.26 1159.55 2871.9 1160.58 2859.27 1167.07 2853.42 1170.06 2843.82 1171.71 2838.44 1171.84 2833.11 1171.93 2834.61 1169.02 2838.11 1166.38 2841.56 1163.8 2840.06 1163.74 2836.73 1163.65 2831.31 1163.52 2818.86 1166.48 2822.05 1161.6 2825.68 1156.03 2836.27 1153.87 2833.66 1152.4 2833.66 1152.4 2819.33 1153.76 2812.84 1154.44 2812.84 1154.44 2808.4 1153.76 2810.11 1149.31 2810.71 1147.78 2818.95 1140.7 2820 1138.39 2820 1138.39 2829.23 1126.1 2837.08 1114.83 2837.08 1114.83 2854.48 1098.09 2842.2 1098.78 2837.08 1099.12 2826.5 1108.68 2817.95 1111.75 2809.42 1114.83 2783.14 1126.44 2798.85 1109.37 2798.85 1109.37 2802.27 1106.3 2804.99 1102.19 2804.99 1102.19 2816.59 1087.54 2818.98 1083.45 2818.98 1083.45 2821.71 1078.33 2811.47 1082.76 2811.47 1082.76 2794.62 1090.38 2791.68 1088.91 2788.27 1087.2 2789.29 1088.88 2790.64 1081.36 2791.34 1077.6 2796.46 1065.99 2800.22 1059.51 2805.68 1050.05 2812.3 1041.77 2814.21 1039.71 2817.42 1036.19 2819.46 1033.82 2811.82 1035.6 2811.82 1035.6 2796.29 1046.02 2785.54 1049.61 2777.34 1052.33 2773.25 1052.69 2768.13 1053.03 2763.9 1053.3 2752.09 1053.71 2752.09 1053.71 2752.09 1053.71 2743.9 1054.39 2739.45 1054.74 2733.65 1055.19 2739.11 1049.61 2744.57 1042.1 2744.57 1042.1 2746.54 1038.2 2752.43 1028.82L2774.28 991.932C2774.28 991.932 2781.18 982.888 2770.86 988.181 2770.14 988.558 2765.61 992.321 2765.05 992.928 2757.89 1000.77 2757.04 1000.4 2749.02 1007.28 2749.02 1007.28 2740.49 1012.73 2734.33 1014.43 2734.33 1014.43 2721.36 1021.61 2721.71 1015.81 2722.17 1007.62 2723.76 1004.88 2725.12 1002.48 2727.04 999.108 2726.48 999.751 2730.25 991.569 2730.25 991.569 2732.98 983.374 2735.01 972.095L2736.73 960.829C2736.73 960.829 2738.08 947.814 2731.26 960.488 2724.48 973.029 2716.51 981.649 2709.42 987.112 2705.45 990.159 2703.28 991.908 2689.28 997.031 2689.28 997.031 2677.58 1002.75 2669.48 1004.19 2663.69 1005.23 2666.07 994.98 2667.77 987.112 2667.77 987.112 2670.17 980.97 2674.27 957.417 2674.27 957.417 2675.63 945.811 2668.46 954.673 2668.46 954.673 2664.83 963.694 2657.88 973.455 2649.48 985.316 2644.22 989.857 2641.15 993.621 2641.15 993.621 2631.6 1006.93 2628.19 1014.1 2627.58 1015.29 2625.79 1013.77 2624.78 1014.43 2621.95 1016.27 2621.36 984.736 2621.36 984.736 2621.36 984.736 2619.66 980.972 2616.58 984.396 2616.58 984.396 2613.15 990.539 2611.13 995.322 2611.13 995.322 2607.36 1006.27 2604.62 1008.33 2601.9 1010.38 2598.83 975.169 2599.5 965.614 2599.5 965.614 2598.48 955.708 2595.58 961.292Z" fill-rule="evenodd"/><path d="M2331.92 961.336C2332.79 962.883 2326.45 974.39 2318.48 980.614 2308.74 988.229 2297.44 991.262 2293.65 987.177 2290.37 983.684 2300.2 969.168 2307.91 965.058 2318.77 959.293 2330.63 959.075 2331.92 961.335Z" fill="#FFD100" fill-rule="evenodd"/><path d="M2302.36 970.956C2304.77 972.288 2310.97 979.633 2314.48 982.569 2317.25 984.879 2317.59 984.36 2316.21 981.248 2315.17 978.914 2312.39 971.616 2310.67 964 2310.67 964 2299.93 969.636 2302.36 970.956" fill-rule="evenodd"/><path d="M1506 1271.23 1539.6 1268.63 1552.5 1238 1565.4 1268.63 1599 1271.23 1573.37 1292.76 1581.24 1325 1552.5 1307.68 1523.76 1325 1531.63 1292.76Z" fill="#FFFFFF" fill-rule="evenodd"/><path d="M1441.25 1551 1453.49 1598.77 1493.77 1570.34 1473.82 1615.79 1522 1620.82 1479.09 1641.12 1512.97 1677.67 1466.1 1665.49 1468.92 1715 1441.06 1674.39 1413.4 1714.81 1416.22 1665.3 1369.92 1677.48 1403.8 1641.9 1359 1621.01 1407.94 1616.37 1388.55 1571.5 1427.7 1598.96 1441.25 1551Z" fill="#FFFFFF" fill-rule="evenodd"/><path d="M1062 1163.5 1111.47 1149.4 1086.46 1104.46 1131.4 1129.47 1145.5 1080 1159.6 1129.47 1204.54 1104.46 1179.53 1149.4 1229 1163.5 1179.53 1177.6 1204.54 1222.54 1159.6 1197.53 1145.5 1247 1131.4 1197.53 1086.46 1222.54 1111.47 1177.6Z" fill="#FFFFFF" fill-rule="evenodd"/><path d="M1614 1106.25 1659.7 1079.47 1630.14 1035.49 1679.57 1054.54 1695.5 1004 1711.43 1054.54 1760.86 1035.49 1731.3 1079.47 1777 1106.25 1724.21 1110.55 1731.77 1163 1695.5 1124.39 1659.23 1163 1666.79 1110.55Z" fill="#FFFFFF" fill-rule="evenodd"/><path d="M1359 867.254 1404.7 840.466 1375.14 796.492 1424.57 815.537 1440.5 765 1456.43 815.537 1505.86 796.492 1476.3 840.466 1522 867.254 1469.21 871.551 1476.77 924.001 1440.5 885.386 1404.23 924.001 1411.79 871.551Z" fill="#FFFFFF" fill-rule="evenodd"/></g></svg>