<svg viewBox="0 0 1390 1080" xmlns="http://www.w3.org/2000/svg">
<style>
.transit-line {
  fill: none;
  stroke-width: 6.875;  
}
.transit-line.t-line { stroke: #e87132; }
.transit-line.w-line { stroke: #9165ff; }
.transit-line.c-line { stroke: #f97fe8; }
.transit-line.s-line { stroke: #f6bb00; }
.transit-line.b-line { stroke: #92d050; }
.transit-line.o-line { stroke: #ac8004; }
.transit-line.n-line { stroke: #eb0874; }
.transit-line.f-line { stroke: #0067f2; }
.transit-line.i-line { stroke: #00c057; }
.transit-line.p-line { stroke: #00b0f0; }

.city-label {
  font-family: "Public Sans SemiBold", sans-serif;
  font-weight: 600;
  font-size: 16px;
}

.station-label {
  font-family: "Public Sans", sans-serif;
  font-weight: 400;
  font-size: 14px;
}

.airport-icon {
  fill: #333;
  stroke-width: 0;
  fill-rule: evenodd;
}

.station-icon {
  stroke: #ffffff;
  stroke-width:1;
}

.station-icon.t-line { fill: #e87132; }
.station-icon.w-line { fill: #9165ff; }
.station-icon.c-line { fill: #f97fe8; }
.station-icon.s-line { fill: #f6bb00; }
.station-icon.b-line { fill: #92d050; }
.station-icon.o-line { fill: #ac8004; }
.station-icon.n-line { fill: #eb0874; }
.station-icon.f-line { fill: #0067f2; }
.station-icon.i-line { fill: #00c057; }
.station-icon.p-line { fill: #00b0f0; }

.interchange-pill {
  stroke: #000000;
  stroke-width: 1;
  fill: #ffffff;
}
</style>
  <path class="transit-line t-line" d="M458.5 312.5 458.5 601.976C458.902 612.691 466.806 617.217 473.675 617.103L546.099 617.103C555.525 617.303 568.056 629.508 567.481 638.418L567.481 783.5" stroke="#042433" stroke-width="6.875" stroke-miterlimit="8" fill="none" fill-rule="evenodd"/>
  <path class="transit-line w-line" d="M164.5 419.5 164.5 795.5"/>
  <path class="transit-line n-line" d="M177.5 527.5 177.5 617.285C177.895 624.922 184.567 630.328 193.542 630.465L543.944 630.465C548.818 630.585 555.636 635.63 555.498 641.997L555.498 784.5"/>
  <path class="transit-line s-line" d="M422.5 75.5001 969.51 75.5001C983.34 75.7005 993.792 83.4877 995.281 100.236 995.395 192.308 995.51 284.38 995.624 376.451 995.767 394.001 1007.02 400.099 1019.68 400.5L1136.5 400.5"/>
  <path class="transit-line o-line" d="M568.5 204.255 800.048 204.255C809.467 204.398 814.792 197.541 815.164 191.171L815.164 100.961C815.25 91.263 822.35 86.5861 829.593 86.5001L964.605 86.5001C979.778 86.7871 982.612 94.9932 982.813 105.093 983.042 198.287 983.271 291.481 983.5 384.674 983.013 395.406 975.198 398.992 969.758 398.447L805.545 398.447"/>
  <path class="transit-line p-line" d="M1007.5 326.5C1007.5 342.19 1007.6 366.345 1007.5 373.571 1007.4 380.796 1013.19 388.435 1022.32 388.435L1213.27 388.435C1222.91 388.435 1226.3 394.921 1226.44 401.648 1226.58 408.374 1226.44 765.549 1226.44 947.5"/>
  <path class="transit-line b-line" d="M1214.5 894.5 1214.5 866.389C1214 853.487 1203.95 842.653 1190.55 842.412L1083.63 842.67C1074.31 842.894 1068.85 836.659 1068.3 828.356L1068.3 672.918C1067.96 665.339 1061.76 660.861 1055.91 660.516L590.064 660.516C587.586 660.241 578.913 663.41 578.5 672.091L578.5 785.363"/>
  <path class="transit-line c-line" d="M1201.5 894.147 1201.5 866.887C1200.98 859.401 1195.04 853.98 1189.1 854.496L977.119 854.496C969.077 854.204 962.068 849.007 961.775 840.453L961.775 772.717C962.016 764.181 954.507 759.775 948.549 759.5L823.726 759.5C820.093 759.517 810.517 764.439 810.5 772.717L810.5 992.448C811.309 1002.81 819.869 1006.71 824.553 1006.49L979.961 1006.49"/>
  <path class="transit-line f-line" d="M592.5 783.5 592.5 1004.86C592.534 1011.96 596.294 1020.21 608.158 1020.5L1187.5 1020.5"/>
  <path class="transit-line i-line" d="M777.878 1066.5 777.878 1019.48C777.843 1010.94 771.087 1005.49 763.813 1005.45L684.392 1005.45C675.808 1005.4 670.586 999.938 669.5 990.606L669.5 889.964C670.31 881.422 676.032 875.974 683.564 875.94L779.532 875.94C791.27 876.094 796.285 870.578 796.906 858.616L796.906 688.679C797.509 677.508 805.093 672.008 813.452 672.18L858.954 672.18C868.864 671.836 875.155 666.852 875.5 655.681L875.5 423.874C875.242 415.109 870.588 411.5 863.09 411.5L806.833 411.5"/>
  <text class="city-label" x="1250.25" y="901">Central Sydney</text>
  <text class="city-label" x="791.982" y="334">Roma Street Brisbane</text>
  <text class="city-label" x="919.003" y="1047">Southern Cross </text>
  <text class="city-label" x="936.488" y="1066">Melbourne</text>
  <text class="city-label" x="851.143" y="722">Canberra </text>
  <text class="city-label" x="843.42" y="741">City Centre</text>
  <text class="city-label" x="394.407" y="792">Keswick Adelaide</text>
  <text class="city-label" x="347.913" y="318">Darwin City</text>
  <text class="city-label" x="63.5201" y="534">East Perth</text>

  <text class="station-label" x="1247.93" y="951">Sydney Airport</text>
  <text class="station-label" x="1247.93" y="827">Central Coast</text>
  <text class="station-label" x="1131.38" y="824">Parramatta</text>
  <text class="station-label" x="1247.93" y="776">Lake Macquarie</text>
  <text class="station-label" x="1247.93" y="725">Newcastle</text>
  <text class="station-label" x="1244.42" y="674">Taree</text>
  <text class="station-label" x="1247.93" y="622">Port Macquarie</text>
  <text class="station-label" x="1247.93" y="571">Coffs Harbour</text>
  <text class="station-label" x="1246.42" y="521">Grafton</text>
  <text class="station-label" x="1245.47" y="469">Casino</text>
  <text class="station-label" x="1246.68" y="418">Lismore</text>
  <text class="station-label" x="1072.81" y="885">Western </text>
  <text class="station-label" x="1051.89" y="902">Sydney Airport</text>
  <text class="station-label" x="1166.95" y="372">Byron Bay</text>
  <text class="station-label" x="1024.64" y="372">Gold Coast</text>
  <text class="station-label" x="1099.15" y="437">Gold Coast </text>
  <text class="station-label" x="1112.32" y="454">Airport</text>
  <text class="station-label" x="852.786" y="282">Brisbane Airport</text>
  <text class="station-label" x="1017.17" y="230">Sunshine</text>
  <text class="station-label" x="1080.19" y="230">Coast</text>
  <text class="station-label" x="926.878" y="420">Ipswich</text>
  <text class="station-label" x="842.619" y="384">Lockyer Valley</text>
  <text class="station-label" x="704.009" y="408">Toowoomba</text>
  <text class="station-label" x="816.483" y="697">Parkes</text>
  <text class="station-label" x="1088.17" y="779">Blue Mountains</text>
  <text class="station-label" x="1087.78" y="707">Bathurst</text>
  <text class="station-label" x="943.828" y="645">Orange</text>
  <text class="station-label" x="815.331" y="612">Dubbo</text>
  <text class="station-label" x="789.34" y="560">Tamworth</text>
  <text class="station-label" x="796.86" y="509">Armidale</text>
  <text class="station-label" x="800.158" y="457">Warwick</text>
  <text class="station-label" x="734.886" y="795">Albury</text>
  <text class="station-label" x="702.686" y="846">Wangaratta</text>
  <text class="station-label" x="680.651" y="743">Wagga Wagga</text>
  <text class="station-label" x="890.468" y="804">Canberra </text>
  <text class="station-label" x="904.791" y="821">Airport</text>
  <text class="station-label" x="912.226" y="179">Gympie</text>
  <text class="station-label" x="911.64" y="60">Bundaberg</text>
  <text class="station-label" x="1018.2" y="128">Fraser Coast</text>
  <text class="station-label" x="708.967" y="61">Rockhampton</text>
  <text class="station-label" x="831.988" y="113">Gladstone</text>
  <text class="station-label" x="644.368" y="99">Mackay</text>
  <text class="station-label" x="468.475" y="98">Townsville</text>
  <text class="station-label" x="543.338" y="61">Whitsundays</text>
  <text class="station-label" x="400.974" y="61">Cairns</text>
  <text class="station-label" x="740.445" y="150">Emerald</text>
  <text class="station-label" x="697.174" y="227">Longreach</text>
  <text class="station-label" x="536.683" y="227">Mount Isa</text>
  <text class="station-label" x="628.382" y="190">Winton</text>
  <text class="station-label" x="991.11" y="838">Goulburn</text>
  <text class="station-label" x="830.498" y="906">Seymour</text>
  <text class="station-label" x="830.79" y="956">Melbourne Airport</text>
  <text class="station-label" x="865.596" y="989">Sunshine</text>
  <text class="station-label" x="1074.42" y="1005">Warragul</text>
  <text class="station-label" x="1154.74" y="1042">Traralgon</text>
  <text class="station-label" x="623.198" y="1042">Ararat</text>
  <text class="station-label" x="701.433" y="1070">Geelong</text>
  <text class="station-label" x="699.041" y="990">Ballarat</text>
  <text class="station-label" x="688.977" y="944">Bendigo</text>
  <text class="station-label" x="524.126" y="993">Stawell</text>
  <text class="station-label" x="495.306" y="892">Bordertown</text>
  <text class="station-label" x="479.735" y="842">Murray Bridge</text>
  <text class="station-label" x="692.477" y="902">Shepparton</text>
  <text class="station-label" x="469.794" y="716">Salisbury</text>
  <text class="station-label" x="710.75" y="645">Broken Hill</text>
  <text class="station-label" x="616.507" y="682">Barossa Valley</text>
  <text class="station-label" x="476.293" y="598">Port Augusta</text>
  <text class="station-label" x="349.887" y="468">Alice Springs</text>
  <text class="station-label" x="372.871" y="418">Katherine</text>
  <text class="station-label" x="90.1827" y="698">Bunbury</text>
  <text class="station-label" x="78.7911" y="649">Mandurah</text>
  <text class="station-label" x="59.8867" y="581">Perth Airport</text>
  <text class="station-label" x="78.7911" y="424">Geraldton</text>
  <text class="station-label" x="47.6486" y="799">Margaret River</text>
  <text class="station-label" x="78.7911" y="750">Busselton</text>
  <text class="station-label" x="363.299" y="652">Kalgoorlie</text>
  <text class="station-label" x="285.484" y="615">Merriden</text>
  <text class="station-label" x="204.817" y="652">Northam</text>
  <text class="station-label" x="342.475" y="367">Darwin Airport</text>
  <text class="station-label" x="513.571" y="943">Horsham</text>

  <path class="airport-icon" d="M1364.61 957.261 1366.54 955.323 1364.71 944.665 1368.91 940.466C1369.75 939.627 1370.42 938.098 1369.77 937.452 1369.15 936.828 1367.6 937.474 1366.76 938.313L1362.56 942.512 1351.9 940.682 1349.97 942.62 1359.33 945.742 1354.64 950.436 1350.61 950.156 1349.32 951.448 1353.84 953.385 1355.78 957.907 1357.07 956.615 1356.79 952.589 1361.48 947.895 1364.61 957.261Z"/>
  <path class="airport-icon" d="M1103.46 927.528 1105.4 925.59 1103.57 914.932 1107.77 910.733C1108.61 909.893 1109.27 908.365 1108.63 907.719 1108 907.094 1106.45 907.74 1105.61 908.58L1101.41 912.779 1090.76 910.949 1088.82 912.886 1098.18 916.008 1093.49 920.702 1089.46 920.422 1088.17 921.714 1092.69 923.652 1094.63 928.174 1095.92 926.882 1095.64 922.855 1100.34 918.162 1103.46 927.528Z"/>
  <path class="airport-icon" d="M1139.07 480.512 1141.01 478.574 1139.18 467.916 1143.38 463.717C1144.22 462.878 1144.89 461.349 1144.24 460.703 1143.62 460.079 1142.07 460.725 1141.23 461.564L1137.03 465.763 1126.37 463.933 1124.43 465.871 1133.8 468.993 1129.1 473.687 1125.08 473.407 1123.79 474.699 1128.31 476.636 1130.24 481.158 1131.54 479.866 1131.26 475.84 1135.95 471.146 1139.07 480.512Z"/>
  <path class="airport-icon" d="M845.477 286.554 847.415 284.616 845.585 273.958 849.784 269.759C850.623 268.919 851.291 267.391 850.645 266.745 850.02 266.12 848.47 266.766 847.63 267.606L843.432 271.805 832.773 269.974 830.836 271.912 840.202 275.034 835.508 279.728 831.482 279.448 830.19 280.74 834.711 282.678 836.649 287.2 837.941 285.908 837.661 281.881 842.355 277.188 845.477 286.554Z"/>
  <path class="airport-icon" d="M892.866 829.491 894.804 827.553 892.974 816.895 897.172 812.696C898.012 811.857 898.68 810.328 898.034 809.682 897.409 809.058 895.859 809.704 895.019 810.543L890.821 814.742 880.162 812.912 878.224 814.85 887.591 817.972 882.897 822.666 878.87 822.386 877.579 823.678 882.1 825.615 884.038 830.137 885.33 828.845 885.05 824.819 889.744 820.125 892.866 829.491Z"/>
  <path class="airport-icon" d="M968.455 962.303 970.393 960.365 968.563 949.707 972.761 945.508C973.601 944.668 974.268 943.14 973.622 942.494 972.998 941.869 971.448 942.515 970.608 943.355L966.409 947.554 955.751 945.723 953.813 947.661 963.18 950.783 958.486 955.477 954.459 955.197 953.167 956.489 957.689 958.427 959.627 962.949 960.919 961.657 960.639 957.63 965.333 952.936 968.455 962.303Z"/>
  <path class="airport-icon" d="M49.0079 587.538 50.9457 585.601 49.1156 574.942 53.3142 570.744C54.154 569.904 54.8215 568.375 54.1755 567.729 53.5511 567.105 52.0008 567.751 51.1611 568.591L46.9625 572.789 36.3042 570.959 34.3664 572.897 43.7327 576.019 39.0388 580.713 35.0124 580.433 33.7205 581.725 38.2421 583.663 40.18 588.184 41.4719 586.892 41.192 582.866 45.8858 578.172 49.0079 587.538Z"/>
  <path class="airport-icon" d="M334.161 373.732 336.098 371.795 334.268 361.136 338.467 356.938C339.307 356.098 339.974 354.569 339.328 353.923 338.704 353.299 337.153 353.945 336.314 354.785L332.115 358.983 321.457 357.153 319.519 359.091 328.885 362.213 324.191 366.907 320.165 366.627 318.873 367.919 323.395 369.857 325.333 374.378 326.624 373.086 326.345 369.06 331.038 364.366 334.161 373.732Z"/>
  
  <circle id="dar" class="station-icon t-line" cx="458.5" cy="313" r="8"/>
  <circle id="drw" class="station-icon t-line" cx="458.5" cy="362.5" r="8"/>
  <circle id="kat" class="station-icon t-line" cx="458.5" cy="413.5" r="8"/>
  <circle id="asp" class="station-icon t-line" cx="458.5" cy="465" r="8"/>
  <circle id="isa" class="station-icon o-line" cx="568.5" cy="204.5" r="8"/>
  <circle id="wqo" class="station-icon o-line" cx="651.5" cy="204.5" r="8"/>
  <circle id="lre" class="station-icon o-line" cx="732.5" cy="204.5" r="8"/>
  <circle id="eml" class="station-icon o-line" cx="815.5" cy="146" r="8"/>
  <circle id="gyp" class="station-icon o-line" cx="982.5" cy="175" r="8"/>
  <circle id="gat" class="station-icon o-line" cx="890.5" cy="398" r="8"/>
  <circle id="ips" class="station-icon o-line" cx="952.5" cy="398" r="8"/>
  <circle id="cns" class="station-icon s-line" cx="422.5" cy="75.5" r="8"/>
  <circle id="tvl" class="station-icon s-line" cx="503.5" cy="75.5" r="8"/>
  <circle id="ppp" class="station-icon s-line" cx="585.5" cy="75.5" r="8"/>
  <circle id="mky" class="station-icon s-line" cx="669.5" cy="75.5" r="8"/>
  <circle id="rok" class="station-icon s-line" cx="754.5" cy="75.5" r="8"/>
  <circle id="fra" class="station-icon s-line" cx="996.5" cy="124" r="8"/>
  <circle id="noh" class="station-icon n-line" cx="233.5" cy="629" r="8"/>
  <circle id="mdn" class="station-icon n-line" cx="315.5" cy="629" r="8"/>
  <circle id="kgi" class="station-icon n-line" cx="396.5" cy="629" r="8"/>
  <circle id="mad" class="station-icon w-line" cx="165.5" cy="644.5" r="8"/>
  <circle id="bxy" class="station-icon w-line" cx="165.5" cy="694" r="8"/>
  <circle id="bus" class="station-icon w-line" cx="165.5" cy="744" r="8"/>
  <circle id="mgv" class="station-icon w-line" cx="165.5" cy="795" r="8"/>
  <circle id="get" class="station-icon w-line" cx="165.5" cy="419.5" r="8"/>
  <circle id="bsa" class="station-icon b-line" cx="664.5" cy="659.5" r="8"/>
  <circle id="bkh" class="station-icon b-line" cx="746.5" cy="659.5" r="8"/>
  <circle id="ora" class="station-icon b-line" cx="968.5" cy="659.5" r="8"/>
  <circle id="blu" class="station-icon b-line" cx="1068.5" cy="774" r="8"/>
  <circle id="bth" class="station-icon b-line" cx="1068.5" cy="702.5" r="8"/>
  <circle id="byr" class="station-icon p-line" cx="1200.5" cy="388" r="8"/>
  <circle id="lsm" class="station-icon p-line" cx="1226.5" cy="414.5" r="8"/>
  <circle id="cso" class="station-icon p-line" cx="1226.5" cy="465.5" r="8"/>
  <circle id="gfn" class="station-icon p-line" cx="1226.5" cy="516.5" r="8"/>
  <circle id="cfh" class="station-icon p-line" cx="1226.5" cy="568.5" r="8"/>
  <circle id="pqq" class="station-icon p-line" cx="1226.5" cy="618" r="8"/>
  <circle id="tre" class="station-icon p-line" cx="1226.5" cy="668.5" r="8"/>
  <circle id="new" class="station-icon p-line" cx="1226.5" cy="719.5" r="8"/>
  <circle id="gos" class="station-icon p-line" cx="1226.5" cy="822.5" r="8"/>
  <circle id="mst" class="station-icon p-line" cx="1226.5" cy="774" r="8"/>
  <circle id="syd" class="station-icon p-line" cx="1226.5" cy="946.5" r="8"/>
  <circle id="wgl" class="station-icon f-line" cx="1104.5" cy="1019.5" r="8"/>
  <circle id="tra" class="station-icon f-line" cx="1186.5" cy="1019.5" r="8"/>
  <circle id="mur" class="station-icon f-line" cx="592.5" cy="837.5" r="8"/>
  <circle id="bdt" class="station-icon f-line" cx="592.5" cy="887.5" r="8"/>
  <circle id="stw" class="station-icon f-line" cx="592.5" cy="989" r="8"/>
  <circle id="hsm" class="station-icon f-line" cx="592.5" cy="938" r="8"/>
  <circle id="ara" class="station-icon f-line" cx="643.5" cy="1019.5" r="8"/>
  <circle id="cbr" class="station-icon c-line" cx="962.5" cy="807.5" r="8"/>
  <circle id="glb" class="station-icon c-line" cx="1021.5" cy="854.5" r="8"/>
  <circle id="cnb" class="station-icon c-line" cx="887.5" cy="759.5" r="8"/>
  <circle id="sey" class="station-icon c-line" cx="810.5" cy="901.5" r="8"/>
  <circle id="mel" class="station-icon c-line" cx="810.5" cy="951.5" r="8"/>
  <circle id="shp" class="station-icon i-line" cx="730.5" cy="876" r="8"/>
  <circle id="wwk" class="station-icon i-line" cx="875.5" cy="453.5" r="8"/>
  <circle id="arm" class="station-icon i-line" cx="875.5" cy="504.5" r="8"/>
  <circle id="tam" class="station-icon i-line" cx="875.5" cy="555.5" r="8"/>
  <circle id="dbo" class="station-icon i-line" cx="875.5" cy="607.5" r="8"/>
  <circle id="wgg" class="station-icon i-line" cx="796.5" cy="739" r="8"/>
  <circle id="bdg" class="station-icon i-line" cx="668.5" cy="940" r="8"/>
  <circle id="gee" class="station-icon i-line" cx="778.5" cy="1066" r="8"/>

  <rect id="cen" class="interchange-pill" x="1194.5" y="887.5" width="42" height="16" rx="8" ry="8" />
  <rect id="pta" class="interchange-pill" x="1159.5" y="831.5" width="16" height="31" rx="8" ry="8" />
  <rect id="ool" class="interchange-pill" x="1128.5" y="378.5" width="16" height="31" rx="8" ry="8" />
  <rect id="gcs" class="interchange-pill" x="1052.5" y="378.5" width="16" height="31" rx="8" ry="8" />
  <rect id="rom" class="interchange-pill" x="974.5" y="320.5" width="42" height="16" rx="8" ry="8" />
  <rect id="bne" class="interchange-pill" x="974.5" y="269.5" width="31" height="16" rx="8" ry="8" />
  <rect id="ssh" class="interchange-pill" x="974.5" y="217.5" width="31" height="16" rx="8" ry="8" />
  <rect id="twb" class="interchange-pill" x="797.5" y="388.5" width="16" height="31" rx="8" ry="8" />
  <rect id="pks" class="interchange-pill" x="830.5" y="651.5" width="16" height="31" rx="8" ry="8" />
  <rect id="aby" class="interchange-pill" x="787.5" y="782.5" width="31" height="16" rx="8" ry="8" />
  <rect id="bdb" class="interchange-pill" x="939.5" y="66.5" width="16" height="31" rx="8" ry="8" />
  <rect id="glt" class="interchange-pill" x="857.5" y="66.5" width="16" height="31" rx="8" ry="8" />
  <rect id="sxs" class="interchange-pill" x="969.5" y="997.5" width="16" height="31" rx="8" ry="8" />
  <rect id="sun" class="interchange-pill" x="888.5" y="997.5" width="16" height="31" rx="8" ry="8" />
  <rect id="bal" class="interchange-pill" x="716.5" y="997.5" width="16" height="31" rx="8" ry="8" />
  <rect id="adl" class="interchange-pill" x="544.5" y="777.5" width="59" height="16" rx="8" ry="8" />
  <rect id="slb" class="interchange-pill" x="544.5" y="704.5" width="42" height="16" rx="8" ry="8" />
  <rect id="pug" class="interchange-pill" x="511.5" y="609.5" width="16" height="31" rx="8" ry="8" />
  <rect id="wgt" class="interchange-pill" x="787.5" y="834.5" width="31" height="16" rx="8" ry="8" />
  <rect id="wsi" class="interchange-pill" x="1092.5" y="831.5" width="16" height="31" rx="8" ry="8" />
  <rect id="per" class="interchange-pill" x="155.5" y="568" width="31" height="16" rx="8" ry="8"/>
  <rect id="ptl" class="interchange-pill" x="155.5" y="519.5" width="31" height="16" rx="8" ry="8"/>
</svg>
