<svg width="2341" height="1562" xmlns="http://www.w3.org/2000/svg" xmlns:xlink="http://www.w3.org/1999/xlink" xml:space="preserve" overflow="hidden"><g transform="translate(-1030 -457)"><path d="M1031.5 458.5 3369.5 458.5 3369.5 2017.5 1031.5 2017.5Z" stroke="#000000" stroke-width="2.59734" stroke-miterlimit="8" fill="#0F204B" fill-rule="evenodd"/><path d="M2896 657.573 2968.57 657.574 2991 585 3013.43 657.574 3086 657.573 3027.29 702.426 3049.71 775 2991 730.146 2932.29 775 2954.71 702.426Z" fill="#FFB612" fill-rule="evenodd"/><path d="M1303 1042.16 1346.54 1042.16 1360 999 1373.46 1042.16 1417 1042.16 1381.77 1068.84 1395.23 1112 1360 1085.32 1324.77 1112 1338.23 1068.84Z" fill="#FFB612" fill-rule="evenodd"/><path d="M1597 1150.16 1640.16 1150.16 1653.5 1107 1666.84 1150.16 1710 1150.16 1675.08 1176.84 1688.42 1220 1653.5 1193.32 1618.58 1220 1631.92 1176.84Z" fill="#FFB612" fill-rule="evenodd"/><path d="M1743 1306.16 1786.16 1306.16 1799.5 1263 1812.84 1306.16 1856 1306.16 1821.08 1332.84 1834.42 1376 1799.5 1349.32 1764.58 1376 1777.92 1332.84Z" fill="#FFB612" fill-rule="evenodd"/><path d="M1890 1470.16 1933.54 1470.16 1947 1427 1960.46 1470.16 2004 1470.16 1968.77 1496.84 1982.23 1540 1947 1513.32 1911.77 1540 1925.23 1496.84Z" fill="#FFB612" fill-rule="evenodd"/><path d="M1870 1700.16 1913.16 1700.16 1926.5 1657 1939.84 1700.16 1983 1700.16 1948.08 1726.84 1961.42 1770 1926.5 1743.32 1891.58 1770 1904.92 1726.84Z" fill="#FFB612" fill-rule="evenodd"/><path d="M2200 1808.78 2243.54 1808.78 2257 1766 2270.46 1808.78 2314 1808.78 2278.77 1835.22 2292.23 1878 2257 1851.56 2221.77 1878 2235.23 1835.22Z" fill="#FFB612" fill-rule="evenodd"/><path d="M2328 1625.78 2371.54 1625.78 2385 1583 2398.46 1625.78 2442 1625.78 2406.77 1652.22 2420.23 1695 2385 1668.56 2349.77 1695 2363.23 1652.22Z" fill="#FFB612" fill-rule="evenodd"/></g></svg>
