<svg width="2338" height="1559" xmlns="http://www.w3.org/2000/svg" xmlns:xlink="http://www.w3.org/1999/xlink" xml:space="preserve" overflow="hidden"><defs><clipPath id="clip0"><rect x="1031" y="458" width="2338" height="1559"/></clipPath></defs><g clip-path="url(#clip0)" transform="translate(-1031 -458)"><path d="M1031 458 3369 458 3369 2017 1031 2017Z" fill="#FFD700" fill-rule="evenodd"/><path d="M2199.33 1124.54C2137.12 1124.54 2086.69 1174.97 2086.69 1237.18 2086.69 1299.39 2137.12 1349.81 2199.33 1349.81 2261.53 1349.81 2311.96 1299.39 2311.96 1237.18 2311.96 1174.97 2261.53 1124.54 2199.33 1124.54ZM2175.89 847C2185.7 847 2193.65 854.95 2193.65 864.758L2193.65 1108.78 2199.33 1108.21 2205.88 1108.87 2205.88 864.758C2205.88 854.95 2213.83 847 2223.63 847 2233.44 847 2241.39 854.95 2241.39 864.758L2241.39 1115.82 2249.52 1118.35 2254.56 1121.08 2254.56 917.786C2254.56 907.978 2262.51 900.028 2272.32 900.028 2282.13 900.028 2290.08 907.979 2290.08 917.786L2290.08 1145.62 2290.52 1145.99 2291.29 1146.92 2519.21 1146.92C2529.02 1146.92 2536.97 1154.87 2536.97 1164.68L2536.97 1164.68C2536.97 1174.49 2529.02 1182.44 2519.21 1182.44L2315.69 1182.44 2318.16 1186.98 2320.84 1195.61 2572.24 1195.61C2582.05 1195.61 2590 1203.56 2590 1213.37L2590 1213.37C2590 1223.17 2582.05 1231.13 2572.24 1231.13L2327.68 1231.13 2328.29 1237.18 2327.67 1243.35 2572.24 1243.35C2582.05 1243.35 2590 1251.3 2590 1261.11L2590 1261.11C2590 1270.91 2582.05 1278.86 2572.24 1278.86L2320.8 1278.86 2318.16 1287.38 2314.8 1293.56 2519.21 1293.56C2529.02 1293.56 2536.97 1301.51 2536.97 1311.32L2536.97 1311.32C2536.97 1321.13 2529.02 1329.08 2519.21 1329.08L2290.08 1329.08 2290.08 1558.21C2290.08 1568.02 2282.13 1575.97 2272.32 1575.97L2272.32 1575.97C2262.51 1575.97 2254.56 1568.02 2254.56 1558.21L2254.56 1353.28 2249.52 1356.01 2241.39 1358.54 2241.39 1611.24C2241.39 1621.05 2233.44 1629 2223.63 1629L2223.63 1629C2213.83 1629 2205.88 1621.05 2205.88 1611.24L2205.88 1365.49 2199.33 1366.15 2193.65 1365.57 2193.65 1611.24C2193.65 1621.05 2185.7 1629 2175.89 1629L2175.89 1629C2166.09 1629 2158.14 1621.05 2158.14 1611.24L2158.14 1358.81 2149.13 1356.01 2143.44 1352.92 2143.44 1558.21C2143.44 1568.02 2135.49 1575.97 2125.68 1575.97L2125.68 1575.97C2115.87 1575.97 2107.92 1568.02 2107.92 1558.21L2107.92 1329.08 1878.79 1329.08C1868.98 1329.08 1861.03 1321.13 1861.03 1311.32 1861.03 1301.51 1868.98 1293.56 1878.79 1293.56L2083.85 1293.56 2080.49 1287.38 2077.85 1278.86 1825.76 1278.86C1815.95 1278.86 1808 1270.91 1808 1261.11 1808 1251.3 1815.95 1243.35 1825.76 1243.35L2070.98 1243.35 2070.36 1237.18 2070.97 1231.13 1825.76 1231.13C1815.95 1231.13 1808 1223.17 1808 1213.37 1808 1203.56 1815.95 1195.61 1825.76 1195.61L2077.81 1195.61 2080.49 1186.98 2082.96 1182.44 1878.79 1182.44C1868.98 1182.44 1861.03 1174.49 1861.03 1164.68 1861.03 1154.87 1868.98 1146.92 1878.79 1146.92L2107.36 1146.92 2107.92 1146.24 2107.92 917.786C2107.92 907.978 2115.87 900.028 2125.68 900.028 2135.49 900.028 2143.44 907.978 2143.44 917.786L2143.44 1121.43 2149.13 1118.35 2158.14 1115.55 2158.14 864.758C2158.14 854.95 2166.09 847 2175.89 847Z" fill="#BF0A30" fill-rule="evenodd"/></g></svg>
