<svg width="2341" height="1562" xmlns="http://www.w3.org/2000/svg" xmlns:xlink="http://www.w3.org/1999/xlink" xml:space="preserve" overflow="hidden"><g transform="translate(-1031 -458)"><path d="M1031.14 458.09 3371.14 458.09 3371.14 2019.09 1031.14 2019.09Z" fill="#041E42" fill-rule="evenodd"/><path d="M2153.35 1743.22C2156.03 1748.72 2157.7 1755.12 2161.21 1759.99 2169.21 1766.79 2178.99 1776.54 2190.04 1775.11 2206.03 1769.1 2223.09 1767.41 2239.97 1765.8 2252.06 1763.64 2266.33 1765.85 2274.31 1754.41 2273.27 1753.19 2272.33 1749.48 2278.05 1753.63 2291.41 1755.62 2305.28 1755.05 2318.82 1756.29 2331.37 1756.05 2343.49 1759.83 2354.96 1764.61 2366.83 1773.31 2380.79 1780.45 2388.61 1793.45 2376.8 1791.33 2365.13 1788.11 2354.07 1783.45 2346.06 1782.58 2353.92 1795.27 2352.41 1801.01 2355.6 1817.72 2341.04 1795.79 2333.77 1803.26 2332.24 1807.69 2333.48 1812.86 2333.08 1817.59 2321.76 1814.59 2311.98 1808.01 2302.62 1801.23 2291.52 1790.99 2291.63 1806.06 2292.27 1814.06 2281.75 1811.16 2273.23 1802.85 2262.27 1800.75 2252.25 1795.39 2249.65 1804.19 2252.66 1812.53 2256.56 1825.26 2243.8 1824.59 2236.15 1819.57 2230.43 1810.69 2219.63 1799.64 2208.3 1805.05 2201.33 1816.47 2187.98 1818.1 2175.86 1818.52 2165.99 1819.17 2155.63 1820.92 2147.37 1813.86 2143.8 1800.28 2134.7 1808.27 2129.07 1815.46 2120.59 1821.48 2112.54 1829.43 2103.51 1833.97 2089.7 1834.69 2100.42 1821.38 2094.12 1816.43 2090.3 1810.12 2085.65 1810.7 2080.26 1815.82 2071.17 1825.92 2059.08 1812.77 2064.17 1802.18 2072.44 1795.46 2084.96 1793.5 2088.8 1782.37 2091.29 1774.65 2076.62 1779.99 2072.51 1777.27 2064.36 1779.13 2048.51 1772 2054.42 1763.69 2062.24 1754.47 2073.8 1750.28 2083.79 1743.91 2106.93 1743.11 2130.18 1743.86 2153.35 1743.22ZM2180.33 1495.3 2180.33 1497.18C2181.08 1502.28 2196.75 1505.9 2200.99 1506.56 2201.37 1499.81 2186.25 1498.91 2180.33 1495.3ZM2182 1421.72C2184.36 1422.08 2186.74 1422.42 2189.1 1422.8 2199.69 1422.71 2194.76 1427.88 2188.18 1430.74 2179.29 1439.17 2181.83 1428.45 2182 1421.72ZM2185.33 1334.89C2189.54 1337.66 2198.02 1337.45 2190.34 1342.16 2183.45 1351.07 2184.82 1342.06 2185.33 1334.89ZM2241.25 1301.24C2235.02 1309.71 2225.44 1314.67 2218.75 1322.28 2224.09 1327.66 2239.55 1317.94 2243.8 1314.95 2245.59 1306.78 2223.34 1323.24 2233.5 1314.97 2236.15 1310.94 2250.57 1301.53 2241.25 1301.24ZM2240.08 1263.66 2239.88 1263.86C2235.6 1270.76 2217.52 1275.16 2221.63 1283.97 2227.15 1282.27 2232.67 1280.57 2238.19 1278.88 2241.88 1274.68 2234.76 1274.37 2231.43 1276.79 2225.97 1276.52 2251.42 1265.59 2240.08 1263.66ZM2242.43 1228.83 2242.44 1229.1 2242.47 1229.78C2243.56 1237.83 2242.7 1235.47 2236.7 1239.11 2225.09 1248.37 2240.79 1233.71 2242.43 1228.83ZM2302.37 1120.62C2300.5 1123.89 2298.15 1126.86 2296.29 1130.14 2296.94 1136.77 2308.25 1135.53 2308.99 1143.08 2311.66 1150.6 2324.6 1149.16 2318.82 1160.37 2314.42 1171.4 2331.11 1162.47 2329.13 1171.23 2327.83 1182.66 2335.36 1189.61 2343.68 1195.87 2344.59 1205.19 2348.36 1213.65 2352.6 1221.87 2357.92 1219.21 2363.25 1216.58 2368.57 1213.93 2369.72 1208.35 2363.62 1211.5 2360.56 1213.52 2356.46 1216.45 2353.06 1217.35 2352.01 1211.4 2347.59 1203.65 2350.27 1192.46 2340.83 1187.92 2329.47 1184.16 2337.09 1169.39 2329.84 1163.69 2314.75 1166.76 2331.02 1145.87 2316.34 1145.03 2310.5 1143.5 2312.16 1134.39 2305.72 1133.34 2293.29 1132.17 2312.37 1121.76 2302.37 1120.62ZM2323.76 1097.46C2322.65 1098.12 2321.54 1098.77 2320.42 1099.43 2327.18 1112.52 2333.33 1125.91 2340.57 1138.79 2350.62 1156.74 2359.67 1175.41 2365.95 1194.99 2368.59 1205.96 2369.58 1217.89 2379.19 1225.4 2387.89 1223.43 2370.07 1213.17 2372.47 1205.61 2369.91 1189.69 2362.59 1175.24 2356.53 1160.45 2345.3 1139.6 2334.22 1118.66 2323.76 1097.46ZM2169.93 1047.72C2169.07 1049.45 2168.22 1051.19 2167.38 1052.92 2165.96 1058.76 2153.91 1069.74 2154.22 1058.48 2152.77 1055.04 2153.74 1047.53 2148.25 1050.86 2149.92 1057.5 2151.54 1064.15 2153.25 1070.78 2162.57 1060.85 2161.89 1073.51 2162.97 1081.67 2167.37 1088.35 2170.42 1073.53 2172.87 1070.88 2174.24 1061.91 2176.2 1068.52 2181.73 1069.62 2191.72 1068.11 2190.04 1083.01 2194.26 1089.32 2197.67 1082.41 2200.92 1075.4 2204.33 1068.51 2206.73 1065.52 2204.1 1080.75 2204.27 1085.59 2206.08 1100.34 2205.01 1115.12 2204.11 1129.88 2199.23 1143.66 2212.56 1139.21 2219.96 1135.14 2223.05 1127.41 2229.04 1120.63 2229.33 1112.06 2230.29 1101.79 2230.43 1108.82 2232.23 1114.83 2240.36 1117.23 2247.84 1103.05 2241.25 1096.29 2250.34 1101.49 2251.82 1088.59 2254.99 1083.24 2262.73 1075.59 2268.98 1066.31 2269.8 1055.08 2260.97 1053.1 2265.88 1071.31 2257.15 1074.8 2249.12 1078.57 2250.74 1097.31 2240.66 1091.87 2237.46 1085.06 2236.68 1077.71 2237.13 1070.32 2236.54 1066.65 2239.33 1059.6 2233.21 1061.46L2233.21 1079.9C2233.97 1090.29 2240.93 1098.2 2238.36 1107.59 2229.54 1116.39 2237.84 1088.65 2228.7 1090.99 2225.62 1100.65 2227.36 1111.77 2222.65 1120.9 2220.04 1124.69 2219.48 1130.69 2215.23 1132.71 2202.91 1141.12 2209.74 1123.48 2208.73 1116.55 2210.37 1104.91 2207.9 1093.28 2208.49 1081.67 2206.43 1074.3 2214.48 1059.91 2207.41 1055.87 2203.05 1060.63 2200.72 1067.35 2197.69 1073.17 2194.39 1084.43 2192.89 1072.24 2189.75 1066.85 2182.41 1066.79 2177.33 1063.22 2173.46 1056.85 2171.94 1061.03 2170.65 1065.28 2169.24 1069.5 2166.18 1078.53 2165.41 1073.88 2164.98 1067.35 2162.16 1061.13 2179.49 1051.66 2169.93 1047.72ZM2544.99 1035.26C2540.76 1036.07 2536.9 1038.12 2532.92 1039.68 2523.77 1039.91 2514.56 1039.71 2505.38 1039.78 2501.72 1040.37 2494.66 1037.58 2496.52 1043.7L2524.06 1043.7C2530.45 1044.17 2536.66 1043.45 2542.31 1040.11 2549.87 1042.08 2558.49 1050.96 2569.02 1047.23 2582.2 1045.58 2595.54 1049.2 2608.59 1046.46 2614.46 1047.2 2626.51 1039.83 2615.28 1040.88 2602.37 1045.83 2588.73 1042.23 2575.42 1043.09 2564.1 1044.93 2552.85 1043.45 2544.99 1035.26ZM2524.29 1013.88C2523.61 1017.86 2524.89 1018.5 2529 1018.39 2550.22 1021.92 2571.71 1021.91 2593.16 1022.17 2600.42 1019.75 2617.42 1027.57 2619.24 1019.46 2608.3 1017.52 2594.07 1018.74 2581.9 1018.06 2562.58 1018.29 2543.39 1016.6 2524.29 1013.88ZM2552.74 998.374C2542.99 999.404 2532.85 998.239 2523.28 999.982 2513.18 1004.62 2502.15 1004.49 2491.32 1003.28 2481.83 1005.78 2495.7 1009 2501.73 1007.82 2513.03 1010.23 2522.78 1001.7 2533.95 1003.14 2557.79 1001.16 2581.6 1004.06 2605.42 1005.14 2604.57 1004.01 2610.31 1003.88 2608.27 1001.71 2589.88 999.94 2571.23 999.132 2552.74 998.374ZM2296.29 997.393C2295.83 998.603 2295.37 999.813 2294.92 1001.02 2300.33 1002.94 2305.74 1004.86 2311.15 1006.78 2318.33 1011.71 2328.94 1014.55 2329.74 1024.77 2335.83 1034.06 2328.62 1044.08 2326.6 1052.2 2331.62 1055.98 2336.41 1038.34 2336.13 1032.8 2333.24 1024.2 2332.77 1012.81 2322.81 1009.29 2315.1 1002.99 2305.39 1000.82 2296.29 997.393ZM2426.28 954.715C2415.21 955.961 2406.66 962.146 2398.29 968.86 2395.97 972.454 2381.42 978.838 2388.03 980.126 2394.01 980.21 2400.79 970.254 2407.5 967.013 2411.64 959.642 2427 963.453 2426.28 954.715ZM2370.75 933.131 2369.99 933.248 2369.77 933.426C2361.91 939.436 2355.83 948.435 2345.38 950.066 2334.85 951.259 2326.74 959.337 2334.06 969.334 2338.37 966.857 2342.83 964.663 2347.2 962.306 2352.71 958.416 2357.88 956.611 2361.96 963.68 2370.83 965.211 2367.65 981.672 2375.1 979.804 2376.02 968.446 2364.17 960.485 2356.33 953.047 2350.21 956.314 2344.06 959.536 2337.93 962.786 2328.65 957.939 2350.2 952.649 2356.23 950.399 2361.03 944.402 2372.69 940.873 2370.75 933.131ZM2316.79 722C2322.31 722.221 2316.1 733.61 2316.7 737.992 2312.75 749.599 2307.39 761.256 2303.32 773.025 2303.68 780.064 2290.13 792.992 2298.55 796.661 2306.42 781.127 2314.68 765.764 2321.8 749.863 2325.76 745.136 2334.15 724.627 2337.89 732.399 2330.43 751.777 2322.97 771.156 2315.48 790.52 2315.36 797.861 2301.58 810.916 2310.32 814.517 2318.13 797.89 2326.11 781.296 2333.8 764.595 2338.54 755.987 2340.81 745.922 2346.98 738.258 2351.8 734.479 2356 719.845 2362.02 729.358 2361.13 741.575 2363.14 754.576 2356.86 765.711 2341.24 793.441 2325.6 821.363 2310.36 849.387 2305.83 857.388 2317.13 853.284 2318.17 847.635 2328.83 830.929 2338.28 813.336 2348.5 796.311 2353.17 792.221 2356.14 774.769 2362.02 779.884 2361.83 785.838 2361.64 791.792 2361.45 797.746 2354.92 811.972 2347.05 825.85 2340.06 839.968 2337.44 843.708 2329.29 858.112 2338.38 857.587 2345.75 843.357 2353.65 829.238 2361.33 815.106 2362.82 819.076 2361.32 823.689 2361.58 827.922 2360.66 835.723 2362.48 844.145 2358.96 851.355 2350.68 868.637 2345.11 887.382 2334.32 903.286 2330.65 912.452 2319.64 919.47 2320.33 929.403 2310.83 942.861 2300.37 955.54 2289.43 967.837 2287.96 971.258 2275.32 980.015 2285.2 977.771 2293.56 977.668 2302.39 974.481 2310.1 979.112 2318.59 982.276 2333.22 987.993 2335.98 993.655 2330.69 1000.02 2320.97 1001.53 2313.79 997.648 2310.14 996.736 2304.67 991.531 2304.14 997.982 2309.51 999.599 2314.56 1003.38 2320.15 1003.53 2329.05 1005.04 2340.36 998.823 2342.2 990.623 2333.95 986.903 2326.63 980.949 2318.02 977.935 2309.06 973.537 2299.64 971.269 2289.72 973.454 2298.95 962.57 2308.76 952.149 2317.04 940.501 2321.73 928.545 2335.82 931.826 2345.74 927.834 2367.41 914.152 2388.87 899.801 2409.99 885.156 2427.32 869.534 2443.79 852.878 2460.71 836.788 2467.26 825.644 2480.14 826.106 2491.32 823.837 2481.11 833.208 2472.52 844.839 2459.83 851.014 2455.34 854.992 2437.89 860.135 2444.23 866.907 2452.17 857.735 2464.44 854.498 2473.47 846.795 2478.8 838.945 2495.6 830.676 2494.46 822.758 2498.25 821.129 2502.04 819.5 2505.82 817.872 2513.61 812.523 2513.28 817.928 2511.83 825.603 2504.97 834.964 2496.92 843.475 2489.28 852.229 2487.11 858.985 2469.51 866.022 2476.31 872.402 2485.62 862.568 2495.22 852.848 2504.63 843.057 2509.96 835.618 2519.8 835.018 2527.45 830.99 2539.32 824.163 2534.84 838.651 2530.47 844.735 2521.82 851.502 2513.73 858.942 2505.45 866.141 2497.28 874.479 2512.66 870.404 2515.41 865.591 2523.41 861.509 2529.81 854.489 2538.39 851.875 2545.81 848.487 2550.28 848.7 2544.1 856.998 2525.56 869.571 2507.16 882.377 2488.45 894.728 2478.83 902.322 2498.31 899.915 2502.61 898.891 2515.3 895.423 2527.58 889.495 2539.98 885.352 2544.39 891.264 2530.69 893.68 2526.05 897.223 2511.42 906.344 2496.45 914.945 2481.15 922.81 2476.23 925.01 2463.12 936.427 2476.22 934.113 2486.15 933.999 2496.4 928.475 2505.99 930.686 2518.21 931.875 2506.66 937.601 2502.51 941.274 2486.53 949.67 2471.13 959.339 2454.73 966.979 2444.24 973.935 2430.8 972.347 2420 978.752 2413.71 979.026 2405.31 989.342 2415.49 985.228 2424.17 981.05 2435.36 975.628 2444.14 976.496 2468.53 976.049 2492.93 975.754 2517.32 974.926 2521.98 981.436 2502.21 979.779 2496.04 982.12 2494.72 990.609 2493.22 982.832 2486.47 987.41 2475.47 992.271 2463.53 993.157 2451.66 993.536 2439.98 993.359 2428.6 995.396 2417.35 998.374 2408.35 999.495 2416.16 1005.78 2421.78 1001.42 2436.34 996.779 2451.68 998.019 2466.7 996.51 2476.42 997.049 2486.49 989.386 2494.95 989.937 2521.06 991.496 2547.35 991.26 2573.54 991.899 2586.12 996.418 2598.8 1000.07 2612.07 1002.24 2617.02 1002.53 2617.64 1009.02 2620.57 1012.21 2621.98 1020.66 2622.08 1029.54 2623 1038.15 2623.25 1047.42 2609.52 1049.74 2604.93 1056.89 2591.77 1060.36 2576.31 1058.42 2562.26 1059.66 2552.11 1059.04 2538.25 1062.29 2530.36 1059.76 2527.25 1053.09 2511.15 1057.76 2503.2 1055.04 2495.92 1054.26 2490.35 1052.76 2488.97 1056.75 2499.75 1059.71 2511.41 1059.31 2522.57 1060.47 2538.3 1061.06 2519.84 1061.43 2513.97 1061.79 2502.27 1064.99 2522.77 1070.92 2527.42 1073.43 2524.86 1074.6 2510.15 1072.82 2503.13 1072.62 2492.2 1072.76 2481.63 1070.49 2471.11 1067.74 2465.11 1068.49 2453.04 1058.99 2451.2 1066.36 2463.24 1074.31 2475.42 1082.13 2487.4 1090.2 2515.48 1100.47 2543.65 1110.52 2571.76 1120.71 2575.41 1122.61 2580.69 1122.71 2583.24 1125.84 2589.26 1133.97 2572.04 1130.43 2567.36 1131.9 2559.33 1132.35 2545.42 1118.67 2541.16 1127.29 2561.68 1138.44 2582.14 1149.74 2602.75 1160.73 2611.74 1160.82 2620.09 1174.67 2606.79 1175.27 2597.69 1173.98 2588.78 1171.82 2580.86 1167.05 2577.4 1166.17 2572.88 1161.46 2570.09 1162.96 2567.64 1169.95 2582.65 1173.44 2585.8 1179.88 2595.7 1192.75 2575.95 1185.32 2569.63 1182.21 2560.21 1177.5 2550.56 1173.27 2540.36 1170.39 2536.11 1170.31 2546.23 1182.59 2546.07 1185.86 2536.33 1182.63 2529.27 1173.97 2520.22 1169.01 2502.06 1154.66 2485.26 1138.58 2467.79 1123.38 2457.42 1113.4 2446.13 1104.56 2433.46 1097.64 2425.54 1095.75 2416.22 1081.31 2409.11 1087.07 2422.61 1109.49 2435.4 1132.37 2450.44 1153.78 2464.83 1176.51 2481.29 1197.94 2494.21 1221.54 2497.27 1230.21 2488.08 1227.31 2482.98 1223.83 2467.91 1205.23 2452.84 1186.63 2437.77 1168.02 2429.21 1163.64 2438.38 1177.87 2441.25 1180.8 2454.45 1202.19 2469.75 1222.37 2480.92 1244.92 2485.4 1250.67 2494.4 1268.93 2479.75 1261.9 2465.76 1244.07 2452.38 1225.76 2438.77 1207.63 2435.38 1200.59 2427.81 1198.1 2421.87 1193.81 2429.18 1210.35 2436.13 1227.07 2443.79 1243.45 2447.37 1253.13 2457.16 1260.57 2454.6 1271.72 2448.88 1274.95 2442.19 1256.99 2436.48 1251.13 2431.22 1242.08 2422.52 1234.99 2421.17 1224.51 2419.52 1212.77 2411.09 1204.37 2404.76 1194.94 2399.91 1188.2 2407.03 1188.54 2408.93 1183.79 2411.24 1180.29 2412.39 1175.32 2415.4 1172.72 2426.69 1166.66 2422.96 1179.52 2422.67 1187.42 2426.01 1197.01 2428.27 1180.16 2427.17 1175.7 2423.34 1168.58 2433.03 1170.93 2431.03 1166.28 2426.72 1165.82 2428 1161.88 2426.87 1156.82 2420.28 1145.73 2415.05 1134.02 2412.6 1121.36 2409.02 1107.9 2402.78 1095.57 2396.26 1083.34 2389.42 1068.3 2379.74 1054.76 2373.11 1039.68 2372.92 1034.31 2363.59 1019.62 2365.39 1031.13 2372.2 1050.86 2384.84 1067.64 2393.45 1086.55 2401.47 1100.9 2407.94 1116.16 2411.37 1132.29 2412.59 1144.12 2424.72 1152.89 2423.48 1164.94 2422.62 1168.86 2415.54 1167.78 2411.96 1169.48 2409.74 1173.8 2407.47 1178.09 2405.23 1182.4 2400.75 1183.88 2404.2 1166 2402.94 1160.48 2401.3 1151.25 2393.53 1143.64 2389.87 1134.97 2377.31 1115.22 2370.08 1092.77 2358.59 1072.45 2353.48 1069 2350.06 1049.18 2343.48 1056.06 2350.08 1066.19 2357.06 1076.2 2361.86 1087.35 2366.43 1096.99 2371.46 1108.05 2375.56 1116.89 2381.46 1129.28 2389.05 1140.97 2395.57 1153.09 2401.82 1162.1 2398.46 1175.15 2398.84 1184.81 2394.79 1183.82 2391 1195.08 2392.43 1186.55 2385.79 1167.05 2372.58 1150.7 2362.71 1132.78 2360.57 1123.12 2364.71 1111.08 2356.69 1103.55 2347.59 1094.53 2341.19 1083.67 2336.27 1071.92 2333.63 1061.85 2325.26 1055.52 2317.38 1049.39 2310.47 1042.04 2303 1035.84 2292.14 1040.19 2284.25 1044.94 2300.13 1044.45 2304.34 1043.11 2312.07 1051.53 2322.9 1057 2329.55 1066.27 2335.34 1079.2 2340.58 1092.8 2350.93 1102.88 2360.95 1110.16 2356.8 1123.02 2358.88 1133.47 2367.14 1149.48 2378.49 1163.95 2385.86 1180.47 2389.59 1186.35 2389.65 1195.2 2384.09 1199.89 2376.76 1198.26 2377.53 1200.17 2373.2 1200.77 2371.99 1205.66 2387.63 1202.11 2386.65 1204.4 2391.04 1213.87 2396.87 1222.8 2398.91 1233.25 2400.78 1243.64 2407.53 1249.41 2412.23 1258.66 2416.08 1263.6 2413.8 1270.31 2414.41 1276.52 2418.97 1280.04 2418.68 1272.77 2418.33 1269.11 2419.69 1261.16 2414.45 1254.7 2410.55 1248.29 2401.68 1238.35 2402.38 1223.81 2395.27 1212.81 2390.9 1207.38 2388.16 1198.87 2394.39 1193.71 2399.62 1185.14 2399.43 1192.29 2402.24 1198.32 2408.85 1207.23 2416.23 1215.8 2417.81 1227.19 2415.83 1234.55 2426.37 1230.7 2419.51 1233.54 2424.11 1245.09 2428.51 1256.75 2433.15 1268.27 2432.9 1276.51 2443.86 1292.66 2429.12 1292.31L2418.24 1283.68C2411.65 1277.6 2416.41 1299.91 2410.26 1297.42 2396.34 1295.97 2401.12 1280.2 2398.72 1270.49 2395.32 1255.55 2388.76 1241.39 2383.8 1226.87 2374.97 1227.64 2385.74 1243 2384.68 1249.34 2384.63 1267.84 2383.47 1286.52 2383.15 1305.09 2375.83 1307.92 2372.51 1294.74 2371.44 1287.8 2363.71 1282.4 2351.31 1280.71 2352.5 1267.68 2339.98 1231.7 2326.45 1195.83 2313.26 1159.98 2311.6 1156.82 2321.64 1153.53 2314.57 1152.19 2310.6 1153.92 2306.96 1158.09 2302.77 1158.13 2290.44 1156.26 2300.36 1133.5 2284.03 1137.89 2282.79 1134.56 2299.62 1128.11 2298.55 1118.36 2293.43 1115.77 2288.14 1113.55 2282.95 1111.1 2285.27 1107.42 2287.34 1103.56 2289.81 1099.98 2293.94 1092.67 2305.14 1086.82 2300.89 1077.16 2301.1 1066.81 2296.78 1058.61 2287.46 1053.61 2285.85 1048.08 2284.24 1042.56 2282.64 1037.03 2280.06 1032.07 2276.82 1038.66 2280.05 1042.08 2282.5 1047.89 2281.8 1055.73 2287.99 1059.13 2296.52 1064.02 2299.86 1078.4 2295.46 1086.42 2288.33 1094.49 2282.74 1103.59 2277.36 1112.87 2280.98 1114.49 2284.57 1116.19 2288.17 1117.85 2299.46 1120.33 2287.75 1129.57 2282.26 1132.59 2280.83 1134.91 2268.62 1141.28 2273.07 1141.71 2283.24 1140.84 2294.49 1140.46 2292.76 1154.09 2294.27 1160.3 2303.98 1165.67 2309.14 1160.06 2318.18 1187.51 2326.26 1215.33 2336.42 1242.37 2341.41 1253.68 2340.47 1265.98 2339.95 1277.99 2328.21 1288.73 2328.15 1269.71 2330.23 1260.72 2320.41 1230.1 2308.39 1200.2 2297.28 1170.02 2296.48 1165.07 2289.28 1148.65 2289.16 1160.16 2298.82 1191.75 2310.31 1222.81 2318.67 1254.78 2324.37 1265.38 2317.66 1275.77 2315.45 1286.26 2309.01 1291.27 2304.51 1271.83 2307.67 1267.29 2306.13 1263.09 2304.57 1258.89 2303.02 1254.69 2293.69 1231.39 2287.36 1207.09 2280.31 1183.04 2270.52 1171.55 2288.9 1163.5 2286.19 1153.55 2276.52 1155.58 2273.84 1173.22 2262.94 1161.74 2256.61 1161.06 2247.44 1147.36 2243.31 1155.15 2248.28 1158.84 2253.45 1162.6 2258.49 1166.32 2261.91 1169.48 2267.05 1171.34 2269.4 1175.3 2277.33 1197.6 2286.58 1219.46 2293.42 1242.12 2295.49 1254.51 2307.59 1269.76 2292.95 1278.28 2283.44 1258.01 2275.13 1237.18 2267.23 1216.23 2259.44 1196.9 2253.34 1176.87 2243.99 1158.24 2242.5 1155.02 2241.24 1149.63 2237.43 1153.58 2253.49 1194.59 2270.77 1235.12 2285.96 1276.47 2289.34 1281.56 2285.5 1287.03 2284.69 1292.35 2284.93 1297.75 2278.47 1295.66 2275 1296.92 2274.51 1282.82 2270.92 1269.24 2267.55 1255.62 2261.44 1239.25 2253.52 1223.55 2246.59 1207.49 2242.02 1199.81 2239.36 1186.83 2233.73 1182.05 2228.56 1183.01 2234.64 1188.68 2234.82 1191.93 2237.4 1199.86 2242.68 1207.23 2241.91 1215.88 2241.14 1219.37 2244.16 1225.54 2240.85 1227.24 2235.78 1229.02 2231.14 1238.16 2226.58 1243.39 2219.77 1258.31 2238.38 1243.28 2242.82 1239.33 2243.96 1267.58 2245.1 1295.83 2246.24 1324.09 2245.66 1328.29 2248.7 1335.09 2244.08 1334.5 2236.18 1341.97 2229.23 1350.45 2219.77 1355.89 2222.18 1364.17 2236.86 1354.72 2243.64 1355.15 2254.23 1350.01 2236.43 1350.84 2231.88 1353.7 2228.01 1353.71 2243.19 1341.72 2246.75 1337.34 2247.15 1346.75 2247.54 1356.16 2247.94 1365.58 2248.74 1372.48 2248.79 1374.77 2242.92 1378.15 2237.99 1384.67 2232.95 1390.34 2225.19 1393.38 2209.99 1401.67 2231.71 1400.84 2238.21 1399.54 2249.55 1396.58 2232.69 1394.12 2228.6 1396.01 2237.34 1392.86 2241.38 1385.13 2248.42 1378.06 2249.16 1393.37 2249.6 1408.4 2249.57 1423.69 2246.84 1432.34 2235.93 1435.53 2227.03 1430.55 2231.78 1428.04 2236.52 1425.52 2241.27 1423.01 2244.3 1420.78 2251.76 1419.91 2247.24 1415.34 2239.21 1419.65 2231.18 1423.96 2223.15 1428.28 2220.04 1430.13 2213 1432.41 2220.48 1433.02 2230.62 1435.13 2243.32 1441.86 2249.69 1430.25 2249.76 1436.62 2249.82 1442.99 2249.89 1449.35 2249.66 1454.37 2251.57 1459.23 2246.41 1457.96 2242.6 1465.41 2223.5 1469.56 2228.01 1478.03 2232.32 1475.99 2236.66 1473.99 2240.98 1471.97 2244.11 1469.88 2251.6 1469.39 2247.34 1464.59 2237.81 1469.73 2245.34 1464.28 2249.98 1459.98 2250.08 1469.11 2250.17 1478.23 2250.27 1487.36 2245.62 1493.56 2235.4 1500.54 2229.38 1507.76 2226.8 1514.43 2208.59 1520.26 2214.96 1526.99 2227.06 1516.05 2238.08 1504.05 2250.28 1493.24 2250.37 1501.6 2250.46 1509.97 2250.56 1518.34 2250.35 1524.03 2252.29 1529.53 2246.52 1532.62 2240.17 1541.91 2229.85 1545.61 2219.64 1548.99 2209.17 1551.85 2219.68 1556.92 2224.82 1551.21 2235.31 1548.48 2244.18 1542.53 2250.67 1533.86 2250.8 1545.6 2250.92 1557.35 2251.04 1569.09 2248.19 1577.48 2234.57 1582.84 2228.28 1588.45 2234.1 1594.39 2245.14 1580.04 2251.16 1576.04 2251.24 1585.09 2251.32 1594.13 2251.4 1603.17 2253.71 1611.41 2245.09 1614.69 2240.43 1619.95 2237.91 1625.69 2218.44 1623.26 2226.15 1630 2236.51 1628.33 2244.71 1622.82 2251.55 1615.09 2251.65 1625.32 2251.75 1635.55 2251.85 1645.77 2251.11 1649.44 2253.97 1655.65 2249.59 1655.71 2243.57 1662.65 2229.44 1665.56 2226.54 1672.16 2233.64 1673.53 2244.56 1663.61 2251.95 1658.85 2251.71 1670.67 2253.98 1682.33 2255.09 1694.07 2245.73 1698.4 2237.35 1704.21 2228.11 1708.69 2231.61 1716.9 2241.22 1703.72 2247.41 1702.49 2255.29 1696.02 2257.14 1699.92 2257.15 1708.88 2261.73 1719.9 2259.85 1733.73 2267.75 1743.43 2277.68 1749.59 2269.52 1754.12 2262.93 1758.92 2247.35 1761.44 2231.45 1762.31 2215.81 1764.73 2205.2 1765.13 2195.42 1770.16 2185.24 1771.77 2176.61 1766.61 2165.09 1762.29 2161.49 1752.15 2152.15 1739.65 2164.15 1726.19 2166.06 1713.01 2166.13 1696.47 2178.55 1709.27 2187.49 1712.22 2192.74 1703.22 2168.48 1705.4 2170.81 1696.59 2172.56 1684.49 2171.83 1671.96 2172.72 1659.71 2177.67 1657.43 2189.75 1675.42 2195.47 1670.58 2192.12 1665.39 2179.3 1657.14 2172.97 1655.02 2173.55 1639.86 2174.09 1624.69 2174.68 1609.52 2178.47 1608.5 2187.18 1626.48 2193.21 1624.88 2193.51 1619.35 2181.33 1609.47 2176.66 1606.03 2172.57 1600.78 2177.04 1582.08 2176.11 1571.92 2180.06 1574.66 2184.01 1577.39 2187.96 1580.12 2191.32 1581.74 2195.52 1588.02 2197.5 1581.93 2193.92 1579.45 2190.33 1576.97 2186.75 1574.49 2183.61 1573.43 2179.55 1567.28 2176.99 1569.43 2175.42 1565.85 2177.45 1551.66 2177.27 1543.98 2173.97 1526.93 2186.66 1548.46 2191.97 1543.53 2191.88 1540.19 2182.74 1532.96 2177.58 1534.54 2178.57 1509.55 2179.56 1484.56 2180.52 1459.57 2178.31 1446.47 2185.02 1456.35 2190.23 1460.5 2194.46 1468.26 2196.2 1457.54 2196.81 1465.28 2200.92 1458.42 2184.56 1453.95 2182.19 1447.32 2177.6 1437.24 2184.25 1437.53 2191.85 1433.1 2202.9 1429.83 2202.05 1417.87 2189.78 1418.95 2179.07 1420.55 2182.66 1415.2 2182.6 1406.44 2179.86 1394.58 2194.35 1391.16 2200.44 1380.31 2211.86 1370.24 2193.99 1370.92 2187.59 1373.35 2177.09 1377.17 2192.09 1378.29 2197.02 1375.94 2199.47 1378.29 2187.79 1387.3 2184.24 1392.29 2181.89 1385.3 2184.92 1365.27 2184.65 1353.24 2188.01 1348.98 2192.99 1345.43 2196.96 1341.44 2206.25 1336.28 2192.8 1334.93 2188.45 1331.97 2183.2 1334.4 2185.28 1322.1 2187.01 1322.27 2193.1 1315.4 2198.13 1304.27 2203.93 1295.91 2209.88 1283.92 2193.03 1295.91 2189.94 1299.67 2182.51 1305.78 2193.43 1305.39 2196.43 1299.51 2197.77 1300.22 2188.61 1312.58 2186.02 1317.72 2186.6 1303.35 2187.13 1288.99 2187.5 1274.61 2186.44 1268.89 2193.79 1268.37 2197.07 1265.33 2199.96 1262.93 2206.94 1261.89 2202.89 1257.29 2197.98 1258.9 2193.01 1260.35 2188.08 1261.9 2188.18 1257.19 2188.28 1252.48 2188.37 1247.77 2194.2 1242.34 2200.02 1236.9 2205.84 1231.47 2208.12 1228.54 2214.79 1226.09 2209.76 1222.55 2202.67 1226.87 2195.57 1231.19 2188.47 1235.5 2188.69 1228.83 2188.92 1222.16 2189.14 1215.48 2194.34 1210.13 2203.13 1207.07 2208.88 1202.15 2205.9 1195.52 2195.45 1205.62 2189.75 1204.99L2189.75 1181.08C2189.28 1177.58 2191.74 1168.35 2185.92 1171.34 2184.63 1181.76 2183.92 1192.33 2182.66 1202.78 2180.03 1219.98 2176.21 1237.07 2171.56 1253.84 2166.84 1263.98 2171.67 1274.84 2172.37 1285.31 2168.18 1293.6 2159.52 1289.71 2154.92 1282.99 2147.33 1296.54 2142.71 1312.43 2130.03 1322.35 2123.27 1331.69 2125.11 1319.49 2125.2 1314.19 2132.27 1296.68 2136.32 1278.08 2142.57 1260.36 2145.22 1255.91 2153.75 1234.94 2142.26 1244.16 2134.95 1252.78 2127.87 1261.82 2117.33 1266.65 2111.37 1270.7 2109.41 1270.65 2114.7 1263.76 2119.98 1252.41 2127.69 1242.24 2133.15 1230.95 2142.15 1213.4 2146.99 1194.28 2153.45 1175.74 2154.84 1168.33 2153.64 1160.5 2154.04 1152.93 2153.45 1149.15 2156.2 1142.65 2150.21 1143.28 2145.46 1154.42 2140.89 1165.66 2137.05 1177.1 2125.94 1200.56 2112.86 1223.07 2102.43 1246.89 2096.7 1245.63 2097.05 1227.86 2096.13 1219.56 2096.93 1210.63 2094.13 1207.73 2088.41 1216.28 2081.6 1233.73 2076.13 1252.01 2068.02 1269.04 2060.1 1288.89 2047.84 1306.43 2037.78 1325.18 2029.34 1333.1 2030.64 1316.3 2031.9 1310.46 2039.5 1296.92 2045.71 1282.6 2055 1270.08 2059.42 1266.03 2057.82 1260.21 2058.09 1255.01 2057.52 1248.75 2046.77 1264.06 2042.7 1264.95 2030.95 1272.7 2022.6 1284.07 2013.62 1294.67 2007.86 1299.55 1996.16 1322.96 1994.62 1304.77 2009.99 1286.66 2024.42 1267.53 2039.36 1248.94 2043.2 1234.94 2031.08 1241.32 2026.56 1248.5 2013.7 1258.84 2003.09 1272.41 1987.98 1279.63 1981.61 1276.69 1992.38 1266.25 1997.23 1262.49 2006.76 1252.88 2018.05 1243.59 2026.76 1233.96 2020.6 1227.57 2008.2 1240.2 1999.91 1241.39 1987.51 1241.75 1997.69 1233.8 2001.48 1228.73 2015.18 1219.78 2031.21 1214.14 2045.04 1205.09 2059.77 1198.24 2041.03 1195.26 2034.08 1196.46 2024.33 1199.2 2025.91 1191.76 2028.37 1185.17 2037.44 1178.21 2046.79 1171.57 2055.44 1164.08 2064.38 1158.2 2074.79 1154.02 2084.48 1149.17 2078.07 1146.29 2071.42 1143.71 2065.06 1140.87 2062.95 1132.26 2070.79 1127.41 2075.8 1121.63 2088.49 1107.12 2103.46 1094.78 2115.58 1079.81 2121.01 1072.22 2135.44 1060.29 2125.88 1051.45 2116.08 1055.68 2107.15 1062.24 2097.63 1067.15 2089.27 1073.95 2082.55 1083.02 2075.01 1090.84 2066.63 1098.52 2062.18 1111.48 2049.26 1112.08 2045.47 1105.51 2041.6 1098.98 2037.88 1092.36 2034.99 1106.18 2032.27 1120.03 2029.44 1133.86 2029.87 1142.59 2016 1156.43 2011 1144.42 2002.48 1128.48 1999.95 1149.37 1999.16 1157.3 1995.17 1167.89 2000.23 1184.62 1987.85 1189.98 1986.03 1181.78 1984.22 1173.58 1982.4 1165.37 1980.99 1161.85 1982.33 1154.98 1976.66 1156.62 1973.54 1169.93 1970.43 1183.24 1967.33 1196.55 1963.73 1206.8 1964.8 1219.46 1957.56 1227.89 1951.86 1237.8 1947.13 1229.19 1941.15 1225.69 1934.43 1231.96 1933.66 1243.57 1929.49 1251.84 1926.64 1254.63 1924.27 1238.52 1921.87 1233.17 1917.49 1218.88 1913.42 1239.25 1912.79 1245.15 1911.69 1258.07 1908.42 1245.15 1907.01 1239.48 1905.71 1225.84 1907.28 1211.96 1907.13 1198.23 1906.28 1185.48 1913.92 1174.3 1917.51 1162.41 1929 1150.65 1941 1139.4 1952.6 1127.73 1958.44 1120.91 1965.99 1115.34 1973.38 1109.16 1989.24 1097.88 2001.4 1082.61 2014.83 1068.72 2027.11 1060.44 2039.47 1052.26 2051.78 1044.02 2054.46 1041.49 2061.54 1040.17 2057.21 1035.85 2046 1040.37 2034.69 1044.65 2023.66 1049.59 1998.14 1065.07 1972.79 1080.94 1947.72 1097.17 1938.13 1101.96 1927.91 1109.34 1917.21 1103.25 1918.14 1096.31 1925.85 1094.98 1930.57 1091.2 1942.75 1084.47 1953.4 1075.62 1964.33 1067.07 1966.79 1064.39 1973.74 1062.52 1969.01 1058.61 1949.73 1068.28 1930.4 1077.76 1910.83 1086.74 1904.72 1093.07 1879.84 1094.19 1891.9 1081.96 1910.22 1072.63 1929.28 1065.08 1948.08 1056.85 1957.18 1051.55 1971.75 1048.18 1978.02 1041.77 1970.96 1037.08 1956.2 1048.5 1946.46 1049.3 1928.19 1054.49 1910.58 1061.94 1892.1 1066.27 1883.69 1064.1 1863.07 1072.05 1864.73 1058.42 1870.4 1057.09 1876.07 1055.77 1881.74 1054.44 1908.37 1047.06 1934.85 1038.8 1961.26 1030.65 1960.21 1021.72 1942.81 1034.15 1935.85 1033.6 1912.49 1041.07 1888.36 1044.93 1864.14 1049 1854.93 1048.01 1836.35 1061.59 1835 1046.74 1839.7 1036.32 1851.2 1032.81 1859.82 1026.43 1887.82 1023.59 1915.82 1020.75 1943.81 1017.91 1947.44 1016.97 1954.67 1018.98 1952.24 1013.09 1918.57 1015.63 1884.91 1018.47 1851.19 1020.06 1835.48 1017.01 1851.88 1012.59 1859.43 1010.25 1889.13 1005.34 1918.91 1000.53 1948.62 995.514 1980.54 992.528 2012.56 990.363 2044.52 987.692 2055.07 986.464 2065.62 986.24 2076.14 988.17 2088.29 988.289 2098.84 994.787 2110.28 997.982 2117.19 997.476 2130.52 1010.49 2133.63 1001.91 2118.51 994.995 2103.3 988.169 2088.14 981.29 2072.3 978.671 2055.93 977.659 2039.94 975.22 2030.97 970.995 2014.47 975.826 2012.67 963.349 2012.1 949.541 2001.42 957.324 1995.21 962.478 1989.87 966.37 1971.28 969.051 1972.44 959.942 1974.19 950.849 1989.62 948.886 1991.67 940.097 1983.82 937.764 1977.41 951.465 1968.17 951.31 1962.12 953.126 1945.36 953.124 1947.23 944.244 1947.93 936.766 1966.58 942.929 1963.71 933.72 1947.55 934.296 1931.39 934.814 1915.23 935.297 1905.29 934.769 1894.27 938.5 1885.72 931.856 1875.08 930.016 1876.47 921.393 1887.15 923.953 1907.17 923.725 1927.52 919.578 1947.26 924.469 1956.7 925.083 1963.49 931.575 1970.38 937.252 1969.34 932.437 1968.34 927.609 1967.15 922.83 1936.81 912.71 1906.52 902.45 1876.21 892.276 1872.28 890.813 1867.25 890.561 1866.61 885.5 1863.98 881.123 1862.85 877.718 1869.34 879.269 1907.96 891.707 1946.58 904.144 1985.2 916.582 1988.95 917.181 1994.54 921.871 1995.21 915.668 1974.57 904.497 1953.47 893.959 1932.87 882.837 1927.77 875.884 1912.41 873.11 1913.97 863.277 1919.61 864.978 1925.25 866.678 1930.88 868.379 1958.03 881.693 1985.23 895.066 2011.79 909.585 2022.44 913.5 2031.43 924.068 2043.08 923.909 2059.19 920.593 2030.49 914.085 2038.96 905.955 2052.99 911.125 2067.04 916.363 2082.01 918.006 2089.64 919.927 2075.74 910.564 2074.75 907.843 2064.84 902.202 2062.14 885.783 2065.45 878.484 2075.69 881.483 2082.47 893.549 2091.3 900.173 2099.27 906.08 2102.24 915.724 2107.4 923.801 2111.65 934.655 2121.78 941.43 2129.32 949.908 2136.43 953.204 2143.66 971.453 2150.8 965.704 2140.85 955.467 2130.91 945.23 2120.96 934.994 2115.07 923.781 2109.98 912.011 2104.39 900.586 2087.18 874.361 2069.43 848.351 2052.02 822.208 2048.46 819.054 2049.58 814.637 2049.85 810.449 2048.31 803.852 2053.54 806.493 2057.6 807.551 2068.49 822.995 2079.38 838.438 2090.27 853.881 2092.58 856.54 2094.23 862.724 2097.82 857.882 2080.66 831.477 2062.91 804.669 2045.67 778.006 2041.49 767.833 2028.71 759.61 2030.95 747.849 2029.44 738.453 2036.11 744.112 2040.82 746.233 2060.2 776.893 2079.57 807.553 2098.95 838.214 2101.33 840.983 2102.57 847.902 2106.65 843.165 2094.61 822.553 2082.56 801.949 2070.62 781.279 2066.71 775.846 2063.9 770.095 2065.06 763.334 2063.89 756.585 2066.04 751.484 2073 749.078 2088.89 775.586 2104.17 802.458 2119.6 829.234 2123.86 833.415 2127.1 851.977 2133.04 845.421 2124.75 830.466 2116.44 815.425 2108.37 800.311 2103.95 791.038 2097.46 782.271 2094.65 772.481 2095.53 765.498 2090.73 756.57 2097.63 751.727 2114.7 781.862 2131.76 811.997 2148.83 842.131 2151.08 844.994 2151.99 852.038 2156.49 847.776 2147.93 828.282 2139.75 808.618 2130.79 789.303 2126.72 778.724 2128.27 766.653 2126.76 755.455 2145.24 789.926 2163.74 824.38 2182.19 858.863 2183.04 849.597 2183.68 840.314 2184.42 831.039 2184.29 818.203 2191.86 841.237 2195.15 844.513 2201.6 857.741 2210.53 869.934 2214.96 884.026 2219.84 890.058 2217.65 904.69 2225.95 905.464 2229.32 895.523 2231.14 885.299 2232.64 874.93 2235.16 854.9 2241.18 835.619 2245.67 815.989 2251.63 799.629 2260.42 784.305 2267.35 768.307 2272 775.922 2269.74 788.065 2271.79 797.421 2271.27 809.917 2265.28 821.885 2262.58 834.129 2263.21 840.094 2251.83 854.034 2259.99 855.134 2264.44 843.978 2268.7 832.537 2273.11 821.293 2281.57 796.29 2290.22 771.295 2298.64 746.247 2302.18 737.275 2308.39 725.907 2316.79 722Z" fill="#FFFFFF" fill-rule="evenodd"/><path d="M1379.5 589.036C1564.18 585.729 1705.1 812.961 1539.59 986.845 1359.23 1146.11 1094.44 968.615 1160.29 748.952 1152.8 914.658 1342.31 984.454 1446.22 878.244 1553.8 762.832 1458.44 577.871 1298.45 605.395 1325.85 594.685 1353.12 589.508 1379.5 589.036Z" fill="#FFFFFF" fill-rule="evenodd"/></g></svg>
