<svg width="2338" height="1559" xmlns="http://www.w3.org/2000/svg" xmlns:xlink="http://www.w3.org/1999/xlink" xml:space="preserve" overflow="hidden"><defs><clipPath id="clip0"><rect x="1031" y="458" width="2338" height="1559"/></clipPath></defs><g clip-path="url(#clip0)" transform="translate(-1031 -458)"><path d="M1031 458 3369 458 3369 2017 1031 2017Z" fill="#297B52" fill-rule="evenodd"/><path d="M1226 1231.48 2195.97 1887 3174 1230.2 2195.97 588 1226 1231.48Z" fill="#F2F2F2" fill-rule="evenodd"/><path d="M1467 1232.97 2196.97 1726 2933 1232.01 2196.97 749 1467 1232.97Z" fill="#297B52" fill-rule="evenodd"/><path d="M2223.33 717.901 2194.57 696.962 2165.85 718 2176.77 684.018 2148 663.056 2183.51 662.993 2194.44 629 2205.48 662.943 2241 662.896 2212.31 683.938 2223.33 717.901Z" fill="#297B52" fill-rule="evenodd"/><path d="M1457.1 1162.52 1477.8 1134.07 1457 1105.66 1490.6 1116.46 1511.33 1088 1511.39 1123.13 1545 1133.94 1511.44 1144.86 1511.48 1180 1490.68 1151.62 1457.1 1162.52Z" fill="#297B52" fill-rule="evenodd"/><path d="M1597.1 1069.33 1618.04 1040.57 1597 1011.86 1630.98 1022.77 1651.94 994 1652.01 1029.51 1686 1040.44 1652.06 1051.48 1652.1 1087 1631.06 1058.31 1597.1 1069.33Z" fill="#297B52" fill-rule="evenodd"/><path d="M2018.1 793.523 2038.8 765.067 2018 736.663 2051.6 747.459 2072.33 719 2072.39 754.128 2106 764.943 2072.44 775.857 2072.49 811 2051.68 782.619 2018.1 793.523Z" fill="#297B52" fill-rule="evenodd"/><path d="M1878.1 887.333 1898.8 858.568 1878 829.855 1911.6 840.768 1932.33 812 1932.39 847.509 1966 858.442 1932.44 869.475 1932.48 905 1911.68 876.31 1878.1 887.333Z" fill="#297B52" fill-rule="evenodd"/><path d="M1737.1 975.333 1758.04 946.568 1737 917.855 1770.98 928.768 1791.94 900 1792.01 935.509 1826 946.442 1792.06 957.475 1792.1 993 1771.06 964.31 1737.1 975.333Z" fill="#297B52" fill-rule="evenodd"/><path d="M1457.1 1162.52 1477.8 1134.07 1457 1105.66 1490.6 1116.46 1511.33 1088 1511.39 1123.13 1545 1133.94 1511.44 1144.86 1511.48 1180 1490.68 1151.62 1457.1 1162.52Z" fill="#297B52" fill-rule="evenodd"/><path d="M2799.9 1069.33 2779.2 1040.57 2800 1011.86 2766.4 1022.77 2745.67 994 2745.61 1029.51 2712 1040.44 2745.56 1051.48 2745.51 1087 2766.32 1058.31 2799.9 1069.33Z" fill="#297B52" fill-rule="evenodd"/><path d="M2378.9 793.523 2358.2 765.067 2379 736.663 2345.4 747.459 2324.67 719 2324.61 754.128 2291 764.943 2324.56 775.857 2324.52 811 2345.32 782.619 2378.9 793.523Z" fill="#297B52" fill-rule="evenodd"/><path d="M2518.9 887.333 2498.2 858.568 2519 829.855 2485.4 840.768 2464.67 812 2464.61 847.509 2431 858.442 2464.56 869.475 2464.52 905 2485.32 876.31 2518.9 887.333Z" fill="#297B52" fill-rule="evenodd"/><path d="M2659.9 975.333 2638.96 946.568 2660 917.855 2626.02 928.768 2605.06 900 2604.99 935.509 2571 946.442 2604.94 957.475 2604.9 993 2625.94 964.31 2659.9 975.333Z" fill="#297B52" fill-rule="evenodd"/><path d="M2939.9 1162.52 2919.2 1134.07 2940 1105.66 2906.4 1116.46 2885.67 1088 2885.61 1123.13 2852 1133.94 2885.56 1144.86 2885.52 1180 2906.32 1151.62 2939.9 1162.52Z" fill="#297B52" fill-rule="evenodd"/><path d="M1404.9 1208.67 1384.2 1237.43 1405 1266.14 1371.4 1255.23 1350.67 1284 1350.61 1248.49 1317 1237.56 1350.56 1226.52 1350.52 1191 1371.32 1219.69 1404.9 1208.67Z" fill="#297B52" fill-rule="evenodd"/><path d="M1529.9 1297.67 1508.96 1326.43 1530 1355.14 1496.02 1344.23 1475.06 1373 1474.99 1337.49 1441 1326.56 1474.94 1315.52 1474.9 1280 1495.94 1308.69 1529.9 1297.67Z" fill="#297B52" fill-rule="evenodd"/><path d="M1903.9 1551.67 1882.96 1580.43 1904 1609.14 1870.02 1598.23 1849.06 1627 1848.99 1591.49 1815 1580.56 1848.94 1569.52 1848.9 1534 1869.94 1562.69 1903.9 1551.67Z" fill="#297B52" fill-rule="evenodd"/><path d="M1778.9 1463.67 1758.2 1492.43 1779 1521.14 1745.4 1510.23 1724.67 1539 1724.61 1503.49 1691 1492.56 1724.56 1481.52 1724.52 1446 1745.32 1474.69 1778.9 1463.67Z" fill="#297B52" fill-rule="evenodd"/><path d="M1653.9 1380.67 1633.2 1409.43 1654 1438.15 1620.4 1427.23 1599.67 1456 1599.61 1420.49 1566 1409.56 1599.56 1398.52 1599.52 1363 1620.32 1391.69 1653.9 1380.67Z" fill="#297B52" fill-rule="evenodd"/><path d="M2028.9 1635.48 2007.96 1663.93 2029 1692.34 1995.02 1681.54 1974.06 1710 1973.99 1674.87 1940 1664.06 1973.94 1653.14 1973.9 1618 1994.94 1646.38 2028.9 1635.48Z" fill="#297B52" fill-rule="evenodd"/><path d="M2152.9 1723.67 2132.2 1752.43 2153 1781.14 2119.4 1770.23 2098.67 1799 2098.61 1763.49 2065 1752.56 2098.56 1741.52 2098.52 1706 2119.32 1734.69 2152.9 1723.67Z" fill="#297B52" fill-rule="evenodd"/><path d="M2990.1 1208.67 3010.8 1237.43 2990 1266.14 3023.6 1255.23 3044.33 1284 3044.39 1248.49 3078 1237.56 3044.44 1226.52 3044.48 1191 3023.68 1219.69 2990.1 1208.67Z" fill="#297B52" fill-rule="evenodd"/><path d="M2865.1 1297.67 2886.04 1326.43 2865 1355.14 2898.98 1344.23 2919.94 1373 2920.01 1337.49 2954 1326.56 2920.06 1315.52 2920.1 1280 2899.06 1308.69 2865.1 1297.67Z" fill="#297B52" fill-rule="evenodd"/><path d="M2491.1 1551.67 2511.8 1580.43 2491 1609.14 2524.6 1598.23 2545.33 1627 2545.39 1591.49 2579 1580.56 2545.44 1569.52 2545.49 1534 2524.68 1562.69 2491.1 1551.67Z" fill="#297B52" fill-rule="evenodd"/><path d="M2616.1 1463.67 2636.8 1492.43 2616 1521.14 2649.6 1510.23 2670.33 1539 2670.39 1503.49 2704 1492.56 2670.44 1481.52 2670.48 1446 2649.68 1474.69 2616.1 1463.67Z" fill="#297B52" fill-rule="evenodd"/><path d="M2740.1 1380.67 2761.04 1409.43 2740 1438.15 2773.98 1427.23 2794.94 1456 2795.01 1420.49 2829 1409.56 2795.06 1398.52 2795.1 1363 2774.06 1391.69 2740.1 1380.67Z" fill="#297B52" fill-rule="evenodd"/><path d="M2366.1 1635.48 2387.04 1663.93 2366 1692.34 2399.98 1681.54 2420.94 1710 2421.01 1674.87 2455 1664.06 2421.06 1653.14 2421.1 1618 2400.06 1646.38 2366.1 1635.48Z" fill="#297B52" fill-rule="evenodd"/><path d="M2242.1 1723.67 2262.8 1752.43 2242 1781.14 2275.6 1770.23 2296.33 1799 2296.39 1763.49 2330 1752.56 2296.44 1741.52 2296.48 1706 2275.68 1734.69 2242.1 1723.67Z" fill="#297B52" fill-rule="evenodd"/><path d="M2134.63 1097 2203.5 1047.9 2272.45 1096.96 2246.12 1017.55 2315 968.405 2229.85 968.427 2203.47 889 2177.18 968.417 2092 968.476 2160.9 1017.54 2134.63 1097Z" fill="#F2F2F2" fill-rule="evenodd"/><path d="M2481.82 1341 2551 1292.14 2620.26 1340.96 2593.81 1261.93 2663 1213.02 2577.47 1213.04 2550.97 1134 2524.57 1213.03 2439 1213.09 2508.21 1261.92 2481.82 1341Z" fill="#F2F2F2" fill-rule="evenodd"/><path d="M1774.82 1341 1844 1292.14 1913.26 1340.96 1886.81 1261.93 1956 1213.02 1870.47 1213.04 1843.97 1134 1817.57 1213.03 1732 1213.09 1801.21 1261.92 1774.82 1341Z" fill="#F2F2F2" fill-rule="evenodd"/><path d="M2272.37 1418 2203.5 1466.86 2134.55 1418.04 2160.88 1497.06 2092 1545.98 2177.15 1545.95 2203.53 1625 2229.82 1545.97 2315 1545.91 2246.1 1497.08 2272.37 1418Z" fill="#F2F2F2" fill-rule="evenodd"/></g></svg>
