<svg width="2339" height="1560" xmlns="http://www.w3.org/2000/svg" xmlns:xlink="http://www.w3.org/1999/xlink" xml:space="preserve" overflow="hidden"><g transform="translate(-1025 -456)"><rect x="1025.5" y="456.5" width="2338" height="1559" stroke="#000000" stroke-width="1.14583" stroke-miterlimit="8" fill="#F2F2F2"/><rect x="1025" y="976" width="2338" height="520" fill="#002D56"/><path d="M1386 1112.25 1537.6 1132.35 1596 991 1654.4 1132.35 1806 1112.25 1712.8 1233.5 1806 1354.75 1654.4 1334.65 1596 1476 1537.6 1334.65 1386 1354.75 1479.2 1233.5Z" fill="#F2F2F2" fill-rule="evenodd"/><path d="M1336 758.311 1429.45 749.83 1466 659 1502.55 749.83 1596 758.311 1525.14 822.927 1546.34 918.999 1466 868.104 1385.66 918.999 1406.86 822.927Z" fill="#002D56" fill-rule="evenodd"/><path d="M1076 580.311 1169.45 571.831 1206 481 1242.55 571.831 1336 580.311 1265.14 644.928 1286.34 741 1206 690.104 1125.66 741 1146.86 644.928Z" fill="#002D56" fill-rule="evenodd"/><path d="M1336 1628.31 1429.45 1619.83 1466 1529 1502.55 1619.83 1596 1628.31 1525.14 1692.93 1546.34 1789 1466 1738.1 1385.66 1789 1406.86 1692.93Z" fill="#002D56" fill-rule="evenodd"/><path d="M1074 1824.93 1167.45 1816.48 1204 1726 1240.55 1816.48 1334 1824.93 1263.14 1889.3 1284.34 1985 1204 1934.3 1123.66 1985 1144.86 1889.3Z" fill="#002D56" fill-rule="evenodd"/></g></svg>
