<svg width="2339" height="1560" xmlns="http://www.w3.org/2000/svg" xmlns:xlink="http://www.w3.org/1999/xlink" xml:space="preserve" overflow="hidden"><defs><clipPath id="clip0"><rect x="1031" y="458" width="2339" height="1560"/></clipPath></defs><g clip-path="url(#clip0)" transform="translate(-1031 -458)"><rect x="1031.5" y="458.5" width="2338" height="1559" stroke="#000000" stroke-width="1.14583" stroke-miterlimit="8" fill="#EAAB22"/><rect x="1615" y="458" width="1170" height="1559" fill="#081F40"/><rect x="1031" y="458" width="493" height="1559" fill="#C21F32"/><rect x="2876" y="458" width="493" height="1559" fill="#C21F32"/><path d="M2294.39 730.435 2338.42 743.896 2365.48 704.028 2365.63 752.215 2409.65 765.675 2365.72 781.996 2365.86 830.183 2338.56 792.082 2294.62 808.404 2321.69 768.535Z" fill="#F2F2F2" fill-rule="evenodd"/><path d="M2440.58 781.045 2478.75 806.79 2516.28 776.577 2502.33 822.701 2540.5 848.446 2493.71 851.207 2479.76 897.331 2464.8 852.913 2418.01 855.675 2455.55 825.462Z" fill="#F2F2F2" fill-rule="evenodd"/><path d="M2565.33 872.458 2594.3 908.238 2639.03 890.321 2612.21 930.351 2641.18 966.13 2595.63 955.09 2568.8 995.12 2567.48 948.267 2521.92 937.228 2566.66 919.311Z" fill="#F2F2F2" fill-rule="evenodd"/><path d="M2658.65 996.384 2675.15 1039.37 2723.23 1036.15 2685.35 1065.93 2701.84 1108.91 2661.93 1084.33 2624.05 1114.12 2637.27 1069.15 2597.35 1044.57 2645.43 1041.35Z" fill="#F2F2F2" fill-rule="evenodd"/><path d="M2710.23 1142.42 2713.44 1188.34 2760.36 1199.32 2715.42 1216.73 2718.64 1262.66 2687.65 1227.48 2642.72 1244.89 2668.51 1205.75 2637.52 1170.58 2684.44 1181.56Z" fill="#F2F2F2" fill-rule="evenodd"/><path d="M2716.48 1297.12 2706.13 1341.98 2747.79 1366.2 2699.73 1369.7 2689.37 1414.56 2670.02 1371.87 2621.96 1375.38 2658.07 1345.49 2638.72 1302.79 2680.38 1327.01Z" fill="#F2F2F2" fill-rule="evenodd"/><path d="M2676.89 1446.76 2653.87 1486.63 2686.63 1521.97 2639.64 1511.27 2616.62 1551.14 2610.6 1504.66 2563.62 1493.96 2606.89 1475.93 2600.87 1429.45 2633.62 1464.79Z" fill="#F2F2F2" fill-rule="evenodd"/><path d="M2594.98 1578.05 2561.31 1609.45 2582.31 1652.82 2540.5 1628.85 2506.83 1660.25 2514.67 1614.04 2472.86 1590.07 2519.51 1585.48 2527.34 1539.27 2548.34 1582.64Z" fill="#F2F2F2" fill-rule="evenodd"/><path d="M2478.06 1679.35 2436.68 1699.53 2444.07 1747.15 2411.1 1712 2369.72 1732.19 2390.73 1690.28 2357.76 1655.14 2403.71 1664.39 2424.71 1622.48 2432.11 1670.1Z" fill="#F2F2F2" fill-rule="evenodd"/><path d="M2336.52 1741.68 2291.04 1748.88 2284.19 1796.58 2262.94 1753.33 2217.47 1760.54 2249.8 1726.6 2228.55 1683.36 2269.79 1705.64 2302.13 1671.7 2295.28 1719.4Z" fill="#F2F2F2" fill-rule="evenodd"/><path d="M2182.53 1760.53 2137.06 1753.33 2115.81 1796.58 2108.96 1748.88 2063.49 1741.68 2104.73 1719.4 2097.88 1671.7 2130.21 1705.64 2171.45 1683.36 2150.2 1726.6Z" fill="#F2F2F2" fill-rule="evenodd"/><path d="M2030.28 1732.19 1988.9 1712 1955.93 1747.15 1963.32 1699.53 1921.94 1679.35 1967.89 1670.1 1975.29 1622.48 1996.29 1664.39 2042.24 1655.14 2009.27 1690.28Z" fill="#F2F2F2" fill-rule="evenodd"/><path d="M1893.17 1660.25 1859.5 1628.85 1817.7 1652.82 1838.69 1609.45 1805.02 1578.05 1851.67 1582.64 1872.66 1539.27 1880.49 1585.48 1927.14 1590.07 1885.34 1614.04Z" fill="#F2F2F2" fill-rule="evenodd"/><path d="M1783.38 1551.14 1760.36 1511.27 1713.37 1521.97 1746.13 1486.63 1723.11 1446.76 1766.38 1464.79 1799.13 1429.45 1793.12 1475.93 1836.38 1493.96 1789.4 1504.66Z" fill="#F2F2F2" fill-rule="evenodd"/><path d="M1710.63 1414.56 1700.27 1369.7 1652.21 1366.2 1693.87 1341.98 1683.52 1297.12 1719.62 1327.01 1761.28 1302.79 1741.93 1345.49 1778.04 1375.38 1729.98 1371.87Z" fill="#F2F2F2" fill-rule="evenodd"/><path d="M1681.37 1262.66 1684.58 1216.73 1639.64 1199.32 1686.56 1188.34 1689.77 1142.42 1715.56 1181.56 1762.48 1170.58 1731.5 1205.75 1757.28 1244.89 1712.35 1227.48Z" fill="#F2F2F2" fill-rule="evenodd"/><path d="M1698.16 1108.91 1714.66 1065.93 1676.77 1036.15 1724.85 1039.37 1741.35 996.384 1754.57 1041.35 1802.65 1044.57 1762.73 1069.15 1775.95 1114.12 1738.07 1084.33Z" fill="#F2F2F2" fill-rule="evenodd"/><path d="M1758.82 966.13 1787.79 930.351 1760.97 890.321 1805.7 908.239 1834.67 872.459 1833.34 919.312 1878.08 937.229 1832.52 948.268 1831.2 995.121 1804.37 955.09Z" fill="#F2F2F2" fill-rule="evenodd"/><path d="M1859.5 848.446 1897.66 822.701 1883.71 776.577 1921.25 806.79 1959.42 781.045 1944.45 825.463 1981.99 855.675 1935.2 852.914 1920.24 897.331 1906.29 851.207Z" fill="#F2F2F2" fill-rule="evenodd"/><path d="M1990.34 765.675 2034.37 752.215 2034.52 704.027 2061.58 743.896 2105.61 730.435 2078.31 768.535 2105.38 808.403 2061.44 792.082 2034.14 830.183 2034.28 781.996Z" fill="#F2F2F2" fill-rule="evenodd"/><path d="M2120 714.984 2174.6 714.984 2191.51 738.163 2164.26 747.134 2120 714.984M2277 714.984 2222.4 714.984 2205.49 738.163 2232.74 747.134 2277 714.984M2198.57 658 2215.13 709.662 2198.42 732.833 2181.87 709.819 2198.57 658M2246.62 807 2202.82 775.376 2202.82 746.801 2229.91 755.726 2246.62 807M2150.49 807 2194.29 775.376 2194.29 746.801 2167.21 755.726 2150.49 807" fill="#D69A2D" fill-rule="evenodd"/><path d="M2105.98 1052.43C2106.2 1053.71 2104.24 1057.76 2101.6 1062.39 2101.94 1061.89 2098.69 1067.29 2095.46 1073.02 2092.39 1078.59 2089.49 1084.49 2089.49 1084.49L2085.74 1090.9C2081.14 1099.51 2077.05 1108.1 2073.8 1117.04 2072.11 1121.94 2070.57 1126.83 2069.37 1131.72 2069.37 1131.89 2069.2 1131.89 2069.03 1132.23 2067.16 1133.75 2063.06 1136.11 2060.17 1130.2 2060.17 1130.2 2060 1129.69 2060 1129.36 2061.37 1124.13 2062.89 1118.9 2064.77 1113.84 2068.35 1104.4 2072.62 1095.29 2077.39 1086.52L2081.82 1078.76C2081.82 1078.76 2090.17 1066.45 2097.34 1059.02 2103.39 1052.61 2105.77 1051.14 2105.98 1052.43Z" fill="#FFFFFF" fill-rule="evenodd"/><path d="M2367.38 1226.51C2368.19 1225.67 2369.33 1226.01 2371.45 1226.51 2372.1 1228.54 2372.26 1229.88 2371.45 1230.73 2370.96 1231.23 2369.5 1232.76 2368.19 1233.94 2366.89 1235.29 2365.59 1236.47 2365.59 1236.47 2365.59 1236.47 2364.29 1237.65 2362.82 1238.83 2361.51 1240.18 2359.56 1241.19 2358.91 1241.7 2357.77 1242.37 2356.63 1241.87 2355 1240.69 2355.16 1238.33 2355.16 1237.15 2355.98 1236.47 2356.47 1236.13 2357.94 1235.45 2359.23 1234.11 2360.54 1232.93 2361.84 1231.92 2361.84 1231.92 2361.84 1231.92 2362.98 1230.9 2364.29 1229.72 2365.42 1228.37 2366.89 1227.02 2367.38 1226.51Z" fill="#FFFFFF" fill-rule="evenodd"/><path d="M2106.52 1052.34C2106.31 1051.04 2103.93 1052.53 2097.88 1058.99 2090.72 1066.48 2082.38 1078.89 2082.38 1078.89L2077.95 1086.72C2073.18 1095.55 2068.92 1104.74 2065.34 1114.26 2063.47 1119.36 2061.94 1124.64 2060.58 1129.9 2060.58 1130.24 2060.75 1130.75 2060.75 1130.75 2063.64 1136.71 2067.73 1134.33 2069.6 1132.8 2069.77 1132.46 2069.94 1132.46 2069.94 1132.28 2071.14 1127.35 2072.67 1122.43 2074.37 1117.49 2077.61 1108.48 2081.7 1099.81 2086.3 1091.13L2090.04 1084.67C2090.04 1084.67 2092.94 1078.72 2096.01 1073.1 2099.24 1067.33 2102.48 1061.88 2102.14 1062.39 2104.78 1057.72 2106.73 1053.64 2106.52 1052.34ZM2151.3 979.66C2154.94 978.809 2158.52 978.724 2161.92 979.744 2169.24 982.123 2176.06 987.059 2182.36 992.667 2195.14 1004.06 2205.53 1017.83 2219.66 1029.58 2228 1035.52 2235.84 1041.31 2243.34 1047.26 2246.4 1050.49 2249.47 1053.55 2252.03 1056.27 2254.58 1058.82 2256.28 1061.37 2257.64 1063.07 2259.01 1064.78 2259.85 1065.63 2259.85 1065.63 2261.39 1067.33 2262.93 1068.86 2264.29 1070.72L2268.89 1076.85C2275.19 1086.37 2280.3 1096.74 2283.37 1107.97 2290.01 1130.41 2290.52 1154.05 2286.26 1177.35 2279.62 1213.24 2264.46 1247.25 2245.55 1279.04 2243.17 1279.55 2240.78 1280.06 2238.56 1280.57 2233.46 1281.94 2228.34 1283.47 2223.41 1285 2226.65 1280.23 2228.86 1274.8 2231.58 1269.69 2234.14 1264.25 2237.04 1258.98 2238.9 1253.2L2245.04 1236.37 2249.29 1218.68C2252.03 1206.94 2253.38 1195.21 2254.24 1183.13 2254.75 1177.01 2254.75 1171.06 2254.58 1164.93L2254.24 1158.65 2253.55 1153.88C2253.55 1153.88 2252.36 1146.91 2249.98 1140.45 2247.6 1133.82 2244.02 1128.03 2244.19 1128.54 2240.95 1123.79 2237.38 1120.89 2236.18 1120.72 2235.5 1120.55 2235.33 1121.24 2236.01 1122.77 2236.52 1124.47 2237.72 1126.84 2239.25 1130.75 2242.99 1140.11 2244.02 1153.88 2244.02 1153.88 2244.36 1157.12 2244.7 1159.33 2244.87 1163.24 2245.21 1169.02 2245.21 1174.8 2244.87 1180.76 2244.02 1192.32 2242.65 1204.22 2240.1 1215.62L2236.18 1232.62C2234.31 1238.23 2232.09 1243.67 2230.22 1249.12L2224.14 1262.84 2222.06 1259.48C2208.94 1239.86 2177.23 1201.03 2159.9 1203.13 2142.49 1205.23 2112.44 1238.71 2104.02 1263.59L2103.65 1265.27 2087.32 1257.45C2086.8 1257.28 2086.3 1257.28 2085.79 1257.11 2073.86 1247.08 2063.3 1235.69 2054.95 1222.75 2043.55 1204.39 2037.58 1183.81 2039.29 1162.56 2039.8 1157.12 2040.64 1151.67 2041.5 1146.4 2042.69 1141.13 2043.55 1135.69 2045.08 1130.41L2047.8 1120.72C2048.31 1118.51 2049.16 1116.3 2049.85 1114.26 2049.85 1114.26 2050.53 1111.88 2051.55 1108.31 2052.4 1104.74 2053.94 1100.15 2055.46 1095.55 2057.34 1089.94 2059.38 1084.5 2060.75 1081.27 2063.99 1074.46 2067.39 1067.84 2071.14 1061.37 2080.33 1046.58 2090.89 1032.29 2102.14 1018.86 2113.55 1005.59 2125.98 992.667 2140.29 984.17 2143.95 982.127 2147.66 980.511 2151.3 979.66Z" fill="#FFFFFF" fill-rule="evenodd"/><path d="M2438.64 1050.02C2448.56 1050.36 2458.83 1051.04 2467.38 1054.28 2476.11 1057.51 2481.41 1064.15 2481.93 1073.19 2482.1 1075.4 2482.1 1077.79 2481.76 1080.17L2481.41 1082.9 2481.41 1083.41 2481.07 1085.62C2480.73 1086.98 2480.39 1088.35 2480.04 1089.88 2480.04 1089.88 2478.84 1096.18 2477.13 1102.31 2475.26 1108.62 2473.2 1114.58 2473.54 1114.07 2470.46 1124.46 2469.61 1131.78 2478.33 1116.46 2478.84 1115.6 2479.35 1114.75 2479.87 1113.9 2482.61 1115.26 2485.17 1116.97 2487.23 1119.18 2491.84 1123.78 2495.1 1129.91 2496.8 1136.55 2498.86 1143.37 2499.55 1150.35 2499.72 1157.85 2500.06 1165.34 2500.06 1172.66 2499.89 1180.16 2499.04 1209.63 2494.07 1239.78 2480.73 1265.67 2480.22 1266.7 2479.53 1267.55 2479.01 1268.57 2472.85 1268.91 2466.7 1269.42 2460.71 1270.44 2443.09 1273.17 2426.32 1278.11 2409.91 1283.38 2424.1 1271.63 2436.76 1258.01 2447.2 1242.84 2450.44 1238.59 2453.01 1233.82 2455.92 1229.22 2457.29 1227.18 2458.49 1224.45 2459.68 1221.9 2460.88 1219.34 2462.25 1216.79 2463.11 1214.06 2465.16 1207.41 2465.5 1206.39 2466.18 1203.84L2467.38 1196.51C2467.38 1196.51 2467.89 1193.79 2467.89 1189.87 2468.07 1185.96 2468.24 1180.85 2468.24 1175.9 2468.07 1166.02 2468.24 1156.66 2468.07 1157.51 2468.07 1153.42 2468.07 1149.84 2468.24 1147.12 2468.07 1144.22 2467.89 1142.17 2467.38 1141.32 2466.53 1139.62 2463.45 1143.03 2460.2 1155.97 2458.15 1163.81 2456.95 1173.17 2455.75 1180.33 2455.06 1183.91 2454.55 1186.98 2454.21 1189.19 2453.87 1191.23 2453.53 1192.6 2453.53 1192.6L2452.33 1199.07C2452.16 1200.09 2451.99 1201.11 2451.65 1202.13L2450.44 1206.05C2449.42 1210.82 2447.03 1214.91 2445.15 1219.34L2437.1 1232.29C2425.81 1249.15 2411.78 1264.31 2395.7 1276.4 2379.1 1289.01 2359.95 1298.38 2339.93 1304 2340.28 1302.98 2340.45 1301.96 2340.45 1301.1 2340.79 1297.53 2339.59 1294.12 2337.19 1291.74 2336 1290.55 2334.29 1289.18 2333.43 1288.67 2332.57 1287.99 2331.72 1287.48 2330.69 1286.96 2328.81 1285.94 2326.93 1285.09 2325.05 1284.41 2317.52 1281.51 2310.68 1280.15 2303.84 1278.28 2301.1 1277.59 2298.36 1277.25 2295.62 1276.74 2298.36 1275.55 2301.1 1274.19 2304.01 1273 2306.4 1271.97 2308.62 1270.78 2311.02 1269.76 2311.02 1269.76 2317.01 1266.35 2322.65 1262.78 2328.3 1259.37 2333.61 1255.63 2333.09 1255.97 2338.56 1251.88 2342.5 1248.29 2340.96 1247.95 2339.93 1247.61 2336.85 1248.46 2330.86 1251.19 2318.2 1256.31 2307.77 1260.56 2307.77 1260.56 2305.2 1261.93 2302.63 1263.29 2299.9 1264.48 2295.28 1266.35 2290.66 1268.74 2286.05 1270.27L2282.79 1271.46C2295.79 1260.91 2307.77 1249.32 2319.4 1237.56 2325.73 1231.26 2331.89 1224.79 2338.05 1218.15L2353.79 1200.94 2362 1190.38C2366.1 1185.27 2370.04 1179.99 2369.53 1180.33 2373.46 1174.88 2375.86 1170.11 2374.32 1170.28 2373.29 1170.28 2370.73 1172.15 2365.76 1176.58 2357.9 1183.4 2347.46 1193.62 2347.46 1193.62L2341.47 1200.26C2336.17 1206.05 2330.69 1212.01 2325.05 1217.98L2285.01 1256.82C2281.25 1260.05 2277.49 1263.46 2273.55 1266.53 2270.82 1268.57 2267.91 1270.61 2265 1272.32 2280.57 1244.21 2292.89 1214.23 2299.22 1182.04 2301.78 1168.92 2302.98 1155.29 2302.46 1141.49 2311.53 1126.16 2321.8 1111.69 2333.78 1098.56 2347.46 1083.92 2363.37 1071.31 2381.16 1062.62 2398.96 1053.94 2418.8 1049.68 2438.64 1050.02ZM2367.47 1227.01C2366.96 1227.52 2365.42 1228.88 2364.23 1230.24 2362.86 1231.43 2361.65 1232.46 2361.65 1232.46 2361.65 1232.46 2360.29 1233.48 2358.92 1234.67 2357.56 1236.03 2356.01 1236.71 2355.5 1237.05 2354.64 1237.74 2354.64 1238.93 2354.47 1241.31 2356.18 1242.5 2357.38 1243.01 2358.58 1242.33 2359.26 1241.82 2361.31 1240.8 2362.69 1239.44 2364.23 1238.25 2365.59 1237.05 2365.59 1237.05 2365.59 1237.05 2366.96 1235.86 2368.33 1234.5 2369.7 1233.31 2371.24 1231.77 2371.75 1231.26 2372.6 1230.41 2372.43 1229.05 2371.75 1227.01 2369.53 1226.5 2368.33 1226.16 2367.47 1227.01Z" fill="#FFFFFF" fill-rule="evenodd"/><path d="M1934.31 1112.24C1940.99 1111.77 1947.81 1112.03 1954.53 1112.7 1967.82 1113.89 1981.1 1116.78 1993.88 1120.51 2006.14 1124.07 2018.06 1128.49 2029.3 1133.57 2027.43 1141.38 2025.89 1149.52 2024.88 1157.66 2024.54 1163.6 2024.02 1169.71 2024.37 1175.82 2025.05 1182.09 2025.22 1188.37 2027.09 1194.14L2029.47 1203.13 2032.88 1211.62C2034.92 1217.55 2038.33 1222.64 2041.22 1227.9 2046.85 1237.57 2053.83 1246.39 2061.67 1254.36 2060.98 1254.36 2060.47 1254.36 2059.96 1254.53 2059.45 1254.53 2058.94 1255.21 2058.77 1255.21 2055.03 1259.11 2055.36 1262.17 2056.55 1264.21 2057.75 1266.41 2059.79 1267.6 2061.32 1268.44 2061.67 1268.78 2061.84 1268.61 2062.18 1268.61 2068.82 1267.6 2075.46 1268.44 2082.27 1270.65 2093.85 1274.72 2104.75 1282.36 2115.99 1290.5 2121.45 1294.4 2127.41 1298.81 2133.88 1302.38 2140.18 1305.94 2146.99 1309.16 2154.83 1310.86 2158.75 1311.71 2163.18 1312.21 2167.77 1311.54L2178 1310.01C2184.81 1308.83 2191.79 1307.81 2198.77 1306.45 2202.18 1305.77 2205.75 1304.92 2209.33 1303.9 2213.25 1302.89 2216.31 1301.7 2219.55 1300.68 2226.02 1298.47 2232.49 1296.44 2238.96 1294.75 2251.91 1291.35 2265.02 1288.98 2277.97 1289.15 2284.44 1289.15 2290.74 1289.82 2297.05 1291.01 2298.57 1291.35 2300.11 1291.69 2301.65 1292.2L2306.75 1293.38C2310.16 1294.23 2313.39 1295.08 2316.3 1296.1 2319.36 1296.95 2322.08 1298.13 2324.46 1299.49L2326 1300.34 2325.83 1300.68C2325.66 1301.19 2325.32 1301.7 2324.98 1302.21 2324.29 1303.4 2323.45 1304.58 2322.59 1305.77 2320.72 1308.15 2318.51 1310.52 2316.12 1313.06 2306.92 1323.92 2298.07 1333.77 2288.36 1343.26 2284.95 1346.66 2281.21 1349.88 2277.63 1353.28L2276.95 1353.78C2276.6 1354.12 2276.09 1354.63 2275.58 1354.97L2275.42 1355.14 2271.33 1358.7C2271.16 1358.87 2270.99 1358.87 2270.82 1359.04L2268.94 1360.57 2269.11 1360.4C2254.98 1371.77 2239.65 1381.43 2222.96 1387.2 2210.69 1391.62 2197.75 1393.99 2184.64 1393.99 2171.69 1394.16 2158.58 1392.29 2146.82 1387.54 2134.9 1382.96 2124.17 1375.67 2114.81 1366.68 2105.26 1357.68 2097.6 1346.83 2089.76 1335.63 2087.9 1332.91 2086.02 1330.03 2084.32 1327.15L2081.59 1323.07 2079.89 1320.19 2076.48 1314.43C2076.48 1314.43 2075.12 1312.38 2073.08 1309.33 2070.86 1305.77 2067.97 1301.7 2065.07 1297.8 2059.11 1289.82 2054.51 1282.02 2054.86 1282.87 2050.6 1276.42 2048.72 1270.65 2047.36 1269.47 2047.02 1269.13 2046.85 1269.13 2046.51 1269.3 2040.71 1267.43 2034.75 1265.39 2028.97 1263.19 2014.48 1257.76 2000.18 1251.48 1986.21 1244.53 1979.23 1241.13 1972.25 1237.57 1965.44 1234.01L1955.21 1228.41C1955.21 1228.41 1949.25 1225.53 1943.29 1222.64 1937.5 1219.59 1931.71 1216.7 1932.22 1217.04 1922.51 1212.46 1915.36 1210.59 1929.15 1221.45 1937.16 1228.07 1949.43 1236.04 1949.43 1236.04L1958.45 1240.96C1965.44 1244.87 1972.59 1248.42 1979.74 1251.99 1994.22 1259.28 2009.04 1265.73 2024.2 1271.5 2031.18 1274.21 2038.5 1276.76 2045.65 1278.96 2045.99 1281 2046.51 1283.21 2047.36 1285.75 2048.04 1287.95 2048.89 1290.16 2049.91 1292.37 2037.31 1290.5 2024.71 1288.12 2012.44 1285.07 2007.5 1284.05 2002.91 1282.36 1998.14 1280.83L1984 1276.08 1970.54 1269.64C1966.11 1267.6 1961.52 1265.56 1957.6 1262.85 1949.25 1257.93 1941.59 1251.48 1934.27 1245.04 1929.84 1240.79 1929.32 1240.11 1927.63 1238.42 1926.09 1236.72 1924.56 1235.19 1923.03 1233.5 1923.03 1233.5 1921.49 1231.8 1918.94 1229.25 1917.74 1227.9 1916.21 1226.37 1914.68 1224.68 1913.32 1222.98 1911.78 1221.11 1910.25 1219.25 1908.89 1217.38 1907.35 1215.68 1905.99 1213.99 1904.8 1212.12 1903.61 1210.42 1902.58 1209.07 1901.91 1207.88 1901.4 1207.03 1900.88 1206.35 1896.8 1199.06 1893.56 1191.25 1891.17 1183.28 1887.42 1170.05 1886.75 1156.14 1890.5 1143.24 1892.54 1136.8 1894.75 1130.86 1899.18 1126.27 1903.27 1121.7 1908.72 1118.13 1914.85 1116.1 1921.06 1113.89 1927.62 1112.7 1934.31 1112.24Z" fill="#FFFFFF" fill-rule="evenodd"/><path d="M1933.72 1276.47C1940.28 1277 1946.81 1277.85 1953.29 1278.27 1954.31 1278.27 1955.51 1278.44 1956.53 1278.61 1963.01 1281.85 1969.49 1284.58 1975.97 1287.81 1980.92 1290.2 1986.03 1291.39 1991.15 1293.26 1996.26 1294.96 2001.38 1297 2006.49 1298.19 2023.21 1302.46 2040.26 1305.52 2057.15 1307.73 2057.32 1307.9 2057.32 1308.07 2057.49 1308.24 2059.2 1311.48 2060.39 1314.2 2061.41 1316.24 2062.43 1318.46 2062.95 1319.66 2062.95 1319.66L2066.52 1325.95 2072.32 1335.15C2074.2 1338.04 2076.25 1340.94 2078.12 1343.83L2076.08 1344.34 2068.57 1345.02C2063.63 1345.7 2058.51 1345.02 2053.57 1345.19 2051.18 1345.19 2048.62 1344.85 2046.23 1344.68 2046.23 1344.68 2039.58 1344.68 2033.1 1344.17 2026.62 1344 2020.14 1343.15 2020.65 1343.32 2010.08 1342.64 2002.57 1343.32 2019.46 1348.6 2029.35 1351.83 2044.19 1354.05 2044.19 1354.05 2047.26 1354.39 2050.15 1354.73 2053.23 1354.73 2058.51 1354.73 2063.8 1355.24 2069.26 1354.56L2077.44 1353.88C2079.66 1353.54 2081.88 1352.85 2084.09 1352.34 2088.35 1358.31 2092.96 1364.26 2098.08 1370.05 2099.27 1371.42 2100.63 1372.78 2102 1374.14 2092.62 1379.25 2082.73 1383.67 2072.49 1387.25 2064.14 1390.15 2055.61 1392.53 2046.92 1394.57 2042.48 1395.59 2038.22 1396.61 2033.78 1397.47L2028.66 1398.49 2024.06 1399.17C2024.06 1399.17 2017.58 1400.7 2011.27 1402.06 2004.8 1403.42 1998.48 1404.44 1999 1404.61 1988.59 1406.66 1981.77 1409.56 1999.34 1409.9 2009.74 1410.24 2024.4 1408.88 2024.4 1408.88 2027.48 1408.37 2030.37 1407.86 2033.27 1407.35 2056.29 1402.74 2079.49 1396.44 2100.8 1385.54 2085.63 1398.66 2068.74 1409.73 2050.66 1417.73 2033.44 1425.39 2014.86 1430.16 1996.6 1430.84 1992 1431.35 1987.57 1430.5 1983.14 1430.33 1978.52 1429.48 1974.09 1428.8 1969.66 1427.61 1964.2 1425.9 1963.18 1425.73 1960.97 1424.88L1954.83 1422.49C1954.83 1422.49 1952.43 1421.81 1949.03 1420.45 1945.44 1419.26 1940.84 1417.56 1936.23 1415.85 1935.38 1415.68 1934.53 1415.34 1933.68 1415L1946.81 1415C1946.81 1415 1959.94 1413.3 1959.43 1413.13 1964.72 1411.94 1967.95 1409.9 1959.43 1407.86 1954.31 1406.32 1947.32 1405.47 1947.32 1405.47L1925.32 1405.47C1919.86 1405.64 1914.41 1405.3 1910.31 1404.95 1906.22 1404.78 1903.32 1404.61 1903.15 1404.61 1903.15 1404.61 1902.98 1404.78 1902.98 1404.95 1890.01 1401.72 1877.23 1400.02 1865.29 1396.61 1850.96 1392.87 1838.35 1385.37 1829.3 1374.14 1820.1 1362.9 1812.93 1349.62 1814.13 1336.17 1815.15 1322.89 1824.53 1311.48 1835.78 1303.31 1847.21 1294.96 1860.35 1289 1873.64 1284.75 1886.95 1280.49 1900.59 1277.59 1913.89 1276.57 1920.54 1275.72 1927.15 1275.93 1933.72 1276.47Z" fill="#FFFFFF" fill-rule="evenodd"/><path d="M2484.98 1282 2493.52 1282.17C2495.74 1282.34 2497.97 1282.17 2500.19 1282.51 2500.19 1282.51 2502.41 1282.68 2505.83 1283.02 2507.54 1283.19 2509.59 1283.19 2511.81 1283.53 2513.87 1284.04 2516.09 1284.72 2518.48 1285.23 2523.09 1286.09 2527.37 1287.79 2530.62 1288.98 2531.99 1289.49 2533.01 1289.83 2533.87 1290.17 2543.1 1294.77 2551.82 1300.57 2559.51 1307.55 2570.28 1317.25 2579.34 1329.35 2583.27 1342.81 2587.21 1356.26 2584.3 1370.57 2575.75 1381.81 2571.65 1387.43 2566.52 1392.71 2560.71 1396.63L2556.44 1399.87 2551.64 1402.42C2549.59 1403.61 2547.2 1404.64 2544.98 1405.66 2542.93 1406 2535.4 1406.85 2528.06 1407.7 2519.34 1408.04 2510.78 1408.04 2510.78 1408.04 2510.78 1408.04 2500.19 1409.06 2500.53 1409.23 2496.42 1409.91 2493.01 1411.62 2499.85 1414.51 2502.41 1415.54 2505.49 1416.39 2507.54 1417.07 2504.97 1417.58 2502.41 1418.1 2499.85 1418.78 2492.66 1420.31 2485.49 1422.18 2478.3 1424.39 2471.47 1426.44 2464.45 1428.48 2457.79 1430.52 2451.46 1432.23 2445.31 1433.93 2439.16 1435.46 2416.08 1439.21 2392.31 1440.92 2370.26 1435.8 2347.86 1430.01 2326.15 1419.12 2311.11 1401.91 2306.49 1396.8 2302.56 1391.01 2298.8 1384.88 2305.12 1388.96 2311.96 1392.55 2318.97 1395.61 2325.3 1398.68 2332.13 1400.72 2338.81 1402.93 2345.64 1404.46 2352.82 1406.17 2359.49 1406.51L2380.17 1408.72C2387.01 1409.23 2393.85 1409.57 2400.69 1409.91L2432.32 1411.62C2432.32 1411.62 2459.33 1411.45 2458.3 1411.28 2469.08 1410.59 2476.08 1408.89 2458.82 1406 2448.56 1403.95 2434.02 1402.25 2434.02 1402.25L2403.42 1400.55 2382.57 1399.36 2362.22 1397.14C2355.22 1396.8 2348.88 1395.27 2342.39 1393.91 2335.89 1391.86 2329.57 1389.99 2323.42 1387.26 2311.11 1381.81 2299.48 1374.83 2289.22 1366.31L2287 1364.09C2289.39 1362.05 2291.78 1359.84 2294.01 1357.62 2304.44 1347.75 2314.18 1337.18 2323.42 1326.46 2324.96 1324.75 2326.49 1322.88 2328.2 1321.18 2333.16 1320.16 2338.12 1319.13 2342.91 1317.76 2366.5 1313 2389.06 1304.65 2411.12 1297.67 2427.53 1292.39 2443.77 1287.45 2460.18 1284.55 2464.28 1284.04 2468.56 1283.36 2472.67 1282.85L2484.98 1282Z" fill="#FFFFFF" fill-rule="evenodd"/><path d="M2274.83 1374C2276.18 1376.04 2277.37 1377.74 2278.73 1379.78L2288.25 1394.93 2293.51 1402.94 2299.46 1410.26C2306.76 1418.77 2315.42 1426.09 2324.94 1432.05 2326.3 1436.98 2327.49 1441.93 2328.33 1447.03 2329.7 1459.29 2329.36 1472.06 2323.58 1483.11 2321.2 1487.89 2317.98 1492.31 2314.24 1496.56L2299.96 1502.36C2275.34 1511.2 2249.17 1516.15 2222.84 1519.55L2215.36 1520.57C2215.36 1520.57 2208.91 1521.59 2202.45 1522.78 2196 1523.63 2189.71 1524.65 2190.23 1524.65 2179.69 1526.52 2172.72 1528.91 2190.23 1530.1 2195.32 1530.27 2201.61 1530.44 2206.7 1530.44 2211.79 1530.27 2215.2 1530.1 2215.2 1530.1L2224.2 1529.08C2247.47 1526.01 2270.92 1521.59 2293.68 1514.44 2272.1 1529.08 2246.46 1539.12 2219.78 1545.6 2205.69 1549 2191.07 1551.55 2176.63 1551.89 2162.37 1552.74 2148.43 1548.49 2134.84 1542.87 2109.36 1532.32 2085.41 1517.34 2065.7 1498.61 2081.33 1506.27 2096.95 1513.59 2113.27 1519.72 2115.64 1520.74 2118.02 1521.76 2120.57 1522.44 2120.57 1522.44 2127.02 1524.31 2133.48 1526.01 2139.94 1527.89 2146.56 1528.57 2145.88 1528.4 2156.93 1529.93 2163.72 1529.42 2147.58 1523.29 2144.87 1522.44 2142.31 1521.42 2139.94 1520.57 2137.22 1519.38 2134.84 1518.19 2132.63 1517.17 2128.05 1515.29 2124.99 1513.93 2124.99 1513.93 2122.1 1513.08 2119.38 1511.88 2116.67 1510.86 2097.81 1503.72 2079.63 1494.86 2061.45 1485.85L2048.54 1479.2C2044.29 1473.08 2040.72 1466.77 2038.52 1460.14 2035.8 1452.98 2035.46 1445.67 2036.65 1438.51 2042.76 1436.64 2048.88 1434.43 2055 1431.88 2078.78 1421.49 2100.52 1406.68 2119.22 1388.81 2123.8 1392.04 2128.39 1394.93 2133.31 1397.5 2144.18 1402.94 2156.42 1406.34 2168.3 1407.7 2167.46 1409.91 2166.1 1412.65 2164.91 1415.37 2163.21 1418.6 2161.68 1421.66 2160.33 1423.87 2158.96 1426.09 2157.95 1427.46 2157.95 1427.46 2157.95 1427.46 2157.09 1429.33 2156.25 1431.2 2155.56 1433.24 2154.38 1434.6 2154.55 1434.6 2153.19 1437.66 2152.68 1441.24 2158.29 1438.51 2160.16 1437.66 2162.02 1436.47 2163.38 1435.28 2164.74 1433.92 2165.59 1433.24 2165.59 1433.24 2165.59 1433.24 2166.78 1431.54 2168.3 1429.16 2169.84 1426.61 2171.54 1423.19 2173.41 1419.79 2174.93 1416.39 2176.63 1412.82 2177.65 1410.09 2177.99 1409.57 2178.16 1408.89 2178.33 1408.38 2182.24 1408.55 2186.15 1408.55 2190.05 1408.38 2190.23 1412.99 2190.23 1417.41 2190.05 1422 2190.05 1422.17 2189.88 1422.51 2189.88 1422.85L2176.97 1477.16C2175.62 1480.22 2174.59 1482.43 2174.93 1483.46 2174.93 1483.8 2175.11 1483.97 2175.45 1483.97 2176.46 1483.8 2178.84 1481.75 2183.09 1476.31 2186.32 1472.23 2189.37 1466.43 2191.41 1461.67 2192.6 1459.46 2193.28 1457.25 2193.96 1455.88 2194.47 1454.35 2194.81 1453.49 2194.81 1453.49 2195.66 1450.43 2196.17 1447.54 2196.85 1444.48 2198.38 1437.15 2199.06 1429.84 2199.57 1422.51 2199.74 1417.58 2199.91 1412.65 2199.74 1407.7 2204.32 1407.02 2208.91 1406.17 2213.49 1405.15 2213.83 1407.19 2214.35 1409.74 2214.69 1412.31 2215.53 1418.77 2215.53 1424.9 2215.53 1424.9 2215.53 1424.9 2216.73 1432.22 2216.56 1431.88 2217.07 1434.6 2218.25 1438.34 2221.82 1433.24 2223.01 1431.71 2223.69 1429.84 2224.2 1428.14 2224.88 1426.44 2225.22 1425.41 2225.22 1425.41 2225.22 1425.41 2225.05 1418.09 2224.2 1411.11 2223.69 1408.04 2223.18 1405.15 2222.67 1402.6 2242.03 1396.47 2259.36 1386.26 2274.83 1374Z" fill="#FFFFFF" fill-rule="evenodd"/><path d="M2203.81 1290.84C2194.63 1293.49 2176.06 1296.57 2158.54 1299 2143.67 1296.78 2111.48 1288.3 2112.01 1273.98 2112.64 1271.65 2143.67 1219.19 2160.65 1217.07 2177.64 1214.95 2210.24 1263.07 2217 1265.08 2208.56 1280.98 2212.25 1281.62 2203.81 1290.84" fill="#D69A2D" fill-rule="evenodd"/></g></svg>
