<svg width="2339" height="1559" xmlns="http://www.w3.org/2000/svg" xmlns:xlink="http://www.w3.org/1999/xlink" xml:space="preserve" overflow="hidden"><defs><clipPath id="clip0"><rect x="1031" y="458" width="2339" height="1559"/></clipPath></defs><g clip-path="url(#clip0)" transform="translate(-1031 -458)"><path d="M1031 458 3369 458 3369 2017 1031 2017Z" fill="#F1850F" fill-rule="evenodd"/><rect x="1031" y="458" width="1169" height="780" fill="#FFC425"/><rect x="2201" y="1237" width="1169" height="780" fill="#FFC425"/><rect x="1031" y="1142" width="2338" height="195" fill="#A60A3D"/><rect x="2114" y="458" width="195" height="1559" fill="#A60A3D"/><path d="M1031 458 1177.22 458 2200 1132.59 3222.78 458 3369 458 3369 594.991 2376.96 1249.3 3369 1903.62 3369 2017 3186.99 2017 2200 1366.02 1213.01 2017 1031 2017 1031 1903.62 2023.04 1249.3 1031 594.991 1031 458Z" fill="#A60A3D" fill-rule="evenodd"/><path d="M2163 1074.88 2190.5 1074.88 2199 1047 2207.5 1074.88 2235 1074.88 2212.75 1092.12 2221.25 1120 2199 1102.77 2176.75 1120 2185.25 1092.12 2163 1074.88Z" fill="#FFC425" fill-rule="evenodd"/><path d="M2278.23 1090.98 2299.16 1108.54 2323.41 1092.78 2312.09 1119.39 2333.02 1136.95 2305.1 1135.84 2293.79 1162.46 2287.85 1135.15 2259.93 1134.04 2284.17 1118.28 2278.23 1090.98Z" fill="#FFC425" fill-rule="evenodd"/><path d="M2355.86 1177.56 2360.66 1204.8 2389.05 1208.48 2363.63 1221.64 2368.43 1248.88 2347.92 1229.77 2322.5 1242.93 2335.24 1217.96 2314.73 1198.86 2343.12 1202.53 2355.86 1177.56Z" fill="#FFC425" fill-rule="evenodd"/><path d="M2360.6 1294.64 2346.77 1318.6 2366.15 1339.66 2338.22 1333.4 2324.39 1357.36 2320.96 1329.53 2293.02 1323.28 2318.83 1312.34 2315.4 1284.52 2334.79 1305.58 2360.6 1294.64Z" fill="#FFC425" fill-rule="evenodd"/><path d="M2289.44 1387.48 2263.77 1396.82 2265.29 1425.7 2247.9 1402.59 2222.23 1411.94 2237.15 1388.31 2219.76 1365.21 2246.37 1373.71 2261.29 1350.09 2262.82 1378.97 2289.44 1387.48Z" fill="#FFC425" fill-rule="evenodd"/><path d="M2176.19 1411.94 2150.52 1402.59 2133.12 1425.7 2134.65 1396.82 2108.98 1387.48 2135.6 1378.97 2137.12 1350.09 2152.05 1373.71 2178.66 1365.21 2161.27 1388.31 2176.19 1411.94Z" fill="#FFC425" fill-rule="evenodd"/><path d="M2074.03 1357.36 2060.2 1333.4 2032.26 1339.66 2051.65 1318.6 2037.82 1294.64 2063.63 1305.58 2083.02 1284.52 2079.58 1312.34 2105.39 1323.28 2077.46 1329.53 2074.03 1357.36Z" fill="#FFC425" fill-rule="evenodd"/><path d="M2029.98 1248.88 2034.79 1221.64 2009.37 1208.48 2037.76 1204.8 2042.56 1177.56 2055.3 1202.53 2083.69 1198.86 2063.17 1217.96 2075.92 1242.93 2050.5 1229.77 2029.98 1248.88Z" fill="#FFC425" fill-rule="evenodd"/><path d="M2065.4 1136.95 2086.32 1119.39 2075.01 1092.78 2099.26 1108.54 2120.19 1090.98 2114.24 1118.28 2138.49 1134.04 2110.57 1135.15 2104.63 1162.46 2093.32 1135.84 2065.4 1136.95Z" fill="#FFC425" fill-rule="evenodd"/></g></svg>