<svg width="2338" height="1559" xmlns="http://www.w3.org/2000/svg" xmlns:xlink="http://www.w3.org/1999/xlink" xml:space="preserve" overflow="hidden"><defs><clipPath id="clip0"><rect x="1031" y="458" width="2338" height="1559"/></clipPath></defs><g clip-path="url(#clip0)" transform="translate(-1031 -458)"><path d="M1031 458 3369 458 3369 2017 1031 2017Z" fill="#E1B584" fill-rule="evenodd"/><path d="M1031 458 1177.22 458 2200 1132.59 3222.78 458 3369 458 3369 594.991 2376.96 1249.3 3369 1903.62 3369 2017 3186.99 2017 2200 1366.02 1213.01 2017 1031 2017 1031 1903.62 2023.04 1249.3 1031 594.991 1031 458Z" fill="#2484C6" fill-rule="evenodd"/><path d="M2043 699.937 2154.84 688.213 2200 580 2245.16 688.213 2357 699.937 2273.08 778.54 2297.03 893.999 2200 834.366 2102.97 893.999 2126.92 778.54Z" fill="#2484C6" fill-rule="evenodd"/><path d="M1262 1185.56 1373.48 1173.87 1418.5 1066 1463.52 1173.87 1575 1185.56 1491.34 1263.91 1515.22 1379 1418.5 1319.56 1321.78 1379 1345.66 1263.91Z" fill="#2484C6" fill-rule="evenodd"/><path d="M2844 1190.56 2955.84 1178.87 3001 1071 3046.16 1178.87 3158 1190.56 3074.08 1268.91 3098.03 1384 3001 1324.56 2903.97 1384 2927.92 1268.91Z" fill="#2484C6" fill-rule="evenodd"/></g></svg>
