<svg width="2338" height="1567" xmlns="http://www.w3.org/2000/svg" xmlns:xlink="http://www.w3.org/1999/xlink" xml:space="preserve" overflow="hidden"><defs><clipPath id="clip0"><rect x="1031" y="458" width="2338" height="1567"/></clipPath></defs><g clip-path="url(#clip0)" transform="translate(-1031 -458)"><path d="M1031 458 3369 458 3369 2017 1031 2017Z" fill="#BF0D3E" fill-rule="evenodd"/><rect x="1031" y="1238" width="2338" height="787" fill="#00205B"/><path d="M2193.8 1320.65 2200 1615.37 2206.2 1320.65 2200 1321.89ZM2116.37 1231.34 1819.95 1237.5 2116.37 1243.66 2115.12 1237.5ZM2283.63 1231.34 2284.88 1237.5 2283.63 1243.66 2580.05 1237.5ZM2200 859.631 2193.8 1154.35 2200 1153.11 2206.2 1154.35ZM2240.59 718 2273.8 728.908C2297.28 739.462 2319.29 755.292 2338.33 776.399 2414.52 860.828 2414.52 997.713 2338.33 1082.14L2255.02 1174.48 2260.02 1177.83 2262.61 1181.65 2353.76 1100.35C2396.21 1062.48 2451.86 1043.54 2507.51 1043.54 2563.16 1043.54 2618.81 1062.48 2661.26 1100.35 2682.49 1119.29 2698.41 1141.17 2709.03 1164.51L2719.96 1197.43 2706.62 1199.5C2687.4 1205.75 2673.91 1220.39 2673.91 1237.44 2673.91 1254.5 2687.4 1269.14 2706.62 1275.39L2720 1277.47 2709.03 1310.49C2698.41 1333.83 2682.49 1355.71 2661.26 1374.65 2576.35 1450.39 2438.67 1450.39 2353.76 1374.65L2262.61 1293.35 2260.02 1297.17 2254.77 1300.69 2337.94 1392.86C2414.12 1477.29 2414.12 1614.17 2337.94 1698.6 2318.89 1719.71 2296.89 1735.54 2273.41 1746.09L2240.3 1756.96 2238.22 1743.69C2231.93 1724.58 2217.21 1711.17 2200.06 1711.17 2182.9 1711.17 2168.18 1724.58 2161.89 1743.69L2159.8 1757 2126.59 1746.09C2103.11 1735.54 2081.11 1719.71 2062.06 1698.6 2023.97 1656.39 2004.92 1601.06 2004.92 1545.73 2004.92 1490.4 2023.97 1435.07 2062.06 1392.86L2145.23 1300.69 2139.98 1297.17 2137.22 1293.1 2046.24 1374.25C1961.33 1450 1823.65 1450 1738.74 1374.25 1717.51 1355.32 1701.59 1333.44 1690.97 1310.09L1680.04 1277.18 1693.38 1275.11C1712.6 1268.85 1726.09 1254.22 1726.09 1237.16 1726.09 1220.11 1712.6 1205.47 1693.38 1199.22L1680 1197.14 1690.97 1164.12C1701.59 1140.77 1717.51 1118.9 1738.74 1099.96 1781.19 1062.09 1836.84 1043.15 1892.49 1043.15 1948.14 1043.15 2003.79 1062.09 2046.24 1099.96L2137.56 1181.41 2139.98 1177.83 2145.47 1174.15 2062.46 1082.14C2024.36 1039.93 2005.32 984.599 2005.32 929.271 2005.32 873.942 2024.36 818.613 2062.46 776.399 2081.5 755.292 2103.51 739.462 2126.99 728.908L2160.09 718.035 2162.18 731.307C2168.46 750.418 2183.18 763.827 2200.34 763.827 2217.49 763.827 2232.21 750.418 2238.5 731.307Z" fill="#F2F2F2" fill-rule="evenodd"/><path d="M2046 1191.03 2152.24 1174.47 2200 1073 2247.76 1174.47 2354 1191.03 2277.27 1270.29 2295.18 1382 2200 1329.52 2104.82 1382 2122.73 1270.29Z" fill="#F2F2F2" fill-rule="evenodd"/><path d="M2082 1199.76 2150.4 1168.43 2200 1110 2249.6 1168.43 2318 1199.76 2280.25 1267.2 2272.93 1345 2200 1328.25 2127.07 1345 2119.75 1267.2Z" fill="#FFA300" fill-rule="evenodd"/></g></svg>
