<svg width="5410" height="3847" xmlns="http://www.w3.org/2000/svg" xmlns:xlink="http://www.w3.org/1999/xlink" xml:space="preserve" overflow="hidden"><defs><clipPath id="clip0"><path d="M3831.11 2807.48 3867.55 2843.92 3831.11 2880.36 3794.67 2843.92Z" fill-rule="evenodd" clip-rule="evenodd"/></clipPath><clipPath id="clip1"><path d="M3831.11 2807.48 3867.55 2843.92 3831.11 2880.36 3794.67 2843.92Z" fill-rule="evenodd" clip-rule="evenodd"/></clipPath><clipPath id="clip2"><path d="M3831.11 2807.48 3867.55 2843.92 3831.11 2880.36 3794.67 2843.92Z" fill-rule="evenodd" clip-rule="evenodd"/></clipPath><clipPath id="clip3"><path d="M670.497 2044.49 706.937 2080.93 670.497 2117.37 634.057 2080.93Z" fill-rule="evenodd" clip-rule="evenodd"/></clipPath><clipPath id="clip4"><path d="M670.497 2044.49 706.937 2080.93 670.497 2117.37 634.057 2080.93Z" fill-rule="evenodd" clip-rule="evenodd"/></clipPath><clipPath id="clip5"><path d="M670.497 2044.49 706.937 2080.93 670.497 2117.37 634.057 2080.93Z" fill-rule="evenodd" clip-rule="evenodd"/></clipPath><clipPath id="clip6"><path d="M4602.06 2792.63 4638.5 2829.07 4602.06 2865.51 4565.62 2829.07Z" fill-rule="evenodd" clip-rule="evenodd"/></clipPath><clipPath id="clip7"><path d="M4602.06 2792.63 4638.5 2829.07 4602.06 2865.51 4565.62 2829.07Z" fill-rule="evenodd" clip-rule="evenodd"/></clipPath><clipPath id="clip8"><path d="M4602.06 2792.63 4638.5 2829.07 4602.06 2865.51 4565.62 2829.07Z" fill-rule="evenodd" clip-rule="evenodd"/></clipPath><clipPath id="clip9"><path d="M4803.67 3123.95 4840.11 3160.39 4803.67 3196.83 4767.23 3160.39Z" fill-rule="evenodd" clip-rule="evenodd"/></clipPath><clipPath id="clip10"><path d="M4803.67 3123.95 4840.11 3160.39 4803.67 3196.83 4767.23 3160.39Z" fill-rule="evenodd" clip-rule="evenodd"/></clipPath><clipPath id="clip11"><path d="M4803.67 3123.95 4840.11 3160.39 4803.67 3196.83 4767.23 3160.39Z" fill-rule="evenodd" clip-rule="evenodd"/></clipPath><clipPath id="clip12"><path d="M3980.52 710.99 4016.96 747.43 3980.52 783.87 3944.08 747.43Z" fill-rule="evenodd" clip-rule="evenodd"/></clipPath><clipPath id="clip13"><path d="M3980.52 710.99 4016.96 747.43 3980.52 783.87 3944.08 747.43Z" fill-rule="evenodd" clip-rule="evenodd"/></clipPath><clipPath id="clip14"><path d="M3980.52 710.99 4016.96 747.43 3980.52 783.87 3944.08 747.43Z" fill-rule="evenodd" clip-rule="evenodd"/></clipPath><clipPath id="clip15"><path d="M3204.46 3396.57 3240.9 3433.01 3204.46 3469.45 3168.02 3433.01Z" fill-rule="evenodd" clip-rule="evenodd"/></clipPath><clipPath id="clip16"><path d="M3204.46 3396.57 3240.9 3433.01 3204.46 3469.45 3168.02 3433.01Z" fill-rule="evenodd" clip-rule="evenodd"/></clipPath><clipPath id="clip17"><path d="M3204.46 3396.57 3240.9 3433.01 3204.46 3469.45 3168.02 3433.01Z" fill-rule="evenodd" clip-rule="evenodd"/></clipPath><clipPath id="clip18"><path d="M1259.2 3021.43 1285.5 3047.74 1259.2 3074.04 1232.9 3047.74Z" fill-rule="evenodd" clip-rule="evenodd"/></clipPath><clipPath id="clip19"><path d="M1259.2 3021.43 1285.5 3047.74 1259.2 3074.04 1232.9 3047.74Z" fill-rule="evenodd" clip-rule="evenodd"/></clipPath><clipPath id="clip20"><path d="M1259.2 3021.43 1285.5 3047.74 1259.2 3074.04 1232.9 3047.74Z" fill-rule="evenodd" clip-rule="evenodd"/></clipPath><clipPath id="clip21"><path d="M4641.35 996.865 4677.79 1033.3 4641.35 1069.74 4604.91 1033.3Z" fill-rule="evenodd" clip-rule="evenodd"/></clipPath><clipPath id="clip22"><path d="M4641.35 996.865 4677.79 1033.3 4641.35 1069.74 4604.91 1033.3Z" fill-rule="evenodd" clip-rule="evenodd"/></clipPath><clipPath id="clip23"><path d="M4641.35 996.865 4677.79 1033.3 4641.35 1069.74 4604.91 1033.3Z" fill-rule="evenodd" clip-rule="evenodd"/></clipPath></defs><g transform="translate(-18 0)"><path d="M21.5002 47.5663C21.5002 36.484 30.4841 27.5 41.5664 27.5L5404.43 27.5C5415.52 27.5 5424.5 36.484 5424.5 47.5663L5424.5 3807.43C5424.5 3818.52 5415.52 3827.5 5404.43 3827.5L41.5664 3827.5C30.4841 3827.5 21.5002 3818.52 21.5002 3807.43Z" stroke="#F2F2F2" stroke-width="6.875" stroke-miterlimit="8" fill="#404040" fill-rule="evenodd"/><path d="M2830.03 3621.99C2786.96 3622.56 2751.58 3588.11 2751.01 3545.03 2751.01 3544.93 2751 3544.84 2751 3544.74L2777.58 3544.49C2777.84 3572.89 2801.09 3595.69 2829.49 3595.42 2829.55 3595.42 2829.62 3595.42 2829.68 3595.42Z" fill="#00C057" fill-rule="evenodd"/><rect x="670" y="1883" width="26.0001" height="306" fill="#9966FF"/><rect x="633" y="1512" width="26.0001" height="1212" fill="#F97FE8"/><path d="M620.5 2320C620.5 2305.92 631.917 2294.5 646 2294.5L647 2294.5C661.083 2294.5 672.5 2305.92 672.5 2320L672.5 2320C672.5 2334.08 661.083 2345.5 647 2345.5L646 2345.5C631.917 2345.5 620.5 2334.08 620.5 2320Z" stroke="#404040" stroke-width="4.58333" stroke-miterlimit="8" fill="#F97FE8" fill-rule="evenodd"/><path d="M620.5 2509.5C620.5 2495.14 632.141 2483.5 646.5 2483.5L646.5 2483.5C660.859 2483.5 672.5 2495.14 672.5 2509.5L672.5 2509.5C672.5 2523.86 660.859 2535.5 646.5 2535.5L646.5 2535.5C632.141 2535.5 620.5 2523.86 620.5 2509.5Z" stroke="#404040" stroke-width="4.58333" stroke-miterlimit="8" fill="#F97FE8" fill-rule="evenodd"/><path d="M620.5 2721.5C620.5 2707.14 632.141 2695.5 646.5 2695.5L646.5 2695.5C660.859 2695.5 672.5 2707.14 672.5 2721.5L672.5 2721.5C672.5 2735.86 660.859 2747.5 646.5 2747.5L646.5 2747.5C632.141 2747.5 620.5 2735.86 620.5 2721.5Z" stroke="#404040" stroke-width="4.58333" stroke-miterlimit="8" fill="#F97FE8" fill-rule="evenodd"/><path d="M619.5 1898.5C619.5 1884.14 631.141 1872.5 645.5 1872.5L696.5 1872.5C710.859 1872.5 722.5 1884.14 722.5 1898.5L722.5 1898.5C722.5 1912.86 710.859 1924.5 696.5 1924.5L645.5 1924.5C631.141 1924.5 619.5 1912.86 619.5 1898.5Z" stroke="#404040" stroke-width="4.58333" stroke-miterlimit="8" fill="#F2F2F2" fill-rule="evenodd"/><path d="M619.5 2081.5C619.5 2067.14 631.141 2055.5 645.5 2055.5L696.5 2055.5C710.859 2055.5 722.5 2067.14 722.5 2081.5L722.5 2081.5C722.5 2095.86 710.859 2107.5 696.5 2107.5L645.5 2107.5C631.141 2107.5 619.5 2095.86 619.5 2081.5Z" stroke="#404040" stroke-width="4.58333" stroke-miterlimit="8" fill="#AEAEAE" fill-rule="evenodd"/><path d="M749.032 2265.99C705.958 2266.56 670.577 2232.11 670.007 2189.03 669.996 2188.19 669.998 2187.34 670.014 2186.5L696.576 2187.01C696.03 2215.41 718.611 2238.88 747.012 2239.42 747.568 2239.43 748.124 2239.44 748.681 2239.43Z" fill="#9966FF" fill-rule="evenodd"/><rect x="748" y="2240" width="1458" height="26.0002" fill="#9966FF"/><path d="M878.5 2253.5C878.5 2239.14 890.141 2227.5 904.5 2227.5L904.5 2227.5C918.859 2227.5 930.5 2239.14 930.5 2253.5L930.5 2253.5C930.5 2267.86 918.859 2279.5 904.5 2279.5L904.5 2279.5C890.141 2279.5 878.5 2267.86 878.5 2253.5Z" stroke="#404040" stroke-width="4.58333" stroke-miterlimit="8" fill="#9966FF" fill-rule="evenodd"/><path d="M1175.5 2253.5C1175.5 2239.14 1187.14 2227.5 1201.5 2227.5L1201.5 2227.5C1215.86 2227.5 1227.5 2239.14 1227.5 2253.5L1227.5 2253.5C1227.5 2267.86 1215.86 2279.5 1201.5 2279.5L1201.5 2279.5C1187.14 2279.5 1175.5 2267.86 1175.5 2253.5Z" stroke="#404040" stroke-width="4.58333" stroke-miterlimit="8" fill="#9966FF" fill-rule="evenodd"/><path d="M1447.5 2253.5C1447.5 2239.14 1459.14 2227.5 1473.5 2227.5L1473.5 2227.5C1487.86 2227.5 1499.5 2239.14 1499.5 2253.5L1499.5 2253.5C1499.5 2267.86 1487.86 2279.5 1473.5 2279.5L1473.5 2279.5C1459.14 2279.5 1447.5 2267.86 1447.5 2253.5Z" stroke="#404040" stroke-width="4.58333" stroke-miterlimit="8" fill="#9966FF" fill-rule="evenodd"/><text fill="#F2F2F2" font-family="Aptos,Aptos_MSFontService,sans-serif" font-weight="400" font-size="50" transform="matrix(1 0 0 1 377.554 1514)">Geraldton</text><text fill="#F2F2F2" font-family="Aptos ExtraBold,Aptos ExtraBold_MSFontService,sans-serif" font-style="italic" font-weight="800" font-size="50" transform="matrix(1 0 0 1 349.281 1877)">East Perth </text><text fill="#F2F2F2" font-family="Aptos ExtraBold,Aptos ExtraBold_MSFontService,sans-serif" font-style="italic" font-weight="800" font-size="50" transform="matrix(1 0 0 1 381.365 1937)">Terminal</text><text fill="#F2F2F2" font-family="Aptos,Aptos_MSFontService,sans-serif" font-weight="400" font-size="50" transform="matrix(1 0 0 1 320.626 2105)">Perth Airport</text><text fill="#F2F2F2" font-family="Aptos,Aptos_MSFontService,sans-serif" font-weight="400" font-size="50" transform="matrix(1 0 0 1 412.614 2340)">Bunbury</text><text fill="#F2F2F2" font-family="Aptos,Aptos_MSFontService,sans-serif" font-weight="400" font-size="50" transform="matrix(1 0 0 1 375.011 2535)">Busselton</text><text fill="#F2F2F2" font-family="Aptos,Aptos_MSFontService,sans-serif" font-weight="400" font-size="50" transform="matrix(1 0 0 1 281.859 2739)">Margaret River</text><text fill="#F2F2F2" font-family="Aptos,Aptos_MSFontService,sans-serif" font-weight="400" font-size="50" transform="matrix(1 0 0 1 803.716 2204)">Northam</text><text fill="#F2F2F2" font-family="Aptos,Aptos_MSFontService,sans-serif" font-weight="400" font-size="50" transform="matrix(1 0 0 1 1375.16 2199)">Kalgoorlie</text><text fill="#F2F2F2" font-family="Aptos,Aptos_MSFontService,sans-serif" font-weight="400" font-size="50" transform="matrix(1 0 0 1 1105.12 2339)">Merriden</text><path d="M1781.5 2253.5C1781.5 2239.14 1793.14 2227.5 1807.5 2227.5L1807.5 2227.5C1821.86 2227.5 1833.5 2239.14 1833.5 2253.5L1833.5 2253.5C1833.5 2267.86 1821.86 2279.5 1807.5 2279.5L1807.5 2279.5C1793.14 2279.5 1781.5 2267.86 1781.5 2253.5Z" stroke="#404040" stroke-width="4.58333" stroke-miterlimit="8" fill="#9966FF" fill-rule="evenodd"/><text fill="#F2F2F2" font-family="Aptos,Aptos_MSFontService,sans-serif" font-weight="400" font-size="50" transform="matrix(1 0 0 1 1758.71 2329)">Cook</text><path d="M4681.97 2835.01C4725.04 2834.44 4760.42 2868.89 4760.99 2911.97 4761 2912.81 4761 2913.66 4760.99 2914.5L4734.42 2913.99C4734.97 2885.59 4712.39 2862.12 4683.99 2861.58 4683.43 2861.57 4682.88 2861.56 4682.32 2861.57Z" fill="#F6BB00" fill-rule="evenodd"/><text fill="#F2F2F2" font-family="Aptos,Aptos_MSFontService,sans-serif" font-weight="400" font-size="50" transform="matrix(1 0 0 1 2008.05 2162)">Port Augusta</text><path d="M4681.45 2798.01C4746.06 2797.16 4799.13 2848.84 4799.99 2913.45 4799.99 2913.59 4799.99 2913.72 4799.99 2913.85L4774.18 2914.11C4773.68 2863.75 4732.46 2823.33 4682.11 2823.82 4682 2823.83 4681.9 2823.83 4681.79 2823.83Z" fill="#00B0F0" fill-rule="evenodd"/><rect x="1986" y="2204" width="213" height="25.9998" fill="#E87132"/><path d="M1990.03 2229.99C1946.96 2230.56 1911.58 2196.11 1911.01 2153.03 1911 2152.19 1911 2151.34 1911.01 2150.5L1937.58 2151.01C1937.03 2179.41 1959.61 2202.88 1988.01 2203.42 1988.57 2203.43 1989.12 2203.44 1989.68 2203.43Z" fill="#E87132" fill-rule="evenodd"/><path d="M2135.5 2284.5C2121.14 2284.5 2109.5 2272.86 2109.5 2258.5L2109.5 2206.5C2109.5 2192.14 2121.14 2180.5 2135.5 2180.5L2135.5 2180.5C2149.86 2180.5 2161.5 2192.14 2161.5 2206.5L2161.5 2258.5C2161.5 2272.86 2149.86 2284.5 2135.5 2284.5Z" stroke="#404040" stroke-width="4.58333" stroke-miterlimit="8" fill="#F2F2F2" fill-rule="evenodd"/><rect x="2248" y="2318" width="25.9998" height="494" fill="#9966FF"/><rect x="2288" y="2318" width="26.0002" height="490" fill="#E87132"/><text fill="#F2F2F2" font-family="Aptos ExtraBold,Aptos ExtraBold_MSFontService,sans-serif" font-style="italic" font-weight="800" font-size="50" transform="matrix(1 0 0 1 1780.87 2804)">Keswick Terminal</text><text fill="#F2F2F2" font-family="Aptos ExtraBold,Aptos ExtraBold_MSFontService,sans-serif" font-style="italic" font-weight="800" font-size="50" transform="matrix(1 0 0 1 1986.55 2864)">Adelaide</text><rect x="1911" y="1141" width="26.0001" height="1013" fill="#E87132"/><path d="M1898.5 1338.5C1898.5 1324.14 1910.14 1312.5 1924.5 1312.5L1924.5 1312.5C1938.86 1312.5 1950.5 1324.14 1950.5 1338.5L1950.5 1338.5C1950.5 1352.86 1938.86 1364.5 1924.5 1364.5L1924.5 1364.5C1910.14 1364.5 1898.5 1352.86 1898.5 1338.5Z" stroke="#404040" stroke-width="4.58333" stroke-miterlimit="8" fill="#E87132" fill-rule="evenodd"/><path d="M1898.5 1559C1898.5 1544.92 1909.92 1533.5 1924 1533.5L1925 1533.5C1939.08 1533.5 1950.5 1544.92 1950.5 1559L1950.5 1559C1950.5 1573.08 1939.08 1584.5 1925 1584.5L1924 1584.5C1909.92 1584.5 1898.5 1573.08 1898.5 1559Z" stroke="#404040" stroke-width="4.58333" stroke-miterlimit="8" fill="#E87132" fill-rule="evenodd"/><text fill="#F2F2F2" font-family="Aptos,Aptos_MSFontService,sans-serif" font-weight="400" font-size="50" transform="matrix(1 0 0 1 1675.99 1351)">Katherine</text><text fill="#F2F2F2" font-family="Aptos,Aptos_MSFontService,sans-serif" font-weight="400" font-size="50" transform="matrix(1 0 0 1 1604.25 1568)">Alice Springs</text><path d="M1898.5 1146.5C1898.5 1132.14 1910.14 1120.5 1924.5 1120.5L1924.5 1120.5C1938.86 1120.5 1950.5 1132.14 1950.5 1146.5L1950.5 1146.5C1950.5 1160.86 1938.86 1172.5 1924.5 1172.5L1924.5 1172.5C1910.14 1172.5 1898.5 1160.86 1898.5 1146.5Z" stroke="#404040" stroke-width="4.58333" stroke-miterlimit="8" fill="#E87132" fill-rule="evenodd"/><text fill="#F2F2F2" font-family="Aptos,Aptos_MSFontService,sans-serif" font-weight="400" font-size="50" transform="matrix(1 0 0 1 1728.5 1161)">Darwin</text><rect x="0" y="0" width="26.0001" height="316" fill="#00B0F0" transform="matrix(-1 1.22465e-16 1.22465e-16 1 2358 2492)"/><rect x="2381" y="2808" width="25.9998" height="544" fill="#00C057"/><path d="M2460.03 3425.99C2416.96 3426.56 2381.58 3392.11 2381.01 3349.03 2381.01 3348.93 2381 3348.84 2381 3348.74L2407.58 3348.49C2407.85 3376.89 2431.09 3399.69 2459.49 3399.42 2459.55 3399.42 2459.62 3399.42 2459.68 3399.42Z" fill="#00C057" fill-rule="evenodd"/><path d="M2217.5 2815C2217.5 2800.92 2228.92 2789.5 2243 2789.5L2399 2789.5C2413.08 2789.5 2424.5 2800.92 2424.5 2815L2424.5 2815C2424.5 2829.08 2413.08 2840.5 2399 2840.5L2243 2840.5C2228.92 2840.5 2217.5 2829.08 2217.5 2815Z" stroke="#404040" stroke-width="4.58333" stroke-miterlimit="8" fill="#F2F2F2" fill-rule="evenodd"/><path d="M76.9679 0.00682415C120.042-0.56318 155.423 33.8935 155.993 76.9679 156.004 77.8116 156.002 78.6553 155.986 79.4989L129.424 78.9883C129.97 50.5878 107.389 27.1221 78.9883 26.5762 78.4321 26.5655 77.8757 26.5638 77.3194 26.5712Z" fill="#00B0F0" fill-rule="evenodd" transform="matrix(-1 0 0 1 2488 2423)"/><rect x="2453" y="3400" width="246" height="26.0002" fill="#00C057"/><path d="M2367.5 2986.5C2367.5 2972.14 2379.14 2960.5 2393.5 2960.5L2393.5 2960.5C2407.86 2960.5 2419.5 2972.14 2419.5 2986.5L2419.5 2986.5C2419.5 3000.86 2407.86 3012.5 2393.5 3012.5L2393.5 3012.5C2379.14 3012.5 2367.5 3000.86 2367.5 2986.5Z" stroke="#404040" stroke-width="4.58333" stroke-miterlimit="8" fill="#00C057" fill-rule="evenodd"/><text fill="#F2F2F2" font-family="Aptos,Aptos_MSFontService,sans-serif" font-weight="400" font-size="50" transform="matrix(1 0 0 1 2859.2 3525)">Ballarat</text><text fill="#F2F2F2" font-family="Aptos,Aptos_MSFontService,sans-serif" font-weight="400" font-size="50" transform="matrix(1 0 0 1 2039.44 3000)">Murray Bridge</text><rect x="2785" y="3271" width="25.9998" height="443" fill="#0066FF"/><text fill="#F2F2F2" font-family="Aptos,Aptos_MSFontService,sans-serif" font-weight="400" font-size="50" transform="matrix(1 0 0 1 2844.68 3751)">Geelong</text><path d="M2772.5 3342.5C2772.5 3328.14 2784.14 3316.5 2798.5 3316.5L2798.5 3316.5C2812.86 3316.5 2824.5 3328.14 2824.5 3342.5L2824.5 3342.5C2824.5 3356.86 2812.86 3368.5 2798.5 3368.5L2798.5 3368.5C2784.14 3368.5 2772.5 3356.86 2772.5 3342.5Z" stroke="#404040" stroke-width="4.58333" stroke-miterlimit="8" fill="#0066FF" fill-rule="evenodd"/><text fill="#F2F2F2" font-family="Aptos,Aptos_MSFontService,sans-serif" font-weight="400" font-size="50" transform="matrix(1 0 0 1 2843.63 3356)">Bendigo</text><rect x="2854" y="3196" width="255" height="26.0002" fill="#0066FF"/><path d="M2787.01 3275.03C2786.44 3231.96 2820.89 3196.58 2863.97 3196.01 2864.07 3196.01 2864.17 3196 2864.26 3196L2864.51 3222.58C2836.11 3222.84 2813.31 3246.09 2813.58 3274.49 2813.58 3274.55 2813.58 3274.62 2813.58 3274.68Z" fill="#0066FF" fill-rule="evenodd"/><text fill="#F2F2F2" font-family="Aptos,Aptos_MSFontService,sans-serif" font-weight="400" font-size="50" transform="matrix(1 0 0 1 3337.56 3699)">Sunshine</text><text fill="#F2F2F2" font-family="Aptos ExtraBold,Aptos ExtraBold_MSFontService,sans-serif" font-style="italic" font-weight="800" font-size="50" transform="matrix(1 0 0 1 3721.35 3452)">Southern Cross</text><text fill="#F2F2F2" font-family="Aptos ExtraBold,Aptos ExtraBold_MSFontService,sans-serif" font-style="italic" font-weight="800" font-size="50" transform="matrix(1 0 0 1 3776.05 3512)">Melbourne</text><text fill="#F2F2F2" font-family="Aptos,Aptos_MSFontService,sans-serif" font-weight="400" font-size="50" transform="matrix(1 0 0 1 4104.68 3688)">Warragul</text><text fill="#F2F2F2" font-family="Aptos,Aptos_MSFontService,sans-serif" font-weight="400" font-size="50" transform="matrix(1 0 0 1 4307.47 3539)">Traralgon</text><path d="M2698.97 3400.01C2742.05 3399.44 2777.43 3433.68 2777.99 3476.48 2777.99 3476.58 2778 3476.67 2778 3476.76L2751.59 3477.01C2751.32 3448.79 2728 3426.14 2699.51 3426.41 2699.45 3426.41 2699.39 3426.41 2699.32 3426.41Z" fill="#00C057" fill-rule="evenodd"/><rect x="3189" y="2958" width="26.0002" height="565" fill="#F6BB00"/><rect x="3267" y="3562" width="618" height="26.0002" fill="#F6BB00"/><text fill="#F2F2F2" font-family="Aptos,Aptos_MSFontService,sans-serif" font-weight="400" font-size="50" transform="matrix(1 0 0 1 3237.62 3450)">Melbourne Airport</text><path d="M2942.5 3208.5C2942.5 3194.14 2954.14 3182.5 2968.5 3182.5L2968.5 3182.5C2982.86 3182.5 2994.5 3194.14 2994.5 3208.5L2994.5 3208.5C2994.5 3222.86 2982.86 3234.5 2968.5 3234.5L2968.5 3234.5C2954.14 3234.5 2942.5 3222.86 2942.5 3208.5Z" stroke="#404040" stroke-width="4.58333" stroke-miterlimit="8" fill="#0066FF" fill-rule="evenodd"/><text fill="#F2F2F2" font-family="Aptos,Aptos_MSFontService,sans-serif" font-weight="400" font-size="50" transform="matrix(1 0 0 1 2833.6 3153)">Shepparton</text><text fill="#F2F2F2" font-family="Aptos,Aptos_MSFontService,sans-serif" font-weight="400" font-size="50" transform="matrix(1 0 0 1 2811.53 2521)">Broken Hill</text><path d="M3190.01 2914.03C3189.44 2870.96 3223.89 2835.58 3266.97 2835.01 3267.07 2835.01 3267.16 2835 3267.26 2835L3267.51 2861.58C3239.11 2861.84 3216.31 2885.09 3216.58 2913.49 3216.58 2913.55 3216.58 2913.62 3216.58 2913.68Z" fill="#F6BB00" fill-rule="evenodd"/><text fill="#F2F2F2" font-family="Aptos,Aptos_MSFontService,sans-serif" font-weight="400" font-size="50" transform="matrix(1 0 0 1 3263.98 2958)">Albury</text><path d="M3176.99 3141.97C3177.56 3185.04 3143.11 3220.42 3100.03 3220.99 3099.93 3220.99 3099.84 3221 3099.74 3221L3099.49 3194.42C3127.89 3194.15 3150.69 3170.91 3150.42 3142.51 3150.42 3142.45 3150.42 3142.38 3150.42 3142.32Z" fill="#0066FF" fill-rule="evenodd"/><rect x="3530" y="1517" width="26.0002" height="814" fill="#0066FF"/><rect x="3225" y="2383" width="255" height="26.0002" fill="#0066FF"/><path d="M3554.99 2329.97C3555.56 2373.04 3521.11 2408.42 3478.03 2408.99 3477.93 2408.99 3477.84 2409 3477.74 2409L3477.49 2382.42C3505.89 2382.16 3528.69 2358.91 3528.42 2330.51 3528.42 2330.45 3528.42 2330.38 3528.42 2330.32Z" fill="#0066FF" fill-rule="evenodd"/><text fill="#F2F2F2" font-family="Aptos,Aptos_MSFontService,sans-serif" font-weight="400" font-size="50" transform="matrix(1 0 0 1 3284.72 2343)">Parkes</text><rect x="3262" y="2834" width="1424" height="26.0002" fill="#F6BB00"/><path d="M3152.01 2461.03C3151.44 2417.96 3185.89 2382.58 3228.97 2382.01 3229.07 2382.01 3229.16 2382 3229.26 2382L3229.51 2408.58C3201.11 2408.84 3178.31 2432.09 3178.58 2460.49 3178.58 2460.55 3178.58 2460.62 3178.58 2460.68Z" fill="#0066FF" fill-rule="evenodd"/><text fill="#F2F2F2" font-family="Aptos,Aptos_MSFontService,sans-serif" font-weight="400" font-size="50" transform="matrix(1 0 0 1 3883.21 2383)">Bathurst</text><text fill="#F2F2F2" font-family="Aptos,Aptos_MSFontService,sans-serif" font-weight="400" font-size="50" transform="matrix(1 0 0 1 3367.92 2802)">Canberra City</text><path d="M3179.5 3275C3179.5 3260.92 3190.92 3249.5 3205 3249.5L3206 3249.5C3220.08 3249.5 3231.5 3260.92 3231.5 3275L3231.5 3275C3231.5 3289.08 3220.08 3300.5 3206 3300.5L3205 3300.5C3190.92 3300.5 3179.5 3289.08 3179.5 3275Z" stroke="#404040" stroke-width="4.58333" stroke-miterlimit="8" fill="#F6BB00" fill-rule="evenodd"/><path d="M3804.5 2846.5C3804.5 2832.14 3816.14 2820.5 3830.5 2820.5L3830.5 2820.5C3844.86 2820.5 3856.5 2832.14 3856.5 2846.5L3856.5 2846.5C3856.5 2860.86 3844.86 2872.5 3830.5 2872.5L3830.5 2872.5C3816.14 2872.5 3804.5 2860.86 3804.5 2846.5Z" stroke="#404040" stroke-width="4.58333" stroke-miterlimit="8" fill="#AEAEAE" fill-rule="evenodd"/><text fill="#F2F2F2" font-family="Aptos,Aptos_MSFontService,sans-serif" font-weight="400" font-size="50" transform="matrix(1 0 0 1 3710.46 2931)">Canberra</text><text fill="#F2F2F2" font-family="Aptos,Aptos_MSFontService,sans-serif" font-weight="400" font-size="50" transform="matrix(1 0 0 1 3739.11 2991)">Airport</text><text fill="#F2F2F2" font-family="Aptos,Aptos_MSFontService,sans-serif" font-weight="400" font-size="50" transform="matrix(1 0 0 1 4422.33 2626)">Western Sydney</text><text fill="#F2F2F2" font-family="Aptos,Aptos_MSFontService,sans-serif" font-weight="400" font-size="50" transform="matrix(1 0 0 1 4479.05 2686)">Nancy Bird </text><text fill="#F2F2F2" font-family="Aptos,Aptos_MSFontService,sans-serif" font-weight="400" font-size="50" transform="matrix(1 0 0 1 4440.09 2747)">Walton Airport</text><path d="M4095.5 2847.5C4095.5 2833.14 4107.14 2821.5 4121.5 2821.5L4121.5 2821.5C4135.86 2821.5 4147.5 2833.14 4147.5 2847.5L4147.5 2847.5C4147.5 2861.86 4135.86 2873.5 4121.5 2873.5L4121.5 2873.5C4107.14 2873.5 4095.5 2861.86 4095.5 2847.5Z" stroke="#404040" stroke-width="4.58333" stroke-miterlimit="8" fill="#F6BB00" fill-rule="evenodd"/><text fill="#F2F2F2" font-family="Aptos,Aptos_MSFontService,sans-serif" font-weight="400" font-size="50" transform="matrix(1 0 0 1 4016.39 2799)">Goulburn</text><rect x="4823" y="1433" width="26" height="1954" fill="#FF0000"/><path d="M2195.97 2240.01C2239.04 2239.44 2274.42 2273.89 2274.99 2316.97 2275 2317.81 2275 2318.66 2274.99 2319.5L2248.42 2318.99C2248.97 2290.59 2226.39 2267.12 2197.99 2266.58 2197.43 2266.57 2196.88 2266.56 2196.32 2266.57Z" fill="#9966FF" fill-rule="evenodd"/><path d="M2195.46 2204.01C2260.07 2203.16 2313.14 2254.63 2313.99 2318.97 2313.99 2319.09 2313.99 2319.22 2313.99 2319.35L2288.29 2319.61C2287.79 2269.47 2246.52 2229.22 2196.1 2229.71 2196 2229.71 2195.9 2229.72 2195.8 2229.72Z" fill="#E87132" fill-rule="evenodd"/><text fill="#F2F2F2" font-family="Aptos,Aptos_MSFontService,sans-serif" font-weight="400" font-size="50" transform="matrix(1 0 0 1 4912.54 2935)">Lidcombe</text><text fill="#F2F2F2" font-family="Aptos,Aptos_MSFontService,sans-serif" font-weight="400" font-size="50" transform="matrix(1 0 0 1 4912.54 3111)">Sydney</text><text fill="#F2F2F2" font-family="Aptos,Aptos_MSFontService,sans-serif" font-weight="400" font-size="50" transform="matrix(1 0 0 1 4912.54 3170)">Kingsford Smith </text><text fill="#F2F2F2" font-family="Aptos,Aptos_MSFontService,sans-serif" font-weight="400" font-size="50" transform="matrix(1 0 0 1 4912.54 3232)">Airport</text><text fill="#F2F2F2" font-family="Aptos ExtraBold,Aptos ExtraBold_MSFontService,sans-serif" font-style="italic" font-weight="800" font-size="50" transform="matrix(1 0 0 1 4914.75 3368)">Sydney</text><text fill="#F2F2F2" font-family="Aptos ExtraBold,Aptos ExtraBold_MSFontService,sans-serif" font-style="italic" font-weight="800" font-size="50" transform="matrix(1 0 0 1 4914.75 3428)">Central</text><path d="M4810.5 2519.5C4810.5 2505.14 4822.14 2493.5 4836.5 2493.5L4836.5 2493.5C4850.86 2493.5 4862.5 2505.14 4862.5 2519.5L4862.5 2519.5C4862.5 2533.86 4850.86 2545.5 4836.5 2545.5L4836.5 2545.5C4822.14 2545.5 4810.5 2533.86 4810.5 2519.5Z" stroke="#404040" stroke-width="4.58333" stroke-miterlimit="8" fill="#FF0000" fill-rule="evenodd"/><path d="M4810.5 2712.5C4810.5 2698.14 4822.14 2686.5 4836.5 2686.5L4836.5 2686.5C4850.86 2686.5 4862.5 2698.14 4862.5 2712.5L4862.5 2712.5C4862.5 2726.86 4850.86 2738.5 4836.5 2738.5L4836.5 2738.5C4822.14 2738.5 4810.5 2726.86 4810.5 2712.5Z" stroke="#404040" stroke-width="4.58333" stroke-miterlimit="8" fill="#FF0000" fill-rule="evenodd"/><text fill="#F2F2F2" font-family="Aptos,Aptos_MSFontService,sans-serif" font-weight="400" font-size="50" transform="matrix(1 0 0 1 4882.16 2504)">Broadmeadow</text><text fill="#F2F2F2" font-family="Aptos,Aptos_MSFontService,sans-serif" font-weight="400" font-size="50" transform="matrix(1 0 0 1 4882.16 2564)">Newcastle</text><text fill="#F2F2F2" font-family="Aptos,Aptos_MSFontService,sans-serif" font-weight="400" font-size="50" transform="matrix(1 0 0 1 4882.16 2728)">Gosford</text><path d="M4810.5 2142.5C4810.5 2128.14 4822.14 2116.5 4836.5 2116.5L4836.5 2116.5C4850.86 2116.5 4862.5 2128.14 4862.5 2142.5L4862.5 2142.5C4862.5 2156.86 4850.86 2168.5 4836.5 2168.5L4836.5 2168.5C4822.14 2168.5 4810.5 2156.86 4810.5 2142.5Z" stroke="#404040" stroke-width="4.58333" stroke-miterlimit="8" fill="#FF0000" fill-rule="evenodd"/><path d="M4810.5 2319.5C4810.5 2305.14 4822.14 2293.5 4836.5 2293.5L4836.5 2293.5C4850.86 2293.5 4862.5 2305.14 4862.5 2319.5L4862.5 2319.5C4862.5 2333.86 4850.86 2345.5 4836.5 2345.5L4836.5 2345.5C4822.14 2345.5 4810.5 2333.86 4810.5 2319.5Z" stroke="#404040" stroke-width="4.58333" stroke-miterlimit="8" fill="#FF0000" fill-rule="evenodd"/><text fill="#F2F2F2" font-family="Aptos,Aptos_MSFontService,sans-serif" font-weight="400" font-size="50" transform="matrix(1 0 0 1 4882.16 2128)">Wauchope</text><text fill="#F2F2F2" font-family="Aptos,Aptos_MSFontService,sans-serif" font-weight="400" font-size="50" transform="matrix(1 0 0 1 4882.16 2188)">Port Macquarie</text><text fill="#F2F2F2" font-family="Aptos,Aptos_MSFontService,sans-serif" font-weight="400" font-size="50" transform="matrix(1 0 0 1 4882.16 2335)">Taree</text><path d="M4810.5 1922.5C4810.5 1908.14 4822.14 1896.5 4836.5 1896.5L4836.5 1896.5C4850.86 1896.5 4862.5 1908.14 4862.5 1922.5L4862.5 1922.5C4862.5 1936.86 4850.86 1948.5 4836.5 1948.5L4836.5 1948.5C4822.14 1948.5 4810.5 1936.86 4810.5 1922.5Z" stroke="#404040" stroke-width="4.58333" stroke-miterlimit="8" fill="#FF0000" fill-rule="evenodd"/><text fill="#F2F2F2" font-family="Aptos,Aptos_MSFontService,sans-serif" font-weight="400" font-size="50" transform="matrix(1 0 0 1 4882.16 1939)">Coffs Harbour</text><path d="M4810.5 1698C4810.5 1683.92 4821.92 1672.5 4836 1672.5L4837 1672.5C4851.08 1672.5 4862.5 1683.92 4862.5 1698L4862.5 1698C4862.5 1712.08 4851.08 1723.5 4837 1723.5L4836 1723.5C4821.92 1723.5 4810.5 1712.08 4810.5 1698Z" stroke="#404040" stroke-width="4.58333" stroke-miterlimit="8" fill="#FF0000" fill-rule="evenodd"/><text fill="#F2F2F2" font-family="Aptos,Aptos_MSFontService,sans-serif" font-weight="400" font-size="50" transform="matrix(1 0 0 1 4882.16 1714)">Grafton</text><text fill="#F2F2F2" font-family="Aptos,Aptos_MSFontService,sans-serif" font-weight="400" font-size="50" transform="matrix(1 0 0 1 4213.94 1144)">Nerang</text><text fill="#F2F2F2" font-family="Aptos,Aptos_MSFontService,sans-serif" font-weight="400" font-size="50" transform="matrix(1 0 0 1 4170.1 1204)">Gold Coast</text><text fill="#F2F2F2" font-family="Aptos ExtraBold,Aptos ExtraBold_MSFontService,sans-serif" font-style="italic" font-weight="800" font-size="50" transform="matrix(1 0 0 1 3607.36 932)">Roma Street</text><text fill="#F2F2F2" font-family="Aptos ExtraBold,Aptos ExtraBold_MSFontService,sans-serif" font-style="italic" font-weight="800" font-size="50" transform="matrix(1 0 0 1 3686.99 992)">Brisbane</text><rect x="3038" y="206" width="863" height="26.0001" fill="#AC8004"/><rect x="1740" y="168" width="2162" height="25.9998" fill="#92D050"/><text fill="#F2F2F2" font-family="Aptos,Aptos_MSFontService,sans-serif" font-weight="400" font-size="50" transform="matrix(1 0 0 1 3555.64 759)">Brisbane Airport</text><path d="M3892.97 206.007C3936.04 205.437 3971.42 239.893 3971.99 282.968 3971.99 283.066 3972 283.165 3972 283.263L3945.42 283.514C3945.16 255.114 3921.91 232.309 3893.51 232.577 3893.45 232.577 3893.38 232.578 3893.32 232.579Z" fill="#AC8004" fill-rule="evenodd"/><path d="M3517.5 2128.5C3517.5 2114.14 3529.14 2102.5 3543.5 2102.5L3543.5 2102.5C3557.86 2102.5 3569.5 2114.14 3569.5 2128.5L3569.5 2128.5C3569.5 2142.86 3557.86 2154.5 3543.5 2154.5L3543.5 2154.5C3529.14 2154.5 3517.5 2142.86 3517.5 2128.5Z" stroke="#404040" stroke-width="4.58333" stroke-miterlimit="8" fill="#0066FF" fill-rule="evenodd"/><text fill="#F2F2F2" font-family="Aptos,Aptos_MSFontService,sans-serif" font-weight="400" font-size="50" transform="matrix(1 0 0 1 3350.06 2150)">Dubbo</text><path d="M3517.5 1810.5C3517.5 1796.14 3529.14 1784.5 3543.5 1784.5L3543.5 1784.5C3557.86 1784.5 3569.5 1796.14 3569.5 1810.5L3569.5 1810.5C3569.5 1824.86 3557.86 1836.5 3543.5 1836.5L3543.5 1836.5C3529.14 1836.5 3517.5 1824.86 3517.5 1810.5Z" stroke="#404040" stroke-width="4.58333" stroke-miterlimit="8" fill="#0066FF" fill-rule="evenodd"/><path d="M3517.5 1968.5C3517.5 1954.14 3529.14 1942.5 3543.5 1942.5L3543.5 1942.5C3557.86 1942.5 3569.5 1954.14 3569.5 1968.5L3569.5 1968.5C3569.5 1982.86 3557.86 1994.5 3543.5 1994.5L3543.5 1994.5C3529.14 1994.5 3517.5 1982.86 3517.5 1968.5Z" stroke="#404040" stroke-width="4.58333" stroke-miterlimit="8" fill="#0066FF" fill-rule="evenodd"/><text fill="#F2F2F2" font-family="Aptos,Aptos_MSFontService,sans-serif" font-weight="400" font-size="50" transform="matrix(1 0 0 1 3299.01 1825)">Armidale</text><text fill="#F2F2F2" font-family="Aptos,Aptos_MSFontService,sans-serif" font-weight="400" font-size="50" transform="matrix(1 0 0 1 3275.87 1983)">Tamworth</text><text fill="#F2F2F2" font-family="Aptos,Aptos_MSFontService,sans-serif" font-weight="400" font-size="50" transform="matrix(1 0 0 1 3313.49 1651)">Warwick</text><rect x="3946" y="279" width="26.0002" height="1085" fill="#AC8004"/><text fill="#F2F2F2" font-family="Aptos,Aptos_MSFontService,sans-serif" font-weight="400" font-size="50" transform="matrix(1 0 0 1 3118.35 1453)">Toowoomba</text><text fill="#F2F2F2" font-family="Aptos,Aptos_MSFontService,sans-serif" font-weight="400" font-size="50" transform="matrix(1 0 0 1 3737.34 1226)">Ipswich</text><text fill="#F2F2F2" font-family="Aptos,Aptos_MSFontService,sans-serif" font-weight="400" font-size="50" transform="matrix(1 0 0 1 3027.06 130)">Rockhampton</text><text fill="#F2F2F2" font-family="Aptos,Aptos_MSFontService,sans-serif" font-weight="400" font-size="50" transform="matrix(1 0 0 1 4050.44 274)">Maryborough</text><text fill="#F2F2F2" font-family="Aptos,Aptos_MSFontService,sans-serif" font-weight="400" font-size="50" transform="matrix(1 0 0 1 4055.3 334)">Fraser Coast</text><text fill="#F2F2F2" font-family="Aptos,Aptos_MSFontService,sans-serif" font-weight="400" font-size="50" transform="matrix(1 0 0 1 4058.29 565)">Nambour</text><text fill="#F2F2F2" font-family="Aptos,Aptos_MSFontService,sans-serif" font-weight="400" font-size="50" transform="matrix(1 0 0 1 4058.29 625)">Sunshine Coast</text><text fill="#F2F2F2" font-family="Aptos,Aptos_MSFontService,sans-serif" font-weight="400" font-size="50" transform="matrix(1 0 0 1 3665.28 120)">Bundaberg</text><rect x="2519" y="811" width="404" height="26.0001" fill="#AC8004"/><path d="M2967.01 285.032C2966.44 241.958 3000.89 206.577 3043.97 206.007 3044.07 206.006 3044.16 206.004 3044.26 206.003L3044.51 232.577C3016.11 232.845 2993.31 256.085 2993.58 284.486 2993.58 284.55 2993.58 284.615 2993.58 284.68Z" fill="#AC8004" fill-rule="evenodd"/><text fill="#F2F2F2" font-family="Aptos,Aptos_MSFontService,sans-serif" font-weight="400" font-size="50" transform="matrix(1 0 0 1 2413.95 782)">Mount Isa</text><text fill="#F2F2F2" font-family="Aptos,Aptos_MSFontService,sans-serif" font-weight="400" font-size="50" transform="matrix(1 0 0 1 2750.49 428)">Emerald</text><text fill="#F2F2F2" font-family="Aptos,Aptos_MSFontService,sans-serif" font-weight="400" font-size="50" transform="matrix(1 0 0 1 2702.47 625)">Longreach</text><text fill="#F2F2F2" font-family="Aptos,Aptos_MSFontService,sans-serif" font-weight="400" font-size="50" transform="matrix(1 0 0 1 2746.83 894)">Winton</text><g clip-path="url(#clip0)"><g clip-path="url(#clip1)"><g clip-path="url(#clip2)"><path d="M3837.18 2863.66 3840.59 2860.25 3837.37 2841.46 3844.77 2834.06C3846.25 2832.57 3847.43 2829.88 3846.29 2828.74 3845.19 2827.64 3842.46 2828.78 3840.97 2830.26L3833.57 2837.66 3814.78 2834.43 3811.37 2837.85 3827.88 2843.35 3819.6 2851.63 3812.51 2851.14 3810.23 2853.41 3818.2 2856.83 3821.62 2864.8 3823.89 2862.52 3823.4 2855.43 3831.67 2847.15 3837.18 2863.66Z" fill="#F2F2F2"/></g></g></g><g clip-path="url(#clip3)"><g clip-path="url(#clip4)"><g clip-path="url(#clip5)"><path d="M676.57 2100.67 679.986 2097.25 676.76 2078.46 684.162 2071.06C685.642 2069.58 686.819 2066.89 685.68 2065.75 684.579 2064.65 681.846 2065.79 680.366 2067.27L672.964 2074.67 654.175 2071.44 650.759 2074.86 667.27 2080.36 658.995 2088.64 651.897 2088.14 649.62 2090.42 657.591 2093.84 661.007 2101.81 663.285 2099.53 662.791 2092.43 671.066 2084.16 676.57 2100.67Z" fill="#F2F2F2"/></g></g></g><text fill="#F2F2F2" font-family="Aptos,Aptos_MSFontService,sans-serif" font-style="italic" font-weight="400" font-size="28" transform="matrix(1 0 0 1 1608.58 2369)">Supplies and day excursion only.</text><text fill="#F2F2F2" font-family="Aptos,Aptos_MSFontService,sans-serif" font-style="italic" font-weight="400" font-size="28" transform="matrix(1 0 0 1 1602.85 2402)">All passengers must reboard train </text><text fill="#F2F2F2" font-family="Aptos,Aptos_MSFontService,sans-serif" font-style="italic" font-weight="400" font-size="28" transform="matrix(1 0 0 1 1693.67 2435)">prior to departure.</text><path d="M3971.99 1357.97C3972.56 1401.04 3938.11 1436.42 3895.03 1436.99 3894.93 1436.99 3894.83 1437 3894.74 1437L3894.49 1410.42C3922.89 1410.16 3945.69 1386.91 3945.42 1358.51 3945.42 1358.45 3945.42 1358.38 3945.42 1358.32Z" fill="#AC8004" fill-rule="evenodd"/><rect x="3449" y="1410" width="448" height="25.9998" fill="#AC8004"/><path d="M3934.5 1206.5C3934.5 1192.14 3946.14 1180.5 3960.5 1180.5L3960.5 1180.5C3974.86 1180.5 3986.5 1192.14 3986.5 1206.5L3986.5 1206.5C3986.5 1220.86 3974.86 1232.5 3960.5 1232.5L3960.5 1232.5C3946.14 1232.5 3934.5 1220.86 3934.5 1206.5Z" stroke="#404040" stroke-width="4.58333" stroke-miterlimit="8" fill="#AC8004" fill-rule="evenodd"/><rect x="3989" y="282" width="26.0002" height="628" fill="#92D050"/><text fill="#F2F2F2" font-family="Aptos,Aptos_MSFontService,sans-serif" font-weight="400" font-size="50" transform="matrix(1 0 0 1 4528.67 847)">Gold Coast </text><text fill="#F2F2F2" font-family="Aptos,Aptos_MSFontService,sans-serif" font-weight="400" font-size="50" transform="matrix(1 0 0 1 4516.64 907)">Coolangatta</text><text fill="#F2F2F2" font-family="Aptos,Aptos_MSFontService,sans-serif" font-weight="400" font-size="50" transform="matrix(1 0 0 1 4577.94 968)">Airport</text><path d="M4420.03 2823.99C4376.96 2824.56 4341.58 2790.11 4341.01 2747.03 4341.01 2746.93 4341 2746.84 4341 2746.74L4367.58 2746.49C4367.85 2774.89 4391.09 2797.69 4419.49 2797.42 4419.55 2797.42 4419.62 2797.42 4419.68 2797.42Z" fill="#00B0F0" fill-rule="evenodd"/><rect x="4341" y="2495" width="26" height="260" fill="#00B0F0"/><path d="M4287.97 2423.01C4331.04 2422.44 4366.42 2456.89 4366.99 2499.97 4366.99 2500.07 4367 2500.16 4367 2500.26L4340.42 2500.51C4340.15 2472.11 4316.91 2449.31 4288.51 2449.58 4288.45 2449.58 4288.38 2449.58 4288.32 2449.58Z" fill="#00B0F0" fill-rule="evenodd"/><rect x="4416" y="2798" width="270" height="25.9998" fill="#00B0F0"/><path d="M4601.5 2881.5C4587.14 2881.5 4575.5 2869.86 4575.5 2855.5L4575.5 2803.5C4575.5 2789.14 4587.14 2777.5 4601.5 2777.5L4601.5 2777.5C4615.86 2777.5 4627.5 2789.14 4627.5 2803.5L4627.5 2855.5C4627.5 2869.86 4615.86 2881.5 4601.5 2881.5Z" stroke="#404040" stroke-width="4.58333" stroke-miterlimit="8" fill="#AEAEAE" fill-rule="evenodd"/><g clip-path="url(#clip6)"><g clip-path="url(#clip7)"><g clip-path="url(#clip8)"><path d="M4608.13 2848.8 4611.55 2845.39 4608.32 2826.6 4615.72 2819.2C4617.2 2817.72 4618.38 2815.02 4617.24 2813.88 4616.14 2812.78 4613.41 2813.92 4611.93 2815.4L4604.52 2822.8 4585.73 2819.58 4582.32 2822.99 4598.83 2828.5 4590.55 2836.77 4583.46 2836.28 4581.18 2838.56 4589.15 2841.97 4592.57 2849.94 4594.84 2847.67 4594.35 2840.57 4602.63 2832.29 4608.13 2848.8Z" fill="#F2F2F2"/></g></g></g><text fill="#F2F2F2" font-family="Aptos,Aptos_MSFontService,sans-serif" font-weight="400" font-size="50" transform="matrix(1 0 0 1 3569.01 2525)">Orange</text><path d="M620.5 1498.5C620.5 1484.14 632.141 1472.5 646.5 1472.5L646.5 1472.5C660.859 1472.5 672.5 1484.14 672.5 1498.5L672.5 1498.5C672.5 1512.86 660.859 1524.5 646.5 1524.5L646.5 1524.5C632.141 1524.5 620.5 1512.86 620.5 1498.5Z" stroke="#404040" stroke-width="4.58333" stroke-miterlimit="8" fill="#F97FE8" fill-rule="evenodd"/><text fill="#F2F2F2" font-family="Aptos,Aptos_MSFontService,sans-serif" font-weight="400" font-size="50" transform="matrix(1 0 0 1 4090.9 2578)">Katoomba </text><text fill="#F2F2F2" font-family="Aptos,Aptos_MSFontService,sans-serif" font-weight="400" font-size="50" transform="matrix(1 0 0 1 3986.63 2638)">Blue Mountains</text><rect x="0" y="0" width="1881" height="25.9998" fill="#00B0F0" transform="matrix(-1 0 0 1 4292 2423)"/><path d="M3952.5 2439.5C3952.5 2425.14 3964.14 2413.5 3978.5 2413.5L3978.5 2413.5C3992.86 2413.5 4004.5 2425.14 4004.5 2439.5L4004.5 2439.5C4004.5 2453.86 3992.86 2465.5 3978.5 2465.5L3978.5 2465.5C3964.14 2465.5 3952.5 2453.86 3952.5 2439.5Z" stroke="#404040" stroke-width="4.58333" stroke-miterlimit="8" fill="#00B0F0" fill-rule="evenodd"/><path d="M3629.5 2439.5C3629.5 2425.14 3641.14 2413.5 3655.5 2413.5L3655.5 2413.5C3669.86 2413.5 3681.5 2425.14 3681.5 2439.5L3681.5 2439.5C3681.5 2453.86 3669.86 2465.5 3655.5 2465.5L3655.5 2465.5C3641.14 2465.5 3629.5 2453.86 3629.5 2439.5Z" stroke="#404040" stroke-width="4.58333" stroke-miterlimit="8" fill="#00B0F0" fill-rule="evenodd"/><path d="M4330.5 2609.5C4330.5 2595.14 4342.14 2583.5 4356.5 2583.5L4356.5 2583.5C4370.86 2583.5 4382.5 2595.14 4382.5 2609.5L4382.5 2609.5C4382.5 2623.86 4370.86 2635.5 4356.5 2635.5L4356.5 2635.5C4342.14 2635.5 4330.5 2623.86 4330.5 2609.5Z" stroke="#404040" stroke-width="4.58333" stroke-miterlimit="8" fill="#00B0F0" fill-rule="evenodd"/><path d="M2367.5 3142.5C2367.5 3128.14 2379.14 3116.5 2393.5 3116.5L2393.5 3116.5C2407.86 3116.5 2419.5 3128.14 2419.5 3142.5L2419.5 3142.5C2419.5 3156.86 2407.86 3168.5 2393.5 3168.5L2393.5 3168.5C2379.14 3168.5 2367.5 3156.86 2367.5 3142.5Z" stroke="#404040" stroke-width="4.58333" stroke-miterlimit="8" fill="#00C057" fill-rule="evenodd"/><text fill="#F2F2F2" font-family="Aptos,Aptos_MSFontService,sans-serif" font-weight="400" font-size="50" transform="matrix(1 0 0 1 2136.07 3156)">Horsham</text><path d="M2367.5 3317.5C2367.5 3303.14 2379.14 3291.5 2393.5 3291.5L2393.5 3291.5C2407.86 3291.5 2419.5 3303.14 2419.5 3317.5L2419.5 3317.5C2419.5 3331.86 2407.86 3343.5 2393.5 3343.5L2393.5 3343.5C2379.14 3343.5 2367.5 3331.86 2367.5 3317.5Z" stroke="#404040" stroke-width="4.58333" stroke-miterlimit="8" fill="#00C057" fill-rule="evenodd"/><text fill="#F2F2F2" font-family="Aptos,Aptos_MSFontService,sans-serif" font-weight="400" font-size="50" transform="matrix(1 0 0 1 2192.18 3329)">Ararat</text><rect x="4784" y="2930" width="26" height="444" fill="#00B0F0"/><rect x="4744" y="2929" width="26" height="445" fill="#F6BB00"/><path d="M4723.5 3384.5C4723.5 3370.14 4735.14 3358.5 4749.5 3358.5L4853.5 3358.5C4867.86 3358.5 4879.5 3370.14 4879.5 3384.5L4879.5 3384.5C4879.5 3398.86 4867.86 3410.5 4853.5 3410.5L4749.5 3410.5C4735.14 3410.5 4723.5 3398.86 4723.5 3384.5Z" stroke="#404040" stroke-width="4.58333" stroke-miterlimit="8" fill="#F2F2F2" fill-rule="evenodd"/><path d="M4726.5 3160.5C4726.5 3146.14 4738.14 3134.5 4752.5 3134.5L4856.5 3134.5C4870.86 3134.5 4882.5 3146.14 4882.5 3160.5L4882.5 3160.5C4882.5 3174.86 4870.86 3186.5 4856.5 3186.5L4752.5 3186.5C4738.14 3186.5 4726.5 3174.86 4726.5 3160.5Z" stroke="#404040" stroke-width="4.58333" stroke-miterlimit="8" fill="#AEAEAE" fill-rule="evenodd"/><g clip-path="url(#clip9)"><g clip-path="url(#clip10)"><g clip-path="url(#clip11)"><path d="M4809.74 3180.13 4813.16 3176.71 4809.93 3157.92 4817.33 3150.52C4818.81 3149.04 4819.99 3146.35 4818.85 3145.21 4817.75 3144.11 4815.02 3145.25 4813.54 3146.73L4806.13 3154.13 4787.34 3150.9 4783.93 3154.32 4800.44 3159.82 4792.16 3168.1 4785.07 3167.6 4782.79 3169.88 4790.76 3173.3 4794.18 3181.27 4796.45 3178.99 4795.96 3171.89 4804.24 3163.62 4809.74 3180.13Z" fill="#F2F2F2"/></g></g></g><path d="M2557.5 2433.5C2557.5 2419.14 2569.14 2407.5 2583.5 2407.5L2583.5 2407.5C2597.86 2407.5 2609.5 2419.14 2609.5 2433.5L2609.5 2433.5C2609.5 2447.86 2597.86 2459.5 2583.5 2459.5L2583.5 2459.5C2569.14 2459.5 2557.5 2447.86 2557.5 2433.5Z" stroke="#404040" stroke-width="4.58333" stroke-miterlimit="8" fill="#00B0F0" fill-rule="evenodd"/><text fill="#F2F2F2" font-family="Aptos,Aptos_MSFontService,sans-serif" font-weight="400" font-size="50" transform="matrix(1 0 0 1 2470.57 2332)">Greenock</text><text fill="#F2F2F2" font-family="Aptos,Aptos_MSFontService,sans-serif" font-weight="400" font-size="50" transform="matrix(1 0 0 1 2416.14 2392)">Barossa Valley</text><path d="M2895.5 2437.5C2895.5 2423.14 2907.14 2411.5 2921.5 2411.5L2921.5 2411.5C2935.86 2411.5 2947.5 2423.14 2947.5 2437.5L2947.5 2437.5C2947.5 2451.86 2935.86 2463.5 2921.5 2463.5L2921.5 2463.5C2907.14 2463.5 2895.5 2451.86 2895.5 2437.5Z" stroke="#404040" stroke-width="4.58333" stroke-miterlimit="8" fill="#00B0F0" fill-rule="evenodd"/><path d="M3358.5 2469.5C3344.14 2469.5 3332.5 2457.86 3332.5 2443.5L3332.5 2391.5C3332.5 2377.14 3344.14 2365.5 3358.5 2365.5L3358.5 2365.5C3372.86 2365.5 3384.5 2377.14 3384.5 2391.5L3384.5 2443.5C3384.5 2457.86 3372.86 2469.5 3358.5 2469.5Z" stroke="#404040" stroke-width="4.58333" stroke-miterlimit="8" fill="#F2F2F2" fill-rule="evenodd"/><rect x="3152" y="2461" width="26.0002" height="681" fill="#0066FF"/><text fill="#F2F2F2" font-family="Aptos,Aptos_MSFontService,sans-serif" font-weight="400" font-size="50" transform="matrix(1 0 0 1 2812.18 2716)">Wagga Wagga</text><path d="M3138.5 2700.5C3138.5 2686.14 3150.14 2674.5 3164.5 2674.5L3164.5 2674.5C3178.86 2674.5 3190.5 2686.14 3190.5 2700.5L3190.5 2700.5C3190.5 2714.86 3178.86 2726.5 3164.5 2726.5L3164.5 2726.5C3150.14 2726.5 3138.5 2714.86 3138.5 2700.5Z" stroke="#404040" stroke-width="4.58333" stroke-miterlimit="8" fill="#0066FF" fill-rule="evenodd"/><path d="M3137.5 2942.5C3137.5 2928.14 3149.14 2916.5 3163.5 2916.5L3215.5 2916.5C3229.86 2916.5 3241.5 2928.14 3241.5 2942.5L3241.5 2942.5C3241.5 2956.86 3229.86 2968.5 3215.5 2968.5L3163.5 2968.5C3149.14 2968.5 3137.5 2956.86 3137.5 2942.5Z" stroke="#404040" stroke-width="4.58333" stroke-miterlimit="8" fill="#F2F2F2" fill-rule="evenodd"/><path d="M1794 2253C1794 2245.82 1799.82 2240 1807 2240 1814.18 2240 1820 2245.82 1820 2253 1820 2260.18 1814.18 2266 1807 2266 1799.82 2266 1794 2260.18 1794 2253Z" fill="#404040" fill-rule="evenodd"/><rect x="4111" y="1038" width="629" height="25.9998" fill="#92D050"/><path d="M4116.55 1063.99C4051.94 1064.84 3998.87 1013.16 3998.01 948.548 3998.01 948.414 3998.01 948.28 3998.01 948.146L4023.82 947.893C4024.32 998.248 4065.54 1038.67 4115.89 1038.18 4116 1038.18 4116.1 1038.17 4116.21 1038.17Z" fill="#92D050" fill-rule="evenodd"/><path d="M4287.5 1089.5C4273.14 1089.5 4261.5 1077.86 4261.5 1063.5L4261.5 1011.5C4261.5 997.14 4273.14 985.5 4287.5 985.5L4287.5 985.5C4301.86 985.5 4313.5 997.14 4313.5 1011.5L4313.5 1063.5C4313.5 1077.86 4301.86 1089.5 4287.5 1089.5Z" stroke="#404040" stroke-width="4.58333" stroke-miterlimit="8" fill="#F2F2F2" fill-rule="evenodd"/><text fill="#F2F2F2" font-family="Aptos,Aptos_MSFontService,sans-serif" font-weight="400" font-size="50" transform="matrix(1 0 0 1 4884.05 1145)">Byron Bay</text><path d="M3980.5 578C3980.5 563.917 3991.92 552.5 4006 552.5L4007 552.5C4021.08 552.5 4032.5 563.917 4032.5 578L4032.5 578C4032.5 592.083 4021.08 603.5 4007 603.5L4006 603.5C3991.92 603.5 3980.5 592.083 3980.5 578Z" stroke="#404040" stroke-width="4.58333" stroke-miterlimit="8" fill="#92D050" fill-rule="evenodd"/><path d="M3897.95 168.01C3962.29 167.152 4015.14 218.834 4015.99 283.445 4015.99 283.583 4015.99 283.721 4015.99 283.859L3990.29 284.111C3989.8 233.695 3948.76 193.223 3898.62 193.714 3898.51 193.715 3898.4 193.716 3898.29 193.717Z" fill="#92D050" fill-rule="evenodd"/><path d="M1723.5 179.5C1723.5 165.141 1735.14 153.5 1749.5 153.5L1749.5 153.5C1763.86 153.5 1775.5 165.141 1775.5 179.5L1775.5 179.5C1775.5 193.859 1763.86 205.5 1749.5 205.5L1749.5 205.5C1735.14 205.5 1723.5 193.859 1723.5 179.5Z" stroke="#404040" stroke-width="4.58333" stroke-miterlimit="8" fill="#92D050" fill-rule="evenodd"/><path d="M2020.5 179.5C2020.5 165.141 2032.14 153.5 2046.5 153.5L2046.5 153.5C2060.86 153.5 2072.5 165.141 2072.5 179.5L2072.5 179.5C2072.5 193.859 2060.86 205.5 2046.5 205.5L2046.5 205.5C2032.14 205.5 2020.5 193.859 2020.5 179.5Z" stroke="#404040" stroke-width="4.58333" stroke-miterlimit="8" fill="#92D050" fill-rule="evenodd"/><path d="M2359.5 179.5C2359.5 165.141 2371.14 153.5 2385.5 153.5L2385.5 153.5C2399.86 153.5 2411.5 165.141 2411.5 179.5L2411.5 179.5C2411.5 193.859 2399.86 205.5 2385.5 205.5L2385.5 205.5C2371.14 205.5 2359.5 193.859 2359.5 179.5Z" stroke="#404040" stroke-width="4.58333" stroke-miterlimit="8" fill="#92D050" fill-rule="evenodd"/><text fill="#F2F2F2" font-family="Aptos,Aptos_MSFontService,sans-serif" font-weight="400" font-size="50" transform="matrix(1 0 0 1 1689.58 261)">Cairns</text><text fill="#F2F2F2" font-family="Aptos,Aptos_MSFontService,sans-serif" font-weight="400" font-size="50" transform="matrix(1 0 0 1 2261.69 247)">Prosperpine</text><text fill="#F2F2F2" font-family="Aptos,Aptos_MSFontService,sans-serif" font-weight="400" font-size="50" transform="matrix(1 0 0 1 2251.38 307)">Whitsundays</text><text fill="#F2F2F2" font-family="Aptos,Aptos_MSFontService,sans-serif" font-weight="400" font-size="50" transform="matrix(1 0 0 1 1929.39 140)">Townsville</text><path d="M2737.5 179.5C2737.5 165.141 2749.14 153.5 2763.5 153.5L2763.5 153.5C2777.86 153.5 2789.5 165.141 2789.5 179.5L2789.5 179.5C2789.5 193.859 2777.86 205.5 2763.5 205.5L2763.5 205.5C2749.14 205.5 2737.5 193.859 2737.5 179.5Z" stroke="#404040" stroke-width="4.58333" stroke-miterlimit="8" fill="#92D050" fill-rule="evenodd"/><text fill="#F2F2F2" font-family="Aptos,Aptos_MSFontService,sans-serif" font-weight="400" font-size="50" transform="matrix(1 0 0 1 2668.34 137)">Mackay</text><path d="M3519.5 1636C3519.5 1621.92 3530.92 1610.5 3545 1610.5L3545 1610.5C3559.08 1610.5 3570.5 1621.92 3570.5 1636L3570.5 1637C3570.5 1651.08 3559.08 1662.5 3545 1662.5L3545 1662.5C3530.92 1662.5 3519.5 1651.08 3519.5 1637Z" stroke="#404040" stroke-width="4.58333" stroke-miterlimit="8" fill="#0066FF" fill-rule="evenodd"/><path d="M2993.99 758.968C2994.56 802.042 2960.11 837.423 2917.03 837.993 2916.93 837.994 2916.84 837.996 2916.74 837.997L2916.49 811.423C2944.89 811.155 2967.69 787.915 2967.42 759.514 2967.42 759.45 2967.42 759.385 2967.42 759.32Z" fill="#AC8004" fill-rule="evenodd"/><rect x="2967" y="275" width="26.0002" height="490" fill="#AC8004"/><path d="M2493.5 828.5C2493.5 814.141 2505.14 802.5 2519.5 802.5L2519.5 802.5C2533.86 802.5 2545.5 814.141 2545.5 828.5L2545.5 828.5C2545.5 842.859 2533.86 854.5 2519.5 854.5L2519.5 854.5C2505.14 854.5 2493.5 842.859 2493.5 828.5Z" stroke="#404040" stroke-width="4.58333" stroke-miterlimit="8" fill="#AC8004" fill-rule="evenodd"/><path d="M2953.5 407.5C2953.5 393.141 2965.14 381.5 2979.5 381.5L2979.5 381.5C2993.86 381.5 3005.5 393.141 3005.5 407.5L3005.5 407.5C3005.5 421.859 2993.86 433.5 2979.5 433.5L2979.5 433.5C2965.14 433.5 2953.5 421.859 2953.5 407.5Z" stroke="#404040" stroke-width="4.58333" stroke-miterlimit="8" fill="#AC8004" fill-rule="evenodd"/><path d="M2952.5 614.5C2952.5 600.141 2964.14 588.5 2978.5 588.5L2978.5 588.5C2992.86 588.5 3004.5 600.141 3004.5 614.5L3004.5 614.5C3004.5 628.859 2992.86 640.5 2978.5 640.5L2978.5 640.5C2964.14 640.5 2952.5 628.859 2952.5 614.5Z" stroke="#404040" stroke-width="4.58333" stroke-miterlimit="8" fill="#AC8004" fill-rule="evenodd"/><path d="M2791.5 822.5C2791.5 808.141 2803.14 796.5 2817.5 796.5L2817.5 796.5C2831.86 796.5 2843.5 808.141 2843.5 822.5L2843.5 822.5C2843.5 836.859 2831.86 848.5 2817.5 848.5L2817.5 848.5C2803.14 848.5 2791.5 836.859 2791.5 822.5Z" stroke="#404040" stroke-width="4.58333" stroke-miterlimit="8" fill="#AC8004" fill-rule="evenodd"/><path d="M3477.97 1444.01C3521.04 1443.44 3556.42 1477.89 3556.99 1520.97 3556.99 1521.07 3557 1521.17 3557 1521.26L3530.42 1521.51C3530.16 1493.11 3506.91 1470.31 3478.51 1470.58 3478.45 1470.58 3478.38 1470.58 3478.32 1470.58Z" fill="#0066FF" fill-rule="evenodd"/><rect x="3458" y="1443" width="25.9998" height="25.9998" fill="#0070C0"/><path d="M3440.5 1493.5C3426.14 1493.5 3414.5 1481.86 3414.5 1467.5L3414.5 1415.5C3414.5 1401.14 3426.14 1389.5 3440.5 1389.5L3440.5 1389.5C3454.86 1389.5 3466.5 1401.14 3466.5 1415.5L3466.5 1467.5C3466.5 1481.86 3454.86 1493.5 3440.5 1493.5Z" stroke="#404040" stroke-width="4.58333" stroke-miterlimit="8" fill="#F2F2F2" fill-rule="evenodd"/><path d="M2223.5 2602.5C2223.5 2588.14 2235.14 2576.5 2249.5 2576.5L2353.5 2576.5C2367.86 2576.5 2379.5 2588.14 2379.5 2602.5L2379.5 2602.5C2379.5 2616.86 2367.86 2628.5 2353.5 2628.5L2249.5 2628.5C2235.14 2628.5 2223.5 2616.86 2223.5 2602.5Z" stroke="#404040" stroke-width="4.58333" stroke-miterlimit="8" fill="#F2F2F2" fill-rule="evenodd"/><text fill="#F2F2F2" font-family="Aptos,Aptos_MSFontService,sans-serif" font-weight="400" font-size="50" transform="matrix(1 0 0 1 1718.72 2614)">Salisbury Interchange</text><path d="M4723.5 2922.5C4723.5 2908.14 4735.14 2896.5 4749.5 2896.5L4853.5 2896.5C4867.86 2896.5 4879.5 2908.14 4879.5 2922.5L4879.5 2922.5C4879.5 2936.86 4867.86 2948.5 4853.5 2948.5L4749.5 2948.5C4735.14 2948.5 4723.5 2936.86 4723.5 2922.5Z" stroke="#404040" stroke-width="4.58333" stroke-miterlimit="8" fill="#F2F2F2" fill-rule="evenodd"/><path d="M3929.5 747.5C3929.5 733.141 3941.14 721.5 3955.5 721.5L4006.5 721.5C4020.86 721.5 4032.5 733.141 4032.5 747.5L4032.5 747.5C4032.5 761.86 4020.86 773.5 4006.5 773.5L3955.5 773.5C3941.14 773.5 3929.5 761.86 3929.5 747.5Z" stroke="#404040" stroke-width="4.58333" stroke-miterlimit="8" fill="#AEAEAE" fill-rule="evenodd"/><g clip-path="url(#clip12)"><g clip-path="url(#clip13)"><g clip-path="url(#clip14)"><path d="M3986.59 767.168 3990.01 763.752 3986.78 744.962 3994.19 737.561C3995.67 736.08 3996.84 733.385 3995.7 732.246 3994.6 731.146 3991.87 732.284 3990.39 733.765L3982.99 741.167 3964.2 737.94 3960.78 741.356 3977.29 746.86 3969.02 755.135 3961.92 754.642 3959.64 756.919 3967.62 760.336 3971.03 768.307 3973.31 766.029 3972.82 758.931 3981.09 750.656 3986.59 767.168Z" fill="#F2F2F2"/></g></g></g><text fill="#F2F2F2" font-family="Aptos,Aptos_MSFontService,sans-serif" font-weight="400" font-size="50" transform="matrix(1 0 0 1 3629.63 1374)">Gatton</text><path d="M3678.5 1421.5C3678.5 1407.14 3690.14 1395.5 3704.5 1395.5L3704.5 1395.5C3718.86 1395.5 3730.5 1407.14 3730.5 1421.5L3730.5 1421.5C3730.5 1435.86 3718.86 1447.5 3704.5 1447.5L3704.5 1447.5C3690.14 1447.5 3678.5 1435.86 3678.5 1421.5Z" stroke="#404040" stroke-width="4.58333" stroke-miterlimit="8" fill="#AC8004" fill-rule="evenodd"/><text fill="#F2F2F2" font-family="Aptos,Aptos_MSFontService,sans-serif" font-weight="400" font-size="50" transform="matrix(1 0 0 1 3379.3 302)">Gladstone</text><path d="M3471.5 219.5C3471.5 205.141 3483.14 193.5 3497.5 193.5L3497.5 193.5C3511.86 193.5 3523.5 205.141 3523.5 219.5L3523.5 219.5C3523.5 233.859 3511.86 245.5 3497.5 245.5L3497.5 245.5C3483.14 245.5 3471.5 233.859 3471.5 219.5Z" stroke="#404040" stroke-width="4.58333" stroke-miterlimit="8" fill="#AC8004" fill-rule="evenodd"/><path d="M3929.5 425.5C3929.5 411.141 3941.14 399.5 3955.5 399.5L3955.5 399.5C3969.86 399.5 3981.5 411.141 3981.5 425.5L3981.5 425.5C3981.5 439.86 3969.86 451.5 3955.5 451.5L3955.5 451.5C3941.14 451.5 3929.5 439.86 3929.5 425.5Z" stroke="#404040" stroke-width="4.58333" stroke-miterlimit="8" fill="#AC8004" fill-rule="evenodd"/><text fill="#F2F2F2" font-family="Aptos,Aptos_MSFontService,sans-serif" font-weight="400" font-size="50" transform="matrix(1 0 0 1 3720.15 430)">Gympie</text><text fill="#F2F2F2" font-family="Aptos,Aptos_MSFontService,sans-serif" font-weight="400" font-size="50" transform="matrix(1 0 0 1 3263.98 3134)">Wangaratta</text><path d="M3137.5 3118.5C3137.5 3104.14 3149.14 3092.5 3163.5 3092.5L3215.5 3092.5C3229.86 3092.5 3241.5 3104.14 3241.5 3118.5L3241.5 3118.5C3241.5 3132.86 3229.86 3144.5 3215.5 3144.5L3163.5 3144.5C3149.14 3144.5 3137.5 3132.86 3137.5 3118.5Z" stroke="#404040" stroke-width="4.58333" stroke-miterlimit="8" fill="#F2F2F2" fill-rule="evenodd"/><text fill="#F2F2F2" font-family="Aptos,Aptos_MSFontService,sans-serif" font-weight="400" font-size="50" transform="matrix(1 0 0 1 3253.98 3294)">Seymour</text><path d="M2773.5 3733.5C2773.5 3719.14 2785.14 3707.5 2799.5 3707.5L2799.5 3707.5C2813.86 3707.5 2825.5 3719.14 2825.5 3733.5L2825.5 3733.5C2825.5 3747.86 2813.86 3759.5 2799.5 3759.5L2799.5 3759.5C2785.14 3759.5 2773.5 3747.86 2773.5 3733.5Z" stroke="#404040" stroke-width="4.58333" stroke-miterlimit="8" fill="#0066FF" fill-rule="evenodd"/><path d="M3268.03 3588.99C3224.96 3589.56 3189.58 3555.11 3189.01 3512.03 3189.01 3511.93 3189 3511.84 3189 3511.74L3215.58 3511.49C3215.84 3539.89 3239.09 3562.69 3267.49 3562.42 3267.55 3562.42 3267.62 3562.42 3267.68 3562.42Z" fill="#F6BB00" fill-rule="evenodd"/><path d="M3178.5 3433.5C3178.5 3419.14 3190.14 3407.5 3204.5 3407.5L3204.5 3407.5C3218.86 3407.5 3230.5 3419.14 3230.5 3433.5L3230.5 3433.5C3230.5 3447.86 3218.86 3459.5 3204.5 3459.5L3204.5 3459.5C3190.14 3459.5 3178.5 3447.86 3178.5 3433.5Z" stroke="#404040" stroke-width="4.58333" stroke-miterlimit="8" fill="#AEAEAE" fill-rule="evenodd"/><g clip-path="url(#clip15)"><g clip-path="url(#clip16)"><g clip-path="url(#clip17)"><path d="M3210.53 3452.75 3213.95 3449.33 3210.72 3430.54 3218.12 3423.14C3219.6 3421.66 3220.78 3418.96 3219.64 3417.83 3218.54 3416.73 3215.81 3417.86 3214.33 3419.34L3206.92 3426.75 3188.14 3423.52 3184.72 3426.94 3201.23 3432.44 3192.96 3440.71 3185.86 3440.22 3183.58 3442.5 3191.55 3445.92 3194.97 3453.89 3197.24 3451.61 3196.75 3444.51 3205.03 3436.24 3210.53 3452.75Z" fill="#F2F2F2"/></g></g></g><rect x="2824" y="3595" width="1608" height="26.0002" fill="#00C057"/><path d="M4178.5 3608.5C4178.5 3594.14 4190.14 3582.5 4204.5 3582.5L4204.5 3582.5C4218.86 3582.5 4230.5 3594.14 4230.5 3608.5L4230.5 3608.5C4230.5 3622.86 4218.86 3634.5 4204.5 3634.5L4204.5 3634.5C4190.14 3634.5 4178.5 3622.86 4178.5 3608.5Z" stroke="#404040" stroke-width="4.58333" stroke-miterlimit="8" fill="#00C057" fill-rule="evenodd"/><path d="M4401.5 3607.5C4401.5 3593.14 4413.14 3581.5 4427.5 3581.5L4427.5 3581.5C4441.86 3581.5 4453.5 3593.14 4453.5 3607.5L4453.5 3607.5C4453.5 3621.86 4441.86 3633.5 4427.5 3633.5L4427.5 3633.5C4413.14 3633.5 4401.5 3621.86 4401.5 3607.5Z" stroke="#404040" stroke-width="4.58333" stroke-miterlimit="8" fill="#00C057" fill-rule="evenodd"/><path d="M3443.5 3643.5C3429.14 3643.5 3417.5 3631.86 3417.5 3617.5L3417.5 3565.5C3417.5 3551.14 3429.14 3539.5 3443.5 3539.5L3443.5 3539.5C3457.86 3539.5 3469.5 3551.14 3469.5 3565.5L3469.5 3617.5C3469.5 3631.86 3457.86 3643.5 3443.5 3643.5Z" stroke="#404040" stroke-width="4.58333" stroke-miterlimit="8" fill="#F2F2F2" fill-rule="evenodd"/><path d="M3884.5 3645.5C3870.14 3645.5 3858.5 3633.86 3858.5 3619.5L3858.5 3567.5C3858.5 3553.14 3870.14 3541.5 3884.5 3541.5L3884.5 3541.5C3898.86 3541.5 3910.5 3553.14 3910.5 3567.5L3910.5 3619.5C3910.5 3633.86 3898.86 3645.5 3884.5 3645.5Z" stroke="#404040" stroke-width="4.58333" stroke-miterlimit="8" fill="#F2F2F2" fill-rule="evenodd"/><rect x="2751" y="3475" width="26.0002" height="78" fill="#00C057"/><path d="M2734.5 3507.5C2734.5 3493.14 2746.14 3481.5 2760.5 3481.5L2812.5 3481.5C2826.86 3481.5 2838.5 3493.14 2838.5 3507.5L2838.5 3507.5C2838.5 3521.86 2826.86 3533.5 2812.5 3533.5L2760.5 3533.5C2746.14 3533.5 2734.5 3521.86 2734.5 3507.5Z" stroke="#404040" stroke-width="4.58333" stroke-miterlimit="8" fill="#F2F2F2" fill-rule="evenodd"/><path d="M4732.97 1038.01C4776.04 1037.44 4811.42 1071.89 4811.99 1114.97 4812 1115.81 4812 1116.66 4811.99 1117.5L4785.42 1116.99C4785.97 1088.59 4763.39 1065.12 4734.99 1064.58 4734.43 1064.57 4733.88 1064.56 4733.32 1064.57Z" fill="#92D050" fill-rule="evenodd"/><path d="M4810.5 1498.5C4810.5 1484.14 4822.14 1472.5 4836.5 1472.5L4836.5 1472.5C4850.86 1472.5 4862.5 1484.14 4862.5 1498.5L4862.5 1498.5C4862.5 1512.86 4850.86 1524.5 4836.5 1524.5L4836.5 1524.5C4822.14 1524.5 4810.5 1512.86 4810.5 1498.5Z" stroke="#404040" stroke-width="4.58333" stroke-miterlimit="8" fill="#FF0000" fill-rule="evenodd"/><text fill="#F2F2F2" font-family="Aptos,Aptos_MSFontService,sans-serif" font-weight="400" font-size="50" transform="matrix(1 0 0 1 4882.16 1514)">Casino</text><path d="M3475.5 2847.5C3475.5 2833.14 3487.14 2821.5 3501.5 2821.5L3501.5 2821.5C3515.86 2821.5 3527.5 2833.14 3527.5 2847.5L3527.5 2847.5C3527.5 2861.86 3515.86 2873.5 3501.5 2873.5L3501.5 2873.5C3487.14 2873.5 3475.5 2861.86 3475.5 2847.5Z" stroke="#404040" stroke-width="4.58333" stroke-miterlimit="8" fill="#F6BB00" fill-rule="evenodd"/><path d="M234.5 621.334C234.5 615.35 239.35 610.5 245.333 610.5L691.667 610.5C697.65 610.5 702.5 615.35 702.5 621.334L702.5 664.666C702.5 670.65 697.65 675.5 691.667 675.5L245.333 675.5C239.35 675.5 234.5 670.65 234.5 664.666Z" stroke="#92D050" stroke-width="6.875" stroke-miterlimit="8" fill="#92D050" fill-rule="evenodd"/><text fill="#FFFFFF" font-family="Aptos,Aptos_MSFontService,sans-serif" font-weight="400" font-size="50" transform="matrix(1 0 0 1 276.345 659)">Capricorn Line</text><path d="M615.5 643C615.5 625.051 630.051 610.5 648 610.5L1277 610.5C1294.95 610.5 1309.5 625.051 1309.5 643L1309.5 643C1309.5 660.949 1294.95 675.5 1277 675.5L648 675.5C630.051 675.5 615.5 660.949 615.5 643Z" stroke="#92D050" stroke-width="6.875" stroke-miterlimit="8" fill="#F2F2F2" fill-rule="evenodd"/><text font-family="Aptos,Aptos_MSFontService,sans-serif" font-weight="400" font-size="37" transform="matrix(1 0 0 1 637.817 655)">Byron Bay to Cairns via Brisbane</text><path d="M1255.5 643C1255.5 625.051 1270.05 610.5 1288 610.5L1479 610.5C1496.95 610.5 1511.5 625.051 1511.5 643L1511.5 643C1511.5 660.949 1496.95 675.5 1479 675.5L1288 675.5C1270.05 675.5 1255.5 660.949 1255.5 643Z" stroke="#92D050" stroke-width="6.875" stroke-miterlimit="8" fill="#F2F2F2" fill-rule="evenodd"/><text font-family="Aptos,Aptos_MSFontService,sans-serif" font-weight="400" font-size="37" transform="matrix(1 0 0 1 1277.69 655)">7 hr 30 min</text><path d="M203.5 643C203.5 625.051 218.051 610.5 236 610.5L236 610.5C253.949 610.5 268.5 625.051 268.5 643L268.5 643C268.5 660.949 253.949 675.5 236 675.5L236 675.5C218.051 675.5 203.5 660.949 203.5 643Z" stroke="#92D050" stroke-width="6.875" stroke-miterlimit="8" fill="#F2F2F2" fill-rule="evenodd"/><text fill="#92D050" font-family="Aptos ExtraBold,Aptos ExtraBold_MSFontService,sans-serif" font-weight="800" font-size="48" transform="matrix(1 0 0 1 218.206 658)">Q</text><path d="M234.5 784.333C234.5 778.35 239.35 773.5 245.333 773.5L691.667 773.5C697.65 773.5 702.5 778.35 702.5 784.333L702.5 827.666C702.5 833.65 697.65 838.5 691.667 838.5L245.333 838.5C239.35 838.5 234.5 833.65 234.5 827.666Z" stroke="#AC8004" stroke-width="6.875" stroke-miterlimit="8" fill="#AC8004" fill-rule="evenodd"/><text fill="#FFFFFF" font-family="Aptos,Aptos_MSFontService,sans-serif" font-weight="400" font-size="50" transform="matrix(1 0 0 1 276.345 822)">Gulf Line</text><path d="M615.5 806C615.5 788.051 630.051 773.5 648 773.5L1277 773.5C1294.95 773.5 1309.5 788.051 1309.5 806L1309.5 806C1309.5 823.949 1294.95 838.5 1277 838.5L648 838.5C630.051 838.5 615.5 823.949 615.5 806Z" stroke="#AC8004" stroke-width="6.875" stroke-miterlimit="8" fill="#F2F2F2" fill-rule="evenodd"/><text font-family="Aptos,Aptos_MSFontService,sans-serif" font-weight="400" font-size="37" transform="matrix(1 0 0 1 637.817 818)">Toowoomba to Mount Isa via Brisbane</text><path d="M1255.5 806C1255.5 788.051 1270.05 773.5 1288 773.5L1479 773.5C1496.95 773.5 1511.5 788.051 1511.5 806L1511.5 806C1511.5 823.949 1496.95 838.5 1479 838.5L1288 838.5C1270.05 838.5 1255.5 823.949 1255.5 806Z" stroke="#AC8004" stroke-width="6.875" stroke-miterlimit="8" fill="#F2F2F2" fill-rule="evenodd"/><text font-family="Aptos,Aptos_MSFontService,sans-serif" font-weight="400" font-size="37" transform="matrix(1 0 0 1 1277.69 818)">8 hours</text><path d="M203.5 806C203.5 788.051 218.051 773.5 236 773.5L236 773.5C253.949 773.5 268.5 788.051 268.5 806L268.5 806C268.5 823.949 253.949 838.5 236 838.5L236 838.5C218.051 838.5 203.5 823.949 203.5 806Z" stroke="#AC8004" stroke-width="6.875" stroke-miterlimit="8" fill="#F2F2F2" fill-rule="evenodd"/><text fill="#AC8004" font-family="Aptos ExtraBold,Aptos ExtraBold_MSFontService,sans-serif" font-weight="800" font-size="48" transform="matrix(1 0 0 1 218.492 821)">G</text><path d="M234.5 1273.33C234.5 1267.35 239.35 1262.5 245.333 1262.5L691.667 1262.5C697.65 1262.5 702.5 1267.35 702.5 1273.33L702.5 1316.67C702.5 1322.65 697.65 1327.5 691.667 1327.5L245.333 1327.5C239.35 1327.5 234.5 1322.65 234.5 1316.67Z" stroke="#F97FE8" stroke-width="6.875" stroke-miterlimit="8" fill="#F97FE8" fill-rule="evenodd"/><text fill="#FFFFFF" font-family="Aptos,Aptos_MSFontService,sans-serif" font-weight="400" font-size="50" transform="matrix(1 0 0 1 276.345 1311)">Western Line</text><path d="M615.5 1295C615.5 1277.05 630.051 1262.5 648 1262.5L1277 1262.5C1294.95 1262.5 1309.5 1277.05 1309.5 1295L1309.5 1295C1309.5 1312.95 1294.95 1327.5 1277 1327.5L648 1327.5C630.051 1327.5 615.5 1312.95 615.5 1295Z" stroke="#F97FE8" stroke-width="6.875" stroke-miterlimit="8" fill="#F2F2F2" fill-rule="evenodd"/><text font-family="Aptos,Aptos_MSFontService,sans-serif" font-weight="400" font-size="37" transform="matrix(1 0 0 1 637.817 1307)">Geraldton to Margaret River via Perth</text><path d="M1255.5 1295C1255.5 1277.05 1270.05 1262.5 1288 1262.5L1479 1262.5C1496.95 1262.5 1511.5 1277.05 1511.5 1295L1511.5 1295C1511.5 1312.95 1496.95 1327.5 1479 1327.5L1288 1327.5C1270.05 1327.5 1255.5 1312.95 1255.5 1295Z" stroke="#F97FE8" stroke-width="6.875" stroke-miterlimit="8" fill="#F2F2F2" fill-rule="evenodd"/><text font-family="Aptos,Aptos_MSFontService,sans-serif" font-weight="400" font-size="37" transform="matrix(1 0 0 1 1277.69 1307)">2 hr 45 min</text><path d="M203.5 1295C203.5 1277.05 218.051 1262.5 236 1262.5L236 1262.5C253.949 1262.5 268.5 1277.05 268.5 1295L268.5 1295C268.5 1312.95 253.949 1327.5 236 1327.5L236 1327.5C218.051 1327.5 203.5 1312.95 203.5 1295Z" stroke="#F97FE8" stroke-width="6.875" stroke-miterlimit="8" fill="#F2F2F2" fill-rule="evenodd"/><text fill="#F97FE8" font-family="Aptos ExtraBold,Aptos ExtraBold_MSFontService,sans-serif" font-weight="800" font-size="48" transform="matrix(1 0 0 1 212.763 1310)">W</text><path d="M234.5 947.333C234.5 941.35 239.35 936.5 245.333 936.5L691.667 936.5C697.65 936.5 702.5 941.35 702.5 947.333L702.5 990.666C702.5 996.649 697.65 1001.5 691.667 1001.5L245.333 1001.5C239.35 1001.5 234.5 996.649 234.5 990.666Z" stroke="#9966FF" stroke-width="6.875" stroke-miterlimit="8" fill="#9966FF" fill-rule="evenodd"/><text fill="#FFFFFF" font-family="Aptos,Aptos_MSFontService,sans-serif" font-weight="400" font-size="50" transform="matrix(1 0 0 1 276.345 985)">Nullarbor Line</text><path d="M615.5 969C615.5 951.051 630.051 936.5 648 936.5L1277 936.5C1294.95 936.5 1309.5 951.051 1309.5 969L1309.5 969C1309.5 986.949 1294.95 1001.5 1277 1001.5L648 1001.5C630.051 1001.5 615.5 986.949 615.5 969Z" stroke="#9966FF" stroke-width="6.875" stroke-miterlimit="8" fill="#F2F2F2" fill-rule="evenodd"/><text font-family="Aptos,Aptos_MSFontService,sans-serif" font-weight="400" font-size="37" transform="matrix(1 0 0 1 637.817 981)">Adelaide to Perth via Kalgoorlie</text><path d="M1255.5 969C1255.5 951.051 1270.05 936.5 1288 936.5L1479 936.5C1496.95 936.5 1511.5 951.051 1511.5 969L1511.5 969C1511.5 986.949 1496.95 1001.5 1479 1001.5L1288 1001.5C1270.05 1001.5 1255.5 986.949 1255.5 969Z" stroke="#9966FF" stroke-width="6.875" stroke-miterlimit="8" fill="#F2F2F2" fill-rule="evenodd"/><text font-family="Aptos,Aptos_MSFontService,sans-serif" font-weight="400" font-size="37" transform="matrix(1 0 0 1 1277.69 981)">12 hours</text><path d="M203.5 969C203.5 951.051 218.051 936.5 236 936.5L236 936.5C253.949 936.5 268.5 951.051 268.5 969L268.5 969C268.5 986.949 253.949 1001.5 236 1001.5L236 1001.5C218.051 1001.5 203.5 986.949 203.5 969Z" stroke="#9966FF" stroke-width="6.875" stroke-miterlimit="8" fill="#F2F2F2" fill-rule="evenodd"/><text fill="#9966FF" font-family="Aptos ExtraBold,Aptos ExtraBold_MSFontService,sans-serif" font-weight="800" font-size="48" transform="matrix(1 0 0 1 218.492 984)">N</text><path d="M234.5 1029.33C234.5 1023.35 239.35 1018.5 245.333 1018.5L691.667 1018.5C697.65 1018.5 702.5 1023.35 702.5 1029.33L702.5 1072.67C702.5 1078.65 697.65 1083.5 691.667 1083.5L245.333 1083.5C239.35 1083.5 234.5 1078.65 234.5 1072.67Z" stroke="#E87132" stroke-width="6.875" stroke-miterlimit="8" fill="#E87132" fill-rule="evenodd"/><text fill="#FFFFFF" font-family="Aptos,Aptos_MSFontService,sans-serif" font-weight="400" font-size="50" transform="matrix(1 0 0 1 276.345 1067)">Outback Line</text><path d="M615.5 1051C615.5 1033.05 630.051 1018.5 648 1018.5L1277 1018.5C1294.95 1018.5 1309.5 1033.05 1309.5 1051L1309.5 1051C1309.5 1068.95 1294.95 1083.5 1277 1083.5L648 1083.5C630.051 1083.5 615.5 1068.95 615.5 1051Z" stroke="#E87132" stroke-width="6.875" stroke-miterlimit="8" fill="#F2F2F2" fill-rule="evenodd"/><text font-family="Aptos,Aptos_MSFontService,sans-serif" font-weight="400" font-size="37" transform="matrix(1 0 0 1 637.817 1062)">Adelaide to Darwin via Alice Springs</text><path d="M1255.5 1051C1255.5 1033.05 1270.05 1018.5 1288 1018.5L1479 1018.5C1496.95 1018.5 1511.5 1033.05 1511.5 1051L1511.5 1051C1511.5 1068.95 1496.95 1083.5 1479 1083.5L1288 1083.5C1270.05 1083.5 1255.5 1068.95 1255.5 1051Z" stroke="#E87132" stroke-width="6.875" stroke-miterlimit="8" fill="#F2F2F2" fill-rule="evenodd"/><text font-family="Aptos,Aptos_MSFontService,sans-serif" font-weight="400" font-size="37" transform="matrix(1 0 0 1 1277.69 1062)">11 hr 45 min</text><path d="M203.5 1051C203.5 1033.05 218.051 1018.5 236 1018.5L236 1018.5C253.949 1018.5 268.5 1033.05 268.5 1051L268.5 1051C268.5 1068.95 253.949 1083.5 236 1083.5L236 1083.5C218.051 1083.5 203.5 1068.95 203.5 1051Z" stroke="#E87132" stroke-width="6.875" stroke-miterlimit="8" fill="#F2F2F2" fill-rule="evenodd"/><text fill="#E87132" font-family="Aptos ExtraBold,Aptos ExtraBold_MSFontService,sans-serif" font-weight="800" font-size="48" transform="matrix(1 0 0 1 218.206 1065)">O</text><path d="M234.5 703.334C234.5 697.351 239.35 692.5 245.333 692.5L691.667 692.5C697.65 692.5 702.5 697.351 702.5 703.334L702.5 746.667C702.5 752.65 697.65 757.5 691.667 757.5L245.333 757.5C239.35 757.5 234.5 752.65 234.5 746.667Z" stroke="#00B0F0" stroke-width="6.875" stroke-miterlimit="8" fill="#00B0F0" fill-rule="evenodd"/><text fill="#FFFFFF" font-family="Aptos,Aptos_MSFontService,sans-serif" font-weight="400" font-size="50" transform="matrix(1 0 0 1 276.345 741)">Darling Line</text><path d="M615.5 725C615.5 707.051 630.051 692.5 648 692.5L1277 692.5C1294.95 692.5 1309.5 707.051 1309.5 725L1309.5 725C1309.5 742.949 1294.95 757.5 1277 757.5L648 757.5C630.051 757.5 615.5 742.949 615.5 725Z" stroke="#00B0F0" stroke-width="6.875" stroke-miterlimit="8" fill="#F2F2F2" fill-rule="evenodd"/><text font-family="Aptos,Aptos_MSFontService,sans-serif" font-weight="400" font-size="37" transform="matrix(1 0 0 1 637.817 736)">Sydney to Adelaide via Broken Hill</text><path d="M1255.5 725C1255.5 707.051 1270.05 692.5 1288 692.5L1479 692.5C1496.95 692.5 1511.5 707.051 1511.5 725L1511.5 725C1511.5 742.95 1496.95 757.5 1479 757.5L1288 757.5C1270.05 757.5 1255.5 742.949 1255.5 725Z" stroke="#00B0F0" stroke-width="6.875" stroke-miterlimit="8" fill="#F2F2F2" fill-rule="evenodd"/><text font-family="Aptos,Aptos_MSFontService,sans-serif" font-weight="400" font-size="37" transform="matrix(1 0 0 1 1277.69 736)">5 hr 30 min</text><path d="M203.5 725C203.5 707.051 218.051 692.5 236 692.5L236 692.5C253.949 692.5 268.5 707.051 268.5 725L268.5 725C268.5 742.949 253.949 757.5 236 757.5L236 757.5C218.051 757.5 203.5 742.949 203.5 725Z" stroke="#00B0F0" stroke-width="6.875" stroke-miterlimit="8" fill="#F2F2F2" fill-rule="evenodd"/><text fill="#00B0F0" font-family="Aptos ExtraBold,Aptos ExtraBold_MSFontService,sans-serif" font-weight="800" font-size="48" transform="matrix(1 0 0 1 218.779 739)">D</text><path d="M234.5 540.333C234.5 534.35 239.35 529.5 245.333 529.5L691.667 529.5C697.65 529.5 702.5 534.35 702.5 540.333L702.5 583.666C702.5 589.649 697.65 594.5 691.667 594.5L245.333 594.5C239.35 594.5 234.5 589.649 234.5 583.666Z" stroke="#F6BB00" stroke-width="6.875" stroke-miterlimit="8" fill="#F6BB00" fill-rule="evenodd"/><text fill="#FFFFFF" font-family="Aptos,Aptos_MSFontService,sans-serif" font-weight="400" font-size="50" transform="matrix(1 0 0 1 276.345 578)">Capital Line </text><path d="M615.5 562C615.5 544.051 630.051 529.5 648 529.5L1277 529.5C1294.95 529.5 1309.5 544.051 1309.5 562L1309.5 562C1309.5 579.949 1294.95 594.5 1277 594.5L648 594.5C630.051 594.5 615.5 579.949 615.5 562Z" stroke="#F6BB00" stroke-width="6.875" stroke-miterlimit="8" fill="#F2F2F2" fill-rule="evenodd"/><text font-family="Aptos,Aptos_MSFontService,sans-serif" font-weight="400" font-size="37" transform="matrix(1 0 0 1 637.817 573)">Melbourne to Sydney via Canberra</text><path d="M1255.5 562C1255.5 544.051 1270.05 529.5 1288 529.5L1479 529.5C1496.95 529.5 1511.5 544.051 1511.5 562L1511.5 562C1511.5 579.949 1496.95 594.5 1479 594.5L1288 594.5C1270.05 594.5 1255.5 579.949 1255.5 562Z" stroke="#F6BB00" stroke-width="6.875" stroke-miterlimit="8" fill="#F2F2F2" fill-rule="evenodd"/><text font-family="Aptos,Aptos_MSFontService,sans-serif" font-weight="400" font-size="37" transform="matrix(1 0 0 1 1277.69 573)">3 hr 15 min</text><path d="M203.5 562C203.5 544.051 218.051 529.5 236 529.5L236 529.5C253.949 529.5 268.5 544.051 268.5 562L268.5 562C268.5 579.949 253.949 594.5 236 594.5L236 594.5C218.051 594.5 203.5 579.949 203.5 562Z" stroke="#F6BB00" stroke-width="6.875" stroke-miterlimit="8" fill="#F2F2F2" fill-rule="evenodd"/><text fill="#F6BB00" font-family="Aptos ExtraBold,Aptos ExtraBold_MSFontService,sans-serif" font-weight="800" font-size="48" transform="matrix(1 0 0 1 218.779 576)">C</text><path d="M234.5 1110.33C234.5 1104.35 239.35 1099.5 245.333 1099.5L691.667 1099.5C697.65 1099.5 702.5 1104.35 702.5 1110.33L702.5 1153.67C702.5 1159.65 697.65 1164.5 691.667 1164.5L245.333 1164.5C239.35 1164.5 234.5 1159.65 234.5 1153.67Z" stroke="#FF0000" stroke-width="6.875" stroke-miterlimit="8" fill="#FF0000" fill-rule="evenodd"/><text fill="#FFFFFF" font-family="Aptos,Aptos_MSFontService,sans-serif" font-weight="400" font-size="50" transform="matrix(1 0 0 1 276.345 1148)">Pacific Line</text><path d="M615.5 1132C615.5 1114.05 630.051 1099.5 648 1099.5L1277 1099.5C1294.95 1099.5 1309.5 1114.05 1309.5 1132L1309.5 1132C1309.5 1149.95 1294.95 1164.5 1277 1164.5L648 1164.5C630.051 1164.5 615.5 1149.95 615.5 1132Z" stroke="#FF0000" stroke-width="6.875" stroke-miterlimit="8" fill="#F2F2F2" fill-rule="evenodd"/><text font-family="Aptos,Aptos_MSFontService,sans-serif" font-weight="400" font-size="37" transform="matrix(1 0 0 1 637.817 1144)">Sydney to Brisbane via Casino</text><path d="M1255.5 1132C1255.5 1114.05 1270.05 1099.5 1288 1099.5L1479 1099.5C1496.95 1099.5 1511.5 1114.05 1511.5 1132L1511.5 1132C1511.5 1149.95 1496.95 1164.5 1479 1164.5L1288 1164.5C1270.05 1164.5 1255.5 1149.95 1255.5 1132Z" stroke="#FF0000" stroke-width="6.875" stroke-miterlimit="8" fill="#F2F2F2" fill-rule="evenodd"/><text font-family="Aptos,Aptos_MSFontService,sans-serif" font-weight="400" font-size="37" transform="matrix(1 0 0 1 1277.69 1144)">4 hr 15 min</text><path d="M203.5 1132C203.5 1114.05 218.051 1099.5 236 1099.5L236 1099.5C253.949 1099.5 268.5 1114.05 268.5 1132L268.5 1132C268.5 1149.95 253.949 1164.5 236 1164.5L236 1164.5C218.051 1164.5 203.5 1149.95 203.5 1132Z" stroke="#FF0000" stroke-width="6.875" stroke-miterlimit="8" fill="#F2F2F2" fill-rule="evenodd"/><text fill="#FF0000" font-family="Aptos ExtraBold,Aptos ExtraBold_MSFontService,sans-serif" font-weight="800" font-size="48" transform="matrix(1 0 0 1 221.07 1147)">P</text><path d="M234.5 866.334C234.5 860.35 239.35 855.5 245.333 855.5L691.667 855.5C697.65 855.5 702.5 860.35 702.5 866.334L702.5 909.667C702.5 915.65 697.65 920.5 691.667 920.5L245.333 920.5C239.35 920.5 234.5 915.65 234.5 909.667Z" stroke="#0066FF" stroke-width="6.875" stroke-miterlimit="8" fill="#0066FF" fill-rule="evenodd"/><text fill="#FFFFFF" font-family="Aptos,Aptos_MSFontService,sans-serif" font-weight="400" font-size="50" transform="matrix(1 0 0 1 276.345 904)">Inland Line</text><path d="M615.5 888C615.5 870.051 630.051 855.5 648 855.5L1277 855.5C1294.95 855.5 1309.5 870.051 1309.5 888L1309.5 888C1309.5 905.949 1294.95 920.5 1277 920.5L648 920.5C630.051 920.5 615.5 905.949 615.5 888Z" stroke="#0066FF" stroke-width="6.875" stroke-miterlimit="8" fill="#F2F2F2" fill-rule="evenodd"/><text font-family="Aptos,Aptos_MSFontService,sans-serif" font-weight="400" font-size="37" transform="matrix(1 0 0 1 637.817 899)">Geelong to Toowoomba via Dubbo</text><path d="M1255.5 888C1255.5 870.051 1270.05 855.5 1288 855.5L1479 855.5C1496.95 855.5 1511.5 870.051 1511.5 888L1511.5 888C1511.5 905.95 1496.95 920.5 1479 920.5L1288 920.5C1270.05 920.5 1255.5 905.949 1255.5 888Z" stroke="#0066FF" stroke-width="6.875" stroke-miterlimit="8" fill="#F2F2F2" fill-rule="evenodd"/><text font-family="Aptos,Aptos_MSFontService,sans-serif" font-weight="400" font-size="37" transform="matrix(1 0 0 1 1277.69 899)">6 hours</text><path d="M203.5 888C203.5 870.051 218.051 855.5 236 855.5L236 855.5C253.949 855.5 268.5 870.051 268.5 888L268.5 888C268.5 905.949 253.949 920.5 236 920.5L236 920.5C218.051 920.5 203.5 905.949 203.5 888Z" stroke="#0066FF" stroke-width="6.875" stroke-miterlimit="8" fill="#F2F2F2" fill-rule="evenodd"/><text fill="#0066FF" font-family="Aptos ExtraBold,Aptos ExtraBold_MSFontService,sans-serif" font-weight="800" font-size="48" transform="matrix(1 0 0 1 223.648 902)">L</text><path d="M234.5 1192.33C234.5 1186.35 239.35 1181.5 245.333 1181.5L691.667 1181.5C697.65 1181.5 702.5 1186.35 702.5 1192.33L702.5 1235.67C702.5 1241.65 697.65 1246.5 691.667 1246.5L245.333 1246.5C239.35 1246.5 234.5 1241.65 234.5 1235.67Z" stroke="#00C057" stroke-width="6.875" stroke-miterlimit="8" fill="#00C057" fill-rule="evenodd"/><text fill="#FFFFFF" font-family="Aptos,Aptos_MSFontService,sans-serif" font-weight="400" font-size="50" transform="matrix(1 0 0 1 276.345 1230)">Southern Line</text><path d="M615.5 1214C615.5 1196.05 630.051 1181.5 648 1181.5L1277 1181.5C1294.95 1181.5 1309.5 1196.05 1309.5 1214L1309.5 1214C1309.5 1231.95 1294.95 1246.5 1277 1246.5L648 1246.5C630.051 1246.5 615.5 1231.95 615.5 1214Z" stroke="#00C057" stroke-width="6.875" stroke-miterlimit="8" fill="#F2F2F2" fill-rule="evenodd"/><text font-family="Aptos,Aptos_MSFontService,sans-serif" font-weight="400" font-size="37" transform="matrix(1 0 0 1 637.817 1225)">Adelaide to Traralgon via Melbourne</text><path d="M1255.5 1214C1255.5 1196.05 1270.05 1181.5 1288 1181.5L1479 1181.5C1496.95 1181.5 1511.5 1196.05 1511.5 1214L1511.5 1214C1511.5 1231.95 1496.95 1246.5 1479 1246.5L1288 1246.5C1270.05 1246.5 1255.5 1231.95 1255.5 1214Z" stroke="#00C057" stroke-width="6.875" stroke-miterlimit="8" fill="#F2F2F2" fill-rule="evenodd"/><text font-family="Aptos,Aptos_MSFontService,sans-serif" font-weight="400" font-size="37" transform="matrix(1 0 0 1 1277.69 1225)">3 hr 30 min</text><path d="M203.5 1214C203.5 1196.05 218.051 1181.5 236 1181.5L236 1181.5C253.949 1181.5 268.5 1196.05 268.5 1214L268.5 1214C268.5 1231.95 253.949 1246.5 236 1246.5L236 1246.5C218.051 1246.5 203.5 1231.95 203.5 1214Z" stroke="#00C057" stroke-width="6.875" stroke-miterlimit="8" fill="#F2F2F2" fill-rule="evenodd"/><text fill="#00C057" font-family="Aptos ExtraBold,Aptos ExtraBold_MSFontService,sans-serif" font-weight="800" font-size="48" transform="matrix(1 0 0 1 221.357 1228)">S</text><path d="M3797.5 247.5C3783.14 247.5 3771.5 235.859 3771.5 221.5L3771.5 169.5C3771.5 155.14 3783.14 143.5 3797.5 143.5L3797.5 143.5C3811.86 143.5 3823.5 155.14 3823.5 169.5L3823.5 221.5C3823.5 235.859 3811.86 247.5 3797.5 247.5Z" stroke="#404040" stroke-width="4.58333" stroke-miterlimit="8" fill="#F2F2F2" fill-rule="evenodd"/><path d="M3177.5 253.5C3163.14 253.5 3151.5 241.859 3151.5 227.5L3151.5 175.5C3151.5 161.14 3163.14 149.5 3177.5 149.5L3177.5 149.5C3191.86 149.5 3203.5 161.14 3203.5 175.5L3203.5 227.5C3203.5 241.859 3191.86 253.5 3177.5 253.5Z" stroke="#404040" stroke-width="4.58333" stroke-miterlimit="8" fill="#F2F2F2" fill-rule="evenodd"/><text fill="#F2F2F2" font-family="Aptos ExtraBold,Aptos ExtraBold_MSFontService,sans-serif" font-weight="800" font-size="147" transform="matrix(1 0 0 1 191.65 179)">Australian High </text><text fill="#F2F2F2" font-family="Aptos ExtraBold,Aptos ExtraBold_MSFontService,sans-serif" font-weight="800" font-size="147" transform="matrix(1 0 0 1 191.65 355)">Speed Rail Network</text><text fill="#F2F2F2" font-family="Aptos,Aptos_MSFontService,sans-serif" font-weight="400" font-size="37" transform="matrix(1 0 0 1 256.178 3267)">Current as </text><text fill="#F2F2F2" font-family="Aptos,Aptos_MSFontService,sans-serif" font-weight="400" font-size="37" transform="matrix(1 0 0 1 429.771 3267)">at</text><text fill="#F2F2F2" font-family="Aptos,Aptos_MSFontService,sans-serif" font-weight="400" font-size="37" transform="matrix(1 0 0 1 468.73 3267)">July 2050. Not to scale.</text><path d="M225.5 2905.68C225.5 2896.74 232.743 2889.5 241.679 2889.5L1355.32 2889.5C1364.26 2889.5 1371.5 2896.74 1371.5 2905.68L1371.5 3205.32C1371.5 3214.26 1364.26 3221.5 1355.32 3221.5L241.679 3221.5C232.743 3221.5 225.5 3214.26 225.5 3205.32Z" stroke="#F2F2F2" stroke-width="6.875" stroke-miterlimit="8" fill="none" fill-rule="evenodd"/><rect x="636" y="3037" width="704" height="19" fill="#AEAEAE"/><rect x="348" y="3065" width="612" height="18.0002" fill="#AEAEAE"/><text fill="#F2F2F2" font-family="Aptos,Aptos_MSFontService,sans-serif" font-weight="400" font-size="28" transform="matrix(1 0 0 1 617.374 3125)">Transfer </text><text fill="#F2F2F2" font-family="Aptos,Aptos_MSFontService,sans-serif" font-weight="400" font-size="28" transform="matrix(1 0 0 1 624.523 3158)">station</text><path d="M638.748 3055.99C607.822 3056.41 582.418 3031.46 582.005 3000.25 582.004 3000.18 582.003 3000.1 582.002 3000.03L601.081 2999.85C601.271 3020.51 617.954 3037.11 638.344 3036.92 638.394 3036.92 638.445 3036.92 638.495 3036.92Z" fill="#AEAEAE" fill-rule="evenodd"/><text fill="#F2F2F2" font-family="Aptos,Aptos_MSFontService,sans-serif" font-weight="400" font-size="28" transform="matrix(1 0 0 1 749.711 2978)">Station on </text><text fill="#F2F2F2" font-family="Aptos,Aptos_MSFontService,sans-serif" font-weight="400" font-size="28" transform="matrix(1 0 0 1 736.236 3011)">one line only </text><path d="M789.5 3046C789.5 3035.78 797.783 3027.5 808 3027.5L808 3027.5C818.217 3027.5 826.5 3035.78 826.5 3046L826.5 3046C826.5 3056.22 818.217 3064.5 808 3064.5L808 3064.5C797.783 3064.5 789.5 3056.22 789.5 3046Z" stroke="#404040" stroke-width="4.58333" stroke-miterlimit="8" fill="#AEAEAE" fill-rule="evenodd"/><text fill="#F2F2F2" font-family="Aptos,Aptos_MSFontService,sans-serif" font-weight="400" font-size="28" transform="matrix(1 0 0 1 1181.44 3102)">Station with</text><text fill="#F2F2F2" font-family="Aptos,Aptos_MSFontService,sans-serif" font-weight="400" font-size="28" transform="matrix(1 0 0 1 1160.54 3135)">airport check in</text><path d="M470.5 3075C470.5 3064.78 478.783 3056.5 489 3056.5L490 3056.5C500.217 3056.5 508.5 3064.78 508.5 3075L508.5 3075C508.5 3085.22 500.217 3093.5 490 3093.5L489 3093.5C478.783 3093.5 470.5 3085.22 470.5 3075Z" stroke="#404040" stroke-width="4.58333" stroke-miterlimit="8" fill="#AEAEAE" fill-rule="evenodd"/><text fill="#F2F2F2" font-family="Aptos,Aptos_MSFontService,sans-serif" font-weight="400" font-size="28" transform="matrix(1 0 0 1 446.524 3046)">Station</text><text fill="#F2F2F2" font-family="Aptos ExtraBold,Aptos ExtraBold_MSFontService,sans-serif" font-style="italic" font-weight="800" font-size="28" transform="matrix(1 0 0 1 880.835 3155)">Capital city </text><text fill="#F2F2F2" font-family="Aptos ExtraBold,Aptos ExtraBold_MSFontService,sans-serif" font-style="italic" font-weight="800" font-size="28" transform="matrix(1 0 0 1 899.168 3188)">terminal</text><path d="M1088.5 3048C1088.5 3037.78 1096.78 3029.5 1107 3029.5L1108 3029.5C1118.22 3029.5 1126.5 3037.78 1126.5 3048L1126.5 3048C1126.5 3058.22 1118.22 3066.5 1108 3066.5L1107 3066.5C1096.78 3066.5 1088.5 3058.22 1088.5 3048Z" stroke="#404040" stroke-width="4.58333" stroke-miterlimit="8" fill="#AEAEAE" fill-rule="evenodd"/><text fill="#F2F2F2" font-family="Aptos,Aptos_MSFontService,sans-serif" font-weight="400" font-size="28" transform="matrix(1 0 0 1 1031.6 2983)">Limited stop </text><text fill="#F2F2F2" font-family="Aptos,Aptos_MSFontService,sans-serif" font-weight="400" font-size="28" transform="matrix(1 0 0 1 1063.98 3016)">station</text><path d="M1097 3047.5C1097 3042.25 1101.25 3038 1106.5 3038 1111.75 3038 1116 3042.25 1116 3047.5 1116 3052.75 1111.75 3057 1106.5 3057 1101.25 3057 1097 3052.75 1097 3047.5Z" fill="#404040" fill-rule="evenodd"/><path d="M320.5 3075C320.5 3064.78 328.783 3056.5 339 3056.5L340 3056.5C350.217 3056.5 358.5 3064.78 358.5 3075L358.5 3075C358.5 3085.22 350.217 3093.5 340 3093.5L339 3093.5C328.783 3093.5 320.5 3085.22 320.5 3075Z" stroke="#404040" stroke-width="4.58333" stroke-miterlimit="8" fill="#AEAEAE" fill-rule="evenodd"/><text fill="#F2F2F2" font-family="Aptos,Aptos_MSFontService,sans-serif" font-weight="400" font-size="28" transform="matrix(1 0 0 1 257.921 3122)">Line terminus</text><path d="M666.5 3095.5C656.007 3095.5 647.5 3086.99 647.5 3076.5L647.5 3039.5C647.5 3029.01 656.007 3020.5 666.5 3020.5L666.5 3020.5C676.993 3020.5 685.5 3029.01 685.5 3039.5L685.5 3076.5C685.5 3086.99 676.993 3095.5 666.5 3095.5Z" stroke="#404040" stroke-width="4.58333" stroke-miterlimit="8" fill="#F2F2F2" fill-rule="evenodd"/><path d="M1258 3067.5C1247.78 3067.5 1239.5 3059.22 1239.5 3049L1239.5 3049C1239.5 3038.78 1247.78 3030.5 1258 3030.5L1259 3030.5C1269.22 3030.5 1277.5 3038.78 1277.5 3049L1277.5 3049C1277.5 3059.22 1269.22 3067.5 1259 3067.5Z" stroke="#404040" stroke-width="4.58333" stroke-miterlimit="8" fill="#AEAEAE" fill-rule="evenodd"/><g clip-path="url(#clip18)"><g clip-path="url(#clip19)"><g clip-path="url(#clip20)"><path d="M1263.59 3061.98 1266.05 3059.52 1263.72 3045.95 1269.07 3040.61C1270.13 3039.54 1270.98 3037.6 1270.16 3036.78 1269.37 3035.98 1267.39 3036.8 1266.33 3037.87L1260.98 3043.21 1247.42 3040.89 1244.96 3043.35 1256.87 3047.32 1250.9 3053.3 1245.78 3052.94 1244.13 3054.58 1249.89 3057.05 1252.35 3062.8 1254 3061.16 1253.64 3056.04 1259.61 3050.06 1263.59 3061.98Z" fill="#F2F2F2"/></g></g></g><text fill="#F2F2F2" font-family="Aptos ExtraBold,Aptos ExtraBold_MSFontService,sans-serif" font-weight="800" font-size="55" transform="matrix(1 0 0 1 247.974 2951)">Map Symbols</text><rect x="831" y="3091" width="117" height="19" fill="#AEAEAE"/><path d="M776.005 3148.25C775.592 3117.05 800.551 3091.42 831.752 3091 831.824 3091 831.895 3091 831.966 3091L832.148 3110.25C811.576 3110.45 795.057 3127.28 795.251 3147.85 795.251 3147.9 795.252 3147.95 795.253 3147.99Z" fill="#AEAEAE" fill-rule="evenodd"/><path d="M949.5 3132.5C939.007 3132.5 930.5 3123.99 930.5 3113.5L930.5 3042.5C930.5 3032.01 939.007 3023.5 949.5 3023.5L949.5 3023.5C959.993 3023.5 968.5 3032.01 968.5 3042.5L968.5 3113.5C968.5 3123.99 959.993 3132.5 949.5 3132.5Z" stroke="#404040" stroke-width="4.58333" stroke-miterlimit="8" fill="#F2F2F2" fill-rule="evenodd"/><path d="M180.5 475.487C180.5 454.507 197.507 437.5 218.487 437.5L1498.51 437.5C1519.49 437.5 1536.5 454.507 1536.5 475.487L1536.5 1319.51C1536.5 1340.49 1519.49 1357.5 1498.51 1357.5L218.487 1357.5C197.507 1357.5 180.5 1340.49 180.5 1319.51Z" stroke="#F2F2F2" stroke-width="6.875" stroke-miterlimit="8" fill="none" fill-rule="evenodd"/><text fill="#F2F2F2" font-family="Aptos ExtraBold,Aptos ExtraBold_MSFontService,sans-serif" font-weight="800" font-size="55" transform="matrix(1 0 0 1 209.087 499)">High speed rail lines</text><text fill="#F2F2F2" font-family="Aptos ExtraBold,Aptos ExtraBold_MSFontService,sans-serif" font-weight="800" font-size="55" transform="matrix(1 0 0 1 979.044 499)">Approx. travel times</text><path d="M3978.5 286.5C3978.5 272.141 3990.14 260.5 4004.5 260.5L4004.5 260.5C4018.86 260.5 4030.5 272.141 4030.5 286.5L4030.5 286.5C4030.5 300.859 4018.86 312.5 4004.5 312.5L4004.5 312.5C3990.14 312.5 3978.5 300.859 3978.5 286.5Z" stroke="#404040" stroke-width="4.58333" stroke-miterlimit="8" fill="#92D050" fill-rule="evenodd"/><rect x="4115" y="1368" width="662" height="25.9998" fill="#FF0000"/><path d="M4769.97 1368.01C4813.04 1367.44 4848.42 1401.89 4848.99 1444.97 4849 1445.81 4849 1446.66 4848.99 1447.5L4822.42 1446.99C4822.97 1418.59 4800.39 1395.12 4771.99 1394.58 4771.43 1394.57 4770.88 1394.56 4770.32 1394.57Z" fill="#FF0000" fill-rule="evenodd"/><path d="M4116.03 1394.99C4072.96 1395.56 4037.58 1361.11 4037.01 1318.03 4037 1317.19 4037 1316.34 4037.01 1315.5L4063.58 1316.01C4063.03 1344.41 4085.61 1367.88 4114.01 1368.42 4114.57 1368.43 4115.12 1368.44 4115.68 1368.43Z" fill="#FF0000" fill-rule="evenodd"/><rect x="4037" y="944" width="26.0002" height="389" fill="#FF0000"/><rect x="4824" y="1377" width="26" height="17.9999" fill="#FF0000"/><rect x="4450" y="1000" width="17" height="26.0002" fill="#FF0000"/><path d="M4641.5 1085.5C4627.14 1085.5 4615.5 1073.86 4615.5 1059.5L4615.5 1007.5C4615.5 993.141 4627.14 981.5 4641.5 981.5L4641.5 981.5C4655.86 981.5 4667.5 993.141 4667.5 1007.5L4667.5 1059.5C4667.5 1073.86 4655.86 1085.5 4641.5 1085.5Z" stroke="#404040" stroke-width="4.58333" stroke-miterlimit="8" fill="#AEAEAE" fill-rule="evenodd"/><g clip-path="url(#clip21)"><g clip-path="url(#clip22)"><g clip-path="url(#clip23)"><path d="M4647.42 1053.04 4650.84 1049.63 4647.61 1030.84 4655.01 1023.44C4656.49 1021.96 4657.67 1019.26 4656.53 1018.12 4655.43 1017.02 4652.7 1018.16 4651.22 1019.64L4643.81 1027.04 4625.02 1023.82 4621.61 1027.23 4638.12 1032.74 4629.85 1041.01 4622.75 1040.52 4620.47 1042.79 4628.44 1046.21 4631.86 1054.18 4634.14 1051.9 4633.64 1044.81 4641.92 1036.53 4647.42 1053.04Z" fill="#F2F2F2"/></g></g></g><text fill="#F2F2F2" font-family="Aptos,Aptos_MSFontService,sans-serif" font-weight="400" font-size="50" transform="matrix(1 0 0 1 4882.16 1304)">Lismore</text><rect x="4475" y="1000" width="17" height="26.0002" fill="#FF0000"/><rect x="4500" y="1000" width="17" height="26.0002" fill="#FF0000"/><rect x="4525" y="1000" width="17" height="26.0002" fill="#FF0000"/><rect x="4576" y="1000" width="16" height="26.0002" fill="#FF0000"/><rect x="4601" y="1000" width="16" height="26.0002" fill="#FF0000"/><rect x="4824" y="1347" width="26" height="17.9999" fill="#FF0000"/><rect x="4824" y="1317" width="26" height="18.0002" fill="#FF0000"/><rect x="4824" y="1244" width="26" height="16.9999" fill="#FF0000"/><rect x="4824" y="1213" width="26" height="16.9999" fill="#FF0000"/><rect x="4824" y="1182" width="26" height="17.9999" fill="#FF0000"/><rect x="4824" y="1151" width="26" height="18.0002" fill="#FF0000"/><rect x="4675" y="1000" width="16" height="26.0002" fill="#FF0000"/><rect x="4703" y="1000" width="17" height="26.0002" fill="#FF0000"/><rect x="4551" y="1000" width="16" height="26.0002" fill="#FF0000"/><rect x="4824" y="1407" width="26" height="17.0002" fill="#FF0000"/><rect x="4731" y="1000" width="16" height="26.0002" fill="#FF0000"/><path d="M4762.1 1000.26 4778.04 1004.53 4771.31 1029.63 4755.37 1025.36Z" fill="#FF0000" fill-rule="evenodd"/><path d="M4794.85 1010.87 4806.51 1022.53 4788.14 1040.91 4776.47 1029.24Z" fill="#FF0000" fill-rule="evenodd"/><path d="M4822.61 1032.88 4830.86 1047.17 4808.35 1060.17 4800.1 1045.88Z" fill="#FF0000" fill-rule="evenodd"/><rect x="4820" y="1085" width="26" height="17.0002" fill="#FF0000"/><path d="M4839.5 1060.03 4843.77 1075.96 4818.68 1082.69 4814.41 1066.75Z" fill="#FF0000" fill-rule="evenodd"/><path d="M4761.5 1288.5C4761.5 1274.14 4773.14 1262.5 4787.5 1262.5L4839.5 1262.5C4853.86 1262.5 4865.5 1274.14 4865.5 1288.5L4865.5 1288.5C4865.5 1302.86 4853.86 1314.5 4839.5 1314.5L4787.5 1314.5C4773.14 1314.5 4761.5 1302.86 4761.5 1288.5Z" stroke="#404040" stroke-width="4.58333" stroke-miterlimit="8" fill="#F2F2F2" fill-rule="evenodd"/><rect x="4787" y="1244" width="26" height="16.9999" fill="#92D050"/><rect x="4787" y="1213" width="26" height="16.9999" fill="#92D050"/><rect x="4787" y="1182" width="26" height="17.9999" fill="#92D050"/><rect x="4787" y="1151" width="26" height="18.0002" fill="#92D050"/><path d="M4761.5 1131.5C4761.5 1117.14 4773.14 1105.5 4787.5 1105.5L4839.5 1105.5C4853.86 1105.5 4865.5 1117.14 4865.5 1131.5L4865.5 1131.5C4865.5 1145.86 4853.86 1157.5 4839.5 1157.5L4787.5 1157.5C4773.14 1157.5 4761.5 1145.86 4761.5 1131.5Z" stroke="#404040" stroke-width="4.58333" stroke-miterlimit="8" fill="#F2F2F2" fill-rule="evenodd"/><text fill="#F2F2F2" font-family="Aptos,Aptos_MSFontService,sans-serif" font-style="italic" font-weight="400" font-size="28" transform="matrix(1 0 0 1 4878.74 1389)">Casino to Byron Bay link via </text><text fill="#F2F2F2" font-family="Aptos,Aptos_MSFontService,sans-serif" font-style="italic" font-weight="400" font-size="28" transform="matrix(1 0 0 1 4878.74 1422)">Lismore under construction</text><path d="M4384.5 1382.5C4384.5 1368.14 4396.14 1356.5 4410.5 1356.5L4410.5 1356.5C4424.86 1356.5 4436.5 1368.14 4436.5 1382.5L4436.5 1382.5C4436.5 1396.86 4424.86 1408.5 4410.5 1408.5L4410.5 1408.5C4396.14 1408.5 4384.5 1396.86 4384.5 1382.5Z" stroke="#404040" stroke-width="4.58333" stroke-miterlimit="8" fill="#FF0000" fill-rule="evenodd"/><text fill="#F2F2F2" font-family="Aptos,Aptos_MSFontService,sans-serif" font-weight="400" font-size="50" transform="matrix(1 0 0 1 4283.59 1482)">Beaudesert</text><rect x="4145" y="1000" width="17" height="26.0002" fill="#FF0000"/><rect x="4170" y="1000" width="17" height="26.0002" fill="#FF0000"/><rect x="4195" y="1000" width="17" height="26.0002" fill="#FF0000"/><rect x="4221" y="1000" width="16" height="26.0002" fill="#FF0000"/><rect x="4317" y="1000" width="16" height="26.0002" fill="#FF0000"/><rect x="4343" y="1000" width="17" height="26.0002" fill="#FF0000"/><rect x="4370" y="1000" width="16" height="26.0002" fill="#FF0000"/><rect x="4398" y="1000" width="17" height="26.0002" fill="#FF0000"/><rect x="4246" y="1000" width="16" height="26.0002" fill="#FF0000"/><rect x="4426" y="1000" width="16" height="26.0002" fill="#FF0000"/><path d="M4108.83 1024.16 4092.89 1019.89 4099.61 994.792 4115.55 999.062Z" fill="#FF0000" fill-rule="evenodd"/><path d="M4077.68 1013.28 4066.01 1001.61 4084.38 983.239 4096.05 994.906Z" fill="#FF0000" fill-rule="evenodd"/><path d="M4057.28 993.228 4049.03 978.939 4071.54 965.947 4079.79 980.236Z" fill="#FF0000" fill-rule="evenodd"/><path d="M4040.39 966.085 4036.12 950.148 4061.21 943.422 4065.48 959.36Z" fill="#FF0000" fill-rule="evenodd"/><rect x="4120" y="1000" width="17" height="26.0002" fill="#FF0000"/><path d="M0 0 1.471 121.23" stroke="#156082" stroke-width="6.875" stroke-miterlimit="8" fill="none" fill-rule="evenodd" transform="matrix(-1 0 0 1 3226.97 3268.5)"/><path d="M3934.5 930.5C3934.5 916.141 3946.14 904.5 3960.5 904.5L4064.5 904.5C4078.86 904.5 4090.5 916.141 4090.5 930.5L4090.5 930.5C4090.5 944.86 4078.86 956.5 4064.5 956.5L3960.5 956.5C3946.14 956.5 3934.5 944.859 3934.5 930.5Z" stroke="#404040" stroke-width="4.58333" stroke-miterlimit="8" fill="#F2F2F2" fill-rule="evenodd"/><path d="M215.5 3498.71C215.5 3491.41 221.412 3485.5 228.706 3485.5L1348.29 3485.5C1355.59 3485.5 1361.5 3491.41 1361.5 3498.71L1361.5 3743.29C1361.5 3750.59 1355.59 3756.5 1348.29 3756.5L228.706 3756.5C221.412 3756.5 215.5 3750.59 215.5 3743.29Z" stroke="#F2F2F2" stroke-width="6.875" stroke-miterlimit="8" fill="#F2F2F2" fill-rule="evenodd"/><text fill="#002060" font-family="Aptos ExtraBold,Aptos ExtraBold_MSFontService,sans-serif" font-weight="800" font-size="202" transform="matrix(1 0 0 1 255.247 3670)">AU</text><text fill="#57BFE3" font-family="Aptos ExtraBold,Aptos ExtraBold_MSFontService,sans-serif" font-weight="800" font-size="202" transform="matrix(1 0 0 1 520.576 3670)">R</text><text fill="#FCBD30" font-family="Aptos ExtraBold,Aptos ExtraBold_MSFontService,sans-serif" font-weight="800" font-size="202" transform="matrix(1 0 0 1 646.779 3670)">O</text><text fill="#57BFE3" font-family="Aptos ExtraBold,Aptos ExtraBold_MSFontService,sans-serif" font-weight="800" font-size="202" transform="matrix(1 0 0 1 795.737 3670)">RA</text><text fill="#002060" font-family="Aptos Light,Aptos Light_MSFontService,sans-serif" font-weight="300" font-size="55" transform="matrix(1 0 0 1 252.325 3722)">Australian Regional Overland Rail</text><path d="M1086.35 3699.48C1162.06 3599.91 1204.38 3590.1 1265.93 3570.26L1323.24 3575.74C1230.98 3600.54 1200.82 3596.56 1086.35 3699.48Z" fill="#57BFE3" fill-rule="evenodd"/><path d="M1084.37 3692.54C1146.54 3584 1187.23 3568.79 1245.7 3541.14L1303.23 3539.15C1214.96 3575.7 1184.54 3575.65 1084.37 3692.54Z" fill="#FCBD30" fill-rule="evenodd"/><path d="M1092.75 3700.2C1183.28 3613.89 1226.62 3610.9 1290.54 3601.07L1346.26 3615.56C1251.23 3625.43 1222.08 3616.72 1092.75 3700.2Z" fill="#002060" fill-rule="evenodd"/><path d="M1229 3636.6C1228.96 3636.98 1228.92 3637.35 1228.89 3637.72 1221.59 3673.26 1190.05 3700 1152.24 3700 1141.44 3700 1131.14 3697.82 1121.78 3693.87L1113.75 3689.53 1123.66 3683.59 1141.51 3673.59 1141.59 3673.61C1145.03 3674.31 1148.59 3674.68 1152.24 3674.68 1166.83 3674.68 1180.04 3668.78 1189.6 3659.25L1198.04 3646.77 1200.83 3645.63 1229 3636.6ZM1152.24 3544C1168.44 3544 1183.49 3548.91 1195.98 3557.32L1199.77 3560.44 1194.12 3563.4 1175.61 3574.98 1172.81 3573.46C1166.48 3570.79 1159.53 3569.32 1152.24 3569.32 1123.05 3569.32 1099.4 3592.91 1099.4 3622 1099.4 3629.27 1100.87 3636.2 1103.55 3642.51L1106.56 3646.96 1101.69 3654.04 1091.36 3670.44 1087.36 3665.61C1078.93 3653.16 1074 3638.15 1074 3622 1074 3578.92 1109.03 3544 1152.24 3544Z" fill="#002060" fill-rule="evenodd"/></g></svg>
