<svg width="4611" height="3485" xmlns="http://www.w3.org/2000/svg" xmlns:xlink="http://www.w3.org/1999/xlink" xml:space="preserve" overflow="hidden">
    <g transform="translate(-18 -11)"><path d="M1485 919 1485 1883.92C1486.34 1919.64 1512.58 1934.72 1535.4 1934.34L1775.92 1934.34C1807.23 1935.01 1848.85 1975.69 1846.94 2005.39L1846.94 2489" stroke-miterlimit="8" fill-rule="evenodd"/ class="route route-line">
        <path d="M506 1273 506 2527" stroke-miterlimit="8" fill-rule="evenodd"/ class="route route-line">
        <path d="M547 1634 547 1933.75C548.318 1959.25 570.556 1977.29 600.474 1977.75L1768.48 1977.75C1784.73 1978.15 1807.45 1994.99 1806.99 2016.25L1806.99 2492" stroke-miterlimit="8" fill-rule="evenodd"/ class="route route-line">
        <path d="M1364 126 3188.13 126C3234.25 126.669 3269.11 152.642 3274.07 208.503 3274.45 515.598 3274.83 822.693 3275.22 1129.79 3275.69 1188.32 3313.22 1208.66 3355.42 1210L3745 1210" stroke-miterlimit="8" fill-rule="evenodd"/ class="route route-line">
        <path d="M1852 556.761 2624.2 556.761C2655.61 557.239 2673.37 534.424 2674.61 513.232L2674.61 213.111C2674.9 180.846 2698.57 165.286 2722.73 165L3172.99 165C3223.59 165.955 3233.04 193.256 3233.71 226.857 3234.47 536.906 3235.24 846.955 3236 1157 3234.38 1192.71 3208.31 1204.64 3190.17 1202.82L2642.53 1202.82" stroke-miterlimit="8" fill-rule="evenodd"/ class="route route-line">
        <path d="M3314 965C3314 1017.25 3314.35 1097.69 3314 1121.75 3313.66 1145.81 3333.01 1171.25 3363.46 1171.25L4000.84 1171.25C4033.01 1171.25 4044.34 1192.85 4044.8 1215.25 4045.25 1237.65 4044.8 2427.08 4044.8 3033" stroke-miterlimit="8" fill-rule="evenodd"/ class="route route-line">
        <path d="M4004 2857 4004 2763.54C4002.34 2720.64 3968.89 2684.62 3924.27 2683.82L3568.4 2684.68C3537.36 2685.42 3519.2 2664.69 3517.36 2637.09L3517.36 2120.29C3516.22 2095.09 3495.6 2080.2 3476.12 2079.05L1925.49 2079.05C1917.24 2078.14 1888.37 2088.68 1887 2117.54L1887 2494.14" stroke-miterlimit="8" fill-rule="evenodd"/ class="route route-line">
        <path d="M3960 2857.1 3960 2766.38C3958.28 2741.46 3938.51 2723.42 3918.74 2725.14L3213.4 2725.14C3186.64 2724.17 3163.32 2706.87 3162.35 2678.41L3162.35 2452.99C3163.15 2424.58 3138.17 2409.92 3118.34 2409L2703.01 2409C2690.92 2409.06 2659.06 2425.44 2659 2452.99L2659 3184.24C2661.69 3218.71 2690.17 3231.71 2705.76 3230.97L3222.86 3230.97" stroke-miterlimit="8" fill-rule="evenodd"/ class="route route-line">
        <path d="M1931 2486 1931 3225.75C1931.11 3249.47 1943.66 3277.03 1983.24 3278L3916 3278" stroke-miterlimit="8" fill-rule="evenodd"/ class="route route-line"><path d="M2549.38 3432 2549.38 3275.29C2549.27 3246.82 2526.8 3228.66 2502.61 3228.55L2238.52 3228.55C2209.98 3228.37 2192.61 3210.16 2189 3179.06L2189 2843.63C2191.69 2815.17 2210.72 2797.01 2235.77 2796.9L2554.88 2796.9C2593.91 2797.41 2610.59 2779.02 2612.65 2739.16L2612.65 2172.79C2614.66 2135.56 2639.88 2117.23 2667.67 2117.8L2818.98 2117.8C2851.93 2116.66 2872.85 2100.04 2874 2062.81L2874 1290.24C2873.14 1261.03 2857.67 1249 2832.74 1249L2645.67 1249" stroke-miterlimit="8" fill-rule="evenodd"/ class="route route-line">
        <text transform="matrix(1 0 0 1 4095.47 2883)" class="label">Central Sydney</text>
        <text transform="matrix(1 0 0 1 2517.51 994)" class="label">Roma Street Brisbane</text><text transform="matrix(1 0 0 1 2980.01 3363)" class="label">Southern Cross </text>
        <text transform="matrix(1 0 0 1 3051.05 3440)" class="label">Melbourne</text><text transform="matrix(1 0 0 1 2771.72 2281)" class="label">Canberra </text>
        <text transform="matrix(1 0 0 1 2739.91 2358)" class="label">City Centre</text>
        <text transform="matrix(1 0 0 1 1212.88 2519)" class="label">Keswick Adelaide</text>
        <text transform="matrix(1 0 0 1 1090.37 938)" class="label">Darwin City</text>
        <text transform="matrix(1 0 0 1 148.312 1658)" class="label">East Perth</text>
        <path d="M4547.09 3068.52 4553.55 3062.06 4547.45 3026.53 4561.44 3012.53C4564.24 3009.73 4566.47 3004.64 4564.32 3002.49 4562.23 3000.4 4557.07 3002.56 4554.27 3005.36L4540.27 3019.35 4504.74 3013.25 4498.29 3019.71 4529.51 3030.12 4513.86 3045.76 4500.44 3044.83 4496.13 3049.14 4511.2 3055.6 4517.66 3070.67 4521.97 3066.36 4521.04 3052.94 4536.68 3037.29 4547.09 3068.52Z" fill-rule="evenodd"/>
        <path d="M3636.5 2992.32 3642.96 2985.86 3636.86 2950.33 3650.85 2936.34C3653.65 2933.54 3655.88 2928.44 3653.72 2926.29 3651.64 2924.21 3646.48 2926.36 3643.68 2929.16L3629.68 2943.16 3594.15 2937.06 3587.69 2943.52 3618.92 2953.92 3603.27 2969.57 3589.85 2968.64 3585.54 2972.94 3600.61 2979.4 3607.07 2994.47 3611.38 2990.17 3610.45 2976.75 3626.09 2961.1 3636.5 2992.32Z" fill-rule="evenodd"/>
        <path d="M3755.21 1479.35 3761.67 1472.89 3755.57 1437.37 3769.56 1423.37C3772.36 1420.57 3774.59 1415.48 3772.43 1413.32 3770.35 1411.24 3765.19 1413.39 3762.39 1416.19L3748.39 1430.19 3712.86 1424.09 3706.4 1430.55 3737.62 1440.96 3721.98 1456.6 3708.56 1455.67 3704.25 1459.97 3719.32 1466.43 3725.78 1481.51 3730.09 1477.2 3729.16 1463.78 3744.8 1448.13 3755.21 1479.35Z" fill-rule="evenodd"/>
        <path d="M2716.4 832.824 2722.86 826.365 2716.76 790.838 2730.76 776.842C2733.56 774.043 2735.78 768.947 2733.63 766.794 2731.55 764.713 2726.38 766.866 2723.58 769.665L2709.58 783.661 2674.06 777.56 2667.6 784.019 2698.82 794.426 2683.17 810.073 2669.75 809.14 2665.44 813.446 2680.52 819.905 2686.98 834.978 2691.28 830.671 2690.35 817.25 2705.99 801.604 2716.4 832.824Z" fill-rule="evenodd"/>
        <path d="M2906.27 2643.06 2912.73 2636.6 2906.63 2601.08 2920.63 2587.08C2923.43 2584.28 2925.65 2579.18 2923.5 2577.03 2921.42 2574.95 2916.25 2577.1 2913.45 2579.9L2899.46 2593.9 2863.93 2587.8 2857.47 2594.26 2888.69 2604.66 2873.04 2620.31 2859.62 2619.38 2855.32 2623.68 2870.39 2630.14 2876.85 2645.22 2881.15 2640.91 2880.22 2627.49 2895.87 2611.84 2906.27 2643.06Z" fill-rule="evenodd"/>
        <path d="M3238.05 3085.32 3244.5 3078.86 3238.4 3043.33 3252.4 3029.34C3255.2 3026.54 3257.42 3021.44 3255.27 3019.29 3253.19 3017.21 3248.02 3019.36 3245.22 3022.16L3231.23 3036.16 3195.7 3030.06 3189.24 3036.52 3220.46 3046.92 3204.82 3062.57 3191.39 3061.64 3187.09 3065.94 3202.16 3072.4 3208.62 3087.47 3212.93 3083.17 3211.99 3069.75 3227.64 3054.1 3238.05 3085.32Z" fill-rule="evenodd"/>
        <path d="M95.8768 1836.11 102.336 1829.65 96.2358 1794.12 110.231 1780.13C113.03 1777.33 115.255 1772.23 113.102 1770.08 111.021 1768 105.853 1770.15 103.054 1772.95L89.0586 1786.94 53.5311 1780.84 47.0718 1787.3 78.2927 1797.71 62.6465 1813.36 49.2251 1812.42 44.9187 1816.73 59.9907 1823.19 66.4504 1838.26 70.7567 1833.95 69.8237 1820.53 85.4699 1804.89 95.8768 1836.11Z" fill-rule="evenodd"/>
        <path d="M1029.2 1123.42 1035.66 1116.96 1029.56 1081.43 1043.55 1067.44C1046.35 1064.64 1048.58 1059.54 1046.42 1057.39 1044.34 1055.31 1039.17 1057.46 1036.38 1060.26L1022.38 1074.26 986.853 1068.16 980.393 1074.61 1011.61 1085.02 995.968 1100.67 982.547 1099.74 978.24 1104.04 993.312 1110.5 999.772 1125.57 1004.08 1121.27 1003.15 1107.85 1018.79 1092.2 1029.2 1123.42Z" fill-rule="evenodd"/>
        <text transform="matrix(1 0 0 1 4087.74 3050)" class="label">Sydney Airport</text>
        <text transform="matrix(1 0 0 1 4087.74 2637)" class="label">Central Coast</text>
        <text transform="matrix(1 0 0 1 3703.02 2627)" class="label">Parramatta</text>
        <text transform="matrix(1 0 0 1 4087.74 2470)" class="label">Lake Macquarie</text>
        <text transform="matrix(1 0 0 1 4087.74 2299)" class="label">Newcastle</text>
        <text transform="matrix(1 0 0 1 4087.74 2129)" class="label">Taree</text>
        <text transform="matrix(1 0 0 1 4087.74 1955)" class="label">Port Macquarie</text>
        <text transform="matrix(1 0 0 1 4087.74 1785)" class="label">Coffs Harbour</text>
        <text transform="matrix(1 0 0 1 4087.74 1617)" class="label">Grafton</text>
        <text transform="matrix(1 0 0 1 4087.74 1446)" class="label">Casino</text>
        <text transform="matrix(1 0 0 1 4087.74 1275)" class="label">Lismore</text>
        <text transform="matrix(1 0 0 1 3414.76 2826)" class="label">Western Sydney </text>
        <text transform="matrix(1 0 0 1 3534.49 2892)" class="label">Airport</text>
        <text transform="matrix(1 0 0 1 3827.23 1116)" class="label">Byron Bay</text>
        <text transform="matrix(1 0 0 1 3351.22 1112)" class="label">Gold Coast</text>
        <text transform="matrix(1 0 0 1 3602.79 1313)" class="label">Gold Coast </text>
        <text transform="matrix(1 0 0 1 3653.2 1379)" class="label">Airport</text>
        <text transform="matrix(1 0 0 1 2759.76 821)" class="label">Brisbane Airport</text>
        <text transform="matrix(1 0 0 1 3318.54 648)" class="label">Sunshine</text>
        <text transform="matrix(1 0 0 1 3567.76 648)" class="label">Coast</text>
        <text transform="matrix(1 0 0 1 3031.95 1283)" class="label">Ipswich</text>
        <text transform="matrix(1 0 0 1 2735.9 1162)" class="label">Lockyer Valley</text>
        <text transform="matrix(1 0 0 1 2288.66 1242)" class="label">Toowoomba</text>
        <text transform="matrix(1 0 0 1 2663.96 2206)" class="label">Parkes</text>
        <text transform="matrix(1 0 0 1 3555.21 2445)" class="label">Blue </text>
        <text transform="matrix(1 0 0 1 3555.21 2511)" class="label">Mountains</text>
        <text transform="matrix(1 0 0 1 3556.33 2238)" class="label">Bathurst</text>
        <text transform="matrix(1 0 0 1 3089.11 2031)" class="label">Orange</text>
        <text transform="matrix(1 0 0 1 2669.99 1921)" class="label">Dubbo</text>
        <text transform="matrix(1 0 0 1 2577.44 1748)" class="label">Tamworth</text>
        <text transform="matrix(1 0 0 1 2604.09 1577)" class="label">Armidale</text>
        <text transform="matrix(1 0 0 1 2614.4 1406)" class="label">Warwick</text>
        <text transform="matrix(1 0 0 1 2399.39 2565)" class="label">Albury</text>
        <text transform="matrix(1 0 0 1 2697.28 2736)" class="label">Wangaratta</text>
        <text transform="matrix(1 0 0 1 2193.19 2358)" class="label">Wagga Wagga</text>
        <text transform="matrix(1 0 0 1 2884.32 2554)" class="label">Canberra </text>
        <text transform="matrix(1 0 0 1 2940.47 2620)" class="label">Airport</text>
        <text transform="matrix(1 0 0 1 2993.54 478)" class="label">Gympie</text>
        <text transform="matrix(1 0 0 1 2973.04 81)" class="label">Bundaberg</text>
        <text transform="matrix(1 0 0 1 3321.97 310)" class="label">Fraser Coast</text>
        <text transform="matrix(1 0 0 1 2292.21 84)" class="label">Rockhampton</text>
        <text transform="matrix(1 0 0 1 2710.2 259)" class="label">Gladstone</text>
        <text transform="matrix(1 0 0 1 2088.62 213)" class="label">Mackay</text>
        <text transform="matrix(1 0 0 1 1497.73 208)" class="label">Townsville</text>
        <text transform="matrix(1 0 0 1 1741.35 86)" class="label">Whitsundays</text>
        <text transform="matrix(1 0 0 1 1281.03 87)" class="label">Cairns</text>
        <text transform="matrix(1 0 0 1 2416.78 383)" class="label">Emerald</text>
        <text transform="matrix(1 0 0 1 2260.44 639)" class="label">Longreach</text>
        <text transform="matrix(1 0 0 1 1726.52 640)" class="label">Mount Isa</text>
        <text transform="matrix(1 0 0 1 2038.49 516)" class="label">Winton</text>
        <text transform="matrix(1 0 0 1 3242.42 2674)" class="label">Goulburn</text>
        <text transform="matrix(1 0 0 1 2697.28 2900)" class="label">Seymour</text>
        <text transform="matrix(1 0 0 1 2697.28 3069)" class="label">Melbourne Airport</text>
        <text transform="matrix(1 0 0 1 2824.9 3179)" class="label">Sunshine</text>
        <text transform="matrix(1 0 0 1 3518.01 3231)" class="label">Warragul</text>
        <text transform="matrix(1 0 0 1 3785.37 3356)" class="label">Traralgon</text>
        <text transform="matrix(1 0 0 1 2020.25 3356)" class="label">Ararat</text>
        <text transform="matrix(1 0 0 1 2291.9 3449)" class="label">Geelong</text>
        <text transform="matrix(1 0 0 1 2269.53 3183)" class="label">Ballarat</text>
        <text transform="matrix(1 0 0 1 2227.86 3013)" class="label">Bendigo</text>
        <text transform="matrix(1 0 0 1 1696.74 3192)" class="label">Stawell</text>
        <text transform="matrix(1 0 0 1 1591.04 2855)" class="label">Bordertown</text>
        <text transform="matrix(1 0 0 1 1525.16 2687)" class="label">Murray Bridge</text>
        <text transform="matrix(1 0 0 1 2241.54 2755)" class="label">Shepparton</text>
        <text transform="matrix(1 0 0 1 1511.53 2269)" class="label">Salisbury</text>
        <text transform="matrix(1 0 0 1 2303.21 2032)" class="label">Broken Hill</text>
        <text transform="matrix(1 0 0 1 1980.67 2156)" class="label">Barossa Valley</text>
        <text transform="matrix(1 0 0 1 1516.72 1876)" class="label">Port Augusta</text>
        <text transform="matrix(1 0 0 1 1098.09 1443)" class="label">Alice Springs</text>
        <text transform="matrix(1 0 0 1 1191.2 1275)" class="label">Katherine</text>
        <text transform="matrix(1 0 0 1 249.718 2208)" class="label">Bunbury</text>
        <text transform="matrix(1 0 0 1 206.749 2045)" class="label">Mandurah</text>
        <text transform="matrix(1 0 0 1 131.089 1820)" class="label">Perth Airport</text>
        <text transform="matrix(1 0 0 1 209.614 1294)" class="label">Geraldton</text>
        <text transform="matrix(1 0 0 1 81.8535 2545)" class="label">Margaret River</text>
        <text transform="matrix(1 0 0 1 209.614 2382)" class="label">Busselton</text>
        <text transform="matrix(1 0 0 1 1147.33 2054)" class="label">Kalgoorlie</text>
        <text transform="matrix(1 0 0 1 890.337 1933)" class="label">Merriden</text>
        <text transform="matrix(1 0 0 1 622.308 2054)" class="label">Northam</text>
        <text transform="matrix(1 0 0 1 1067.45 1105)" class="label">Darwin Airport</text>
        <text transform="matrix(1 0 0 1 1659.5 3024)" class="label">Horsham</text>
        <path d="M1460.5 920.5C1460.5 906.141 1472.14 894.5 1486.5 894.5 1500.86 894.5 1512.5 906.141 1512.5 920.5 1512.5 934.859 1500.86 946.5 1486.5 946.5 1472.14 946.5 1460.5 934.859 1460.5 920.5Z" stroke="#000000" stroke-width="6.875" stroke-miterlimit="8" fill="#FFFFFF" fill-rule="evenodd"/>
        <path d="M1458.5 1085.5C1458.5 1071.14 1470.14 1059.5 1484.5 1059.5 1498.86 1059.5 1510.5 1071.14 1510.5 1085.5 1510.5 1099.86 1498.86 1111.5 1484.5 1111.5 1470.14 1111.5 1458.5 1099.86 1458.5 1085.5Z" stroke="#000000" stroke-width="6.875" stroke-miterlimit="8" fill="#FFFFFF" fill-rule="evenodd"/>
        <path d="M1460.5 1255.5C1460.5 1241.14 1472.14 1229.5 1486.5 1229.5 1500.86 1229.5 1512.5 1241.14 1512.5 1255.5 1512.5 1269.86 1500.86 1281.5 1486.5 1281.5 1472.14 1281.5 1460.5 1269.86 1460.5 1255.5Z" stroke="#000000" stroke-width="6.875" stroke-miterlimit="8" fill="#FFFFFF" fill-rule="evenodd"/>
        <path d="M1458.5 1426.5C1458.5 1412.14 1470.14 1400.5 1484.5 1400.5 1498.86 1400.5 1510.5 1412.14 1510.5 1426.5 1510.5 1440.86 1498.86 1452.5 1484.5 1452.5 1470.14 1452.5 1458.5 1440.86 1458.5 1426.5Z" stroke="#000000" stroke-width="6.875" stroke-miterlimit="8" fill="#FFFFFF" fill-rule="evenodd"/>
        <path d="M2900.5 1203.5C2900.5 1189.14 2912.14 1177.5 2926.5 1177.5 2940.86 1177.5 2952.5 1189.14 2952.5 1203.5 2952.5 1217.86 2940.86 1229.5 2926.5 1229.5 2912.14 1229.5 2900.5 1217.86 2900.5 1203.5Z" stroke="#000000" stroke-width="6.875" stroke-miterlimit="8" fill="#FFFFFF" fill-rule="evenodd"/>
        <path d="M3104.5 1203.5C3104.5 1189.14 3115.92 1177.5 3130 1177.5 3144.08 1177.5 3155.5 1189.14 3155.5 1203.5 3155.5 1217.86 3144.08 1229.5 3130 1229.5 3115.92 1229.5 3104.5 1217.86 3104.5 1203.5Z" stroke="#000000" stroke-width="6.875" stroke-miterlimit="8" fill="#FFFFFF" fill-rule="evenodd"/>
        <path d="M1826.5 557.5C1826.5 543.141 1838.14 531.5 1852.5 531.5 1866.86 531.5 1878.5 543.141 1878.5 557.5 1878.5 571.859 1866.86 583.5 1852.5 583.5 1838.14 583.5 1826.5 571.859 1826.5 557.5Z" stroke="#000000" stroke-width="6.875" stroke-miterlimit="8" fill="#FFFFFF" fill-rule="evenodd"/>
        <path d="M2101.5 557.5C2101.5 543.141 2113.14 531.5 2127.5 531.5 2141.86 531.5 2153.5 543.141 2153.5 557.5 2153.5 571.859 2141.86 583.5 2127.5 583.5 2113.14 583.5 2101.5 571.859 2101.5 557.5Z" stroke="#000000" stroke-width="6.875" stroke-miterlimit="8" fill="#FFFFFF" fill-rule="evenodd"/>
        <path d="M2370.5 557.5C2370.5 543.141 2382.14 531.5 2396.5 531.5 2410.86 531.5 2422.5 543.141 2422.5 557.5 2422.5 571.859 2410.86 583.5 2396.5 583.5 2382.14 583.5 2370.5 571.859 2370.5 557.5Z" stroke="#000000" stroke-width="6.875" stroke-miterlimit="8" fill="#FFFFFF" fill-rule="evenodd"/>
        <path d="M2647.5 363.5C2647.5 349.141 2659.14 337.5 2673.5 337.5 2687.86 337.5 2699.5 349.141 2699.5 363.5 2699.5 377.859 2687.86 389.5 2673.5 389.5 2659.14 389.5 2647.5 377.859 2647.5 363.5Z" stroke="#000000" stroke-width="6.875" stroke-miterlimit="8" fill="#FFFFFF" fill-rule="evenodd"/>
        <path d="M3205.5 460.5C3205.5 446.141 3217.14 434.5 3231.5 434.5 3245.86 434.5 3257.5 446.141 3257.5 460.5 3257.5 474.859 3245.86 486.5 3231.5 486.5 3217.14 486.5 3205.5 474.859 3205.5 460.5Z" stroke="#000000" stroke-width="6.875" stroke-miterlimit="8" fill="#FFFFFF" fill-rule="evenodd"/>
        <path d="M1337.5 127.5C1337.5 113.141 1349.14 101.5 1363.5 101.5 1377.86 101.5 1389.5 113.141 1389.5 127.5 1389.5 141.859 1377.86 153.5 1363.5 153.5 1349.14 153.5 1337.5 141.859 1337.5 127.5Z" stroke="#000000" stroke-width="6.875" stroke-miterlimit="8" fill="#FFFFFF" fill-rule="evenodd"/>
        <path d="M1608.5 127.5C1608.5 113.141 1619.92 101.5 1634 101.5 1648.08 101.5 1659.5 113.141 1659.5 127.5 1659.5 141.859 1648.08 153.5 1634 153.5 1619.92 153.5 1608.5 141.859 1608.5 127.5Z" stroke="#000000" stroke-width="6.875" stroke-miterlimit="8" fill="#FFFFFF" fill-rule="evenodd"/>
        <path d="M1881.5 127.5C1881.5 113.141 1893.14 101.5 1907.5 101.5 1921.86 101.5 1933.5 113.141 1933.5 127.5 1933.5 141.859 1921.86 153.5 1907.5 153.5 1893.14 153.5 1881.5 141.859 1881.5 127.5Z" stroke="#000000" stroke-width="6.875" stroke-miterlimit="8" fill="#FFFFFF" fill-rule="evenodd"/>
        <path d="M2162.5 127.5C2162.5 113.141 2174.14 101.5 2188.5 101.5 2202.86 101.5 2214.5 113.141 2214.5 127.5 2214.5 141.859 2202.86 153.5 2188.5 153.5 2174.14 153.5 2162.5 141.859 2162.5 127.5Z" stroke="#000000" stroke-width="6.875" stroke-miterlimit="8" fill="#FFFFFF" fill-rule="evenodd"/>
        <path d="M2444.5 127.5C2444.5 113.141 2456.14 101.5 2470.5 101.5 2484.86 101.5 2496.5 113.141 2496.5 127.5 2496.5 141.859 2484.86 153.5 2470.5 153.5 2456.14 153.5 2444.5 141.859 2444.5 127.5Z" stroke="#000000" stroke-width="6.875" stroke-miterlimit="8" fill="#FFFFFF" fill-rule="evenodd"/>
        <path d="M3254.5 290.5C3254.5 276.141 3266.14 264.5 3280.5 264.5 3294.86 264.5 3306.5 276.141 3306.5 290.5 3306.5 304.859 3294.86 316.5 3280.5 316.5 3266.14 316.5 3254.5 304.859 3254.5 290.5Z" stroke="#000000" stroke-width="6.875" stroke-miterlimit="8" fill="#FFFFFF" fill-rule="evenodd"/>
        <path d="M707.5 1973.5C707.5 1959.14 719.141 1947.5 733.5 1947.5 747.859 1947.5 759.5 1959.14 759.5 1973.5 759.5 1987.86 747.859 1999.5 733.5 1999.5 719.141 1999.5 707.5 1987.86 707.5 1973.5Z" stroke="#000000" stroke-width="6.875" stroke-miterlimit="8" fill="#FFFFFF" fill-rule="evenodd"/>
        <path d="M980.5 1973.5C980.5 1959.14 992.141 1947.5 1006.5 1947.5 1020.86 1947.5 1032.5 1959.14 1032.5 1973.5 1032.5 1987.86 1020.86 1999.5 1006.5 1999.5 992.141 1999.5 980.5 1987.86 980.5 1973.5Z" stroke="#000000" stroke-width="6.875" stroke-miterlimit="8" fill="#FFFFFF" fill-rule="evenodd"/>
        <path d="M1253.5 1975.5C1253.5 1961.14 1265.14 1949.5 1279.5 1949.5 1293.86 1949.5 1305.5 1961.14 1305.5 1975.5 1305.5 1989.86 1293.86 2001.5 1279.5 2001.5 1265.14 2001.5 1253.5 1989.86 1253.5 1975.5Z" stroke="#000000" stroke-width="6.875" stroke-miterlimit="8" fill="#FFFFFF" fill-rule="evenodd"/>
        <path d="M480.5 2025.5C480.5 2011.14 492.141 1999.5 506.5 1999.5 520.859 1999.5 532.5 2011.14 532.5 2025.5 532.5 2039.86 520.859 2051.5 506.5 2051.5 492.141 2051.5 480.5 2039.86 480.5 2025.5Z" stroke-miterlimit="8" fill-rule="evenodd"/ class="station">
        <path d="M481.5 2189.5C481.5 2175.14 493.141 2163.5 507.5 2163.5 521.859 2163.5 533.5 2175.14 533.5 2189.5 533.5 2203.86 521.859 2215.5 507.5 2215.5 493.141 2215.5 481.5 2203.86 481.5 2189.5Z" stroke-miterlimit="8" fill-rule="evenodd"/ class="station">
        <path d="M481.5 2356.5C481.5 2342.14 493.141 2330.5 507.5 2330.5 521.859 2330.5 533.5 2342.14 533.5 2356.5 533.5 2370.86 521.859 2382.5 507.5 2382.5 493.141 2382.5 481.5 2370.86 481.5 2356.5Z" stroke-miterlimit="8" fill-rule="evenodd"/ class="station">
        <path d="M481.5 2526.5C481.5 2512.14 493.141 2500.5 507.5 2500.5 521.859 2500.5 533.5 2512.14 533.5 2526.5 533.5 2540.86 521.859 2552.5 507.5 2552.5 493.141 2552.5 481.5 2540.86 481.5 2526.5Z" stroke-miterlimit="8" fill-rule="evenodd"/ class="station">
        <path d="M480.5 1274.5C480.5 1260.14 492.141 1248.5 506.5 1248.5 520.859 1248.5 532.5 1260.14 532.5 1274.5 532.5 1288.86 520.859 1300.5 506.5 1300.5 492.141 1300.5 480.5 1288.86 480.5 1274.5Z" stroke-miterlimit="8" fill-rule="evenodd"/ class="station">
        <path d="M2145.5 2075.5C2145.5 2061.14 2157.14 2049.5 2171.5 2049.5 2185.86 2049.5 2197.5 2061.14 2197.5 2075.5 2197.5 2089.86 2185.86 2101.5 2171.5 2101.5 2157.14 2101.5 2145.5 2089.86 2145.5 2075.5Z" stroke="#000000" stroke-width="6.875" stroke-miterlimit="8" fill="#FFFFFF" fill-rule="evenodd"/>
        <path d="M2418.5 2075.5C2418.5 2061.14 2430.14 2049.5 2444.5 2049.5 2458.86 2049.5 2470.5 2061.14 2470.5 2075.5 2470.5 2089.86 2458.86 2101.5 2444.5 2101.5 2430.14 2101.5 2418.5 2089.86 2418.5 2075.5Z" stroke="#000000" stroke-width="6.875" stroke-miterlimit="8" fill="#FFFFFF" fill-rule="evenodd"/>
        <path d="M3158.5 2075.5C3158.5 2061.14 3170.14 2049.5 3184.5 2049.5 3198.86 2049.5 3210.5 2061.14 3210.5 2075.5 3210.5 2089.86 3198.86 2101.5 3184.5 2101.5 3170.14 2101.5 3158.5 2089.86 3158.5 2075.5Z" stroke="#000000" stroke-width="6.875" stroke-miterlimit="8" fill="#FFFFFF" fill-rule="evenodd"/>
        <path d="M3490.5 2456.5C3490.5 2442.14 3502.14 2430.5 3516.5 2430.5 3530.86 2430.5 3542.5 2442.14 3542.5 2456.5 3542.5 2470.86 3530.86 2482.5 3516.5 2482.5 3502.14 2482.5 3490.5 2470.86 3490.5 2456.5Z" stroke="#000000" stroke-width="6.875" stroke-miterlimit="8" fill="#FFFFFF" fill-rule="evenodd"/>
        <path d="M3490.5 2218.5C3490.5 2204.14 3502.14 2192.5 3516.5 2192.5 3530.86 2192.5 3542.5 2204.14 3542.5 2218.5 3542.5 2232.86 3530.86 2244.5 3516.5 2244.5 3502.14 2244.5 3490.5 2232.86 3490.5 2218.5Z" stroke="#000000" stroke-width="6.875" stroke-miterlimit="8" fill="#FFFFFF" fill-rule="evenodd"/>
        <path d="M4020.5 1258.5C4020.5 1244.14 4032.14 1232.5 4046.5 1232.5 4060.86 1232.5 4072.5 1244.14 4072.5 1258.5 4072.5 1272.86 4060.86 1284.5 4046.5 1284.5 4032.14 1284.5 4020.5 1272.86 4020.5 1258.5Z" stroke-miterlimit="8" fill-rule="evenodd"/ class="station">
        <path d="M4020.5 1427.5C4020.5 1413.14 4032.14 1401.5 4046.5 1401.5 4060.86 1401.5 4072.5 1413.14 4072.5 1427.5 4072.5 1441.86 4060.86 1453.5 4046.5 1453.5 4032.14 1453.5 4020.5 1441.86 4020.5 1427.5Z" stroke-miterlimit="8" fill-rule="evenodd"/ class="station">
        <path d="M4020.5 1598.5C4020.5 1584.14 4032.14 1572.5 4046.5 1572.5 4060.86 1572.5 4072.5 1584.14 4072.5 1598.5 4072.5 1612.86 4060.86 1624.5 4046.5 1624.5 4032.14 1624.5 4020.5 1612.86 4020.5 1598.5Z" stroke-miterlimit="8" fill-rule="evenodd"/ class="station">
        <path d="M4020.5 1771.5C4020.5 1757.14 4032.14 1745.5 4046.5 1745.5 4060.86 1745.5 4072.5 1757.14 4072.5 1771.5 4072.5 1785.86 4060.86 1797.5 4046.5 1797.5 4032.14 1797.5 4020.5 1785.86 4020.5 1771.5Z" stroke-miterlimit="8" fill-rule="evenodd"/ class="station">
        <path d="M4020.5 1935.5C4020.5 1921.14 4032.14 1909.5 4046.5 1909.5 4060.86 1909.5 4072.5 1921.14 4072.5 1935.5 4072.5 1949.86 4060.86 1961.5 4046.5 1961.5 4032.14 1961.5 4020.5 1949.86 4020.5 1935.5Z" stroke-miterlimit="8" fill-rule="evenodd"/ class="station">
        <path d="M4020.5 2105.5C4020.5 2091.14 4032.14 2079.5 4046.5 2079.5 4060.86 2079.5 4072.5 2091.14 4072.5 2105.5 4072.5 2119.86 4060.86 2131.5 4046.5 2131.5 4032.14 2131.5 4020.5 2119.86 4020.5 2105.5Z" stroke-miterlimit="8" fill-rule="evenodd"/ class="station">
        <path d="M4020.5 2275.5C4020.5 2261.14 4032.14 2249.5 4046.5 2249.5 4060.86 2249.5 4072.5 2261.14 4072.5 2275.5 4072.5 2289.86 4060.86 2301.5 4046.5 2301.5 4032.14 2301.5 4020.5 2289.86 4020.5 2275.5Z" stroke-miterlimit="8" fill-rule="evenodd"/ class="station">
        <path d="M4020.5 2617.5C4020.5 2603.14 4032.14 2591.5 4046.5 2591.5 4060.86 2591.5 4072.5 2603.14 4072.5 2617.5 4072.5 2631.86 4060.86 2643.5 4046.5 2643.5 4032.14 2643.5 4020.5 2631.86 4020.5 2617.5Z" stroke-miterlimit="8" fill-rule="evenodd"/ class="station">
        <path d="M3931.5 1169.5C3931.5 1155.14 3943.14 1143.5 3957.5 1143.5 3971.86 1143.5 3983.5 1155.14 3983.5 1169.5 3983.5 1183.86 3971.86 1195.5 3957.5 1195.5 3943.14 1195.5 3931.5 1183.86 3931.5 1169.5Z" stroke="#000000" stroke-width="6.875" stroke-miterlimit="8" fill="#FFFFFF" fill-rule="evenodd"/>
        <path d="M4020.5 2456.5C4020.5 2442.14 4032.14 2430.5 4046.5 2430.5 4060.86 2430.5 4072.5 2442.14 4072.5 2456.5 4072.5 2470.86 4060.86 2482.5 4046.5 2482.5 4032.14 2482.5 4020.5 2470.86 4020.5 2456.5Z" stroke-miterlimit="8" fill-rule="evenodd"/ class="station">
        <path d="M4020.5 3030.5C4020.5 3016.14 4032.14 3004.5 4046.5 3004.5 4060.86 3004.5 4072.5 3016.14 4072.5 3030.5 4072.5 3044.86 4060.86 3056.5 4046.5 3056.5 4032.14 3056.5 4020.5 3044.86 4020.5 3030.5Z" stroke-miterlimit="8" fill-rule="evenodd"/ class="station">
        <path d="M3612.5 3275.5C3612.5 3261.14 3624.14 3249.5 3638.5 3249.5 3652.86 3249.5 3664.5 3261.14 3664.5 3275.5 3664.5 3289.86 3652.86 3301.5 3638.5 3301.5 3624.14 3301.5 3612.5 3289.86 3612.5 3275.5Z" stroke="#000000" stroke-width="6.875" stroke-miterlimit="8" fill="#FFFFFF" fill-rule="evenodd"/>
        <path d="M3885.5 3275.5C3885.5 3261.14 3897.14 3249.5 3911.5 3249.5 3925.86 3249.5 3937.5 3261.14 3937.5 3275.5 3937.5 3289.86 3925.86 3301.5 3911.5 3301.5 3897.14 3301.5 3885.5 3289.86 3885.5 3275.5Z" stroke="#000000" stroke-width="6.875" stroke-miterlimit="8" fill="#FFFFFF" fill-rule="evenodd"/>
        <path d="M1906.5 2667.5C1906.5 2653.14 1918.14 2641.5 1932.5 2641.5 1946.86 2641.5 1958.5 2653.14 1958.5 2667.5 1958.5 2681.86 1946.86 2693.5 1932.5 2693.5 1918.14 2693.5 1906.5 2681.86 1906.5 2667.5Z" stroke="#000000" stroke-width="6.875" stroke-miterlimit="8" fill="#FFFFFF" fill-rule="evenodd"/>
        <path d="M1906.5 2835.5C1906.5 2821.14 1918.14 2809.5 1932.5 2809.5 1946.86 2809.5 1958.5 2821.14 1958.5 2835.5 1958.5 2849.86 1946.86 2861.5 1932.5 2861.5 1918.14 2861.5 1906.5 2849.86 1906.5 2835.5Z" stroke="#000000" stroke-width="6.875" stroke-miterlimit="8" fill="#FFFFFF" fill-rule="evenodd"/>
        <path d="M1907.5 3173.5C1907.5 3159.14 1918.92 3147.5 1933 3147.5 1947.08 3147.5 1958.5 3159.14 1958.5 3173.5 1958.5 3187.86 1947.08 3199.5 1933 3199.5 1918.92 3199.5 1907.5 3187.86 1907.5 3173.5Z" stroke="#000000" stroke-width="6.875" stroke-miterlimit="8" fill="#FFFFFF" fill-rule="evenodd"/>
        <path d="M1906.5 3003.5C1906.5 2989.14 1918.14 2977.5 1932.5 2977.5 1946.86 2977.5 1958.5 2989.14 1958.5 3003.5 1958.5 3017.86 1946.86 3029.5 1932.5 3029.5 1918.14 3029.5 1906.5 3017.86 1906.5 3003.5Z" stroke="#000000" stroke-width="6.875" stroke-miterlimit="8" fill="#FFFFFF" fill-rule="evenodd"/>
        <path d="M2076.5 3279.5C2076.5 3265.14 2088.14 3253.5 2102.5 3253.5 2116.86 3253.5 2128.5 3265.14 2128.5 3279.5 2128.5 3293.86 2116.86 3305.5 2102.5 3305.5 2088.14 3305.5 2076.5 3293.86 2076.5 3279.5Z" stroke="#000000" stroke-width="6.875" stroke-miterlimit="8" fill="#FFFFFF" fill-rule="evenodd"/>
        <path d="M3138.5 2567.5C3138.5 2553.14 3150.14 2541.5 3164.5 2541.5 3178.86 2541.5 3190.5 2553.14 3190.5 2567.5 3190.5 2581.86 3178.86 2593.5 3164.5 2593.5 3150.14 2593.5 3138.5 2581.86 3138.5 2567.5Z" stroke="#000000" stroke-width="6.875" stroke-miterlimit="8" fill="#FFFFFF" fill-rule="evenodd"/>
        <path d="M3336.5 2723.5C3336.5 2709.14 3348.14 2697.5 3362.5 2697.5 3376.86 2697.5 3388.5 2709.14 3388.5 2723.5 3388.5 2737.86 3376.86 2749.5 3362.5 2749.5 3348.14 2749.5 3336.5 2737.86 3336.5 2723.5Z" stroke="#000000" stroke-width="6.875" stroke-miterlimit="8" fill="#FFFFFF" fill-rule="evenodd"/>
        <path d="M2888.5 2412.5C2888.5 2398.14 2900.14 2386.5 2914.5 2386.5 2928.86 2386.5 2940.5 2398.14 2940.5 2412.5 2940.5 2426.86 2928.86 2438.5 2914.5 2438.5 2900.14 2438.5 2888.5 2426.86 2888.5 2412.5Z" stroke="#000000" stroke-width="6.875" stroke-miterlimit="8" fill="#FFFFFF" fill-rule="evenodd"/>
        <path d="M2631.5 2880.5C2631.5 2866.14 2643.14 2854.5 2657.5 2854.5 2671.86 2854.5 2683.5 2866.14 2683.5 2880.5 2683.5 2894.86 2671.86 2906.5 2657.5 2906.5 2643.14 2906.5 2631.5 2894.86 2631.5 2880.5Z" stroke="#000000" stroke-width="6.875" stroke-miterlimit="8" fill="#FFFFFF" fill-rule="evenodd"/>
        <path d="M2631.5 3049.5C2631.5 3035.14 2643.14 3023.5 2657.5 3023.5 2671.86 3023.5 2683.5 3035.14 2683.5 3049.5 2683.5 3063.86 2671.86 3075.5 2657.5 3075.5 2643.14 3075.5 2631.5 3063.86 2631.5 3049.5Z" stroke="#000000" stroke-width="6.875" stroke-miterlimit="8" fill="#FFFFFF" fill-rule="evenodd"/>
        <path d="M2366.5 2797.5C2366.5 2783.14 2378.14 2771.5 2392.5 2771.5 2406.86 2771.5 2418.5 2783.14 2418.5 2797.5 2418.5 2811.86 2406.86 2823.5 2392.5 2823.5 2378.14 2823.5 2366.5 2811.86 2366.5 2797.5Z" stroke="#000000" stroke-width="6.875" stroke-miterlimit="8" fill="#FFFFFF" fill-rule="evenodd"/>
        <path d="M2850.5 1388.5C2850.5 1374.14 2862.14 1362.5 2876.5 1362.5 2890.86 1362.5 2902.5 1374.14 2902.5 1388.5 2902.5 1402.86 2890.86 1414.5 2876.5 1414.5 2862.14 1414.5 2850.5 1402.86 2850.5 1388.5Z" stroke="#000000" stroke-width="6.875" stroke-miterlimit="8" fill="#FFFFFF" fill-rule="evenodd"/>
        <path d="M2850.5 1557.5C2850.5 1543.14 2862.14 1531.5 2876.5 1531.5 2890.86 1531.5 2902.5 1543.14 2902.5 1557.5 2902.5 1571.86 2890.86 1583.5 2876.5 1583.5 2862.14 1583.5 2850.5 1571.86 2850.5 1557.5Z" stroke="#000000" stroke-width="6.875" stroke-miterlimit="8" fill="#FFFFFF" fill-rule="evenodd"/>
        <path d="M2850.5 1728.5C2850.5 1714.14 2862.14 1702.5 2876.5 1702.5 2890.86 1702.5 2902.5 1714.14 2902.5 1728.5 2902.5 1742.86 2890.86 1754.5 2876.5 1754.5 2862.14 1754.5 2850.5 1742.86 2850.5 1728.5Z" stroke="#000000" stroke-width="6.875" stroke-miterlimit="8" fill="#FFFFFF" fill-rule="evenodd"/>
        <path d="M2850.5 1901.5C2850.5 1887.14 2862.14 1875.5 2876.5 1875.5 2890.86 1875.5 2902.5 1887.14 2902.5 1901.5 2902.5 1915.86 2890.86 1927.5 2876.5 1927.5 2862.14 1927.5 2850.5 1915.86 2850.5 1901.5Z" stroke="#000000" stroke-width="6.875" stroke-miterlimit="8" fill="#FFFFFF" fill-rule="evenodd"/>
        <path d="M2586.5 2339.5C2586.5 2325.14 2598.14 2313.5 2612.5 2313.5 2626.86 2313.5 2638.5 2325.14 2638.5 2339.5 2638.5 2353.86 2626.86 2365.5 2612.5 2365.5 2598.14 2365.5 2586.5 2353.86 2586.5 2339.5Z" stroke="#000000" stroke-width="6.875" stroke-miterlimit="8" fill="#FFFFFF" fill-rule="evenodd"/>
        <path d="M2158.5 2993.5C2158.5 2979.14 2170.14 2967.5 2184.5 2967.5 2198.86 2967.5 2210.5 2979.14 2210.5 2993.5 2210.5 3007.86 2198.86 3019.5 2184.5 3019.5 2170.14 3019.5 2158.5 3007.86 2158.5 2993.5Z" stroke="#000000" stroke-width="6.875" stroke-miterlimit="8" fill="#FFFFFF" fill-rule="evenodd"/>
        <path d="M2523.5 3430.5C2523.5 3416.14 2535.14 3404.5 2549.5 3404.5 2563.86 3404.5 2575.5 3416.14 2575.5 3430.5 2575.5 3444.86 2563.86 3456.5 2549.5 3456.5 2535.14 3456.5 2523.5 3444.86 2523.5 3430.5Z" stroke="#000000" stroke-width="6.875" stroke-miterlimit="8" fill="#FFFFFF" fill-rule="evenodd"/>
        <path d="M3932.5 2860.5C3932.5 2846.14 3944.14 2834.5 3958.5 2834.5L4049.5 2834.5C4063.86 2834.5 4075.5 2846.14 4075.5 2860.5L4075.5 2860.5C4075.5 2874.86 4063.86 2886.5 4049.5 2886.5L3958.5 2886.5C3944.14 2886.5 3932.5 2874.86 3932.5 2860.5Z" stroke-miterlimit="8" fill-rule="evenodd"/ class="interchange">
        <path d="M3822.5 2673.5C3822.5 2659.14 3834.14 2647.5 3848.5 2647.5L3848.5 2647.5C3862.86 2647.5 3874.5 2659.14 3874.5 2673.5L3874.5 2725.5C3874.5 2739.86 3862.86 2751.5 3848.5 2751.5L3848.5 2751.5C3834.14 2751.5 3822.5 2739.86 3822.5 2725.5Z" stroke-miterlimit="8" fill-rule="evenodd"/ class="interchange">
        <path d="M3718.5 1164.5C3718.5 1150.14 3730.14 1138.5 3744.5 1138.5L3744.5 1138.5C3758.86 1138.5 3770.5 1150.14 3770.5 1164.5L3770.5 1216.5C3770.5 1230.86 3758.86 1242.5 3744.5 1242.5L3744.5 1242.5C3730.14 1242.5 3718.5 1230.86 3718.5 1216.5Z" stroke-miterlimit="8" fill-rule="evenodd"/ class="interchange">
        <path d="M3466.5 1164.5C3466.5 1150.14 3478.14 1138.5 3492.5 1138.5L3492.5 1138.5C3506.86 1138.5 3518.5 1150.14 3518.5 1164.5L3518.5 1216.5C3518.5 1230.86 3506.86 1242.5 3492.5 1242.5L3492.5 1242.5C3478.14 1242.5 3466.5 1230.86 3466.5 1216.5Z" stroke-miterlimit="8" fill-rule="evenodd"/ class="interchange">
        <path d="M3204.5 970.5C3204.5 956.141 3216.14 944.5 3230.5 944.5L3321.5 944.5C3335.86 944.5 3347.5 956.141 3347.5 970.5L3347.5 970.5C3347.5 984.859 3335.86 996.5 3321.5 996.5L3230.5 996.5C3216.14 996.5 3204.5 984.859 3204.5 970.5Z" stroke-miterlimit="8" fill-rule="evenodd"/ class="interchange">
        <path d="M3197.5 801.5C3197.5 787.141 3209.14 775.5 3223.5 775.5L3275.5 775.5C3289.86 775.5 3301.5 787.141 3301.5 801.5L3301.5 801.5C3301.5 815.859 3289.86 827.5 3275.5 827.5L3223.5 827.5C3209.14 827.5 3197.5 815.859 3197.5 801.5Z" stroke-miterlimit="8" fill-rule="evenodd"/ class="interchange">
        <path d="M3197.5 627.5C3197.5 613.141 3209.14 601.5 3223.5 601.5L3275.5 601.5C3289.86 601.5 3301.5 613.141 3301.5 627.5L3301.5 627.5C3301.5 641.859 3289.86 653.5 3275.5 653.5L3223.5 653.5C3209.14 653.5 3197.5 641.859 3197.5 627.5Z" stroke-miterlimit="8" fill-rule="evenodd"/ class="interchange">
        <path d="M2615.5 1198.5C2615.5 1184.14 2627.14 1172.5 2641.5 1172.5L2641.5 1172.5C2655.86 1172.5 2667.5 1184.14 2667.5 1198.5L2667.5 1250.5C2667.5 1264.86 2655.86 1276.5 2641.5 1276.5L2641.5 1276.5C2627.14 1276.5 2615.5 1264.86 2615.5 1250.5Z" stroke-miterlimit="8" fill-rule="evenodd"/ class="interchange">
        <path d="M2726.5 2073.5C2726.5 2059.14 2738.14 2047.5 2752.5 2047.5L2752.5 2047.5C2766.86 2047.5 2778.5 2059.14 2778.5 2073.5L2778.5 2125.5C2778.5 2139.86 2766.86 2151.5 2752.5 2151.5L2752.5 2151.5C2738.14 2151.5 2726.5 2139.86 2726.5 2125.5Z" stroke-miterlimit="8" fill-rule="evenodd"/ class="interchange">
        <path d="M2587.5 2545.5C2587.5 2531.14 2599.14 2519.5 2613.5 2519.5L2665.5 2519.5C2679.86 2519.5 2691.5 2531.14 2691.5 2545.5L2691.5 2545.5C2691.5 2559.86 2679.86 2571.5 2665.5 2571.5L2613.5 2571.5C2599.14 2571.5 2587.5 2559.86 2587.5 2545.5Z" stroke-miterlimit="8" fill-rule="evenodd"/ class="interchange">
        <path d="M3089.5 123.5C3089.5 109.141 3101.14 97.5001 3115.5 97.5001L3115.5 97.5001C3129.86 97.5001 3141.5 109.141 3141.5 123.5L3141.5 175.5C3141.5 189.859 3129.86 201.5 3115.5 201.5L3115.5 201.5C3101.14 201.5 3089.5 189.859 3089.5 175.5Z" stroke-miterlimit="8" fill-rule="evenodd"/ class="interchange">
        <path d="M2815.5 123.5C2815.5 109.141 2827.14 97.5001 2841.5 97.5001L2841.5 97.5001C2855.86 97.5001 2867.5 109.141 2867.5 123.5L2867.5 175.5C2867.5 189.859 2855.86 201.5 2841.5 201.5L2841.5 201.5C2827.14 201.5 2815.5 189.859 2815.5 175.5Z" stroke-miterlimit="8" fill-rule="evenodd"/ class="interchange">
        <path d="M3189.5 3221.5C3189.5 3207.14 3201.14 3195.5 3215.5 3195.5L3215.5 3195.5C3229.86 3195.5 3241.5 3207.14 3241.5 3221.5L3241.5 3273.5C3241.5 3287.86 3229.86 3299.5 3215.5 3299.5L3215.5 3299.5C3201.14 3299.5 3189.5 3287.86 3189.5 3273.5Z" stroke-miterlimit="8" fill-rule="evenodd"/ class="interchange">
        <path d="M2917.5 3224.5C2917.5 3210.14 2929.14 3198.5 2943.5 3198.5L2943.5 3198.5C2957.86 3198.5 2969.5 3210.14 2969.5 3224.5L2969.5 3276.5C2969.5 3290.86 2957.86 3302.5 2943.5 3302.5L2943.5 3302.5C2929.14 3302.5 2917.5 3290.86 2917.5 3276.5Z" stroke-miterlimit="8" fill-rule="evenodd"/ class="interchange">
        <path d="M2346.5 3228C2346.5 3213.92 2357.92 3202.5 2372 3202.5L2372 3202.5C2386.08 3202.5 2397.5 3213.92 2397.5 3228L2397.5 3281C2397.5 3295.08 2386.08 3306.5 2372 3306.5L2372 3306.5C2357.92 3306.5 2346.5 3295.08 2346.5 3281Z" stroke-miterlimit="8" fill-rule="evenodd"/ class="interchange">
        <path d="M1769.5 2494.5C1769.5 2480.14 1781.14 2468.5 1795.5 2468.5L1938.5 2468.5C1952.86 2468.5 1964.5 2480.14 1964.5 2494.5L1964.5 2494.5C1964.5 2508.86 1952.86 2520.5 1938.5 2520.5L1795.5 2520.5C1781.14 2520.5 1769.5 2508.86 1769.5 2494.5Z" stroke-miterlimit="8" fill-rule="evenodd"/ class="interchange">
        <path d="M1770.5 2249.5C1770.5 2235.14 1782.14 2223.5 1796.5 2223.5L1887.5 2223.5C1901.86 2223.5 1913.5 2235.14 1913.5 2249.5L1913.5 2249.5C1913.5 2263.86 1901.86 2275.5 1887.5 2275.5L1796.5 2275.5C1782.14 2275.5 1770.5 2263.86 1770.5 2249.5Z" stroke-miterlimit="8" fill-rule="evenodd"/ class="interchange">
        <path d="M1660.5 1934.5C1660.5 1920.14 1672.14 1908.5 1686.5 1908.5L1686.5 1908.5C1700.86 1908.5 1712.5 1920.14 1712.5 1934.5L1712.5 1986.5C1712.5 2000.86 1700.86 2012.5 1686.5 2012.5L1686.5 2012.5C1672.14 2012.5 1660.5 2000.86 1660.5 1986.5Z" stroke-miterlimit="8" fill-rule="evenodd"/ class="interchange">
        <path d="M2582.5 2716.5C2582.5 2702.14 2594.14 2690.5 2608.5 2690.5L2660.5 2690.5C2674.86 2690.5 2686.5 2702.14 2686.5 2716.5L2686.5 2716.5C2686.5 2730.86 2674.86 2742.5 2660.5 2742.5L2608.5 2742.5C2594.14 2742.5 2582.5 2730.86 2582.5 2716.5Z" stroke-miterlimit="8" fill-rule="evenodd"/ class="interchange">
        <path d="M3599.5 2673.5C3599.5 2659.14 3611.14 2647.5 3625.5 2647.5L3625.5 2647.5C3639.86 2647.5 3651.5 2659.14 3651.5 2673.5L3651.5 2725.5C3651.5 2739.86 3639.86 2751.5 3625.5 2751.5L3625.5 2751.5C3611.14 2751.5 3599.5 2739.86 3599.5 2725.5Z" stroke-miterlimit="8" fill-rule="evenodd"/ class="interchange">
        <path d="M481.5 1800.5C481.5 1786.14 493.141 1774.5 507.5 1774.5L559.5 1774.5C573.859 1774.5 585.5 1786.14 585.5 1800.5L585.5 1800.5C585.5 1814.86 573.859 1826.5 559.5 1826.5L507.5 1826.5C493.141 1826.5 481.5 1814.86 481.5 1800.5Z" stroke-miterlimit="8" fill-rule="evenodd"/ class="interchange">
        <path d="M481.5 1635.5C481.5 1621.14 493.141 1609.5 507.5 1609.5L559.5 1609.5C573.859 1609.5 585.5 1621.14 585.5 1635.5L585.5 1635.5C585.5 1649.86 573.859 1661.5 559.5 1661.5L507.5 1661.5C493.141 1661.5 481.5 1649.86 481.5 1635.5Z" stroke-miterlimit="8" fill-rule="evenodd"/ class="interchange">
    </g>
</svg>
