<svg width="2338" height="1169" xmlns="http://www.w3.org/2000/svg" xmlns:xlink="http://www.w3.org/1999/xlink" xml:space="preserve" overflow="hidden"><defs><clipPath id="clip0"><rect x="1031" y="653" width="2338" height="1169"/></clipPath></defs><g clip-path="url(#clip0)" transform="translate(-1031 -653)"><rect x="1810" y="653" width="1559" height="1169" fill="#FFCD00"/><rect x="0" y="0" width="779" height="1169" fill="#003087" transform="matrix(-1 1.22465e-16 1.22465e-16 1 1810 653)"/><path d="M2405.85 972.318 2498.22 986.141C2549.24 993.774 2561.6 1053.3 2576.78 1092.34 2586.27 1116.74 2603.63 1149.68 2606.04 1177.81L2605.84 1184.15 2606.59 1184.19 2606.34 1179.07C2608.27 1150.9 2625.06 1117.67 2634.13 1093.11 2645.02 1063.64 2654.11 1022.68 2679.45 1000.45 2687.89 993.038 2698.14 987.71 2710.86 985.583L2802.99 970.183 2818.39 1062.31C2826.89 1113.19 2774.09 1143.34 2741.66 1169.84 2721.39 1186.4 2695.42 1213.09 2669.42 1224.08L2663.49 1225.79 2663.69 1226.35 2664.73 1225.92C2692.45 1217.35 2731.64 1223.58 2759.1 1224.67 2800.96 1226.33 2861.27 1218.65 2885.08 1264.41L2928.2 1347.27 2845.34 1390.38C2799.57 1414.2 2754.59 1373.3 2719.36 1350.64 2701.75 1339.31 2676.85 1326.52 2658.12 1310.93L2647.5 1300.68 2654.54 1314.5C2663.97 1336.97 2668.91 1364.52 2674.59 1384.68 2685.94 1425 2711.88 1479.99 2675.72 1516.77L2610.24 1583.38 2543.63 1517.9C2506.84 1481.74 2531.83 1426.32 2542.5 1385.81 2548.49 1363.03 2553.4 1330.9 2564.95 1307.08L2570.4 1297.55 2570.15 1297.36 2568.5 1299.89C2550.38 1321.54 2517.26 1338.56 2495.49 1353.1 2460.65 1376.35 2416.37 1418.02 2370.21 1394.99L2286.62 1353.3 2328.32 1269.71C2334.07 1258.17 2342.17 1249.93 2351.72 1244.03 2380.39 1226.31 2422.23 1229.6 2453.59 1227.82 2479.73 1226.33 2516.42 1220 2543.92 1226.4L2545.9 1227.12 2546.35 1225.33 2546.65 1224.68 2543.74 1223.89C2517.55 1213.35 2491.13 1187.11 2470.58 1170.9 2437.7 1144.95 2384.39 1115.71 2392.02 1064.7Z" fill="#003087" fill-rule="evenodd"/><path d="M0 0 0.000360892 183.87" stroke="#FFFFFF" stroke-width="13.75" stroke-linecap="round" stroke-miterlimit="8" fill="none" fill-rule="evenodd" transform="matrix(0.803958 -0.594686 -0.594686 -0.803958 2559.74 1185.9)"/><path d="M0 0 0.000360892 183.87" stroke="#FFFFFF" stroke-width="13.75" stroke-linecap="round" stroke-miterlimit="8" fill="none" fill-rule="evenodd" transform="matrix(-0.317143 -0.948378 -0.948378 0.317143 2537.57 1272.6)"/><path d="M0 0 0.000360892 183.87" stroke="#FFFFFF" stroke-width="13.75" stroke-linecap="round" stroke-miterlimit="8" fill="none" fill-rule="evenodd" transform="matrix(-0.999963 0.00855579 0.00855579 0.999963 2607.93 1319.94)"/><path d="M0 0 0.000360892 183.87" stroke="#FFFFFF" stroke-width="13.75" stroke-linecap="round" stroke-miterlimit="8" fill="none" fill-rule="evenodd" transform="matrix(-0.300869 0.953666 0.953666 0.300869 2677.9 1268.18)"/><path d="M0 0 0.000360892 183.87" stroke="#FFFFFF" stroke-width="13.75" stroke-linecap="round" stroke-miterlimit="8" fill="none" fill-rule="evenodd" transform="matrix(0.814016 0.580842 0.580842 -0.814016 2654.24 1186.29)"/><path d="M2573.28 1273.09C2558.99 1253.77 2563.06 1226.52 2582.39 1212.23 2601.71 1197.94 2628.96 1202.01 2643.25 1221.34 2657.54 1240.66 2653.47 1267.91 2634.14 1282.2 2614.82 1296.49 2587.57 1292.42 2573.28 1273.09Z" fill="#FFCD00" fill-rule="evenodd"/><path d="M1335 920.978 1389.06 886.982 1354.81 832.415 1414.55 854.351 1435 793 1455.45 854.351 1515.19 832.415 1480.94 886.982 1535 920.978 1471.84 927.671 1479.5 992.001 1435 945.78 1390.5 992.001 1398.16 927.671Z" fill="#FFFFFF" fill-rule="evenodd"/><path d="M1481 1267.34 1519.94 1263.18 1536 1228 1552.06 1263.18 1591 1267.34 1561.98 1293.25 1569.99 1331 1536 1311.83 1502.01 1331 1510.02 1293.25Z" fill="#FFFFFF" fill-rule="evenodd"/><path d="M1335 1610.98 1389.06 1576.98 1354.81 1522.41 1414.55 1544.35 1435 1483 1455.45 1544.35 1515.19 1522.41 1480.94 1576.98 1535 1610.98 1471.84 1617.67 1479.5 1682 1435 1635.78 1390.5 1682 1398.16 1617.67Z" fill="#FFFFFF" fill-rule="evenodd"/><path d="M1073 1203.98 1127.33 1169.98 1092.91 1115.41 1152.95 1137.35 1173.5 1076 1194.05 1137.35 1254.09 1115.41 1219.67 1169.98 1274 1203.98 1210.53 1210.67 1218.23 1275 1173.5 1228.78 1128.77 1275 1136.47 1210.67Z" fill="#FFFFFF" fill-rule="evenodd"/><path d="M1561 1130.98 1615.33 1096.98 1580.91 1042.41 1640.95 1064.35 1661.5 1003 1682.05 1064.35 1742.09 1042.41 1707.67 1096.98 1762 1130.98 1698.53 1137.67 1706.23 1202 1661.5 1155.78 1616.77 1202 1624.47 1137.67Z" fill="#FFFFFF" fill-rule="evenodd"/></g></svg>