<svg width="2338" height="1169" xmlns="http://www.w3.org/2000/svg" xmlns:xlink="http://www.w3.org/1999/xlink" xml:space="preserve" overflow="hidden"><defs><clipPath id="clip0"><rect x="1031" y="653" width="2338" height="1169"/></clipPath></defs><g clip-path="url(#clip0)" transform="translate(-1031 -653)"><rect x="1810" y="653" width="1559" height="1169" fill="#F2F2F2"/><rect x="0" y="0" width="779" height="1169" fill="#002854" transform="matrix(-1 1.22465e-16 1.22465e-16 1 1810 653)"/><path d="M2360 1439.5 2501.74 1399.13 2430 1270.15 2558.71 1342.04 2599 1200 2639.29 1342.04 2768 1270.15 2696.26 1399.13 2838 1439.5 2696.26 1479.87 2768 1608.85 2639.29 1536.96 2599 1679 2558.71 1536.96 2430 1608.85 2501.74 1479.87Z" fill="#002854" fill-rule="evenodd"/><path d="M2417.47 1044.75C2423.89 1026.13 2458.76 1020.84 2474.04 1017.58 2489.32 1014.32 2497.61 1026.34 2509.17 1025.21 2520.73 1024.07 2530.22 1010.67 2545.68 1009.28 2561.14 1007.9 2586.2 1004.81 2601.93 1016.91 2613.6 1005.31 2639.08 1004.38 2655.04 1006.26 2671 1008.15 2685.65 1027.22 2697.71 1028.22 2709.78 1029.23 2721.86 1019.1 2733.47 1019.85 2745.09 1020.59 2761.25 1016.07 2767.41 1032.67 2773.57 1049.27 2773.57 1104.48 2770.43 1119.45 2767.28 1134.41 2777.09 1122.84 2748.56 1122.47 2720.02 1122.09 2651.39 1116.05 2599.23 1117.19 2547.07 1118.32 2432.68 1148.12 2435.57 1129.26 2438.47 1110.39 2411.06 1063.36 2417.47 1044.75Z" stroke="#A40000" stroke-width="4.58333" stroke-miterlimit="8" fill="#D40032" fill-rule="evenodd"/><path d="M2594.24 823.9 2594.24 823.901 2594.24 823.9ZM2577.49 796.5 2621.61 796.5 2620.47 797.234C2612.72 803.031 2607.12 811.556 2605.11 821.385L2604.86 823.871 2604.89 823.939 2607.87 823.639C2617.7 821.627 2626.23 816.034 2632.02 808.283L2632.5 807.54 2632.5 851.201 2631.77 850.055C2625.97 842.304 2617.44 836.711 2607.61 834.699L2604.79 834.414C2604.77 834.232 2604.75 834.049 2604.73 833.866 2604.75 834.049 2604.77 834.232 2604.79 834.414L2605.11 837.615C2607.12 847.444 2612.72 855.969 2620.47 861.766L2621.61 862.5 2577.49 862.5 2578.63 861.766C2586.38 855.969 2591.98 847.444 2593.99 837.615L2594.31 834.405 2594.31 834.404 2591.39 834.699C2581.56 836.711 2573.03 842.304 2567.23 850.055L2566.5 851.201 2566.5 806.734 2567.49 808.283C2573.29 816.034 2581.81 821.627 2591.64 823.639L2594.24 823.9 2593.99 821.385C2591.98 811.556 2586.38 803.031 2578.63 797.234L2577.49 796.5Z" stroke="#FFA400" stroke-width="4.58333" stroke-miterlimit="8" fill="#FFC000" fill-rule="evenodd"/><path d="M2550.92 913.378C2560.49 912.651 2570.19 912.809 2579.88 913.888L2577.55 932.384C2543.98 928.714 2510.22 937.598 2483.67 957.091 2454.43 978.554 2436.69 1010.84 2435.08 1045.5L2416.5 1044.75C2418.32 1004.86 2438.43 967.683 2471.63 942.841 2494.54 925.706 2522.18 915.559 2550.92 913.378ZM2648.85 913.376C2677.6 915.553 2705.25 925.675 2728.18 942.771 2761.49 967.609 2781.68 1004.82 2783.5 1044.74L2764.92 1045.49C2763.31 1010.79 2745.49 978.481 2716.14 957.022 2689.56 937.582 2655.79 928.723 2622.2 932.381L2619.88 913.884C2629.57 912.808 2639.27 912.651 2648.85 913.376ZM2599.13 852.5C2616.23 852.5 2630.09 866.397 2630.09 883.54 2630.09 900.683 2616.23 914.581 2599.13 914.581 2582.03 914.581 2568.17 900.683 2568.17 883.54 2568.17 866.397 2582.03 852.5 2599.13 852.5Z" stroke="#FFA400" stroke-width="4.58333" stroke-miterlimit="8" fill="#FFC000" fill-rule="evenodd"/><path d="M0 13.0001C-1.65508e-15 5.82033 5.82033-1.65508e-15 13.0001-3.31016e-15 20.1798-6.62033e-15 26.0001 5.82033 26.0001 13.0001 26.0001 20.1798 20.1798 26.0001 13.0001 26.0001 5.82033 26.0001-8.27541e-15 20.1798 0 13.0001Z" stroke="#D9D9D9" stroke-width="4.58333" stroke-miterlimit="8" fill="#F2F2F2" fill-rule="evenodd" transform="matrix(-1 0 0 1 2573.5 897.5)"/><path d="M0 12.9999C-1.59142e-15 5.82025 5.59646-1.65506e-15 12.5-3.31012e-15 19.4036-6.62024e-15 25.0001 5.82025 25.0001 12.9999 25.0001 20.1795 19.4036 25.9998 12.5 25.9998 5.59646 25.9998-7.95712e-15 20.1795 0 12.9999Z" stroke="#D9D9D9" stroke-width="4.58333" stroke-miterlimit="8" fill="#F2F2F2" fill-rule="evenodd" transform="matrix(-1 0 0 1 2545.5 901.5)"/><path d="M0 13.0001C-1.65508e-15 5.82033 5.82033-1.65508e-15 13.0001-3.31016e-15 20.1798-6.62033e-15 26.0001 5.82033 26.0001 13.0001 26.0001 20.1798 20.1798 26.0001 13.0001 26.0001 5.82033 26.0001-8.27541e-15 20.1798 0 13.0001Z" stroke="#D9D9D9" stroke-width="4.58333" stroke-miterlimit="8" fill="#F2F2F2" fill-rule="evenodd" transform="matrix(-1 0 0 1 2518.5 908.5)"/><path d="M0 12.9999C-1.65508e-15 5.82025 5.82033-1.65506e-15 13.0001-3.31012e-15 20.1798-6.62024e-15 26.0001 5.82025 26.0001 12.9999 26.0001 20.1795 20.1798 25.9998 13.0001 25.9998 5.82033 25.9998-8.27541e-15 20.1795 0 12.9999Z" stroke="#D9D9D9" stroke-width="4.58333" stroke-miterlimit="8" fill="#F2F2F2" fill-rule="evenodd" transform="matrix(-1 0 0 1 2492.5 922.5)"/><path d="M0 12.5C-1.65508e-15 5.59646 5.82033-1.59142e-15 13.0001-3.18285e-15 20.1798-6.36569e-15 26.0001 5.59646 26.0001 12.5 26.0001 19.4036 20.1798 25.0001 13.0001 25.0001 5.82033 25.0001-8.27541e-15 19.4036 0 12.5Z" stroke="#D9D9D9" stroke-width="4.58333" stroke-miterlimit="8" fill="#F2F2F2" fill-rule="evenodd" transform="matrix(-1 0 0 1 2470.5 940.5)"/><path d="M0 12.5C-1.65508e-15 5.59646 5.82033-1.59142e-15 13.0001-3.18285e-15 20.1798-6.36569e-15 26.0001 5.59646 26.0001 12.5 26.0001 19.4036 20.1798 25.0001 13.0001 25.0001 5.82033 25.0001-8.27541e-15 19.4036 0 12.5Z" stroke="#D9D9D9" stroke-width="4.58333" stroke-miterlimit="8" fill="#F2F2F2" fill-rule="evenodd" transform="matrix(-1 0 0 1 2452.5 962.5)"/><path d="M0 12.9999C-1.65508e-15 5.82025 5.82033-1.65506e-15 13.0001-3.31012e-15 20.1798-6.62024e-15 26.0001 5.82025 26.0001 12.9999 26.0001 20.1795 20.1798 25.9998 13.0001 25.9998 5.82033 25.9998-8.27541e-15 20.1795 0 12.9999Z" stroke="#D9D9D9" stroke-width="4.58333" stroke-miterlimit="8" fill="#F2F2F2" fill-rule="evenodd" transform="matrix(-1 0 0 1 2440.5 987.5)"/><path d="M0 13.0001C-1.65506e-15 5.82033 5.82025-1.65508e-15 12.9999-3.31016e-15 20.1795-6.62033e-15 25.9998 5.82033 25.9998 13.0001 25.9998 20.1798 20.1795 26.0001 12.9999 26.0001 5.82025 26.0001-8.27529e-15 20.1798 0 13.0001Z" stroke="#D9D9D9" stroke-width="4.58333" stroke-miterlimit="8" fill="#F2F2F2" fill-rule="evenodd" transform="matrix(-1 0 0 1 2432.5 1014.5)"/><path d="M2628.5 910.5C2628.5 903.32 2634.32 897.5 2641.5 897.5 2648.68 897.5 2654.5 903.32 2654.5 910.5 2654.5 917.68 2648.68 923.5 2641.5 923.5 2634.32 923.5 2628.5 917.68 2628.5 910.5Z" stroke="#D9D9D9" stroke-width="4.58333" stroke-miterlimit="8" fill="#F2F2F2" fill-rule="evenodd"/><path d="M2655.5 914.5C2655.5 907.32 2661.32 901.5 2668.5 901.5 2675.68 901.5 2681.5 907.32 2681.5 914.5 2681.5 921.68 2675.68 927.5 2668.5 927.5 2661.32 927.5 2655.5 921.68 2655.5 914.5Z" stroke="#D9D9D9" stroke-width="4.58333" stroke-miterlimit="8" fill="#F2F2F2" fill-rule="evenodd"/><path d="M2683.5 921.5C2683.5 914.32 2689.32 908.5 2696.5 908.5 2703.68 908.5 2709.5 914.32 2709.5 921.5 2709.5 928.68 2703.68 934.5 2696.5 934.5 2689.32 934.5 2683.5 928.68 2683.5 921.5Z" stroke="#D9D9D9" stroke-width="4.58333" stroke-miterlimit="8" fill="#F2F2F2" fill-rule="evenodd"/><path d="M2709.5 935.5C2709.5 928.32 2715.32 922.5 2722.5 922.5 2729.68 922.5 2735.5 928.32 2735.5 935.5 2735.5 942.68 2729.68 948.5 2722.5 948.5 2715.32 948.5 2709.5 942.68 2709.5 935.5Z" stroke="#D9D9D9" stroke-width="4.58333" stroke-miterlimit="8" fill="#F2F2F2" fill-rule="evenodd"/><path d="M2731.5 953C2731.5 946.096 2737.32 940.5 2744.5 940.5 2751.68 940.5 2757.5 946.096 2757.5 953 2757.5 959.904 2751.68 965.5 2744.5 965.5 2737.32 965.5 2731.5 959.904 2731.5 953Z" stroke="#D9D9D9" stroke-width="4.58333" stroke-miterlimit="8" fill="#F2F2F2" fill-rule="evenodd"/><path d="M2749.5 975C2749.5 968.096 2755.32 962.5 2762.5 962.5 2769.68 962.5 2775.5 968.096 2775.5 975 2775.5 981.904 2769.68 987.5 2762.5 987.5 2755.32 987.5 2749.5 981.904 2749.5 975Z" stroke="#D9D9D9" stroke-width="4.58333" stroke-miterlimit="8" fill="#F2F2F2" fill-rule="evenodd"/><path d="M2761.5 1000.5C2761.5 993.32 2767.32 987.5 2774.5 987.5 2781.68 987.5 2787.5 993.32 2787.5 1000.5 2787.5 1007.68 2781.68 1013.5 2774.5 1013.5 2767.32 1013.5 2761.5 1007.68 2761.5 1000.5Z" stroke="#D9D9D9" stroke-width="4.58333" stroke-miterlimit="8" fill="#F2F2F2" fill-rule="evenodd"/><path d="M2769.5 1027.5C2769.5 1020.32 2775.32 1014.5 2782.5 1014.5 2789.68 1014.5 2795.5 1020.32 2795.5 1027.5 2795.5 1034.68 2789.68 1040.5 2782.5 1040.5 2775.32 1040.5 2769.5 1034.68 2769.5 1027.5Z" stroke="#D9D9D9" stroke-width="4.58333" stroke-miterlimit="8" fill="#F2F2F2" fill-rule="evenodd"/><path d="M2574.83 908.979 2624.73 908.979 2624.73 1036.5 2574.83 1036.5ZM2599.5 852.5 2607.53 854.126 2607.53 876.155 2629 876.155 2630.5 883.602 2628.89 891.588 2570.11 891.588 2568.5 883.602 2570 876.155 2592.15 876.155 2592.15 853.99Z" stroke="#FFA400" stroke-width="4.58333" stroke-miterlimit="8" fill="#FFC000" fill-rule="evenodd"/><path d="M2586.5 912.5C2586.5 905.32 2592.32 899.5 2599.5 899.5 2606.68 899.5 2612.5 905.32 2612.5 912.5 2612.5 919.68 2606.68 925.5 2599.5 925.5 2592.32 925.5 2586.5 919.68 2586.5 912.5Z" stroke="#D9D9D9" stroke-width="4.58333" stroke-miterlimit="8" fill="#F2F2F2" fill-rule="evenodd"/><path d="M2586.5 934.5C2586.5 927.32 2592.32 921.5 2599.5 921.5 2606.68 921.5 2612.5 927.32 2612.5 934.5 2612.5 941.68 2606.68 947.5 2599.5 947.5 2592.32 947.5 2586.5 941.68 2586.5 934.5Z" stroke="#D9D9D9" stroke-width="4.58333" stroke-miterlimit="8" fill="#F2F2F2" fill-rule="evenodd"/><path d="M2586.5 955.5C2586.5 948.32 2592.32 942.5 2599.5 942.5 2606.68 942.5 2612.5 948.32 2612.5 955.5 2612.5 962.68 2606.68 968.5 2599.5 968.5 2592.32 968.5 2586.5 962.68 2586.5 955.5Z" stroke="#D9D9D9" stroke-width="4.58333" stroke-miterlimit="8" fill="#F2F2F2" fill-rule="evenodd"/><path d="M2586.5 976.5C2586.5 969.32 2592.32 963.5 2599.5 963.5 2606.68 963.5 2612.5 969.32 2612.5 976.5 2612.5 983.68 2606.68 989.5 2599.5 989.5 2592.32 989.5 2586.5 983.68 2586.5 976.5Z" stroke="#D9D9D9" stroke-width="4.58333" stroke-miterlimit="8" fill="#F2F2F2" fill-rule="evenodd"/><path d="M2586.5 998.5C2586.5 991.32 2592.32 985.5 2599.5 985.5 2606.68 985.5 2612.5 991.32 2612.5 998.5 2612.5 1005.68 2606.68 1011.5 2599.5 1011.5 2592.32 1011.5 2586.5 1005.68 2586.5 998.5Z" stroke="#D9D9D9" stroke-width="4.58333" stroke-miterlimit="8" fill="#F2F2F2" fill-rule="evenodd"/><path d="M2586.5 1020.5C2586.5 1013.32 2592.32 1007.5 2599.5 1007.5 2606.68 1007.5 2612.5 1013.32 2612.5 1020.5 2612.5 1027.68 2606.68 1033.5 2599.5 1033.5 2592.32 1033.5 2586.5 1027.68 2586.5 1020.5Z" stroke="#D9D9D9" stroke-width="4.58333" stroke-miterlimit="8" fill="#F2F2F2" fill-rule="evenodd"/><path d="M2505.43 1023.5 2505.43 1023.52C2507.15 1025.55 2513.26 1031.29 2515.74 1035.64 2515.74 1035.64 2515.75 1035.65 2515.75 1035.65L2517.51 1038.93C2518.87 1041.69 2519.91 1044.55 2520.28 1047.75 2520.33 1048.39 2520.37 1049.04 2520.42 1049.68 2520.42 1049.69 2520.42 1049.7 2520.42 1049.71 2520.42 1049.71 2520.42 1049.72 2520.42 1049.72L2520.36 1051.74C2520.08 1055.15 2518.96 1058.75 2517.87 1062.76L2516.63 1067.8C2516.63 1067.8 2516.63 1067.8 2516.63 1067.8 2516.02 1070.87 2515.22 1073.73 2514.43 1076.89L2514.11 1078.29 2514.5 1077.26C2515.15 1075.63 2515.84 1074.21 2516.54 1073.17 2519.56 1068.66 2523.54 1065.74 2528.32 1065.4 2529.01 1065.36 2529.71 1065.36 2530.42 1065.42 2531.21 1065.49 2531.97 1065.6 2532.68 1065.75L2533.45 1065.96 2534.71 1066.3 2534.71 1066.3 2535.28 1066.58 2538.12 1067.99C2540.12 1069.33 2541.59 1071.07 2542.68 1072.91 2544.85 1076.61 2544.92 1084.36 2543.45 1087.58 2541.9 1090.99 2539.8 1093.03 2537.73 1094.28 2536.7 1094.9 2535.34 1095.32 2534.08 1095.47 2532.83 1095.63 2531.67 1095.51 2531.03 1095.07 2532.89 1093.4 2534.26 1090.93 2533.96 1088.12 2533.65 1085.31 2532.48 1083.31 2530.61 1082.65L2528.95 1082.3 2526.91 1082.33C2525.49 1082.51 2523.99 1083.06 2522.76 1084.17 2520.91 1085.84 2518.33 1089.52 2516.87 1092.88L2516.71 1093.3C2515.49 1095.3 2514.94 1096.91 2514.88 1098.28L2515.1 1099.86 2517.15 1101.83C2520.05 1103.99 2523.12 1105.81 2526.27 1107.48 2536.78 1108.78 2545.3 1112.41 2557.81 1111.38 2570.32 1110.36 2576.31 1108.26 2583.19 1104.76L2586.79 1102.28 2592.15 1089.19 2592.58 1084.94 2592.58 1084.94 2588.67 1085.33C2575.56 1088 2564.19 1095.41 2556.46 1105.69L2555.48 1107.21 2555.48 1048.25 2556.8 1050.3C2564.53 1060.58 2575.91 1067.99 2589.02 1070.66L2592.48 1071.01 2592.15 1067.67C2589.46 1054.64 2582 1043.34 2571.66 1035.65L2570.13 1034.68 2629 1034.68 2627.47 1035.65C2617.13 1043.34 2609.67 1054.64 2606.98 1067.67L2606.64 1071.07 2599.84 1071.75 2592.48 1071.01 2592.48 1071.01 2599.84 1071.75 2606.64 1071.07 2606.64 1071.07 2610.67 1070.66C2623.78 1067.99 2635.16 1060.58 2642.89 1050.3L2643.52 1049.32 2643.52 1107.21 2642.54 1105.69C2634.81 1095.41 2623.44 1088 2610.33 1085.33L2606.55 1084.95 2605.89 1078.43 2606.55 1084.95 2606.98 1089.19 2612.41 1102.45 2615.55 1104.63C2623.84 1106.92 2630.25 1110.7 2643.44 1111.86 2656.62 1113.02 2664.74 1110.53 2672.93 1107.63 2676.16 1105.98 2679.28 1104.18 2682.11 1102L2683.32 1100.73 2683.57 1100.27C2684.29 1098.43 2684.12 1096.23 2682.29 1093.3L2682.13 1092.88C2680.67 1089.52 2678.09 1085.85 2676.24 1084.17 2675.01 1083.06 2673.51 1082.51 2672.09 1082.33L2670.05 1082.3 2668.39 1082.65C2666.52 1083.31 2665.35 1085.31 2665.04 1088.12 2664.74 1090.93 2666.11 1093.4 2667.97 1095.07 2667.33 1095.51 2666.17 1095.63 2664.91 1095.47 2663.66 1095.32 2662.3 1094.9 2661.27 1094.28 2659.2 1093.03 2657.1 1090.99 2655.55 1087.58 2654.08 1084.36 2654.15 1076.61 2656.32 1072.91 2656.86 1071.99 2657.5 1071.1 2658.26 1070.26L2659.99 1068.76 2660.88 1067.99 2663.12 1066.88 2664.29 1066.3 2664.29 1066.3 2664.5 1066.24 2666.32 1065.75C2667.03 1065.6 2667.79 1065.49 2668.58 1065.42 2669.29 1065.36 2669.99 1065.36 2670.68 1065.4 2675.46 1065.74 2679.44 1068.66 2682.46 1073.17 2683.16 1074.21 2683.85 1075.63 2684.5 1077.26L2684.89 1078.29 2684.57 1076.89C2683.78 1073.73 2682.98 1070.87 2682.37 1067.8 2682.37 1067.8 2682.37 1067.8 2682.37 1067.8L2681.13 1062.76C2680.04 1058.75 2678.92 1055.15 2678.64 1051.74L2678.58 1049.72C2678.58 1049.72 2678.58 1049.71 2678.58 1049.71 2678.58 1049.7 2678.58 1049.69 2678.58 1049.68 2678.63 1049.04 2678.67 1048.39 2678.72 1047.75 2679.09 1044.55 2680.13 1041.69 2681.49 1038.93L2683.25 1035.65C2683.25 1035.65 2683.25 1035.64 2683.26 1035.64 2685.74 1031.29 2691.85 1025.55 2693.57 1023.52L2693.57 1023.5 2693.58 1023.51 2693.6 1023.5 2693.6 1023.53 2693.64 1023.59 2693.7 1023.53 2693.7 1023.51 2693.71 1023.52 2693.73 1023.51 2693.73 1023.53C2695.22 1025.72 2700.7 1032.07 2702.71 1036.66 2702.71 1036.66 2702.71 1036.66 2702.71 1036.66L2704.12 1040.11C2705.18 1043 2705.91 1045.94 2705.95 1049.17 2705.93 1049.81 2705.9 1050.46 2705.88 1051.11 2705.88 1051.11 2705.88 1051.12 2705.88 1051.13 2705.88 1051.14 2705.88 1051.14 2705.88 1051.14L2705.61 1053.14C2704.97 1056.51 2703.48 1059.97 2701.97 1063.85L2700.21 1068.73C2700.21 1068.73 2700.21 1068.73 2700.21 1068.73 2699.28 1071.72 2698.18 1074.48 2697.06 1077.54L2696.6 1078.9 2697.09 1077.92C2697.92 1076.37 2698.75 1075.02 2699.56 1074.06 2703.03 1069.88 2707.3 1067.4 2712.09 1067.56 2712.77 1067.58 2713.47 1067.66 2714.17 1067.8 2714.95 1067.95 2715.69 1068.13 2716.39 1068.36L2717.13 1068.64 2718.35 1069.12 2718.35 1069.12 2718.89 1069.46 2721.56 1071.15C2723.4 1072.69 2724.69 1074.57 2725.58 1076.52 2727.35 1080.42 2726.6 1088.14 2724.8 1091.19 2722.9 1094.42 2720.6 1096.23 2718.41 1097.25 2717.32 1097.77 2715.92 1098.04 2714.66 1098.06 2713.39 1098.08 2712.25 1097.85 2711.66 1097.35 2713.68 1095.88 2715.31 1093.57 2715.3 1090.74 2715.29 1087.91 2714.34 1085.8 2712.55 1084.95L2710.93 1084.43 2708.9 1084.25C2707.47 1084.28 2705.92 1084.67 2704.58 1085.65 2702.57 1087.12 2699.62 1090.51 2697.81 1093.69L2697.6 1094.1C2696.18 1095.96 2695.46 1097.5 2695.26 1098.86L2695.32 1100.65 2695.64 1101.27 2696.78 1102.63C2699.44 1105.08 2702.3 1107.2 2705.25 1109.19L2713.42 1114.69C2718.5 1115.88 2722.73 1116.19 2735.78 1116.32 2748.83 1116.44 2749.26 1117.61 2755.57 1115.44 2758.82 1113.99 2762.01 1112.4 2765.06 1110.44L2769.44 1106.77 2774.52 1097.72 2775.47 1093.55 2771.54 1093.46C2758.2 1094.52 2746.01 1100.51 2737.07 1109.77L2735.91 1111.16 2743.14 1052.64 2744.2 1054.84C2750.62 1065.97 2761 1074.71 2773.68 1078.95L2777.08 1079.71 2777.16 1076.36C2776.09 1063.1 2770.07 1050.98 2760.75 1042.09L2759.35 1040.94 2788.5 1044.5 2783.96 1081.26 2778.58 1124.76 2774.34 1177.5C2695.18 1170.76 2657.33 1169.63 2599.13 1169.63 2540.92 1169.63 2505.08 1172.26 2425.11 1177.5L2421.39 1131.34 2421.23 1131.36 2415.04 1081.26 2410.5 1044.5 2439.65 1040.94 2438.25 1042.09C2428.93 1050.98 2422.91 1063.1 2421.84 1076.36L2421.92 1079.71 2425.32 1078.95C2438 1074.71 2448.38 1065.97 2454.8 1054.84L2455.86 1052.64 2463.09 1111.16 2461.93 1109.77C2452.99 1100.51 2440.8 1094.52 2427.46 1093.46L2423.53 1093.55 2424.48 1097.72 2428.14 1104.24 2434.41 1109.48C2437.45 1111.44 2440.64 1113.03 2443.9 1114.48 2450.27 1115 2454.76 1116.27 2463.02 1116.04 2471.28 1115.81 2481.08 1115.42 2486.23 1114.3L2493.96 1109.28C2497 1107.31 2499.91 1105.2 2502.5 1102.74L2502.75 1102.41 2503.4 1100.9C2503.93 1098.99 2503.53 1096.82 2501.4 1094.1L2501.19 1093.69C2499.38 1090.51 2496.43 1087.12 2494.42 1085.65 2493.08 1084.67 2491.53 1084.28 2490.1 1084.25L2488.07 1084.43 2486.45 1084.95C2484.66 1085.8 2483.71 1087.91 2483.7 1090.74 2483.69 1093.57 2485.32 1095.88 2487.34 1097.35 2486.75 1097.85 2485.61 1098.08 2484.34 1098.06 2483.08 1098.04 2481.68 1097.77 2480.59 1097.25 2478.4 1096.23 2476.09 1094.42 2474.2 1091.19 2472.4 1088.13 2471.65 1080.42 2473.42 1076.52 2473.87 1075.55 2474.41 1074.59 2475.07 1073.68L2476.64 1072.01 2477.44 1071.15 2479.55 1069.81 2480.65 1069.12 2480.65 1069.12 2480.86 1069.04 2482.61 1068.36C2483.31 1068.13 2484.04 1067.95 2484.83 1067.8 2485.53 1067.66 2486.23 1067.58 2486.91 1067.56 2491.7 1067.4 2495.97 1069.88 2499.44 1074.06 2500.25 1075.02 2501.08 1076.37 2501.91 1077.92L2502.4 1078.9 2501.94 1077.54C2500.82 1074.48 2499.72 1071.72 2498.79 1068.73 2498.79 1068.73 2498.79 1068.73 2498.79 1068.73L2497.03 1063.85C2495.52 1059.97 2494.03 1056.51 2493.39 1053.14L2493.12 1051.14C2493.12 1051.14 2493.12 1051.14 2493.12 1051.13 2493.12 1051.12 2493.12 1051.11 2493.12 1051.11 2493.1 1050.46 2493.07 1049.81 2493.05 1049.16 2493.09 1045.94 2493.82 1043 2494.88 1040.11L2496.29 1036.66C2496.29 1036.66 2496.29 1036.66 2496.29 1036.66 2498.3 1032.07 2503.77 1025.72 2505.27 1023.53L2505.27 1023.51 2505.29 1023.52 2505.3 1023.51 2505.3 1023.53 2505.36 1023.59 2505.4 1023.53 2505.4 1023.5 2505.42 1023.51Z" stroke="#FFA400" stroke-width="4.58333" stroke-miterlimit="8" fill="#FFC000" fill-rule="evenodd"/><path d="M0 14.3309 26.071 0 36.5411 14.242 26.071 28.6617 0 14.3309Z" stroke="#A40000" stroke-width="4.58333" stroke-miterlimit="8" fill="#D40032" fill-rule="evenodd" transform="matrix(-0.990268 0.139173 0.139173 0.990268 2447.05 1129.47)"/><path d="M2664.24 1139.98C2664.7 1133.39 2675.02 1128.74 2687.28 1129.6 2699.55 1130.46 2709.12 1136.5 2708.66 1143.09 2708.2 1149.67 2697.88 1154.32 2685.62 1153.46 2673.35 1152.6 2663.78 1146.57 2664.24 1139.98Z" stroke="#165235" stroke-width="4.58333" stroke-miterlimit="8" fill="#21794F" fill-rule="evenodd"/><path d="M2489.86 1143.09C2489.4 1136.5 2498.97 1130.46 2511.24 1129.6 2523.51 1128.74 2533.82 1133.39 2534.29 1139.98 2534.75 1146.57 2525.18 1152.6 2512.91 1153.46 2500.64 1154.32 2490.33 1149.67 2489.86 1143.09Z" stroke="#165235" stroke-width="4.58333" stroke-miterlimit="8" fill="#21794F" fill-rule="evenodd"/><path d="M2600.07 1169.5C2646.33 1169.5 2680.46 1170.13 2730.02 1173.24L2775.99 1176.55C2784.66 1178.05 2787.78 1179.41 2786.04 1189.14 2784.29 1198.86 2780.8 1202.38 2774.58 1199.55 2695.76 1192.92 2658.07 1191.81 2600.11 1191.81 2542.15 1191.81 2506.46 1194.4 2426.83 1199.55 2420.84 1196.61 2418.87 1201.52 2417.39 1190.72 2415.92 1179.92 2414.98 1179.47 2425.43 1176.66L2471.55 1173.86C2520.88 1170.96 2553.81 1169.5 2600.07 1169.5Z" stroke="#EFE0C9" stroke-width="4.58333" stroke-miterlimit="8" fill="#FAF4F0" fill-rule="evenodd"/><path d="M2573.5 1141 2599.5 1126.5 2625.5 1141 2599.5 1155.5Z" stroke="#103586" stroke-width="4.58333" stroke-miterlimit="8" fill="#184EC6" fill-rule="evenodd"/><path d="M2749.48 1143.66 2777.29 1133.1 2785.68 1148.66 2773.3 1161.48 2749.48 1143.66Z" stroke="#A40000" stroke-width="4.58333" stroke-miterlimit="8" fill="#D40032" fill-rule="evenodd"/><path d="M2448.68 1186.33 2463.34 1181.8 2455.9 1178.85 2495.54 1181.35 2457.29 1192.05 2463.91 1187.68 2448.68 1186.33Z" fill="#404040" fill-rule="evenodd"/><path d="M2533.71 1181.62 2548.59 1177.86 2541.32 1174.52 2580.77 1179.1 2542.01 1187.78 2548.85 1183.76 2533.71 1181.62Z" fill="#404040" fill-rule="evenodd"/><path d="M2618.84 1179.88 2634.03 1177.7 2627.15 1173.62 2665.91 1182.29 2626.45 1186.87 2633.67 1183.59 2618.84 1179.88Z" fill="#404040" fill-rule="evenodd"/><path d="M2704.07 1181.4 2719.35 1180.02 2712.69 1175.59 2750.94 1186.28 2711.3 1188.79 2718.69 1185.89 2704.07 1181.4Z" fill="#404040" fill-rule="evenodd"/><path d="M2586.5 1079.5C2586.5 1072.32 2592.32 1066.5 2599.5 1066.5 2606.68 1066.5 2612.5 1072.32 2612.5 1079.5 2612.5 1086.68 2606.68 1092.5 2599.5 1092.5 2592.32 1092.5 2586.5 1086.68 2586.5 1079.5Z" stroke="#D9D9D9" stroke-width="4.58333" stroke-miterlimit="8" fill="#F2F2F2" fill-rule="evenodd"/><path d="M2772.5 1090.5C2772.5 1083.32 2778.32 1077.5 2785.5 1077.5 2792.68 1077.5 2798.5 1083.32 2798.5 1090.5 2798.5 1097.68 2792.68 1103.5 2785.5 1103.5 2778.32 1103.5 2772.5 1097.68 2772.5 1090.5Z" stroke="#D9D9D9" stroke-width="4.58333" stroke-miterlimit="8" fill="#F2F2F2" fill-rule="evenodd"/><path d="M2400.5 1088.5C2400.5 1081.32 2406.32 1075.5 2413.5 1075.5 2420.68 1075.5 2426.5 1081.32 2426.5 1088.5 2426.5 1095.68 2420.68 1101.5 2413.5 1101.5 2406.32 1101.5 2400.5 1095.68 2400.5 1088.5Z" stroke="#D9D9D9" stroke-width="4.58333" stroke-miterlimit="8" fill="#F2F2F2" fill-rule="evenodd"/><path d="M1588 1054 1646.27 1063.8 1667 1008 1687.73 1063.8 1746 1054 1708.45 1100 1746 1146 1687.73 1136.2 1667 1192 1646.27 1136.2 1588 1146 1625.55 1100Z" fill="#FFFFFF" fill-rule="evenodd"/><path d="M1335 1591.5 1390.43 1574.9 1362.97 1523.97 1413.9 1551.43 1430.5 1496 1447.1 1551.43 1498.03 1523.97 1470.57 1574.9 1526 1591.5 1470.57 1608.1 1498.03 1659.03 1447.1 1631.57 1430.5 1687 1413.9 1631.57 1362.97 1659.03 1390.43 1608.1Z" fill="#FFFFFF" fill-rule="evenodd"/><path d="M1335 920.978 1389.06 886.982 1354.81 832.415 1414.55 854.351 1435 793 1455.45 854.351 1515.19 832.415 1480.94 886.982 1535 920.978 1471.84 927.671 1479.5 992.001 1435 945.78 1390.5 992.001 1398.16 927.671Z" fill="#FFFFFF" fill-rule="evenodd"/><path d="M1481 1267.34 1519.94 1263.18 1536 1228 1552.06 1263.18 1591 1267.34 1561.98 1293.25 1569.99 1331 1536 1311.83 1502.01 1331 1510.02 1293.25Z" fill="#FFFFFF" fill-rule="evenodd"/><path d="M1073 1198.98 1127.06 1164.98 1092.81 1110.41 1152.55 1132.35 1173 1071 1193.45 1132.35 1253.19 1110.41 1218.94 1164.98 1273 1198.98 1209.84 1205.67 1217.5 1270 1173 1223.78 1128.5 1270 1136.16 1205.67Z" fill="#FFFFFF" fill-rule="evenodd"/></g></svg>