<svg width="2338" height="1169" xmlns="http://www.w3.org/2000/svg" xmlns:xlink="http://www.w3.org/1999/xlink" xml:space="preserve" overflow="hidden"><defs><clipPath id="clip0"><rect x="1031" y="653" width="2338" height="1169"/></clipPath></defs><g clip-path="url(#clip0)" transform="translate(-1031 -653)"><rect x="1810" y="653" width="1559" height="1169" fill="#57ACF3"/><rect x="0" y="0" width="779" height="1169" fill="#003087" transform="matrix(-1 1.22465e-16 1.22465e-16 1 1810 653)"/><path d="M2589 985.5C2605.84 985.5 2619.5 997.812 2619.5 1013 2619.5 1114.9 2605.84 1197.5 2589 1197.5 2572.16 1197.5 2558.5 1114.9 2558.5 1013 2558.5 997.812 2572.16 985.5 2589 985.5Z" stroke="#F2F2F2" stroke-width="6.875" stroke-miterlimit="8" fill="#A40000" fill-rule="evenodd"/><path d="M2485.45 993.324C2500.47 1001.34 2506.14 1020.02 2498.13 1035.04L2496.6 1037.3 2481.62 1064.22C2441.49 1133.28 2447.16 1231.11 2434.06 1224.11 2420.95 1217.12 2393.41 1107.61 2428.48 1035.84L2443.74 1006 2443.74 1006C2451.76 990.979 2470.43 985.305 2485.45 993.324Z" stroke="#F2F2F2" stroke-width="6.875" stroke-miterlimit="8" fill="#A40000" fill-rule="evenodd"/><path d="M2548.52 994.274C2563.27 1002.79 2568.59 1021.18 2560.41 1035.35L2558.86 1037.47 2543.59 1062.84C2502.74 1127.85 2506.79 1223.01 2493.93 1215.58 2481.06 1208.15 2455.54 1100.6 2491.42 1032.72L2507.01 1004.52 2507.01 1004.52C2515.2 990.35 2533.78 985.762 2548.52 994.274Z" stroke="#F2F2F2" stroke-width="6.875" stroke-miterlimit="8" fill="#A40000" fill-rule="evenodd"/><path d="M2427.15 1036.46C2443.48 1041.28 2452.81 1058.42 2447.99 1074.75L2446.96 1077.28 2437.71 1106.66C2412.37 1182.41 2437.69 1277.08 2423.44 1272.87 2409.19 1268.66 2360.09 1166.98 2379.94 1089.61L2388.86 1057.29 2388.86 1057.29C2393.68 1040.97 2410.82 1031.64 2427.15 1036.46Z" stroke="#F2F2F2" stroke-width="6.875" stroke-miterlimit="8" fill="#A40000" fill-rule="evenodd"/><path d="M2500.78 1040.65C2515.8 1048.67 2521.48 1067.35 2513.46 1082.37L2511.94 1084.63 2496.95 1111.55C2456.82 1180.61 2462.5 1278.44 2449.39 1271.44 2436.28 1264.45 2408.74 1154.94 2443.81 1083.17L2459.07 1053.33 2459.07 1053.33C2467.09 1038.31 2485.77 1032.63 2500.78 1040.65Z" stroke="#F2F2F2" stroke-width="6.875" stroke-miterlimit="8" fill="#A40000" fill-rule="evenodd"/><path d="M2576.49 1044.77C2590.05 1055.06 2593.02 1073.97 2583.13 1087.01L2581.34 1088.92 2563.01 1112.18C2514.35 1171.57 2506.46 1266.48 2494.62 1257.5 2482.78 1248.52 2470.92 1138.62 2515.02 1075.76L2534.02 1049.74 2534.02 1049.74C2543.91 1036.7 2562.92 1034.48 2576.49 1044.77Z" stroke="#F2F2F2" stroke-width="6.875" stroke-miterlimit="8" fill="#A40000" fill-rule="evenodd"/><path d="M2363.85 1087.01C2380.39 1082.95 2397.08 1093.07 2401.14 1109.6L2401.52 1112.3 2408.33 1142.35C2424.56 1220.56 2494.09 1289.61 2479.67 1293.15 2465.24 1296.68 2371.62 1233.54 2349.82 1156.7L2341.26 1124.29 2341.26 1124.29C2337.2 1107.75 2347.32 1091.06 2363.85 1087.01Z" stroke="#F2F2F2" stroke-width="6.875" stroke-miterlimit="8" fill="#A40000" fill-rule="evenodd"/><path d="M2436.26 1100.28C2453.05 1097.42 2468.97 1108.71 2471.83 1125.49L2472.01 1128.22 2476.65 1158.67C2487.22 1237.85 2551.61 1311.71 2536.96 1314.21 2522.32 1316.7 2433.48 1246.99 2417.26 1168.78L2411.05 1135.84 2411.05 1135.84C2408.19 1119.06 2419.48 1103.14 2436.26 1100.28Z" stroke="#F2F2F2" stroke-width="6.875" stroke-miterlimit="8" fill="#A40000" fill-rule="evenodd"/><path d="M2502.66 1108.38C2519.56 1106.35 2534.85 1117.88 2536.79 1134.12L2536.83 1136.75 2539.82 1166.21C2546.11 1242.73 2606.4 1316.46 2591.65 1318.23 2576.9 1319.99 2491.99 1249.22 2480.01 1173.39L2475.58 1141.47 2475.58 1141.47C2473.63 1125.22 2485.75 1110.4 2502.66 1108.38Z" stroke="#F2F2F2" stroke-width="6.875" stroke-miterlimit="8" fill="#A40000" fill-rule="evenodd"/><path d="M2562.87 1099.45C2579.56 1097.7 2594.39 1108.57 2595.98 1123.74 2606.68 1225.5 2601.82 1309.43 2585.13 1311.18 2568.44 1312.93 2546.23 1231.86 2535.54 1130.09 2533.94 1114.92 2546.18 1101.2 2562.87 1099.45Z" stroke="#F2F2F2" stroke-width="6.875" stroke-miterlimit="8" fill="#A40000" fill-rule="evenodd"/><path d="M2322.1 1152.41C2337.96 1146.24 2355.83 1154.1 2362 1169.96L2362.73 1172.59 2373.39 1201.5C2399.65 1276.93 2477.57 1336.36 2463.72 1341.74 2449.87 1347.13 2348.84 1296.69 2317.24 1223.33L2304.54 1192.31 2304.54 1192.31C2298.37 1176.44 2306.23 1158.58 2322.1 1152.41Z" stroke="#F2F2F2" stroke-width="6.875" stroke-miterlimit="8" fill="#A40000" fill-rule="evenodd"/><path d="M2402.36 1164.67C2414.22 1166.58 2424.37 1175.37 2427.41 1187.77L2427.8 1190.47 2434.6 1220.52C2444.75 1269.4 2475.72 1314.7 2493.99 1342.66L2501.98 1355.37 2476.61 1350.47 2458.95 1345.62 2443.78 1333.23C2415.85 1308.28 2387 1273.29 2376.1 1234.87L2367.54 1202.46 2367.54 1202.46C2363.48 1185.92 2373.6 1169.23 2390.13 1165.17 2394.26 1164.16 2398.41 1164.03 2402.36 1164.67Z" stroke="#F2F2F2" stroke-width="6.875" stroke-miterlimit="8" fill="#A40000" fill-rule="evenodd"/><path d="M2455.31 1178.89C2472.09 1176.03 2488.02 1187.32 2490.87 1204.1L2491.06 1206.83 2495.69 1237.28C2500.98 1276.87 2519.72 1315.13 2535.31 1343.8L2544.87 1361.07 2512 1357.31 2502.06 1355.39 2496.75 1350.37C2470.68 1323.48 2444.42 1286.5 2436.3 1247.39L2430.09 1214.45C2427.24 1197.67 2438.53 1181.74 2455.31 1178.89Z" stroke="#F2F2F2" stroke-width="6.875" stroke-miterlimit="8" fill="#A40000" fill-rule="evenodd"/><path d="M2514.01 1191.73C2530.91 1189.7 2546.19 1201.23 2548.14 1217.48L2548.18 1220.1 2551.17 1249.56C2554.31 1287.82 2570.96 1325.39 2584.97 1353.6L2589.64 1362.82 2586.4 1362.94 2549.4 1361.53 2546.14 1358.26C2521.57 1331.31 2497.34 1294.66 2491.35 1256.74L2486.93 1224.82 2486.93 1224.82C2484.98 1208.57 2497.1 1193.76 2514.01 1191.73Z" stroke="#F2F2F2" stroke-width="6.875" stroke-miterlimit="8" fill="#A40000" fill-rule="evenodd"/><path d="M30.8268 0C47.852 0 61.6536 13.8016 61.6536 30.8268L61.3799 33.5427 60.8348 64.345C57.968 144.168 109.052 227.795 94.1944 227.795 79.3366 227.795 3.45999 144.168 0.593082 64.345L0 30.8268 6.49313e-05 30.8268C6.49313e-05 13.8016 13.8017 0 30.8268 0Z" stroke="#F2F2F2" stroke-width="6.875" stroke-miterlimit="8" fill="#A40000" fill-rule="evenodd" transform="matrix(-0.882128 0.47101 0.47101 0.882128 2722.51 978.805)"/><path d="M30.8268 0C47.852 0 61.6536 13.266 61.6536 29.6304L61.3799 32.2409 60.8348 61.8478C57.968 138.573 109.052 218.954 94.1944 218.954 79.3366 218.954 3.45999 138.573 0.593082 61.8478L0 29.6304 6.49313e-05 29.6304C6.49313e-05 13.266 13.8017 0 30.8268 0Z" stroke="#F2F2F2" stroke-width="6.875" stroke-miterlimit="8" fill="#A40000" fill-rule="evenodd" transform="matrix(-0.866025 0.5 0.5 0.866025 2657.6 978.861)"/><path d="M30.8268 0C47.852 0 61.6536 13.8016 61.6536 30.8268L61.3799 33.5427 60.8348 64.345C57.968 144.168 109.052 227.795 94.1944 227.795 79.3366 227.795 3.45999 144.168 0.593082 64.345L0 30.8268 6.49313e-05 30.8268C6.49313e-05 13.8016 13.8017 0 30.8268 0Z" stroke="#F2F2F2" stroke-width="6.875" stroke-miterlimit="8" fill="#A40000" fill-rule="evenodd" transform="matrix(-0.95909 0.2831 0.2831 0.95909 2778.85 1024.22)"/><path d="M30.8268 0C47.852 0 61.6536 13.8016 61.6536 30.8268L61.3799 33.5427 60.8348 64.345C57.968 144.168 109.052 227.795 94.1944 227.795 79.3366 227.795 3.45999 144.168 0.593082 64.345L0 30.8268 6.49313e-05 30.8268C6.49313e-05 13.8016 13.8017 0 30.8268 0Z" stroke="#F2F2F2" stroke-width="6.875" stroke-miterlimit="8" fill="#A40000" fill-rule="evenodd" transform="matrix(-0.882128 0.47101 0.47101 0.882128 2702.85 1022.63)"/><path d="M30.8268 0C47.852 0 61.6536 13.266 61.6536 29.6304L61.3799 32.2409 60.8348 61.8478C57.968 138.573 109.052 218.954 94.1944 218.954 79.3366 218.954 3.45999 138.573 0.593082 61.8478L0 29.6304 6.49313e-05 29.6304C6.49313e-05 13.266 13.8017 0 30.8268 0Z" stroke="#F2F2F2" stroke-width="6.875" stroke-miterlimit="8" fill="#A40000" fill-rule="evenodd" transform="matrix(-0.79664 0.604454 0.604454 0.79664 2623.88 1022.63)"/><path d="M30.8268 0C47.852 0 61.6536 13.8016 61.6536 30.8268L61.3799 33.5427 60.8348 64.345C57.968 144.168 109.052 227.795 94.1944 227.795 79.3366 227.795 3.45999 144.168 0.593082 64.345L0 30.8268 6.49313e-05 30.8268C6.49313e-05 13.8016 13.8017 0 30.8268 0Z" stroke="#F2F2F2" stroke-width="6.875" stroke-miterlimit="8" fill="#A40000" fill-rule="evenodd" transform="matrix(-0.971207 -0.238235 -0.238235 0.971207 2842.52 1090.84)"/><path d="M30.8268 0C47.852 0 61.6536 13.8016 61.6536 30.8268L61.3799 33.5427 60.8348 64.345C57.968 144.168 109.052 227.795 94.1944 227.795 79.3366 227.795 3.45999 144.168 0.593082 64.345L0 30.8268 6.49313e-05 30.8268C6.49313e-05 13.8016 13.8017 0 30.8268 0Z" stroke="#F2F2F2" stroke-width="6.875" stroke-miterlimit="8" fill="#A40000" fill-rule="evenodd" transform="matrix(-0.985816 -0.167831 -0.167831 0.985816 2770.56 1101.95)"/><path d="M30.8268 0C47.852 0 61.6536 13.266 61.6536 29.6304L61.3799 32.2409 60.8348 61.8478C57.968 138.573 109.052 218.954 94.1944 218.954 79.3366 218.954 3.45999 138.573 0.593082 61.8478L0 29.6304 6.49313e-05 29.6304C6.49313e-05 13.266 13.8017 0 30.8268 0Z" stroke="#F2F2F2" stroke-width="6.875" stroke-miterlimit="8" fill="#A40000" fill-rule="evenodd" transform="matrix(-0.992883 -0.119098 -0.119098 0.992883 2704.39 1108.54)"/><path d="M30.3879 0C47.1706 0 60.7757 12.3638 60.7757 27.6152 60.7757 129.943 47.1706 212.897 30.3879 212.897 13.6051 212.897 0 129.943 0 27.6152 0 12.3638 13.6051 0 30.3879 0Z" stroke="#F2F2F2" stroke-width="6.875" stroke-miterlimit="8" fill="#A40000" fill-rule="evenodd" transform="matrix(-0.994522 -0.104528 -0.104528 0.994522 2643.79 1099.12)"/><path d="M30.8268 0C47.852 0 61.6536 13.8016 61.6536 30.8268L61.3799 33.5427 60.8348 64.345C57.968 144.168 109.052 227.795 94.1944 227.795 79.3366 227.795 3.45999 144.168 0.593082 64.345L0 30.8268 6.49313e-05 30.8268C6.49313e-05 13.8016 13.8017 0 30.8268 0Z" stroke="#F2F2F2" stroke-width="6.875" stroke-miterlimit="8" fill="#A40000" fill-rule="evenodd" transform="matrix(-0.932003 -0.36245 -0.36245 0.932003 2883.07 1160.07)"/><path d="M42.826 2.42252C39.1378 0.862489 35.083 0 30.8267 0 13.8016 0 0 13.8016 0 30.8268L0 30.8268 0.59317 64.345C2.02648 104.257 21.7124 145.119 42.8971 176.003L58.2743 196.421 73.3653 204.838 95.1132 214.846 94.8468 213.481C86.8819 186.219 58.6847 124.212 60.8347 64.345L61.3799 33.5428 61.6534 30.8268C61.6536 18.058 53.8901 7.10218 42.826 2.42252Z" stroke="#F2F2F2" stroke-width="6.875" stroke-miterlimit="8" fill="#A40000" fill-rule="evenodd" transform="matrix(-0.971207 -0.238235 -0.238235 0.971207 2816.25 1169.01)"/><path d="M30.8267 0C13.8016 0 0 13.8016 0 30.8268L0.59317 64.3452C2.02648 104.257 21.7124 145.119 42.8971 176.004L50.3852 185.946 59.7546 189.466 89.7644 198.184 89.4124 197.125C78.3257 165.61 59.043 114.234 60.8348 64.345L61.3799 33.5428 61.6534 30.8268C61.6534 13.8016 47.8518 0 30.8267 0Z" stroke="#F2F2F2" stroke-width="6.875" stroke-miterlimit="8" fill="#A40000" fill-rule="evenodd" transform="matrix(-0.985816 -0.167831 -0.167831 0.985816 2751.52 1180.56)"/><path d="M30.8268 0C13.8016 0 0 13.2659 0 29.6304L0 29.6304 0.593171 61.8479C2.02648 100.21 21.7124 139.487 42.8972 169.173L48.7981 176.703 85.5063 182.525 86.9213 182.641 82.0114 169.173C71.4557 139.487 59.4016 100.21 60.8349 61.8479L61.3801 32.2409 61.6538 29.6304C61.6536 13.2659 47.852 0 30.8268 0Z" stroke="#F2F2F2" stroke-width="6.875" stroke-miterlimit="8" fill="#A40000" fill-rule="evenodd" transform="matrix(-0.992883 -0.119098 -0.119098 0.992883 2693.04 1191.9)"/><path d="M2563.79 1189.07C2580.48 1187.32 2595.3 1198.19 2596.9 1213.36 2602.24 1264.24 2603.7 1310.67 2601.74 1344.59L2600.1 1362.42 2586.4 1362.94 2563.03 1362.05 2559 1349.08C2550.03 1316.31 2541.8 1270.6 2536.45 1219.71 2534.86 1204.55 2547.1 1190.83 2563.79 1189.07Z" stroke="#F2F2F2" stroke-width="6.875" stroke-miterlimit="8" fill="#A40000" fill-rule="evenodd"/><path d="M30.3879 0C13.6052 0 0 12.3638 0 27.6151 0 78.7794 3.40124 125.1 8.90048 158.629L12.3752 176.11 38.722 179.894 47.5313 180.483 51.8752 158.629C57.3745 125.1 60.7757 78.7794 60.7757 27.6151 60.7757 12.3638 47.1705 0 30.3879 0Z" stroke="#F2F2F2" stroke-width="6.875" stroke-miterlimit="8" fill="#A40000" fill-rule="evenodd" transform="matrix(-0.994522 -0.104528 -0.104528 0.994522 2643.72 1188.08)"/><path d="M2983.21 1374.35C2963.62 1361.28 2910.3 1335.95 2868.72 1331.04 2827.14 1326.14 2774.32 1333.5 2733.75 1344.94 2693.17 1356.38 2610.32 1393.97 2625.29 1399.69 2640.25 1405.41 2763.37 1377.62 2823.53 1379.26 2883.68 1380.89 2959.31 1410.04 2986.22 1409.49 3013.13 1408.95 3002.79 1387.43 2983.21 1374.35Z" stroke="#F2F2F2" stroke-width="6.875" stroke-miterlimit="8" fill="#006747" fill-rule="evenodd"/><path d="M358.758 44.8541C339.226 31.7793 286.04 6.44676 244.573 1.54379 203.106-3.35918 150.421 3.99516 109.956 15.4357 69.49 26.8761-13.1436 64.4665 1.78044 70.1867 16.7045 75.907 139.503 48.1228 199.5 49.7571 259.497 51.3914 334.92 80.5374 361.763 79.9927 388.606 79.4479 378.29 57.929 358.758 44.8541Z" stroke="#F2F2F2" stroke-width="6.875" stroke-miterlimit="8" fill="#006747" fill-rule="evenodd" transform="matrix(-1 0 0 1 2551.5 1331.5)"/><path d="M2592.08 1387.15C2553.05 1386.74 2491.46 1357.5 2471.34 1361.96 2451.22 1366.43 2451.89 1384.03 2471.34 1413.96 2490.79 1443.88 2549.13 1541.36 2588.02 1541.5 2626.92 1541.64 2685.13 1444.29 2704.71 1414.77 2724.29 1385.25 2724.29 1369 2705.52 1364.4 2686.75 1359.8 2631.11 1387.55 2592.08 1387.15Z" stroke="#F2F2F2" stroke-width="6.875" stroke-miterlimit="8" fill="#006747" fill-rule="evenodd"/><path d="M1588 1054 1646.27 1063.8 1667 1008 1687.73 1063.8 1746 1054 1708.45 1100 1746 1146 1687.73 1136.2 1667 1192 1646.27 1136.2 1588 1146 1625.55 1100Z" fill="#FFFFFF" fill-rule="evenodd"/><path d="M1077 1172.5 1132.72 1155.9 1105.12 1104.97 1156.32 1132.43 1173 1077 1189.68 1132.43 1240.88 1104.97 1213.28 1155.9 1269 1172.5 1213.28 1189.1 1240.88 1240.03 1189.68 1212.57 1173 1268 1156.32 1212.57 1105.12 1240.03 1132.72 1189.1Z" fill="#FFFFFF" fill-rule="evenodd"/><path d="M1335 920.978 1389.06 886.982 1354.81 832.415 1414.55 854.351 1435 793 1455.45 854.351 1515.19 832.415 1480.94 886.982 1535 920.978 1471.84 927.671 1479.5 992.001 1435 945.78 1390.5 992.001 1398.16 927.671Z" fill="#FFFFFF" fill-rule="evenodd"/><path d="M1481 1267.34 1519.94 1263.18 1536 1228 1552.06 1263.18 1591 1267.34 1561.98 1293.25 1569.99 1331 1536 1311.83 1502.01 1331 1510.02 1293.25Z" fill="#FFFFFF" fill-rule="evenodd"/><path d="M1435.52 1487 1452.11 1550.21 1506.72 1512.59 1479.67 1572.73 1545 1579.38 1486.82 1606.25 1532.75 1654.61 1469.21 1638.49 1473.03 1704 1435.27 1650.26 1397.75 1703.74 1401.58 1638.23 1338.8 1654.36 1384.74 1607.27 1324 1579.63 1390.35 1573.49 1364.07 1514.13 1417.15 1550.46 1435.52 1487Z" fill="#FFFFFF" fill-rule="evenodd"/></g></svg>