<svg width="2338" height="1169" xmlns="http://www.w3.org/2000/svg" xmlns:xlink="http://www.w3.org/1999/xlink" xml:space="preserve" overflow="hidden"><defs><clipPath id="clip0"><rect x="1031" y="653" width="2338" height="1169"/></clipPath></defs><g clip-path="url(#clip0)" transform="translate(-1031 -653)"><rect x="1810" y="653" width="1559" height="1169" fill="#C75B12"/><rect x="0" y="0" width="779" height="1169" transform="matrix(-1 1.22465e-16 1.22465e-16 1 1810 653)"/><path d="M2524.24 1107 2525.26 1108.83 2535.9 1122.16C2549.37 1135.29 2567.43 1143.13 2586.69 1143.72 2605.95 1143.13 2624.01 1135.29 2637.48 1122.16L2648.23 1108.69 2648.92 1107.45 2648.81 1107.97 2649.3 1107.35 2648.5 1109.31 2644.71 1125.93C2642.84 1144.64 2647.97 1163.65 2659.51 1179.06 2671.98 1193.74 2689.37 1202.97 2708.04 1205.31L2725.23 1205.31 2726.67 1205.07 2726.18 1205.31 2727 1205.31 2724.9 1205.93 2709.59 1213.3C2693.79 1223.51 2682.12 1239.36 2677.27 1258 2673.55 1276.89 2677.18 1296.23 2686.99 1312.29L2697.65 1325.65 2698.8 1326.69 2698.28 1326.44 2698.81 1327.1 2696.95 1325.8 2681.72 1318.47C2663.88 1312.48 2644.21 1313.25 2626.6 1321.08 2609.51 1329.96 2596.64 1344.85 2590.2 1362.52L2586.4 1379.15 2586.3 1380.75 2586.17 1380.16 2585.98 1381 2585.84 1378.71 2582.08 1362.27C2575.64 1344.6 2562.77 1329.7 2545.68 1320.83 2528.08 1313 2508.4 1312.23 2490.56 1318.22L2475.16 1325.63 2473.87 1326.54 2474.23 1326.08 2473.48 1326.44 2475.14 1324.94 2485.69 1311.72C2495.49 1295.67 2499.12 1276.33 2495.41 1257.43 2490.55 1238.8 2478.89 1222.94 2463.08 1212.73L2447.61 1205.28 2446.16 1204.86 2446.73 1204.86 2446 1204.51 2448.12 1204.86 2465.12 1204.86C2483.79 1202.52 2501.18 1193.29 2513.65 1178.61 2521.35 1168.33 2526.19 1156.46 2528.01 1144.14L2524.34 1107.98 2524.08 1107.35 2524.3 1107.63Z" fill-rule="evenodd"/><path d="M2586.29 944.991C2603.45 945.919 2620.3 949.876 2636.07 956.679 2655.72 965.935 2668.26 985.651 2668.29 1007.32 2668.35 1028.65 2664.38 1049.8 2656.57 1069.66 2647.8 1095.41 2628.71 1116.37 2603.86 1127.55 2598.41 1130.32 2592.41 1131.84 2586.29 1131.99 2580.17 1131.84 2574.17 1130.32 2568.72 1127.55 2543.87 1116.37 2524.78 1095.41 2516 1069.66 2508.2 1049.8 2504.23 1028.65 2504.29 1007.32 2504.32 985.651 2516.86 965.935 2536.5 956.679 2552.28 949.876 2569.13 945.919 2586.29 944.991Z" fill="#FFFFFF" fill-rule="evenodd"/><path d="M2814.05 1055.19C2824 1069.16 2831.4 1084.79 2835.89 1101.34 2840.88 1122.44 2833.26 1144.53 2816.33 1158.07 2799.68 1171.42 2780.67 1181.51 2760.28 1187.81 2734.68 1197.02 2706.4 1195.2 2682.19 1182.78 2676.63 1180.26 2671.71 1176.52 2667.78 1171.84 2664.1 1166.97 2661.55 1161.34 2660.32 1155.36 2653.6 1128.99 2658.12 1101.02 2672.8 1078.11 2683.47 1059.63 2697.54 1043.34 2714.26 1030.08 2731.23 1016.59 2754.46 1014.08 2773.93 1023.63 2789.06 1031.7 2802.65 1042.38 2814.05 1055.19Z" fill="#FFFFFF" fill-rule="evenodd"/><path d="M2870 1301.71C2865.29 1318.2 2857.68 1333.73 2847.55 1347.56 2834.15 1364.61 2812.14 1372.43 2790.99 1367.64 2770.17 1362.95 2750.43 1354.37 2732.79 1342.36 2709.63 1328.09 2693.42 1304.84 2688.04 1278.17 2686.55 1272.25 2686.4 1266.07 2687.61 1260.08 2689.12 1254.17 2691.93 1248.66 2695.84 1243.97 2712.27 1222.28 2736.95 1208.37 2764.02 1205.56 2785.12 1202.39 2806.63 1203.23 2827.42 1208.04 2848.55 1212.89 2865 1229.49 2869.66 1250.66 2872.79 1267.53 2872.91 1284.81 2870 1301.71Z" fill="#FFFFFF" fill-rule="evenodd"/><path d="M2712.19 1499.13C2696.36 1505.72 2679.48 1509.46 2662.34 1510.16 2640.66 1510.32 2620.82 1497.98 2611.39 1478.46 2602.08 1459.26 2596.47 1438.47 2594.87 1417.2 2591.58 1390.19 2599.65 1363.02 2617.14 1342.18 2620.84 1337.33 2625.58 1333.36 2631.02 1330.57 2636.58 1328.06 2642.64 1326.83 2648.75 1326.96 2675.95 1326.28 2702.22 1336.91 2721.29 1356.32 2736.92 1370.84 2749.68 1388.18 2758.88 1407.43 2768.26 1426.98 2765.54 1450.18 2751.89 1467.03 2740.66 1480 2727.22 1490.86 2712.19 1499.13Z" fill="#FFFFFF" fill-rule="evenodd"/><path d="M2459.47 1498.88C2444.45 1490.61 2431 1479.74 2419.77 1466.78 2406.13 1449.93 2403.41 1426.73 2412.79 1407.18 2421.99 1387.93 2434.74 1370.59 2450.38 1356.07 2469.45 1336.66 2495.72 1326.03 2522.92 1326.71 2529.02 1326.58 2535.08 1327.81 2540.65 1330.32 2546.08 1333.11 2550.82 1337.08 2554.52 1341.93 2572.02 1362.77 2580.08 1389.94 2576.8 1416.95 2575.2 1438.22 2569.59 1459.01 2560.28 1478.21 2550.84 1497.73 2531 1510.07 2509.32 1509.91 2492.18 1509.21 2475.31 1505.47 2459.47 1498.88Z" fill="#FFFFFF" fill-rule="evenodd"/><path d="M2302.05 1301.15C2299.15 1284.25 2299.26 1266.96 2302.4 1250.1 2307.06 1228.92 2323.51 1212.33 2344.64 1207.48 2365.43 1202.67 2386.94 1201.83 2408.04 1205 2435.1 1207.81 2459.79 1221.71 2476.21 1243.41 2480.13 1248.1 2482.94 1253.6 2484.45 1259.52 2485.66 1265.51 2485.51 1271.69 2484.02 1277.61 2478.64 1304.28 2462.43 1327.52 2439.26 1341.8 2421.63 1353.81 2401.88 1362.38 2381.07 1367.07 2359.92 1371.87 2337.9 1364.05 2324.51 1347 2314.37 1333.16 2306.77 1317.64 2302.05 1301.15Z" fill="#FFFFFF" fill-rule="evenodd"/><path d="M2358.49 1054.74C2369.9 1041.93 2383.48 1031.25 2398.62 1023.18 2418.08 1013.63 2441.31 1016.14 2458.28 1029.63 2475 1042.89 2489.07 1059.18 2499.75 1077.66 2514.43 1100.57 2518.95 1128.54 2512.23 1154.91 2511 1160.89 2508.45 1166.52 2504.76 1171.39 2500.84 1176.07 2495.91 1179.81 2490.35 1182.33 2466.14 1194.75 2437.87 1196.57 2412.26 1187.36 2391.88 1181.06 2372.86 1170.97 2356.22 1157.62 2339.28 1144.07 2331.67 1121.99 2336.65 1100.89 2341.15 1084.33 2348.54 1068.71 2358.49 1054.74Z" fill="#FFFFFF" fill-rule="evenodd"/><path d="M1588 1054 1646.27 1063.8 1667 1008 1687.73 1063.8 1746 1054 1708.45 1100 1746 1146 1687.73 1136.2 1667 1192 1646.27 1136.2 1588 1146 1625.55 1100Z" fill="#FFFFFF" fill-rule="evenodd"/><path d="M1335 920.978 1389.06 886.982 1354.81 832.415 1414.55 854.351 1435 793 1455.45 854.351 1515.19 832.415 1480.94 886.982 1535 920.978 1471.84 927.671 1479.5 992.001 1435 945.78 1390.5 992.001 1398.16 927.671Z" fill="#FFFFFF" fill-rule="evenodd"/><path d="M1481 1267.34 1519.94 1263.18 1536 1228 1552.06 1263.18 1591 1267.34 1561.98 1293.25 1569.99 1331 1536 1311.83 1502.01 1331 1510.02 1293.25Z" fill="#FFFFFF" fill-rule="evenodd"/><path d="M1335 1610.98 1389.06 1576.98 1354.81 1522.41 1414.55 1544.35 1435 1483 1455.45 1544.35 1515.19 1522.41 1480.94 1576.98 1535 1610.98 1471.84 1617.67 1479.5 1682 1435 1635.78 1390.5 1682 1398.16 1617.67Z" fill="#FFFFFF" fill-rule="evenodd"/><path d="M1080 1196.98 1134.33 1162.98 1099.91 1108.41 1159.95 1130.35 1180.5 1069 1201.05 1130.35 1261.09 1108.41 1226.67 1162.98 1281 1196.98 1217.53 1203.67 1225.23 1268 1180.5 1221.78 1135.77 1268 1143.47 1203.67Z" fill="#FFFFFF" fill-rule="evenodd"/></g></svg>
