<svg width="2338" height="1169" xmlns="http://www.w3.org/2000/svg" xmlns:xlink="http://www.w3.org/1999/xlink" xml:space="preserve" overflow="hidden"><defs><clipPath id="clip0"><rect x="1031" y="653" width="2338" height="1169"/></clipPath></defs><g clip-path="url(#clip0)" transform="translate(-1031 -653)"><rect x="1810" y="653" width="1559" height="1169" fill="#FFCD00"/><rect x="0" y="0" width="779" height="1169" fill="#73182C" transform="matrix(-1 1.22465e-16 1.22465e-16 1 1810 653)"/><path d="M2748 879 2587.5 1241 2427 879 2587.5 997.497 2748 879Z" fill="#57ACF3" fill-rule="evenodd"/><path d="M2427 1596 2587.5 1234 2748 1596 2587.5 1477.5 2427 1596Z" fill="#57ACF3" fill-rule="evenodd"/><path d="M2229 1077 2590 1237.5 2229 1398 2347.17 1237.5 2229 1077Z" fill="#57ACF3" fill-rule="evenodd"/><path d="M2946 1398 2584 1237.5 2946 1077 2827.5 1237.5 2946 1398Z" fill="#57ACF3" fill-rule="evenodd"/><path d="M2487.04 1227.24C2490.61 1216.93 2510 1214 2518.5 1212.19 2527 1210.39 2531.61 1217.04 2538.04 1216.41 2544.47 1215.79 2549.75 1208.36 2558.35 1207.59 2566.95 1206.83 2580.88 1205.12 2589.63 1211.82 2596.12 1205.39 2610.29 1204.88 2619.17 1205.92 2628.05 1206.97 2636.19 1217.53 2642.9 1218.09 2649.62 1218.64 2656.33 1213.03 2662.79 1213.45 2669.25 1213.86 2678.24 1211.36 2681.67 1220.55 2685.09 1229.74 2685.09 1260.32 2683.35 1268.61 2681.6 1276.9 2687.05 1270.49 2671.18 1270.28 2655.31 1270.07 2617.14 1266.73 2588.13 1267.36 2559.12 1267.98 2495.5 1284.49 2497.11 1274.04 2498.72 1263.59 2483.48 1237.55 2487.04 1227.24Z" stroke="#A40000" stroke-width="4.58333" stroke-miterlimit="8" fill="#D40032" fill-rule="evenodd"/><path d="M2585.05 1103.86 2585.05 1103.86 2585.05 1103.86ZM2575.66 1088.5 2600.4 1088.5 2599.75 1088.91C2595.41 1092.16 2592.27 1096.94 2591.15 1102.45L2591 1103.84 2591.02 1103.88 2592.69 1103.71C2598.2 1102.59 2602.98 1099.45 2606.23 1095.11L2606.5 1094.69 2606.5 1119.17 2606.09 1118.52C2602.84 1114.18 2598.06 1111.04 2592.55 1109.91L2590.96 1109.76C2590.95 1109.65 2590.94 1109.55 2590.93 1109.45 2590.94 1109.55 2590.95 1109.65 2590.96 1109.76L2591.15 1111.55C2592.27 1117.06 2595.41 1121.84 2599.75 1125.09L2600.4 1125.5 2575.66 1125.5 2576.3 1125.09C2580.65 1121.84 2583.78 1117.06 2584.91 1111.55L2585.09 1109.75 2585.09 1109.75 2583.45 1109.91C2577.94 1111.04 2573.16 1114.18 2569.91 1118.52L2569.5 1119.17 2569.5 1094.24 2570.06 1095.11C2573.31 1099.45 2578.09 1102.59 2583.6 1103.71L2585.05 1103.86 2584.91 1102.45C2583.78 1096.94 2580.65 1092.16 2576.3 1088.91L2575.66 1088.5Z" stroke="#FFA400" stroke-width="4.58333" stroke-miterlimit="8" fill="#FFC000" fill-rule="evenodd"/><path d="M2560.58 1154.25C2565.93 1153.85 2571.35 1153.94 2576.76 1154.53L2575.46 1164.79C2556.71 1162.75 2537.85 1167.68 2523.02 1178.49 2506.69 1190.38 2496.78 1208.28 2495.88 1227.5L2485.5 1227.08C2486.51 1204.97 2497.75 1184.36 2516.3 1170.59 2529.09 1161.09 2544.53 1155.46 2560.58 1154.25ZM2615.29 1154.25C2631.34 1155.46 2646.79 1161.07 2659.6 1170.55 2678.21 1184.32 2689.48 1204.95 2690.5 1227.08L2680.12 1227.49C2679.22 1208.26 2669.27 1190.34 2652.88 1178.45 2638.03 1167.67 2619.16 1162.76 2600.4 1164.79L2599.1 1154.53C2604.51 1153.94 2609.93 1153.85 2615.29 1154.25ZM2587.51 1120.5C2597.07 1120.5 2604.81 1128.2 2604.81 1137.71 2604.81 1147.21 2597.07 1154.92 2587.51 1154.92 2577.96 1154.92 2570.22 1147.21 2570.22 1137.71 2570.22 1128.2 2577.96 1120.5 2587.51 1120.5Z" stroke="#FFA400" stroke-width="4.58333" stroke-miterlimit="8" fill="#FFC000" fill-rule="evenodd"/><path d="M0 7.00005C-9.54858e-16 3.13403 3.35789 -8.912e-16 7.50007-1.7824e-15 11.6422-3.5648e-15 15.0001 3.13403 15.0001 7.00005 15.0001 10.8661 11.6422 14.0001 7.50007 14.0001 3.35789 14.0001-4.77429e-15 10.8661 0 7.00005Z" stroke="#D9D9D9" stroke-width="4.58333" stroke-miterlimit="8" fill="#F2F2F2" fill-rule="evenodd" transform="matrix(-1 0 0 1 2573.5 1145.5)"/><path d="M0 7.00005C-9.54858e-16 3.13403 3.35789 -8.912e-16 7.50007-1.7824e-15 11.6422-3.5648e-15 15.0001 3.13403 15.0001 7.00005 15.0001 10.8661 11.6422 14.0001 7.50007 14.0001 3.35789 14.0001-4.77429e-15 10.8661 0 7.00005Z" stroke="#D9D9D9" stroke-width="4.58333" stroke-miterlimit="8" fill="#F2F2F2" fill-rule="evenodd" transform="matrix(-1 0 0 1 2558.5 1147.5)"/><path d="M0 7.00005C-8.91177e-16 3.13403 3.13395 -8.912e-16 6.99987-1.7824e-15 10.8658-3.5648e-15 13.9997 3.13403 13.9997 7.00005 13.9997 10.8661 10.8658 14.0001 6.99987 14.0001 3.13395 14.0001-4.45588e-15 10.8661 0 7.00005Z" stroke="#D9D9D9" stroke-width="4.58333" stroke-miterlimit="8" fill="#F2F2F2" fill-rule="evenodd" transform="matrix(-1 0 0 1 2542.5 1151.5)"/><path d="M0 7.50007C-9.54858e-16 3.35789 3.35789 -9.54858e-16 7.50007-1.90972e-15 11.6422-3.81943e-15 15.0001 3.35789 15.0001 7.50007 15.0001 11.6422 11.6422 15.0001 7.50007 15.0001 3.35789 15.0001-4.77429e-15 11.6422 0 7.50007Z" stroke="#D9D9D9" stroke-width="4.58333" stroke-miterlimit="8" fill="#F2F2F2" fill-rule="evenodd" transform="matrix(-1 0 0 1 2528.5 1158.5)"/><path d="M0 7.50007C-8.912e-16 3.35789 3.13403 -9.54858e-16 7.00005-1.90972e-15 10.8661-3.81943e-15 14.0001 3.35789 14.0001 7.50007 14.0001 11.6422 10.8661 15.0001 7.00005 15.0001 3.13403 15.0001-4.456e-15 11.6422 0 7.50007Z" stroke="#D9D9D9" stroke-width="4.58333" stroke-miterlimit="8" fill="#F2F2F2" fill-rule="evenodd" transform="matrix(-1 0 0 1 2515.5 1168.5)"/><path d="M0 7.00005C-8.912e-16 3.13403 3.13403 -8.912e-16 7.00005-1.7824e-15 10.8661-3.5648e-15 14.0001 3.13403 14.0001 7.00005 14.0001 10.8661 10.8661 14.0001 7.00005 14.0001 3.13403 14.0001-4.456e-15 10.8661 0 7.00005Z" stroke="#D9D9D9" stroke-width="4.58333" stroke-miterlimit="8" fill="#F2F2F2" fill-rule="evenodd" transform="matrix(-1 0 0 1 2505.5 1181.5)"/><path d="M0 7.00005C-8.91177e-16 3.13403 3.13395 -8.912e-16 6.99987-1.7824e-15 10.8658-3.5648e-15 13.9997 3.13403 13.9997 7.00005 13.9997 10.8661 10.8658 14.0001 6.99987 14.0001 3.13395 14.0001-4.45588e-15 10.8661 0 7.00005Z" stroke="#D9D9D9" stroke-width="4.58333" stroke-miterlimit="8" fill="#F2F2F2" fill-rule="evenodd" transform="matrix(-1 0 0 1 2498.5 1195.5)"/><path d="M0 7.00005C-8.912e-16 3.13403 3.13403 -8.912e-16 7.00005-1.7824e-15 10.8661-3.5648e-15 14.0001 3.13403 14.0001 7.00005 14.0001 10.8661 10.8661 14.0001 7.00005 14.0001 3.13403 14.0001-4.456e-15 10.8661 0 7.00005Z" stroke="#D9D9D9" stroke-width="4.58333" stroke-miterlimit="8" fill="#F2F2F2" fill-rule="evenodd" transform="matrix(-1 0 0 1 2494.5 1210.5)"/><path d="M2604.5 1152.5C2604.5 1148.63 2607.63 1145.5 2611.5 1145.5 2615.37 1145.5 2618.5 1148.63 2618.5 1152.5 2618.5 1156.37 2615.37 1159.5 2611.5 1159.5 2607.63 1159.5 2604.5 1156.37 2604.5 1152.5Z" stroke="#D9D9D9" stroke-width="4.58333" stroke-miterlimit="8" fill="#F2F2F2" fill-rule="evenodd"/><path d="M2619.5 1154.5C2619.5 1150.63 2622.63 1147.5 2626.5 1147.5 2630.37 1147.5 2633.5 1150.63 2633.5 1154.5 2633.5 1158.37 2630.37 1161.5 2626.5 1161.5 2622.63 1161.5 2619.5 1158.37 2619.5 1154.5Z" stroke="#D9D9D9" stroke-width="4.58333" stroke-miterlimit="8" fill="#F2F2F2" fill-rule="evenodd"/><path d="M2634.5 1158.5C2634.5 1154.63 2637.86 1151.5 2642 1151.5 2646.14 1151.5 2649.5 1154.63 2649.5 1158.5 2649.5 1162.37 2646.14 1165.5 2642 1165.5 2637.86 1165.5 2634.5 1162.37 2634.5 1158.5Z" stroke="#D9D9D9" stroke-width="4.58333" stroke-miterlimit="8" fill="#F2F2F2" fill-rule="evenodd"/><path d="M2649.5 1166C2649.5 1161.86 2652.63 1158.5 2656.5 1158.5 2660.37 1158.5 2663.5 1161.86 2663.5 1166 2663.5 1170.14 2660.37 1173.5 2656.5 1173.5 2652.63 1173.5 2649.5 1170.14 2649.5 1166Z" stroke="#D9D9D9" stroke-width="4.58333" stroke-miterlimit="8" fill="#F2F2F2" fill-rule="evenodd"/><path d="M2661.5 1176C2661.5 1171.86 2664.86 1168.5 2669 1168.5 2673.14 1168.5 2676.5 1171.86 2676.5 1176 2676.5 1180.14 2673.14 1183.5 2669 1183.5 2664.86 1183.5 2661.5 1180.14 2661.5 1176Z" stroke="#D9D9D9" stroke-width="4.58333" stroke-miterlimit="8" fill="#F2F2F2" fill-rule="evenodd"/><path d="M2671.5 1188.5C2671.5 1184.63 2674.63 1181.5 2678.5 1181.5 2682.37 1181.5 2685.5 1184.63 2685.5 1188.5 2685.5 1192.37 2682.37 1195.5 2678.5 1195.5 2674.63 1195.5 2671.5 1192.37 2671.5 1188.5Z" stroke="#D9D9D9" stroke-width="4.58333" stroke-miterlimit="8" fill="#F2F2F2" fill-rule="evenodd"/><path d="M2678.5 1202.5C2678.5 1198.63 2681.63 1195.5 2685.5 1195.5 2689.37 1195.5 2692.5 1198.63 2692.5 1202.5 2692.5 1206.37 2689.37 1209.5 2685.5 1209.5 2681.63 1209.5 2678.5 1206.37 2678.5 1202.5Z" stroke="#D9D9D9" stroke-width="4.58333" stroke-miterlimit="8" fill="#F2F2F2" fill-rule="evenodd"/><path d="M2682.5 1217.5C2682.5 1213.63 2685.86 1210.5 2690 1210.5 2694.14 1210.5 2697.5 1213.63 2697.5 1217.5 2697.5 1221.37 2694.14 1224.5 2690 1224.5 2685.86 1224.5 2682.5 1221.37 2682.5 1217.5Z" stroke="#D9D9D9" stroke-width="4.58333" stroke-miterlimit="8" fill="#F2F2F2" fill-rule="evenodd"/><path d="M2574.07 1151.81 2602.24 1151.81 2602.24 1222.5 2574.07 1222.5ZM2588 1120.5 2592.53 1121.4 2592.53 1133.61 2604.65 1133.61 2605.5 1137.74 2604.59 1142.17 2571.41 1142.17 2570.5 1137.74 2571.35 1133.61 2583.85 1133.61 2583.85 1121.33Z" stroke="#FFA400" stroke-width="4.58333" stroke-miterlimit="8" fill="#FFC000" fill-rule="evenodd"/><path d="M2580.5 1153.5C2580.5 1149.63 2583.86 1146.5 2588 1146.5 2592.14 1146.5 2595.5 1149.63 2595.5 1153.5 2595.5 1157.37 2592.14 1160.5 2588 1160.5 2583.86 1160.5 2580.5 1157.37 2580.5 1153.5Z" stroke="#D9D9D9" stroke-width="4.58333" stroke-miterlimit="8" fill="#F2F2F2" fill-rule="evenodd"/><path d="M2580.5 1166C2580.5 1161.86 2583.86 1158.5 2588 1158.5 2592.14 1158.5 2595.5 1161.86 2595.5 1166 2595.5 1170.14 2592.14 1173.5 2588 1173.5 2583.86 1173.5 2580.5 1170.14 2580.5 1166Z" stroke="#D9D9D9" stroke-width="4.58333" stroke-miterlimit="8" fill="#F2F2F2" fill-rule="evenodd"/><path d="M2580.5 1177.5C2580.5 1173.63 2583.86 1170.5 2588 1170.5 2592.14 1170.5 2595.5 1173.63 2595.5 1177.5 2595.5 1181.37 2592.14 1184.5 2588 1184.5 2583.86 1184.5 2580.5 1181.37 2580.5 1177.5Z" stroke="#D9D9D9" stroke-width="4.58333" stroke-miterlimit="8" fill="#F2F2F2" fill-rule="evenodd"/><path d="M2580.5 1189.5C2580.5 1185.63 2583.86 1182.5 2588 1182.5 2592.14 1182.5 2595.5 1185.63 2595.5 1189.5 2595.5 1193.37 2592.14 1196.5 2588 1196.5 2583.86 1196.5 2580.5 1193.37 2580.5 1189.5Z" stroke="#D9D9D9" stroke-width="4.58333" stroke-miterlimit="8" fill="#F2F2F2" fill-rule="evenodd"/><path d="M2580.5 1201.5C2580.5 1197.63 2583.86 1194.5 2588 1194.5 2592.14 1194.5 2595.5 1197.63 2595.5 1201.5 2595.5 1205.37 2592.14 1208.5 2588 1208.5 2583.86 1208.5 2580.5 1205.37 2580.5 1201.5Z" stroke="#D9D9D9" stroke-width="4.58333" stroke-miterlimit="8" fill="#F2F2F2" fill-rule="evenodd"/><path d="M2580.5 1213.5C2580.5 1209.63 2583.86 1206.5 2588 1206.5 2592.14 1206.5 2595.5 1209.63 2595.5 1213.5 2595.5 1217.37 2592.14 1220.5 2588 1220.5 2583.86 1220.5 2580.5 1217.37 2580.5 1213.5Z" stroke="#D9D9D9" stroke-width="4.58333" stroke-miterlimit="8" fill="#F2F2F2" fill-rule="evenodd"/><path d="M2535.49 1215.5 2535.49 1215.51C2536.45 1216.64 2539.86 1219.85 2541.25 1222.28 2541.25 1222.28 2541.25 1222.28 2541.25 1222.28L2542.23 1224.12C2542.99 1225.66 2543.57 1227.25 2543.78 1229.04 2543.81 1229.4 2543.83 1229.76 2543.86 1230.12 2543.86 1230.13 2543.86 1230.13 2543.86 1230.14 2543.86 1230.14 2543.86 1230.14 2543.86 1230.14L2543.83 1231.27C2543.67 1233.18 2543.04 1235.18 2542.43 1237.43L2541.74 1240.24C2541.74 1240.24 2541.74 1240.24 2541.74 1240.24 2541.4 1241.95 2540.95 1243.55 2540.51 1245.32L2540.34 1246.1 2540.55 1245.52C2540.92 1244.61 2541.3 1243.82 2541.69 1243.24 2543.38 1240.72 2545.6 1239.09 2548.27 1238.9 2548.65 1238.87 2549.04 1238.88 2549.44 1238.91 2549.88 1238.95 2550.3 1239.01 2550.7 1239.09L2551.13 1239.21 2551.83 1239.4 2551.83 1239.4 2552.15 1239.56 2553.74 1240.34C2554.85 1241.09 2555.68 1242.06 2556.28 1243.1 2557.49 1245.16 2557.53 1249.49 2556.71 1251.29 2555.85 1253.19 2554.68 1254.33 2553.52 1255.03 2552.94 1255.37 2552.19 1255.61 2551.49 1255.69 2550.78 1255.78 2550.14 1255.71 2549.78 1255.47 2550.82 1254.54 2551.59 1253.16 2551.41 1251.59 2551.24 1250.02 2550.59 1248.9 2549.55 1248.53L2548.62 1248.34 2547.48 1248.35C2546.69 1248.45 2545.85 1248.76 2545.16 1249.38 2544.13 1250.32 2542.69 1252.37 2541.88 1254.24L2541.78 1254.48C2541.1 1255.6 2540.8 1256.49 2540.77 1257.26L2540.89 1258.14 2542.03 1259.24C2543.65 1260.45 2545.37 1261.46 2547.12 1262.4 2552.99 1263.12 2557.75 1265.15 2564.73 1264.58 2571.71 1264 2575.06 1262.83 2578.9 1260.88L2580.91 1259.5 2583.9 1252.19 2584.14 1249.81 2584.14 1249.81 2581.96 1250.03C2574.64 1251.52 2568.29 1255.66 2563.97 1261.4L2563.43 1262.25 2563.43 1229.32 2564.17 1230.47C2568.48 1236.21 2574.83 1240.35 2582.15 1241.84L2584.08 1242.03 2583.9 1240.17C2582.4 1232.89 2578.23 1226.58 2572.46 1222.29L2571.61 1221.74 2604.47 1221.74 2603.61 1222.29C2597.84 1226.58 2593.68 1232.89 2592.18 1240.17L2591.99 1242.06 2588.19 1242.44 2584.08 1242.03 2584.08 1242.03 2588.19 1242.44 2591.99 1242.06 2591.99 1242.06 2594.24 1241.84C2601.56 1240.35 2607.9 1236.21 2612.22 1230.47L2612.57 1229.92 2612.57 1262.25 2612.03 1261.4C2607.71 1255.66 2601.36 1251.52 2594.04 1250.03L2591.94 1249.82 2591.57 1246.18 2591.94 1249.82 2592.18 1252.19 2595.21 1259.59 2596.96 1260.81C2601.59 1262.08 2605.17 1264.2 2612.53 1264.84 2619.89 1265.49 2624.42 1264.1 2628.99 1262.48 2630.79 1261.56 2632.53 1260.56 2634.11 1259.34L2634.79 1258.63 2634.93 1258.37C2635.33 1257.34 2635.24 1256.11 2634.22 1254.48L2634.13 1254.24C2633.31 1252.37 2631.87 1250.32 2630.84 1249.38 2630.15 1248.76 2629.31 1248.45 2628.52 1248.35L2627.38 1248.34 2626.45 1248.53C2625.41 1248.9 2624.76 1250.02 2624.59 1251.59 2624.41 1253.16 2625.18 1254.54 2626.22 1255.47 2625.86 1255.71 2625.22 1255.78 2624.51 1255.69 2623.81 1255.61 2623.06 1255.37 2622.48 1255.03 2621.32 1254.33 2620.15 1253.19 2619.29 1251.29 2618.47 1249.49 2618.51 1245.16 2619.72 1243.1 2620.02 1242.58 2620.38 1242.08 2620.8 1241.61L2621.77 1240.77 2622.26 1240.34 2623.51 1239.72 2624.17 1239.4 2624.17 1239.4 2624.28 1239.37 2625.3 1239.09C2625.7 1239.01 2626.12 1238.95 2626.56 1238.91 2626.96 1238.88 2627.35 1238.87 2627.73 1238.9 2630.4 1239.09 2632.62 1240.72 2634.31 1243.24 2634.7 1243.82 2635.08 1244.61 2635.45 1245.52L2635.66 1246.1 2635.49 1245.32C2635.05 1243.55 2634.6 1241.95 2634.26 1240.24 2634.26 1240.24 2634.26 1240.24 2634.26 1240.24L2633.57 1237.43C2632.96 1235.18 2632.33 1233.18 2632.17 1231.27L2632.14 1230.14C2632.14 1230.14 2632.14 1230.14 2632.14 1230.14 2632.14 1230.13 2632.14 1230.13 2632.14 1230.12 2632.17 1229.76 2632.19 1229.4 2632.22 1229.04 2632.43 1227.25 2633.01 1225.66 2633.77 1224.12L2634.75 1222.28C2634.75 1222.28 2634.75 1222.28 2634.75 1222.28 2636.14 1219.85 2639.55 1216.64 2640.51 1215.51L2640.51 1215.5 2640.52 1215.51 2640.53 1215.5 2640.53 1215.51 2640.55 1215.55 2640.58 1215.52 2640.58 1215.5 2640.59 1215.51 2640.6 1215.5 2640.6 1215.52C2641.43 1216.74 2644.49 1220.28 2645.61 1222.85 2645.61 1222.85 2645.61 1222.85 2645.61 1222.85L2646.4 1224.77C2646.99 1226.39 2647.4 1228.03 2647.42 1229.83 2647.41 1230.19 2647.4 1230.56 2647.38 1230.92 2647.38 1230.92 2647.38 1230.93 2647.38 1230.93 2647.38 1230.93 2647.38 1230.93 2647.38 1230.94L2647.23 1232.05C2646.87 1233.93 2646.04 1235.86 2645.2 1238.03L2644.22 1240.76C2644.22 1240.76 2644.22 1240.76 2644.22 1240.76 2643.69 1242.43 2643.08 1243.97 2642.46 1245.68L2642.2 1246.44 2642.47 1245.89C2642.94 1245.02 2643.4 1244.27 2643.85 1243.73 2645.79 1241.4 2648.17 1240.01 2650.85 1240.11 2651.23 1240.12 2651.62 1240.16 2652.01 1240.24 2652.45 1240.32 2652.86 1240.43 2653.25 1240.55L2653.66 1240.71 2654.34 1240.97 2654.34 1240.97 2654.64 1241.16 2656.13 1242.11C2657.16 1242.97 2657.88 1244.02 2658.38 1245.11 2659.36 1247.29 2658.95 1251.59 2657.94 1253.3 2656.88 1255.1 2655.6 1256.11 2654.38 1256.69 2653.77 1256.97 2652.99 1257.13 2652.28 1257.14 2651.57 1257.15 2650.94 1257.02 2650.61 1256.74 2651.74 1255.92 2652.65 1254.63 2652.64 1253.05 2652.64 1251.47 2652.1 1250.29 2651.11 1249.82L2650.2 1249.52 2649.07 1249.42C2648.27 1249.44 2647.41 1249.66 2646.66 1250.21 2645.53 1251.03 2643.88 1252.92 2642.88 1254.7L2642.76 1254.93C2641.97 1255.96 2641.57 1256.83 2641.46 1257.58L2641.49 1258.58 2641.66 1258.93 2642.3 1259.69C2643.78 1261.06 2645.38 1262.24 2647.03 1263.35L2651.59 1266.42C2654.43 1267.09 2656.79 1267.26 2664.07 1267.33 2671.35 1267.4 2671.59 1268.06 2675.12 1266.84 2676.93 1266.03 2678.72 1265.14 2680.41 1264.05L2682.86 1262 2685.69 1256.95 2686.23 1254.62 2684.04 1254.57C2676.59 1255.16 2669.78 1258.5 2664.79 1263.68L2664.14 1264.45 2668.18 1231.77 2668.77 1233C2672.35 1239.22 2678.15 1244.1 2685.23 1246.46L2687.13 1246.89 2687.17 1245.02C2686.57 1237.61 2683.21 1230.84 2678.01 1225.88L2677.23 1225.24 2693.5 1227.23 2690.97 1247.76 2687.97 1272.05 2685.59 1301.5C2641.41 1297.74 2620.28 1297.1 2587.79 1297.1 2555.3 1297.1 2535.29 1298.57 2490.66 1301.5L2488.58 1275.72 2488.49 1275.74 2485.03 1247.76 2482.5 1227.23 2498.77 1225.24 2497.99 1225.88C2492.79 1230.84 2489.43 1237.61 2488.83 1245.02L2488.87 1246.89 2490.77 1246.46C2497.85 1244.1 2503.65 1239.22 2507.23 1233L2507.82 1231.77 2511.86 1264.45 2511.21 1263.68C2506.22 1258.5 2499.41 1255.16 2491.96 1254.57L2489.78 1254.62 2490.31 1256.95 2492.35 1260.59 2495.85 1263.52C2497.54 1264.61 2499.33 1265.5 2501.14 1266.31 2504.7 1266.6 2507.21 1267.31 2511.82 1267.18 2516.43 1267.05 2521.9 1266.83 2524.77 1266.21L2529.09 1263.41C2530.78 1262.3 2532.41 1261.12 2533.85 1259.75L2533.99 1259.57 2534.36 1258.72C2534.65 1257.66 2534.43 1256.44 2533.24 1254.93L2533.12 1254.7C2532.12 1252.92 2530.47 1251.03 2529.34 1250.21 2528.59 1249.66 2527.73 1249.44 2526.93 1249.42L2525.8 1249.52 2524.89 1249.82C2523.9 1250.29 2523.36 1251.47 2523.36 1253.05 2523.35 1254.63 2524.26 1255.92 2525.39 1256.74 2525.06 1257.02 2524.43 1257.15 2523.72 1257.14 2523.01 1257.13 2522.23 1256.97 2521.62 1256.69 2520.4 1256.11 2519.12 1255.1 2518.06 1253.3 2517.05 1251.59 2516.64 1247.29 2517.62 1245.11 2517.87 1244.57 2518.17 1244.03 2518.54 1243.52L2519.42 1242.59 2519.87 1242.11 2521.05 1241.36 2521.66 1240.97 2521.66 1240.97 2521.77 1240.93 2522.75 1240.55C2523.14 1240.43 2523.55 1240.32 2523.99 1240.24 2524.38 1240.16 2524.77 1240.12 2525.15 1240.11 2527.83 1240.01 2530.21 1241.4 2532.15 1243.73 2532.6 1244.27 2533.06 1245.02 2533.53 1245.89L2533.8 1246.44 2533.54 1245.68C2532.92 1243.97 2532.31 1242.43 2531.78 1240.76 2531.78 1240.76 2531.78 1240.76 2531.78 1240.76L2530.8 1238.03C2529.96 1235.86 2529.13 1233.93 2528.77 1232.05L2528.62 1230.94C2528.62 1230.93 2528.62 1230.93 2528.62 1230.93 2528.62 1230.93 2528.62 1230.92 2528.62 1230.92 2528.6 1230.55 2528.59 1230.19 2528.58 1229.83 2528.6 1228.03 2529.01 1226.39 2529.6 1224.77L2530.39 1222.85C2530.39 1222.85 2530.39 1222.85 2530.39 1222.85 2531.51 1220.28 2534.57 1216.74 2535.4 1215.52L2535.4 1215.5 2535.41 1215.51 2535.42 1215.5 2535.42 1215.52 2535.45 1215.55 2535.47 1215.51 2535.47 1215.5 2535.48 1215.51Z" stroke="#FFA400" stroke-width="4.58333" stroke-miterlimit="8" fill="#FFC000" fill-rule="evenodd"/><path d="M0 7.9925 14.5402 0 20.3796 7.94295 14.5402 15.985 0 7.9925Z" stroke="#A40000" stroke-width="4.58333" stroke-miterlimit="8" fill="#D40032" fill-rule="evenodd" transform="matrix(-0.990268 0.139173 0.139173 0.990268 2502.68 1274.34)"/><path d="M2623.81 1280.2C2624.07 1276.53 2629.82 1273.94 2636.66 1274.42 2643.5 1274.89 2648.84 1278.26 2648.58 1281.94 2648.33 1285.61 2642.57 1288.2 2635.73 1287.72 2628.89 1287.24 2623.55 1283.88 2623.81 1280.2Z" stroke="#165235" stroke-width="4.58333" stroke-miterlimit="8" fill="#21794F" fill-rule="evenodd"/><path d="M2526.56 1281.94C2526.3 1278.26 2531.64 1274.89 2538.48 1274.42 2545.32 1273.94 2551.08 1276.53 2551.33 1280.2 2551.59 1283.88 2546.25 1287.24 2539.41 1287.72 2532.57 1288.2 2526.82 1285.61 2526.56 1281.94Z" stroke="#165235" stroke-width="4.58333" stroke-miterlimit="8" fill="#21794F" fill-rule="evenodd"/><path d="M2587.71 1296.5C2613.46 1296.5 2632.46 1296.87 2660.05 1298.67L2685.65 1300.59C2690.47 1301.46 2692.21 1302.26 2691.24 1307.9 2690.27 1313.55 2688.32 1315.59 2684.87 1313.95 2640.98 1310.1 2620 1309.45 2587.73 1309.45 2555.46 1309.45 2535.58 1310.96 2491.25 1313.95 2487.92 1312.24 2486.82 1315.09 2486 1308.82 2485.18 1302.55 2484.65 1302.29 2490.47 1300.65L2516.15 1299.03C2543.61 1297.35 2561.95 1296.5 2587.71 1296.5Z" stroke="#EFE0C9" stroke-width="4.58333" stroke-miterlimit="8" fill="#FAF4F0" fill-rule="evenodd"/><path d="M2573.5 1281.5 2588 1273.5 2602.5 1281.5 2588 1289.5Z" stroke="#103586" stroke-width="4.58333" stroke-miterlimit="8" fill="#184EC6" fill-rule="evenodd"/><path d="M2671.35 1282.26 2686.86 1276.37 2691.54 1285.05 2684.64 1292.2 2671.35 1282.26Z" stroke="#A40000" stroke-width="4.58333" stroke-miterlimit="8" fill="#D40032" fill-rule="evenodd"/><path d="M2503.59 1306.05 2511.76 1303.53 2507.62 1301.88 2529.72 1303.28 2508.39 1309.24 2512.08 1306.8 2503.59 1306.05Z" fill="#404040" fill-rule="evenodd"/><path d="M2551.01 1303.43 2559.31 1301.33 2555.26 1299.47 2577.26 1302.02 2555.64 1306.86 2559.46 1304.62 2551.01 1303.43Z" fill="#404040" fill-rule="evenodd"/><path d="M2598.49 1302.45 2606.96 1301.24 2603.12 1298.96 2624.74 1303.8 2602.74 1306.35 2606.76 1304.53 2598.49 1302.45Z" fill="#404040" fill-rule="evenodd"/><path d="M2646.02 1303.31 2654.54 1302.53 2650.83 1300.06 2672.17 1306.02 2650.06 1307.42 2654.18 1305.81 2646.02 1303.31Z" fill="#404040" fill-rule="evenodd"/><path d="M2580.5 1247C2580.5 1242.86 2583.86 1239.5 2588 1239.5 2592.14 1239.5 2595.5 1242.86 2595.5 1247 2595.5 1251.14 2592.14 1254.5 2588 1254.5 2583.86 1254.5 2580.5 1251.14 2580.5 1247Z" stroke="#D9D9D9" stroke-width="4.58333" stroke-miterlimit="8" fill="#F2F2F2" fill-rule="evenodd"/><path d="M2684.5 1252.5C2684.5 1248.63 2687.63 1245.5 2691.5 1245.5 2695.37 1245.5 2698.5 1248.63 2698.5 1252.5 2698.5 1256.37 2695.37 1259.5 2691.5 1259.5 2687.63 1259.5 2684.5 1256.37 2684.5 1252.5Z" stroke="#D9D9D9" stroke-width="4.58333" stroke-miterlimit="8" fill="#F2F2F2" fill-rule="evenodd"/><path d="M2476.5 1251.5C2476.5 1247.63 2479.86 1244.5 2484 1244.5 2488.14 1244.5 2491.5 1247.63 2491.5 1251.5 2491.5 1255.37 2488.14 1258.5 2484 1258.5 2479.86 1258.5 2476.5 1255.37 2476.5 1251.5Z" stroke="#D9D9D9" stroke-width="4.58333" stroke-miterlimit="8" fill="#F2F2F2" fill-rule="evenodd"/><path d="M1077 1172.5 1132.72 1155.9 1105.12 1104.97 1156.32 1132.43 1173 1077 1189.68 1132.43 1240.88 1104.97 1213.28 1155.9 1269 1172.5 1213.28 1189.1 1240.88 1240.03 1189.68 1212.57 1173 1268 1156.32 1212.57 1105.12 1240.03 1132.72 1189.1Z" fill="#FFFFFF" fill-rule="evenodd"/><path d="M1335 920.978 1389.06 886.982 1354.81 832.415 1414.55 854.351 1435 793 1455.45 854.351 1515.19 832.415 1480.94 886.982 1535 920.978 1471.84 927.671 1479.5 992.001 1435 945.78 1390.5 992.001 1398.16 927.671Z" fill="#FFFFFF" fill-rule="evenodd"/><path d="M1481 1267.34 1519.94 1263.18 1536 1228 1552.06 1263.18 1591 1267.34 1561.98 1293.25 1569.99 1331 1536 1311.83 1502.01 1331 1510.02 1293.25Z" fill="#FFFFFF" fill-rule="evenodd"/><path d="M1563 1127.98 1617.33 1093.98 1582.91 1039.41 1642.95 1061.35 1663.5 1000 1684.05 1061.35 1744.09 1039.41 1709.67 1093.98 1764 1127.98 1700.53 1134.67 1708.23 1199 1663.5 1152.78 1618.77 1199 1626.47 1134.67Z" fill="#FFFFFF" fill-rule="evenodd"/><path d="M1344 1595.5 1399.43 1578.9 1371.97 1527.97 1422.9 1555.43 1439.5 1500 1456.1 1555.43 1507.03 1527.97 1479.57 1578.9 1535 1595.5 1479.57 1612.1 1507.03 1663.03 1456.1 1635.57 1439.5 1691 1422.9 1635.57 1371.97 1663.03 1399.43 1612.1Z" fill="#FFFFFF" fill-rule="evenodd"/></g></svg>