<svg width="2338" height="1169" xmlns="http://www.w3.org/2000/svg" xmlns:xlink="http://www.w3.org/1999/xlink" xml:space="preserve" overflow="hidden"><defs><clipPath id="clip0"><rect x="1031" y="653" width="2338" height="1169"/></clipPath></defs><g clip-path="url(#clip0)" transform="translate(-1031 -653)"><rect x="1810" y="653" width="1559" height="1169" fill="#D40032"/><rect x="0" y="0" width="779" height="1169" fill="#002854" transform="matrix(-1 1.22465e-16 1.22465e-16 1 1810 653)"/><path d="M2533.77 1136 2554.32 1141.83 2562.15 1147.65 2569 1168.04 2558.23 1186 2539.64 1175.81 2528.38 1168.52 2523 1162.21 2537.68 1161.73 2546.49 1164.16 2551.38 1161.73 2547.96 1155.9 2533.77 1136Z" fill="#FFA400" fill-rule="evenodd"/><path d="M2695.78 1476 2687 1498.54 2723.98 1500 2728 1476 2695.78 1476Z" fill="#D40032" fill-rule="evenodd"/><path d="M2437.57 1475 2429 1496.6 2465.08 1498 2469 1475 2437.57 1475Z" fill="#D40032" fill-rule="evenodd"/><path d="M2456.63 990 2451.54 1047 2441.35 1096.89 2467.85 1162.01 2472.94 1189.51C2488.01 1202.61 2493 1213.68 2500.43 1232.25L2527.93 1235.31 2552.39 1230.22C2565.3 1204.26 2564.61 1182.6 2562.58 1154.89 2591.17 1161.66 2611.03 1173.77 2626.76 1196.63L2634.91 1233.28C2654.94 1237.47 2663.68 1234.48 2679.75 1224.1L2701.12 1194.6 2711.34 1155.92C2717.6 1133.23 2723.93 1110.54 2729.64 1087.71L2723.55 1052.09 2727.61 1002.21 2819.32 1092.8C2833.25 1266.73 2795.4 1268.93 2646.13 1334.05L2629.82 1411.41 2609.62 1453.25 2640 1477.55 2682.81 1521.32 2660.38 1565.09C2590.73 1583.41 2551.16 1577.98 2485.16 1553.88 2478.27 1540.57 2475.97 1529.57 2477 1515.2L2516.74 1476.52C2517.71 1473.46 2551.4 1458.68 2555.73 1455.83L2551.26 1444.24 2527.93 1377.82 2508.59 1310.64 2396.51 1242.42C2351.64 1086.37 2314 1057.97 2456.63 990Z" fill="#FFFFFF" fill-rule="evenodd"/><path d="M2437.1 860C2427.52 865.115 2421.09 876.891 2419 887.877 2424.32 913.659 2418.17 939.957 2417.93 966.254 2411.27 954.17 2409.93 939.957 2406.25 926.534 2399.59 912.32 2396.94 890.829 2379.7 886.812 2368.22 903.738 2378.84 924.68 2378.56 943.733 2380.69 954.41 2392.41 963.851 2384.95 975.901L2360.52 941.536C2352.28 932.404 2342.42 918.706 2330.7 919.015 2328.3 941.536 2341.9 957.397 2348.81 975.901 2349.43 977.927 2350.29 979.849 2351.35 981.669L2351.76 981.669C2355.61 988.123 2361.14 994.097 2360.52 1000.96 2351.32 994.474 2342.52 987.505 2333.66 980.948L2332.63 980.948C2317.79 970.237 2302.7 960.967 2284.98 957.671 2283.98 966.735 2287.07 974.459 2291.95 981.669L2292.54 981.669C2300.57 993.135 2312.98 1003.23 2320.05 1014.97L2317.96 1017.1C2303.6 1010.64 2289.75 1003.16 2276.46 994.543 2267.7 992.655 2259.11 983.832 2249.83 990.252 2249.83 1007.42 2260.72 1020.81 2272.16 1032.07 2257.77 1033.95 2241.83 1023.76 2227.5 1032.07 2230.42 1044.94 2245.85 1052.77 2249.83 1065.37 2236.26 1072.65 2218.23 1068.01 2204.1 1073.92 2207.58 1084.11 2217.64 1091.36 2223.28 1100.73L2220.01 1103.96C2208.85 1103.96 2200.4 1111.23 2191.33 1116.86 2192.67 1129.74 2208.61 1136.71 2214.72 1149.03 2204.35 1155.76 2192.91 1164.89 2186 1175.84 2191.87 1184.12 2200.74 1188.41 2207.13 1194.73L2207.68 1194.73C2209.16 1196.34 2210.5 1197.99 2211.56 1199.88 2203.83 1210.31 2188.65 1216.77 2188.1 1230.98 2195.59 1239.56 2207.78 1240.11 2216.85 1247.12 2212.32 1255.42 2203.52 1262.91 2206.2 1272.79 2218.16 1279.28 2233.38 1278.46 2246.64 1281.41 2243.2 1289.96 2240.49 1298.85 2239.18 1308.22 2247.15 1318.66 2264.5 1314.16 2275.39 1316.81 2274.64 1325.42 2268.73 1334.76 2267.94 1344.68 2278.28 1351.38 2291.33 1345.54 2303.01 1345.82 2309.95 1344.2 2310.74 1351.93 2311.53 1356.53 2313.66 1371.53 2328.61 1359.17 2338.19 1362.95L2348.81 1381.18C2354.65 1381.69 2359.94 1380.66 2364.75 1378.02 2373.27 1372.63 2377.29 1382.59 2380.73 1387.67 2386.88 1397.31 2395.64 1387.67 2403.06 1387.67 2408.62 1390.34 2410.79 1396.25 2414.77 1400.54 2422.74 1405.07 2427.24 1395.18 2432.81 1390.89 2443.46 1385.23 2447.48 1401.57 2456.27 1403.7 2466.37 1395.39 2477.54 1392.75 2490.28 1397.31 2504.4 1385.23 2502.79 1366.45 2504.1 1349.01 2505.19 1346.06 2506.26 1341.18 2510.52 1341.46 2515.6 1362.64 2527.83 1385.92 2519.18 1407.1L2518.97 1407.1C2517.67 1409.91 2515.95 1413 2513.68 1415.95 2506.54 1422.21 2484.95 1437.09 2476.11 1444.63 2467.27 1452.17 2456.17 1442.15 2454.93 1451.5 2446.28 1460.57 2468.19 1453.21 2470.96 1453.78 2473.73 1454.36 2471.91 1465.99 2477.26 1464.66 2482.6 1463.32 2482.51 1450.73 2490.43 1444.63 2498.35 1438.53 2519.63 1426.51 2524.78 1428.04 2534.32 1426.51 2536.52 1448.61 2531.65 1457.22 2526.79 1465.82 2506.03 1464.42 2495.57 1479.67 2488.39 1491.48 2457.85 1529.93 2455.21 1543.6 2454.38 1553.28 2470.08 1550.57 2465.86 1561.83 2468.19 1570.17 2477.02 1567.22 2481.76 1571.47 2482.35 1585.45 2497.71 1581.74 2506.23 1585.51 2508.87 1609.62 2535.22 1582.22 2540.24 1604.81 2545.87 1604.81 2550.13 1601.03 2555.18 1599.45 2561.57 1600.21 2566.31 1607.49 2570.06 1612.33 2580.71 1620.88 2584.69 1606.63 2592.39 1601.55L2611.56 1609.1 2624.3 1594.1C2639.21 1605.08 2644.51 1583.08 2658.35 1587.61 2667.94 1588.71 2666.84 1577.69 2671.1 1572.61 2687.59 1575.04 2685.18 1551.91 2700.92 1552.21 2701.95 1533.44 2664 1497.27 2659.5 1480.9 2649.32 1464.11 2625.77 1462.69 2619.83 1453.21 2620.19 1442.59 2617.81 1427.59 2626.7 1424.03 2633.86 1423.27 2653.42 1442.15 2662.78 1448.64 2672.13 1455.12 2664.59 1470.19 2668.5 1473.81 2672.41 1477.43 2673.54 1462.78 2678.24 1460.65 2682.93 1458.52 2702.4 1469.75 2696.69 1461.03L2651.99 1418.08C2647.36 1414.86 2643.96 1411.15 2641.65 1407.1L2641.28 1407.1C2632.76 1391.34 2639.11 1370.81 2643.47 1354.33 2643.99 1351.14 2647.46 1345.82 2651.99 1347.95 2662.37 1362.43 2656.5 1385.5 2673.29 1398.34 2678.31 1401.3 2683.91 1402.43 2688.14 1397.31 2695.08 1390.86 2702.53 1399.17 2706.24 1404.83 2711.81 1405.62 2715.28 1401.06 2719.02 1397.31 2726.99 1390.58 2733.9 1400.23 2741.35 1401.6 2745.34 1398.38 2748.53 1392.99 2751.97 1388.7 2758.36 1384.95 2762.58 1392.2 2767.91 1394.05 2777.74 1397.04 2778.04 1382 2784.95 1376.89 2792.68 1376.65 2798.28 1381.69 2806.25 1381.18L2814.77 1366.17C2823.26 1356.25 2833.94 1367 2844.56 1365.11L2858.37 1344.72 2880.7 1343.65C2886.57 1337.2 2886.3 1328.1 2886.06 1319 2897.22 1311.76 2912.89 1315.54 2925.39 1311.49 2926.18 1301.84 2920.62 1291.61 2916.94 1282.48 2927.56 1277.09 2941.64 1279.83 2953.08 1276.06 2956.79 1262.63 2942.95 1252.44 2940.3 1241.69L2973.29 1225.66C2972.77 1213.57 2957.62 1209.52 2953.08 1199.88 2955.59 1198.02 2958.2 1196.37 2960.81 1194.8L2961.95 1194.8C2969.23 1190.57 2976.79 1187.1 2983.94 1182.33L2985 1176.91C2974.87 1165.92 2961.84 1158.16 2948.86 1152.29L2947.79 1149.03 2971.19 1127.58 2971.19 1122.22C2961.84 1112.81 2947.76 1114.43 2937.07 1108.28 2942.4 1097.02 2959.47 1093.24 2961.6 1080.4 2954.94 1072.61 2945.08 1073.16 2936.01 1071.79 2929.93 1071.79 2923.02 1076.11 2917.97 1071.79 2924.64 1059.46 2939.27 1053.32 2942.43 1039.62 2921.72 1031.31 2900.66 1045.25 2881.76 1048.2 2887.36 1039.38 2894.27 1032.34 2903.06 1026.75 2911.31 1018.95 2927.76 1011.19 2923.26 998.868 2902.79 998.868 2885.75 1006.9 2869.02 1016.03 2856.79 1020.33 2846.69 1033.2 2834.97 1035.33 2843.49 1024.34 2857.3 1017.58 2866.82 1005.25 2873.07 998.422 2874.24 989.496 2878.19 981.669L2878.6 981.669C2880.35 978.373 2882.66 975.318 2886.06 972.743 2886.88 966.563 2893.79 960.624 2888.19 954.41 2870.56 958.873 2854.18 968.829 2839.71 981.12L2838.92 981.12C2830.06 988.81 2821.98 997.427 2814.77 1006.32L2812.57 1004.19C2817.55 996.946 2820.68 989.119 2824.97 981.669L2825.32 981.669C2828.17 976.897 2831.43 972.365 2836.04 968.383 2842.43 954.41 2855.21 937.519 2845.62 922.242 2818.38 930.481 2803.98 959.937 2788.08 980.914L2787.49 980.914C2787.01 981.531 2786.5 982.081 2786.01 982.733 2785.5 982.15 2785.09 981.6 2784.74 980.982L2784.47 980.982C2783.06 977.824 2783.27 974.116 2782.85 970.546 2798 950.737 2797.42 923.89 2799.83 898.657 2800.07 894.4 2796.42 889.525 2792.44 892.168 2775.67 904.802 2771.14 924.096 2763.68 941.536L2761.55 939.442 2761.55 896.494C2760.52 884.924 2756.47 870.746 2744.51 867.553 2732.28 879.603 2737.09 898.622 2731.77 913.659 2726.99 913.659 2726.17 908.029 2723.25 905.076 2721.67 903.463 2717.96 903.497 2716.89 906.21 2715.52 931.615 2715.45 956.333 2716.14 980.914 2716.14 981.154 2716.1 981.428 2716.14 981.669 2717.17 1017.51 2719.85 1052.77 2722.18 1088.99 2705.83 1121.33 2708.27 1161.39 2698.17 1183.16 2688.03 1204.89 2681.16 1214.84 2671.1 1223.46 2661.79 1230.71 2650.38 1223.22 2639.25 1225.66 2633.13 1218.11 2633.65 1207.67 2630.73 1198.81 2630.11 1197.2 2629.49 1195.62 2628.8 1194.11L2628.53 1194.11C2612.14 1157.44 2570.64 1147.11 2538.14 1134.03 2534.43 1133.65 2529.62 1132.76 2525.12 1132.69 2520.59 1132.62 2516.36 1133.41 2513.68 1136.23 2525.4 1142.13 2537.66 1148.83 2545.6 1160.88L2543.5 1163.04C2533.68 1159.57 2522.24 1156.52 2511.58 1157.61 2517.94 1175.6 2539.21 1177.77 2549.82 1191.98 2549.93 1192.87 2550.1 1193.8 2550.2 1194.73L2550.27 1194.73C2551.64 1206.81 2551.92 1220.44 2540.24 1227.75 2531.48 1233.66 2527.53 1221.88 2520.1 1221.33 2512.62 1220.54 2503.31 1228.03 2497.71 1219.17 2496.54 1209.18 2489.7 1201.66 2482.18 1193.15 2474.65 1184.63 2467.37 1175.09 2471.15 1160.88 2458.09 1134.85 2449.57 1107.22 2448.78 1076.08 2452.49 1044.97 2462.35 1013.46 2466.99 981.669L2467.13 981.669C2470.63 956.985 2470.94 932.129 2462.59 907.239 2454.66 907.789 2453.59 917.47 2446.69 920.148L2444.56 917.951C2445.11 900.785 2443.97 884.409 2441.33 868.583L2437.1 860ZM2445.62 1014.97C2446.17 1031.07 2449.85 1047.17 2442.39 1061.08 2444.8 1045.8 2420.37 1024.34 2445.62 1014.97ZM2730.7 1027.78C2736.85 1028.08 2736.3 1035.09 2739.22 1038.56 2736.85 1047.41 2730.43 1057.3 2734.93 1066.43 2740.77 1062.69 2740.29 1052.46 2747.74 1050.33 2746.68 1061.87 2742.42 1074.5 2734.93 1084.66 2726.96 1068.32 2727.54 1046.01 2730.7 1027.78ZM2425.42 1040.68C2432.05 1049.27 2431.02 1062.93 2433.94 1073.92 2428.07 1065.06 2418.21 1051.94 2425.42 1040.68ZM2759.46 1063.2C2758.12 1073.4 2749.32 1083.08 2742.42 1092.21L2741.35 1092.21C2742.14 1081.74 2751.21 1070.21 2759.46 1063.2ZM2413.71 1064.34C2420.89 1068.87 2425.11 1078.48 2430.68 1085.73 2426.42 1106.91 2422.98 1127.03 2427.52 1149.03 2420.34 1149.31 2415.01 1145.05 2409.41 1141.58 2406.77 1137.81 2405.7 1133.51 2406.25 1128.67 2411.54 1126.27 2416.39 1137.77 2422.23 1130.8 2420.89 1120.33 2407.59 1116.83 2404.12 1107.22 2411.85 1101.79 2419.31 1118.48 2424.36 1107.22 2421.13 1098.08 2403.3 1094.65 2408.35 1082.57L2419 1087.92C2419.51 1079.07 2411.03 1072.65 2413.71 1064.34ZM2761.55 1082.57C2764.99 1082.02 2766.6 1086.03 2765.78 1088.99 2763.61 1099.46 2750.63 1106.7 2742.38 1113.67 2738.91 1101.86 2753.07 1091.94 2761.55 1082.57ZM2766.84 1109.38C2771.62 1111.27 2766.84 1114.43 2766.84 1116.86 2762.03 1124.38 2752.21 1124.07 2744.51 1126.51 2747.16 1119.27 2758.05 1111.82 2766.84 1109.38ZM2756.19 1130.8C2757.77 1130.8 2760.73 1130.56 2760.49 1132.97 2761.04 1143.16 2749.29 1138.32 2744.51 1142.61 2741.59 1136.43 2751.69 1132.93 2756.19 1130.8ZM2538.11 1142.61C2548.76 1142.1 2556.76 1150.13 2556.25 1160.88 2553.84 1166.23 2557.55 1176.12 2548.76 1176.91 2541.34 1176.39 2535.46 1172.41 2529.59 1168.39 2536.8 1164.93 2547.45 1175.6 2554.12 1167.26 2555.46 1156.28 2544.5 1150.41 2538.14 1142.61L2538.11 1142.61ZM2456.24 1155.52C2463.9 1166.2 2460.33 1182.85 2467.44 1194.73L2467.95 1194.73C2469.74 1197.47 2472.08 1199.94 2475.34 1201.97 2485.99 1208.97 2488.94 1221.02 2492.38 1232.04 2493.2 1241.97 2487.88 1250.55 2479.63 1255.63 2475.13 1255.9 2471.9 1252.71 2472.18 1248.18 2470.29 1244.68 2476.2 1241.76 2471.11 1239.6 2465.55 1243.34 2460.43 1251.13 2453.01 1247.12 2450.36 1239.6 2457.3 1233.42 2459.43 1226.69 2450.91 1225.62 2444.8 1239.8 2433.91 1233.11 2431.5 1224.01 2439.2 1219.2 2443.42 1212.75 2434.94 1207.91 2428.55 1217.56 2420.03 1212.75 2420.58 1204.92 2433.6 1202.28 2440.26 1196.61 2439.16 1195.89 2437.93 1195.1 2436.66 1194.25L2435.66 1194.25C2430.47 1190.61 2424.94 1185.83 2424.32 1179.11 2434.15 1173.75 2440.78 1189.34 2449.85 1182.33 2450.09 1174.3 2440.54 1167.3 2445.62 1159.81 2449.33 1161.39 2451.98 1165.44 2455.21 1168.39 2461.84 1166.51 2455.96 1159.81 2456.24 1155.52ZM2716.89 1156.55C2718.75 1161.39 2712.91 1165.68 2717.92 1169.46 2723.8 1168.91 2723.8 1161.43 2730.7 1163.04 2735.99 1174.3 2713.11 1178.59 2723.21 1186.62 2729.05 1184.5 2735.96 1177.77 2742.38 1183.4 2742.18 1189.27 2737.09 1191.26 2733.07 1194.04L2732.11 1194.04C2730.5 1195.28 2729.16 1196.79 2728.57 1198.81 2737.88 1199.36 2746.64 1202.79 2751.97 1210.59 2753.58 1214.88 2748.77 1216.46 2745.54 1215.91 2737.57 1217.52 2729.33 1212.72 2723.21 1215.91 2728.02 1224.25 2740.56 1225.59 2739.22 1237.4 2728.3 1241.69 2721.36 1230.16 2711.53 1228.82 2708.85 1236.58 2721.67 1240.66 2720.05 1249.21 2710.23 1252.47 2703.05 1242.48 2695.59 1238.46 2693.74 1243.58 2697.14 1248.93 2699.82 1253.54 2692.12 1257.28 2684.39 1251.65 2680.65 1244.92 2670.03 1229.64 2689.99 1219.17 2694.53 1206.26 2698.1 1202.76 2700.68 1198.85 2702.77 1194.73L2703.15 1194.73C2709.06 1182.61 2710.6 1168.6 2716.89 1156.55ZM2574.04 1165.03C2575.38 1164.96 2576.45 1165.27 2576.45 1167.26 2576.69 1169.42 2576.17 1172.93 2573.29 1171.55L2570.02 1171.55 2570.02 1165.17C2571.09 1165.58 2572.74 1165.1 2574.04 1165.03ZM2604.07 1184.46C2609.26 1186.8 2613.31 1190.43 2616.33 1194.73L2616.75 1194.73C2621.97 1202.55 2624.13 1212.61 2624.3 1222.4 2613.89 1260.5 2619.22 1305.03 2635.99 1338.3L2631.76 1365.11C2617.67 1362.98 2627.74 1380.08 2623.24 1386.53 2621.49 1393.85 2618.29 1400.57 2614.58 1407.1L2614.14 1407.1C2611.63 1411.53 2608.84 1415.89 2606.2 1420.25L2611.52 1423.4C2605.17 1443.83 2596.92 1464.46 2578.58 1479.26 2557.55 1466.35 2549.58 1442.25 2543.47 1420.25L2550.89 1420.25C2550.34 1415.89 2548.69 1411.49 2546.66 1407.17L2546.28 1407.17C2543.33 1401.06 2539.65 1394.84 2537.08 1388.7 2531.75 1380.35 2543.98 1363.7 2530.65 1363.98L2528.52 1366.17C2507.77 1328.07 2543.98 1295.35 2541.3 1255.63 2544.22 1248.66 2534.4 1236.34 2547.69 1237.4 2566.31 1237.91 2582.53 1227.99 2592.39 1211.62 2595.41 1206.91 2595.58 1200.49 2596.75 1194.8L2596.89 1194.8C2597.92 1190.4 2599.64 1186.52 2604.07 1184.46ZM2537.08 1469.61C2523.51 1487.84 2503.58 1499.65 2488.15 1517.92L2484.93 1517.92C2486.51 1502.88 2505.4 1495.57 2515.78 1484.62L2537.08 1469.61ZM2605.13 1469.61 2608.36 1469.61C2630.18 1491.07 2646.39 1511.94 2664.74 1535.01 2665.02 1538.52 2664.71 1541.74 2661.51 1543.6 2643.17 1517.88 2621.07 1496.43 2605.13 1469.61ZM2620.08 1469.61C2639.49 1483.55 2655.12 1502.02 2672.13 1520.01L2672.13 1523.27C2652.72 1508.24 2636.26 1487.84 2620.08 1469.61ZM2600.91 1477.06 2647.7 1543.6C2647.15 1546.31 2649.04 1549.78 2645.57 1551.15 2632.79 1526.43 2605.17 1504.97 2600.91 1477.06ZM2540.24 1480.33C2534.12 1500.96 2505.4 1513.83 2495.58 1535.01L2493.45 1535.01C2500.11 1513.01 2524.3 1497.49 2540.24 1480.33ZM2552.98 1480.33C2545.56 1504.73 2524.61 1523.79 2513.68 1546.86 2511.83 1547.65 2510.73 1545.79 2509.39 1544.73 2521.38 1522.17 2535.46 1498.52 2552.98 1480.29L2552.98 1480.33ZM2560.47 1480.33C2558.31 1507.69 2544.74 1533.19 2537.08 1559.73 2533.85 1562.69 2529.9 1558.39 2528.56 1555.44 2534.4 1528.35 2549.82 1505.25 2560.47 1480.33ZM2591.32 1484.62 2593.45 1484.62C2602.49 1507.38 2620.28 1526.74 2625.37 1551.15 2626.4 1554.89 2621.93 1559.42 2619.01 1558.6 2611.83 1533.13 2595.55 1511.39 2591.32 1484.62ZM2570.06 1489.97C2570.3 1513.04 2581.5 1545.79 2556.25 1560.8L2552.98 1560.8C2551.68 1534.26 2562.33 1511.7 2570.06 1489.97ZM2580.67 1489.97 2583.87 1489.97C2592.9 1511.98 2597.2 1537.14 2596.68 1561.86 2565.28 1548.4 2584.66 1513.04 2580.67 1489.97Z" fill="#231F20" fill-rule="evenodd"/><path d="M1588 1054 1646.27 1063.8 1667 1008 1687.73 1063.8 1746 1054 1708.45 1100 1746 1146 1687.73 1136.2 1667 1192 1646.27 1136.2 1588 1146 1625.55 1100Z" fill="#FFA400" fill-rule="evenodd"/><path d="M1077 1172.5 1132.72 1155.9 1105.12 1104.97 1156.32 1132.43 1173 1077 1189.68 1132.43 1240.88 1104.97 1213.28 1155.9 1269 1172.5 1213.28 1189.1 1240.88 1240.03 1189.68 1212.57 1173 1268 1156.32 1212.57 1105.12 1240.03 1132.72 1189.1Z" fill="#FFA400" fill-rule="evenodd"/><path d="M1335 920.978 1389.06 886.982 1354.81 832.415 1414.55 854.351 1435 793 1455.45 854.351 1515.19 832.415 1480.94 886.982 1535 920.978 1471.84 927.671 1479.5 992.001 1435 945.78 1390.5 992.001 1398.16 927.671Z" fill="#FFA400" fill-rule="evenodd"/><path d="M1481 1267.34 1519.94 1263.18 1536 1228 1552.06 1263.18 1591 1267.34 1561.98 1293.25 1569.99 1331 1536 1311.83 1502.01 1331 1510.02 1293.25Z" fill="#FFA400" fill-rule="evenodd"/><path d="M1335 1584.5 1390.43 1567.9 1362.97 1516.97 1413.9 1544.43 1430.5 1489 1447.1 1544.43 1498.03 1516.97 1470.57 1567.9 1526 1584.5 1470.57 1601.1 1498.03 1652.03 1447.1 1624.57 1430.5 1680 1413.9 1624.57 1362.97 1652.03 1390.43 1601.1Z" fill="#FFA400" fill-rule="evenodd"/></g></svg>