<svg width="2338" height="1169" xmlns="http://www.w3.org/2000/svg" xmlns:xlink="http://www.w3.org/1999/xlink" xml:space="preserve" overflow="hidden"><defs><clipPath id="clip0"><rect x="1031" y="653" width="2338" height="1169"/></clipPath></defs><g clip-path="url(#clip0)" transform="translate(-1031 -653)"><rect x="1810" y="653" width="1559" height="1169" fill="#006747"/><rect x="0" y="0" width="779" height="1169" fill="#9B2743" transform="matrix(-1 1.22465e-16 1.22465e-16 1 1810 653)"/><path d="M2450.11 1336.74 2452.12 1373.66 2452.12 1420.65 2456.81 1472.34 2444.74 1491.81 2421.27 1518.66 2380.36 1513.29 2380.36 1505.9 2398.47 1491.81 2423.28 1481.07 2417.25 1456.23 2409.2 1428.71 2436.69 1340.77ZM2689.53 1305.19 2701.6 1313.25 2747.2 1358.22 2786.77 1397.16 2797.5 1424.68 2808.9 1455.56 2747.87 1500.53 2727.75 1518.66 2720.38 1517.31 2684.83 1511.27 2686.85 1499.86 2716.35 1487.78 2735.8 1470.33 2757.93 1446.83 2747.87 1430.72 2677.46 1313.25ZM2189.23 1166.24 2186.54 1189.07 2175.81 1211.22 2161.73 1223.97 2149.66 1210.55 2164.41 1214.57 2163.07 1207.86 2169.11 1207.19 2166.42 1197.12 2177.82 1197.79 2173.8 1191.08 2184.53 1179ZM2076.56 1091.73 2077.9 1113.21 2064.48 1092.4ZM2140.27 1031.32 2140.27 1040.72 2140.94 1044.07 2142.95 1050.11 2132.22 1050.78 2132.22 1054.14 2167.76 1054.14 2179.17 1065.55 2183.19 1064.21 2161.73 1048.77ZM2267.69 1005.14 2249.58 1009.17 2241.54 1029.3 2257.63 1057.5 2262.33 1047.43 2252.27 1033.33 2254.95 1013.19 2263 1012.52 2268.36 1031.32C2268.14 1022.59 2267.91 1013.86 2267.69 1005.14ZM2216.05 985 2229.46 990.37 2240.86 1006.48 2250.25 999.096 2264.34 995.069 2278.42 1004.47 2283.79 1025.28 2277.75 1053.47 2289.15 1054.14 2313.97 1066.89 2352.86 1091.06 2384.38 1106.5 2391.76 1160.2 2401.15 1112.54 2427.98 1117.91 2440.72 1184.37 2445.41 1150.8 2442.06 1117.24 2450.11 1116.57 2476.26 1117.91 2480.29 1149.46 2491.02 1208.53 2494.37 1160.2 2501.75 1118.58 2527.9 1116.57 2529.24 1166.91 2540.64 1229.34 2550.03 1176.31 2556.07 1118.58 2579.54 1119.92 2581.55 1162.89 2585.58 1234.71 2599.66 1185.04 2613.75 1119.25 2637.22 1116.57 2639.23 1179 2631.85 1246.79 2658.01 1178.32 2670.08 1116.57 2697.58 1119.25 2693.55 1160.2 2676.79 1244.78 2717.7 1160.87 2727.75 1117.91 2755.92 1120.6 2748.55 1170.27 2721.72 1259.55 2762.63 1185.71 2785.43 1125.97 2806.22 1126.64 2792.81 1187.72 2776.71 1252.84 2816.95 1181.01 2830.36 1138.72 2854.51 1146.1 2831.03 1218.6 2853.17 1199.13 2875.97 1162.89 2890.05 1177.65 2874.63 1223.97 2908.16 1190.41 2919.56 1200.48 2902.79 1244.11 2932.3 1220.61 2942.36 1232.03 2941.02 1239.41 2934.99 1258.21 2952.42 1244.11 2986.62 1299.15 3051.01 1410.58 3104.66 1484.42 3106 1513.29 3097.28 1506.57 3058.38 1468.31 3015.46 1403.2 2967.85 1336.74 2919.56 1281.03 2875.97 1258.88 2856.52 1293.11 2853.84 1325.33 2851.82 1354.2 2869.26 1385.08 2906.15 1419.31 2915.54 1434.75 2902.12 1449.52 2866.58 1500.53 2858.53 1520 2820.3 1518.66 2796.83 1511.27 2814.94 1487.11 2841.09 1475.03 2852.5 1450.19 2858.53 1436.09 2816.95 1405.88 2754.58 1356.88 2724.4 1324.66 2698.25 1289.08 2684.83 1295.13 2581.55 1312.58 2493.7 1317.28 2431.33 1322.65 2423.95 1329.36 2400.48 1417.3 2390.42 1449.52 2397.13 1456.23 2390.42 1466.3 2366.28 1485.09 2356.22 1509.26 2333.41 1520 2291.83 1519.33 2293.85 1507.25 2308.6 1489.12 2330.73 1481.74 2333.41 1471.67 2354.2 1450.19 2356.89 1356.88 2352.86 1330.03 2308.6 1286.4 2293.85 1259.55 2260.31 1206.52 2244.89 1189.07 2245.56 1176.31 2270.37 1138.72 2280.43 1110.53 2273.73 1096.43 2275.07 1120.6 2262.33 1140.73 2238.18 1150.13 2239.52 1166.91 2222.76 1193.76 2194.59 1230.01 2171.79 1236.05 2167.09 1225.98 2182.52 1211.89 2196.6 1183.69 2194.59 1157.52 2183.86 1122.61 2163.74 1100.46 2123.5 1088.38 2074.54 1088.38 2057.11 1083.01 2043.69 1068.24 2055.77 1060.18 2039 1056.15 2045.04 1046.09 2087.29 1041.39 2126.18 1031.32 2146.97 1018.56 2185.2 1007.82 2212.7 1009.84 2236.84 1016.55 2230.81 1008.49 2205.99 1000.44 2208 990.37Z" fill="#F7E34A" fill-rule="evenodd"/><path d="M1356 844.25 1414.27 854.099 1435 798 1455.73 854.099 1514 844.25 1476.45 890.5 1514 936.75 1455.73 926.901 1435 983 1414.27 926.901 1356 936.75 1393.55 890.5Z" fill="#F7E34A" fill-rule="evenodd"/><path d="M1339 1587.5 1394.72 1570.9 1367.12 1519.97 1418.32 1547.43 1435 1492 1451.68 1547.43 1502.88 1519.97 1475.28 1570.9 1531 1587.5 1475.28 1604.1 1502.88 1655.03 1451.68 1627.57 1435 1683 1418.32 1627.57 1367.12 1655.03 1394.72 1604.1Z" fill="#F7E34A" fill-rule="evenodd"/><path d="M1569 1137.98 1623.06 1103.98 1588.81 1049.41 1648.55 1071.35 1669 1010 1689.45 1071.35 1749.19 1049.41 1714.94 1103.98 1769 1137.98 1705.84 1144.67 1713.5 1209 1669 1162.78 1624.5 1209 1632.16 1144.67Z" fill="#F7E34A" fill-rule="evenodd"/><path d="M1481 1267.34 1519.94 1263.18 1536 1228 1552.06 1263.18 1591 1267.34 1561.98 1293.25 1569.99 1331 1536 1311.83 1502.01 1331 1510.02 1293.25Z" fill="#F7E34A" fill-rule="evenodd"/><path d="M1071 1197.98 1125.06 1163.98 1090.81 1109.41 1150.55 1131.35 1171 1070 1191.45 1131.35 1251.19 1109.41 1216.94 1163.98 1271 1197.98 1207.84 1204.67 1215.5 1269 1171 1222.78 1126.5 1269 1134.16 1204.67Z" fill="#F7E34A" fill-rule="evenodd"/></g></svg>