<svg width="2338" height="1169" xmlns="http://www.w3.org/2000/svg" xmlns:xlink="http://www.w3.org/1999/xlink" xml:space="preserve" overflow="hidden"><defs><clipPath id="clip0"><rect x="1031" y="653" width="2338" height="1169"/></clipPath></defs><g clip-path="url(#clip0)" transform="translate(-1031 -653)"><rect x="1810" y="653" width="1559" height="1169" fill="#FFD100"/><rect x="0" y="0" width="779" height="1169" transform="matrix(-1 1.22465e-16 1.22465e-16 1 1810 653)"/><path d="M2595.68 974.413C2590.65 984.228 2571.87 1014.68 2567.89 1019.54 2551.95 1039.04 2548 1043.09 2538.95 1055.3 2533.98 1061.97 2523.38 1075.91 2516.83 1087.79 2502.53 1113.8 2502.53 1123.26 2502.53 1123.26 2502.53 1123.26 2482.36 1135.11 2480.43 1135.94 2478.47 1136.75 2469.45 1142.55 2457.01 1151.52 2440.75 1163.21 2447.91 1157.41 2430.33 1172.36 2415.27 1185.23 2402.14 1208.82 2393.93 1219.81 2384.17 1232.81 2376.66 1252.51 2375.06 1268.56 2373.12 1288.1 2375.72 1292.98 2375.72 1309.23 2375.72 1321.76 2372.47 1332.32 2365.31 1332.32 2359.79 1332.32 2358.16 1332.98 2354.25 1318.68 2351.99 1310.34 2351.86 1312.29 2350.37 1292.67 2350.04 1288.44 2348.42 1275.43 2354.25 1252.32 2361.54 1223.38 2369.95 1212.3 2384.51 1189.92 2399.13 1167.56 2450.51 1106.32 2457.66 1073.49 2464.73 1040.87 2470.01 1007.14 2446.92 972.021 2427.94 943.175 2393.52 939.071 2386.13 938.215 2376.87 937.128 2364.82 935.314 2346.01 940.482 2335.41 943.419 2328.24 945.684 2315.57 953.812 2298.45 964.773 2290.21 977.386 2285 989.907 2280.13 1001.62 2277.36 1011 2280.13 1019.85 2281.99 1025.84 2285 1027.01 2285 1027.01 2285 1027.01 2275.05 1066.69 2278.51 1074.49 2282.08 1082.45 2289.61 1082.97 2293.13 1083.59 2296.95 1084.26 2293.7 1059.77 2314.8 1044.65 2314.8 1044.65 2326.7 1043.48 2338.66 1039.89 2343.73 1038.34 2355.35 1031.22 2357.71 1029.04 2364.09 1023.2 2374.22 1011.2 2381.57 1012.71 2385.72 1013.54 2389.41 1014.72 2393.61 1018.88 2402.3 1028.86 2400.18 1040.76 2399.13 1054.62 2398.44 1063.45 2390.91 1083.1 2358.5 1117.41 2319.48 1158.71 2304.84 1172.66 2278.17 1207.11 2258.91 1232.03 2251.96 1242.16 2233.63 1276.08 2227.57 1287.29 2211.19 1333.31 2217.37 1372 2226.76 1430.66 2254.97 1458.46 2271.87 1473.44 2288.82 1488.45 2330.85 1506.37 2330.85 1506.37 2330.85 1506.37 2350.03 1517.31 2386.12 1522.56 2444.66 1531.01 2452.33 1528.29 2478.26 1524.58 2503.42 1521.01 2561.05 1508.58 2580.56 1502.07 2584.75 1500.65 2587.27 1511.83 2607.87 1523.85 2627.37 1535.23 2629.66 1536.45 2656 1535.89 2685.58 1535.23 2690.7 1531.58 2703.79 1527.42 2710.54 1525.27 2714.53 1523.85 2720.7 1522.56 2723.74 1521.91 2731.42 1521.25 2735.66 1519.96 2742.03 1517.96 2734.87 1515.24 2731.42 1514.75 2718.41 1512.8 2714.27 1507.92 2712.9 1505.97 2712.9 1505.97 2710.62 1504.02 2714.19 1503.04 2714.19 1503.04 2722.2 1503.04 2742.81 1496.54 2755.16 1492.65 2765.77 1488.21 2774.68 1483.86 2793.28 1474.76 2811.78 1462.36 2819.21 1456.88 2828 1450.37 2837.09 1443.87 2856.61 1427.61 2876.16 1411.3 2880.34 1402.9 2885.22 1396.06 2888.47 1391.47 2889.86 1385.77 2886.19 1387.61 2884.24 1388.59 2881.31 1389.89 2878.72 1391.18 2878.72 1391.18 2873.19 1391.47 2876.44 1386.96 2877.21 1385.85 2880.59 1383.31 2882.62 1381.99 2882.62 1381.99 2896.31 1369.6 2906.03 1358.34 2916.72 1345.91 2923.26 1336.88 2928.13 1328.75 2928.13 1328.75 2930.45 1323.87 2924.24 1327.12 2917.41 1330.71 2916.11 1332.66 2916.11 1332.66 2916.11 1332.66 2911.23 1333.31 2914.48 1322.9 2918.18 1311.16 2918.38 1313.8 2921.64 1306.97 2924.76 1300.39 2932.37 1288.1 2937.89 1280.63 2943.75 1272.7 2949.27 1266.32 2956.1 1253.97 2962.89 1241.68 2956.63 1244.92 2948.94 1248.08 2942.77 1250.64 2937.6 1252.27 2935.29 1253 2931.3 1254.26 2913.75 1262.25 2909.28 1264.05 2897.33 1268.89 2895.63 1269.66 2884.24 1275.43 2870.06 1282.62 2860.87 1286.93 2857.59 1288.44 2854.01 1290.06 2852.71 1292.01 2842.96 1292.67 2829.65 1293.56 2830.92 1292.98 2822.13 1292.98 2813.69 1292.98 2807.83 1294.09 2801.98 1292.98 2796.17 1291.88 2792.18 1294.32 2799.06 1284.21 2805.88 1274.13 2804.91 1275.43 2809.79 1269.2 2812.83 1265.35 2822.75 1251.34 2822.46 1251.66 2820.8 1253.53 2836.77 1231.87 2835.8 1229.59 2834.83 1227.31 2828.32 1233.5 2820.84 1233.16 2816.28 1233.16 2810.11 1231.55 2807.83 1231.21 2806.57 1231.04 2806.2 1227.65 2811.41 1222.77 2815.12 1219.31 2812.23 1221.86 2820.19 1215.61 2825.02 1211.84 2829.65 1207.1 2832.87 1203.9 2839.37 1197.4 2841.65 1195.45 2848.8 1186.34 2859.45 1172.79 2863.43 1166.8 2863.43 1166.8 2863.43 1166.8 2868.03 1160.44 2860.18 1163.22 2860.18 1163.22 2858.89 1164.2 2846.85 1170.39 2841.28 1173.23 2832.13 1174.8 2827.01 1174.93 2821.94 1175.01 2823.36 1172.23 2826.7 1169.73 2829.98 1167.26 2828.56 1167.21 2825.38 1167.12 2820.22 1167 2808.36 1169.82 2811.4 1165.17 2814.86 1159.86 2824.94 1157.81 2822.46 1156.41 2822.46 1156.41 2808.81 1157.7 2802.63 1158.35 2802.63 1158.35 2798.4 1157.7 2800.03 1153.47 2800.59 1152.01 2808.44 1145.27 2809.45 1143.07 2809.45 1143.07 2818.24 1131.36 2825.72 1120.64 2825.72 1120.64 2842.29 1104.69 2830.6 1105.35 2825.72 1105.68 2815.64 1114.77 2807.5 1117.7 2799.37 1120.64 2774.34 1131.69 2789.3 1115.43 2789.3 1115.43 2792.56 1112.51 2795.15 1108.6 2795.15 1108.6 2806.2 1094.65 2808.48 1090.75 2808.48 1090.75 2811.08 1085.87 2801.32 1090.09 2801.32 1090.09 2785.28 1097.35 2782.47 1095.95 2779.22 1094.32 2780.19 1095.92 2781.48 1088.76 2782.14 1085.18 2787.02 1074.12 2790.61 1067.95 2795.81 1058.94 2802.11 1051.06 2803.94 1049.09 2806.99 1045.74 2808.93 1043.49 2801.66 1045.19 2801.66 1045.19 2786.86 1055.11 2776.62 1058.53 2768.81 1061.12 2764.92 1061.45 2760.04 1061.78 2756 1062.04 2744.76 1062.42 2744.76 1062.42 2744.76 1062.42 2736.95 1063.07 2732.72 1063.41 2727.2 1063.83 2732.4 1058.53 2737.6 1051.37 2737.6 1051.37 2739.47 1047.66 2745.08 1038.72L2765.89 1003.6C2765.89 1003.6 2772.47 994.984 2762.64 1000.02 2761.95 1000.38 2757.64 1003.97 2757.11 1004.55 2750.28 1012.01 2749.48 1011.66 2741.83 1018.21 2741.83 1018.21 2733.71 1023.4 2727.85 1025.02 2727.85 1025.02 2715.49 1031.85 2715.82 1026.34 2716.26 1018.54 2717.78 1015.92 2719.07 1013.64 2720.9 1010.43 2720.37 1011.04 2723.95 1003.25 2723.95 1003.25 2726.55 995.447 2728.49 984.706L2730.12 973.977C2730.12 973.977 2731.42 961.583 2724.92 973.653 2718.46 985.596 2710.86 993.804 2704.11 999.007 2700.33 1001.91 2698.26 1003.57 2684.93 1008.45 2684.93 1008.45 2673.79 1013.9 2666.07 1015.27 2660.55 1016.26 2662.82 1006.5 2664.44 999.007 2664.44 999.007 2666.72 993.157 2670.63 970.728 2670.63 970.728 2671.93 959.675 2665.09 968.115 2665.09 968.115 2661.64 976.705 2655.01 986.001 2647.01 997.297 2642.01 1001.62 2639.08 1005.2 2639.08 1005.2 2629.98 1017.88 2626.74 1024.71 2626.16 1025.84 2624.45 1024.39 2623.49 1025.02 2620.79 1026.77 2620.23 996.744 2620.23 996.744 2620.23 996.744 2618.61 993.16 2615.67 996.42 2615.67 996.42 2612.41 1002.27 2610.48 1006.83 2610.48 1006.83 2606.9 1017.25 2604.29 1019.21 2601.7 1021.16 2598.77 987.633 2599.41 978.534 2599.41 978.534 2598.44 969.1 2595.67 974.418Z" fill-rule="evenodd"/><path d="M2343.92 974.29C2344.75 975.783 2338.74 986.893 2331.17 992.903 2321.94 1000.26 2311.21 1003.18 2307.61 999.239 2304.51 995.867 2313.83 981.852 2321.15 977.884 2331.45 972.317 2342.7 972.107 2343.92 974.289Z" fill="#FFD100" fill-rule="evenodd"/><path d="M2315.33 983.608C2317.59 984.873 2323.37 991.851 2326.64 994.64 2329.23 996.835 2329.55 996.342 2328.26 993.385 2327.29 991.168 2324.7 984.235 2323.09 977 2323.09 977 2313.07 982.354 2315.33 983.608" fill-rule="evenodd"/><path d="M1077 1172.5 1132.72 1155.9 1105.12 1104.97 1156.32 1132.43 1173 1077 1189.68 1132.43 1240.88 1104.97 1213.28 1155.9 1269 1172.5 1213.28 1189.1 1240.88 1240.03 1189.68 1212.57 1173 1268 1156.32 1212.57 1105.12 1240.03 1132.72 1189.1Z" fill="#FFFFFF" fill-rule="evenodd"/><path d="M1565 1127.98 1619.06 1093.98 1584.81 1039.41 1644.55 1061.35 1665 1000 1685.45 1061.35 1745.19 1039.41 1710.94 1093.98 1765 1127.98 1701.84 1134.67 1709.5 1199 1665 1152.78 1620.5 1199 1628.16 1134.67Z" fill="#FFFFFF" fill-rule="evenodd"/><path d="M1481 1267.34 1519.94 1263.18 1536 1228 1552.06 1263.18 1591 1267.34 1561.98 1293.25 1569.99 1331 1536 1311.83 1502.01 1331 1510.02 1293.25Z" fill="#FFFFFF" fill-rule="evenodd"/><path d="M1435.52 1487 1452.11 1550.21 1506.72 1512.59 1479.67 1572.73 1545 1579.38 1486.82 1606.25 1532.75 1654.61 1469.21 1638.49 1473.03 1704 1435.27 1650.26 1397.75 1703.74 1401.58 1638.23 1338.8 1654.36 1384.74 1607.27 1324 1579.63 1390.35 1573.49 1364.07 1514.13 1417.15 1550.46 1435.52 1487Z" fill="#FFFFFF" fill-rule="evenodd"/><path d="M1335 925.978 1389.06 891.981 1354.81 837.414 1414.55 859.351 1435 798 1455.45 859.351 1515.19 837.414 1480.94 891.981 1535 925.978 1471.84 932.671 1479.5 997.001 1435 950.78 1390.5 997.001 1398.16 932.671Z" fill="#FFFFFF" fill-rule="evenodd"/></g></svg>
