<svg width="2338" height="1169" xmlns="http://www.w3.org/2000/svg" xmlns:xlink="http://www.w3.org/1999/xlink" xml:space="preserve" overflow="hidden"><defs><clipPath id="clip0"><rect x="1031" y="653" width="2338" height="1169"/></clipPath></defs><g clip-path="url(#clip0)" transform="translate(-1031 -653)"><rect x="1810" y="653" width="1559" height="1169" fill="#00008B"/><rect x="0" y="0" width="779" height="1169" fill="#FFC700" transform="matrix(-1 1.22465e-16 1.22465e-16 1 1810 653)"/><path d="M2335.83 1097.67C2402.08 1118.85 2457.6 1135.34 2490.17 1203.5 2421.4 1191.98 2377.9 1161.09 2335.83 1097.67Z" stroke="#6D7231" stroke-width="7.5625" stroke-miterlimit="8" fill="#869364" fill-rule="evenodd"/><path d="M2322.01 1202.58C2391.26 1196.09 2448.8 1189.48 2505.49 1239.41 2437.71 1255.78 2385.58 1244.43 2322.01 1202.58Z" stroke="#6D7231" stroke-width="7.5625" stroke-miterlimit="8" fill="#869364" fill-rule="evenodd"/><path d="M21.6711 0.0289933C41.6682 66.6439 59.4668 121.761 21.6711 187.168-7.71786 123.934-6.8485 70.5915 21.6711 0.0289933Z" stroke="#6D7231" stroke-width="7.5625" stroke-miterlimit="8" fill="#869364" fill-rule="evenodd" transform="matrix(-0.947468 -0.319849 -0.319849 0.947468 2664.11 1152.4)"/><path d="M2807.98 1316.52C2753.34 1359.55 2708.59 1396.32 2633.88 1385.15 2681.93 1334.62 2731.88 1315.86 2807.98 1316.52Z" stroke="#6D7231" stroke-width="7.5625" stroke-miterlimit="8" fill="#869364" fill-rule="evenodd"/><path d="M21.6781 0.022925C41.6752 66.6379 59.4737 121.755 21.6781 187.162-7.71089 123.928-6.84176 70.5855 21.6781 0.022925Z" stroke="#6D7231" stroke-width="7.5625" stroke-miterlimit="8" fill="#869364" fill-rule="evenodd" transform="matrix(-0.989678 -0.14331 -0.14331 0.989678 2713.48 1085.73)"/><path d="M2468.08 1016.38C2502.71 1076.7 2532.58 1126.32 2510.65 1198.61 2467.65 1143.72 2456.36 1091.58 2468.08 1016.38Z" stroke="#6D7231" stroke-width="7.5625" stroke-miterlimit="8" fill="#869364" fill-rule="evenodd"/><path d="M2485.91 1092.99C2482.2 1107.07 2503.18 1177.16 2506.94 1212.85 2468.71 1182.25 2413.46 1143.86 2400.58 1141.99 2407.57 1155.3 2494.78 1207.05 2525.69 1240.39 2480.94 1227.38 2412.34 1213.6 2398.97 1217.73 2411.18 1225.49 2523.86 1241.09 2557.11 1261.11 2559.43 1281.49 2563.34 1302.5 2567.76 1322.81 2571.35 1339.32 2575.06 1355.76 2578.94 1370.54 2564.13 1354.67 2551.17 1341.63 2533.53 1330.03L2527.64 1338.92C2555.94 1357.54 2575.73 1380.95 2588.52 1410.85 2601.31 1440.74 2601.34 1487.8 2600.18 1539.99 2606.66 1536.67 2615.51 1532.81 2618.39 1523.22 2619.35 1480.41 2615.88 1450.37 2607.34 1423.62 2611.26 1412.68 2614.97 1402.25 2618.6 1392.26 2642.08 1386.14 2722.78 1358.44 2734.81 1345.27 2720.72 1343.7 2657.74 1372.75 2622.21 1382.57 2631.99 1356.24 2641.52 1333.11 2653.76 1312.72 2672.68 1281.2 2697.87 1255.47 2740.97 1231.77L2735.81 1222.41C2708.03 1237.68 2687.08 1254.11 2670.44 1272.34 2672.97 1234.62 2685.13 1173.12 2680.62 1160.51 2670.7 1174.97 2662.29 1257.08 2661.46 1282.84 2655.24 1290.63 2649.67 1298.76 2644.58 1307.24 2627.34 1335.98 2615.42 1369.07 2601.58 1407.84 2601.16 1406.82 2600.75 1405.79 2600.31 1404.76 2599.85 1403.7 2599.32 1402.68 2598.84 1401.62 2598.39 1400 2598.03 1398.57 2597.56 1396.88 2593.3 1381.37 2589.74 1363.86 2585.01 1344.46 2586.24 1317.72 2615.4 1256.92 2618.19 1219.94 2607.19 1231 2587.37 1299.32 2579.61 1326.82 2578.57 1324.73 2578.67 1322.65 2578.21 1320.54 2566 1264.49 2559.32 1203.14 2575.93 1169.94L2566.35 1165.19C2555.11 1187.67 2553.27 1218.12 2556.1 1250.82 2552.65 1249.28 2548.12 1247.59 2543.11 1245.87 2536.29 1235.7 2518.15 1221.72 2516.05 1219.27 2515.56 1204.43 2498.12 1107.88 2485.91 1092.99Z" stroke="#6D7231" stroke-width="7.5625" stroke-miterlimit="8" fill="#869364" fill-rule="evenodd"/><path d="M2760.98 1118.01C2760.98 1132.82 2748.79 1145.01 2733.98 1145.01 2719.17 1145.01 2706.98 1132.82 2706.98 1118.01 2706.98 1103.2 2719.17 1091.01 2733.98 1091.01 2748.79 1091.01 2760.98 1103.2 2760.98 1118.01Z" stroke="#E2A100" stroke-width="7.55131" stroke-miterlimit="8" fill="#FFC222" fill-rule="evenodd"/><path d="M2803.99 1085.01C2803.99 1099.82 2791.57 1112.01 2776.49 1112.01 2761.4 1112.01 2748.99 1099.82 2748.99 1085.01 2748.99 1070.2 2761.4 1058.01 2776.49 1058.01 2791.57 1058.01 2803.99 1070.2 2803.99 1085.01Z" stroke="#E2A100" stroke-width="7.55131" stroke-miterlimit="8" fill="#FFC222" fill-rule="evenodd"/><path d="M2846.99 1113.01C2846.99 1127.82 2834.8 1140.01 2819.99 1140.01 2805.18 1140.01 2792.99 1127.82 2792.99 1113.01 2792.99 1098.2 2805.18 1086.01 2819.99 1086.01 2834.8 1086.01 2846.99 1098.2 2846.99 1113.01Z" stroke="#E2A100" stroke-width="7.55131" stroke-miterlimit="8" fill="#FFC222" fill-rule="evenodd"/><path d="M2856.99 1172.02C2856.99 1186.83 2844.8 1199.02 2829.99 1199.02 2815.18 1199.02 2802.99 1186.83 2802.99 1172.02 2802.99 1157.21 2815.18 1145.02 2829.99 1145.02 2844.8 1145.02 2856.99 1157.21 2856.99 1172.02Z" stroke="#E2A100" stroke-width="7.55131" stroke-miterlimit="8" fill="#FFC222" fill-rule="evenodd"/><path d="M2714.98 1035.01C2714.98 1049.82 2702.79 1062.01 2687.98 1062.01 2673.17 1062.01 2660.98 1049.82 2660.98 1035.01 2660.98 1020.19 2673.17 1008.01 2687.98 1008.01 2702.79 1008.01 2714.98 1020.19 2714.98 1035.01Z" stroke="#E2A100" stroke-width="7.55131" stroke-miterlimit="8" fill="#FFC222" fill-rule="evenodd"/><path d="M2664.97 1041.01C2664.97 1055.82 2652.78 1068.01 2637.97 1068.01 2623.16 1068.01 2610.97 1055.82 2610.97 1041.01 2610.97 1026.19 2623.16 1014.01 2637.97 1014.01 2652.78 1014.01 2664.97 1026.19 2664.97 1041.01Z" stroke="#E2A100" stroke-width="7.55131" stroke-miterlimit="8" fill="#FFC222" fill-rule="evenodd"/><path d="M2625.97 1072.01C2625.97 1086.82 2613.78 1099.01 2598.97 1099.01 2584.16 1099.01 2571.97 1086.82 2571.97 1072.01 2571.97 1057.2 2584.16 1045.01 2598.97 1045.01 2613.78 1045.01 2625.97 1057.2 2625.97 1072.01Z" stroke="#E2A100" stroke-width="7.55131" stroke-miterlimit="8" fill="#FFC222" fill-rule="evenodd"/><path d="M2632.97 936.995C2632.97 951.805 2620.78 963.995 2605.97 963.995 2591.16 963.995 2578.97 951.805 2578.97 936.995 2578.97 922.182 2591.16 909.995 2605.97 909.995 2620.78 909.995 2632.97 922.182 2632.97 936.995Z" stroke="#E2A100" stroke-width="7.55131" stroke-miterlimit="8" fill="#FFC222" fill-rule="evenodd"/><path d="M2582.96 974.999C2582.96 989.81 2570.77 1002 2555.96 1002 2541.15 1002 2528.96 989.81 2528.96 974.999 2528.96 960.186 2541.15 947.999 2555.96 947.999 2570.77 947.999 2582.96 960.186 2582.96 974.999Z" stroke="#E2A100" stroke-width="7.55131" stroke-miterlimit="8" fill="#FFC222" fill-rule="evenodd"/><path d="M2649.97 989.001C2649.97 1003.81 2637.78 1016 2622.97 1016 2608.16 1016 2595.97 1003.81 2595.97 989.001 2595.97 974.188 2608.16 962 2622.97 962 2637.78 962 2649.97 974.188 2649.97 989.001Z" stroke="#E2A100" stroke-width="7.55131" stroke-miterlimit="8" fill="#FFC222" fill-rule="evenodd"/><path d="M2605.97 1023C2605.97 1037.81 2593.78 1050 2578.97 1050 2564.15 1050 2551.97 1037.81 2551.97 1023 2551.97 1008.19 2564.15 996.004 2578.97 996.004 2593.78 996.004 2605.97 1008.19 2605.97 1023Z" stroke="#E2A100" stroke-width="7.55131" stroke-miterlimit="8" fill="#FFC222" fill-rule="evenodd"/><path d="M2699.98 968.998C2699.98 983.809 2687.79 995.998 2672.98 995.998 2658.16 995.998 2645.98 983.809 2645.98 968.998 2645.98 954.186 2658.16 941.998 2672.98 941.998 2687.79 941.998 2699.98 954.186 2699.98 968.998Z" stroke="#E2A100" stroke-width="7.55131" stroke-miterlimit="8" fill="#FFC222" fill-rule="evenodd"/><path d="M2544.96 1020C2544.96 1034.81 2532.77 1047 2517.96 1047 2503.15 1047 2490.96 1034.81 2490.96 1020 2490.96 1005.19 2503.15 993.004 2517.96 993.004 2532.77 993.004 2544.96 1005.19 2544.96 1020Z" stroke="#E2A100" stroke-width="7.55131" stroke-miterlimit="8" fill="#FFC222" fill-rule="evenodd"/><path d="M2571.96 1066.01C2571.96 1080.82 2559.77 1093.01 2544.96 1093.01 2530.15 1093.01 2517.96 1080.82 2517.96 1066.01 2517.96 1051.2 2530.15 1039.01 2544.96 1039.01 2559.77 1039.01 2571.96 1051.2 2571.96 1066.01Z" stroke="#E2A100" stroke-width="7.55131" stroke-miterlimit="8" fill="#FFC222" fill-rule="evenodd"/><path d="M2579.96 1118.01C2579.96 1132.82 2567.77 1145.01 2552.96 1145.01 2538.15 1145.01 2525.96 1132.82 2525.96 1118.01 2525.96 1103.2 2538.15 1091.01 2552.96 1091.01 2567.77 1091.01 2579.96 1103.2 2579.96 1118.01Z" stroke="#E2A100" stroke-width="7.55131" stroke-miterlimit="8" fill="#FFC222" fill-rule="evenodd"/><path d="M2598.97 1167.02C2598.97 1181.83 2586.78 1194.02 2571.97 1194.02 2557.15 1194.02 2544.97 1181.83 2544.97 1167.02 2544.97 1152.21 2557.15 1140.02 2571.97 1140.02 2586.78 1140.02 2598.97 1152.21 2598.97 1167.02Z" stroke="#E2A100" stroke-width="7.55131" stroke-miterlimit="8" fill="#FFC222" fill-rule="evenodd"/><path d="M2634.97 1125.01C2634.97 1139.83 2622.55 1152.01 2607.47 1152.01 2592.38 1152.01 2579.97 1139.83 2579.97 1125.01 2579.97 1110.2 2592.38 1098.01 2607.47 1098.01 2622.55 1098.01 2634.97 1110.2 2634.97 1125.01Z" stroke="#E2A100" stroke-width="7.55131" stroke-miterlimit="8" fill="#FFC222" fill-rule="evenodd"/><path d="M2677.97 1094.01C2677.97 1108.82 2665.78 1121.01 2650.97 1121.01 2636.16 1121.01 2623.97 1108.82 2623.97 1094.01 2623.97 1079.2 2636.16 1067.01 2650.97 1067.01 2665.78 1067.01 2677.97 1079.2 2677.97 1094.01Z" stroke="#E2A100" stroke-width="7.55131" stroke-miterlimit="8" fill="#FFC222" fill-rule="evenodd"/><path d="M2545.96 1284.03C2545.96 1298.84 2533.77 1311.03 2518.96 1311.03 2504.15 1311.03 2491.96 1298.84 2491.96 1284.03 2491.96 1269.22 2504.15 1257.03 2518.96 1257.03 2533.77 1257.03 2545.96 1269.22 2545.96 1284.03Z" stroke="#E2A100" stroke-width="7.55131" stroke-miterlimit="8" fill="#FFC222" fill-rule="evenodd"/><path d="M2484.95 1282.03C2484.95 1296.84 2472.76 1309.03 2457.95 1309.03 2443.14 1309.03 2430.95 1296.84 2430.95 1282.03 2430.95 1267.22 2443.14 1255.03 2457.95 1255.03 2472.76 1255.03 2484.95 1267.22 2484.95 1282.03Z" stroke="#E2A100" stroke-width="7.55131" stroke-miterlimit="8" fill="#FFC222" fill-rule="evenodd"/><path d="M2501.95 1331.04C2501.95 1345.85 2489.77 1358.04 2474.96 1358.04 2460.14 1358.04 2447.95 1345.85 2447.95 1331.04 2447.95 1316.22 2460.14 1304.04 2474.96 1304.04 2489.77 1304.04 2501.95 1316.22 2501.95 1331.04Z" stroke="#E2A100" stroke-width="7.55131" stroke-miterlimit="8" fill="#FFC222" fill-rule="evenodd"/><path d="M2553.96 1338.04C2553.96 1352.85 2541.77 1365.04 2526.96 1365.04 2512.15 1365.04 2499.96 1352.85 2499.96 1338.04 2499.96 1323.22 2512.15 1311.04 2526.96 1311.04 2541.77 1311.04 2553.96 1323.22 2553.96 1338.04Z" stroke="#E2A100" stroke-width="7.55131" stroke-miterlimit="8" fill="#FFC222" fill-rule="evenodd"/><path d="M2764.98 1288.03C2764.98 1302.84 2752.79 1315.03 2737.98 1315.03 2723.17 1315.03 2710.98 1302.84 2710.98 1288.03 2710.98 1273.22 2723.17 1261.03 2737.98 1261.03 2752.79 1261.03 2764.98 1273.22 2764.98 1288.03Z" stroke="#E2A100" stroke-width="7.55131" stroke-miterlimit="8" fill="#FFC222" fill-rule="evenodd"/><path d="M2774.98 1235.03C2774.98 1249.84 2762.79 1262.03 2747.98 1262.03 2733.17 1262.03 2720.98 1249.84 2720.98 1235.03 2720.98 1220.21 2733.17 1208.03 2747.98 1208.03 2762.79 1208.03 2774.98 1220.21 2774.98 1235.03Z" stroke="#E2A100" stroke-width="7.55131" stroke-miterlimit="8" fill="#FFC222" fill-rule="evenodd"/><path d="M2816.99 1199.52C2816.99 1214.61 2804.8 1227.02 2789.99 1227.02 2775.18 1227.02 2762.99 1214.61 2762.99 1199.52 2762.99 1184.44 2775.18 1172.02 2789.99 1172.02 2804.8 1172.02 2816.99 1184.44 2816.99 1199.52Z" stroke="#E2A100" stroke-width="7.55131" stroke-miterlimit="8" fill="#FFC222" fill-rule="evenodd"/><path d="M2824.99 1259.03C2824.99 1273.84 2812.8 1286.03 2797.99 1286.03 2783.18 1286.03 2770.99 1273.84 2770.99 1259.03 2770.99 1244.22 2783.18 1232.03 2797.99 1232.03 2812.8 1232.03 2824.99 1244.22 2824.99 1259.03Z" stroke="#E2A100" stroke-width="7.55131" stroke-miterlimit="8" fill="#FFC222" fill-rule="evenodd"/><path d="M2805.99 1145.02C2805.99 1159.83 2793.57 1172.02 2778.49 1172.02 2763.4 1172.02 2750.99 1159.83 2750.99 1145.02 2750.99 1130.2 2763.4 1118.02 2778.49 1118.02 2793.57 1118.02 2805.99 1130.2 2805.99 1145.02Z" stroke="#E2A100" stroke-width="7.55131" stroke-miterlimit="8" fill="#FFC222" fill-rule="evenodd"/><path d="M2763.98 1181.02C2763.98 1195.83 2751.79 1208.02 2736.98 1208.02 2722.17 1208.02 2709.98 1195.83 2709.98 1181.02 2709.98 1166.21 2722.17 1154.02 2736.98 1154.02 2751.79 1154.02 2763.98 1166.21 2763.98 1181.02Z" stroke="#E2A100" stroke-width="7.55131" stroke-miterlimit="8" fill="#FFC222" fill-rule="evenodd"/><path d="M1421.8 983.937 1469.96 1134.07 1617.07 1078.22 1530.02 1209.57 1665.3 1290.06 1508.58 1303.72 1530.16 1459.94 1421.8 1345.62 1313.43 1459.94 1335.01 1303.72 1178.3 1290.06 1313.57 1209.57 1226.52 1078.22 1373.63 1134.07Z" fill="#00008B" fill-rule="evenodd"/></g></svg>
