<svg width="2338" height="1169" xmlns="http://www.w3.org/2000/svg" xmlns:xlink="http://www.w3.org/1999/xlink" xml:space="preserve" overflow="hidden"><defs><clipPath id="clip0"><rect x="1031" y="653" width="2338" height="1169"/></clipPath></defs><g clip-path="url(#clip0)" transform="translate(-1031 -653)"><rect x="1810" y="653" width="1559" height="1169" fill="#57ACF3"/><path d="M2191 1237.5C2191 1011.89 2373.67 829 2599 829 2824.33 829 3007 1011.89 3007 1237.5 3007 1463.11 2824.33 1646 2599 1646 2373.67 1646 2191 1463.11 2191 1237.5Z" fill="#F2F2F2" fill-rule="evenodd"/><rect x="0" y="0" width="779" height="1169" fill="#F2F2F2" transform="matrix(-1 1.22465e-16 1.22465e-16 1 1810 653)"/><path d="M2600.5 995.5C2614.31 995.5 2625.5 1005.78 2625.5 1018.46 2625.5 1103.53 2614.31 1172.5 2600.5 1172.5 2586.69 1172.5 2575.5 1103.53 2575.5 1018.46 2575.5 1005.78 2586.69 995.5 2600.5 995.5Z" stroke="#651D1D" stroke-width="6.875" stroke-miterlimit="8" fill="#A40000" fill-rule="evenodd"/><path d="M2514.33 1002.46C2526.82 1009.13 2531.54 1024.66 2524.87 1037.15L2523.61 1039.04 2511.14 1061.42C2477.77 1118.85 2482.49 1200.21 2471.59 1194.39 2460.69 1188.57 2437.79 1097.5 2466.95 1037.82L2479.65 1013 2479.65 1013C2486.31 1000.51 2501.84 995.792 2514.33 1002.46Z" stroke="#651D1D" stroke-width="6.875" stroke-miterlimit="8" fill="#A40000" fill-rule="evenodd"/><path d="M2566.79 1003.25C2579.05 1010.33 2583.47 1025.62 2576.67 1037.41L2575.38 1039.18 2562.68 1060.27C2528.71 1114.34 2532.08 1193.47 2521.38 1187.29 2510.68 1181.11 2489.46 1091.67 2519.3 1035.22L2532.26 1011.77 2532.26 1011.77C2539.07 999.987 2554.52 996.172 2566.79 1003.25Z" stroke="#651D1D" stroke-width="6.875" stroke-miterlimit="8" fill="#A40000" fill-rule="evenodd"/><path d="M2465.85 1038.33C2479.43 1042.34 2487.19 1056.6 2483.18 1070.17L2482.32 1072.28 2474.63 1096.72C2453.55 1159.71 2474.61 1238.43 2462.76 1234.93 2450.91 1231.44 2410.08 1146.87 2426.59 1082.53L2434 1055.66 2434 1055.66C2438.01 1042.08 2452.27 1034.32 2465.85 1038.33Z" stroke="#651D1D" stroke-width="6.875" stroke-miterlimit="8" fill="#A40000" fill-rule="evenodd"/><path d="M2527.08 1041.82C2539.57 1048.49 2544.29 1064.02 2537.62 1076.51L2536.36 1078.4 2523.89 1100.78C2490.52 1158.21 2495.24 1239.57 2484.34 1233.75 2473.44 1227.93 2450.54 1136.86 2479.7 1077.18L2492.4 1052.36 2492.4 1052.36C2499.06 1039.87 2514.6 1035.15 2527.08 1041.82Z" stroke="#651D1D" stroke-width="6.875" stroke-miterlimit="8" fill="#A40000" fill-rule="evenodd"/><path d="M2590.04 1045.24C2601.32 1053.8 2603.79 1069.53 2595.57 1080.37L2594.07 1081.96 2578.83 1101.3C2538.36 1150.69 2531.8 1229.62 2521.96 1222.15 2512.11 1214.68 2502.25 1123.29 2538.92 1071.02L2554.72 1049.38 2554.72 1049.38C2562.95 1038.53 2578.76 1036.68 2590.04 1045.24Z" stroke="#651D1D" stroke-width="6.875" stroke-miterlimit="8" fill="#A40000" fill-rule="evenodd"/><path d="M2413.21 1080.37C2426.96 1076.99 2440.84 1085.41 2444.22 1099.16L2444.53 1101.41 2450.2 1126.39C2463.69 1191.43 2521.52 1248.85 2509.52 1251.8 2497.52 1254.74 2419.67 1202.23 2401.54 1138.33L2394.42 1111.37 2394.42 1111.37C2391.05 1097.62 2399.46 1083.74 2413.21 1080.37Z" stroke="#651D1D" stroke-width="6.875" stroke-miterlimit="8" fill="#A40000" fill-rule="evenodd"/><path d="M2473.43 1091.4C2487.39 1089.03 2500.63 1098.42 2503 1112.37L2503.16 1114.64 2507.01 1139.97C2515.8 1205.81 2569.35 1267.24 2557.17 1269.31 2544.99 1271.38 2471.11 1213.42 2457.62 1148.38L2452.46 1120.98 2452.46 1120.98C2450.08 1107.02 2459.47 1093.78 2473.43 1091.4Z" stroke="#651D1D" stroke-width="6.875" stroke-miterlimit="8" fill="#A40000" fill-rule="evenodd"/><path d="M2528.64 1098.14C2542.7 1096.45 2555.41 1106.04 2557.03 1119.55L2557.06 1121.74 2559.55 1146.24C2564.78 1209.87 2614.92 1271.18 2602.65 1272.65 2590.38 1274.12 2519.77 1215.27 2509.8 1152.2L2506.12 1125.66 2506.12 1125.66C2504.5 1112.15 2514.59 1099.83 2528.64 1098.14Z" stroke="#651D1D" stroke-width="6.875" stroke-miterlimit="8" fill="#A40000" fill-rule="evenodd"/><path d="M2578.72 1090.72C2592.6 1089.26 2604.93 1098.3 2606.25 1110.91 2615.15 1195.54 2611.1 1265.33 2597.22 1266.79 2583.34 1268.25 2564.88 1200.83 2555.99 1116.2 2554.66 1103.58 2564.84 1092.17 2578.72 1090.72Z" stroke="#651D1D" stroke-width="6.875" stroke-miterlimit="8" fill="#A40000" fill-rule="evenodd"/><path d="M2378.49 1134.76C2391.68 1129.62 2406.54 1136.16 2411.67 1149.36L2412.28 1151.54 2421.14 1175.58C2442.98 1238.31 2507.78 1287.73 2496.26 1292.21 2484.75 1296.69 2400.73 1254.74 2374.45 1193.74L2363.88 1167.94 2363.88 1167.94C2358.75 1154.74 2365.29 1139.89 2378.49 1134.76Z" stroke="#651D1D" stroke-width="6.875" stroke-miterlimit="8" fill="#A40000" fill-rule="evenodd"/><path d="M2445.24 1144.95C2455.1 1146.54 2463.54 1153.85 2466.07 1164.16L2466.39 1166.41 2472.05 1191.4C2480.49 1232.05 2506.24 1269.72 2521.44 1292.98L2528.08 1303.54 2506.98 1299.47 2492.3 1295.43 2479.68 1285.13C2456.45 1264.39 2432.46 1235.28 2423.39 1203.33L2416.27 1176.38 2416.27 1176.38C2412.9 1162.63 2421.31 1148.74 2435.06 1145.37 2438.5 1144.53 2441.95 1144.42 2445.24 1144.95Z" stroke="#651D1D" stroke-width="6.875" stroke-miterlimit="8" fill="#A40000" fill-rule="evenodd"/><path d="M2489.27 1156.78C2503.23 1154.4 2516.47 1163.79 2518.84 1177.75L2519 1180.01 2522.85 1205.34C2527.25 1238.26 2542.83 1270.08 2555.79 1293.92L2563.75 1308.28 2536.41 1305.15 2528.15 1303.56 2523.73 1299.38C2502.05 1277.02 2480.21 1246.27 2473.46 1213.75L2468.3 1186.35C2465.92 1172.39 2475.31 1159.15 2489.27 1156.78Z" stroke="#651D1D" stroke-width="6.875" stroke-miterlimit="8" fill="#A40000" fill-rule="evenodd"/><path d="M2538.08 1167.46C2552.14 1165.77 2564.85 1175.36 2566.47 1188.87L2566.5 1191.05 2568.98 1215.55C2571.6 1247.37 2585.44 1278.61 2597.1 1302.07L2600.98 1309.73 2598.29 1309.84 2567.52 1308.67 2564.8 1305.95C2544.37 1283.53 2524.22 1253.05 2519.24 1221.52L2515.56 1194.98 2515.56 1194.98C2513.94 1181.46 2524.02 1169.14 2538.08 1167.46Z" stroke="#651D1D" stroke-width="6.875" stroke-miterlimit="8" fill="#A40000" fill-rule="evenodd"/><path d="M25.636 0C39.7943 0 51.2719 11.4776 51.2719 25.6359L51.0442 27.8945 50.591 53.51C48.2069 119.892 90.6891 189.436 78.3332 189.436 65.9773 189.436 2.87737 119.892 0.493215 53.51L0 25.6359 5.39976e-05 25.6359C5.39976e-05 11.4776 11.4776 0 25.636 0Z" stroke="#651D1D" stroke-width="6.875" stroke-miterlimit="8" fill="#A40000" fill-rule="evenodd" transform="matrix(-0.882128 0.47101 0.47101 0.882128 2711.47 990.386)"/><path d="M25.636 0C39.7943 0 51.2719 11.0321 51.2719 24.6409L51.0442 26.8119 50.591 51.4333C48.2069 115.239 90.6891 182.084 78.3332 182.084 65.9773 182.084 2.87737 115.239 0.493215 51.4333L0 24.6409 5.39976e-05 24.6409C5.39976e-05 11.0321 11.4776 0 25.636 0Z" stroke="#651D1D" stroke-width="6.875" stroke-miterlimit="8" fill="#A40000" fill-rule="evenodd" transform="matrix(-0.866025 0.5 0.5 0.866025 2657.5 990.433)"/><path d="M25.636 0C39.7943 0 51.2719 11.4776 51.2719 25.6359L51.0442 27.8945 50.591 53.51C48.2069 119.892 90.6891 189.436 78.3332 189.436 65.9773 189.436 2.87737 119.892 0.493215 53.51L0 25.6359 5.39976e-05 25.6359C5.39976e-05 11.4776 11.4776 0 25.636 0Z" stroke="#651D1D" stroke-width="6.875" stroke-miterlimit="8" fill="#A40000" fill-rule="evenodd" transform="matrix(-0.95909 0.2831 0.2831 0.95909 2758.33 1028.16)"/><path d="M25.636 0C39.7943 0 51.2719 11.4776 51.2719 25.6359L51.0442 27.8945 50.591 53.51C48.2069 119.892 90.6891 189.436 78.3332 189.436 65.9773 189.436 2.87737 119.892 0.493215 53.51L0 25.6359 5.39976e-05 25.6359C5.39976e-05 11.4776 11.4776 0 25.636 0Z" stroke="#651D1D" stroke-width="6.875" stroke-miterlimit="8" fill="#A40000" fill-rule="evenodd" transform="matrix(-0.882128 0.47101 0.47101 0.882128 2695.12 1026.83)"/><path d="M25.636 0C39.7943 0 51.2719 11.0321 51.2719 24.6409L51.0442 26.8119 50.591 51.4333C48.2069 115.239 90.6891 182.084 78.3332 182.084 65.9773 182.084 2.87737 115.239 0.493215 51.4333L0 24.6409 5.39976e-05 24.6409C5.39976e-05 11.0321 11.4776 0 25.636 0Z" stroke="#651D1D" stroke-width="6.875" stroke-miterlimit="8" fill="#A40000" fill-rule="evenodd" transform="matrix(-0.79664 0.604454 0.604454 0.79664 2629.45 1026.83)"/><path d="M25.636 0C39.7943 0 51.2719 11.4776 51.2719 25.6359L51.0442 27.8945 50.591 53.51C48.2069 119.892 90.6891 189.436 78.3332 189.436 65.9773 189.436 2.87737 119.892 0.493215 53.51L0 25.6359 5.39976e-05 25.6359C5.39976e-05 11.4776 11.4776 0 25.636 0Z" stroke="#651D1D" stroke-width="6.875" stroke-miterlimit="8" fill="#A40000" fill-rule="evenodd" transform="matrix(-0.971207 -0.238235 -0.238235 0.971207 2811.28 1083.56)"/><path d="M25.636 0C39.7943 0 51.2719 11.4776 51.2719 25.6359L51.0442 27.8945 50.591 53.51C48.2069 119.892 90.6891 189.436 78.3332 189.436 65.9773 189.436 2.87737 119.892 0.493215 53.51L0 25.6359 5.39976e-05 25.6359C5.39976e-05 11.4776 11.4776 0 25.636 0Z" stroke="#651D1D" stroke-width="6.875" stroke-miterlimit="8" fill="#A40000" fill-rule="evenodd" transform="matrix(-0.985816 -0.167831 -0.167831 0.985816 2751.44 1092.79)"/><path d="M25.636 0C39.7943 0 51.2719 11.0321 51.2719 24.6409L51.0442 26.8119 50.591 51.4333C48.2069 115.239 90.6891 182.084 78.3332 182.084 65.9773 182.084 2.87737 115.239 0.493215 51.4333L0 24.6409 5.39976e-05 24.6409C5.39976e-05 11.0321 11.4776 0 25.636 0Z" stroke="#651D1D" stroke-width="6.875" stroke-miterlimit="8" fill="#A40000" fill-rule="evenodd" transform="matrix(-0.992883 -0.119098 -0.119098 0.992883 2696.4 1098.28)"/><path d="M25.2708 0C39.2274 0 50.5415 10.2818 50.5415 22.9651 50.5415 108.062 39.2274 177.047 25.2708 177.047 11.3141 177.047 0 108.062 0 22.9651 0 10.2818 11.3141 0 25.2708 0Z" stroke="#651D1D" stroke-width="6.875" stroke-miterlimit="8" fill="#A40000" fill-rule="evenodd" transform="matrix(-0.994522 -0.104528 -0.104528 0.994522 2646.01 1090.44)"/><path d="M25.636 0C39.7943 0 51.2719 11.4776 51.2719 25.6359L51.0442 27.8945 50.591 53.51C48.2069 119.892 90.6891 189.436 78.3332 189.436 65.9773 189.436 2.87737 119.892 0.493215 53.51L0 25.6359 5.39976e-05 25.6359C5.39976e-05 11.4776 11.4776 0 25.636 0Z" stroke="#651D1D" stroke-width="6.875" stroke-miterlimit="8" fill="#A40000" fill-rule="evenodd" transform="matrix(-0.932003 -0.36245 -0.36245 0.932003 2845 1141.13)"/><path d="M35.6145 2.0146C32.5474 0.717256 29.1754 0 25.6358 0 11.4775 0 0 11.4776 0 25.6359L0 25.6359 0.493286 53.51C1.68524 86.701 18.0562 120.682 35.6737 146.366L48.4615 163.346 61.0113 170.346 79.0971 178.668 78.8756 177.533C72.2519 154.862 48.8028 103.296 50.5908 53.51L51.0441 27.8945 51.2716 25.6359C51.2718 15.0172 44.8156 5.90625 35.6145 2.0146Z" stroke="#651D1D" stroke-width="6.875" stroke-miterlimit="8" fill="#A40000" fill-rule="evenodd" transform="matrix(-0.971207 -0.238235 -0.238235 0.971207 2789.43 1148.56)"/><path d="M25.6359 0C11.4776 0 0 11.4776 0 25.6359L0.493287 53.5102C1.68524 86.701 18.0563 120.683 35.6737 146.366L41.901 154.635 49.6926 157.562 74.6491 164.812 74.3564 163.932C65.1366 137.723 49.1008 94.9986 50.5909 53.51L51.0442 27.8945 51.2717 25.6359C51.2717 11.4776 39.7942 0 25.6359 0Z" stroke="#651D1D" stroke-width="6.875" stroke-miterlimit="8" fill="#A40000" fill-rule="evenodd" transform="matrix(-0.985816 -0.167831 -0.167831 0.985816 2735.6 1158.16)"/><path d="M25.6359 0C11.4776 0 0 11.0321 0 24.641L0 24.641 0.493287 51.4333C1.68524 83.3358 18.0563 115.999 35.6737 140.686L40.5809 146.948 71.1079 151.79 72.2846 151.886 68.2015 140.686C59.4232 115.999 49.399 83.3358 50.5909 51.4333L51.0442 26.8119 51.2719 24.641C51.2717 11.0321 39.7942 0 25.6359 0Z" stroke="#651D1D" stroke-width="6.875" stroke-miterlimit="8" fill="#A40000" fill-rule="evenodd" transform="matrix(-0.992883 -0.119098 -0.119098 0.992883 2686.97 1167.6)"/><path d="M2579.48 1165.25C2593.36 1163.79 2605.69 1172.83 2607.01 1185.45 2611.46 1227.76 2612.67 1266.37 2611.04 1294.58L2609.68 1309.4 2598.29 1309.84 2578.85 1309.1 2575.5 1298.31C2568.03 1271.06 2561.2 1233.04 2556.75 1190.73 2555.42 1178.11 2565.6 1166.71 2579.48 1165.25Z" stroke="#651D1D" stroke-width="6.875" stroke-miterlimit="8" fill="#A40000" fill-rule="evenodd"/><path d="M25.2708 0C11.3142 0 0 10.2819 0 22.965 0 65.5137 2.82849 104.034 7.4017 131.918L10.2913 146.455 32.2015 149.601 39.5274 150.092 43.1398 131.918C47.713 104.034 50.5415 65.5137 50.5415 22.965 50.5415 10.2819 39.2274 0 25.2708 0Z" stroke="#651D1D" stroke-width="6.875" stroke-miterlimit="8" fill="#A40000" fill-rule="evenodd" transform="matrix(-0.994522 -0.104528 -0.104528 0.994522 2645.95 1164.42)"/><path d="M2927.52 1319.5C2911.29 1308.72 2867.11 1287.82 2832.66 1283.77 2798.22 1279.73 2754.45 1285.8 2720.84 1295.23 2687.22 1304.67 2618.58 1335.68 2630.98 1340.4 2643.38 1345.12 2745.38 1322.2 2795.22 1323.55 2845.06 1324.9 2907.71 1348.94 2930.01 1348.49 2952.31 1348.04 2943.74 1330.29 2927.52 1319.5Z" stroke="#00422E" stroke-width="4.58333" stroke-miterlimit="8" fill="#006747" fill-rule="evenodd"/><path d="M298.016 37.0046C281.791 26.2179 237.61 5.31857 203.164 1.27363 168.718-2.77132 124.953 3.29601 91.3388 12.7344 57.7245 22.1728-10.9183 53.1848 1.47899 57.904 13.8762 62.6232 115.884 39.7013 165.723 41.0496 215.561 42.3979 278.214 66.4433 300.512 65.9939 322.811 65.5444 314.241 47.7913 298.016 37.0046Z" stroke="#00422E" stroke-width="4.58333" stroke-miterlimit="8" fill="#006747" fill-rule="evenodd" transform="matrix(-1 0 0 1 2569.5 1284.5)"/><path d="M2602.88 1329.87C2570.53 1329.53 2519.48 1305.16 2502.8 1308.89 2486.12 1312.61 2486.68 1327.28 2502.8 1352.21 2518.92 1377.15 2567.28 1458.39 2599.52 1458.5 2631.76 1458.61 2680.01 1377.49 2696.24 1352.89 2712.47 1328.29 2712.47 1314.75 2696.91 1310.92 2681.35 1307.08 2635.23 1330.21 2602.88 1329.87Z" stroke="#00422E" stroke-width="4.58333" stroke-miterlimit="8" fill="#006747" fill-rule="evenodd"/><path d="M1588 1054 1646.27 1063.8 1667 1008 1687.73 1063.8 1746 1054 1708.45 1100 1746 1146 1687.73 1136.2 1667 1192 1646.27 1136.2 1588 1146 1625.55 1100Z" fill="#001A81" fill-rule="evenodd"/><path d="M1077 1172.5 1132.72 1155.9 1105.12 1104.97 1156.32 1132.43 1173 1077 1189.68 1132.43 1240.88 1104.97 1213.28 1155.9 1269 1172.5 1213.28 1189.1 1240.88 1240.03 1189.68 1212.57 1173 1268 1156.32 1212.57 1105.12 1240.03 1132.72 1189.1Z" fill="#001A81" fill-rule="evenodd"/><path d="M1335 920.978 1389.06 886.982 1354.81 832.415 1414.55 854.351 1435 793 1455.45 854.351 1515.19 832.415 1480.94 886.982 1535 920.978 1471.84 927.671 1479.5 992.001 1435 945.78 1390.5 992.001 1398.16 927.671Z" fill="#001A81" fill-rule="evenodd"/><path d="M1481 1267.34 1519.94 1263.18 1536 1228 1552.06 1263.18 1591 1267.34 1561.98 1293.25 1569.99 1331 1536 1311.83 1502.01 1331 1510.02 1293.25Z" fill="#001A81" fill-rule="evenodd"/><path d="M1435.52 1487 1452.11 1550.21 1506.72 1512.59 1479.67 1572.73 1545 1579.38 1486.82 1606.25 1532.75 1654.61 1469.21 1638.49 1473.03 1704 1435.27 1650.26 1397.75 1703.74 1401.58 1638.23 1338.8 1654.36 1384.74 1607.27 1324 1579.63 1390.35 1573.49 1364.07 1514.13 1417.15 1550.46 1435.52 1487Z" fill="#001A81" fill-rule="evenodd"/></g></svg>
