<svg width="2338" height="1169" xmlns="http://www.w3.org/2000/svg" xmlns:xlink="http://www.w3.org/1999/xlink" xml:space="preserve" overflow="hidden"><defs><clipPath id="clip0"><rect x="1031" y="653" width="2338" height="1169"/></clipPath></defs><g clip-path="url(#clip0)" transform="translate(-1031 -653)"><rect x="1810" y="653" width="1559" height="1169" fill="#73182C"/><path d="M2191 1237.5C2191 1011.89 2373.67 829 2599 829 2824.33 829 3007 1011.89 3007 1237.5 3007 1463.11 2824.33 1646 2599 1646 2373.67 1646 2191 1463.11 2191 1237.5Z" fill="#FFD526" fill-rule="evenodd"/><rect x="0" y="0" width="779" height="1169" fill="#FFD526" transform="matrix(-1 1.22465e-16 1.22465e-16 1 1810 653)"/><path d="M141.78 29.2526C120.906-8.30901 66.8207-10.3222 45.0948 26.8368 23.369 63.9958-20.8831 226.265 11.425 252.207 43.733 278.149 73.4165 278.219 89.8204 312.046 106.944 281.876 132.008 289.108 170.338 252.207 208.668 215.305 162.654 66.8143 141.78 29.2526Z" stroke="#ED51D7" stroke-width="6.875" stroke-miterlimit="8" fill="#F494E6" fill-rule="evenodd" transform="matrix(-0.720192 -0.693775 -0.693775 0.720192 2641.33 1332.67)"/><path d="M2679.15 1248.58C2638.06 1236.01 2597.71 1272.08 2607.85 1313.92 2617.98 1355.75 2698.69 1503.32 2739.95 1499.59 2781.22 1495.85 2802.65 1475.31 2837.93 1488.29 2829.33 1454.68 2852.4 1442.5 2854.4 1389.34 2856.41 1336.17 2720.25 1261.15 2679.15 1248.58Z" stroke="#ED51D7" stroke-width="6.875" stroke-miterlimit="8" fill="#F494E6" fill-rule="evenodd"/><path d="M2532.5 1099.23C2532.25 1044.4 2569.38 890.5 2597.37 890.5 2625.37 890.5 2667.74 1044.42 2666.47 1101.56 2665.2 1158.71 2621.23 1219.89 2598.9 1219.5 2576.57 1219.11 2532.76 1154.06 2532.5 1099.23Z" stroke="#ED51D7" stroke-width="6.875" stroke-miterlimit="8" fill="#F494E6" fill-rule="evenodd"/><path d="M112.401 11.3674C91.6531 1.75938 81.6285-2.0295 58.4006 12.7644 35.1726 27.5583-7.6193 140.716 1.17212 194.826 9.96353 248.937 75.995 327.004 111.149 337.426 146.304 347.848 165.944 279.941 221.727 296.374 277.51 312.807 264.796 208.405 256.58 161.595 248.364 114.785 196.46 40.5524 172.43 15.5144 148.4-9.52353 132.758 0.825925 112.401 11.3674Z" stroke="#ED51D7" stroke-width="6.875" stroke-miterlimit="8" fill="#F494E6" fill-rule="evenodd" transform="matrix(-0.5 0.866025 0.866025 0.5 2334.42 970.452)"/><path d="M2910.02 1069.15C2907.97 1046.38 2906.23 1035.8 2881.81 1023.08 2857.38 1010.36 2737.99 1029.88 2695.52 1064.55 2653.06 1099.22 2618.47 1195.44 2627.02 1231.1 2635.57 1266.75 2704.2 1249.81 2717.86 1306.33 2731.52 1362.86 2815.58 1299.65 2852.01 1269.13 2888.44 1238.61 2926.77 1156.54 2936.44 1123.21 2946.11 1089.88 2929.33 1081.51 2910.02 1069.15Z" stroke="#ED51D7" stroke-width="6.875" stroke-miterlimit="8" fill="#F494E6" fill-rule="evenodd"/><path d="M2595.61 1574.73C2612.04 1583.73 2683.76 1588.7 2690.67 1553.62 2697.57 1518.54 2660.01 1396.06 2637.06 1364.26 2614.12 1332.47 2574.41 1330.54 2553 1362.85 2531.58 1395.16 2501.46 1522.8 2508.56 1558.12 2515.66 1593.43 2579.49 1584.6 2595.61 1574.73Z" stroke="#ED51D7" stroke-width="6.875" stroke-miterlimit="8" fill="#F494E6" fill-rule="evenodd"/><path d="M2529.57 1278.71C2542.98 1242.97 2561.54 1194.04 2599.13 1194.5 2636.72 1194.96 2648.92 1233.97 2668.69 1278.71 2688.47 1323.45 2668.41 1333.17 2633.91 1339.31 2599.41 1345.44 2609.88 1346.98 2564.35 1339.31 2518.81 1331.64 2516.15 1314.45 2529.57 1278.71Z" stroke="#C915AF" stroke-width="4.58333" stroke-miterlimit="8" fill="#ED51D7" fill-rule="evenodd"/><path d="M2515.88 1222.42 2311.91 1090.88 2527.81 1201.75Z" fill="#F2F2F2" fill-rule="evenodd"/><path d="M0 242.412 11.9318 0 23.8636 242.412Z" fill="#F2F2F2" fill-rule="evenodd" transform="matrix(-0.5 -0.866025 -0.866025 0.5 2897.62 1097.56)"/><path d="M0 151 11.5 0 23 151Z" fill="#F2F2F2" fill-rule="evenodd" transform="matrix(1 -1.22465e-16 -1.22465e-16 -1 2585 1547)"/><path d="M2542.33 1277.12C2553.39 1247.57 2568.7 1207.12 2599.7 1207.5 2630.69 1207.88 2640.75 1240.13 2657.06 1277.12 2673.37 1314.1 2656.83 1322.13 2628.38 1327.21 2599.93 1332.28 2608.56 1333.55 2571.01 1327.21 2533.46 1320.87 2531.26 1306.66 2542.33 1277.12Z" stroke="#A337AB" stroke-width="4.58333" stroke-miterlimit="8" fill="#A337AB" fill-rule="evenodd"/><path d="M2575 1275.5C2575 1267.49 2585.07 1261 2597.5 1261 2609.93 1261 2620 1267.49 2620 1275.5 2620 1283.51 2609.93 1290 2597.5 1290 2585.07 1290 2575 1283.51 2575 1275.5Z" fill="#FED894" fill-rule="evenodd"/><path d="M1077 1172.5 1132.72 1155.9 1105.12 1104.97 1156.32 1132.43 1173 1077 1189.68 1132.43 1240.88 1104.97 1213.28 1155.9 1269 1172.5 1213.28 1189.1 1240.88 1240.03 1189.68 1212.57 1173 1268 1156.32 1212.57 1105.12 1240.03 1132.72 1189.1Z" fill="#73182C" fill-rule="evenodd"/><path d="M1335 920.978 1389.06 886.982 1354.81 832.415 1414.55 854.351 1435 793 1455.45 854.351 1515.19 832.415 1480.94 886.982 1535 920.978 1471.84 927.671 1479.5 992.001 1435 945.78 1390.5 992.001 1398.16 927.671Z" fill="#73182C" fill-rule="evenodd"/><path d="M1481 1267.34 1519.94 1263.18 1536 1228 1552.06 1263.18 1591 1267.34 1561.98 1293.25 1569.99 1331 1536 1311.83 1502.01 1331 1510.02 1293.25Z" fill="#73182C" fill-rule="evenodd"/><path d="M1563 1127.98 1617.33 1093.98 1582.91 1039.41 1642.95 1061.35 1663.5 1000 1684.05 1061.35 1744.09 1039.41 1709.67 1093.98 1764 1127.98 1700.53 1134.67 1708.23 1199 1663.5 1152.78 1618.77 1199 1626.47 1134.67Z" fill="#73182C" fill-rule="evenodd"/><path d="M1344 1595.5 1399.43 1578.9 1371.97 1527.97 1422.9 1555.43 1439.5 1500 1456.1 1555.43 1507.03 1527.97 1479.57 1578.9 1535 1595.5 1479.57 1612.1 1507.03 1663.03 1456.1 1635.57 1439.5 1691 1422.9 1635.57 1371.97 1663.03 1399.43 1612.1Z" fill="#73182C" fill-rule="evenodd"/></g></svg>