<svg width="2338" height="1169" xmlns="http://www.w3.org/2000/svg" xmlns:xlink="http://www.w3.org/1999/xlink" xml:space="preserve" overflow="hidden"><defs><clipPath id="clip0"><rect x="1031" y="653" width="2338" height="1169"/></clipPath></defs><g clip-path="url(#clip0)" transform="translate(-1031 -653)"><rect x="1810" y="653" width="1559" height="1169" fill="#D40032"/><path d="M2191 1237.5C2191 1011.89 2373.67 829 2599 829 2824.33 829 3007 1011.89 3007 1237.5 3007 1463.11 2824.33 1646 2599 1646 2373.67 1646 2191 1463.11 2191 1237.5Z" fill="#FFA400" fill-rule="evenodd"/><rect x="0" y="0" width="779" height="1169" fill="#FFA400" transform="matrix(-1 1.22465e-16 1.22465e-16 1 1810 653)"/><path d="M119.088-0.0227654C119.088 88.6409 155.726 252.257 147.666 445.316 112.563 361.644 56.8675 283.801 0.0251835 219.676 51.7583 295.873 114.691 376.717 146.543 467.789 146.144 474.487 145.696 481.215 145.181 487.977L159.151 487.977C158.817 467.428 160.262 453.507 161.726 436.072 190.847 336.868 257.585 252.512 313.026 170.852 253.904 237.55 196.075 319.095 161.325 406.599 163.451 268.052 134.081 62.6897 119.088-0.0227654Z" stroke="#1F5529" stroke-width="6.875" stroke-miterlimit="8" fill="#297036" fill-rule="evenodd" transform="matrix(-1 1.22465e-16 1.22465e-16 1 2738.5 1116.5)"/><path d="M10.376 98.8131C28.0901 97.1164 19.628 9.46722 8.41841-0.0239926-2.02278 21.7588-4.03387 100.194 10.376 98.8131Z" stroke="#1F5529" stroke-width="6.875" stroke-miterlimit="8" fill="#297036" fill-rule="evenodd" transform="matrix(-0.944173 0.32945 0.32945 0.944173 2618.35 1371.51)"/><path d="M2641.78 1469.52C2642.37 1487.47 2731.17 1484.48 2741.44 1473.79 2720.16 1461.9 2641.3 1454.92 2641.78 1469.52Z" stroke="#1F5529" stroke-width="6.875" stroke-miterlimit="8" fill="#297036" fill-rule="evenodd"/><path d="M2680.01 1414.27C2679.97 1430.8 2761.78 1430.92 2771.58 1421.42 2752.38 1409.79 2680.04 1400.82 2680.01 1414.27Z" stroke="#1F5529" stroke-width="6.875" stroke-miterlimit="8" fill="#297036" fill-rule="evenodd"/><path d="M14.6743 85.2547C29.8217 81.9788 13.5565 7.03781 2.89266-0.0264533-3.91388 19.8781 2.35251 87.9191 14.6743 85.2547Z" stroke="#1F5529" stroke-width="6.875" stroke-miterlimit="8" fill="#297036" fill-rule="evenodd" transform="matrix(-0.922921 0.384989 0.384989 0.922921 2659.96 1327.72)"/><path d="M10.5973 100.981C28.6986 99.2473 20.0515 9.68376 8.59729-0.0147646-2.07196 22.2435-4.1267 102.392 10.5973 100.981Z" stroke="#1F5529" stroke-width="6.875" stroke-miterlimit="8" fill="#297036" fill-rule="evenodd" transform="matrix(-0.996558 0.0829007 0.0829007 0.996558 2609.84 1432.83)"/><path d="M2606.99 1535.39C2607.6 1553.96 2699.52 1550.87 2710.15 1539.8 2688.12 1527.5 2606.49 1520.28 2606.99 1535.39Z" stroke="#1F5529" stroke-width="6.875" stroke-miterlimit="8" fill="#297036" fill-rule="evenodd"/><path d="M2705.29 1376.28C2721.46 1387.05 2762.65 1308.71 2758.81 1294.73 2738.17 1306.64 2689.12 1365.52 2705.29 1376.28Z" stroke="#1F5529" stroke-width="6.875" stroke-miterlimit="8" fill="#297036" fill-rule="evenodd"/><path d="M2521.73 1419.39C2539.02 1423.63 2559.9 1338.08 2552.44 1325.43 2535.41 1342.56 2507.67 1415.95 2521.73 1419.39Z" stroke="#1F5529" stroke-width="6.875" stroke-miterlimit="8" fill="#297036" fill-rule="evenodd"/><path d="M10.4466 99.7094C28.3216 97.9974 19.7827 9.55397 8.4712-0.0233774-2.06459 21.9569-4.09349 101.102 10.4466 99.7094Z" stroke="#1F5529" stroke-width="6.875" stroke-miterlimit="8" fill="#297036" fill-rule="evenodd" transform="matrix(0.0625609 0.998041 0.998041 -0.0625609 2420.9 1416.48)"/><path d="M9.61795 91.7987C26.0769 90.2219 18.2147 8.78682 7.79943-0.0313749-1.90157 20.2073-3.76991 93.0814 9.61795 91.7987Z" stroke="#1F5529" stroke-width="6.875" stroke-miterlimit="8" fill="#297036" fill-rule="evenodd" transform="matrix(0.0975849 0.995227 0.995227 -0.0975849 2390.53 1364.79)"/><path d="M2483.59 1363.21C2498.83 1366.02 2512.67 1290.6 2505.55 1279.97 2491.6 1295.72 2471.19 1360.93 2483.59 1363.21Z" stroke="#1F5529" stroke-width="6.875" stroke-miterlimit="8" fill="#297036" fill-rule="evenodd"/><path d="M2555.19 1485.51C2573.37 1485.29 2572.18 1395.31 2561.57 1384.7 2549.09 1406 2540.4 1485.7 2555.19 1485.51Z" stroke="#1F5529" stroke-width="6.875" stroke-miterlimit="8" fill="#297036" fill-rule="evenodd"/><path d="M10.8163 103.22C29.3187 101.448 20.4797 9.89965 8.77139-0.0135342-2.1341 22.7381-4.23436 104.662 10.8163 103.22Z" stroke="#1F5529" stroke-width="6.875" stroke-miterlimit="8" fill="#297036" fill-rule="evenodd" transform="matrix(0.0625609 0.998041 0.998041 -0.0625609 2452.16 1482.21)"/><path d="M12.2486 97.4851C31.6746 97.2261 21.3787 9.32205 10.3175-0.0436789 0.0141495 21.4506-7.17626 97.7447 12.2486 97.4851Z" stroke="#1F5529" stroke-width="6.875" stroke-miterlimit="8" fill="#297036" fill-rule="evenodd" transform="matrix(-0.824982 0.565159 0.565159 0.824982 2412.6 1240.08)"/><path d="M2624.49 893.073C2619.23 973.69 2604.02 967.746 2597.81 1066.22 2590.55 1181.12 2622.2 1183.23 2642.65 1248.97 2658.93 1174.29 2671.43 1199.36 2675.13 1081.66 2678.27 981.86 2643.86 976.788 2624.49 893.073Z" stroke="#9D160F" stroke-width="6.875" stroke-miterlimit="8" fill="#C31912" fill-rule="evenodd"/><path d="M37.8549-0.0332205C-38.9118 162.964 9.46172 365.923 109.363 413.245 51.5258 272.331 95.1192 313.751 76.7642 212.389 57.1684 104.181 25.2354 209.234 37.8549-0.0332205Z" stroke="#9D160F" stroke-width="6.875" stroke-miterlimit="8" fill="#C31912" fill-rule="evenodd" transform="matrix(-0.995252 0.0973348 0.0973348 0.995252 2592.95 880.891)"/><path d="M2766.46 904.977C2637.54 1030.84 2611.9 1237.91 2688.95 1317.17 2684.03 1164.93 2710.39 1218.98 2728.64 1117.6 2748.11 1009.37 2681.46 1096.62 2766.46 904.977Z" stroke="#9D160F" stroke-width="6.875" stroke-miterlimit="8" fill="#C31912" fill-rule="evenodd"/><path d="M1.98646-0.0344509C10.9252 91.9807-7.3411 88.0755 3.82712 200.426 16.8581 331.52 52.9891 328.064 88.2175 398.52 92.8186 311.187 111.559 337.182 94.001 203.581 79.1139 90.3 39.3182 90.9287 1.98646-0.0344509Z" stroke="#9D160F" stroke-width="6.875" stroke-miterlimit="8" fill="#C31912" fill-rule="evenodd" transform="matrix(-0.995463 0.0951491 0.0951491 0.995463 2677.22 904.786)"/><path d="M32.4594 0.313749C14.828 3.33251-5.96307 32.5142 1.7816 61.4154 9.52565 90.3166 35.6935 96.276 50.225 93.2382 64.7565 90.2004 81.2436 75.8811 83.2455 53.3687 85.2467 30.8569 56.9939-3.88557 32.4594 0.313749Z" stroke="#000000" stroke-width="6.875" stroke-miterlimit="8" fill="#262626" fill-rule="evenodd" transform="matrix(-0.995463 0.0951491 0.0951491 0.995463 2687.8 1072.47)"/><path d="M2736.19 1087.5C2716.92 1091.66 2695.96 1148.66 2712.47 1180.13 2716.52 1190.22 2758.92 1165.78 2762.87 1150.44 2766.83 1135.1 2765.54 1104.72 2736.19 1087.5Z" stroke="#000000" stroke-width="6.875" stroke-miterlimit="8" fill="#262626" fill-rule="evenodd"/><path d="M27.1796 0C9.53517 3.86906-9.64649 56.9302 5.464 86.2246 9.1737 95.6208 47.9911 72.8671 51.6102 58.5883 55.2293 44.3096 54.0535 16.0287 27.1796 0Z" stroke="#000000" stroke-width="6.875" stroke-miterlimit="8" fill="#262626" fill-rule="evenodd" transform="matrix(-0.952024 -0.306025 -0.306025 0.952024 2570.8 1074.95)"/><path d="M1588 1054 1646.27 1063.8 1667 1008 1687.73 1063.8 1746 1054 1708.45 1100 1746 1146 1687.73 1136.2 1667 1192 1646.27 1136.2 1588 1146 1625.55 1100Z" fill="#002854" fill-rule="evenodd"/><path d="M1077 1172.5 1132.72 1155.9 1105.12 1104.97 1156.32 1132.43 1173 1077 1189.68 1132.43 1240.88 1104.97 1213.28 1155.9 1269 1172.5 1213.28 1189.1 1240.88 1240.03 1189.68 1212.57 1173 1268 1156.32 1212.57 1105.12 1240.03 1132.72 1189.1Z" fill="#002854" fill-rule="evenodd"/><path d="M1335 920.978 1389.06 886.982 1354.81 832.415 1414.55 854.351 1435 793 1455.45 854.351 1515.19 832.415 1480.94 886.982 1535 920.978 1471.84 927.671 1479.5 992.001 1435 945.78 1390.5 992.001 1398.16 927.671Z" fill="#002854" fill-rule="evenodd"/><path d="M1481 1267.34 1519.94 1263.18 1536 1228 1552.06 1263.18 1591 1267.34 1561.98 1293.25 1569.99 1331 1536 1311.83 1502.01 1331 1510.02 1293.25Z" fill="#002854" fill-rule="evenodd"/><path d="M1335 1584.5 1390.43 1567.9 1362.97 1516.97 1413.9 1544.43 1430.5 1489 1447.1 1544.43 1498.03 1516.97 1470.57 1567.9 1526 1584.5 1470.57 1601.1 1498.03 1652.03 1447.1 1624.57 1430.5 1680 1413.9 1624.57 1362.97 1652.03 1390.43 1601.1Z" fill="#002854" fill-rule="evenodd"/></g></svg>