<svg width="2338" height="1169" xmlns="http://www.w3.org/2000/svg" xmlns:xlink="http://www.w3.org/1999/xlink" xml:space="preserve" overflow="hidden"><defs><clipPath id="clip0"><rect x="1031" y="653" width="2338" height="1169"/></clipPath></defs><g clip-path="url(#clip0)" transform="translate(-1031 -653)"><rect x="1810" y="653" width="1559" height="1169" fill="#006747"/><path d="M2191 1237.5C2191 1011.89 2373.67 829 2599 829 2824.33 829 3007 1011.89 3007 1237.5 3007 1463.11 2824.33 1646 2599 1646 2373.67 1646 2191 1463.11 2191 1237.5Z" fill="#F2F2F2" fill-rule="evenodd"/><rect x="0" y="0" width="779" height="1169" fill="#F2F2F2" transform="matrix(-1 1.22465e-16 1.22465e-16 1 1810 653)"/><path d="M2581.18 1159.56C2571 1161.74 2557.15 1170.2 2547.29 1181.85 2537.43 1193.51 2529.72 1204.77 2522.02 1229.5 2514.33 1254.24 2502.07 1292.08 2501.1 1330.26 2500.14 1368.43 2505.93 1418.66 2516.25 1458.56 2526.57 1498.46 2545.25 1542.62 2563.03 1569.68 2580.81 1596.74 2613.01 1613.58 2622.95 1620.92 2632.89 1628.26 2626.62 1618.74 2622.66 1613.72 2618.71 1608.7 2607.57 1605.83 2599.21 1590.8 2590.84 1575.76 2580.68 1550.57 2572.48 1523.51 2564.29 1496.46 2553 1461.64 2550.04 1428.48 2547.07 1395.31 2549.17 1355.23 2554.7 1324.53 2560.23 1293.83 2576.96 1268.5 2583.22 1244.28 2589.47 1220.06 2590.49 1204 2590.06 1190.18 2589.63 1176.35 2588.82 1171.46 2581.18 1159.56Z" stroke="#5C7E6F" stroke-width="4.58333" stroke-miterlimit="8" fill="#769A8B" fill-rule="evenodd"/><path d="M2659.17 991.825C2651.88 983.435 2636.87 974.858 2620.99 971.69 2605.1 968.523 2590.69 967.161 2563.84 972.818 2536.99 978.476 2495.65 986.68 2459.87 1005.64 2424.08 1024.59 2380.67 1056.13 2349.15 1086.55 2317.62 1116.97 2286.5 1157.42 2270.72 1188.15 2254.94 1218.87 2256.08 1257.78 2254.45 1270.9 2252.83 1284.03 2258.38 1273.21 2260.96 1266.89 2263.55 1260.57 2260.42 1248.65 2269.98 1233 2279.53 1217.35 2297.54 1194.73 2318.29 1172.98 2339.04 1151.24 2365.37 1122.56 2394.48 1102.54 2423.59 1082.52 2461.73 1063.63 2492.97 1052.84 2524.21 1042.05 2556.3 1044.54 2581.93 1037.8 2607.56 1031.06 2622.94 1023.66 2635.49 1016.07 2648.04 1008.47 2652.14 1005.18 2659.17 991.825Z" stroke="#5C7E6F" stroke-width="4.58333" stroke-miterlimit="8" fill="#769A8B" fill-rule="evenodd"/><path d="M27.7 0C20.6161 3.97968 12.2589 13.4514 7.64247 24.3558 3.02609 35.2602-0.0780891 45.3685 0.00149159 65.4262 0.0810723 85.4838 5.55188 101.977 8.11996 144.702 10.688 187.426 8.9627 324.56 15.4098 321.774 21.8569 318.988 41.1723 171.269 46.8023 127.987 43.6982 104.029 50.2248 81.4246 49.1901 62.0832 48.1554 42.7419 45.1309 30.6437 41.5492 20.5352 37.9676 10.4268 36.2164 7.0043 27.7 0Z" stroke="#5C7E6F" stroke-width="4.58333" stroke-miterlimit="8" fill="#769A8B" fill-rule="evenodd" transform="matrix(-0.819567 0.572984 0.572984 0.819567 2651.16 1150.48)"/><path d="M2693.35 1014.89C2710.07 1032.8 2761.05 1101.39 2779.58 1136.88 2798.1 1172.38 2786.74 1199.15 2804.49 1227.86 2822.25 1256.58 2875.31 1296.48 2886.11 1309.18 2896.91 1321.87 2885.42 1312.9 2869.3 1304.03 2853.18 1295.17 2811.88 1280.97 2789.38 1256 2766.88 1231.02 2750.98 1182.77 2734.31 1154.16 2717.64 1125.56 2698.53 1105.15 2689.35 1084.37 2680.17 1063.59 2678.57 1041.05 2679.24 1029.47 2679.9 1017.89 2676.62 996.99 2693.35 1014.89Z" stroke="#5C7E6F" stroke-width="4.58333" stroke-miterlimit="8" fill="#769A8B" fill-rule="evenodd"/><path d="M2686.02 905.724 2660.4 979.805 2628.38 1047.05 2594.46 1116.21 2538.35 1190.3 2474.28 1244.79 2455.01 1264.75 2463.87 1265.53 2481.11 1246.02 2520.66 1223.03 2531.86 1220.11 2589.54 1151.17 2605.55 1115.64 2608.03 1143.88C2615.39 1155.72 2622.76 1167.55 2630.12 1179.39L2636.28 1175.69 2632.35 1166.62 2611.17 1146.57 2614.06 1096.81 2668.92 999.075 2673.62 972.628 2677.33 1001.65 2685.18 1023.61 2685.4 1011.28 2679.55 973.633 2685.71 947.073 2704.62 899.889 2685.45 883.201 2686.02 905.724Z" stroke="#828658" stroke-width="4.58333" stroke-miterlimit="8" fill="#989D6B" fill-rule="evenodd"/><path d="M2408.73 1260.27C2411.8 1251.64 2454.31 1238.88 2461.64 1247.08 2468.96 1255.27 2461.35 1282.69 2443.24 1298.88 2434.9 1300.55 2405.67 1268.9 2408.73 1260.27Z" stroke="#828658" stroke-width="4.58333" stroke-miterlimit="8" fill="#989D6B" fill-rule="evenodd"/><path d="M2626.32 1092.41C2621.28 1084.76 2636.71 1043.14 2647.67 1042.23 2658.63 1041.33 2675.92 1063.92 2677.93 1088.13 2674.23 1095.79 2631.37 1100.06 2626.32 1092.41Z" stroke="#828658" stroke-width="4.58333" stroke-miterlimit="8" fill="#989D6B" fill-rule="evenodd"/><path d="M2561.53 1063.13C2568.85 1057.63 2611.34 1070.44 2612.93 1081.32 2614.52 1092.2 2593.04 1110.87 2569 1114.37 2561.13 1111.16 2554.21 1068.64 2561.53 1063.13Z" stroke="#828658" stroke-width="4.58333" stroke-miterlimit="8" fill="#989D6B" fill-rule="evenodd"/><path d="M2494.48 1179.93C2503.64 1180.24 2528.64 1216.92 2523.03 1226.38 2517.43 1235.84 2489 1236.86 2468.1 1224.48 2463.99 1217.04 2485.32 1179.61 2494.48 1179.93Z" stroke="#828658" stroke-width="4.58333" stroke-miterlimit="8" fill="#989D6B" fill-rule="evenodd"/><path d="M2523.56 1172.19 2551.97 1164.82 2522.57 1163.47 2551.92 1162.06 2523.23 1154.76 2552.38 1159.36 2525.5 1146.38 2553.34 1156.81 2529.3 1138.65 2554.77 1154.52 2534.49 1131.88 2556.59 1152.57 2540.87 1126.32 2558.76 1151.04 2548.18 1122.18 2561.18 1149.98 2556.16 1119.63 2563.75 1149.44 2564.48 1118.76 2566.39 1149.43 2572.84 1119.61 2568.99 1149.97 2580.91 1122.14 2571.45 1151.02 2588.39 1126.26 2573.67 1152.55 2594.98 1131.81 2575.57 1154.49 2600.43 1138.57 2577.08 1156.78 2604.53 1146.28 2578.14 1159.33 2607.12 1154.66 2578.71 1162.03 2608.11 1163.37 2578.76 1164.78 2607.46 1172.08 2578.3 1167.49 2605.18 1180.47 2577.34 1170.03 2601.38 1188.19 2575.92 1172.33 2596.19 1194.97 2574.09 1174.28 2589.82 1200.53 2571.92 1175.81 2582.5 1204.67 2569.51 1176.87 2574.53 1207.22 2566.93 1177.41 2566.2 1208.08 2564.29 1177.41 2557.84 1207.24 2561.69 1176.88 2549.77 1204.7 2559.24 1175.82 2542.29 1200.59 2557.01 1174.3 2535.71 1195.04 2555.11 1172.35 2530.26 1188.28 2553.6 1170.06 2526.16 1180.56 2552.54 1167.52Z" fill="#F4EFCC" fill-rule="evenodd"/><path d="M2527.28 1183.01 2542.56 1172.05 2523.89 1174.92 2541.08 1167.31 2522.09 1166.37 2540.52 1162.41 2521.93 1157.68 2540.9 1157.53 2523.42 1149.2 2542.21 1152.86 2526.51 1141.25 2544.39 1148.57 2531.08 1134.13 2547.35 1144.83 2536.95 1128.11 2551 1141.79 2543.89 1123.44 2555.18 1139.57 2551.65 1120.28 2559.73 1138.24 2559.91 1118.76 2564.49 1137.85 2568.37 1118.93 2569.26 1138.43 2576.7 1120.8 2573.87 1139.96 2584.57 1124.29 2578.13 1142.36 2591.69 1129.26 2581.89 1145.56 2597.78 1135.52 2585 1149.42 2602.62 1142.84 2587.33 1153.8 2606 1150.93 2588.81 1158.53 2607.8 1159.48 2589.37 1163.43 2607.96 1168.16 2588.99 1168.31 2606.47 1176.64 2587.68 1172.99 2603.38 1184.6 2585.51 1177.28 2598.81 1191.72 2582.54 1181.01 2592.94 1197.73 2578.89 1184.05 2586 1202.41 2574.71 1186.28 2578.24 1205.57 2570.16 1187.61 2569.98 1207.09 2565.4 1187.99 2561.52 1206.91 2560.63 1187.41 2553.2 1205.04 2556.02 1185.89 2545.32 1201.56 2551.76 1183.48 2538.2 1196.59 2548 1180.29 2532.11 1190.32 2544.89 1176.43Z" fill="#F4EFCC" fill-rule="evenodd"/><path d="M2542.76 1168.16C2540.01 1155.07 2547.9 1142.34 2560.37 1139.72 2572.84 1137.1 2585.18 1145.6 2587.93 1158.69 2590.67 1171.78 2582.79 1184.51 2570.31 1187.12 2557.84 1189.74 2545.5 1181.25 2542.76 1168.16Z" fill="#BDB491" fill-rule="evenodd"/><path d="M2554.53 1124.5C2554.22 1123.03 2555.1 1121.59 2556.51 1121.3 2557.91 1121.01 2559.29 1121.96 2559.6 1123.43 2559.91 1124.9 2559.02 1126.33 2557.62 1126.63 2556.22 1126.92 2554.84 1125.97 2554.53 1124.5Z" fill="#FFCD00" fill-rule="evenodd"/><path d="M2562.28 1123.71C2561.98 1122.24 2562.86 1120.81 2564.26 1120.52 2565.67 1120.23 2567.05 1121.18 2567.36 1122.65 2567.67 1124.12 2566.78 1125.55 2565.38 1125.85 2563.98 1126.14 2562.59 1125.19 2562.28 1123.71Z" fill="#FFCD00" fill-rule="evenodd"/><path d="M2570.06 1124.58C2569.76 1123.11 2570.64 1121.68 2572.04 1121.39 2573.45 1121.09 2574.83 1122.05 2575.14 1123.52 2575.45 1124.99 2574.56 1126.42 2573.16 1126.72 2571.76 1127.01 2570.37 1126.06 2570.06 1124.58Z" fill="#FFCD00" fill-rule="evenodd"/><path d="M2577.55 1127.07C2577.24 1125.6 2578.13 1124.17 2579.53 1123.87 2580.93 1123.58 2582.31 1124.53 2582.62 1126.01 2582.93 1127.48 2582.05 1128.91 2580.64 1129.2 2579.24 1129.49 2577.86 1128.54 2577.55 1127.07Z" fill="#FFCD00" fill-rule="evenodd"/><path d="M2584.43 1131.07C2584.12 1129.6 2585.01 1128.17 2586.41 1127.87 2587.81 1127.58 2589.2 1128.53 2589.5 1130.01 2589.81 1131.48 2588.93 1132.91 2587.53 1133.2 2586.12 1133.49 2584.74 1132.54 2584.43 1131.07Z" fill="#FFCD00" fill-rule="evenodd"/><path d="M2590.43 1136.42C2590.12 1134.95 2591 1133.52 2592.4 1133.22 2593.81 1132.93 2595.19 1133.89 2595.5 1135.36 2595.81 1136.83 2594.92 1138.26 2593.52 1138.55 2592.12 1138.85 2590.73 1137.89 2590.43 1136.42Z" fill="#FFCD00" fill-rule="evenodd"/><path d="M2595.29 1142.9C2594.98 1141.43 2595.87 1140 2597.27 1139.71 2598.67 1139.41 2600.06 1140.37 2600.37 1141.84 2600.68 1143.31 2599.79 1144.74 2598.39 1145.03 2596.99 1145.33 2595.6 1144.37 2595.29 1142.9Z" fill="#FFCD00" fill-rule="evenodd"/><path d="M2598.83 1150.25C2598.52 1148.78 2599.41 1147.35 2600.81 1147.05 2602.21 1146.76 2603.6 1147.71 2603.9 1149.19 2604.21 1150.66 2603.33 1152.09 2601.92 1152.38 2600.52 1152.68 2599.14 1151.72 2598.83 1150.25Z" fill="#FFCD00" fill-rule="evenodd"/><path d="M2600.89 1158.16C2600.58 1156.69 2601.47 1155.26 2602.87 1154.97 2604.27 1154.67 2605.66 1155.63 2605.97 1157.1 2606.28 1158.57 2605.39 1160 2603.99 1160.29 2602.59 1160.59 2601.2 1159.63 2600.89 1158.16Z" fill="#FFCD00" fill-rule="evenodd"/><path d="M2601.4 1166.32C2601.09 1164.85 2601.97 1163.42 2603.38 1163.12 2604.78 1162.83 2606.16 1163.78 2606.47 1165.25 2606.78 1166.72 2605.89 1168.15 2604.49 1168.45 2603.09 1168.74 2601.71 1167.79 2601.4 1166.32Z" fill="#FFCD00" fill-rule="evenodd"/><path d="M2600.32 1174.38C2600.01 1172.91 2600.9 1171.48 2602.3 1171.18 2603.7 1170.89 2605.09 1171.84 2605.4 1173.31 2605.71 1174.79 2604.82 1176.22 2603.42 1176.51 2602.02 1176.8 2600.63 1175.85 2600.32 1174.38Z" fill="#FFCD00" fill-rule="evenodd"/><path d="M2597.71 1182.02C2597.4 1180.55 2598.29 1179.12 2599.69 1178.82 2601.09 1178.53 2602.48 1179.48 2602.79 1180.95 2603.1 1182.43 2602.21 1183.86 2600.81 1184.15 2599.41 1184.44 2598.02 1183.49 2597.71 1182.02Z" fill="#FFCD00" fill-rule="evenodd"/><path d="M2593.67 1188.92C2593.37 1187.45 2594.25 1186.02 2595.65 1185.73 2597.06 1185.43 2598.44 1186.39 2598.75 1187.86 2599.06 1189.33 2598.17 1190.76 2596.77 1191.05 2595.37 1191.35 2593.98 1190.39 2593.67 1188.92Z" fill="#FFCD00" fill-rule="evenodd"/><path d="M2588.37 1194.81C2588.07 1193.34 2588.95 1191.91 2590.35 1191.61 2591.75 1191.32 2593.14 1192.27 2593.45 1193.74 2593.76 1195.21 2592.87 1196.65 2591.47 1196.94 2590.07 1197.23 2588.68 1196.28 2588.37 1194.81Z" fill="#FFCD00" fill-rule="evenodd"/><path d="M2582.03 1199.44C2581.72 1197.96 2582.6 1196.53 2584.01 1196.24 2585.41 1195.95 2586.79 1196.9 2587.1 1198.37 2587.41 1199.84 2586.52 1201.27 2585.12 1201.57 2583.72 1201.86 2582.34 1200.91 2582.03 1199.44Z" fill="#FFCD00" fill-rule="evenodd"/><path d="M2574.89 1202.61C2574.59 1201.14 2575.47 1199.71 2576.87 1199.42 2578.27 1199.12 2579.66 1200.08 2579.97 1201.55 2580.28 1203.02 2579.39 1204.45 2577.99 1204.74 2576.59 1205.04 2575.2 1204.08 2574.89 1202.61Z" fill="#FFCD00" fill-rule="evenodd"/><path d="M2567.27 1204.21C2566.96 1202.74 2567.84 1201.31 2569.25 1201.02 2570.65 1200.72 2572.03 1201.68 2572.34 1203.15 2572.65 1204.62 2571.76 1206.05 2570.36 1206.34 2568.96 1206.64 2567.58 1205.68 2567.27 1204.21Z" fill="#FFCD00" fill-rule="evenodd"/><path d="M2559.46 1204.17C2559.15 1202.7 2560.04 1201.27 2561.44 1200.97 2562.84 1200.68 2564.22 1201.63 2564.53 1203.1 2564.84 1204.58 2563.96 1206.01 2562.55 1206.3 2561.15 1206.59 2559.77 1205.64 2559.46 1204.17Z" fill="#FFCD00" fill-rule="evenodd"/><path d="M2551.79 1202.48C2551.48 1201.01 2552.36 1199.58 2553.77 1199.29 2555.17 1198.99 2556.55 1199.95 2556.86 1201.42 2557.17 1202.89 2556.28 1204.32 2554.88 1204.61 2553.48 1204.91 2552.1 1203.95 2551.79 1202.48Z" fill="#FFCD00" fill-rule="evenodd"/><path d="M2544.57 1199.22C2544.26 1197.75 2545.15 1196.32 2546.55 1196.03 2547.95 1195.73 2549.33 1196.69 2549.64 1198.16 2549.95 1199.63 2549.07 1201.06 2547.66 1201.35 2546.26 1201.65 2544.88 1200.69 2544.57 1199.22Z" fill="#FFCD00" fill-rule="evenodd"/><path d="M2538.1 1194.52C2537.79 1193.05 2538.67 1191.62 2540.08 1191.33 2541.48 1191.03 2542.86 1191.99 2543.17 1193.46 2543.48 1194.93 2542.59 1196.36 2541.19 1196.65 2539.79 1196.95 2538.4 1195.99 2538.1 1194.52Z" fill="#FFCD00" fill-rule="evenodd"/><path d="M2532.64 1188.58C2532.33 1187.11 2533.21 1185.68 2534.62 1185.38 2536.02 1185.09 2537.4 1186.04 2537.71 1187.51 2538.02 1188.98 2537.13 1190.41 2535.73 1190.71 2534.33 1191 2532.95 1190.05 2532.64 1188.58Z" fill="#FFCD00" fill-rule="evenodd"/><path d="M2528.41 1181.63C2528.1 1180.16 2528.99 1178.73 2530.39 1178.43 2531.79 1178.14 2533.18 1179.09 2533.49 1180.56 2533.8 1182.03 2532.91 1183.46 2531.51 1183.76 2530.11 1184.05 2528.72 1183.1 2528.41 1181.63Z" fill="#FFCD00" fill-rule="evenodd"/><path d="M2525.6 1173.96C2525.29 1172.49 2526.18 1171.06 2527.58 1170.76 2528.98 1170.47 2530.37 1171.42 2530.67 1172.89 2530.98 1174.36 2530.1 1175.79 2528.7 1176.09 2527.29 1176.38 2525.91 1175.43 2525.6 1173.96Z" fill="#FFCD00" fill-rule="evenodd"/><path d="M2524.31 1165.88C2524 1164.41 2524.89 1162.98 2526.29 1162.69 2527.69 1162.39 2529.07 1163.35 2529.38 1164.82 2529.69 1166.29 2528.81 1167.72 2527.4 1168.01 2526 1168.31 2524.62 1167.35 2524.31 1165.88Z" fill="#FFCD00" fill-rule="evenodd"/><path d="M2524.59 1157.73C2524.29 1156.26 2525.17 1154.83 2526.57 1154.54 2527.98 1154.24 2529.36 1155.2 2529.67 1156.67 2529.98 1158.14 2529.09 1159.57 2527.69 1159.86 2526.29 1160.16 2524.9 1159.2 2524.59 1157.73Z" fill="#FFCD00" fill-rule="evenodd"/><path d="M2526.45 1149.84C2526.14 1148.37 2527.02 1146.94 2528.42 1146.65 2529.83 1146.35 2531.21 1147.31 2531.52 1148.78 2531.83 1150.25 2530.94 1151.68 2529.54 1151.97 2528.14 1152.27 2526.75 1151.31 2526.45 1149.84Z" fill="#FFCD00" fill-rule="evenodd"/><path d="M2529.79 1142.53C2529.48 1141.06 2530.36 1139.63 2531.77 1139.34 2533.17 1139.04 2534.55 1140 2534.86 1141.47 2535.17 1142.94 2534.28 1144.37 2532.88 1144.66 2531.48 1144.96 2530.1 1144 2529.79 1142.53Z" fill="#FFCD00" fill-rule="evenodd"/><path d="M2534.48 1136.1C2534.17 1134.63 2535.06 1133.2 2536.46 1132.91 2537.86 1132.61 2539.25 1133.57 2539.56 1135.04 2539.86 1136.51 2538.98 1137.94 2537.58 1138.23 2536.18 1138.53 2534.79 1137.57 2534.48 1136.1Z" fill="#FFCD00" fill-rule="evenodd"/><path d="M2540.33 1130.82C2540.03 1129.35 2540.91 1127.92 2542.31 1127.62 2543.71 1127.33 2545.1 1128.29 2545.41 1129.76 2545.72 1131.23 2544.83 1132.66 2543.43 1132.95 2542.03 1133.25 2540.64 1132.29 2540.33 1130.82Z" fill="#FFCD00" fill-rule="evenodd"/><path d="M2547.11 1126.9C2546.8 1125.43 2547.69 1124 2549.09 1123.7 2550.49 1123.41 2551.88 1124.36 2552.18 1125.83 2552.49 1127.3 2551.61 1128.73 2550.21 1129.03 2548.8 1129.32 2547.42 1128.37 2547.11 1126.9Z" fill="#FFCD00" fill-rule="evenodd"/><path d="M2452.39 1186.99 2475.01 1193.24 2456.51 1177.31 2476.49 1190.31 2461.71 1168.44 2478.27 1187.68 2467.78 1160.72 2480.29 1185.47 2474.5 1154.45 2482.48 1183.76 2481.6 1149.87 2484.74 1182.6 2488.82 1147.14 2487 1182.05 2495.87 1146.39 2489.16 1182.13 2502.48 1147.64 2491.14 1182.83 2508.4 1150.83 2492.87 1184.13 2513.41 1155.85 2494.27 1185.97 2517.31 1162.5 2495.31 1188.3 2519.94 1170.54 2495.92 1191.01 2521.22 1179.64 2496.1 1194 2521.08 1189.46 2495.84 1197.16 2519.54 1199.63 2495.14 1200.36 2516.65 1209.74 2494.03 1203.49 2512.53 1219.42 2492.56 1206.43 2507.34 1228.29 2490.78 1209.05 2501.26 1236.01 2488.75 1211.26 2494.55 1242.28 2486.57 1212.98 2487.44 1246.87 2484.31 1214.13 2480.23 1249.59 2482.05 1214.68 2473.18 1250.34 2479.89 1214.6 2466.56 1249.1 2477.91 1213.9 2460.64 1245.9 2476.18 1212.6 2455.64 1240.88 2474.77 1210.76 2451.74 1234.23 2473.74 1208.44 2449.1 1226.2 2473.12 1205.73 2447.83 1217.09 2472.94 1202.74 2447.96 1207.27 2473.21 1199.58 2449.5 1197.11 2473.91 1196.37Z" fill="#F4EFCC" fill-rule="evenodd"/><path d="M2450.51 1195.7 2465.54 1193.57 2451.76 1185.25 2466.61 1187.76 2454.27 1175.28 2468.37 1182.34 2457.95 1166.17 2470.75 1177.5 2462.65 1158.28 2473.66 1173.44 2468.19 1151.89 2476.99 1170.3 2474.36 1147.26 2480.61 1168.22 2480.92 1144.57 2484.38 1167.27 2487.61 1143.92 2488.16 1167.49 2494.19 1145.33 2491.79 1168.86 2500.4 1148.75 2495.15 1171.34 2506 1154.05 2498.1 1174.83 2510.78 1161.03 2500.53 1179.2 2514.54 1169.41 2502.35 1184.28 2517.15 1178.88 2503.48 1189.87 2518.51 1189.07 2503.88 1195.76 2518.57 1199.59 2503.54 1201.72 2517.31 1210.04 2502.47 1207.53 2514.8 1220 2500.7 1212.95 2511.12 1229.11 2498.32 1217.79 2506.43 1237.01 2495.41 1221.85 2500.89 1243.4 2492.08 1224.98 2494.72 1248.03 2488.46 1227.07 2488.16 1250.72 2484.69 1228.02 2481.46 1251.37 2480.92 1227.8 2474.88 1249.96 2477.28 1226.43 2468.67 1246.54 2473.92 1223.94 2463.07 1241.23 2470.97 1220.45 2458.3 1234.26 2468.54 1216.08 2454.53 1225.87 2466.73 1211.01 2451.92 1216.4 2465.6 1205.42 2450.56 1206.21 2465.2 1199.53Z" fill="#F4EFCC" fill-rule="evenodd"/><path d="M2469.48 1193.04C2474.13 1179.91 2484.63 1171.64 2492.94 1174.58 2501.25 1177.53 2504.22 1190.56 2499.57 1203.69 2494.92 1216.83 2484.41 1225.09 2476.1 1222.15 2467.79 1219.21 2464.83 1206.18 2469.48 1193.04Z" fill="#BDB491" fill-rule="evenodd"/><path d="M2498.75 1151.97C2499.35 1150.26 2500.72 1149.19 2501.8 1149.57 2502.87 1149.95 2503.26 1151.64 2502.66 1153.35 2502.05 1155.05 2500.69 1156.12 2499.61 1155.74 2498.53 1155.36 2498.15 1153.67 2498.75 1151.97Z" fill="#FFCD00" fill-rule="evenodd"/><path d="M2504.26 1154.97C2504.86 1153.27 2506.22 1152.19 2507.3 1152.58 2508.38 1152.96 2508.76 1154.65 2508.16 1156.35 2507.56 1158.06 2506.19 1159.13 2505.11 1158.75 2504.04 1158.37 2503.65 1156.67 2504.26 1154.97Z" fill="#FFCD00" fill-rule="evenodd"/><path d="M2508.87 1159.73C2509.47 1158.02 2510.84 1156.95 2511.91 1157.33 2512.99 1157.72 2513.38 1159.41 2512.77 1161.11 2512.17 1162.81 2510.81 1163.89 2509.73 1163.5 2508.65 1163.12 2508.27 1161.43 2508.87 1159.73Z" fill="#FFCD00" fill-rule="evenodd"/><path d="M2512.41 1166.04C2513.01 1164.34 2514.37 1163.27 2515.45 1163.65 2516.53 1164.03 2516.91 1165.72 2516.31 1167.42 2515.71 1169.13 2514.34 1170.2 2513.27 1169.82 2512.19 1169.44 2511.8 1167.75 2512.41 1166.04Z" fill="#FFCD00" fill-rule="evenodd"/><path d="M2514.72 1173.66C2515.32 1171.95 2516.68 1170.88 2517.76 1171.26 2518.84 1171.65 2519.22 1173.34 2518.62 1175.04 2518.02 1176.74 2516.66 1177.82 2515.58 1177.43 2514.5 1177.05 2514.11 1175.36 2514.72 1173.66Z" fill="#FFCD00" fill-rule="evenodd"/><path d="M2515.71 1182.26C2516.32 1180.56 2517.68 1179.49 2518.76 1179.87 2519.83 1180.25 2520.22 1181.94 2519.62 1183.64 2519.01 1185.35 2517.65 1186.42 2516.57 1186.04 2515.49 1185.66 2515.11 1183.97 2515.71 1182.26Z" fill="#FFCD00" fill-rule="evenodd"/><path d="M2515.35 1191.5C2515.95 1189.8 2517.32 1188.73 2518.39 1189.11 2519.47 1189.49 2519.86 1191.18 2519.25 1192.88 2518.65 1194.59 2517.29 1195.66 2516.21 1195.28 2515.13 1194.9 2514.75 1193.2 2515.35 1191.5Z" fill="#FFCD00" fill-rule="evenodd"/><path d="M2513.64 1201C2514.25 1199.29 2515.61 1198.22 2516.69 1198.6 2517.76 1198.98 2518.15 1200.68 2517.55 1202.38 2516.94 1204.08 2515.58 1205.16 2514.5 1204.77 2513.42 1204.39 2513.04 1202.7 2513.64 1201Z" fill="#FFCD00" fill-rule="evenodd"/><path d="M2510.66 1210.36C2511.26 1208.66 2512.63 1207.59 2513.7 1207.97 2514.78 1208.35 2515.17 1210.04 2514.56 1211.75 2513.96 1213.45 2512.6 1214.52 2511.52 1214.14 2510.44 1213.76 2510.06 1212.07 2510.66 1210.36Z" fill="#FFCD00" fill-rule="evenodd"/><path d="M2506.53 1219.21C2507.13 1217.51 2508.49 1216.44 2509.57 1216.82 2510.65 1217.2 2511.04 1218.89 2510.43 1220.6 2509.83 1222.3 2508.47 1223.37 2507.39 1222.99 2506.31 1222.61 2505.93 1220.92 2506.53 1219.21Z" fill="#FFCD00" fill-rule="evenodd"/><path d="M2501.41 1227.19C2502.02 1225.48 2503.38 1224.41 2504.46 1224.79 2505.54 1225.18 2505.92 1226.87 2505.32 1228.57 2504.71 1230.27 2503.35 1231.35 2502.27 1230.96 2501.2 1230.58 2500.81 1228.89 2501.41 1227.19Z" fill="#FFCD00" fill-rule="evenodd"/><path d="M2495.53 1233.96C2496.13 1232.26 2497.49 1231.18 2498.57 1231.56 2499.65 1231.95 2500.03 1233.64 2499.43 1235.34 2498.83 1237.04 2497.46 1238.12 2496.38 1237.73 2495.31 1237.35 2494.92 1235.66 2495.53 1233.96Z" fill="#FFCD00" fill-rule="evenodd"/><path d="M2489.1 1239.25C2489.71 1237.54 2491.07 1236.47 2492.15 1236.85 2493.23 1237.24 2493.61 1238.93 2493.01 1240.63 2492.41 1242.33 2491.04 1243.41 2489.96 1243.02 2488.89 1242.64 2488.5 1240.95 2489.1 1239.25Z" fill="#FFCD00" fill-rule="evenodd"/><path d="M2482.42 1242.84C2483.02 1241.14 2484.38 1240.07 2485.46 1240.45 2486.54 1240.83 2486.92 1242.52 2486.32 1244.22 2485.72 1245.93 2484.35 1247 2483.27 1246.62 2482.2 1246.24 2481.81 1244.55 2482.42 1242.84Z" fill="#FFCD00" fill-rule="evenodd"/><path d="M2475.73 1244.59C2476.33 1242.89 2477.7 1241.81 2478.77 1242.2 2479.85 1242.58 2480.24 1244.27 2479.63 1245.97 2479.03 1247.68 2477.67 1248.75 2476.59 1248.37 2475.51 1247.98 2475.13 1246.29 2475.73 1244.59Z" fill="#FFCD00" fill-rule="evenodd"/><path d="M2469.32 1244.42C2469.93 1242.72 2471.29 1241.65 2472.37 1242.03 2473.45 1242.41 2473.83 1244.1 2473.23 1245.8 2472.62 1247.51 2471.26 1248.58 2470.18 1248.2 2469.11 1247.82 2468.72 1246.13 2469.32 1244.42Z" fill="#FFCD00" fill-rule="evenodd"/><path d="M2463.46 1242.35C2464.06 1240.64 2465.42 1239.57 2466.5 1239.95 2467.58 1240.33 2467.96 1242.02 2467.36 1243.73 2466.76 1245.43 2465.4 1246.5 2464.32 1246.12 2463.24 1245.74 2462.85 1244.05 2463.46 1242.35Z" fill="#FFCD00" fill-rule="evenodd"/><path d="M2458.37 1238.45C2458.98 1236.74 2460.34 1235.67 2461.42 1236.05 2462.49 1236.43 2462.88 1238.12 2462.28 1239.83 2461.67 1241.53 2460.31 1242.6 2459.23 1242.22 2458.15 1241.84 2457.77 1240.15 2458.37 1238.45Z" fill="#FFCD00" fill-rule="evenodd"/><path d="M2454.28 1232.88C2454.88 1231.18 2456.24 1230.11 2457.32 1230.49 2458.4 1230.87 2458.78 1232.56 2458.18 1234.26 2457.58 1235.97 2456.21 1237.04 2455.14 1236.66 2454.06 1236.28 2453.67 1234.58 2454.28 1232.88Z" fill="#FFCD00" fill-rule="evenodd"/><path d="M2451.34 1225.88C2451.94 1224.18 2453.3 1223.1 2454.38 1223.49 2455.46 1223.87 2455.84 1225.56 2455.24 1227.26 2454.64 1228.97 2453.27 1230.04 2452.2 1229.66 2451.12 1229.27 2450.73 1227.58 2451.34 1225.88Z" fill="#FFCD00" fill-rule="evenodd"/><path d="M2449.67 1217.73C2450.28 1216.02 2451.64 1214.95 2452.72 1215.33 2453.8 1215.72 2454.18 1217.41 2453.58 1219.11 2452.98 1220.81 2451.61 1221.89 2450.53 1221.5 2449.46 1221.12 2449.07 1219.43 2449.67 1217.73Z" fill="#FFCD00" fill-rule="evenodd"/><path d="M2449.36 1208.76C2449.96 1207.06 2451.32 1205.99 2452.4 1206.37 2453.48 1206.75 2453.86 1208.44 2453.26 1210.14 2452.66 1211.85 2451.29 1212.92 2450.22 1212.54 2449.14 1212.16 2448.75 1210.47 2449.36 1208.76Z" fill="#FFCD00" fill-rule="evenodd"/><path d="M2450.4 1199.35C2451 1197.64 2452.36 1196.57 2453.44 1196.95 2454.52 1197.33 2454.9 1199.02 2454.3 1200.73 2453.7 1202.43 2452.34 1203.5 2451.26 1203.12 2450.18 1202.74 2449.79 1201.05 2450.4 1199.35Z" fill="#FFCD00" fill-rule="evenodd"/><path d="M2452.75 1189.87C2453.36 1188.16 2454.72 1187.09 2455.8 1187.47 2456.88 1187.85 2457.26 1189.54 2456.66 1191.25 2456.05 1192.95 2454.69 1194.02 2453.61 1193.64 2452.54 1193.26 2452.15 1191.57 2452.75 1189.87Z" fill="#FFCD00" fill-rule="evenodd"/><path d="M2456.33 1180.71C2456.93 1179.01 2458.3 1177.93 2459.37 1178.32 2460.45 1178.7 2460.84 1180.39 2460.23 1182.09 2459.63 1183.8 2458.27 1184.87 2457.19 1184.49 2456.11 1184.1 2455.73 1182.41 2456.33 1180.71Z" fill="#FFCD00" fill-rule="evenodd"/><path d="M2460.98 1172.25C2461.58 1170.55 2462.94 1169.48 2464.02 1169.86 2465.1 1170.24 2465.48 1171.93 2464.88 1173.64 2464.28 1175.34 2462.91 1176.41 2461.84 1176.03 2460.76 1175.65 2460.37 1173.96 2460.98 1172.25Z" fill="#FFCD00" fill-rule="evenodd"/><path d="M2466.51 1164.84C2467.11 1163.14 2468.47 1162.07 2469.55 1162.45 2470.63 1162.83 2471.01 1164.52 2470.41 1166.23 2469.81 1167.93 2468.45 1169 2467.37 1168.62 2466.29 1168.24 2465.9 1166.55 2466.51 1164.84Z" fill="#FFCD00" fill-rule="evenodd"/><path d="M2472.69 1158.78C2473.3 1157.08 2474.66 1156.01 2475.74 1156.39 2476.82 1156.77 2477.2 1158.46 2476.6 1160.16 2475.99 1161.87 2474.63 1162.94 2473.55 1162.56 2472.48 1162.18 2472.09 1160.49 2472.69 1158.78Z" fill="#FFCD00" fill-rule="evenodd"/><path d="M2479.28 1154.32C2479.89 1152.61 2481.25 1151.54 2482.33 1151.92 2483.4 1152.31 2483.79 1154 2483.19 1155.7 2482.58 1157.4 2481.22 1158.48 2480.14 1158.09 2479.06 1157.71 2478.68 1156.02 2479.28 1154.32Z" fill="#FFCD00" fill-rule="evenodd"/><path d="M2486 1151.63C2486.61 1149.93 2487.97 1148.86 2489.05 1149.24 2490.13 1149.62 2490.51 1151.31 2489.91 1153.02 2489.3 1154.72 2487.94 1155.79 2486.86 1155.41 2485.79 1155.03 2485.4 1153.34 2486 1151.63Z" fill="#FFCD00" fill-rule="evenodd"/><path d="M2492.58 1150.84C2493.19 1149.14 2494.55 1148.06 2495.63 1148.44 2496.71 1148.83 2497.09 1150.52 2496.49 1152.22 2495.88 1153.92 2494.52 1155 2493.44 1154.61 2492.37 1154.23 2491.98 1152.54 2492.58 1150.84Z" fill="#FFCD00" fill-rule="evenodd"/><path d="M2397.83 1301.89 2413.48 1284.39 2390.99 1293.9 2411.51 1281.77 2385.36 1285.3 2409.95 1279.01 2381.14 1276.43 2408.87 1276.22 2378.5 1267.62 2408.3 1273.49 2377.55 1259.22 2408.27 1270.95 2378.32 1251.55 2408.78 1268.69 2380.77 1244.9 2409.81 1266.79 2384.83 1239.53 2411.32 1265.32 2390.32 1235.64 2413.25 1264.35 2397.04 1233.38 2415.53 1263.91 2404.73 1232.85 2418.07 1264.02 2413.1 1234.06 2420.77 1264.67 2421.82 1236.96 2423.53 1265.84 2430.56 1241.44 2426.24 1267.48 2438.98 1247.34 2428.8 1269.53 2446.76 1254.42 2431.12 1271.91 2453.6 1262.41 2433.09 1274.53 2459.24 1271.01 2434.65 1277.3 2463.46 1279.88 2435.73 1280.09 2466.09 1288.68 2436.3 1282.81 2467.05 1297.08 2436.33 1285.35 2466.28 1304.76 2435.82 1287.62 2463.82 1311.41 2434.79 1289.52 2459.77 1316.78 2433.28 1290.98 2454.28 1320.67 2431.35 1291.95 2447.56 1322.92 2429.07 1292.39 2439.86 1323.46 2426.53 1292.29 2431.5 1322.25 2423.83 1291.64 2422.77 1319.35 2421.07 1290.47 2414.04 1314.86 2418.35 1288.83 2405.61 1308.97 2415.79 1286.78Z" fill="#F4EFCC" fill-rule="evenodd"/><path d="M2404.79 1307.44 2409.56 1293.03 2395.99 1301.68 2404.84 1289.49 2388.18 1295 2400.76 1285.5 2381.65 1287.66 2397.49 1281.22 2376.66 1279.94 2395.14 1276.81 2373.4 1272.14 2393.81 1272.43 2372 1264.56 2393.55 1268.26 2372.5 1257.48 2394.38 1264.46 2374.89 1251.19 2396.25 1261.18 2379.08 1245.93 2399.1 1258.53 2384.9 1241.89 2402.81 1256.62 2392.14 1239.22 2407.25 1255.53 2400.51 1238.05 2412.24 1255.3 2409.7 1238.4 2417.6 1255.93 2419.34 1240.26 2423.11 1257.4 2429.07 1243.57 2428.56 1259.65 2438.52 1248.2 2433.75 1262.61 2447.32 1253.96 2438.48 1266.15 2455.14 1260.64 2442.56 1270.14 2461.66 1267.98 2445.83 1274.42 2466.65 1275.7 2448.18 1278.83 2469.91 1283.5 2449.5 1283.21 2471.32 1291.08 2449.76 1287.37 2470.82 1298.15 2448.94 1291.17 2468.43 1304.44 2447.07 1294.46 2464.24 1309.71 2444.22 1297.11 2458.41 1313.75 2440.51 1299.01 2451.18 1316.41 2436.07 1300.11 2442.8 1317.59 2431.07 1300.34 2433.62 1317.24 2425.72 1299.71 2423.98 1315.37 2420.21 1298.24 2414.24 1312.07 2414.75 1295.98Z" fill="#F4EFCC" fill-rule="evenodd"/><path d="M2410.84 1289.27C2401.14 1279.27 2398.41 1266.18 2404.73 1260.04 2411.06 1253.91 2424.05 1257.04 2433.75 1267.04 2443.46 1277.04 2446.19 1290.12 2439.87 1296.26 2433.54 1302.4 2420.54 1299.27 2410.84 1289.27Z" fill="#BDB491" fill-rule="evenodd"/><path d="M2387.05 1244.79C2385.79 1243.49 2385.44 1241.8 2386.26 1241 2387.08 1240.21 2388.76 1240.61 2390.02 1241.91 2391.28 1243.21 2391.64 1244.9 2390.82 1245.7 2389.99 1246.5 2388.31 1246.09 2387.05 1244.79Z" fill="#FFCD00" fill-rule="evenodd"/><path d="M2392.19 1241.2C2390.93 1239.9 2390.57 1238.2 2391.39 1237.4 2392.21 1236.61 2393.9 1237.01 2395.16 1238.31 2396.42 1239.61 2396.77 1241.31 2395.95 1242.1 2395.13 1242.9 2393.45 1242.49 2392.19 1241.2Z" fill="#FFCD00" fill-rule="evenodd"/><path d="M2398.5 1239.17C2397.24 1237.88 2396.88 1236.18 2397.71 1235.38 2398.53 1234.59 2400.21 1234.99 2401.47 1236.29 2402.73 1237.59 2403.08 1239.29 2402.26 1240.08 2401.44 1240.88 2399.76 1240.47 2398.5 1239.17Z" fill="#FFCD00" fill-rule="evenodd"/><path d="M2405.73 1238.81C2404.47 1237.52 2404.11 1235.82 2404.93 1235.02 2405.76 1234.23 2407.44 1234.63 2408.7 1235.93 2409.96 1237.23 2410.31 1238.92 2409.49 1239.72 2408.67 1240.52 2406.99 1240.11 2405.73 1238.81Z" fill="#FFCD00" fill-rule="evenodd"/><path d="M2413.58 1240.12C2412.32 1238.83 2411.96 1237.13 2412.78 1236.33 2413.61 1235.54 2415.29 1235.94 2416.55 1237.24 2417.81 1238.54 2418.16 1240.24 2417.34 1241.03 2416.52 1241.83 2414.84 1241.42 2413.58 1240.12Z" fill="#FFCD00" fill-rule="evenodd"/><path d="M2421.73 1243.05C2420.47 1241.76 2420.11 1240.06 2420.93 1239.26 2421.76 1238.47 2423.44 1238.87 2424.7 1240.17 2425.96 1241.47 2426.31 1243.17 2425.49 1243.96 2424.67 1244.76 2422.99 1244.35 2421.73 1243.05Z" fill="#FFCD00" fill-rule="evenodd"/><path d="M2429.84 1247.49C2428.58 1246.19 2428.23 1244.49 2429.05 1243.69 2429.87 1242.9 2431.56 1243.3 2432.81 1244.6 2434.07 1245.9 2434.43 1247.6 2433.61 1248.39 2432.79 1249.19 2431.1 1248.78 2429.84 1247.49Z" fill="#FFCD00" fill-rule="evenodd"/><path d="M2437.59 1253.23C2436.33 1251.94 2435.98 1250.24 2436.8 1249.44 2437.62 1248.65 2439.31 1249.05 2440.56 1250.35 2441.82 1251.65 2442.18 1253.34 2441.36 1254.14 2440.54 1254.94 2438.85 1254.53 2437.59 1253.23Z" fill="#FFCD00" fill-rule="evenodd"/><path d="M2444.66 1260.06C2443.4 1258.77 2443.05 1257.07 2443.87 1256.27 2444.69 1255.48 2446.37 1255.88 2447.63 1257.18 2448.89 1258.48 2449.24 1260.18 2448.42 1260.97 2447.6 1261.77 2445.92 1261.36 2444.66 1260.06Z" fill="#FFCD00" fill-rule="evenodd"/><path d="M2450.75 1267.7C2449.49 1266.4 2449.14 1264.71 2449.96 1263.91 2450.78 1263.11 2452.47 1263.52 2453.73 1264.82 2454.98 1266.11 2455.34 1267.81 2454.52 1268.61 2453.7 1269.4 2452.01 1269 2450.75 1267.7Z" fill="#FFCD00" fill-rule="evenodd"/><path d="M2455.62 1275.82C2454.37 1274.53 2454.01 1272.83 2454.83 1272.03 2455.65 1271.24 2457.34 1271.64 2458.6 1272.94 2459.85 1274.24 2460.21 1275.94 2459.39 1276.73 2458.57 1277.53 2456.88 1277.12 2455.62 1275.82Z" fill="#FFCD00" fill-rule="evenodd"/><path d="M2459.07 1284.11C2457.82 1282.81 2457.46 1281.11 2458.28 1280.32 2459.1 1279.52 2460.79 1279.93 2462.05 1281.22 2463.3 1282.52 2463.66 1284.22 2462.84 1285.02 2462.02 1285.81 2460.33 1285.41 2459.07 1284.11Z" fill="#FFCD00" fill-rule="evenodd"/><path d="M2460.96 1292.21C2459.7 1290.91 2459.35 1289.22 2460.17 1288.42 2460.99 1287.62 2462.67 1288.03 2463.93 1289.33 2465.19 1290.62 2465.55 1292.32 2464.73 1293.12 2463.91 1293.91 2462.22 1293.51 2460.96 1292.21Z" fill="#FFCD00" fill-rule="evenodd"/><path d="M2461.21 1299.8C2459.95 1298.5 2459.59 1296.81 2460.42 1296.01 2461.24 1295.21 2462.92 1295.62 2464.18 1296.92 2465.44 1298.21 2465.79 1299.91 2464.97 1300.71 2464.15 1301.5 2462.47 1301.1 2461.21 1299.8Z" fill="#FFCD00" fill-rule="evenodd"/><path d="M2459.8 1306.57C2458.55 1305.27 2458.19 1303.57 2459.01 1302.77 2459.83 1301.98 2461.52 1302.38 2462.78 1303.68 2464.04 1304.98 2464.39 1306.68 2463.57 1307.47 2462.75 1308.27 2461.06 1307.86 2459.8 1306.57Z" fill="#FFCD00" fill-rule="evenodd"/><path d="M2456.81 1312.23C2455.55 1310.93 2455.19 1309.24 2456.02 1308.44 2456.84 1307.64 2458.52 1308.05 2459.78 1309.35 2461.04 1310.64 2461.39 1312.34 2460.57 1313.14 2459.75 1313.93 2458.07 1313.53 2456.81 1312.23Z" fill="#FFCD00" fill-rule="evenodd"/><path d="M2452.34 1316.56C2451.08 1315.27 2450.73 1313.57 2451.55 1312.77 2452.37 1311.98 2454.06 1312.38 2455.31 1313.68 2456.57 1314.98 2456.93 1316.67 2456.11 1317.47 2455.29 1318.27 2453.6 1317.86 2452.34 1316.56Z" fill="#FFCD00" fill-rule="evenodd"/><path d="M2446.59 1319.39C2445.33 1318.09 2444.97 1316.39 2445.8 1315.6 2446.62 1314.8 2448.3 1315.21 2449.56 1316.5 2450.82 1317.8 2451.17 1319.5 2450.35 1320.29 2449.53 1321.09 2447.85 1320.68 2446.59 1319.39Z" fill="#FFCD00" fill-rule="evenodd"/><path d="M2439.78 1320.58C2438.52 1319.29 2438.17 1317.59 2438.99 1316.79 2439.81 1316 2441.5 1316.4 2442.76 1317.7 2444.01 1319 2444.37 1320.69 2443.55 1321.49 2442.73 1322.29 2441.04 1321.88 2439.78 1320.58Z" fill="#FFCD00" fill-rule="evenodd"/><path d="M2432.21 1320.11C2430.95 1318.81 2430.59 1317.11 2431.41 1316.32 2432.23 1315.52 2433.92 1315.93 2435.18 1317.22 2436.44 1318.52 2436.79 1320.22 2435.97 1321.01 2435.15 1321.81 2433.46 1321.4 2432.21 1320.11Z" fill="#FFCD00" fill-rule="evenodd"/><path d="M2424.16 1317.98C2422.91 1316.68 2422.55 1314.98 2423.37 1314.18 2424.19 1313.39 2425.88 1313.79 2427.14 1315.09 2428.39 1316.39 2428.75 1318.09 2427.93 1318.88 2427.11 1319.68 2425.42 1319.27 2424.16 1317.98Z" fill="#FFCD00" fill-rule="evenodd"/><path d="M2415.99 1314.28C2414.73 1312.98 2414.38 1311.28 2415.2 1310.48 2416.02 1309.69 2417.7 1310.09 2418.96 1311.39 2420.22 1312.69 2420.57 1314.39 2419.75 1315.18 2418.93 1315.98 2417.25 1315.57 2415.99 1314.28Z" fill="#FFCD00" fill-rule="evenodd"/><path d="M2408.02 1309.16C2406.76 1307.86 2406.4 1306.17 2407.22 1305.37 2408.04 1304.57 2409.73 1304.98 2410.99 1306.28 2412.25 1307.57 2412.6 1309.27 2411.78 1310.07 2410.96 1310.86 2409.27 1310.46 2408.02 1309.16Z" fill="#FFCD00" fill-rule="evenodd"/><path d="M2400.57 1302.84C2399.31 1301.54 2398.96 1299.84 2399.78 1299.05 2400.6 1298.25 2402.28 1298.66 2403.54 1299.95 2404.8 1301.25 2405.15 1302.95 2404.33 1303.74 2403.51 1304.54 2401.83 1304.13 2400.57 1302.84Z" fill="#FFCD00" fill-rule="evenodd"/><path d="M2393.96 1295.57C2392.7 1294.27 2392.34 1292.57 2393.16 1291.78 2393.98 1290.98 2395.67 1291.39 2396.93 1292.68 2398.19 1293.98 2398.54 1295.68 2397.72 1296.47 2396.9 1297.27 2395.21 1296.86 2393.96 1295.57Z" fill="#FFCD00" fill-rule="evenodd"/><path d="M2388.44 1287.65C2387.19 1286.35 2386.83 1284.65 2387.65 1283.86 2388.47 1283.06 2390.16 1283.47 2391.42 1284.76 2392.68 1286.06 2393.03 1287.76 2392.21 1288.55 2391.39 1289.35 2389.7 1288.94 2388.44 1287.65Z" fill="#FFCD00" fill-rule="evenodd"/><path d="M2384.26 1279.4C2383 1278.1 2382.65 1276.41 2383.47 1275.61 2384.29 1274.81 2385.98 1275.22 2387.23 1276.52 2388.49 1277.81 2388.85 1279.51 2388.03 1280.31 2387.21 1281.1 2385.52 1280.7 2384.26 1279.4Z" fill="#FFCD00" fill-rule="evenodd"/><path d="M2381.58 1271.16C2380.32 1269.87 2379.97 1268.17 2380.79 1267.37 2381.61 1266.58 2383.29 1266.98 2384.55 1268.28 2385.81 1269.58 2386.17 1271.28 2385.34 1272.07 2384.52 1272.87 2382.84 1272.46 2381.58 1271.16Z" fill="#FFCD00" fill-rule="evenodd"/><path d="M2380.51 1263.28C2379.25 1261.98 2378.89 1260.28 2379.71 1259.49 2380.54 1258.69 2382.22 1259.1 2383.48 1260.4 2384.74 1261.69 2385.09 1263.39 2384.27 1264.19 2383.45 1264.98 2381.77 1264.58 2380.51 1263.28Z" fill="#FFCD00" fill-rule="evenodd"/><path d="M2381.09 1256.06C2379.83 1254.77 2379.48 1253.07 2380.3 1252.27 2381.12 1251.48 2382.8 1251.88 2384.06 1253.18 2385.32 1254.48 2385.67 1256.18 2384.85 1256.97 2384.03 1257.77 2382.35 1257.36 2381.09 1256.06Z" fill="#FFCD00" fill-rule="evenodd"/><path d="M2383.3 1249.82C2382.04 1248.52 2381.69 1246.82 2382.51 1246.03 2383.33 1245.23 2385.01 1245.64 2386.27 1246.93 2387.53 1248.23 2387.89 1249.93 2387.06 1250.72 2386.24 1251.52 2384.56 1251.11 2383.3 1249.82Z" fill="#FFCD00" fill-rule="evenodd"/><path d="M1356 844.25 1414.27 854.099 1435 798 1455.73 854.099 1514 844.25 1476.45 890.5 1514 936.75 1455.73 926.901 1435 983 1414.27 926.901 1356 936.75 1393.55 890.5Z" fill="#9B2743" fill-rule="evenodd"/><path d="M1339 1587.5 1394.72 1570.9 1367.12 1519.97 1418.32 1547.43 1435 1492 1451.68 1547.43 1502.88 1519.97 1475.28 1570.9 1531 1587.5 1475.28 1604.1 1502.88 1655.03 1451.68 1627.57 1435 1683 1418.32 1627.57 1367.12 1655.03 1394.72 1604.1Z" fill="#9B2743" fill-rule="evenodd"/><path d="M1569 1137.98 1623.06 1103.98 1588.81 1049.41 1648.55 1071.35 1669 1010 1689.45 1071.35 1749.19 1049.41 1714.94 1103.98 1769 1137.98 1705.84 1144.67 1713.5 1209 1669 1162.78 1624.5 1209 1632.16 1144.67Z" fill="#9B2743" fill-rule="evenodd"/><path d="M1481 1267.34 1519.94 1263.18 1536 1228 1552.06 1263.18 1591 1267.34 1561.98 1293.25 1569.99 1331 1536 1311.83 1502.01 1331 1510.02 1293.25Z" fill="#9B2743" fill-rule="evenodd"/><path d="M1071 1197.98 1125.06 1163.98 1090.81 1109.41 1150.55 1131.35 1171 1070 1191.45 1131.35 1251.19 1109.41 1216.94 1163.98 1271 1197.98 1207.84 1204.67 1215.5 1269 1171 1222.78 1126.5 1269 1134.16 1204.67Z" fill="#9B2743" fill-rule="evenodd"/></g></svg>