<svg width="2339" height="1170" xmlns="http://www.w3.org/2000/svg" xmlns:xlink="http://www.w3.org/1999/xlink" xml:space="preserve" overflow="hidden"><defs><clipPath id="clip0"><rect x="1031" y="653" width="2339" height="1170"/></clipPath></defs><g clip-path="url(#clip0)" transform="translate(-1031 -653)"><rect x="1810.5" y="653.5" width="1559" height="1169" stroke="#000000" stroke-width="1.14583" stroke-miterlimit="8" fill="#002854"/><path d="M2191 1237.5C2191 1011.89 2373.67 829 2599 829 2824.33 829 3007 1011.89 3007 1237.5 3007 1463.11 2824.33 1646 2599 1646 2373.67 1646 2191 1463.11 2191 1237.5Z" fill="#F2F2F2" fill-rule="evenodd"/><rect x="0" y="0" width="779" height="1169" fill="#F2F2F2" transform="matrix(-1 1.22465e-16 1.22465e-16 1 1810 653)"/><path d="M10.6639 39.7177C0.954143 16.7819 11.396-0.233219 28.9368 0.00233651 46.4776 0.237892 55.4342 15.7879 47.2097 39.7177 38.9853 63.6475 51.7701 83.3146 54.5188 98.3636 57.2674 113.413 66.0511 129.544 63.7017 130.011 55.2179 132.834 46.7031 103.799 43.2707 101.876 39.8383 99.9527 48.0275 132.034 40.9165 140.609 42.3498 127.282 32.9564 103.399 30.6195 103.399 28.2826 103.399 24.1408 125.447 25.7995 138.725 13.8747 133.634 22.5334 100.016 19.5392 102.292 16.5449 104.569 6.85539 118.236 0.385377 129.305-1.70292 129.305 5.29625 117.223 7.00931 102.292 8.72238 87.3608 20.3737 62.6535 10.6639 39.7177Z" stroke="#D67CD6" stroke-width="4.58333" stroke-miterlimit="8" fill="#ED8FE6" fill-rule="evenodd" transform="matrix(-0.344092 -0.938936 -0.938936 0.344092 2475.11 1384.18)"/><path d="M10.6639 39.7177C0.954143 16.7819 11.396-0.233219 28.9368 0.00233651 46.4776 0.237892 55.4342 15.7879 47.2097 39.7177 38.9853 63.6475 51.7701 83.3146 54.5188 98.3636 57.2674 113.413 66.0511 129.544 63.7017 130.011 55.2179 132.834 46.7031 103.799 43.2707 101.876 39.8383 99.9527 48.0275 132.034 40.9165 140.609 42.3498 127.282 32.9564 103.399 30.6195 103.399 28.2826 103.399 24.1408 125.447 25.7995 138.725 13.8747 133.634 22.5334 100.016 19.5392 102.292 16.5449 104.569 6.85539 118.236 0.385377 129.305-1.70292 129.305 5.29625 117.223 7.00931 102.292 8.72238 87.3608 20.3737 62.6535 10.6639 39.7177Z" stroke="#D67CD6" stroke-width="4.58333" stroke-miterlimit="8" fill="#ED8FE6" fill-rule="evenodd" transform="matrix(-0.616709 -0.787191 -0.787191 0.616709 2440.79 1424.57)"/><path d="M10.6639 39.7177C0.954143 16.7819 11.396-0.233219 28.9368 0.00233651 46.4776 0.237892 55.4342 15.7879 47.2097 39.7177 38.9853 63.6475 51.7701 83.3146 54.5188 98.3636 57.2674 113.413 66.0511 129.544 63.7017 130.011 55.2179 132.834 46.7031 103.799 43.2707 101.876 39.8383 99.9527 48.0275 132.034 40.9165 140.609 42.3498 127.282 32.9564 103.399 30.6195 103.399 28.2826 103.399 24.1408 125.447 25.7995 138.725 13.8747 133.634 22.5334 100.016 19.5392 102.292 16.5449 104.569 6.85539 118.236 0.385377 129.305-1.70292 129.305 5.29625 117.223 7.00931 102.292 8.72238 87.3608 20.3737 62.6535 10.6639 39.7177Z" stroke="#D67CD6" stroke-width="4.58333" stroke-miterlimit="8" fill="#ED8FE6" fill-rule="evenodd" transform="matrix(-0.912794 -0.40842 -0.40842 0.912794 2512.6 1397.99)"/><path d="M10.6639 39.7177C0.954143 16.7819 11.396-0.233219 28.9368 0.00233651 46.4776 0.237892 55.4342 15.7879 47.2097 39.7177 38.9853 63.6475 51.7701 83.3146 54.5188 98.3636 57.2674 113.413 66.0511 129.544 63.7017 130.011 55.2179 132.834 46.7031 103.799 43.2707 101.876 39.8383 99.9527 48.0275 132.034 40.9165 140.609 42.3498 127.282 32.9564 103.399 30.6195 103.399 28.2826 103.399 24.1408 125.447 25.7995 138.725 13.8747 133.634 22.5334 100.016 19.5392 102.292 16.5449 104.569 6.85539 118.236 0.385377 129.305-1.70292 129.305 5.29625 117.223 7.00931 102.292 8.72238 87.3608 20.3737 62.6535 10.6639 39.7177Z" stroke="#D67CD6" stroke-width="4.58333" stroke-miterlimit="8" fill="#ED8FE6" fill-rule="evenodd" transform="matrix(-0.994554 -0.104227 -0.104227 0.994554 2561.3 1460.72)"/><path d="M10.6639 39.7177C0.954143 16.7819 11.396-0.233219 28.9368 0.00233651 46.4776 0.237892 55.4342 15.7879 47.2097 39.7177 38.9853 63.6475 51.7701 83.3146 54.5188 98.3636 57.2674 113.413 66.0511 129.544 63.7017 130.011 55.2179 132.834 46.7031 103.799 43.2707 101.876 39.8383 99.9527 48.0275 132.034 40.9165 140.609 42.3498 127.282 32.9564 103.399 30.6195 103.399 28.2826 103.399 24.1408 125.447 25.7995 138.725 13.8747 133.634 22.5334 100.016 19.5392 102.292 16.5449 104.569 6.85539 118.236 0.385377 129.305-1.70292 129.305 5.29625 117.223 7.00931 102.292 8.72238 87.3608 20.3737 62.6535 10.6639 39.7177Z" stroke="#D67CD6" stroke-width="4.58333" stroke-miterlimit="8" fill="#ED8FE6" fill-rule="evenodd" transform="matrix(-0.971671 0.236339 0.236339 0.971671 2684.78 1128.79)"/><path d="M41.6845 0.357429C42.0997-0.118367 42.7198-0.133662 43.5386 0.39888 44.6304 1.10897 46.0756 2.79304 47.8602 5.65835 54.9985 17.1198 79.6306 54.2188 86.4673 83.4757 89.8857 98.1041 92.1227 112.682 92.6882 128.53L92.5589 135.424 92.9764 134.28C95.3315 127.713 97.7659 120.727 100.081 113.624 109.34 85.2141 121.05 66.8783 136.162 50.19 151.274 33.5018 181.688 18.3526 190.752 13.4947 199.816 8.63681 198.403 14.1791 190.545 21.0429 182.687 27.9065 156.413 37.6943 141.903 54.7897 127.394 71.8849 109.919 102.713 97.9793 146.2L91.7095 157.675 88.8802 181.2C82.3452 220.611 79.128 238.909 76.2124 265.653 73.2968 292.396 71.6882 315.621 71.3865 341.661 71.0849 367.7 66.1584 403.09 74.4026 432.146 82.6469 461.202 109.189 486.739 120.852 515.996 132.514 545.253 140.155 589.088 144.378 607.688 148.601 626.287 147.294 624.478 146.188 627.594 145.082 630.711 142.87 641.871 137.742 626.388 133.897 614.776 127.45 581.56 121.328 556.262L119.353 548.513 118.331 547.856C108.02 541.104 92.9782 530.795 77.0509 521.042 51.5675 505.439 36.4525 489.79 23.7301 471.216 11.0075 452.642 3.33567 419.541 0.715523 409.596-1.90463 399.652 3.15812 402.313 8.00918 411.551 12.8604 420.788 16.2788 448.617 29.5373 466.7 42.7956 484.783 68.7229 508.939 108.248 530.651L116.41 538.021 115.423 534.696C107.983 512.376 102.755 510.768 93.103 492.469 83.4512 474.171 63.5444 450.142 57.512 424.907 51.4796 399.672 54.4959 375.04 56.9088 341.057 59.3217 307.075 59.5228 279.929 71.9897 221.013 75.1065 206.285 77.3749 192.272 78.9316 179.079L79.3802 174.354 79.2981 174.001 79.5128 172.956 80.7502 159.918C82.9486 129.052 81.1262 103.634 77.4188 85.2854 71.487 55.9279 48.2624 27.7771 43.6376 14.7069 41.0361 7.35495 40.4388 1.78449 41.6845 0.357429Z" stroke="#A79B6D" stroke-width="4.58333" stroke-miterlimit="8" fill="#BDB491" fill-rule="evenodd" transform="matrix(0.804219 0.594333 0.594333 -0.804219 2384.12 1377.57)"/><path d="M10.6639 39.7177C0.954143 16.7819 11.396-0.233219 28.9368 0.00233651 46.4776 0.237892 55.4342 15.7879 47.2097 39.7177 38.9853 63.6475 51.7701 83.3146 54.5188 98.3636 57.2674 113.413 66.0511 129.544 63.7017 130.011 55.2179 132.834 46.7031 103.799 43.2707 101.876 39.8383 99.9527 48.0275 132.034 40.9165 140.609 42.3498 127.282 32.9564 103.399 30.6195 103.399 28.2826 103.399 24.1408 125.447 25.7995 138.725 13.8747 133.634 22.5334 100.016 19.5392 102.292 16.5449 104.569 6.85539 118.236 0.385377 129.305-1.70292 129.305 5.29625 117.223 7.00931 102.292 8.72238 87.3608 20.3737 62.6535 10.6639 39.7177Z" stroke="#D67CD6" stroke-width="4.58333" stroke-miterlimit="8" fill="#ED8FE6" fill-rule="evenodd" transform="matrix(-0.99519 -0.0979636 -0.0979636 0.99519 2618.83 1256.84)"/><path d="M10.6639 39.7177C0.954143 16.7819 11.396-0.233219 28.9368 0.00233651 46.4776 0.237892 55.4342 15.7879 47.2097 39.7177 38.9853 63.6475 51.7701 83.3146 54.5188 98.3636 57.2674 113.413 66.0511 129.544 63.7017 130.011 55.2179 132.834 46.7031 103.799 43.2707 101.876 39.8383 99.9527 48.0275 132.034 40.9165 140.609 42.3498 127.282 32.9564 103.399 30.6195 103.399 28.2826 103.399 24.1408 125.447 25.7995 138.725 13.8747 133.634 22.5334 100.016 19.5392 102.292 16.5449 104.569 6.85539 118.236 0.385377 129.305-1.70292 129.305 5.29625 117.223 7.00931 102.292 8.72238 87.3608 20.3737 62.6535 10.6639 39.7177Z" stroke="#D67CD6" stroke-width="4.58333" stroke-miterlimit="8" fill="#ED8FE6" fill-rule="evenodd" transform="matrix(-0.166457 -0.986049 -0.986049 0.166457 2591.45 1253.73)"/><path d="M10.6639 39.7177C0.954143 16.7819 11.396-0.233219 28.9368 0.00233651 46.4776 0.237892 55.4342 15.7879 47.2097 39.7177 38.9853 63.6475 51.7701 83.3146 54.5188 98.3636 57.2674 113.413 66.0511 129.544 63.7017 130.011 55.2179 132.834 46.7031 103.799 43.2707 101.876 39.8383 99.9527 48.0275 132.034 40.9165 140.609 42.3498 127.282 32.9564 103.399 30.6195 103.399 28.2826 103.399 24.1408 125.447 25.7995 138.725 13.8747 133.634 22.5334 100.016 19.5392 102.292 16.5449 104.569 6.85539 118.236 0.385377 129.305-1.70292 129.305 5.29625 117.223 7.00931 102.292 8.72238 87.3608 20.3737 62.6535 10.6639 39.7177Z" stroke="#D67CD6" stroke-width="4.58333" stroke-miterlimit="8" fill="#ED8FE6" fill-rule="evenodd" transform="matrix(-0.83018 -0.557496 -0.557496 0.83018 2663.4 1068.29)"/><path d="M10.6639 39.7177C0.954143 16.7819 11.396-0.233219 28.9368 0.00233651 46.4776 0.237892 55.4342 15.7879 47.2097 39.7177 38.9853 63.6475 51.7701 83.3146 54.5188 98.3636 57.2674 113.413 66.0511 129.544 63.7017 130.011 55.2179 132.834 46.7031 103.799 43.2707 101.876 39.8383 99.9527 48.0275 132.034 40.9165 140.609 42.3498 127.282 32.9564 103.399 30.6195 103.399 28.2826 103.399 24.1408 125.447 25.7995 138.725 13.8747 133.634 22.5334 100.016 19.5392 102.292 16.5449 104.569 6.85539 118.236 0.385377 129.305-1.70292 129.305 5.29625 117.223 7.00931 102.292 8.72238 87.3608 20.3737 62.6535 10.6639 39.7177Z" stroke="#D67CD6" stroke-width="4.58333" stroke-miterlimit="8" fill="#ED8FE6" fill-rule="evenodd" transform="matrix(-0.0367699 -0.999324 -0.999324 0.0367699 2619.74 1066.1)"/><path d="M10.6639 39.7177C0.954143 16.7819 11.396-0.233219 28.9368 0.00233651 46.4776 0.237892 55.4342 15.7879 47.2097 39.7177 38.9853 63.6475 51.7701 83.3146 54.5188 98.3636 57.2674 113.413 66.0511 129.544 63.7017 130.011 55.2179 132.834 46.7031 103.799 43.2707 101.876 39.8383 99.9527 48.0275 132.034 40.9165 140.609 42.3498 127.282 32.9564 103.399 30.6195 103.399 28.2826 103.399 24.1408 125.447 25.7995 138.725 13.8747 133.634 22.5334 100.016 19.5392 102.292 16.5449 104.569 6.85539 118.236 0.385377 129.305-1.70292 129.305 5.29625 117.223 7.00931 102.292 8.72238 87.3608 20.3737 62.6535 10.6639 39.7177Z" stroke="#D67CD6" stroke-width="4.58333" stroke-miterlimit="8" fill="#ED8FE6" fill-rule="evenodd" transform="matrix(0.229734 -0.973254 -0.973254 -0.229734 2516.89 1353.85)"/><path d="M11.3058 0C8.41454 1.62435 5.00349 5.49035 3.1193 9.94107 1.23511 14.3918-0.0318723 18.5176 0.000608797 26.7044 0.0330899 34.8911 2.26601 41.6231 3.31418 59.0616 4.36235 76.5001 3.65815 132.473 6.28955 131.336 8.92095 130.198 16.8046 69.9052 19.1025 52.2393 17.8355 42.4607 20.4994 33.2343 20.0771 25.3399 19.6548 17.4456 18.4203 12.5075 16.9584 8.38168 15.4966 4.25582 14.7818 2.85888 11.3058 0Z" stroke="#529462" stroke-width="4.58333" stroke-miterlimit="8" fill="#66AA76" fill-rule="evenodd" transform="matrix(-0.964974 -0.262346 -0.262346 0.964974 2806.93 1028.52)"/><path d="M20.9244 4.72782C23.3696 14.6248 27.3756 49.7591 26.231 66.269 25.0865 82.7789 13.8489 89.8418 14.0571 103.788 14.2651 117.733 26.179 143.15 27.4796 149.943 28.7803 156.736 26.283 151.113 21.8609 144.545 17.4388 137.977 4.01616 124.166 0.946689 110.535-2.12278 96.9047 3.23579 76.4359 3.44391 62.7601 3.65204 49.0843 0.842655 37.7928 2.19533 28.4806 3.548 19.1684 8.4383 10.846 11.5598 6.88717 14.6814 2.92836 18.4792-5.16918 20.9244 4.72782Z" stroke="#529462" stroke-width="4.58333" stroke-miterlimit="8" fill="#66AA76" fill-rule="evenodd" transform="matrix(-0.894574 0.446921 0.446921 0.894574 2818.45 1010.39)"/><path d="M2813.05 1006.06C2803.35 1003.7 2771.42 990.851 2758.02 981.937 2744.62 973.022 2744.6 958.985 2732.66 952.572 2720.72 946.159 2692.83 945.443 2686.37 943.46 2679.92 941.478 2686.02 941.768 2693.94 940.675 2701.86 939.582 2720.71 933.361 2733.91 936.903 2747.1 940.444 2761.62 955.244 2773.11 961.925 2784.6 968.606 2795.67 971.286 2802.85 976.987 2810.03 982.687 2814.5 991.284 2816.2 996.13 2817.89 1000.98 2822.75 1008.43 2813.05 1006.06Z" stroke="#529462" stroke-width="4.58333" stroke-miterlimit="8" fill="#66AA76" fill-rule="evenodd"/><path d="M11.3058 0C8.41454 1.62435 5.00349 5.49035 3.1193 9.94107 1.23511 14.3918-0.0318723 18.5176 0.000608797 26.7044 0.0330899 34.8911 2.26601 41.6231 3.31418 59.0616 4.36235 76.5001 3.65815 132.473 6.28955 131.336 8.92095 130.198 16.8046 69.9052 19.1025 52.2393 17.8355 42.4607 20.4994 33.2343 20.0771 25.3399 19.6548 17.4456 18.4203 12.5075 16.9584 8.38168 15.4966 4.25582 14.7818 2.85888 11.3058 0Z" stroke="#529462" stroke-width="4.58333" stroke-miterlimit="8" fill="#66AA76" fill-rule="evenodd" transform="matrix(-0.489153 0.872198 0.872198 0.489153 2532.05 1398.23)"/><path d="M11.3058 0C8.41454 1.62435 5.00349 5.49035 3.1193 9.94107 1.23511 14.3918-0.0318723 18.5176 0.000608797 26.7044 0.0330899 34.8911 2.26601 41.6231 3.31418 59.0616 4.36235 76.5001 3.65815 132.473 6.28955 131.336 8.92095 130.198 16.8046 69.9052 19.1025 52.2393 17.8355 42.4607 20.4994 33.2343 20.0771 25.3399 19.6548 17.4456 18.4203 12.5075 16.9584 8.38168 15.4966 4.25582 14.7818 2.85888 11.3058 0Z" stroke="#529462" stroke-width="4.58333" stroke-miterlimit="8" fill="#66AA76" fill-rule="evenodd" transform="matrix(-0.700864 0.713295 0.713295 0.700864 2534.7 1408.34)"/><path d="M1588 1054 1646.27 1063.8 1667 1008 1687.73 1063.8 1746 1054 1708.45 1100 1746 1146 1687.73 1136.2 1667 1192 1646.27 1136.2 1588 1146 1625.55 1100Z" fill="#002854" fill-rule="evenodd"/><path d="M1335 1591.5 1390.43 1574.9 1362.97 1523.97 1413.9 1551.43 1430.5 1496 1447.1 1551.43 1498.03 1523.97 1470.57 1574.9 1526 1591.5 1470.57 1608.1 1498.03 1659.03 1447.1 1631.57 1430.5 1687 1413.9 1631.57 1362.97 1659.03 1390.43 1608.1Z" fill="#002854" fill-rule="evenodd"/><path d="M1335 920.978 1389.06 886.982 1354.81 832.415 1414.55 854.351 1435 793 1455.45 854.351 1515.19 832.415 1480.94 886.982 1535 920.978 1471.84 927.671 1479.5 992.001 1435 945.78 1390.5 992.001 1398.16 927.671Z" fill="#002854" fill-rule="evenodd"/><path d="M1481 1267.34 1519.94 1263.18 1536 1228 1552.06 1263.18 1591 1267.34 1561.98 1293.25 1569.99 1331 1536 1311.83 1502.01 1331 1510.02 1293.25Z" fill="#002854" fill-rule="evenodd"/><path d="M1073 1198.98 1127.06 1164.98 1092.81 1110.41 1152.55 1132.35 1173 1071 1193.45 1132.35 1253.19 1110.41 1218.94 1164.98 1273 1198.98 1209.84 1205.67 1217.5 1270 1173 1223.78 1128.5 1270 1136.16 1205.67Z" fill="#002854" fill-rule="evenodd"/></g></svg>