<svg width="2338" height="1169" xmlns="http://www.w3.org/2000/svg" xmlns:xlink="http://www.w3.org/1999/xlink" xml:space="preserve" overflow="hidden"><defs><clipPath id="clip0"><rect x="1031" y="653" width="2338" height="1169"/></clipPath></defs><g clip-path="url(#clip0)" transform="translate(-1031 -653)"><rect x="1810" y="653" width="1559" height="1169"/><path d="M2191 1237.5C2191 1011.89 2373.67 829 2599 829 2824.33 829 3007 1011.89 3007 1237.5 3007 1463.11 2824.33 1646 2599 1646 2373.67 1646 2191 1463.11 2191 1237.5Z" fill="#FFD100" fill-rule="evenodd"/><rect x="0" y="0" width="779" height="1169" fill="#FFD100" transform="matrix(-1 1.22465e-16 1.22465e-16 1 1810 653)"/><path d="M53.2665 78.2219C53.2665 78.2219 53.4612 74.073 53.805 72.0299 54.8874 65.5962 61.425 58.923 58.5836 53.0501 57.5119 50.8359 53.0645 49.8871 51.8531 50.0215M11.8076 76.2699C11.8076 76.2699 10.4815 72.3618 10.0577 70.3472 8.71262 63.9506 12.3741 55.3266 7.56757 50.8965 5.76773 49.2377 1.30834 49.9543 0.231319 50.56M44.1808 78.2219C44.1808 78.2219 44.9543 73.1531 45.3246 70.6164 46.1105 65.2354 49.3015 59.6331 47.613 54.4636 46.8741 52.2015 46.5364 49.5506 42.6325 49.3486M25.201 75.9335C28.0952 67.5206 28.369 60.922 26.278 53.8579 25.5482 51.3921 24.3933 47.9351 21.7688 47.5987M17.2591 75.3277C19.2111 66.7128 18.8519 60.0408 15.9804 53.2522 14.9723 50.8685 13.4231 47.6659 10.731 47.5314M32.6045 76.8084C32.6045 76.8084 34.789 67.8707 36.1044 64.4244 37.4193 60.9785 38.1966 55.0417 36.9117 47.8679 35.6273 40.6941 36.332 33.0474 38.258 27.4751 40.184 21.9028 43.171-3.55185 34.9602 0.486142 31.5275 2.23609 31.1238 5.60115 30.989 9.70677" stroke="#3F8C2E" stroke-width="3.17874" stroke-linecap="round" stroke-miterlimit="8" fill="none" fill-rule="evenodd" transform="matrix(0.525182 0.85099 0.85099 -0.525182 2401.15 1114.39)"/><path d="M2609.27 1090.78C2608.42 1089.28 2607.22 1088 2605.5 1087.1 2595.51 1081.91 2577.6 1086.32 2577.65 1090.7 2579.12 1091.44 2578.75 1092.34 2577.27 1098.58 2575.79 1104.82 2565.49 1109.09 2556.65 1128.86 2553.95 1134.87 2547.41 1155.92 2546.4 1160.18L2563.03 1170.08C2565.93 1167.11 2619.22 1119.1 2609.27 1090.78ZM2577.65 1090.7C2577.51 1090.63 2577.38 1090.6 2577.21 1090.62 2577.37 1090.62 2577.51 1090.63 2577.65 1090.7ZM2577.21 1090.62C2577 1090.63 2576.78 1090.69 2576.5 1090.91 2576.77 1090.69 2576.99 1090.66 2577.21 1090.62Z" stroke="#007D61" stroke-width="2.40607" stroke-miterlimit="8" fill="#009271" fill-rule="evenodd"/><path d="M2604.14 1114.81C2607.25 1110.7 2613.05 1094.54 2604.05 1089.64 2595.07 1084.79 2578.99 1088.71 2579.88 1092.68 2580.85 1096.68 2579 1102.06 2577.15 1104.69 2575.32 1107.23 2569.52 1133.42 2571.53 1144.62 2572.27 1148.69 2603.08 1116.18 2604.14 1114.81" fill="#5EC347" fill-rule="evenodd"/><path d="M2582.58 1052.29C2569.83 1048.93 2548.56 1043.55 2525.74 1057.07 2520.8 1059.96 2507.81 1068.38 2510.91 1058.4L2480.92 1081.97C2498.95 1119.64 2480.92 1081.97 2498.95 1119.64 2501.02 1123.51 2504.72 1131.18 2515.23 1128.73 2529.85 1125.25 2569.84 1095.98 2576.46 1090.94 2576.95 1090.56 2577.3 1090.57 2577.61 1090.73 2577.57 1086.35 2595.48 1081.94 2605.47 1087.13 2607.19 1088.03 2608.39 1089.31 2609.24 1090.81 2608.53 1088.8 2607.53 1086.89 2606.16 1085.11 2601.91 1079.51 2595.1 1069 2595.13 1067.24 2595.19 1066.38 2595.24 1063.48 2593.68 1060.38 2592.13 1057.27 2588.96 1053.97 2582.58 1052.29Z" stroke="#007D61" stroke-width="3.4375" stroke-miterlimit="8" fill="#009271" fill-rule="evenodd"/><path d="M2593.49 1060.49C2591.93 1057.39 2588.76 1054.09 2582.39 1052.41 2569.63 1049.04 2548.36 1043.66 2525.55 1057.19 2520.61 1060.08 2507.61 1068.5 2510.71 1058.52L2485.87 1078.03 2516.88 1128.27C2532.72 1123.1 2569.9 1095.9 2576.27 1091.06 2576.75 1090.68 2577.11 1090.69 2577.42 1090.84 2577.37 1086.46 2595.28 1082.06 2605.27 1087.24 2606.99 1088.14 2608.19 1089.42 2609.04 1090.92 2608.34 1088.92 2607.33 1087.01 2605.96 1085.23 2601.71 1079.62 2594.91 1069.12 2594.93 1067.36 2594.99 1066.49 2595.04 1063.59 2593.49 1060.49Z" stroke="#007D61" stroke-width="3.4375" stroke-miterlimit="8" fill="#009271" fill-rule="evenodd"/><path d="M2514.02 1040.23C2514.8 1039.31 2515.5 1038.93 2515.75 1040.24 2519.37 1060.07 2499.22 1083.42 2501.69 1080 2504.69 1076.01 2525.21 1068.25 2527.99 1068.28L2542.4 1066.11C2540.23 1067.21 2535.06 1073.96 2533.99 1078.89 2531.85 1088.12 2516.08 1099.2 2519.97 1096.8 2524.67 1093.9 2536.62 1099.81 2540.05 1099.35 2543.49 1098.89 2553.43 1095.52 2554.59 1098.05 2554.97 1098.92 2543.4 1109.39 2539.15 1111.85 2525.33 1119.83 2515.24 1114.51 2509.46 1116.41L2506.01 1119.13 2504.28 1120.79 2505.05 1125.19C2506.67 1128.14 2509.52 1130.42 2508.01 1129.96L2507.74 1129.75 2507.82 1130.08C2504.8 1129.17 2501.56 1127.13 2500.05 1124.04 2496.64 1116.73 2477.39 1092.07 2475.73 1088.74L2475.7 1083.51 2475.58 1080.95 2475.68 1080.79 2475.67 1080.32 2478.15 1076.78 2479.95 1073.84 2480.63 1073.21 2480.99 1072.7 2481.06 1072.81 2486.05 1068.16C2488.04 1066.6 2489.81 1065.42 2490.87 1064.77 2505.66 1055.8 2510.53 1045.36 2511.79 1043.56 2512.37 1042.64 2513.24 1041.16 2514.02 1040.23Z" stroke="#4AA535" stroke-width="4.58333" stroke-miterlimit="8" fill="#5EC347" fill-rule="evenodd"/><path d="M2899.72 1207.04C2919.79 1217.51 2932.18 1210.42 2937.4 1206.32 2941.05 1203.52 2947.89 1194.47 2951.51 1188.68 2952.03 1187.73 2947.42 1185.27 2943.4 1185.54 2939.28 1185.79 2928.29 1189.25 2917.39 1197.08 2910.26 1202.05 2902.35 1192.84 2896.89 1195.65" stroke="#006852" stroke-width="2.40607" stroke-miterlimit="8" fill="#007D61" fill-rule="evenodd"/><path d="M0.202044 2.16888C2.82697 11.2547 11.1726 16.5045 9.55751 31.3115 8.95179 36.1572 8.14403 43.0894 7.80756 44.9066 7.13463 48.945 8.34607 60.925 12.3841 64.4921 14.6725 66.5113 15.4803 76.4048 16.8934 72.5685 17.9704 69.8763 22.1432 59.9152 23.826 55.6751 27.4603 46.7914 25.3062 32.2537 21.6719 24.5809 19.922 20.8122 9.75915 6.94743 9.75915 0.0152564" stroke="#006852" stroke-width="2.40571" stroke-miterlimit="8" fill="#007D61" fill-rule="evenodd" transform="matrix(0.525182 0.85099 0.85099 -0.525182 2869.74 1170.31)"/><path d="M0.20658 0.553354C0.879513 4.25488 8.68668 8.22567 8.41743 23.2347 8.35022 29.6955 5.86012 45.5119 4.44663 52.1076 3.3024 57.4919 2.69668 72.2988 5.72529 81.5195 6.39822 83.7403 11.1096 92.1536 12.5231 86.1632 13.4652 82.3944 17.0324 64.6937 21.9453 56.6845 27.8681 46.8582 25.2432 35.8876 22.8879 29.8976 20.4647 23.9748 14.8787 15.2927 11.3116 0.0148441" stroke="#006852" stroke-width="2.40571" stroke-miterlimit="8" fill="#007D61" fill-rule="evenodd" transform="matrix(0.525182 0.85099 0.85099 -0.525182 2845.09 1138.68)"/><path d="M2808.81 1116.11C2813.21 1113.63 2852.6 1093.51 2859.24 1082.37 2861.21 1079.02 2866.29 1054.69 2868.34 1052.63 2870.41 1050.48 2871.13 1049.09 2872.05 1045.44 2872.94 1042.28 2875.28 1047.48 2877.91 1051.23 2880.45 1054.97 2889.19 1077.33 2876.66 1094.32 2873.89 1098.16 2858.86 1106.73 2852.55 1107.54 2848.22 1108.08 2832.99 1117.23 2822.79 1121.08 2819.43 1122.35 2815.96 1124.11 2812.46 1124.21" stroke="#006852" stroke-width="2.40607" stroke-miterlimit="8" fill="#007D61" fill-rule="evenodd"/><path d="M2752.77 1094.31C2741.88 1096.52 2789.38 1072.51 2798.54 1064.8 2811.35 1054.04 2813.05 1051.02 2814.57 1048.74 2817.96 1043.48 2822.71 1041.81 2821.63 1031.48 2820.89 1023.87 2825.37 1020.24 2824.85 1015.81 2824.52 1012.7 2829.91 1020.92 2831.65 1024.51 2832.53 1026.34 2846.47 1047.63 2826.85 1068.13 2824.64 1070.44 2812.03 1078.85 2803.75 1082.86 2802.04 1083.67 2798.77 1085.93 2796.29 1086.91 2793.8 1087.89 2767.56 1101.24 2762.63 1102.86 2762.16 1102.99 2759.74 1092.93 2752.77 1094.31" stroke="#006852" stroke-width="2.40607" stroke-miterlimit="8" fill="#007D61" fill-rule="evenodd"/><path d="M2628.45 1106.98C2631.6 1101.95 2637.92 1092.2 2647.75 1080.2 2657 1069.03 2667.67 1051.22 2668.54 1043.01 2670.42 1025.56 2697.8 998.537 2689.25 979.69 2687.29 975.362 2676.12 962.008 2682.34 964.897 2685.42 966.312 2707.85 970.742 2710.11 1005.81 2710.48 1011.27 2702.66 1057.3 2668.5 1079.73 2665.36 1081.82 2646.8 1097.63 2647.26 1106.44" stroke="#006852" stroke-width="2.40607" stroke-miterlimit="8" fill="#007D61" fill-rule="evenodd"/><path d="M2715.58 1094.18C2717.94 1092.09 2740.81 1068.41 2746.37 1065.37 2764.5 1055.29 2807.99 1021.18 2778.07 982.695 2769.94 972.212 2757.24 970.72 2757.19 975.649 2757.1 981.007 2766.82 974.455 2768.21 994.397 2768.56 999.956 2756.5 1035.4 2739.01 1055.36 2737.08 1057.5 2712.64 1081.84 2707.39 1086.03" stroke="#006852" stroke-width="2.40607" stroke-miterlimit="8" fill="#007D61" fill-rule="evenodd"/><path d="M2938.18 1206.01C2941 1203.71 2945.87 1195.75 2948.34 1190.58 2948.68 1189.72 2944.49 1186.87 2941.09 1186.7 2940.22 1186.65 2939 1186.75 2937.53 1187.02 2938.71 1195.26 2934 1194.12 2938.18 1206.01Z" fill="#009271" fill-rule="evenodd"/><path d="M0.191506 13.3008C0.878811 16.75 2.12536 20.1477 4.04316 21.707 6.2163 23.4722 6.98349 32.121 8.32599 28.7673 9.34853 26.4139 13.3118 17.7063 14.91 13.9994 16.6359 10.1162 16.9876 4.99772 16.4761 0.0115346 5.23645 2.95069 8.70822 9.51172 0.191506 13.3008Z" fill="#009271" fill-rule="evenodd" transform="matrix(0.525182 0.85099 0.85099 -0.525182 2906.62 1155.87)"/><path d="M0.163543 21.666C0.230268 26.754 0.710757 32.2838 1.91214 36.528 2.44595 38.5728 6.18323 46.3175 7.30447 40.8032 8.05186 37.3334 10.8815 21.0386 14.7787 13.6655 17.1278 9.14271 17.782 4.35613 17.6149 0.0113876 8.11009 5.23487 6.64769 20.1959 0.163543 21.666Z" fill="#009271" fill-rule="evenodd" transform="matrix(0.525182 0.85099 0.85099 -0.525182 2883.57 1121.14)"/><path d="M2867.9 1087.17C2870.84 1081 2870.76 1073.91 2871.3 1067.2 2871.78 1061.17 2870.24 1052.41 2871.15 1049.1 2872.04 1046.23 2874.1 1050.88 2876.45 1054.22 2878.72 1057.54 2886.36 1077.58 2874.5 1093.15 2871.87 1096.67 2857.85 1104.69 2852.03 1105.54 2852.03 1105.54 2864.46 1094.41 2867.9 1087.17Z" fill="#009271" fill-rule="evenodd"/><path d="M2825.95 1028.27C2826.8 1026.3 2827.66 1024.65 2827.49 1022.86 2827.28 1020.35 2831.58 1026.89 2832.95 1029.76 2833.65 1031.22 2844.79 1048.18 2828.06 1065.19 2826.18 1067.11 2815.53 1074.18 2808.57 1077.6 2823.39 1055.01 2835.14 1053.09 2825.95 1028.27Z" fill="#009271" fill-rule="evenodd"/><path d="M2689.81 978.51C2688.06 974.728 2678.38 962.93 2683.65 965.578 2686.27 966.877 2705.16 971.261 2707.94 1001.56 2708.16 1003.92 2706.92 1014.98 2702.13 1027.75 2699.73 1034.14 2696.44 1040.96 2692 1047.33 2684.36 1032.77 2707.94 1001.56 2689.81 978.51Z" fill="#009271" fill-rule="evenodd"/><path d="M2767.04 1042.57C2771.83 1038.44 2776.62 1033.33 2780.19 1027.45 2787.34 1015.7 2789.62 1000.9 2777.25 984.776 2770.53 975.991 2760.38 974.472 2760.46 978.513 2760.51 982.903 2768.1 977.758 2769.67 994.14 2786.43 1017.15 2767.85 1022.68 2767.04 1042.57Z" fill="#009271" fill-rule="evenodd"/><path d="M2476.97 1253.55C2479.17 1249.43 2510.49 1224.32 2509.15 1205.61 2485.39 1193.39 2509.15 1205.61 2485.39 1193.39 2485.18 1203.8 2473.72 1230.09 2463.93 1249.97" stroke="#007D61" stroke-width="3.4375" stroke-miterlimit="8" fill="#009271" fill-rule="evenodd"/><path d="M2497.56 1223.29C2501.19 1220.26 2506.59 1212.14 2505.15 1204.36 2496.83 1197.64 2498.05 1201.19 2484.81 1193.43 2484.32 1200.05 2477.7 1227.24 2480.29 1233.31Z" fill="#5EC347" fill-rule="evenodd"/><path d="M2506.89 1203.33C2498.48 1196.64 2499.7 1200.21 2486.29 1192.52 2486.17 1193.97 2485.72 1196.52 2485.15 1199.52L2499.2 1222.28C2502.92 1219.06 2508.26 1211.01 2506.89 1203.33Z" fill="#78CD65" fill-rule="evenodd"/><path d="M2509.03 1205.41C2508.73 1201.72 2498.32 1188.45 2498.02 1185.79 2497.82 1183.15 2494.2 1171.38 2483.83 1164.58 2477.66 1160.47 2463.17 1154.31 2426.41 1168.3 2423.19 1169.49 2390.5 1163.56 2390.5 1163.56L2339.38 1189.42C2339.38 1189.42 2339.45 1212.95 2346.14 1222.9 2348.57 1226.45 2368.33 1240.52 2408.67 1218.23 2451.05 1194.77 2459.82 1189.27 2484.3 1193.49 2495.77 1195.47 2484.3 1193.49 2509.03 1205.41Z" stroke="#007D61" stroke-width="3.4375" stroke-miterlimit="8" fill="#009271" fill-rule="evenodd"/><path d="M2342.98 1188.22 2337.97 1190.71C2349.08 1210.5 2339.25 1213.07 2345.95 1223.02 2347.39 1225.13 2354.9 1230.89 2369.15 1230.63L2342.98 1188.22Z" fill="#009271" fill-rule="evenodd"/><path d="M2377.05 1107.27 2368.86 1148.37 2369.95 1147.74 2371.57 1146.81C2376.48 1143.97 2386.51 1138.2 2388.24 1137.36 2403.09 1129.84 2417.9 1126.6 2417.9 1126.6L2390.49 1162.01C2405.91 1163.16 2426.12 1171.08 2426.12 1171.08L2425.81 1171.15 2425.92 1171.19 2386.06 1180.97 2403.06 1187.57C2417.17 1193.59 2422.61 1197.53 2422.61 1197.53L2422.23 1197.54 2422.41 1197.65C2422.41 1197.65 2402.92 1198.01 2400.27 1197.43 2393.97 1196.01 2386.29 1197.76 2379.46 1200.28L2379.45 1200.27 2378.62 1200.51C2371.55 1203.23 2365.56 1206.72 2363.29 1208.28 2340.39 1224.23 2360.38 1232.54 2355.79 1231.25 2351.21 1229.97 2345.28 1223.19 2344.76 1220.03 2339.26 1188.31 2323.94 1180.28 2322.63 1178.17 2311.34 1159.87 2325.68 1150.8 2336.64 1146.2L2345.4 1142.92 2353.96 1137.89C2356.16 1136.05 2357.66 1134.24 2358.41 1132.91 2368.87 1114.47 2374.01 1109.34 2375.93 1107.92L2376.12 1107.8 2376.13 1107.8C2376.76 1107.33 2377.05 1107.27 2377.05 1107.27Z" stroke="#4AA535" stroke-width="4.58333" stroke-miterlimit="8" fill="#5EC347" fill-rule="evenodd"/><path d="M22.5094 86.0414C23.9225 78.7052 20.4902 54.7452 9.25035 56.5624M12.1445 85.5701C12.8847 79.715 8.98109 61.0045 0.231733 62.956M61.8145 83.4165C61.4781 81.8686 57.1036 58.3795 71.5737 55.2837M49.9694 86.8949C49.6329 85.347 47.008 57.0337 59.4589 54.4088M34.9603 88.0606C35.2972 86.5123 36.6431 52.726 24.5282 52.5244M43.9794 88.2622C43.3736 86.1086 42.549 71.4155 45.3924 60.8024 48.2363 50.1893 56.2958 14.5649 42.0274 2.31567 38.7295-0.510882 27.7589-3.80873 33.9509 14.0268" stroke="#3F8C2E" stroke-width="3.17874" stroke-linecap="round" stroke-miterlimit="8" fill="none" fill-rule="evenodd" transform="matrix(0.525182 0.85099 0.85099 -0.525182 2238.38 1204.96)"/><path d="M2402.84 1542C2386.45 1433.8 2621.06 972.263 2869.78 1201.24 2876.76 1207.69 2905.93 1244.57 2909.86 1265.16 2912.02 1276.48 2917.62 1266.07 2904.83 1237.66 2903.38 1234.29 2914.42 1238.47 2912.69 1230.91 2910.9 1223.4 2904.81 1222.89 2900.44 1222.73 2896.04 1222.52 2890.16 1208.12 2891.8 1207.58 2893.39 1207.08 2902.33 1211.05 2900.67 1202.98 2898.98 1194.61 2894.91 1193.64 2891.55 1195.24 2888.24 1196.81 2883.34 1197.07 2877.73 1194.12 2871.49 1190.94 2861.84 1181.94 2866.25 1182.15 2870.67 1182.27 2877.36 1178.35 2875.05 1173.61 2872.36 1168.1 2870.19 1166.56 2863.74 1167.39 2858.57 1168.06 2854.95 1169.9 2850.31 1166.99 2845.31 1163.9 2834.81 1156.63 2838.41 1156.3 2842.01 1155.98 2853.55 1153.26 2850.47 1146.88 2847.85 1141.47 2845.41 1133.95 2838.65 1137.73 2831.82 1141.39 2826.41 1146.47 2821.26 1145.06 2816.58 1143.75 2799.73 1141.42 2798.09 1134.68 2797.9 1134.09 2808.72 1128.83 2811.38 1126.09 2814.67 1122.71 2810.72 1116.51 2806.53 1114.59 2804.74 1113.77 2799.66 1114.73 2797.78 1115.34 2792.5 1117.04 2788.29 1119.69 2783.21 1123.38 2780.91 1125.04 2765.27 1119.02 2755.89 1119.51 2750.49 1119.8 2753.93 1115.91 2753.93 1115.91 2755.45 1114.65 2761.31 1109.94 2762.37 1105.63 2762.89 1103.52 2762.18 1101.11 2761.05 1099.25 2759.78 1097.16 2757.79 1094.64 2755.34 1094.63 2745.99 1094.58 2739.89 1102.57 2733.37 1112.07 2729.53 1117.66 2717.31 1118.33 2703.39 1119.89 2698.67 1120.42 2697.84 1114.82 2702.43 1111.54 2710.29 1105.93 2720.16 1100.28 2715.53 1092.78 2713.34 1089.23 2709.87 1086.94 2707.98 1086.45 2705.39 1085.83 2703.97 1085.84 2699.68 1088.49 2697.44 1089.87 2685.78 1095.96 2689.59 1104.83 2690.44 1106.84 2681.58 1115.95 2678.68 1116.63 2675.73 1117.35 2658.73 1125.31 2652.54 1129.37 2650.2 1130.97 2649.47 1126.2 2650.43 1125.05 2651.44 1123.87 2655.37 1116.15 2647.68 1106.89 2646.12 1105.01 2640.71 1103.66 2637.01 1103.83 2633.64 1103.99 2627.58 1107.52 2627.58 1107.52 2623.92 1109.78 2614.48 1113.07 2620.89 1135.76 2621.51 1137.92 2594.06 1147.9 2562.98 1178.78 2560.7 1180.98 2561.22 1174.02 2562.14 1172.81 2564.14 1170.16 2564.43 1169.74 2560.96 1167.69 2557.42 1165.68 2550.26 1159.98 2546.49 1160.65 2544.55 1160.97 2528.1 1166.61 2528.73 1191.46 2528.92 1198.06 2488.2 1243.44 2484.17 1258.82 2483.41 1261.82 2480.87 1260.56 2478.39 1255.35 2475.93 1250.18 2462.69 1246.69 2458.08 1251.04 2451.68 1257.1 2443.74 1262.56 2451.09 1284.29 2456.11 1299.14 2385.58 1411.64 2372.43 1467.21 2371.34 1471.6 2369.49 1475.27 2369.1 1479.39" stroke="#9F0F25" stroke-width="6.875" stroke-miterlimit="8" fill="#C4122E" fill-rule="evenodd"/><path d="M2901.95 1228.44C2901.28 1227.36 2903.69 1227.51 2904.59 1227.68 2906.36 1228.03 2908.77 1229.75 2908.84 1231.02 2908.95 1232.85 2907 1231.89 2905.11 1232.31 2903.36 1232.69 2902.61 1229.53 2901.95 1228.44Z" fill="#D61432" fill-rule="evenodd"/><path d="M1077 1172.5 1132.72 1155.9 1105.12 1104.97 1156.32 1132.43 1173 1077 1189.68 1132.43 1240.88 1104.97 1213.28 1155.9 1269 1172.5 1213.28 1189.1 1240.88 1240.03 1189.68 1212.57 1173 1268 1156.32 1212.57 1105.12 1240.03 1132.72 1189.1Z" fill-rule="evenodd"/><path d="M1565 1127.98 1619.06 1093.98 1584.81 1039.41 1644.55 1061.35 1665 1000 1685.45 1061.35 1745.19 1039.41 1710.94 1093.98 1765 1127.98 1701.84 1134.67 1709.5 1199 1665 1152.78 1620.5 1199 1628.16 1134.67Z" fill-rule="evenodd"/><path d="M1481 1267.34 1519.94 1263.18 1536 1228 1552.06 1263.18 1591 1267.34 1561.98 1293.25 1569.99 1331 1536 1311.83 1502.01 1331 1510.02 1293.25Z" fill-rule="evenodd"/><path d="M1435.52 1487 1452.11 1550.21 1506.72 1512.59 1479.67 1572.73 1545 1579.38 1486.82 1606.25 1532.75 1654.61 1469.21 1638.49 1473.03 1704 1435.27 1650.26 1397.75 1703.74 1401.58 1638.23 1338.8 1654.36 1384.74 1607.27 1324 1579.63 1390.35 1573.49 1364.07 1514.13 1417.15 1550.46 1435.52 1487Z" fill-rule="evenodd"/><path d="M1335 925.978 1389.06 891.981 1354.81 837.414 1414.55 859.351 1435 798 1455.45 859.351 1515.19 837.414 1480.94 891.981 1535 925.978 1471.84 932.671 1479.5 997.001 1435 950.78 1390.5 997.001 1398.16 932.671Z" fill-rule="evenodd"/></g></svg>